<svg width="42" height="42" viewBox="0 0 42 42" fill="none" xmlns="http://www.w3.org/2000/svg">
<path d="M15.959 5.04078H16.799V5.88078H15.959V5.04078Z" fill="#665545"/>
<path d="M15.1211 4.19996H15.9611V5.03996H15.1211V4.19996Z" fill="#665545"/>
<path d="M15.1211 5.04078H15.9611V5.88078H15.1211V5.04078Z" fill="#665545"/>
<path d="M14.2783 5.04078H15.1183V5.88078H14.2783V5.04078Z" fill="#665545"/>
<path d="M16.7998 5.04078H17.6398V5.88078H16.7998V5.04078Z" fill="#665545"/>
<path d="M15.959 5.87849H16.799V6.71849H15.959V5.87849Z" fill="#665545"/>
<path d="M15.1211 5.87849H15.9611V6.71849H15.1211V5.87849Z" fill="#665545"/>
<path d="M14.2783 5.87849H15.1183V6.71849H14.2783V5.87849Z" fill="#665545"/>
<path d="M16.7998 5.87849H17.6398V6.71849H16.7998V5.87849Z" fill="#665545"/>
<path d="M15.1211 6.72138H15.9611V7.56138H15.1211V6.72138Z" fill="#665545"/>
<path d="M14.2783 6.72138H15.1183V7.56138H14.2783V6.72138Z" fill="#665545"/>
<path d="M16.7998 6.72138H17.6398V7.56138H16.7998V6.72138Z" fill="#665545"/>
<path d="M16.7998 7.56013H17.6398V8.40013H16.7998V7.56013Z" fill="#665545"/>
<path d="M15.959 6.72138H16.799V7.56138H15.959V6.72138Z" fill="#665545"/>
<path d="M14.2783 7.56013H15.1183V8.40013H14.2783V7.56013Z" fill="#665545"/>
<rect x="15.959" y="4.19996" width="0.839997" height="0.84" fill="#665545"/>
<path d="M8.40039 15.1215H9.24039V15.9615H8.40039V15.1215Z" fill="#665545"/>
<path d="M7.55859 14.2786H8.39859V15.1186H7.55859V14.2786Z" fill="#665545"/>
<path d="M7.55859 15.1215H8.39859V15.9615H7.55859V15.1215Z" fill="#665545"/>
<path d="M6.72168 15.1215H7.56168V15.9615H6.72168V15.1215Z" fill="#665545"/>
<path d="M9.24121 15.1215H10.0812V15.9615H9.24121V15.1215Z" fill="#665545"/>
<path d="M10.0791 15.1215H10.9191V15.9615H10.0791V15.1215Z" fill="#665545"/>
<path d="M9.24121 14.2786H10.0812V15.1186H9.24121V14.2786Z" fill="#665545"/>
<path d="M8.40039 15.9592H9.24039V16.7992H8.40039V15.9592Z" fill="#665545"/>
<path d="M7.55859 15.9592H8.39859V16.7992H7.55859V15.9592Z" fill="#665545"/>
<path d="M6.72168 15.9592H7.56168V16.7992H6.72168V15.9592Z" fill="#665545"/>
<path d="M7.55859 16.8H8.39859V17.64H7.55859V16.8Z" fill="#665545"/>
<path d="M6.72168 16.8H7.56168V17.64H6.72168V16.8Z" fill="#665545"/>
<path d="M6.72168 17.6398H7.56168V18.4798H6.72168V17.6398Z" fill="#665545"/>
<path d="M9.24121 15.9592H10.0812V16.7992H9.24121V15.9592Z" fill="#665545"/>
<path d="M10.0791 15.9592H10.9191V16.7992H10.0791V15.9592Z" fill="#665545"/>
<rect x="8.40039" y="14.2786" width="0.839999" height="0.840001" fill="#665545"/>
<path d="M31.0791 6.72138H31.9191V7.56138H31.0791V6.72138Z" fill="#665545"/>
<path d="M30.2412 5.87849H31.0812V6.71849H30.2412V5.87849Z" fill="#665545"/>
<path d="M30.2412 6.72138H31.0812V7.56138H30.2412V6.72138Z" fill="#665545"/>
<path d="M29.4004 6.72138H30.2404V7.56138H29.4004V6.72138Z" fill="#665545"/>
<path d="M31.9209 6.72138H32.7609V7.56138H31.9209V6.72138Z" fill="#665545"/>
<path d="M31.0791 7.56013H31.9191V8.40013H31.0791V7.56013Z" fill="#665545"/>
<path d="M30.2412 7.56013H31.0812V8.40013H30.2412V7.56013Z" fill="#665545"/>
<path d="M29.4004 7.56013H30.2404V8.40013H29.4004V7.56013Z" fill="#665545"/>
<path d="M31.9209 7.56013H32.7609V8.40013H31.9209V7.56013Z" fill="#665545"/>
<path d="M30.2412 8.39991H31.0812V9.23991H30.2412V8.39991Z" fill="#665545"/>
<path d="M29.4004 8.39991H30.2404V9.23991H29.4004V8.39991Z" fill="#665545"/>
<path d="M31.9209 8.39991H32.7609V9.23991H31.9209V8.39991Z" fill="#665545"/>
<path d="M31.9209 9.24073H32.7609V10.0807H31.9209V9.24073Z" fill="#665545"/>
<path d="M31.0791 8.39991H31.9191V9.23991H31.0791V8.39991Z" fill="#665545"/>
<path d="M29.4004 9.24073H30.2404V10.0807H29.4004V9.24073Z" fill="#665545"/>
<rect x="31.0791" y="5.87849" width="0.840001" height="0.84" fill="#665545"/>
<path d="M31.0791 11.7593H31.9191V12.5993H31.0791V11.7593Z" fill="#665545"/>
<path d="M30.2412 10.9184H31.0812V11.7584H30.2412V10.9184Z" fill="#665545"/>
<path d="M30.2412 11.7593H31.0812V12.5993H30.2412V11.7593Z" fill="#665545"/>
<path d="M29.4004 11.7593H30.2404V12.5993H29.4004V11.7593Z" fill="#665545"/>
<path d="M31.9209 11.7593H32.7609V12.5993H31.9209V11.7593Z" fill="#665545"/>
<path d="M31.0791 12.6001H31.9191V13.4401H31.0791V12.6001Z" fill="#665545"/>
<path d="M30.2412 12.6001H31.0812V13.4401H30.2412V12.6001Z" fill="#665545"/>
<path d="M29.4004 12.6001H30.2404V13.4401H29.4004V12.6001Z" fill="#665545"/>
<path d="M29.4004 13.4399H30.2404V14.2799H29.4004V13.4399Z" fill="#665545"/>
<path d="M31.9209 13.4399H32.7609V14.2799H31.9209V13.4399Z" fill="#665545"/>
<path d="M31.9209 12.6001H32.7609V13.4401H31.9209V12.6001Z" fill="#665545"/>
<rect x="31.0791" y="10.9184" width="0.840001" height="0.84" fill="#665545"/>
<path d="M31.0791 15.9592H31.9191V16.7992H31.0791V15.9592Z" fill="#665545"/>
<path d="M30.2412 15.1215H31.0812V15.9615H30.2412V15.1215Z" fill="#665545"/>
<path d="M30.2412 15.9592H31.0812V16.7992H30.2412V15.9592Z" fill="#665545"/>
<path d="M29.4004 15.9592H30.2404V16.7992H29.4004V15.9592Z" fill="#665545"/>
<path d="M31.9209 15.9592H32.7609V16.7992H31.9209V15.9592Z" fill="#665545"/>
<path d="M31.0791 16.8H31.9191V17.64H31.0791V16.8Z" fill="#665545"/>
<path d="M30.2412 16.8H31.0812V17.64H30.2412V16.8Z" fill="#665545"/>
<path d="M29.4004 16.8H30.2404V17.64H29.4004V16.8Z" fill="#665545"/>
<path d="M31.9209 16.8H32.7609V17.64H31.9209V16.8Z" fill="#665545"/>
<rect x="31.0791" y="15.1215" width="0.840001" height="0.840001" fill="#665545"/>
<path d="M26.041 10.0816H26.881V10.9216H26.041V10.0816Z" fill="#665545"/>
<path d="M25.2002 9.24073H26.0402V10.0807H25.2002V9.24073Z" fill="#665545"/>
<path d="M25.2002 10.0816H26.0402V10.9216H25.2002V10.0816Z" fill="#665545"/>
<path d="M24.3594 10.0816H25.1994V10.9216H24.3594V10.0816Z" fill="#665545"/>
<path d="M26.8789 10.0816H27.7189V10.9216H26.8789V10.0816Z" fill="#665545"/>
<path d="M26.041 10.9184H26.881V11.7584H26.041V10.9184Z" fill="#665545"/>
<path d="M25.2002 10.9184H26.0402V11.7584H25.2002V10.9184Z" fill="#665545"/>
<path d="M24.3594 10.9184H25.1994V11.7584H24.3594V10.9184Z" fill="#665545"/>
<path d="M26.8789 10.9184H27.7189V11.7584H26.8789V10.9184Z" fill="#665545"/>
<path d="M26.041 11.7593H26.881V12.5993H26.041V11.7593Z" fill="#665545"/>
<path d="M25.2002 11.7593H26.0402V12.5993H25.2002V11.7593Z" fill="#665545"/>
<path d="M24.3594 11.7593H25.1994V12.5993H24.3594V11.7593Z" fill="#665545"/>
<path d="M24.3594 12.6001H25.1994V13.4401H24.3594V12.6001Z" fill="#665545"/>
<path d="M26.8789 12.6001H27.7189V13.4401H26.8789V12.6001Z" fill="#665545"/>
<path d="M26.8789 11.7593H27.7189V12.5993H26.8789V11.7593Z" fill="#665545"/>
<rect x="26.041" y="9.24073" width="0.839999" height="0.84" fill="#665545"/>
<path d="M26.041 15.1215H26.881V15.9615H26.041V15.1215Z" fill="#665545"/>
<path d="M25.2002 14.2786H26.0402V15.1186H25.2002V14.2786Z" fill="#665545"/>
<path d="M25.2002 15.1215H26.0402V15.9615H25.2002V15.1215Z" fill="#665545"/>
<path d="M24.3594 15.1215H25.1994V15.9615H24.3594V15.1215Z" fill="#665545"/>
<path d="M26.8789 15.1215H27.7189V15.9615H26.8789V15.1215Z" fill="#665545"/>
<path d="M26.041 15.9592H26.881V16.7992H26.041V15.9592Z" fill="#665545"/>
<path d="M25.2002 15.9592H26.0402V16.7992H25.2002V15.9592Z" fill="#665545"/>
<path d="M24.3594 15.9592H25.1994V16.7992H24.3594V15.9592Z" fill="#665545"/>
<path d="M26.8789 15.9592H27.7189V16.7992H26.8789V15.9592Z" fill="#665545"/>
<path d="M26.041 16.8H26.881V17.64H26.041V16.8Z" fill="#665545"/>
<path d="M25.2002 16.8H26.0402V17.64H25.2002V16.8Z" fill="#665545"/>
<path d="M24.3594 16.8H25.1994V17.64H24.3594V16.8Z" fill="#665545"/>
<path d="M26.8789 16.8H27.7189V17.64H26.8789V16.8Z" fill="#665545"/>
<rect x="26.041" y="14.2786" width="0.839999" height="0.840001" fill="#665545"/>
<path d="M21 8.39991H21.84V9.23991H21V8.39991Z" fill="#665545"/>
<path d="M20.1592 7.56013H20.9992V8.40013H20.1592V7.56013Z" fill="#665545"/>
<path d="M20.1592 8.39991H20.9992V9.23991H20.1592V8.39991Z" fill="#665545"/>
<path d="M19.3213 8.39991H20.1613V9.23991H19.3213V8.39991Z" fill="#665545"/>
<path d="M21.8408 8.39991H22.6808V9.23991H21.8408V8.39991Z" fill="#665545"/>
<path d="M21 9.24073H21.84V10.0807H21V9.24073Z" fill="#665545"/>
<path d="M20.1592 9.24073H20.9992V10.0807H20.1592V9.24073Z" fill="#665545"/>
<path d="M19.3213 9.24073H20.1613V10.0807H19.3213V9.24073Z" fill="#665545"/>
<path d="M21.8408 9.24073H22.6808V10.0807H21.8408V9.24073Z" fill="#665545"/>
<path d="M21 10.0816H21.84V10.9216H21V10.0816Z" fill="#665545"/>
<path d="M20.1592 10.0816H20.9992V10.9216H20.1592V10.0816Z" fill="#665545"/>
<path d="M19.3213 10.0816H20.1613V10.9216H19.3213V10.0816Z" fill="#665545"/>
<path d="M19.3213 10.9184H20.1613V11.7584H19.3213V10.9184Z" fill="#665545"/>
<path d="M21.8408 10.9184H22.6808V11.7584H21.8408V10.9184Z" fill="#665545"/>
<path d="M21.8408 10.0816H22.6808V10.9216H21.8408V10.0816Z" fill="#665545"/>
<rect x="21" y="7.56013" width="0.839999" height="0.840001" fill="#665545"/>
<path d="M15.959 10.0816H16.799V10.9216H15.959V10.0816Z" fill="#665545"/>
<path d="M15.1211 9.24073H15.9611V10.0807H15.1211V9.24073Z" fill="#665545"/>
<path d="M15.1211 10.0816H15.9611V10.9216H15.1211V10.0816Z" fill="#665545"/>
<path d="M14.2783 10.0816H15.1183V10.9216H14.2783V10.0816Z" fill="#665545"/>
<path d="M16.7998 10.0816H17.6398V10.9216H16.7998V10.0816Z" fill="#665545"/>
<path d="M15.959 10.9184H16.799V11.7584H15.959V10.9184Z" fill="#665545"/>
<path d="M15.1211 10.9184H15.9611V11.7584H15.1211V10.9184Z" fill="#665545"/>
<path d="M14.2783 10.9184H15.1183V11.7584H14.2783V10.9184Z" fill="#665545"/>
<path d="M16.7998 10.9184H17.6398V11.7584H16.7998V10.9184Z" fill="#665545"/>
<path d="M15.959 11.7593H16.799V12.5993H15.959V11.7593Z" fill="#665545"/>
<path d="M15.1211 11.7593H15.9611V12.5993H15.1211V11.7593Z" fill="#665545"/>
<path d="M14.2783 11.7593H15.1183V12.5993H14.2783V11.7593Z" fill="#665545"/>
<path d="M14.2783 12.6001H15.1183V13.4401H14.2783V12.6001Z" fill="#665545"/>
<path d="M16.7998 12.6001H17.6398V13.4401H16.7998V12.6001Z" fill="#665545"/>
<path d="M16.7998 11.7593H17.6398V12.5993H16.7998V11.7593Z" fill="#665545"/>
<rect x="15.959" y="9.24073" width="0.839997" height="0.84" fill="#665545"/>
<path d="M15.959 15.1215H16.799V15.9615H15.959V15.1215Z" fill="#665545"/>
<path d="M15.1211 14.2786H15.9611V15.1186H15.1211V14.2786Z" fill="#665545"/>
<path d="M15.1211 15.1215H15.9611V15.9615H15.1211V15.1215Z" fill="#665545"/>
<path d="M14.2783 15.1215H15.1183V15.9615H14.2783V15.1215Z" fill="#665545"/>
<path d="M16.7998 15.1215H17.6398V15.9615H16.7998V15.1215Z" fill="#665545"/>
<path d="M15.959 15.9592H16.799V16.7992H15.959V15.9592Z" fill="#665545"/>
<path d="M15.1211 15.9592H15.9611V16.7992H15.1211V15.9592Z" fill="#665545"/>
<path d="M14.2783 15.9592H15.1183V16.7992H14.2783V15.9592Z" fill="#665545"/>
<path d="M16.7998 15.9592H17.6398V16.7992H16.7998V15.9592Z" fill="#665545"/>
<path d="M17.6406 19.3215H18.4806V20.1615H17.6406V19.3215Z" fill="#665545"/>
<path d="M18.4785 19.3215H19.3185V20.1615H18.4785V19.3215Z" fill="#665545"/>
<path d="M17.6406 20.1592H18.4806V20.9992H17.6406V20.1592Z" fill="#665545"/>
<path d="M18.4785 20.1592H19.3185V20.9992H18.4785V20.1592Z" fill="#665545"/>
<path d="M15.959 16.8H16.799V17.64H15.959V16.8Z" fill="#665545"/>
<path d="M15.1211 16.8H15.9611V17.64H15.1211V16.8Z" fill="#665545"/>
<path d="M14.2783 16.8H15.1183V17.64H14.2783V16.8Z" fill="#665545"/>
<path d="M16.7998 16.8H17.6398V17.64H16.7998V16.8Z" fill="#665545"/>
<path d="M15.959 17.6398H16.799V18.4798H15.959V17.6398Z" fill="#665545"/>
<path d="M15.1211 17.6398H15.9611V18.4798H15.1211V17.6398Z" fill="#665545"/>
<path d="M14.2783 17.6398H15.1183V18.4798H14.2783V17.6398Z" fill="#665545"/>
<path d="M14.2783 18.4786H15.1183V19.3186H14.2783V18.4786Z" fill="#665545"/>
<path d="M14.2783 19.3215H15.1183V20.1615H14.2783V19.3215Z" fill="#665545"/>
<path d="M16.7998 17.6398H17.6398V18.4798H16.7998V17.6398Z" fill="#665545"/>
<path d="M15.959 20.1592H16.799V20.9992H15.959V20.1592Z" fill="#665545"/>
<path d="M15.1211 20.1592H15.9611V20.9992H15.1211V20.1592Z" fill="#665545"/>
<path d="M14.2783 20.1592H15.1183V20.9992H14.2783V20.1592Z" fill="#665545"/>
<path d="M16.7998 20.1592H17.6398V20.9992H16.7998V20.1592Z" fill="#665545"/>
<path d="M16.7998 18.4786H17.6398V19.3186H16.7998V18.4786Z" fill="#665545"/>
<path d="M16.7998 19.3215H17.6398V20.1615H16.7998V19.3215Z" fill="#665545"/>
<path d="M19.3213 19.3215H20.1613V20.1615H19.3213V19.3215Z" fill="#665545"/>
<path d="M21 20.1592H21.84V20.9992H21V20.1592Z" fill="#665545"/>
<path d="M20.1592 20.1592H20.9992V20.9992H20.1592V20.1592Z" fill="#665545"/>
<path d="M19.3213 20.1592H20.1613V20.9992H19.3213V20.1592Z" fill="#665545"/>
<path d="M21.8408 20.1592H22.6808V20.9992H21.8408V20.1592Z" fill="#665545"/>
<path d="M21.8408 19.3215H22.6808V20.1615H21.8408V19.3215Z" fill="#665545"/>
<rect x="15.959" y="14.2786" width="0.839997" height="0.840001" fill="#665545"/>
<path d="M17.6406 17.6398H18.4806V18.4798H17.6406V17.6398Z" fill="#665545"/>
<rect x="18.4785" y="17.6398" width="0.840001" height="0.840001" fill="#665545"/>
<path d="M17.6406 18.4786H18.4806V19.3186H17.6406V18.4786Z" fill="#665545"/>
<rect x="18.4785" y="18.4786" width="0.840001" height="0.840001" fill="#665545"/>
<path d="M22.6787 19.3215H23.5187V20.1615H22.6787V19.3215Z" fill="#665545"/>
<path d="M23.5215 19.3215H24.3615V20.1615H23.5215V19.3215Z" fill="#665545"/>
<path d="M22.6787 20.1592H23.5187V20.9992H22.6787V20.1592Z" fill="#665545"/>
<path d="M23.5215 20.1592H24.3615V20.9992H23.5215V20.1592Z" fill="#665545"/>
<path d="M22.6787 17.6398H23.5187V18.4798H22.6787V17.6398Z" fill="#665545"/>
<rect x="23.5215" y="17.6398" width="0.839999" height="0.840001" fill="#665545"/>
<path d="M22.6787 18.4786H23.5187V19.3186H22.6787V18.4786Z" fill="#665545"/>
<rect x="23.5215" y="18.4786" width="0.839999" height="0.840001" fill="#665545"/>
<path d="M27.7217 19.3215H28.5617V20.1615H27.7217V19.3215Z" fill="#665545"/>
<path d="M28.5586 19.3215H29.3986V20.1615H28.5586V19.3215Z" fill="#665545"/>
<path d="M27.7217 20.1592H28.5617V20.9992H27.7217V20.1592Z" fill="#665545"/>
<path d="M28.5586 20.1592H29.3986V20.9992H28.5586V20.1592Z" fill="#665545"/>
<path d="M27.7217 17.6398H28.5617V18.4798H27.7217V17.6398Z" fill="#665545"/>
<rect x="28.5586" y="17.6398" width="0.840001" height="0.840001" fill="#665545"/>
<path d="M27.7217 18.4786H28.5617V19.3186H27.7217V18.4786Z" fill="#665545"/>
<rect x="28.5586" y="18.4786" width="0.840001" height="0.840001" fill="#665545"/>
<path d="M21 13.4399H21.84V14.2799H21V13.4399Z" fill="#665545"/>
<path d="M20.1592 12.6001H20.9992V13.4401H20.1592V12.6001Z" fill="#665545"/>
<path d="M20.1592 13.4399H20.9992V14.2799H20.1592V13.4399Z" fill="#665545"/>
<path d="M19.3213 13.4399H20.1613V14.2799H19.3213V13.4399Z" fill="#665545"/>
<path d="M21.8408 13.4399H22.6808V14.2799H21.8408V13.4399Z" fill="#665545"/>
<path d="M21 14.2786H21.84V15.1186H21V14.2786Z" fill="#665545"/>
<path d="M20.1592 14.2786H20.9992V15.1186H20.1592V14.2786Z" fill="#665545"/>
<path d="M19.3213 14.2786H20.1613V15.1186H19.3213V14.2786Z" fill="#665545"/>
<path d="M21.8408 14.2786H22.6808V15.1186H21.8408V14.2786Z" fill="#665545"/>
<path d="M21 15.1215H21.84V15.9615H21V15.1215Z" fill="#665545"/>
<path d="M20.1592 15.1215H20.9992V15.9615H20.1592V15.1215Z" fill="#665545"/>
<path d="M19.3213 15.1215H20.1613V15.9615H19.3213V15.1215Z" fill="#665545"/>
<path d="M21.8408 15.1215H22.6808V15.9615H21.8408V15.1215Z" fill="#665545"/>
<path d="M21 15.9592H21.84V16.7992H21V15.9592Z" fill="#665545"/>
<path d="M20.1592 15.9592H20.9992V16.7992H20.1592V15.9592Z" fill="#665545"/>
<path d="M19.3213 15.9592H20.1613V16.7992H19.3213V15.9592Z" fill="#665545"/>
<path d="M21.8408 15.9592H22.6808V16.7992H21.8408V15.9592Z" fill="#665545"/>
<path d="M21 16.8H21.84V17.64H21V16.8Z" fill="#665545"/>
<path d="M20.1592 16.8H20.9992V17.64H20.1592V16.8Z" fill="#665545"/>
<path d="M19.3213 16.8H20.1613V17.64H19.3213V16.8Z" fill="#665545"/>
<path d="M21.8408 16.8H22.6808V17.64H21.8408V16.8Z" fill="#665545"/>
<path d="M21 17.6398H21.84V18.4798H21V17.6398Z" fill="#665545"/>
<path d="M20.1592 17.6398H20.9992V18.4798H20.1592V17.6398Z" fill="#665545"/>
<path d="M19.3213 17.6398H20.1613V18.4798H19.3213V17.6398Z" fill="#665545"/>
<path d="M19.3213 18.4786H20.1613V19.3186H19.3213V18.4786Z" fill="#665545"/>
<path d="M21.8408 18.4786H22.6808V19.3186H21.8408V18.4786Z" fill="#665545"/>
<path d="M21.8408 17.6398H22.6808V18.4798H21.8408V17.6398Z" fill="#665545"/>
<path d="M24.3594 19.3215H25.1994V20.1615H24.3594V19.3215Z" fill="#665545"/>
<path d="M26.041 20.1592H26.881V20.9992H26.041V20.1592Z" fill="#665545"/>
<path d="M25.2002 20.1592H26.0402V20.9992H25.2002V20.1592Z" fill="#665545"/>
<path d="M24.3594 20.1592H25.1994V20.9992H24.3594V20.1592Z" fill="#665545"/>
<path d="M26.8789 20.1592H27.7189V20.9992H26.8789V20.1592Z" fill="#665545"/>
<path d="M26.8789 19.3215H27.7189V20.1615H26.8789V19.3215Z" fill="#665545"/>
<path d="M26.041 17.6398H26.881V18.4798H26.041V17.6398Z" fill="#665545"/>
<path d="M25.2002 17.6398H26.0402V18.4798H25.2002V17.6398Z" fill="#665545"/>
<path d="M24.3594 17.6398H25.1994V18.4798H24.3594V17.6398Z" fill="#665545"/>
<path d="M24.3594 18.4786H25.1994V19.3186H24.3594V18.4786Z" fill="#665545"/>
<path d="M26.8789 18.4786H27.7189V19.3186H26.8789V18.4786Z" fill="#665545"/>
<path d="M26.8789 17.6398H27.7189V18.4798H26.8789V17.6398Z" fill="#665545"/>
<path d="M29.4004 19.3215H30.2404V20.1615H29.4004V19.3215Z" fill="#665545"/>
<path d="M31.0791 20.1592H31.9191V20.9992H31.0791V20.1592Z" fill="#665545"/>
<path d="M30.2412 20.1592H31.0812V20.9992H30.2412V20.1592Z" fill="#665545"/>
<path d="M29.4004 20.1592H30.2404V20.9992H29.4004V20.1592Z" fill="#665545"/>
<path d="M31.9209 20.1592H32.7609V20.9992H31.9209V20.1592Z" fill="#665545"/>
<path d="M17.6406 21H18.4806V21.84H17.6406V21Z" fill="#665545"/>
<path d="M18.4785 21H19.3185V21.84H18.4785V21Z" fill="#665545"/>
<path d="M15.959 21H16.799V21.84H15.959V21Z" fill="#665545"/>
<path d="M15.1211 21H15.9611V21.84H15.1211V21Z" fill="#665545"/>
<path d="M14.2783 21H15.1183V21.84H14.2783V21Z" fill="#665545"/>
<path d="M16.7998 21H17.6398V21.84H16.7998V21Z" fill="#665545"/>
<path d="M21 21H21.84V21.84H21V21Z" fill="#665545"/>
<path d="M20.1592 21H20.9992V21.84H20.1592V21Z" fill="#665545"/>
<path d="M19.3213 21H20.1613V21.84H19.3213V21Z" fill="#665545"/>
<path d="M21.8408 21H22.6808V21.84H21.8408V21Z" fill="#665545"/>
<path d="M22.6787 21H23.5187V21.84H22.6787V21Z" fill="#665545"/>
<path d="M23.5215 21H24.3615V21.84H23.5215V21Z" fill="#665545"/>
<path d="M27.7217 21H28.5617V21.84H27.7217V21Z" fill="#665545"/>
<path d="M28.5586 21H29.3986V21.84H28.5586V21Z" fill="#665545"/>
<path d="M26.041 21H26.881V21.84H26.041V21Z" fill="#665545"/>
<path d="M25.2002 21H26.0402V21.84H25.2002V21Z" fill="#665545"/>
<path d="M24.3594 21H25.1994V21.84H24.3594V21Z" fill="#665545"/>
<path d="M26.8789 21H27.7189V21.84H26.8789V21Z" fill="#665545"/>
<path d="M31.0791 21H31.9191V21.84H31.0791V21Z" fill="#665545"/>
<path d="M30.2412 21H31.0812V21.84H30.2412V21Z" fill="#665545"/>
<path d="M29.4004 21H30.2404V21.84H29.4004V21Z" fill="#665545"/>
<path d="M31.9209 21H32.7609V21.84H31.9209V21Z" fill="#665545"/>
<path d="M17.6406 21.8408H18.4806V22.6808H17.6406V21.8408Z" fill="#665545"/>
<path d="M18.4785 21.8408H19.3185V22.6808H18.4785V21.8408Z" fill="#665545"/>
<path d="M15.959 21.8408H16.799V22.6808H15.959V21.8408Z" fill="#665545"/>
<path d="M15.1211 21.8408H15.9611V22.6808H15.1211V21.8408Z" fill="#665545"/>
<path d="M14.2783 21.8408H15.1183V22.6808H14.2783V21.8408Z" fill="#665545"/>
<path d="M12.5996 22.6785H13.4396V23.5185H12.5996V22.6785Z" fill="#665545"/>
<path d="M13.4414 22.6785H14.2814V23.5185H13.4414V22.6785Z" fill="#665545"/>
<path d="M8.40039 21.8408H9.24039V22.6808H8.40039V21.8408Z" fill="#665545"/>
<path d="M8.40039 21H9.24039V21.84H8.40039V21Z" fill="#665545"/>
<path d="M9.24121 21H10.0812V21.84H9.24121V21Z" fill="#665545"/>
<path d="M8.40039 20.1592H9.24039V20.9992H8.40039V20.1592Z" fill="#665545"/>
<path d="M8.40039 19.3215H9.24039V20.1615H8.40039V19.3215Z" fill="#665545"/>
<path d="M10.0791 20.1592H10.9191V20.9992H10.0791V20.1592Z" fill="#665545"/>
<path d="M10.9209 20.1592H11.7609V20.9992H10.9209V20.1592Z" fill="#665545"/>
<path d="M11.7588 19.3215H12.5988V20.1615H11.7588V19.3215Z" fill="#665545"/>
<path d="M11.7588 20.1592H12.5988V20.9992H11.7588V20.1592Z" fill="#665545"/>
<path d="M12.5996 20.1592H13.4396V20.9992H12.5996V20.1592Z" fill="#665545"/>
<path d="M9.24121 20.1592H10.0812V20.9992H9.24121V20.1592Z" fill="#665545"/>
<path d="M9.24121 19.3215H10.0812V20.1615H9.24121V19.3215Z" fill="#665545"/>
<path d="M10.0791 19.3215H10.9191V20.1615H10.0791V19.3215Z" fill="#665545"/>
<path d="M10.9209 19.3215H11.7609V20.1615H10.9209V19.3215Z" fill="#665545"/>
<path d="M9.24121 18.4786H10.0812V19.3186H9.24121V18.4786Z" fill="#665545"/>
<path d="M10.0791 18.4786H10.9191V19.3186H10.0791V18.4786Z" fill="#665545"/>
<path d="M10.9209 18.4786H11.7609V19.3186H10.9209V18.4786Z" fill="#665545"/>
<path d="M12.5996 21.8408H13.4396V22.6808H12.5996V21.8408Z" fill="#665545"/>
<path d="M11.7588 21.8408H12.5988V22.6808H11.7588V21.8408Z" fill="#665545"/>
<path d="M13.4414 29.3999H14.2814V30.2399H13.4414V29.3999Z" fill="#665545"/>
<path d="M12.5996 28.5601H13.4396V29.4001H12.5996V28.5601Z" fill="#665545"/>
<path d="M11.7588 27.7214H12.5988V28.5614H11.7588V27.7214Z" fill="#665545"/>
<path d="M10.9209 26.8785H11.7609V27.7185H10.9209V26.8785Z" fill="#665545"/>
<path d="M10.9209 26.0408H11.7609V26.8808H10.9209V26.0408Z" fill="#665545"/>
<path d="M10.0791 24.3602H10.9191V25.2002H10.0791V24.3602Z" fill="#665545"/>
<path d="M10.0791 23.5214H10.9191V24.3614H10.0791V23.5214Z" fill="#665545"/>
<path d="M10.9209 22.6785H11.7609V23.5185H10.9209V22.6785Z" fill="#665545"/>
<path d="M10.9209 23.5214H11.7609V24.3614H10.9209V23.5214Z" fill="#665545"/>
<path d="M10.0791 25.2H10.9191V26.04H10.0791V25.2Z" fill="#665545"/>
<path d="M10.9209 24.3602H11.7609V25.2002H10.9209V24.3602Z" fill="#665545"/>
<path d="M10.9209 25.2H11.7609V26.04H10.9209V25.2Z" fill="#665545"/>
<path d="M11.7588 26.8785H12.5988V27.7185H11.7588V26.8785Z" fill="#665545"/>
<path d="M11.7588 26.0408H12.5988V26.8808H11.7588V26.0408Z" fill="#665545"/>
<path d="M11.7588 22.6785H12.5988V23.5185H11.7588V22.6785Z" fill="#665545"/>
<path d="M11.7588 23.5214H12.5988V24.3614H11.7588V23.5214Z" fill="#665545"/>
<path d="M11.7588 24.3602H12.5988V25.2002H11.7588V24.3602Z" fill="#665545"/>
<path d="M11.7588 25.2H12.5988V26.04H11.7588V25.2Z" fill="#665545"/>
<path d="M16.7998 21.8408H17.6398V22.6808H16.7998V21.8408Z" fill="#665545"/>
<path d="M21 21.8408H21.84V22.6808H21V21.8408Z" fill="#665545"/>
<path d="M20.1592 21.8408H20.9992V22.6808H20.1592V21.8408Z" fill="#665545"/>
<path d="M19.3213 21.8408H20.1613V22.6808H19.3213V21.8408Z" fill="#665545"/>
<path d="M21.8408 21.8408H22.6808V22.6808H21.8408V21.8408Z" fill="#665545"/>
<path d="M22.6787 21.8408H23.5187V22.6808H22.6787V21.8408Z" fill="#665545"/>
<path d="M23.5215 21.8408H24.3615V22.6808H23.5215V21.8408Z" fill="#665545"/>
<path d="M27.7217 21.8408H28.5617V22.6808H27.7217V21.8408Z" fill="#665545"/>
<path d="M28.5586 21.8408H29.3986V22.6808H28.5586V21.8408Z" fill="#665545"/>
<path d="M26.041 21.8408H26.881V22.6808H26.041V21.8408Z" fill="#665545"/>
<path d="M25.2002 21.8408H26.0402V22.6808H25.2002V21.8408Z" fill="#665545"/>
<path d="M24.3594 21.8408H25.1994V22.6808H24.3594V21.8408Z" fill="#665545"/>
<path d="M26.8789 21.8408H27.7189V22.6808H26.8789V21.8408Z" fill="#665545"/>
<path d="M31.0791 21.8408H31.9191V22.6808H31.0791V21.8408Z" fill="#665545"/>
<path d="M30.2412 21.8408H31.0812V22.6808H30.2412V21.8408Z" fill="#665545"/>
<path d="M29.4004 21.8408H30.2404V22.6808H29.4004V21.8408Z" fill="#665545"/>
<path d="M31.9209 21.8408H32.7609V22.6808H31.9209V21.8408Z" fill="#665545"/>
<path d="M17.6406 22.6785H18.4806V23.5185H17.6406V22.6785Z" fill="#665545"/>
<path d="M18.4785 22.6785H19.3185V23.5185H18.4785V22.6785Z" fill="#665545"/>
<path d="M15.959 22.6785H16.799V23.5185H15.959V22.6785Z" fill="#665545"/>
<path d="M15.1211 22.6785H15.9611V23.5185H15.1211V22.6785Z" fill="#665545"/>
<path d="M14.2783 22.6785H15.1183V23.5185H14.2783V22.6785Z" fill="#665545"/>
<path d="M16.7998 22.6785H17.6398V23.5185H16.7998V22.6785Z" fill="#665545"/>
<path d="M21 22.6785H21.84V23.5185H21V22.6785Z" fill="#665545"/>
<path d="M20.1592 22.6785H20.9992V23.5185H20.1592V22.6785Z" fill="#665545"/>
<path d="M19.3213 22.6785H20.1613V23.5185H19.3213V22.6785Z" fill="#665545"/>
<path d="M21.8408 22.6785H22.6808V23.5185H21.8408V22.6785Z" fill="#665545"/>
<path d="M22.6787 22.6785H23.5187V23.5185H22.6787V22.6785Z" fill="#665545"/>
<path d="M23.5215 22.6785H24.3615V23.5185H23.5215V22.6785Z" fill="#665545"/>
<path d="M27.7217 22.6785H28.5617V23.5185H27.7217V22.6785Z" fill="#665545"/>
<path d="M28.5586 22.6785H29.3986V23.5185H28.5586V22.6785Z" fill="#665545"/>
<path d="M26.041 22.6785H26.881V23.5185H26.041V22.6785Z" fill="#665545"/>
<path d="M25.2002 22.6785H26.0402V23.5185H25.2002V22.6785Z" fill="#665545"/>
<path d="M24.3594 22.6785H25.1994V23.5185H24.3594V22.6785Z" fill="#665545"/>
<path d="M26.8789 22.6785H27.7189V23.5185H26.8789V22.6785Z" fill="#665545"/>
<path d="M31.0791 22.6785H31.9191V23.5185H31.0791V22.6785Z" fill="#665545"/>
<path d="M30.2412 22.6785H31.0812V23.5185H30.2412V22.6785Z" fill="#665545"/>
<path d="M29.4004 22.6785H30.2404V23.5185H29.4004V22.6785Z" fill="#665545"/>
<path d="M31.9209 22.6785H32.7609V23.5185H31.9209V22.6785Z" fill="#665545"/>
<path d="M17.6406 23.5214H18.4806V24.3614H17.6406V23.5214Z" fill="#665545"/>
<path d="M18.4785 23.5214H19.3185V24.3614H18.4785V23.5214Z" fill="#665545"/>
<path d="M15.959 23.5214H16.799V24.3614H15.959V23.5214Z" fill="#665545"/>
<path d="M15.1211 23.5214H15.9611V24.3614H15.1211V23.5214Z" fill="#665545"/>
<path d="M14.2783 23.5214H15.1183V24.3614H14.2783V23.5214Z" fill="#665545"/>
<path d="M16.7998 23.5214H17.6398V24.3614H16.7998V23.5214Z" fill="#665545"/>
<path d="M21 23.5214H21.84V24.3614H21V23.5214Z" fill="#665545"/>
<path d="M20.1592 23.5214H20.9992V24.3614H20.1592V23.5214Z" fill="#665545"/>
<path d="M19.3213 23.5214H20.1613V24.3614H19.3213V23.5214Z" fill="#665545"/>
<path d="M21.8408 23.5214H22.6808V24.3614H21.8408V23.5214Z" fill="#665545"/>
<path d="M22.6787 23.5214H23.5187V24.3614H22.6787V23.5214Z" fill="#665545"/>
<path d="M23.5215 23.5214H24.3615V24.3614H23.5215V23.5214Z" fill="#665545"/>
<path d="M27.7217 23.5214H28.5617V24.3614H27.7217V23.5214Z" fill="#665545"/>
<path d="M28.5586 23.5214H29.3986V24.3614H28.5586V23.5214Z" fill="#665545"/>
<path d="M26.041 23.5214H26.881V24.3614H26.041V23.5214Z" fill="#665545"/>
<path d="M25.2002 23.5214H26.0402V24.3614H25.2002V23.5214Z" fill="#665545"/>
<path d="M24.3594 23.5214H25.1994V24.3614H24.3594V23.5214Z" fill="#665545"/>
<path d="M26.8789 23.5214H27.7189V24.3614H26.8789V23.5214Z" fill="#665545"/>
<path d="M31.0791 23.5214H31.9191V24.3614H31.0791V23.5214Z" fill="#665545"/>
<path d="M30.2412 23.5214H31.0812V24.3614H30.2412V23.5214Z" fill="#665545"/>
<path d="M29.4004 23.5214H30.2404V24.3614H29.4004V23.5214Z" fill="#665545"/>
<path d="M31.9209 23.5214H32.7609V24.3614H31.9209V23.5214Z" fill="#665545"/>
<path d="M17.6406 24.3602H18.4806V25.2002H17.6406V24.3602Z" fill="#665545"/>
<path d="M18.4785 24.3602H19.3185V25.2002H18.4785V24.3602Z" fill="#665545"/>
<path d="M15.959 24.3602H16.799V25.2002H15.959V24.3602Z" fill="#665545"/>
<path d="M15.1211 24.3602H15.9611V25.2002H15.1211V24.3602Z" fill="#665545"/>
<path d="M14.2783 24.3602H15.1183V25.2002H14.2783V24.3602Z" fill="#665545"/>
<path d="M16.7998 24.3602H17.6398V25.2002H16.7998V24.3602Z" fill="#665545"/>
<path d="M21 24.3602H21.84V25.2002H21V24.3602Z" fill="#665545"/>
<path d="M20.1592 24.3602H20.9992V25.2002H20.1592V24.3602Z" fill="#665545"/>
<path d="M19.3213 24.3602H20.1613V25.2002H19.3213V24.3602Z" fill="#665545"/>
<path d="M21.8408 24.3602H22.6808V25.2002H21.8408V24.3602Z" fill="#665545"/>
<path d="M22.6787 24.3602H23.5187V25.2002H22.6787V24.3602Z" fill="#665545"/>
<path d="M23.5215 24.3602H24.3615V25.2002H23.5215V24.3602Z" fill="#665545"/>
<path d="M27.7217 24.3602H28.5617V25.2002H27.7217V24.3602Z" fill="#665545"/>
<path d="M28.5586 24.3602H29.3986V25.2002H28.5586V24.3602Z" fill="#665545"/>
<path d="M26.041 24.3602H26.881V25.2002H26.041V24.3602Z" fill="#665545"/>
<path d="M25.2002 24.3602H26.0402V25.2002H25.2002V24.3602Z" fill="#665545"/>
<path d="M24.3594 24.3602H25.1994V25.2002H24.3594V24.3602Z" fill="#665545"/>
<path d="M26.8789 24.3602H27.7189V25.2002H26.8789V24.3602Z" fill="#665545"/>
<path d="M31.0791 24.3602H31.9191V25.2002H31.0791V24.3602Z" fill="#665545"/>
<path d="M30.2412 24.3602H31.0812V25.2002H30.2412V24.3602Z" fill="#665545"/>
<path d="M29.4004 24.3602H30.2404V25.2002H29.4004V24.3602Z" fill="#665545"/>
<path d="M31.9209 24.3602H32.7609V25.2002H31.9209V24.3602Z" fill="#665545"/>
<path d="M17.6406 25.2H18.4806V26.04H17.6406V25.2Z" fill="#665545"/>
<path d="M18.4785 25.2H19.3185V26.04H18.4785V25.2Z" fill="#665545"/>
<path d="M15.959 25.2H16.799V26.04H15.959V25.2Z" fill="#665545"/>
<path d="M15.1211 25.2H15.9611V26.04H15.1211V25.2Z" fill="#665545"/>
<path d="M14.2783 25.2H15.1183V26.04H14.2783V25.2Z" fill="#665545"/>
<path d="M16.7998 25.2H17.6398V26.04H16.7998V25.2Z" fill="#665545"/>
<path d="M21 25.2H21.84V26.04H21V25.2Z" fill="#665545"/>
<path d="M20.1592 25.2H20.9992V26.04H20.1592V25.2Z" fill="#665545"/>
<path d="M19.3213 25.2H20.1613V26.04H19.3213V25.2Z" fill="#665545"/>
<path d="M21.8408 25.2H22.6808V26.04H21.8408V25.2Z" fill="#665545"/>
<path d="M22.6787 25.2H23.5187V26.04H22.6787V25.2Z" fill="#665545"/>
<path d="M23.5215 25.2H24.3615V26.04H23.5215V25.2Z" fill="#665545"/>
<path d="M27.7217 25.2H28.5617V26.04H27.7217V25.2Z" fill="#665545"/>
<path d="M28.5586 25.2H29.3986V26.04H28.5586V25.2Z" fill="#665545"/>
<path d="M26.041 25.2H26.881V26.04H26.041V25.2Z" fill="#665545"/>
<path d="M25.2002 25.2H26.0402V26.04H25.2002V25.2Z" fill="#665545"/>
<path d="M24.3594 25.2H25.1994V26.04H24.3594V25.2Z" fill="#665545"/>
<path d="M26.8789 25.2H27.7189V26.04H26.8789V25.2Z" fill="#665545"/>
<path d="M31.0791 25.2H31.9191V26.04H31.0791V25.2Z" fill="#665545"/>
<path d="M30.2412 25.2H31.0812V26.04H30.2412V25.2Z" fill="#665545"/>
<path d="M29.4004 25.2H30.2404V26.04H29.4004V25.2Z" fill="#665545"/>
<path d="M31.9209 25.2H32.7609V26.04H31.9209V25.2Z" fill="#665545"/>
<path d="M17.6406 26.0408H18.4806V26.8808H17.6406V26.0408Z" fill="#665545"/>
<path d="M18.4785 26.0408H19.3185V26.8808H18.4785V26.0408Z" fill="#665545"/>
<path d="M15.959 26.0408H16.799V26.8808H15.959V26.0408Z" fill="#665545"/>
<path d="M15.1211 26.0408H15.9611V26.8808H15.1211V26.0408Z" fill="#665545"/>
<path d="M14.2783 26.0408H15.1183V26.8808H14.2783V26.0408Z" fill="#665545"/>
<path d="M13.4414 23.5214H14.2814V24.3614H13.4414V23.5214Z" fill="#665545"/>
<path d="M12.5996 23.5214H13.4396V24.3614H12.5996V23.5214Z" fill="#665545"/>
<path d="M13.4414 24.3602H14.2814V25.2002H13.4414V24.3602Z" fill="#665545"/>
<path d="M12.5996 24.3602H13.4396V25.2002H12.5996V24.3602Z" fill="#665545"/>
<path d="M13.4414 25.2H14.2814V26.04H13.4414V25.2Z" fill="#665545"/>
<path d="M12.5996 25.2H13.4396V26.04H12.5996V25.2Z" fill="#665545"/>
<path d="M13.4414 26.0408H14.2814V26.8808H13.4414V26.0408Z" fill="#665545"/>
<path d="M12.5996 26.0408H13.4396V26.8808H12.5996V26.0408Z" fill="#665545"/>
<path d="M16.7998 26.0408H17.6398V26.8808H16.7998V26.0408Z" fill="#665545"/>
<path d="M21 26.0408H21.84V26.8808H21V26.0408Z" fill="#665545"/>
<path d="M20.1592 26.0408H20.9992V26.8808H20.1592V26.0408Z" fill="#665545"/>
<path d="M19.3213 26.0408H20.1613V26.8808H19.3213V26.0408Z" fill="#665545"/>
<path d="M21.8408 26.0408H22.6808V26.8808H21.8408V26.0408Z" fill="#665545"/>
<path d="M22.6787 26.0408H23.5187V26.8808H22.6787V26.0408Z" fill="#665545"/>
<path d="M23.5215 26.0408H24.3615V26.8808H23.5215V26.0408Z" fill="#665545"/>
<path d="M27.7217 26.0408H28.5617V26.8808H27.7217V26.0408Z" fill="#665545"/>
<path d="M28.5586 26.0408H29.3986V26.8808H28.5586V26.0408Z" fill="#665545"/>
<path d="M26.041 26.0408H26.881V26.8808H26.041V26.0408Z" fill="#665545"/>
<path d="M25.2002 26.0408H26.0402V26.8808H25.2002V26.0408Z" fill="#665545"/>
<path d="M24.3594 26.0408H25.1994V26.8808H24.3594V26.0408Z" fill="#665545"/>
<path d="M26.8789 26.0408H27.7189V26.8808H26.8789V26.0408Z" fill="#665545"/>
<path d="M31.0791 26.0408H31.9191V26.8808H31.0791V26.0408Z" fill="#665545"/>
<path d="M30.2412 26.0408H31.0812V26.8808H30.2412V26.0408Z" fill="#665545"/>
<path d="M29.4004 26.0408H30.2404V26.8808H29.4004V26.0408Z" fill="#665545"/>
<path d="M17.6406 26.8785H18.4806V27.7185H17.6406V26.8785Z" fill="#665545"/>
<path d="M18.4785 26.8785H19.3185V27.7185H18.4785V26.8785Z" fill="#665545"/>
<path d="M15.959 26.8785H16.799V27.7185H15.959V26.8785Z" fill="#665545"/>
<path d="M15.1211 26.8785H15.9611V27.7185H15.1211V26.8785Z" fill="#665545"/>
<path d="M14.2783 26.8785H15.1183V27.7185H14.2783V26.8785Z" fill="#665545"/>
<path d="M16.7998 26.8785H17.6398V27.7185H16.7998V26.8785Z" fill="#665545"/>
<path d="M21 26.8785H21.84V27.7185H21V26.8785Z" fill="#665545"/>
<path d="M20.1592 26.8785H20.9992V27.7185H20.1592V26.8785Z" fill="#665545"/>
<path d="M19.3213 26.8785H20.1613V27.7185H19.3213V26.8785Z" fill="#665545"/>
<path d="M21.8408 26.8785H22.6808V27.7185H21.8408V26.8785Z" fill="#665545"/>
<path d="M22.6787 26.8785H23.5187V27.7185H22.6787V26.8785Z" fill="#665545"/>
<path d="M23.5215 26.8785H24.3615V27.7185H23.5215V26.8785Z" fill="#665545"/>
<path d="M27.7217 26.8785H28.5617V27.7185H27.7217V26.8785Z" fill="#665545"/>
<path d="M28.5586 26.8785H29.3986V27.7185H28.5586V26.8785Z" fill="#665545"/>
<path d="M26.041 26.8785H26.881V27.7185H26.041V26.8785Z" fill="#665545"/>
<path d="M25.2002 26.8785H26.0402V27.7185H25.2002V26.8785Z" fill="#665545"/>
<path d="M24.3594 26.8785H25.1994V27.7185H24.3594V26.8785Z" fill="#665545"/>
<path d="M26.8789 26.8785H27.7189V27.7185H26.8789V26.8785Z" fill="#665545"/>
<path d="M30.2412 26.8785H31.0812V27.7185H30.2412V26.8785Z" fill="#665545"/>
<path d="M29.4004 26.8785H30.2404V27.7185H29.4004V26.8785Z" fill="#665545"/>
<path d="M17.6406 27.7214H18.4806V28.5614H17.6406V27.7214Z" fill="#665545"/>
<path d="M18.4785 27.7214H19.3185V28.5614H18.4785V27.7214Z" fill="#665545"/>
<path d="M15.959 27.7214H16.799V28.5614H15.959V27.7214Z" fill="#665545"/>
<path d="M15.1211 27.7214H15.9611V28.5614H15.1211V27.7214Z" fill="#665545"/>
<path d="M14.2783 27.7214H15.1183V28.5614H14.2783V27.7214Z" fill="#665545"/>
<path d="M13.4414 26.8785H14.2814V27.7185H13.4414V26.8785Z" fill="#665545"/>
<path d="M12.5996 26.8785H13.4396V27.7185H12.5996V26.8785Z" fill="#665545"/>
<path d="M13.4414 27.7214H14.2814V28.5614H13.4414V27.7214Z" fill="#665545"/>
<path d="M12.5996 27.7214H13.4396V28.5614H12.5996V27.7214Z" fill="#665545"/>
<path d="M16.7998 27.7214H17.6398V28.5614H16.7998V27.7214Z" fill="#665545"/>
<path d="M21 27.7214H21.84V28.5614H21V27.7214Z" fill="#665545"/>
<path d="M20.1592 27.7214H20.9992V28.5614H20.1592V27.7214Z" fill="#665545"/>
<path d="M19.3213 27.7214H20.1613V28.5614H19.3213V27.7214Z" fill="#665545"/>
<path d="M21.8408 27.7214H22.6808V28.5614H21.8408V27.7214Z" fill="#665545"/>
<path d="M22.6787 27.7214H23.5187V28.5614H22.6787V27.7214Z" fill="#665545"/>
<path d="M23.5215 27.7214H24.3615V28.5614H23.5215V27.7214Z" fill="#665545"/>
<path d="M27.7217 27.7214H28.5617V28.5614H27.7217V27.7214Z" fill="#665545"/>
<path d="M28.5586 27.7214H29.3986V28.5614H28.5586V27.7214Z" fill="#665545"/>
<path d="M26.041 27.7214H26.881V28.5614H26.041V27.7214Z" fill="#665545"/>
<path d="M25.2002 27.7214H26.0402V28.5614H25.2002V27.7214Z" fill="#665545"/>
<path d="M24.3594 27.7214H25.1994V28.5614H24.3594V27.7214Z" fill="#665545"/>
<path d="M26.8789 27.7214H27.7189V28.5614H26.8789V27.7214Z" fill="#665545"/>
<path d="M30.2412 27.7214H31.0812V28.5614H30.2412V27.7214Z" fill="#665545"/>
<path d="M29.4004 27.7214H30.2404V28.5614H29.4004V27.7214Z" fill="#665545"/>
<path d="M17.6406 28.5601H18.4806V29.4001H17.6406V28.5601Z" fill="#665545"/>
<path d="M18.4785 28.5601H19.3185V29.4001H18.4785V28.5601Z" fill="#665545"/>
<path d="M15.959 28.5601H16.799V29.4001H15.959V28.5601Z" fill="#665545"/>
<path d="M15.1211 28.5601H15.9611V29.4001H15.1211V28.5601Z" fill="#665545"/>
<path d="M14.2783 28.5601H15.1183V29.4001H14.2783V28.5601Z" fill="#665545"/>
<path d="M13.4414 28.5601H14.2814V29.4001H13.4414V28.5601Z" fill="#665545"/>
<path d="M16.7998 28.5601H17.6398V29.4001H16.7998V28.5601Z" fill="#665545"/>
<path d="M21 28.5601H21.84V29.4001H21V28.5601Z" fill="#665545"/>
<path d="M20.1592 28.5601H20.9992V29.4001H20.1592V28.5601Z" fill="#665545"/>
<path d="M19.3213 28.5601H20.1613V29.4001H19.3213V28.5601Z" fill="#665545"/>
<path d="M21.8408 28.5601H22.6808V29.4001H21.8408V28.5601Z" fill="#665545"/>
<path d="M22.6787 28.5601H23.5187V29.4001H22.6787V28.5601Z" fill="#665545"/>
<path d="M23.5215 28.5601H24.3615V29.4001H23.5215V28.5601Z" fill="#665545"/>
<path d="M27.7217 28.5601H28.5617V29.4001H27.7217V28.5601Z" fill="#665545"/>
<path d="M28.5586 28.5601H29.3986V29.4001H28.5586V28.5601Z" fill="#665545"/>
<path d="M26.041 28.5601H26.881V29.4001H26.041V28.5601Z" fill="#665545"/>
<path d="M25.2002 28.5601H26.0402V29.4001H25.2002V28.5601Z" fill="#665545"/>
<path d="M24.3594 28.5601H25.1994V29.4001H24.3594V28.5601Z" fill="#665545"/>
<path d="M26.8789 28.5601H27.7189V29.4001H26.8789V28.5601Z" fill="#665545"/>
<path d="M29.4004 28.5601H30.2404V29.4001H29.4004V28.5601Z" fill="#665545"/>
<path d="M17.6406 29.3999H18.4806V30.2399H17.6406V29.3999Z" fill="#665545"/>
<path d="M18.4785 29.3999H19.3185V30.2399H18.4785V29.3999Z" fill="#665545"/>
<path d="M15.959 29.3999H16.799V30.2399H15.959V29.3999Z" fill="#665545"/>
<path d="M15.1211 29.3999H15.9611V30.2399H15.1211V29.3999Z" fill="#665545"/>
<path d="M14.2783 29.3999H15.1183V30.2399H14.2783V29.3999Z" fill="#665545"/>
<path d="M16.7998 29.3999H17.6398V30.2399H16.7998V29.3999Z" fill="#665545"/>
<path d="M21 29.3999H21.84V30.2399H21V29.3999Z" fill="#665545"/>
<path d="M20.1592 29.3999H20.9992V30.2399H20.1592V29.3999Z" fill="#665545"/>
<path d="M19.3213 29.3999H20.1613V30.2399H19.3213V29.3999Z" fill="#665545"/>
<path d="M21.8408 29.3999H22.6808V30.2399H21.8408V29.3999Z" fill="#665545"/>
<path d="M22.6787 29.3999H23.5187V30.2399H22.6787V29.3999Z" fill="#665545"/>
<path d="M23.5215 29.3999H24.3615V30.2399H23.5215V29.3999Z" fill="#665545"/>
<path d="M27.7217 29.3999H28.5617V30.2399H27.7217V29.3999Z" fill="#665545"/>
<path d="M28.5586 29.3999H29.3986V30.2399H28.5586V29.3999Z" fill="#665545"/>
<path d="M26.041 29.3999H26.881V30.2399H26.041V29.3999Z" fill="#665545"/>
<path d="M25.2002 29.3999H26.0402V30.2399H25.2002V29.3999Z" fill="#665545"/>
<path d="M24.3594 29.3999H25.1994V30.2399H24.3594V29.3999Z" fill="#665545"/>
<path d="M26.8789 29.3999H27.7189V30.2399H26.8789V29.3999Z" fill="#665545"/>
<path d="M29.4004 29.3999H30.2404V30.2399H29.4004V29.3999Z" fill="#665545"/>
<path d="M17.6406 30.2407H18.4806V31.0807H17.6406V30.2407Z" fill="#665545"/>
<path d="M18.4785 30.2407H19.3185V31.0807H18.4785V30.2407Z" fill="#665545"/>
<path d="M15.959 30.2407H16.799V31.0807H15.959V30.2407Z" fill="#665545"/>
<path d="M15.1211 30.2407H15.9611V31.0807H15.1211V30.2407Z" fill="#665545"/>
<path d="M16.7998 30.2407H17.6398V31.0807H16.7998V30.2407Z" fill="#665545"/>
<path d="M21 30.2407H21.84V31.0807H21V30.2407Z" fill="#665545"/>
<path d="M20.1592 30.2407H20.9992V31.0807H20.1592V30.2407Z" fill="#665545"/>
<path d="M19.3213 30.2407H20.1613V31.0807H19.3213V30.2407Z" fill="#665545"/>
<path d="M21.8408 30.2407H22.6808V31.0807H21.8408V30.2407Z" fill="#665545"/>
<path d="M22.6787 30.2407H23.5187V31.0807H22.6787V30.2407Z" fill="#665545"/>
<path d="M23.5215 30.2407H24.3615V31.0807H23.5215V30.2407Z" fill="#665545"/>
<path d="M27.7217 30.2407H28.5617V31.0807H27.7217V30.2407Z" fill="#665545"/>
<path d="M28.5586 30.2407H29.3986V31.0807H28.5586V30.2407Z" fill="#665545"/>
<path d="M26.041 30.2407H26.881V31.0807H26.041V30.2407Z" fill="#665545"/>
<path d="M25.2002 30.2407H26.0402V31.0807H25.2002V30.2407Z" fill="#665545"/>
<path d="M24.3594 30.2407H25.1994V31.0807H24.3594V30.2407Z" fill="#665545"/>
<path d="M26.8789 30.2407H27.7189V31.0807H26.8789V30.2407Z" fill="#665545"/>
<path d="M29.4004 30.2407H30.2404V31.0807H29.4004V30.2407Z" fill="#665545"/>
<path d="M17.6406 31.0816H18.4806V31.9216H17.6406V31.0816Z" fill="#665545"/>
<path d="M18.4785 31.0816H19.3185V31.9216H18.4785V31.0816Z" fill="#665545"/>
<path d="M15.959 31.0816H16.799V31.9216H15.959V31.0816Z" fill="#665545"/>
<path d="M15.1211 31.0816H15.9611V31.9216H15.1211V31.0816Z" fill="#665545"/>
<path d="M16.7998 31.0816H17.6398V31.9216H16.7998V31.0816Z" fill="#665545"/>
<path d="M21 31.0816H21.84V31.9216H21V31.0816Z" fill="#665545"/>
<path d="M20.1592 31.0816H20.9992V31.9216H20.1592V31.0816Z" fill="#665545"/>
<path d="M19.3213 31.0816H20.1613V31.9216H19.3213V31.0816Z" fill="#665545"/>
<path d="M21.8408 31.0816H22.6808V31.9216H21.8408V31.0816Z" fill="#665545"/>
<path d="M22.6787 31.0816H23.5187V31.9216H22.6787V31.0816Z" fill="#665545"/>
<path d="M23.5215 31.0816H24.3615V31.9216H23.5215V31.0816Z" fill="#665545"/>
<path d="M27.7217 31.0816H28.5617V31.9216H27.7217V31.0816Z" fill="#665545"/>
<path d="M28.5586 31.0816H29.3986V31.9216H28.5586V31.0816Z" fill="#665545"/>
<path d="M26.041 31.0816H26.881V31.9216H26.041V31.0816Z" fill="#665545"/>
<path d="M25.2002 31.0816H26.0402V31.9216H25.2002V31.0816Z" fill="#665545"/>
<path d="M24.3594 31.0816H25.1994V31.9216H24.3594V31.0816Z" fill="#665545"/>
<path d="M26.8789 31.0816H27.7189V31.9216H26.8789V31.0816Z" fill="#665545"/>
<path d="M29.4004 31.0816H30.2404V31.9216H29.4004V31.0816Z" fill="#665545"/>
<path d="M17.6406 31.9184H18.4806V32.7584H17.6406V31.9184Z" fill="#665545"/>
<path d="M18.4785 31.9184H19.3185V32.7584H18.4785V31.9184Z" fill="#665545"/>
<path d="M15.959 31.9184H16.799V32.7584H15.959V31.9184Z" fill="#665545"/>
<path d="M15.1211 31.9184H15.9611V32.7584H15.1211V31.9184Z" fill="#665545"/>
<path d="M16.7998 31.9184H17.6398V32.7584H16.7998V31.9184Z" fill="#665545"/>
<path d="M21 31.9184H21.84V32.7584H21V31.9184Z" fill="#665545"/>
<path d="M20.1592 31.9184H20.9992V32.7584H20.1592V31.9184Z" fill="#665545"/>
<path d="M19.3213 31.9184H20.1613V32.7584H19.3213V31.9184Z" fill="#665545"/>
<path d="M21.8408 31.9184H22.6808V32.7584H21.8408V31.9184Z" fill="#665545"/>
<path d="M22.6787 31.9184H23.5187V32.7584H22.6787V31.9184Z" fill="#665545"/>
<path d="M23.5215 31.9184H24.3615V32.7584H23.5215V31.9184Z" fill="#665545"/>
<path d="M27.7217 31.9184H28.5617V32.7584H27.7217V31.9184Z" fill="#665545"/>
<path d="M28.5586 31.9184H29.3986V32.7584H28.5586V31.9184Z" fill="#665545"/>
<path d="M26.041 31.9184H26.881V32.7584H26.041V31.9184Z" fill="#665545"/>
<path d="M25.2002 31.9184H26.0402V32.7584H25.2002V31.9184Z" fill="#665545"/>
<path d="M24.3594 31.9184H25.1994V32.7584H24.3594V31.9184Z" fill="#665545"/>
<path d="M26.8789 31.9184H27.7189V32.7584H26.8789V31.9184Z" fill="#665545"/>
<path d="M29.4004 31.9184H30.2404V32.7584H29.4004V31.9184Z" fill="#665545"/>
<path d="M17.6406 32.7593H18.4806V33.5993H17.6406V32.7593Z" fill="#665545"/>
<path d="M18.4785 32.7593H19.3185V33.5993H18.4785V32.7593Z" fill="#665545"/>
<path d="M15.959 32.7593H16.799V33.5993H15.959V32.7593Z" fill="#665545"/>
<path d="M15.1211 32.7593H15.9611V33.5993H15.1211V32.7593Z" fill="#665545"/>
<path d="M16.7998 32.7593H17.6398V33.5993H16.7998V32.7593Z" fill="#665545"/>
<path d="M21 32.7593H21.84V33.5993H21V32.7593Z" fill="#665545"/>
<path d="M20.1592 32.7593H20.9992V33.5993H20.1592V32.7593Z" fill="#665545"/>
<path d="M19.3213 32.7593H20.1613V33.5993H19.3213V32.7593Z" fill="#665545"/>
<path d="M21.8408 32.7593H22.6808V33.5993H21.8408V32.7593Z" fill="#665545"/>
<path d="M22.6787 32.7593H23.5187V33.5993H22.6787V32.7593Z" fill="#665545"/>
<path d="M23.5215 32.7593H24.3615V33.5993H23.5215V32.7593Z" fill="#665545"/>
<path d="M27.7217 32.7593H28.5617V33.5993H27.7217V32.7593Z" fill="#665545"/>
<path d="M28.5586 32.7593H29.3986V33.5993H28.5586V32.7593Z" fill="#665545"/>
<path d="M26.041 32.7593H26.881V33.5993H26.041V32.7593Z" fill="#665545"/>
<path d="M25.2002 32.7593H26.0402V33.5993H25.2002V32.7593Z" fill="#665545"/>
<path d="M24.3594 32.7593H25.1994V33.5993H24.3594V32.7593Z" fill="#665545"/>
<path d="M26.8789 32.7593H27.7189V33.5993H26.8789V32.7593Z" fill="#665545"/>
<path d="M29.4004 32.7593H30.2404V33.5993H29.4004V32.7593Z" fill="#665545"/>
<path d="M31.9209 26.0408H32.7609V26.8808H31.9209V26.0408Z" fill="#665545"/>
<path d="M31.0791 26.8785H31.9191V27.7185H31.0791V26.8785Z" fill="#665545"/>
<path d="M31.0791 27.7214H31.9191V28.5614H31.0791V27.7214Z" fill="#665545"/>
<path d="M30.2412 28.5601H31.0812V29.4001H30.2412V28.5601Z" fill="#665545"/>
<path d="M30.2412 29.3999H31.0812V30.2399H30.2412V29.3999Z" fill="#665545"/>
<path d="M30.2412 30.2407H31.0812V31.0807H30.2412V30.2407Z" fill="#665545"/>
<path d="M30.2412 31.0816H31.0812V31.9216H30.2412V31.0816Z" fill="#665545"/>
<path d="M30.2412 31.9184H31.0812V32.7584H30.2412V31.9184Z" fill="#665545"/>
<path d="M30.2412 32.7593H31.0812V33.5993H30.2412V32.7593Z" fill="#665545"/>
<path d="M14.2783 30.2407H15.1183V31.0807H14.2783V30.2407Z" fill="#665545"/>
<path d="M14.2783 31.0816H15.1183V31.9216H14.2783V31.0816Z" fill="#665545"/>
<path d="M14.2783 31.9184H15.1183V32.7584H14.2783V31.9184Z" fill="#665545"/>
<path d="M14.2783 32.7593H15.1183V33.5993H14.2783V32.7593Z" fill="#665545"/>
<path d="M17.6406 33.6001H18.4806V34.4401H17.6406V33.6001Z" fill="#665545"/>
<path d="M18.4785 33.6001H19.3185V34.4401H18.4785V33.6001Z" fill="#665545"/>
<path d="M15.959 33.6001H16.799V34.4401H15.959V33.6001Z" fill="#665545"/>
<path d="M15.1211 33.6001H15.9611V34.4401H15.1211V33.6001Z" fill="#665545"/>
<path d="M16.7998 33.6001H17.6398V34.4401H16.7998V33.6001Z" fill="#665545"/>
<path d="M21 33.6001H21.84V34.4401H21V33.6001Z" fill="#665545"/>
<path d="M20.1592 33.6001H20.9992V34.4401H20.1592V33.6001Z" fill="#665545"/>
<path d="M19.3213 33.6001H20.1613V34.4401H19.3213V33.6001Z" fill="#665545"/>
<path d="M21.8408 33.6001H22.6808V34.4401H21.8408V33.6001Z" fill="#665545"/>
<path d="M22.6787 33.6001H23.5187V34.4401H22.6787V33.6001Z" fill="#665545"/>
<path d="M23.5215 33.6001H24.3615V34.4401H23.5215V33.6001Z" fill="#665545"/>
<path d="M27.7217 33.6001H28.5617V34.4401H27.7217V33.6001Z" fill="#665545"/>
<path d="M28.5586 33.6001H29.3986V34.4401H28.5586V33.6001Z" fill="#665545"/>
<path d="M26.041 33.6001H26.881V34.4401H26.041V33.6001Z" fill="#665545"/>
<path d="M25.2002 33.6001H26.0402V34.4401H25.2002V33.6001Z" fill="#665545"/>
<path d="M24.3594 33.6001H25.1994V34.4401H24.3594V33.6001Z" fill="#665545"/>
<path d="M26.8789 33.6001H27.7189V34.4401H26.8789V33.6001Z" fill="#665545"/>
<path d="M29.4004 33.6001H30.2404V34.4401H29.4004V33.6001Z" fill="#665545"/>
<path d="M17.6406 34.4399H18.4806V35.2799H17.6406V34.4399Z" fill="#665545"/>
<path d="M18.4785 34.4399H19.3185V35.2799H18.4785V34.4399Z" fill="#665545"/>
<path d="M15.959 34.4399H16.799V35.2799H15.959V34.4399Z" fill="#665545"/>
<path d="M15.1211 34.4399H15.9611V35.2799H15.1211V34.4399Z" fill="#665545"/>
<path d="M16.7998 34.4399H17.6398V35.2799H16.7998V34.4399Z" fill="#665545"/>
<path d="M21 34.4399H21.84V35.2799H21V34.4399Z" fill="#665545"/>
<path d="M20.1592 34.4399H20.9992V35.2799H20.1592V34.4399Z" fill="#665545"/>
<path d="M19.3213 34.4399H20.1613V35.2799H19.3213V34.4399Z" fill="#665545"/>
<path d="M21.8408 34.4399H22.6808V35.2799H21.8408V34.4399Z" fill="#665545"/>
<path d="M22.6787 34.4399H23.5187V35.2799H22.6787V34.4399Z" fill="#665545"/>
<path d="M23.5215 34.4399H24.3615V35.2799H23.5215V34.4399Z" fill="#665545"/>
<path d="M27.7217 34.4399H28.5617V35.2799H27.7217V34.4399Z" fill="#665545"/>
<path d="M28.5586 34.4399H29.3986V35.2799H28.5586V34.4399Z" fill="#665545"/>
<path d="M26.041 34.4399H26.881V35.2799H26.041V34.4399Z" fill="#665545"/>
<path d="M25.2002 34.4399H26.0402V35.2799H25.2002V34.4399Z" fill="#665545"/>
<path d="M24.3594 34.4399H25.1994V35.2799H24.3594V34.4399Z" fill="#665545"/>
<path d="M26.8789 34.4399H27.7189V35.2799H26.8789V34.4399Z" fill="#665545"/>
<path d="M17.6406 35.2786H18.4806V36.1186H17.6406V35.2786Z" fill="#665545"/>
<path d="M18.4785 35.2786H19.3185V36.1186H18.4785V35.2786Z" fill="#665545"/>
<path d="M16.7998 35.2786H17.6398V36.1186H16.7998V35.2786Z" fill="#665545"/>
<path d="M21 35.2786H21.84V36.1186H21V35.2786Z" fill="#665545"/>
<path d="M20.1592 35.2786H20.9992V36.1186H20.1592V35.2786Z" fill="#665545"/>
<path d="M19.3213 35.2786H20.1613V36.1186H19.3213V35.2786Z" fill="#665545"/>
<path d="M21.8408 35.2786H22.6808V36.1186H21.8408V35.2786Z" fill="#665545"/>
<path d="M22.6787 35.2786H23.5187V36.1186H22.6787V35.2786Z" fill="#665545"/>
<path d="M23.5215 35.2786H24.3615V36.1186H23.5215V35.2786Z" fill="#665545"/>
<path d="M27.7217 35.2786H28.5617V36.1186H27.7217V35.2786Z" fill="#665545"/>
<path d="M26.041 35.2786H26.881V36.1186H26.041V35.2786Z" fill="#665545"/>
<path d="M25.2002 35.2786H26.0402V36.1186H25.2002V35.2786Z" fill="#665545"/>
<path d="M24.3594 35.2786H25.1994V36.1186H24.3594V35.2786Z" fill="#665545"/>
<path d="M21 36.1215H21.84V36.9615H21V36.1215Z" fill="#665545"/>
<path d="M20.1592 36.1215H20.9992V36.9615H20.1592V36.1215Z" fill="#665545"/>
<path d="M19.3213 36.1215H20.1613V36.9615H19.3213V36.1215Z" fill="#665545"/>
<path d="M21.8408 36.1215H22.6808V36.9615H21.8408V36.1215Z" fill="#665545"/>
<path d="M22.6787 36.1215H23.5187V36.9615H22.6787V36.1215Z" fill="#665545"/>
<path d="M23.5215 36.1215H24.3615V36.9615H23.5215V36.1215Z" fill="#665545"/>
<path d="M25.2002 36.1215H26.0402V36.9615H25.2002V36.1215Z" fill="#665545"/>
<path d="M24.3594 36.1215H25.1994V36.9615H24.3594V36.1215Z" fill="#665545"/>
<path d="M21 36.9592H21.84V37.7992H21V36.9592Z" fill="#665545"/>
<path d="M20.1592 36.9592H20.9992V37.7992H20.1592V36.9592Z" fill="#665545"/>
<path d="M21.8408 36.9592H22.6808V37.7992H21.8408V36.9592Z" fill="#665545"/>
<path d="M22.6787 36.9592H23.5187V37.7992H22.6787V36.9592Z" fill="#665545"/>
<path d="M21.8408 37.8H22.6808V38.64H21.8408V37.8Z" fill="#665545"/>
<path d="M22.6787 37.8H23.5187V38.64H22.6787V37.8Z" fill="#665545"/>
<path d="M23.5215 36.9592H24.3615V37.7992H23.5215V36.9592Z" fill="#665545"/>
<path d="M24.3594 36.9592H25.1994V37.7992H24.3594V36.9592Z" fill="#665545"/>
<path d="M26.8789 35.2786H27.7189V36.1186H26.8789V35.2786Z" fill="#665545"/>
<path d="M29.4004 34.4399H30.2404V35.2799H29.4004V34.4399Z" fill="#665545"/>
<path d="M30.2412 33.6001H31.0812V34.4401H30.2412V33.6001Z" fill="#665545"/>
<path d="M30.2412 34.4399H31.0812V35.2799H30.2412V34.4399Z" fill="#665545"/>
<path d="M14.2783 33.6001H15.1183V34.4401H14.2783V33.6001Z" fill="#665545"/>
<path d="M14.2783 34.4399H15.1183V35.2799H14.2783V34.4399Z" fill="#665545"/>
<path d="M31.0791 33.6001H31.9191V34.4401H31.0791V33.6001Z" fill="#665545"/>
<path d="M31.0791 34.4399H31.9191V35.2799H31.0791V34.4399Z" fill="#665545"/>
<path d="M13.4414 33.6001H14.2814V34.4401H13.4414V33.6001Z" fill="#665545"/>
<path d="M13.4414 34.4399H14.2814V35.2799H13.4414V34.4399Z" fill="#665545"/>
<path d="M30.2412 35.2786H31.0812V36.1186H30.2412V35.2786Z" fill="#665545"/>
<path d="M31.0791 35.2786H31.9191V36.1186H31.0791V35.2786Z" fill="#665545"/>
<path d="M28.5586 35.2786H29.3986V36.1186H28.5586V35.2786Z" fill="#665545"/>
<path d="M29.4004 35.2786H30.2404V36.1186H29.4004V35.2786Z" fill="#665545"/>
<path d="M21.8408 39.4786H22.6808V40.3186H21.8408V39.4786Z" fill="#665545"/>
<path d="M22.6787 39.4786H23.5187V40.3186H22.6787V39.4786Z" fill="#665545"/>
<path d="M21 38.6398H21.84V39.4798H21V38.6398Z" fill="#665545"/>
<path d="M21.8408 38.6398H22.6808V39.4798H21.8408V38.6398Z" fill="#665545"/>
<path d="M20.1592 37.8H20.9992V38.64H20.1592V37.8Z" fill="#665545"/>
<path d="M21 37.8H21.84V38.64H21V37.8Z" fill="#665545"/>
<path d="M18.4785 36.9592H19.3185V37.7992H18.4785V36.9592Z" fill="#665545"/>
<path d="M19.3213 36.9592H20.1613V37.7992H19.3213V36.9592Z" fill="#665545"/>
<path d="M27.7217 36.1215H28.5617V36.9615H27.7217V36.1215Z" fill="#665545"/>
<path d="M28.5586 36.1215H29.3986V36.9615H28.5586V36.1215Z" fill="#665545"/>
<path d="M26.041 36.1215H26.881V36.9615H26.041V36.1215Z" fill="#665545"/>
<path d="M26.8789 36.1215H27.7189V36.9615H26.8789V36.1215Z" fill="#665545"/>
<path d="M17.6406 36.1215H18.4806V36.9615H17.6406V36.1215Z" fill="#665545"/>
<path d="M18.4785 36.1215H19.3185V36.9615H18.4785V36.1215Z" fill="#665545"/>
<path d="M15.959 36.1215H16.799V36.9615H15.959V36.1215Z" fill="#665545"/>
<path d="M16.7998 36.1215H17.6398V36.9615H16.7998V36.1215Z" fill="#665545"/>
<path d="M15.1211 35.2786H15.9611V36.1186H15.1211V35.2786Z" fill="#665545"/>
<path d="M15.959 35.2786H16.799V36.1186H15.959V35.2786Z" fill="#665545"/>
<path d="M13.4414 35.2786H14.2814V36.1186H13.4414V35.2786Z" fill="#665545"/>
<path d="M14.2783 35.2786H15.1183V36.1186H14.2783V35.2786Z" fill="#665545"/>
<path d="M25.2002 36.9592H26.0402V37.7992H25.2002V36.9592Z" fill="#665545"/>
<path d="M26.041 36.9592H26.881V37.7992H26.041V36.9592Z" fill="#665545"/>
<path d="M23.5215 37.8H24.3615V38.64H23.5215V37.8Z" fill="#665545"/>
<path d="M24.3594 37.8H25.1994V38.64H24.3594V37.8Z" fill="#665545"/>
<path d="M22.6787 38.6398H23.5187V39.4798H22.6787V38.6398Z" fill="#665545"/>
<path d="M23.5215 38.6398H24.3615V39.4798H23.5215V38.6398Z" fill="#665545"/>
<path d="M31.9209 19.3215H32.7609V20.1615H31.9209V19.3215Z" fill="#665545"/>
<path d="M31.0791 17.6398H31.9191V18.4798H31.0791V17.6398Z" fill="#665545"/>
<path d="M30.2412 17.6398H31.0812V18.4798H30.2412V17.6398Z" fill="#665545"/>
<path d="M29.4004 17.6398H30.2404V18.4798H29.4004V17.6398Z" fill="#665545"/>
<path d="M29.4004 18.4786H30.2404V19.3186H29.4004V18.4786Z" fill="#665545"/>
<path d="M31.9209 18.4786H32.7609V19.3186H31.9209V18.4786Z" fill="#665545"/>
<path d="M31.9209 17.6398H32.7609V18.4798H31.9209V17.6398Z" fill="#665545"/>
<rect x="21" y="12.6001" width="0.839999" height="0.84" fill="#665545"/>
<path d="M21 2.52143H21.84V3.36143H21V2.52143Z" fill="#665545"/>
<path d="M20.1592 1.67853H20.9992V2.51853H20.1592V1.67853Z" fill="#665545"/>
<path d="M20.1592 2.52143H20.9992V3.36143H20.1592V2.52143Z" fill="#665545"/>
<path d="M19.3213 2.52143H20.1613V3.36143H19.3213V2.52143Z" fill="#665545"/>
<path d="M21.8408 2.52143H22.6808V3.36143H21.8408V2.52143Z" fill="#665545"/>
<path d="M21 3.36017H21.84V4.20017H21V3.36017Z" fill="#665545"/>
<path d="M20.1592 3.36017H20.9992V4.20017H20.1592V3.36017Z" fill="#665545"/>
<path d="M19.3213 3.36017H20.1613V4.20017H19.3213V3.36017Z" fill="#665545"/>
<path d="M21.8408 3.36017H22.6808V4.20017H21.8408V3.36017Z" fill="#665545"/>
<path d="M21 4.19996H21.84V5.03996H21V4.19996Z" fill="#665545"/>
<path d="M20.1592 4.19996H20.9992V5.03996H20.1592V4.19996Z" fill="#665545"/>
<path d="M19.3213 4.19996H20.1613V5.03996H19.3213V4.19996Z" fill="#665545"/>
<path d="M21.8408 4.19996H22.6808V5.03996H21.8408V4.19996Z" fill="#665545"/>
<path d="M20.1592 5.04078H20.9992V5.88078H20.1592V5.04078Z" fill="#665545"/>
<path d="M19.3213 5.04078H20.1613V5.88078H19.3213V5.04078Z" fill="#665545"/>
<path d="M21.8408 5.04078H22.6808V5.88078H21.8408V5.04078Z" fill="#665545"/>
<path d="M21.8408 5.87849H22.6808V6.71849H21.8408V5.87849Z" fill="#665545"/>
<path d="M21 5.04078H21.84V5.88078H21V5.04078Z" fill="#665545"/>
<path d="M19.3213 5.87849H20.1613V6.71849H19.3213V5.87849Z" fill="#665545"/>
<rect x="21" y="1.67853" width="0.839999" height="0.84" fill="#665545"/>
<path d="M26.041 4.19996H26.881V5.03996H26.041V4.19996Z" fill="#665545"/>
<path d="M25.2002 3.36017H26.0402V4.20017H25.2002V3.36017Z" fill="#665545"/>
<path d="M25.2002 4.19996H26.0402V5.03996H25.2002V4.19996Z" fill="#665545"/>
<path d="M24.3594 4.19996H25.1994V5.03996H24.3594V4.19996Z" fill="#665545"/>
<path d="M26.8789 4.19996H27.7189V5.03996H26.8789V4.19996Z" fill="#665545"/>
<path d="M26.041 5.04078H26.881V5.88078H26.041V5.04078Z" fill="#665545"/>
<path d="M25.2002 5.04078H26.0402V5.88078H25.2002V5.04078Z" fill="#665545"/>
<path d="M24.3594 5.04078H25.1994V5.88078H24.3594V5.04078Z" fill="#665545"/>
<path d="M26.8789 5.04078H27.7189V5.88078H26.8789V5.04078Z" fill="#665545"/>
<path d="M26.041 5.87849H26.881V6.71849H26.041V5.87849Z" fill="#665545"/>
<path d="M25.2002 5.87849H26.0402V6.71849H25.2002V5.87849Z" fill="#665545"/>
<path d="M24.3594 5.87849H25.1994V6.71849H24.3594V5.87849Z" fill="#665545"/>
<path d="M26.8789 5.87849H27.7189V6.71849H26.8789V5.87849Z" fill="#665545"/>
<path d="M25.2002 6.72138H26.0402V7.56138H25.2002V6.72138Z" fill="#665545"/>
<path d="M24.3594 6.72138H25.1994V7.56138H24.3594V6.72138Z" fill="#665545"/>
<path d="M26.8789 6.72138H27.7189V7.56138H26.8789V6.72138Z" fill="#665545"/>
<path d="M26.8789 7.56013H27.7189V8.40013H26.8789V7.56013Z" fill="#665545"/>
<path d="M26.041 6.72138H26.881V7.56138H26.041V6.72138Z" fill="#665545"/>
<path d="M24.3594 7.56013H25.1994V8.40013H24.3594V7.56013Z" fill="#665545"/>
<rect x="26.041" y="3.36017" width="0.839999" height="0.84" fill="#665545"/>
</svg>
