<svg width="42" height="40" viewBox="0 0 42 40" fill="none" xmlns="http://www.w3.org/2000/svg">
<rect y="14.9329" width="0.933306" height="0.933306" fill="#665545"/>
<rect x="0.933594" y="15.8677" width="0.933306" height="0.933306" fill="#665545"/>
<rect x="1.86621" y="16.7994" width="0.933306" height="0.933306" fill="#665545"/>
<rect x="2.80176" y="17.7331" width="0.933306" height="0.933306" fill="#665545"/>
<rect x="3.73242" y="18.6659" width="0.933306" height="0.933306" fill="#665545"/>
<rect x="4.66602" y="19.6007" width="0.933306" height="0.933305" fill="#665545"/>
<rect x="5.59766" y="20.5302" width="0.933306" height="0.933306" fill="#665545"/>
<rect x="6.5332" y="21.466" width="0.933306" height="0.933305" fill="#665545"/>
<rect x="7.4668" y="22.401" width="0.933306" height="0.933306" fill="#665545"/>
<rect x="8.39941" y="23.3325" width="0.933306" height="0.933306" fill="#665545"/>
<rect x="9.33398" y="24.2675" width="0.933306" height="0.933305" fill="#665545"/>
<rect x="10.2646" y="25.199" width="0.933306" height="0.933305" fill="#665545"/>
<rect x="8.39941" y="24.2675" width="0.933306" height="0.933305" fill="#665545"/>
<rect x="9.33398" y="25.199" width="0.933306" height="0.933305" fill="#665545"/>
<rect x="10.2646" y="26.1329" width="0.933306" height="0.933308" fill="#665545"/>
<rect x="11.2002" y="26.1329" width="0.933306" height="0.933308" fill="#665545"/>
<rect x="12.1348" y="27.0644" width="0.933306" height="0.933306" fill="#665545"/>
<rect x="11.2002" y="27.0644" width="0.933306" height="0.933306" fill="#665545"/>
<rect x="12.1348" y="27.9994" width="0.933306" height="0.933303" fill="#665545"/>
<rect x="13.0654" y="27.9994" width="0.933306" height="0.933303" fill="#665545"/>
<rect x="14" y="28.9308" width="0.933306" height="0.933306" fill="#665545"/>
<rect x="13.0654" y="28.9308" width="0.933306" height="0.933306" fill="#665545"/>
<rect x="14" y="29.867" width="0.933306" height="0.93331" fill="#665545"/>
<rect x="14" y="30.7995" width="0.933306" height="0.933306" fill="#665545"/>
<rect x="15.8662" y="30.7995" width="0.933306" height="0.933306" fill="#665545"/>
<rect x="15.8662" y="31.7334" width="0.933306" height="0.933303" fill="#665545"/>
<rect x="15.8662" y="32.666" width="0.933306" height="0.933303" fill="#665545"/>
<rect x="16.7998" y="31.7334" width="0.933306" height="0.933303" fill="#665545"/>
<rect x="16.7998" y="32.666" width="0.933306" height="0.933303" fill="#665545"/>
<rect x="16.7998" y="33.5988" width="0.933306" height="0.933306" fill="#665545"/>
<rect x="17.7334" y="32.666" width="0.933306" height="0.933303" fill="#665545"/>
<rect x="17.7334" y="33.5988" width="0.933306" height="0.933306" fill="#665545"/>
<rect x="17.7334" y="34.5325" width="0.933306" height="0.933306" fill="#665545"/>
<rect x="19.6006" y="36.399" width="0.933306" height="0.933303" fill="#665545"/>
<rect x="18.666" y="34.5325" width="0.933306" height="0.933306" fill="#665545"/>
<rect x="18.666" y="35.4653" width="0.933306" height="0.933306" fill="#665545"/>
<rect x="14.9326" y="29.867" width="0.933305" height="0.93331" fill="#665545"/>
<rect x="14.9326" y="30.7995" width="0.933305" height="0.933306" fill="#665545"/>
<rect x="14.9326" y="31.7334" width="0.933305" height="0.933303" fill="#665545"/>
<rect y="10.265" width="0.933306" height="0.933307" fill="#665545"/>
<rect y="11.2011" width="0.933306" height="0.933306" fill="#665545"/>
<rect y="12.1314" width="0.933306" height="0.933305" fill="#665545"/>
<rect y="13.0676" width="0.933306" height="0.933306" fill="#665545"/>
<rect y="14.0001" width="0.933306" height="0.933306" fill="#665545"/>
<rect x="0.933594" y="14.9329" width="0.933306" height="0.933306" fill="#665545"/>
<rect x="0.933594" y="10.265" width="0.933306" height="0.933307" fill="#665545"/>
<rect x="0.933594" y="9.33349" width="0.933306" height="0.933306" fill="#665545"/>
<rect x="1.86621" y="9.33349" width="0.933306" height="0.933306" fill="#665545"/>
<rect x="2.80176" y="8.39959" width="0.933306" height="0.933306" fill="#665545"/>
<rect x="3.73242" y="8.39959" width="0.933306" height="0.933306" fill="#665545"/>
<rect x="4.66602" y="7.46922" width="0.933306" height="0.933306" fill="#665545"/>
<rect x="5.59766" y="7.46922" width="0.933306" height="0.933306" fill="#665545"/>
<rect x="6.5332" y="6.53311" width="0.933306" height="0.933306" fill="#665545"/>
<rect x="7.4668" y="6.53311" width="0.933306" height="0.933306" fill="#665545"/>
<rect x="2.80176" y="9.33349" width="0.933306" height="0.933306" fill="#665545"/>
<rect x="3.73242" y="9.33349" width="0.933306" height="0.933306" fill="#665545"/>
<rect x="4.66602" y="8.39959" width="0.933306" height="0.933306" fill="#665545"/>
<rect x="5.59766" y="8.39959" width="0.933306" height="0.933306" fill="#665545"/>
<rect x="6.5332" y="7.46922" width="0.933306" height="0.933306" fill="#665545"/>
<rect x="7.4668" y="5.59833" width="0.933306" height="0.933306" fill="#665545"/>
<rect x="8.39941" y="5.59833" width="0.933306" height="0.933306" fill="#665545"/>
<rect x="8.39941" y="6.53311" width="0.933306" height="0.933306" fill="#665545"/>
<rect x="9.33398" y="4.66663" width="0.933306" height="0.933306" fill="#665545"/>
<rect x="10.2646" y="4.66663" width="0.933306" height="0.933306" fill="#665545"/>
<rect x="11.2002" y="3.73185" width="0.933306" height="0.933306" fill="#665545"/>
<rect x="12.1348" y="3.73185" width="0.933306" height="0.933306" fill="#665545"/>
<rect x="13.0654" y="2.79928" width="0.933306" height="0.933306" fill="#665545"/>
<rect x="9.33398" y="5.59833" width="0.933306" height="0.933306" fill="#665545"/>
<rect x="10.2646" y="5.59833" width="0.933306" height="0.933306" fill="#665545"/>
<rect x="11.2002" y="4.66663" width="0.933306" height="0.933306" fill="#665545"/>
<rect x="12.1348" y="4.66663" width="0.933306" height="0.933306" fill="#665545"/>
<rect x="13.0654" y="3.73185" width="0.933306" height="0.933306" fill="#665545"/>
<rect x="14" y="2.79928" width="0.933306" height="0.933306" fill="#665545"/>
<rect x="15.8662" y="0.933674" width="0.933306" height="0.933306" fill="#665545"/>
<rect x="16.7998" y="0.933674" width="0.933306" height="0.933306" fill="#665545"/>
<rect x="17.7334" width="0.933306" height="0.933306" fill="#665545"/>
<rect x="18.666" width="0.933306" height="0.933306" fill="#665545"/>
<rect x="14.9326" y="1.86648" width="0.933305" height="0.933306" fill="#665545"/>
<rect x="15.8662" y="1.86648" width="0.933306" height="0.933306" fill="#665545"/>
<rect x="16.7998" y="1.86648" width="0.933306" height="0.933306" fill="#665545"/>
<rect x="17.7334" y="0.933674" width="0.933306" height="0.933306" fill="#665545"/>
<rect x="18.666" y="0.933674" width="0.933306" height="0.933306" fill="#665545"/>
<rect x="19.6006" y="0.933674" width="0.933306" height="0.933306" fill="#665545"/>
<rect x="19.6006" y="1.86648" width="0.933306" height="0.933306" fill="#665545"/>
<rect x="20.5332" y="1.86648" width="0.933306" height="0.933306" fill="#665545"/>
<rect x="20.5332" y="2.79928" width="0.933306" height="0.933306" fill="#665545"/>
<rect x="34.5322" y="13.0676" width="0.93331" height="0.933306" fill="#665545"/>
<rect x="37.332" y="14.9329" width="0.933306" height="0.933306" fill="#665545"/>
<rect x="38.2646" y="15.8677" width="0.933306" height="0.933306" fill="#665545"/>
<rect x="39.1963" y="16.7994" width="0.933303" height="0.933306" fill="#665545"/>
<rect x="25.1992" y="5.59833" width="0.933305" height="0.933306" fill="#665545"/>
<rect x="22.3975" y="4.66663" width="0.933306" height="0.933306" fill="#665545"/>
<rect x="22.3975" y="3.73185" width="0.933306" height="0.933306" fill="#665545"/>
<rect x="23.332" y="3.73185" width="0.933306" height="0.933306" fill="#665545"/>
<rect x="23.332" y="4.66663" width="0.933306" height="0.933306" fill="#665545"/>
<rect x="24.2676" y="4.66663" width="0.933306" height="0.933306" fill="#665545"/>
<rect x="23.332" y="5.59833" width="0.933306" height="0.933306" fill="#665545"/>
<rect x="24.2676" y="5.59833" width="0.933306" height="0.933306" fill="#665545"/>
<rect x="26.1328" y="6.53311" width="0.933306" height="0.933306" fill="#665545"/>
<rect x="25.1992" y="6.53311" width="0.933305" height="0.933306" fill="#665545"/>
<rect x="27.0645" y="7.46922" width="0.933306" height="0.933306" fill="#665545"/>
<rect x="26.1328" y="7.46922" width="0.933306" height="0.933306" fill="#665545"/>
<rect x="28.9316" y="8.39959" width="0.933306" height="0.933306" fill="#665545"/>
<rect x="28" y="8.39959" width="0.933306" height="0.933306" fill="#665545"/>
<rect x="29.8652" y="9.33349" width="0.933306" height="0.933306" fill="#665545"/>
<rect x="28.9316" y="9.33349" width="0.933306" height="0.933306" fill="#665545"/>
<rect x="27.0645" y="8.39959" width="0.933306" height="0.933306" fill="#665545"/>
<rect x="28" y="9.33349" width="0.933306" height="0.933306" fill="#665545"/>
<rect x="28" y="11.2011" width="0.933306" height="0.933306" fill="#665545"/>
<rect x="28.9316" y="11.2011" width="0.933306" height="0.933306" fill="#665545"/>
<rect x="29.8652" y="12.1314" width="0.933306" height="0.933305" fill="#665545"/>
<rect x="30.7988" y="13.0676" width="0.933303" height="0.933306" fill="#665545"/>
<rect x="31.7334" y="13.0676" width="0.933306" height="0.933306" fill="#665545"/>
<rect x="31.7334" y="10.265" width="0.933306" height="0.933307" fill="#665545"/>
<rect x="30.7988" y="10.265" width="0.933303" height="0.933307" fill="#665545"/>
<rect x="29.8652" y="10.265" width="0.933306" height="0.933307" fill="#665545"/>
<rect x="33.5986" y="12.1314" width="0.933306" height="0.933305" fill="#665545"/>
<rect x="32.666" y="12.1314" width="0.933306" height="0.933305" fill="#665545"/>
<rect x="36.3994" y="14.0001" width="0.933303" height="0.933306" fill="#665545"/>
<rect x="35.4658" y="14.0001" width="0.933303" height="0.933306" fill="#665545"/>
<rect x="30.7988" y="11.2011" width="0.933303" height="0.933306" fill="#665545"/>
<rect x="32.666" y="11.2011" width="0.933306" height="0.933306" fill="#665545"/>
<rect x="34.5322" y="15.8677" width="0.93331" height="0.933306" fill="#665545"/>
<rect x="33.5986" y="14.9329" width="0.933306" height="0.933306" fill="#665545"/>
<rect x="35.4658" y="16.7994" width="0.933303" height="0.933306" fill="#665545"/>
<rect x="32.666" y="14.0001" width="0.933306" height="0.933306" fill="#665545"/>
<rect x="19.6006" y="3.73185" width="0.933306" height="0.933306" fill="#665545"/>
<rect x="18.666" y="2.79928" width="0.933306" height="0.933306" fill="#665545"/>
<rect x="20.5332" y="4.66663" width="0.933306" height="0.933306" fill="#665545"/>
<rect x="23.332" y="7.46922" width="0.933306" height="0.933306" fill="#665545"/>
<rect x="22.3975" y="6.53311" width="0.933306" height="0.933306" fill="#665545"/>
<rect x="24.2676" y="8.39959" width="0.933306" height="0.933306" fill="#665545"/>
<rect x="25.1992" y="8.39959" width="0.933305" height="0.933306" fill="#665545"/>
<rect x="24.2676" y="7.46922" width="0.933306" height="0.933306" fill="#665545"/>
<rect x="21.4658" y="5.59833" width="0.933306" height="0.933306" fill="#665545"/>
<rect x="31.7334" y="11.2011" width="0.933306" height="0.933306" fill="#665545"/>
<rect x="21.4658" y="2.79928" width="0.933306" height="0.933306" fill="#665545"/>
<rect x="21.4658" y="3.73185" width="0.933306" height="0.933306" fill="#665545"/>
<rect x="14.9326" y="2.79928" width="0.933305" height="0.933306" fill="#665545"/>
<rect x="0.933594" y="11.2011" width="0.933306" height="0.933306" fill="#665545"/>
<rect x="0.933594" y="12.1314" width="0.933306" height="0.933305" fill="#665545"/>
<rect x="0.933594" y="13.0676" width="0.933306" height="0.933306" fill="#665545"/>
<rect x="0.933594" y="14.0001" width="0.933306" height="0.933306" fill="#665545"/>
<rect x="1.86621" y="15.8677" width="0.933306" height="0.933306" fill="#665545"/>
<rect x="1.86621" y="14.9329" width="0.933306" height="0.933306" fill="#665545"/>
<rect x="1.86621" y="12.1314" width="0.933306" height="0.933305" fill="#665545"/>
<rect x="1.86621" y="13.0676" width="0.933306" height="0.933306" fill="#665545"/>
<rect x="1.86621" y="14.0001" width="0.933306" height="0.933306" fill="#665545"/>
<rect x="2.80176" y="16.7994" width="0.933306" height="0.933306" fill="#665545"/>
<rect x="2.80176" y="15.8677" width="0.933306" height="0.933306" fill="#665545"/>
<rect x="2.80176" y="14.9329" width="0.933306" height="0.933306" fill="#665545"/>
<rect x="3.73242" y="17.7331" width="0.933306" height="0.933306" fill="#665545"/>
<rect x="3.73242" y="16.7994" width="0.933306" height="0.933306" fill="#665545"/>
<rect x="3.73242" y="15.8677" width="0.933306" height="0.933306" fill="#665545"/>
<rect x="4.66602" y="18.6659" width="0.933306" height="0.933306" fill="#665545"/>
<rect x="4.66602" y="17.7331" width="0.933306" height="0.933306" fill="#665545"/>
<rect x="4.66602" y="16.7994" width="0.933306" height="0.933306" fill="#665545"/>
<rect x="5.59766" y="19.6007" width="0.933306" height="0.933305" fill="#665545"/>
<rect x="5.59766" y="18.6659" width="0.933306" height="0.933306" fill="#665545"/>
<rect x="5.59766" y="17.7331" width="0.933306" height="0.933306" fill="#665545"/>
<rect x="6.5332" y="20.5302" width="0.933306" height="0.933306" fill="#665545"/>
<rect x="6.5332" y="19.6007" width="0.933306" height="0.933305" fill="#665545"/>
<rect x="6.5332" y="18.6659" width="0.933306" height="0.933306" fill="#665545"/>
<rect x="7.4668" y="21.466" width="0.933306" height="0.933305" fill="#665545"/>
<rect x="7.4668" y="20.5302" width="0.933306" height="0.933306" fill="#665545"/>
<rect x="7.4668" y="19.6007" width="0.933306" height="0.933305" fill="#665545"/>
<rect x="8.39941" y="22.401" width="0.933306" height="0.933306" fill="#665545"/>
<rect x="8.39941" y="21.466" width="0.933306" height="0.933305" fill="#665545"/>
<rect x="8.39941" y="20.5302" width="0.933306" height="0.933306" fill="#665545"/>
<rect x="9.33398" y="23.3325" width="0.933306" height="0.933306" fill="#665545"/>
<rect x="9.33398" y="22.401" width="0.933306" height="0.933306" fill="#665545"/>
<rect x="9.33398" y="21.466" width="0.933306" height="0.933305" fill="#665545"/>
<rect x="10.2646" y="24.2675" width="0.933306" height="0.933305" fill="#665545"/>
<rect x="10.2646" y="23.3325" width="0.933306" height="0.933306" fill="#665545"/>
<rect x="10.2646" y="22.401" width="0.933306" height="0.933306" fill="#665545"/>
<rect x="11.2002" y="25.199" width="0.933306" height="0.933305" fill="#665545"/>
<rect x="11.2002" y="24.2675" width="0.933306" height="0.933305" fill="#665545"/>
<rect x="11.2002" y="23.3325" width="0.933306" height="0.933306" fill="#665545"/>
<rect x="12.1348" y="26.1329" width="0.933306" height="0.933308" fill="#665545"/>
<rect x="12.1348" y="25.199" width="0.933306" height="0.933305" fill="#665545"/>
<rect x="13.0654" y="27.0644" width="0.933306" height="0.933306" fill="#665545"/>
<rect x="13.0654" y="26.1329" width="0.933306" height="0.933308" fill="#665545"/>
<rect x="14" y="27.9994" width="0.933306" height="0.933303" fill="#665545"/>
<rect x="14" y="27.0644" width="0.933306" height="0.933306" fill="#665545"/>
<rect x="14.9326" y="28.9308" width="0.933305" height="0.933306" fill="#665545"/>
<rect x="14.9326" y="27.9994" width="0.933305" height="0.933303" fill="#665545"/>
<rect x="15.8662" y="29.867" width="0.933306" height="0.93331" fill="#665545"/>
<rect x="15.8662" y="28.9308" width="0.933306" height="0.933306" fill="#665545"/>
<rect x="16.7998" y="30.7995" width="0.933306" height="0.933306" fill="#665545"/>
<rect x="16.7998" y="29.867" width="0.933306" height="0.93331" fill="#665545"/>
<rect x="16.7998" y="28.9308" width="0.933306" height="0.933306" fill="#665545"/>
<rect x="17.7334" y="31.7334" width="0.933306" height="0.933303" fill="#665545"/>
<rect x="17.7334" y="30.7995" width="0.933306" height="0.933306" fill="#665545"/>
<rect x="18.666" y="32.666" width="0.933306" height="0.933303" fill="#665545"/>
<rect x="18.666" y="33.5988" width="0.933306" height="0.933306" fill="#665545"/>
<rect x="18.666" y="31.7334" width="0.933306" height="0.933303" fill="#665545"/>
<rect x="19.6006" y="34.5325" width="0.933306" height="0.933306" fill="#665545"/>
<rect x="19.6006" y="35.4653" width="0.933306" height="0.933306" fill="#665545"/>
<rect x="19.6006" y="32.666" width="0.933306" height="0.933303" fill="#665545"/>
<rect x="19.6006" y="33.5988" width="0.933306" height="0.933306" fill="#665545"/>
<rect x="19.6006" y="31.7334" width="0.933306" height="0.933303" fill="#665545"/>
<rect x="21.4658" y="31.7334" width="0.933306" height="0.933303" fill="#665545"/>
<rect x="22.3975" y="31.7334" width="0.933306" height="0.933303" fill="#665545"/>
<rect x="20.5332" y="30.7995" width="0.933306" height="0.933306" fill="#665545"/>
<rect x="21.4658" y="30.7995" width="0.933306" height="0.933306" fill="#665545"/>
<rect x="22.3975" y="30.7995" width="0.933306" height="0.933306" fill="#665545"/>
<rect x="19.6006" y="29.867" width="0.933306" height="0.93331" fill="#665545"/>
<rect x="20.5332" y="29.867" width="0.933306" height="0.93331" fill="#665545"/>
<rect x="21.4658" y="29.867" width="0.933306" height="0.93331" fill="#665545"/>
<rect x="18.666" y="28.9308" width="0.933306" height="0.933306" fill="#665545"/>
<rect x="19.6006" y="28.9308" width="0.933306" height="0.933306" fill="#665545"/>
<rect x="20.5332" y="28.9308" width="0.933306" height="0.933306" fill="#665545"/>
<rect x="17.7334" y="27.9994" width="0.933306" height="0.933303" fill="#665545"/>
<rect x="18.666" y="27.9994" width="0.933306" height="0.933303" fill="#665545"/>
<rect x="19.6006" y="27.9994" width="0.933306" height="0.933303" fill="#665545"/>
<rect x="16.7998" y="27.0644" width="0.933306" height="0.933306" fill="#665545"/>
<rect x="17.7334" y="27.0644" width="0.933306" height="0.933306" fill="#665545"/>
<rect x="18.666" y="27.0644" width="0.933306" height="0.933306" fill="#665545"/>
<rect x="15.8662" y="26.1329" width="0.933306" height="0.933308" fill="#665545"/>
<rect x="16.7998" y="26.1329" width="0.933306" height="0.933308" fill="#665545"/>
<rect x="17.7334" y="26.1329" width="0.933306" height="0.933308" fill="#665545"/>
<rect x="14.9326" y="25.199" width="0.933305" height="0.933305" fill="#665545"/>
<rect x="15.8662" y="25.199" width="0.933306" height="0.933305" fill="#665545"/>
<rect x="16.7998" y="25.199" width="0.933306" height="0.933305" fill="#665545"/>
<rect x="14" y="24.2675" width="0.933306" height="0.933305" fill="#665545"/>
<rect x="14.9326" y="24.2675" width="0.933305" height="0.933305" fill="#665545"/>
<rect x="14" y="23.3325" width="0.933306" height="0.933306" fill="#665545"/>
<rect x="14.9326" y="23.3325" width="0.933305" height="0.933306" fill="#665545"/>
<rect x="13.0654" y="22.401" width="0.933306" height="0.933306" fill="#665545"/>
<rect x="14" y="22.401" width="0.933306" height="0.933306" fill="#665545"/>
<rect x="12.1348" y="21.466" width="0.933306" height="0.933305" fill="#665545"/>
<rect x="13.0654" y="21.466" width="0.933306" height="0.933305" fill="#665545"/>
<rect x="11.2002" y="20.5302" width="0.933306" height="0.933306" fill="#665545"/>
<rect x="12.1348" y="20.5302" width="0.933306" height="0.933306" fill="#665545"/>
<rect x="10.2646" y="19.6007" width="0.933306" height="0.933305" fill="#665545"/>
<rect x="11.2002" y="19.6007" width="0.933306" height="0.933305" fill="#665545"/>
<rect x="9.33398" y="18.6659" width="0.933306" height="0.933306" fill="#665545"/>
<rect x="10.2646" y="18.6659" width="0.933306" height="0.933306" fill="#665545"/>
<rect x="8.39941" y="17.7331" width="0.933306" height="0.933306" fill="#665545"/>
<rect x="9.33398" y="17.7331" width="0.933306" height="0.933306" fill="#665545"/>
<rect x="7.4668" y="16.7994" width="0.933306" height="0.933306" fill="#665545"/>
<rect x="8.39941" y="16.7994" width="0.933306" height="0.933306" fill="#665545"/>
<rect x="6.5332" y="15.8677" width="0.933306" height="0.933306" fill="#665545"/>
<rect x="7.4668" y="15.8677" width="0.933306" height="0.933306" fill="#665545"/>
<rect x="5.59766" y="14.9329" width="0.933306" height="0.933306" fill="#665545"/>
<rect x="6.5332" y="14.9329" width="0.933306" height="0.933306" fill="#665545"/>
<rect x="4.66602" y="14.0001" width="0.933306" height="0.933306" fill="#665545"/>
<rect x="5.59766" y="14.0001" width="0.933306" height="0.933306" fill="#665545"/>
<rect x="4.66602" y="13.0676" width="0.933306" height="0.933306" fill="#665545"/>
<rect x="3.73242" y="12.1314" width="0.933306" height="0.933305" fill="#665545"/>
<rect x="2.80176" y="11.2011" width="0.933306" height="0.933306" fill="#665545"/>
<rect x="10.2646" y="15.8677" width="0.933306" height="0.933306" fill="#665545"/>
<rect x="9.33398" y="14.9329" width="0.933306" height="0.933306" fill="#665545"/>
<rect x="8.39941" y="14.0001" width="0.933306" height="0.933306" fill="#665545"/>
<rect x="7.4668" y="13.0676" width="0.933306" height="0.933306" fill="#665545"/>
<rect x="6.5332" y="12.1314" width="0.933306" height="0.933305" fill="#665545"/>
<rect x="5.59766" y="11.2011" width="0.933306" height="0.933306" fill="#665545"/>
<rect x="4.66602" y="10.265" width="0.933306" height="0.933307" fill="#665545"/>
<rect x="16.7998" y="22.401" width="0.933306" height="0.933306" fill="#665545"/>
<rect x="15.8662" y="20.5302" width="0.933306" height="0.933306" fill="#665545"/>
<rect x="15.8662" y="21.466" width="0.933306" height="0.933305" fill="#665545"/>
<rect x="14.9326" y="20.5302" width="0.933305" height="0.933306" fill="#665545"/>
<rect x="17.7334" y="20.5302" width="0.933306" height="0.933306" fill="#665545"/>
<rect x="16.7998" y="20.5302" width="0.933306" height="0.933306" fill="#665545"/>
<rect x="19.6006" y="20.5302" width="0.933306" height="0.933306" fill="#665545"/>
<rect x="18.666" y="20.5302" width="0.933306" height="0.933306" fill="#665545"/>
<rect x="21.4658" y="20.5302" width="0.933306" height="0.933306" fill="#665545"/>
<rect x="20.5332" y="20.5302" width="0.933306" height="0.933306" fill="#665545"/>
<rect x="23.332" y="20.5302" width="0.933306" height="0.933306" fill="#665545"/>
<rect x="22.3975" y="20.5302" width="0.933306" height="0.933306" fill="#665545"/>
<rect x="25.1992" y="20.5302" width="0.933305" height="0.933306" fill="#665545"/>
<rect x="24.2676" y="20.5302" width="0.933306" height="0.933306" fill="#665545"/>
<rect x="27.0645" y="20.5302" width="0.933306" height="0.933306" fill="#665545"/>
<rect x="26.1328" y="20.5302" width="0.933306" height="0.933306" fill="#665545"/>
<rect x="28.9316" y="20.5302" width="0.933306" height="0.933306" fill="#665545"/>
<rect x="28" y="20.5302" width="0.933306" height="0.933306" fill="#665545"/>
<rect x="30.7988" y="20.5302" width="0.933303" height="0.933306" fill="#665545"/>
<rect x="29.8652" y="20.5302" width="0.933306" height="0.933306" fill="#665545"/>
<rect x="32.666" y="20.5302" width="0.933306" height="0.933306" fill="#665545"/>
<rect x="31.7334" y="20.5302" width="0.933306" height="0.933306" fill="#665545"/>
<rect x="17.7334" y="21.466" width="0.933306" height="0.933305" fill="#665545"/>
<rect x="16.7998" y="21.466" width="0.933306" height="0.933305" fill="#665545"/>
<rect x="19.6006" y="21.466" width="0.933306" height="0.933305" fill="#665545"/>
<rect x="18.666" y="21.466" width="0.933306" height="0.933305" fill="#665545"/>
<rect x="21.4658" y="21.466" width="0.933306" height="0.933305" fill="#665545"/>
<rect x="20.5332" y="21.466" width="0.933306" height="0.933305" fill="#665545"/>
<rect x="23.332" y="21.466" width="0.933306" height="0.933305" fill="#665545"/>
<rect x="22.3975" y="21.466" width="0.933306" height="0.933305" fill="#665545"/>
<rect x="25.1992" y="21.466" width="0.933305" height="0.933305" fill="#665545"/>
<rect x="24.2676" y="21.466" width="0.933306" height="0.933305" fill="#665545"/>
<rect x="27.0645" y="21.466" width="0.933306" height="0.933305" fill="#665545"/>
<rect x="26.1328" y="21.466" width="0.933306" height="0.933305" fill="#665545"/>
<rect x="28.9316" y="21.466" width="0.933306" height="0.933305" fill="#665545"/>
<rect x="28" y="21.466" width="0.933306" height="0.933305" fill="#665545"/>
<rect x="30.7988" y="21.466" width="0.933303" height="0.933305" fill="#665545"/>
<rect x="29.8652" y="21.466" width="0.933306" height="0.933305" fill="#665545"/>
<rect x="17.7334" y="22.401" width="0.933306" height="0.933306" fill="#665545"/>
<rect x="19.6006" y="22.401" width="0.933306" height="0.933306" fill="#665545"/>
<rect x="18.666" y="22.401" width="0.933306" height="0.933306" fill="#665545"/>
<rect x="21.4658" y="22.401" width="0.933306" height="0.933306" fill="#665545"/>
<rect x="20.5332" y="22.401" width="0.933306" height="0.933306" fill="#665545"/>
<rect x="23.332" y="22.401" width="0.933306" height="0.933306" fill="#665545"/>
<rect x="22.3975" y="22.401" width="0.933306" height="0.933306" fill="#665545"/>
<rect x="25.1992" y="22.401" width="0.933305" height="0.933306" fill="#665545"/>
<rect x="24.2676" y="22.401" width="0.933306" height="0.933306" fill="#665545"/>
<rect x="27.0645" y="22.401" width="0.933306" height="0.933306" fill="#665545"/>
<rect x="26.1328" y="22.401" width="0.933306" height="0.933306" fill="#665545"/>
<rect x="28.9316" y="22.401" width="0.933306" height="0.933306" fill="#665545"/>
<rect x="28" y="22.401" width="0.933306" height="0.933306" fill="#665545"/>
<rect x="30.7988" y="22.401" width="0.933303" height="0.933306" fill="#665545"/>
<rect x="29.8652" y="22.401" width="0.933306" height="0.933306" fill="#665545"/>
<rect x="19.6006" y="23.3325" width="0.933306" height="0.933306" fill="#665545"/>
<rect x="18.666" y="23.3325" width="0.933306" height="0.933306" fill="#665545"/>
<rect x="21.4658" y="23.3325" width="0.933306" height="0.933306" fill="#665545"/>
<rect x="20.5332" y="23.3325" width="0.933306" height="0.933306" fill="#665545"/>
<rect x="23.332" y="23.3325" width="0.933306" height="0.933306" fill="#665545"/>
<rect x="22.3975" y="23.3325" width="0.933306" height="0.933306" fill="#665545"/>
<rect x="25.1992" y="23.3325" width="0.933305" height="0.933306" fill="#665545"/>
<rect x="24.2676" y="23.3325" width="0.933306" height="0.933306" fill="#665545"/>
<rect x="27.0645" y="23.3325" width="0.933306" height="0.933306" fill="#665545"/>
<rect x="26.1328" y="23.3325" width="0.933306" height="0.933306" fill="#665545"/>
<rect x="28.9316" y="23.3325" width="0.933306" height="0.933306" fill="#665545"/>
<rect x="28" y="23.3325" width="0.933306" height="0.933306" fill="#665545"/>
<rect x="19.6006" y="24.2675" width="0.933306" height="0.933305" fill="#665545"/>
<rect x="21.4658" y="24.2675" width="0.933306" height="0.933305" fill="#665545"/>
<rect x="20.5332" y="24.2675" width="0.933306" height="0.933305" fill="#665545"/>
<rect x="23.332" y="24.2675" width="0.933306" height="0.933305" fill="#665545"/>
<rect x="22.3975" y="24.2675" width="0.933306" height="0.933305" fill="#665545"/>
<rect x="25.1992" y="24.2675" width="0.933305" height="0.933305" fill="#665545"/>
<rect x="24.2676" y="24.2675" width="0.933306" height="0.933305" fill="#665545"/>
<rect x="27.0645" y="24.2675" width="0.933306" height="0.933305" fill="#665545"/>
<rect x="26.1328" y="24.2675" width="0.933306" height="0.933305" fill="#665545"/>
<rect x="28.9316" y="24.2675" width="0.933306" height="0.933305" fill="#665545"/>
<rect x="28" y="24.2675" width="0.933306" height="0.933305" fill="#665545"/>
<rect x="21.4658" y="25.199" width="0.933306" height="0.933305" fill="#665545"/>
<rect x="20.5332" y="25.199" width="0.933306" height="0.933305" fill="#665545"/>
<rect x="23.332" y="25.199" width="0.933306" height="0.933305" fill="#665545"/>
<rect x="22.3975" y="25.199" width="0.933306" height="0.933305" fill="#665545"/>
<rect x="25.1992" y="25.199" width="0.933305" height="0.933305" fill="#665545"/>
<rect x="24.2676" y="25.199" width="0.933306" height="0.933305" fill="#665545"/>
<rect x="27.0645" y="25.199" width="0.933306" height="0.933305" fill="#665545"/>
<rect x="26.1328" y="25.199" width="0.933306" height="0.933305" fill="#665545"/>
<rect x="21.4658" y="26.1329" width="0.933306" height="0.933308" fill="#665545"/>
<rect x="23.332" y="26.1329" width="0.933306" height="0.933308" fill="#665545"/>
<rect x="22.3975" y="26.1329" width="0.933306" height="0.933308" fill="#665545"/>
<rect x="25.1992" y="26.1329" width="0.933305" height="0.933308" fill="#665545"/>
<rect x="24.2676" y="26.1329" width="0.933306" height="0.933308" fill="#665545"/>
<rect x="27.0645" y="26.1329" width="0.933306" height="0.933308" fill="#665545"/>
<rect x="26.1328" y="26.1329" width="0.933306" height="0.933308" fill="#665545"/>
<rect x="23.332" y="27.0644" width="0.933306" height="0.933306" fill="#665545"/>
<rect x="22.3975" y="27.0644" width="0.933306" height="0.933306" fill="#665545"/>
<rect x="25.1992" y="27.0644" width="0.933305" height="0.933306" fill="#665545"/>
<rect x="24.2676" y="27.0644" width="0.933306" height="0.933306" fill="#665545"/>
<rect x="23.332" y="27.9994" width="0.933306" height="0.933303" fill="#665545"/>
<rect x="25.1992" y="27.9994" width="0.933305" height="0.933303" fill="#665545"/>
<rect x="24.2676" y="27.9994" width="0.933306" height="0.933303" fill="#665545"/>
<rect x="26.1328" y="27.0644" width="0.933306" height="0.933306" fill="#665545"/>
<rect x="28" y="25.199" width="0.933306" height="0.933305" fill="#665545"/>
<rect x="29.8652" y="23.3325" width="0.933306" height="0.933306" fill="#665545"/>
<rect x="32.666" y="21.466" width="0.933306" height="0.933305" fill="#665545"/>
<rect x="31.7334" y="21.466" width="0.933306" height="0.933305" fill="#665545"/>
<rect x="14" y="19.6007" width="0.933306" height="0.933305" fill="#665545"/>
<rect x="13.0654" y="18.6659" width="0.933306" height="0.933306" fill="#665545"/>
<rect x="12.1348" y="17.7331" width="0.933306" height="0.933306" fill="#665545"/>
<rect x="11.2002" y="16.7994" width="0.933306" height="0.933306" fill="#665545"/>
<rect x="23.332" y="28.9308" width="0.933306" height="0.933306" fill="#665545"/>
<rect x="24.2676" y="29.867" width="0.933306" height="0.93331" fill="#665545"/>
<rect x="24.2676" y="28.9308" width="0.933306" height="0.933306" fill="#665545"/>
<rect x="22.3975" y="27.9994" width="0.933306" height="0.933303" fill="#665545"/>
<rect x="21.4658" y="27.0644" width="0.933306" height="0.933306" fill="#665545"/>
<rect x="20.5332" y="26.1329" width="0.933306" height="0.933308" fill="#665545"/>
<rect x="19.6006" y="25.199" width="0.933306" height="0.933305" fill="#665545"/>
<rect x="18.666" y="24.2675" width="0.933306" height="0.933305" fill="#665545"/>
<rect x="17.7334" y="23.3325" width="0.933306" height="0.933306" fill="#665545"/>
<rect x="1.86621" y="10.265" width="0.933306" height="0.933307" fill="#665545"/>
<rect x="15.8662" y="24.2675" width="0.933306" height="0.933305" fill="#665545"/>
<rect x="20.5332" y="37.3318" width="0.933306" height="0.933303" fill="#665545"/>
<rect x="20.5332" y="35.4653" width="0.933306" height="0.933306" fill="#665545"/>
<rect x="20.5332" y="36.399" width="0.933306" height="0.933303" fill="#665545"/>
<rect x="20.5332" y="33.5988" width="0.933306" height="0.933306" fill="#665545"/>
<rect x="20.5332" y="34.5325" width="0.933306" height="0.933306" fill="#665545"/>
<rect x="21.4658" y="38.2665" width="0.933306" height="0.933303" fill="#665545"/>
<rect x="21.4658" y="36.399" width="0.933306" height="0.933303" fill="#665545"/>
<rect x="21.4658" y="37.3318" width="0.933306" height="0.933303" fill="#665545"/>
<rect x="21.4658" y="34.5325" width="0.933306" height="0.933306" fill="#665545"/>
<rect x="21.4658" y="35.4653" width="0.933306" height="0.933306" fill="#665545"/>
<rect x="22.3975" y="38.2665" width="0.933306" height="0.933303" fill="#665545"/>
<rect x="22.3975" y="37.3318" width="0.933306" height="0.933303" fill="#665545"/>
<rect x="23.332" y="38.2665" width="0.933306" height="0.933303" fill="#665545"/>
<rect x="23.332" y="37.3318" width="0.933306" height="0.933303" fill="#665545"/>
<rect x="24.2676" y="36.399" width="0.933306" height="0.933303" fill="#665545"/>
<rect x="24.2676" y="37.3318" width="0.933306" height="0.933303" fill="#665545"/>
<rect x="25.1992" y="35.4653" width="0.933305" height="0.933306" fill="#665545"/>
<rect x="25.1992" y="36.399" width="0.933305" height="0.933303" fill="#665545"/>
<rect x="26.1328" y="34.5325" width="0.933306" height="0.933306" fill="#665545"/>
<rect x="26.1328" y="35.4653" width="0.933306" height="0.933306" fill="#665545"/>
<rect x="27.0645" y="33.5988" width="0.933306" height="0.933306" fill="#665545"/>
<rect x="27.0645" y="34.5325" width="0.933306" height="0.933306" fill="#665545"/>
<rect x="28" y="32.666" width="0.933306" height="0.933303" fill="#665545"/>
<rect x="28" y="33.5988" width="0.933306" height="0.933306" fill="#665545"/>
<rect x="29.8652" y="30.7995" width="0.933306" height="0.933306" fill="#665545"/>
<rect x="29.8652" y="31.7334" width="0.933306" height="0.933303" fill="#665545"/>
<rect x="28.9316" y="31.7334" width="0.933306" height="0.933303" fill="#665545"/>
<rect x="28.9316" y="32.666" width="0.933306" height="0.933303" fill="#665545"/>
<rect x="30.7988" y="29.867" width="0.933303" height="0.93331" fill="#665545"/>
<rect x="30.7988" y="30.7995" width="0.933303" height="0.933306" fill="#665545"/>
<rect x="32.666" y="27.9994" width="0.933306" height="0.933303" fill="#665545"/>
<rect x="32.666" y="28.9308" width="0.933306" height="0.933306" fill="#665545"/>
<rect x="31.7334" y="28.9308" width="0.933306" height="0.933306" fill="#665545"/>
<rect x="31.7334" y="29.867" width="0.933306" height="0.93331" fill="#665545"/>
<rect x="33.5986" y="27.0644" width="0.933306" height="0.933306" fill="#665545"/>
<rect x="33.5986" y="27.9994" width="0.933306" height="0.933303" fill="#665545"/>
<rect x="36.3994" y="25.199" width="0.933303" height="0.933305" fill="#665545"/>
<rect x="23.332" y="34.5325" width="0.933306" height="0.933306" fill="#665545"/>
<rect x="22.3975" y="33.5988" width="0.933306" height="0.933306" fill="#665545"/>
<rect x="23.332" y="33.5988" width="0.933306" height="0.933306" fill="#665545"/>
<rect x="22.3975" y="32.666" width="0.933306" height="0.933303" fill="#665545"/>
<rect x="23.332" y="32.666" width="0.933306" height="0.933303" fill="#665545"/>
<rect x="24.2676" y="32.666" width="0.933306" height="0.933303" fill="#665545"/>
<rect x="23.332" y="31.7334" width="0.933306" height="0.933303" fill="#665545"/>
<rect x="24.2676" y="31.7334" width="0.933306" height="0.933303" fill="#665545"/>
<rect x="25.1992" y="31.7334" width="0.933305" height="0.933303" fill="#665545"/>
<rect x="26.1328" y="31.7334" width="0.933306" height="0.933303" fill="#665545"/>
<rect x="25.1992" y="30.7995" width="0.933305" height="0.933306" fill="#665545"/>
<rect x="26.1328" y="30.7995" width="0.933306" height="0.933306" fill="#665545"/>
<rect x="27.0645" y="30.7995" width="0.933306" height="0.933306" fill="#665545"/>
<rect x="26.1328" y="29.867" width="0.933306" height="0.93331" fill="#665545"/>
<rect x="27.0645" y="29.867" width="0.933306" height="0.93331" fill="#665545"/>
<rect x="27.0645" y="28.9308" width="0.933306" height="0.933306" fill="#665545"/>
<rect x="25.1992" y="28.9308" width="0.933305" height="0.933306" fill="#665545"/>
<rect x="26.1328" y="27.9994" width="0.933306" height="0.933303" fill="#665545"/>
<rect x="27.0645" y="27.0644" width="0.933306" height="0.933306" fill="#665545"/>
<rect x="28" y="26.1329" width="0.933306" height="0.933308" fill="#665545"/>
<rect x="28.9316" y="25.199" width="0.933306" height="0.933305" fill="#665545"/>
<rect x="29.8652" y="24.2675" width="0.933306" height="0.933305" fill="#665545"/>
<rect x="30.7988" y="23.3325" width="0.933303" height="0.933306" fill="#665545"/>
<rect x="31.7334" y="22.401" width="0.933306" height="0.933306" fill="#665545"/>
<rect x="29.8652" y="25.199" width="0.933306" height="0.933305" fill="#665545"/>
<rect x="30.7988" y="24.2675" width="0.933303" height="0.933305" fill="#665545"/>
<rect x="31.7334" y="23.3325" width="0.933306" height="0.933306" fill="#665545"/>
<rect x="32.666" y="22.401" width="0.933306" height="0.933306" fill="#665545"/>
<rect x="33.5986" y="21.466" width="0.933306" height="0.933305" fill="#665545"/>
<rect x="33.5986" y="20.5302" width="0.933306" height="0.933306" fill="#665545"/>
<rect x="34.5322" y="20.5302" width="0.93331" height="0.933306" fill="#665545"/>
<rect x="15.8662" y="19.6007" width="0.933306" height="0.933305" fill="#665545"/>
<rect x="14.9326" y="19.6007" width="0.933305" height="0.933305" fill="#665545"/>
<rect x="17.7334" y="19.6007" width="0.933306" height="0.933305" fill="#665545"/>
<rect x="16.7998" y="19.6007" width="0.933306" height="0.933305" fill="#665545"/>
<rect x="19.6006" y="19.6007" width="0.933306" height="0.933305" fill="#665545"/>
<rect x="18.666" y="19.6007" width="0.933306" height="0.933305" fill="#665545"/>
<rect x="20.5332" y="19.6007" width="0.933306" height="0.933305" fill="#665545"/>
<rect x="25.1992" y="19.6007" width="0.933305" height="0.933305" fill="#665545"/>
<rect x="24.2676" y="19.6007" width="0.933306" height="0.933305" fill="#665545"/>
<rect x="27.0645" y="19.6007" width="0.933306" height="0.933305" fill="#665545"/>
<rect x="26.1328" y="19.6007" width="0.933306" height="0.933305" fill="#665545"/>
<rect x="28.9316" y="19.6007" width="0.933306" height="0.933305" fill="#665545"/>
<rect x="28" y="19.6007" width="0.933306" height="0.933305" fill="#665545"/>
<rect x="30.7988" y="19.6007" width="0.933303" height="0.933305" fill="#665545"/>
<rect x="29.8652" y="19.6007" width="0.933306" height="0.933305" fill="#665545"/>
<rect x="32.666" y="19.6007" width="0.933306" height="0.933305" fill="#665545"/>
<rect x="31.7334" y="19.6007" width="0.933306" height="0.933305" fill="#665545"/>
<rect x="33.5986" y="19.6007" width="0.933306" height="0.933305" fill="#665545"/>
<rect x="34.5322" y="19.6007" width="0.93331" height="0.933305" fill="#665545"/>
<rect x="35.4658" y="19.6007" width="0.933303" height="0.933305" fill="#665545"/>
<rect x="14" y="18.6659" width="0.933306" height="0.933306" fill="#665545"/>
<rect x="15.8662" y="18.6659" width="0.933306" height="0.933306" fill="#665545"/>
<rect x="14.9326" y="18.6659" width="0.933305" height="0.933306" fill="#665545"/>
<rect x="17.7334" y="18.6659" width="0.933306" height="0.933306" fill="#665545"/>
<rect x="16.7998" y="18.6659" width="0.933306" height="0.933306" fill="#665545"/>
<rect x="21.4658" y="18.6659" width="0.933306" height="0.933306" fill="#665545"/>
<rect x="23.332" y="18.6659" width="0.933306" height="0.933306" fill="#665545"/>
<rect x="25.1992" y="17.7331" width="0.933305" height="0.933306" fill="#665545"/>
<rect x="27.0645" y="18.6659" width="0.933306" height="0.933306" fill="#665545"/>
<rect x="26.1328" y="18.6659" width="0.933306" height="0.933306" fill="#665545"/>
<rect x="28.9316" y="18.6659" width="0.933306" height="0.933306" fill="#665545"/>
<rect x="28" y="18.6659" width="0.933306" height="0.933306" fill="#665545"/>
<rect x="30.7988" y="18.6659" width="0.933303" height="0.933306" fill="#665545"/>
<rect x="29.8652" y="18.6659" width="0.933306" height="0.933306" fill="#665545"/>
<rect x="32.666" y="18.6659" width="0.933306" height="0.933306" fill="#665545"/>
<rect x="31.7334" y="18.6659" width="0.933306" height="0.933306" fill="#665545"/>
<rect x="33.5986" y="18.6659" width="0.933306" height="0.933306" fill="#665545"/>
<rect x="34.5322" y="18.6659" width="0.93331" height="0.933306" fill="#665545"/>
<rect x="35.4658" y="18.6659" width="0.933303" height="0.933306" fill="#665545"/>
<rect x="13.0654" y="17.7331" width="0.933306" height="0.933306" fill="#665545"/>
<rect x="14" y="17.7331" width="0.933306" height="0.933306" fill="#665545"/>
<rect x="15.8662" y="17.7331" width="0.933306" height="0.933306" fill="#665545"/>
<rect x="14.9326" y="17.7331" width="0.933305" height="0.933306" fill="#665545"/>
<rect x="16.7998" y="17.7331" width="0.933306" height="0.933306" fill="#665545"/>
<rect x="19.6006" y="17.7331" width="0.933306" height="0.933306" fill="#665545"/>
<rect x="18.666" y="17.7331" width="0.933306" height="0.933306" fill="#665545"/>
<rect x="20.5332" y="17.7331" width="0.933306" height="0.933306" fill="#665545"/>
<rect x="23.332" y="17.7331" width="0.933306" height="0.933306" fill="#665545"/>
<rect x="24.2676" y="17.7331" width="0.933306" height="0.933306" fill="#665545"/>
<rect x="27.0645" y="17.7331" width="0.933306" height="0.933306" fill="#665545"/>
<rect x="28.9316" y="17.7331" width="0.933306" height="0.933306" fill="#665545"/>
<rect x="28" y="17.7331" width="0.933306" height="0.933306" fill="#665545"/>
<rect x="30.7988" y="17.7331" width="0.933303" height="0.933306" fill="#665545"/>
<rect x="29.8652" y="17.7331" width="0.933306" height="0.933306" fill="#665545"/>
<rect x="32.666" y="17.7331" width="0.933306" height="0.933306" fill="#665545"/>
<rect x="31.7334" y="17.7331" width="0.933306" height="0.933306" fill="#665545"/>
<rect x="33.5986" y="17.7331" width="0.933306" height="0.933306" fill="#665545"/>
<rect x="34.5322" y="17.7331" width="0.93331" height="0.933306" fill="#665545"/>
<rect x="12.1348" y="16.7994" width="0.933306" height="0.933306" fill="#665545"/>
<rect x="13.0654" y="16.7994" width="0.933306" height="0.933306" fill="#665545"/>
<rect x="14" y="16.7994" width="0.933306" height="0.933306" fill="#665545"/>
<rect x="15.8662" y="16.7994" width="0.933306" height="0.933306" fill="#665545"/>
<rect x="14.9326" y="16.7994" width="0.933305" height="0.933306" fill="#665545"/>
<rect x="17.7334" y="16.7994" width="0.933306" height="0.933306" fill="#665545"/>
<rect x="19.6006" y="16.7994" width="0.933306" height="0.933306" fill="#665545"/>
<rect x="18.666" y="16.7994" width="0.933306" height="0.933306" fill="#665545"/>
<rect x="23.332" y="16.7994" width="0.933306" height="0.933306" fill="#665545"/>
<rect x="25.1992" y="16.7994" width="0.933305" height="0.933306" fill="#665545"/>
<rect x="24.2676" y="16.7994" width="0.933306" height="0.933306" fill="#665545"/>
<rect x="27.0645" y="16.7994" width="0.933306" height="0.933306" fill="#665545"/>
<rect x="28.9316" y="16.7994" width="0.933306" height="0.933306" fill="#665545"/>
<rect x="28" y="16.7994" width="0.933306" height="0.933306" fill="#665545"/>
<rect x="30.7988" y="16.7994" width="0.933303" height="0.933306" fill="#665545"/>
<rect x="29.8652" y="16.7994" width="0.933306" height="0.933306" fill="#665545"/>
<rect x="32.666" y="16.7994" width="0.933306" height="0.933306" fill="#665545"/>
<rect x="31.7334" y="16.7994" width="0.933306" height="0.933306" fill="#665545"/>
<rect x="33.5986" y="16.7994" width="0.933306" height="0.933306" fill="#665545"/>
<rect x="11.2002" y="15.8677" width="0.933306" height="0.933306" fill="#665545"/>
<rect x="12.1348" y="15.8677" width="0.933306" height="0.933306" fill="#665545"/>
<rect x="13.0654" y="15.8677" width="0.933306" height="0.933306" fill="#665545"/>
<rect x="14" y="15.8677" width="0.933306" height="0.933306" fill="#665545"/>
<rect x="14.9326" y="15.8677" width="0.933305" height="0.933306" fill="#665545"/>
<rect x="17.7334" y="15.8677" width="0.933306" height="0.933306" fill="#665545"/>
<rect x="16.7998" y="15.8677" width="0.933306" height="0.933306" fill="#665545"/>
<rect x="19.6006" y="15.8677" width="0.933306" height="0.933306" fill="#665545"/>
<rect x="18.666" y="15.8677" width="0.933306" height="0.933306" fill="#665545"/>
<rect x="21.4658" y="15.8677" width="0.933306" height="0.933306" fill="#665545"/>
<rect x="23.332" y="15.8677" width="0.933306" height="0.933306" fill="#665545"/>
<rect x="25.1992" y="15.8677" width="0.933305" height="0.933306" fill="#665545"/>
<rect x="24.2676" y="15.8677" width="0.933306" height="0.933306" fill="#665545"/>
<rect x="27.0645" y="15.8677" width="0.933306" height="0.933306" fill="#665545"/>
<rect x="28.9316" y="15.8677" width="0.933306" height="0.933306" fill="#665545"/>
<rect x="28" y="15.8677" width="0.933306" height="0.933306" fill="#665545"/>
<rect x="30.7988" y="15.8677" width="0.933303" height="0.933306" fill="#665545"/>
<rect x="29.8652" y="15.8677" width="0.933306" height="0.933306" fill="#665545"/>
<rect x="32.666" y="15.8677" width="0.933306" height="0.933306" fill="#665545"/>
<rect x="31.7334" y="15.8677" width="0.933306" height="0.933306" fill="#665545"/>
<rect x="10.2646" y="14.9329" width="0.933306" height="0.933306" fill="#665545"/>
<rect x="11.2002" y="14.9329" width="0.933306" height="0.933306" fill="#665545"/>
<rect x="12.1348" y="14.9329" width="0.933306" height="0.933306" fill="#665545"/>
<rect x="13.0654" y="14.9329" width="0.933306" height="0.933306" fill="#665545"/>
<rect x="14" y="14.9329" width="0.933306" height="0.933306" fill="#665545"/>
<rect x="27.0645" y="14.9329" width="0.933306" height="0.933306" fill="#665545"/>
<rect x="28.9316" y="14.9329" width="0.933306" height="0.933306" fill="#665545"/>
<rect x="28" y="14.9329" width="0.933306" height="0.933306" fill="#665545"/>
<rect x="30.7988" y="14.9329" width="0.933303" height="0.933306" fill="#665545"/>
<rect x="29.8652" y="14.9329" width="0.933306" height="0.933306" fill="#665545"/>
<rect x="32.666" y="14.9329" width="0.933306" height="0.933306" fill="#665545"/>
<rect x="31.7334" y="14.9329" width="0.933306" height="0.933306" fill="#665545"/>
<rect x="9.33398" y="14.0001" width="0.933306" height="0.933306" fill="#665545"/>
<rect x="10.2646" y="14.0001" width="0.933306" height="0.933306" fill="#665545"/>
<rect x="11.2002" y="14.0001" width="0.933306" height="0.933306" fill="#665545"/>
<rect x="12.1348" y="14.0001" width="0.933306" height="0.933306" fill="#665545"/>
<rect x="13.0654" y="14.0001" width="0.933306" height="0.933306" fill="#665545"/>
<rect x="14" y="14.0001" width="0.933306" height="0.933306" fill="#665545"/>
<rect x="15.8662" y="14.0001" width="0.933306" height="0.933306" fill="#665545"/>
<rect x="17.7334" y="14.0001" width="0.933306" height="0.933306" fill="#665545"/>
<rect x="19.6006" y="14.0001" width="0.933306" height="0.933306" fill="#665545"/>
<rect x="20.5332" y="14.0001" width="0.933306" height="0.933306" fill="#665545"/>
<rect x="22.3975" y="14.0001" width="0.933306" height="0.933306" fill="#665545"/>
<rect x="25.1992" y="14.0001" width="0.933305" height="0.933306" fill="#665545"/>
<rect x="27.0645" y="14.0001" width="0.933306" height="0.933306" fill="#665545"/>
<rect x="28.9316" y="14.0001" width="0.933306" height="0.933306" fill="#665545"/>
<rect x="28" y="14.0001" width="0.933306" height="0.933306" fill="#665545"/>
<rect x="30.7988" y="14.0001" width="0.933303" height="0.933306" fill="#665545"/>
<rect x="29.8652" y="14.0001" width="0.933306" height="0.933306" fill="#665545"/>
<rect x="8.39941" y="13.0676" width="0.933306" height="0.933306" fill="#665545"/>
<rect x="9.33398" y="13.0676" width="0.933306" height="0.933306" fill="#665545"/>
<rect x="10.2646" y="13.0676" width="0.933306" height="0.933306" fill="#665545"/>
<rect x="11.2002" y="13.0676" width="0.933306" height="0.933306" fill="#665545"/>
<rect x="12.1348" y="13.0676" width="0.933306" height="0.933306" fill="#665545"/>
<rect x="13.0654" y="13.0676" width="0.933306" height="0.933306" fill="#665545"/>
<rect x="15.8662" y="13.0676" width="0.933306" height="0.933306" fill="#665545"/>
<rect x="14.9326" y="13.0676" width="0.933305" height="0.933306" fill="#665545"/>
<rect x="16.7998" y="13.0676" width="0.933306" height="0.933306" fill="#665545"/>
<rect x="19.6006" y="13.0676" width="0.933306" height="0.933306" fill="#665545"/>
<rect x="18.666" y="13.0676" width="0.933306" height="0.933306" fill="#665545"/>
<rect x="20.5332" y="13.0676" width="0.933306" height="0.933306" fill="#665545"/>
<rect x="23.332" y="13.0676" width="0.933306" height="0.933306" fill="#665545"/>
<rect x="24.2676" y="13.0676" width="0.933306" height="0.933306" fill="#665545"/>
<rect x="27.0645" y="13.0676" width="0.933306" height="0.933306" fill="#665545"/>
<rect x="26.1328" y="13.0676" width="0.933306" height="0.933306" fill="#665545"/>
<rect x="28.9316" y="13.0676" width="0.933306" height="0.933306" fill="#665545"/>
<rect x="28" y="13.0676" width="0.933306" height="0.933306" fill="#665545"/>
<rect x="7.4668" y="12.1314" width="0.933306" height="0.933305" fill="#665545"/>
<rect x="8.39941" y="12.1314" width="0.933306" height="0.933305" fill="#665545"/>
<rect x="9.33398" y="12.1314" width="0.933306" height="0.933305" fill="#665545"/>
<rect x="10.2646" y="12.1314" width="0.933306" height="0.933305" fill="#665545"/>
<rect x="11.2002" y="12.1314" width="0.933306" height="0.933305" fill="#665545"/>
<rect x="12.1348" y="12.1314" width="0.933306" height="0.933305" fill="#665545"/>
<rect x="13.0654" y="12.1314" width="0.933306" height="0.933305" fill="#665545"/>
<rect x="15.8662" y="12.1314" width="0.933306" height="0.933305" fill="#665545"/>
<rect x="14.9326" y="12.1314" width="0.933305" height="0.933305" fill="#665545"/>
<rect x="16.7998" y="12.1314" width="0.933306" height="0.933305" fill="#665545"/>
<rect x="17.7334" y="11.2" width="0.933306" height="0.933304" fill="#665545"/>
<rect x="23.332" y="12.1314" width="0.933306" height="0.933305" fill="#665545"/>
<rect x="22.3975" y="12.1314" width="0.933306" height="0.933305" fill="#665545"/>
<rect x="24.2676" y="12.1314" width="0.933306" height="0.933305" fill="#665545"/>
<rect x="27.0645" y="12.1314" width="0.933306" height="0.933305" fill="#665545"/>
<rect x="26.1328" y="12.1314" width="0.933306" height="0.933305" fill="#665545"/>
<rect x="6.5332" y="11.2011" width="0.933306" height="0.933306" fill="#665545"/>
<rect x="7.4668" y="11.2011" width="0.933306" height="0.933306" fill="#665545"/>
<rect x="8.39941" y="11.2011" width="0.933306" height="0.933306" fill="#665545"/>
<rect x="9.33398" y="11.2011" width="0.933306" height="0.933306" fill="#665545"/>
<rect x="10.2646" y="11.2011" width="0.933306" height="0.933306" fill="#665545"/>
<rect x="11.2002" y="11.2011" width="0.933306" height="0.933306" fill="#665545"/>
<rect x="12.1348" y="11.2011" width="0.933306" height="0.933306" fill="#665545"/>
<rect x="13.0654" y="11.2011" width="0.933306" height="0.933306" fill="#665545"/>
<rect x="15.8662" y="11.2011" width="0.933306" height="0.933306" fill="#665545"/>
<rect x="14.9326" y="11.2011" width="0.933305" height="0.933306" fill="#665545"/>
<rect x="19.6006" y="11.2011" width="0.933306" height="0.933306" fill="#665545"/>
<rect x="23.332" y="11.2011" width="0.933306" height="0.933306" fill="#665545"/>
<rect x="22.3975" y="11.2011" width="0.933306" height="0.933306" fill="#665545"/>
<rect x="25.1992" y="11.2011" width="0.933305" height="0.933306" fill="#665545"/>
<rect x="27.0645" y="11.2011" width="0.933306" height="0.933306" fill="#665545"/>
<rect x="26.1328" y="11.2011" width="0.933306" height="0.933306" fill="#665545"/>
<rect x="5.59766" y="10.265" width="0.933306" height="0.933307" fill="#665545"/>
<rect x="6.5332" y="10.265" width="0.933306" height="0.933307" fill="#665545"/>
<rect x="7.4668" y="10.265" width="0.933306" height="0.933307" fill="#665545"/>
<rect x="8.39941" y="10.265" width="0.933306" height="0.933307" fill="#665545"/>
<rect x="9.33398" y="10.265" width="0.933306" height="0.933307" fill="#665545"/>
<rect x="10.2646" y="10.265" width="0.933306" height="0.933307" fill="#665545"/>
<rect x="11.2002" y="10.265" width="0.933306" height="0.933307" fill="#665545"/>
<rect x="12.1348" y="10.265" width="0.933306" height="0.933307" fill="#665545"/>
<rect x="13.0654" y="10.265" width="0.933306" height="0.933307" fill="#665545"/>
<rect x="14" y="10.265" width="0.933306" height="0.933307" fill="#665545"/>
<rect x="17.7334" y="10.265" width="0.933306" height="0.933307" fill="#665545"/>
<rect x="19.6006" y="10.265" width="0.933306" height="0.933307" fill="#665545"/>
<rect x="18.666" y="10.265" width="0.933306" height="0.933307" fill="#665545"/>
<rect x="20.5332" y="10.265" width="0.933306" height="0.933307" fill="#665545"/>
<rect x="25.1992" y="10.265" width="0.933305" height="0.933307" fill="#665545"/>
<rect x="24.2676" y="10.265" width="0.933306" height="0.933307" fill="#665545"/>
<rect x="27.0645" y="10.265" width="0.933306" height="0.933307" fill="#665545"/>
<rect x="26.1328" y="10.265" width="0.933306" height="0.933307" fill="#665545"/>
<rect x="6.5332" y="9.33349" width="0.933306" height="0.933306" fill="#665545"/>
<rect x="7.4668" y="9.33349" width="0.933306" height="0.933306" fill="#665545"/>
<rect x="8.39941" y="9.33349" width="0.933306" height="0.933306" fill="#665545"/>
<rect x="9.33398" y="9.33349" width="0.933306" height="0.933306" fill="#665545"/>
<rect x="10.2646" y="9.33349" width="0.933306" height="0.933306" fill="#665545"/>
<rect x="11.2002" y="9.33349" width="0.933306" height="0.933306" fill="#665545"/>
<rect x="12.1348" y="9.33349" width="0.933306" height="0.933306" fill="#665545"/>
<rect x="13.0654" y="9.33349" width="0.933306" height="0.933306" fill="#665545"/>
<rect x="14" y="9.33349" width="0.933306" height="0.933306" fill="#665545"/>
<rect x="17.7334" y="9.33349" width="0.933306" height="0.933306" fill="#665545"/>
<rect x="16.7998" y="9.33349" width="0.933306" height="0.933306" fill="#665545"/>
<rect x="18.666" y="9.33349" width="0.933306" height="0.933306" fill="#665545"/>
<rect x="23.332" y="9.33349" width="0.933306" height="0.933306" fill="#665545"/>
<rect x="22.3975" y="9.33349" width="0.933306" height="0.933306" fill="#665545"/>
<rect x="7.4668" y="8.39959" width="0.933306" height="0.933306" fill="#665545"/>
<rect x="8.39941" y="8.39959" width="0.933306" height="0.933306" fill="#665545"/>
<rect x="9.33398" y="8.39959" width="0.933306" height="0.933306" fill="#665545"/>
<rect x="10.2646" y="8.39959" width="0.933306" height="0.933306" fill="#665545"/>
<rect x="11.2002" y="8.39959" width="0.933306" height="0.933306" fill="#665545"/>
<rect x="12.1348" y="8.39959" width="0.933306" height="0.933306" fill="#665545"/>
<rect x="13.0654" y="8.39959" width="0.933306" height="0.933306" fill="#665545"/>
<rect x="14" y="8.39959" width="0.933306" height="0.933306" fill="#665545"/>
<rect x="15.8662" y="8.39959" width="0.933306" height="0.933306" fill="#665545"/>
<rect x="14.9326" y="8.39959" width="0.933305" height="0.933306" fill="#665545"/>
<rect x="19.6006" y="8.39959" width="0.933306" height="0.933306" fill="#665545"/>
<rect x="21.4658" y="8.39959" width="0.933306" height="0.933306" fill="#665545"/>
<rect x="20.5332" y="8.39959" width="0.933306" height="0.933306" fill="#665545"/>
<rect x="23.332" y="8.39959" width="0.933306" height="0.933306" fill="#665545"/>
<rect x="22.3975" y="8.39959" width="0.933306" height="0.933306" fill="#665545"/>
<rect x="9.33398" y="7.46922" width="0.933306" height="0.933306" fill="#665545"/>
<rect x="10.2646" y="7.46922" width="0.933306" height="0.933306" fill="#665545"/>
<rect x="11.2002" y="7.46922" width="0.933306" height="0.933306" fill="#665545"/>
<rect x="12.1348" y="7.46922" width="0.933306" height="0.933306" fill="#665545"/>
<rect x="13.0654" y="7.46922" width="0.933306" height="0.933306" fill="#665545"/>
<rect x="14" y="7.46922" width="0.933306" height="0.933306" fill="#665545"/>
<rect x="15.8662" y="7.46922" width="0.933306" height="0.933306" fill="#665545"/>
<rect x="14.9326" y="7.46922" width="0.933305" height="0.933306" fill="#665545"/>
<rect x="17.7334" y="7.46922" width="0.933306" height="0.933306" fill="#665545"/>
<rect x="16.7998" y="7.46922" width="0.933306" height="0.933306" fill="#665545"/>
<rect x="19.6006" y="7.46922" width="0.933306" height="0.933306" fill="#665545"/>
<rect x="18.666" y="7.46922" width="0.933306" height="0.933306" fill="#665545"/>
<rect x="21.4658" y="7.46922" width="0.933306" height="0.933306" fill="#665545"/>
<rect x="20.5332" y="7.46922" width="0.933306" height="0.933306" fill="#665545"/>
<rect x="11.2002" y="6.53311" width="0.933306" height="0.933306" fill="#665545"/>
<rect x="12.1348" y="6.53311" width="0.933306" height="0.933306" fill="#665545"/>
<rect x="13.0654" y="6.53311" width="0.933306" height="0.933306" fill="#665545"/>
<rect x="14" y="6.53311" width="0.933306" height="0.933306" fill="#665545"/>
<rect x="15.8662" y="6.53311" width="0.933306" height="0.933306" fill="#665545"/>
<rect x="14.9326" y="6.53311" width="0.933305" height="0.933306" fill="#665545"/>
<rect x="17.7334" y="6.53311" width="0.933306" height="0.933306" fill="#665545"/>
<rect x="16.7998" y="6.53311" width="0.933306" height="0.933306" fill="#665545"/>
<rect x="19.6006" y="6.53311" width="0.933306" height="0.933306" fill="#665545"/>
<rect x="18.666" y="6.53311" width="0.933306" height="0.933306" fill="#665545"/>
<rect x="21.4658" y="6.53311" width="0.933306" height="0.933306" fill="#665545"/>
<rect x="20.5332" y="6.53311" width="0.933306" height="0.933306" fill="#665545"/>
<rect x="13.0654" y="5.59833" width="0.933306" height="0.933306" fill="#665545"/>
<rect x="14" y="5.59833" width="0.933306" height="0.933306" fill="#665545"/>
<rect x="15.8662" y="5.59833" width="0.933306" height="0.933306" fill="#665545"/>
<rect x="14.9326" y="5.59833" width="0.933305" height="0.933306" fill="#665545"/>
<rect x="17.7334" y="5.59833" width="0.933306" height="0.933306" fill="#665545"/>
<rect x="16.7998" y="5.59833" width="0.933306" height="0.933306" fill="#665545"/>
<rect x="19.6006" y="5.59833" width="0.933306" height="0.933306" fill="#665545"/>
<rect x="18.666" y="5.59833" width="0.933306" height="0.933306" fill="#665545"/>
<rect x="15.8662" y="4.66663" width="0.933306" height="0.933306" fill="#665545"/>
<rect x="14.9326" y="4.66663" width="0.933305" height="0.933306" fill="#665545"/>
<rect x="17.7334" y="4.66663" width="0.933306" height="0.933306" fill="#665545"/>
<rect x="16.7998" y="4.66663" width="0.933306" height="0.933306" fill="#665545"/>
<rect x="19.6006" y="4.66663" width="0.933306" height="0.933306" fill="#665545"/>
<rect x="18.666" y="4.66663" width="0.933306" height="0.933306" fill="#665545"/>
<rect x="14" y="3.73185" width="0.933306" height="0.933306" fill="#665545"/>
<rect x="15.8662" y="3.73185" width="0.933306" height="0.933306" fill="#665545"/>
<rect x="17.7334" y="3.73185" width="0.933306" height="0.933306" fill="#665545"/>
<rect x="16.7998" y="3.73185" width="0.933306" height="0.933306" fill="#665545"/>
<rect x="17.7334" y="2.79928" width="0.933306" height="0.933306" fill="#665545"/>
<rect x="18.666" y="3.73185" width="0.933306" height="0.933306" fill="#665545"/>
<rect x="20.5332" y="5.59833" width="0.933306" height="0.933306" fill="#665545"/>
<rect x="22.3975" y="7.46922" width="0.933306" height="0.933306" fill="#665545"/>
<rect x="25.1992" y="9.33349" width="0.933305" height="0.933306" fill="#665545"/>
<rect x="24.2676" y="9.33349" width="0.933306" height="0.933306" fill="#665545"/>
<rect x="26.1328" y="9.33349" width="0.933306" height="0.933306" fill="#665545"/>
<rect x="28.9316" y="12.1314" width="0.933306" height="0.933305" fill="#665545"/>
<rect x="28" y="12.1314" width="0.933306" height="0.933305" fill="#665545"/>
<rect x="29.8652" y="13.0676" width="0.933306" height="0.933306" fill="#665545"/>
<rect x="31.7334" y="14.0001" width="0.933306" height="0.933306" fill="#665545"/>
<rect x="33.5986" y="15.8677" width="0.933306" height="0.933306" fill="#665545"/>
<rect x="34.5322" y="16.7994" width="0.93331" height="0.933306" fill="#665545"/>
<rect x="35.4658" y="17.7331" width="0.933303" height="0.933306" fill="#665545"/>
<rect x="36.3994" y="18.6659" width="0.933303" height="0.933306" fill="#665545"/>
<rect x="35.4658" y="20.5302" width="0.933303" height="0.933306" fill="#665545"/>
<rect x="36.3994" y="19.6007" width="0.933303" height="0.933305" fill="#665545"/>
<rect x="37.332" y="18.6659" width="0.933306" height="0.933306" fill="#665545"/>
<rect x="38.2646" y="18.6659" width="0.933306" height="0.933306" fill="#665545"/>
<rect x="36.3994" y="17.7331" width="0.933303" height="0.933306" fill="#665545"/>
<rect x="36.3994" y="16.7994" width="0.933303" height="0.933306" fill="#665545"/>
<rect x="37.332" y="17.7331" width="0.933306" height="0.933306" fill="#665545"/>
<rect x="38.2646" y="17.7331" width="0.933306" height="0.933306" fill="#665545"/>
<rect x="28" y="28.9308" width="0.933306" height="0.933306" fill="#665545"/>
<rect x="28" y="29.867" width="0.933306" height="0.93331" fill="#665545"/>
<rect x="28.9316" y="29.867" width="0.933306" height="0.93331" fill="#665545"/>
<rect x="29.8652" y="28.9308" width="0.933306" height="0.933306" fill="#665545"/>
<rect x="28.9316" y="28.9308" width="0.933306" height="0.933306" fill="#665545"/>
<rect x="28.9316" y="27.9994" width="0.933306" height="0.933303" fill="#665545"/>
<rect x="29.8652" y="27.9994" width="0.933306" height="0.933303" fill="#665545"/>
<rect x="29.8652" y="27.0644" width="0.933306" height="0.933306" fill="#665545"/>
<rect x="31.7334" y="25.199" width="0.933306" height="0.933305" fill="#665545"/>
<rect x="30.7988" y="26.1329" width="0.933303" height="0.933308" fill="#665545"/>
<rect x="30.7988" y="27.0644" width="0.933303" height="0.933306" fill="#665545"/>
<rect x="30.7988" y="27.9994" width="0.933303" height="0.933303" fill="#665545"/>
<rect x="31.7334" y="27.0644" width="0.933306" height="0.933306" fill="#665545"/>
<rect x="32.666" y="26.1329" width="0.933306" height="0.933308" fill="#665545"/>
<rect x="33.5986" y="25.199" width="0.933306" height="0.933305" fill="#665545"/>
<rect x="34.5322" y="24.2675" width="0.93331" height="0.933305" fill="#665545"/>
<rect x="35.4658" y="22.401" width="0.933303" height="0.933306" fill="#665545"/>
<rect x="36.3994" y="21.466" width="0.933303" height="0.933305" fill="#665545"/>
<rect x="37.332" y="20.5302" width="0.933306" height="0.933306" fill="#665545"/>
<rect x="38.2646" y="19.6007" width="0.933306" height="0.933305" fill="#665545"/>
<rect x="31.7334" y="26.1329" width="0.933306" height="0.933308" fill="#665545"/>
<rect x="32.666" y="25.199" width="0.933306" height="0.933305" fill="#665545"/>
<rect x="33.5986" y="24.2675" width="0.933306" height="0.933305" fill="#665545"/>
<rect x="34.5322" y="23.3325" width="0.93331" height="0.933306" fill="#665545"/>
<rect x="35.4658" y="23.3325" width="0.933303" height="0.933306" fill="#665545"/>
<rect x="35.4658" y="25.199" width="0.933303" height="0.933305" fill="#665545"/>
<rect x="36.3994" y="24.2675" width="0.933303" height="0.933305" fill="#665545"/>
<rect x="36.3994" y="22.401" width="0.933303" height="0.933306" fill="#665545"/>
<rect x="37.332" y="21.466" width="0.933306" height="0.933305" fill="#665545"/>
<rect x="38.2646" y="20.5302" width="0.933306" height="0.933306" fill="#665545"/>
<rect x="38.2646" y="21.466" width="0.933306" height="0.933305" fill="#665545"/>
<rect x="39.1963" y="19.6007" width="0.933303" height="0.933305" fill="#665545"/>
<rect x="39.1963" y="18.6659" width="0.933303" height="0.933306" fill="#665545"/>
<rect x="40.1318" y="18.6659" width="0.933303" height="0.933306" fill="#665545"/>
<rect x="41.0664" y="17.7331" width="0.933306" height="0.933306" fill="#665545"/>
<rect x="39.1963" y="20.5302" width="0.933303" height="0.933306" fill="#665545"/>
<rect x="40.1318" y="19.6007" width="0.933303" height="0.933305" fill="#665545"/>
<rect x="41.0664" y="18.6659" width="0.933306" height="0.933306" fill="#665545"/>
<rect x="39.1963" y="17.7331" width="0.933303" height="0.933306" fill="#665545"/>
<rect x="40.1318" y="16.7994" width="0.933303" height="0.933306" fill="#665545"/>
<rect x="40.1318" y="17.7331" width="0.933303" height="0.933306" fill="#665545"/>
<rect x="37.332" y="24.2675" width="0.933306" height="0.933305" fill="#665545"/>
<rect x="37.332" y="23.3325" width="0.933306" height="0.933306" fill="#665545"/>
<rect x="38.2646" y="23.3325" width="0.933306" height="0.933306" fill="#665545"/>
<rect x="38.2646" y="22.401" width="0.933306" height="0.933306" fill="#665545"/>
<rect x="35.4658" y="26.1329" width="0.933303" height="0.933308" fill="#665545"/>
<rect x="34.5322" y="26.1329" width="0.93331" height="0.933308" fill="#665545"/>
<rect x="34.5322" y="27.0644" width="0.93331" height="0.933306" fill="#665545"/>
<rect x="20.5332" y="32.666" width="0.933306" height="0.933303" fill="#665545"/>
<rect x="18.666" y="30.7995" width="0.933306" height="0.933306" fill="#665545"/>
<rect x="17.7334" y="29.867" width="0.933306" height="0.93331" fill="#665545"/>
<rect x="15.8662" y="27.9994" width="0.933306" height="0.933303" fill="#665545"/>
<rect x="14.9326" y="27.0644" width="0.933305" height="0.933306" fill="#665545"/>
<rect x="14" y="26.1329" width="0.933306" height="0.933308" fill="#665545"/>
<rect x="13.0654" y="25.199" width="0.933306" height="0.933305" fill="#665545"/>
<rect x="12.1348" y="24.2675" width="0.933306" height="0.933305" fill="#665545"/>
<rect x="12.1348" y="23.3325" width="0.933306" height="0.933306" fill="#665545"/>
<rect x="11.2002" y="22.401" width="0.933306" height="0.933306" fill="#665545"/>
<rect x="10.2646" y="21.466" width="0.933306" height="0.933305" fill="#665545"/>
<rect x="9.33398" y="20.5302" width="0.933306" height="0.933306" fill="#665545"/>
<rect x="8.39941" y="19.6007" width="0.933306" height="0.933305" fill="#665545"/>
<rect x="7.4668" y="18.6659" width="0.933306" height="0.933306" fill="#665545"/>
<rect x="6.5332" y="17.7331" width="0.933306" height="0.933306" fill="#665545"/>
<rect x="5.59766" y="16.7994" width="0.933306" height="0.933306" fill="#665545"/>
<rect x="4.66602" y="15.8677" width="0.933306" height="0.933306" fill="#665545"/>
<rect x="3.73242" y="14.9329" width="0.933306" height="0.933306" fill="#665545"/>
<rect x="2.80176" y="13.0676" width="0.933306" height="0.933306" fill="#665545"/>
<rect x="2.80176" y="14.0001" width="0.933306" height="0.933306" fill="#665545"/>
</svg>
