<svg width="42" height="45" viewBox="0 0 42 45" fill="none" xmlns="http://www.w3.org/2000/svg">
<rect x="2.86426" y="43.9091" width="0.954545" height="0.954545" fill="#665545"/>
<rect x="2.86426" y="42.9545" width="0.954545" height="0.954545" fill="#665545"/>
<rect x="3.81836" y="42.9545" width="0.954545" height="0.954545" fill="#665545"/>
<rect x="0.954102" y="42.9545" width="0.954545" height="0.954545" fill="#665545"/>
<rect x="1.9082" y="42.9545" width="0.954545" height="0.954545" fill="#665545"/>
<rect x="2.86426" y="42" width="0.954545" height="0.954545" fill="#665545"/>
<rect x="3.81836" y="42" width="0.954545" height="0.954545" fill="#665545"/>
<rect x="0.954102" y="42" width="0.954545" height="0.954545" fill="#665545"/>
<rect x="1.9082" y="42" width="0.954545" height="0.954545" fill="#665545"/>
<rect y="42" width="0.954545" height="0.954545" fill="#665545"/>
<rect y="41.0455" width="0.954545" height="0.954545" fill="#665545"/>
<rect x="0.954102" y="41.0455" width="0.954545" height="0.954545" fill="#665545"/>
<rect x="3.81836" y="41.0455" width="0.954545" height="0.954545" fill="#665545"/>
<rect x="4.77246" y="41.0455" width="0.954545" height="0.954545" fill="#665545"/>
<rect x="1.9082" y="41.0455" width="0.954545" height="0.954545" fill="#665545"/>
<rect x="2.86426" y="41.0455" width="0.954545" height="0.954545" fill="#665545"/>
<rect y="40.0909" width="0.954545" height="0.954545" fill="#665545"/>
<rect x="0.954102" y="40.0909" width="0.954545" height="0.954545" fill="#665545"/>
<rect x="3.81836" y="40.0909" width="0.954545" height="0.954545" fill="#665545"/>
<rect x="4.77246" y="40.0909" width="0.954545" height="0.954545" fill="#665545"/>
<rect x="1.9082" y="40.0909" width="0.954545" height="0.954545" fill="#665545"/>
<rect x="2.86426" y="40.0909" width="0.954545" height="0.954545" fill="#665545"/>
<rect x="0.954102" y="39.1364" width="0.954545" height="0.954545" fill="#665545"/>
<rect x="3.81836" y="39.1364" width="0.954545" height="0.954545" fill="#665545"/>
<rect x="4.77246" y="39.1364" width="0.954545" height="0.954545" fill="#665545"/>
<rect x="1.9082" y="39.1364" width="0.954545" height="0.954545" fill="#665545"/>
<rect x="2.86426" y="39.1364" width="0.954545" height="0.954545" fill="#665545"/>
<rect x="1.9082" y="38.1818" width="0.954545" height="0.954545" fill="#665545"/>
<rect x="4.77246" y="38.1818" width="0.954545" height="0.954545" fill="#665545"/>
<rect x="6.68164" y="38.1818" width="0.954545" height="0.954545" fill="#665545"/>
<rect x="5.72656" y="37.2273" width="0.954545" height="0.954545" fill="#665545"/>
<rect x="2.86426" y="38.1818" width="0.954545" height="0.954545" fill="#665545"/>
<rect x="1.9082" y="37.2273" width="0.954545" height="0.954545" fill="#665545"/>
<rect x="4.77246" y="37.2273" width="0.954545" height="0.954545" fill="#665545"/>
<rect x="5.72656" y="35.3182" width="0.954545" height="0.954545" fill="#665545"/>
<rect x="4.77246" y="35.3182" width="0.954545" height="0.954545" fill="#665545"/>
<rect x="5.72656" y="36.2727" width="0.954545" height="0.954545" fill="#665545"/>
<rect x="4.77246" y="36.2727" width="0.954545" height="0.954545" fill="#665545"/>
<rect x="7.63672" y="37.2273" width="0.954545" height="0.954545" fill="#665545"/>
<rect x="8.59082" y="36.2727" width="0.954545" height="0.954545" fill="#665545"/>
<rect x="9.54492" y="36.2727" width="0.954545" height="0.954545" fill="#665545"/>
<rect x="7.63672" y="36.2727" width="0.954545" height="0.954545" fill="#665545"/>
<rect x="8.59082" y="34.3636" width="0.954545" height="0.954545" fill="#665545"/>
<rect x="7.63672" y="34.3636" width="0.954545" height="0.954545" fill="#665545"/>
<rect x="8.59082" y="33.4091" width="0.954545" height="0.954545" fill="#665545"/>
<rect x="7.63672" y="33.4091" width="0.954545" height="0.954545" fill="#665545"/>
<rect x="7.63672" y="32.4545" width="0.954545" height="0.954545" fill="#665545"/>
<rect x="6.68164" y="34.3636" width="0.954545" height="0.954545" fill="#665545"/>
<rect x="6.68164" y="33.4091" width="0.954545" height="0.954545" fill="#665545"/>
<rect x="8.59082" y="35.3182" width="0.954545" height="0.954545" fill="#665545"/>
<rect x="7.63672" y="35.3182" width="0.954545" height="0.954545" fill="#665545"/>
<rect x="16.2275" y="29.5909" width="0.954545" height="0.954545" fill="#665545"/>
<rect x="17.1816" y="28.6364" width="0.954545" height="0.954545" fill="#665545"/>
<rect x="18.1367" y="27.6818" width="0.954545" height="0.954545" fill="#665545"/>
<rect x="16.2275" y="28.6364" width="0.954545" height="0.954545" fill="#665545"/>
<rect x="17.1816" y="26.7273" width="0.954545" height="0.954545" fill="#665545"/>
<rect x="16.2275" y="26.7273" width="0.954545" height="0.954545" fill="#665545"/>
<rect x="19.0908" y="26.7273" width="0.954545" height="0.954545" fill="#665545"/>
<rect x="16.2275" y="25.7727" width="0.954545" height="0.954545" fill="#665545"/>
<rect x="16.2275" y="24.8182" width="0.954545" height="0.954545" fill="#665545"/>
<rect x="15.2725" y="26.7273" width="0.954545" height="0.954545" fill="#665545"/>
<rect x="15.2725" y="25.7727" width="0.954545" height="0.954545" fill="#665545"/>
<rect x="19.0908" y="24.8182" width="0.954545" height="0.954545" fill="#665545"/>
<rect x="19.0908" y="23.8636" width="0.954545" height="0.954545" fill="#665545"/>
<rect x="19.0908" y="22.9091" width="0.954545" height="0.954545" fill="#665545"/>
<rect x="18.1367" y="24.8182" width="0.954545" height="0.954545" fill="#665545"/>
<rect x="18.1367" y="23.8636" width="0.954545" height="0.954545" fill="#665545"/>
<rect x="20.0449" y="25.7727" width="0.954545" height="0.954545" fill="#665545"/>
<rect x="19.0908" y="25.7727" width="0.954545" height="0.954545" fill="#665545"/>
<rect x="21" y="24.8182" width="0.954545" height="0.954545" fill="#665545"/>
<rect x="21.9551" y="22.9091" width="0.954545" height="0.954545" fill="#665545"/>
<rect x="21.9551" y="21.9545" width="0.954545" height="0.954545" fill="#665545"/>
<rect x="21.9551" y="21" width="0.954545" height="0.954545" fill="#665545"/>
<rect x="21" y="21.9545" width="0.954545" height="0.954545" fill="#665545"/>
<rect x="21" y="21" width="0.954545" height="0.954545" fill="#665545"/>
<rect x="21" y="23.8636" width="0.954545" height="0.954545" fill="#665545"/>
<rect x="21" y="22.9091" width="0.954545" height="0.954545" fill="#665545"/>
<rect x="23.8633" y="21" width="0.954545" height="0.954545" fill="#665545"/>
<rect x="23.8633" y="20.0455" width="0.954545" height="0.954545" fill="#665545"/>
<rect x="23.8633" y="22.9091" width="0.954545" height="0.954545" fill="#665545"/>
<rect x="24.8184" y="21.9545" width="0.954545" height="0.954545" fill="#665545"/>
<rect x="23.8633" y="21.9545" width="0.954545" height="0.954545" fill="#665545"/>
<rect x="22.9092" y="23.8636" width="0.954545" height="0.954545" fill="#665545"/>
<rect x="21.9551" y="23.8636" width="0.954545" height="0.954545" fill="#665545"/>
<rect x="23.8633" y="19.0909" width="0.954545" height="0.954545" fill="#665545"/>
<rect x="25.7734" y="21" width="0.954545" height="0.954545" fill="#665545"/>
<rect x="25.7734" y="20.0455" width="0.954545" height="0.954545" fill="#665545"/>
<rect x="25.7734" y="22.9091" width="0.954545" height="0.954545" fill="#665545"/>
<rect x="25.7734" y="21.9545" width="0.954545" height="0.954545" fill="#665545"/>
<rect x="25.7734" y="19.0909" width="0.954545" height="0.954545" fill="#665545"/>
<rect x="22.9092" y="19.0909" width="0.954545" height="0.954545" fill="#665545"/>
<rect x="25.7734" y="18.1364" width="0.954545" height="0.954545" fill="#665545"/>
<rect x="26.7275" y="21" width="0.954545" height="0.954545" fill="#665545"/>
<rect x="26.7275" y="20.0455" width="0.954545" height="0.954545" fill="#665545"/>
<rect x="26.7275" y="22.9091" width="0.954545" height="0.954545" fill="#665545"/>
<rect x="26.7275" y="21.9545" width="0.954545" height="0.954545" fill="#665545"/>
<rect x="27.6816" y="21" width="0.954545" height="0.954545" fill="#665545"/>
<rect x="27.6816" y="20.0455" width="0.954545" height="0.954545" fill="#665545"/>
<rect x="27.6816" y="22.9091" width="0.954545" height="0.954545" fill="#665545"/>
<rect x="27.6816" y="21.9545" width="0.954545" height="0.954545" fill="#665545"/>
<rect x="26.7275" y="24.8182" width="0.954545" height="0.954545" fill="#665545"/>
<rect x="26.7275" y="23.8636" width="0.954545" height="0.954545" fill="#665545"/>
<rect x="27.6816" y="24.8182" width="0.954545" height="0.954545" fill="#665545"/>
<rect x="28.6357" y="24.8182" width="0.954545" height="0.954545" fill="#665545"/>
<rect x="28.6357" y="25.7727" width="0.954545" height="0.954545" fill="#665545"/>
<rect x="29.5908" y="25.7727" width="0.954545" height="0.954545" fill="#665545"/>
<rect x="30.5459" y="25.7727" width="0.954545" height="0.954545" fill="#665545"/>
<rect x="31.5" y="25.7727" width="0.954545" height="0.954545" fill="#665545"/>
<rect x="32.4541" y="26.7273" width="0.954545" height="0.954545" fill="#665545"/>
<rect x="33.4082" y="26.7273" width="0.954545" height="0.954545" fill="#665545"/>
<rect x="32.4541" y="25.7727" width="0.954545" height="0.954545" fill="#665545"/>
<rect x="33.4082" y="25.7727" width="0.954545" height="0.954545" fill="#665545"/>
<rect x="34.3643" y="26.7273" width="0.954545" height="0.954545" fill="#665545"/>
<rect x="35.3184" y="26.7273" width="0.954545" height="0.954545" fill="#665545"/>
<rect x="36.2725" y="25.7727" width="0.954545" height="0.954545" fill="#665545"/>
<rect x="37.2266" y="24.8182" width="0.954545" height="0.954545" fill="#665545"/>
<rect x="38.1826" y="23.8636" width="0.954545" height="0.954545" fill="#665545"/>
<rect x="39.1367" y="22.9091" width="0.954545" height="0.954545" fill="#665545"/>
<rect x="40.0908" y="21.9545" width="0.954545" height="0.954545" fill="#665545"/>
<rect x="34.3643" y="25.7727" width="0.954545" height="0.954545" fill="#665545"/>
<rect x="29.5908" y="24.8182" width="0.954545" height="0.954545" fill="#665545"/>
<rect x="30.5459" y="24.8182" width="0.954545" height="0.954545" fill="#665545"/>
<rect x="31.5" y="24.8182" width="0.954545" height="0.954545" fill="#665545"/>
<rect x="32.4541" y="24.8182" width="0.954545" height="0.954545" fill="#665545"/>
<rect x="33.4082" y="24.8182" width="0.954545" height="0.954545" fill="#665545"/>
<rect x="34.3643" y="24.8182" width="0.954545" height="0.954545" fill="#665545"/>
<rect x="35.3184" y="24.8182" width="0.954545" height="0.954545" fill="#665545"/>
<rect x="30.5459" y="23.8636" width="0.954545" height="0.954545" fill="#665545"/>
<rect x="31.5" y="23.8636" width="0.954545" height="0.954545" fill="#665545"/>
<rect x="32.4541" y="23.8636" width="0.954545" height="0.954545" fill="#665545"/>
<rect x="33.4082" y="23.8636" width="0.954545" height="0.954545" fill="#665545"/>
<rect x="34.3643" y="23.8636" width="0.954545" height="0.954545" fill="#665545"/>
<rect x="35.3184" y="23.8636" width="0.954545" height="0.954545" fill="#665545"/>
<rect x="36.2725" y="23.8636" width="0.954545" height="0.954545" fill="#665545"/>
<rect x="31.5" y="21.9545" width="0.954545" height="0.954545" fill="#665545"/>
<rect x="32.4541" y="21.9545" width="0.954545" height="0.954545" fill="#665545"/>
<rect x="33.4082" y="21.9545" width="0.954545" height="0.954545" fill="#665545"/>
<rect x="34.3643" y="21.9545" width="0.954545" height="0.954545" fill="#665545"/>
<rect x="35.3184" y="21.9545" width="0.954545" height="0.954545" fill="#665545"/>
<rect x="36.2725" y="21.9545" width="0.954545" height="0.954545" fill="#665545"/>
<rect x="31.5" y="22.9091" width="0.954545" height="0.954545" fill="#665545"/>
<rect x="32.4541" y="22.9091" width="0.954545" height="0.954545" fill="#665545"/>
<rect x="33.4082" y="22.9091" width="0.954545" height="0.954545" fill="#665545"/>
<rect x="34.3643" y="22.9091" width="0.954545" height="0.954545" fill="#665545"/>
<rect x="35.3184" y="22.9091" width="0.954545" height="0.954545" fill="#665545"/>
<rect x="36.2725" y="22.9091" width="0.954545" height="0.954545" fill="#665545"/>
<rect x="37.2266" y="21.9545" width="0.954545" height="0.954545" fill="#665545"/>
<rect x="37.2266" y="22.9091" width="0.954545" height="0.954545" fill="#665545"/>
<rect x="38.1826" y="21.9545" width="0.954545" height="0.954545" fill="#665545"/>
<rect x="31.5" y="21" width="0.954545" height="0.954545" fill="#665545"/>
<rect x="32.4541" y="21" width="0.954545" height="0.954545" fill="#665545"/>
<rect x="33.4082" y="21" width="0.954545" height="0.954545" fill="#665545"/>
<rect x="34.3643" y="21" width="0.954545" height="0.954545" fill="#665545"/>
<rect x="35.3184" y="21" width="0.954545" height="0.954545" fill="#665545"/>
<rect x="36.2725" y="21" width="0.954545" height="0.954545" fill="#665545"/>
<rect x="37.2266" y="21" width="0.954545" height="0.954545" fill="#665545"/>
<rect x="38.1826" y="21" width="0.954545" height="0.954545" fill="#665545"/>
<rect x="40.0908" y="21" width="0.954545" height="0.954545" fill="#665545"/>
<rect x="39.1367" y="21" width="0.954545" height="0.954545" fill="#665545"/>
<rect x="31.5" y="19.0909" width="0.954545" height="0.954545" fill="#665545"/>
<rect x="32.4541" y="19.0909" width="0.954545" height="0.954545" fill="#665545"/>
<rect x="34.3643" y="19.0909" width="0.954545" height="0.954545" fill="#665545"/>
<rect x="35.3184" y="19.0909" width="0.954545" height="0.954545" fill="#665545"/>
<rect x="36.2725" y="19.0909" width="0.954545" height="0.954545" fill="#665545"/>
<rect x="37.2266" y="19.0909" width="0.954545" height="0.954545" fill="#665545"/>
<rect x="38.1826" y="19.0909" width="0.954545" height="0.954545" fill="#665545"/>
<rect x="40.0908" y="19.0909" width="0.954545" height="0.954545" fill="#665545"/>
<rect x="39.1367" y="19.0909" width="0.954545" height="0.954545" fill="#665545"/>
<rect x="31.5" y="20.0455" width="0.954545" height="0.954545" fill="#665545"/>
<rect x="32.4541" y="20.0455" width="0.954545" height="0.954545" fill="#665545"/>
<rect x="33.4082" y="20.0455" width="0.954545" height="0.954545" fill="#665545"/>
<rect x="34.3643" y="20.0455" width="0.954545" height="0.954545" fill="#665545"/>
<rect x="35.3184" y="20.0455" width="0.954545" height="0.954545" fill="#665545"/>
<rect x="36.2725" y="20.0455" width="0.954545" height="0.954545" fill="#665545"/>
<rect x="37.2266" y="20.0455" width="0.954545" height="0.954545" fill="#665545"/>
<rect x="38.1826" y="20.0455" width="0.954545" height="0.954545" fill="#665545"/>
<rect x="40.0908" y="20.0455" width="0.954545" height="0.954545" fill="#665545"/>
<rect x="39.1367" y="20.0455" width="0.954545" height="0.954545" fill="#665545"/>
<rect x="41.0449" y="20.0455" width="0.954545" height="0.954545" fill="#665545"/>
<rect x="41.0449" y="19.0909" width="0.954545" height="0.954545" fill="#665545"/>
<rect x="31.5" y="18.1364" width="0.954545" height="0.954545" fill="#665545"/>
<rect x="32.4541" y="18.1364" width="0.954545" height="0.954545" fill="#665545"/>
<rect x="34.3643" y="18.1364" width="0.954545" height="0.954545" fill="#665545"/>
<rect x="35.3184" y="18.1364" width="0.954545" height="0.954545" fill="#665545"/>
<rect x="36.2725" y="18.1364" width="0.954545" height="0.954545" fill="#665545"/>
<rect x="37.2266" y="18.1364" width="0.954545" height="0.954545" fill="#665545"/>
<rect x="38.1826" y="18.1364" width="0.954545" height="0.954545" fill="#665545"/>
<rect x="40.0908" y="18.1364" width="0.954545" height="0.954545" fill="#665545"/>
<rect x="39.1367" y="18.1364" width="0.954545" height="0.954545" fill="#665545"/>
<rect x="41.0449" y="18.1364" width="0.954545" height="0.954545" fill="#665545"/>
<rect x="31.5" y="17.1818" width="0.954545" height="0.954545" fill="#665545"/>
<rect x="32.4541" y="17.1818" width="0.954545" height="0.954545" fill="#665545"/>
<rect x="34.3643" y="17.1818" width="0.954545" height="0.954545" fill="#665545"/>
<rect x="35.3184" y="17.1818" width="0.954545" height="0.954545" fill="#665545"/>
<rect x="36.2725" y="17.1818" width="0.954545" height="0.954545" fill="#665545"/>
<rect x="37.2266" y="17.1818" width="0.954545" height="0.954545" fill="#665545"/>
<rect x="38.1826" y="17.1818" width="0.954545" height="0.954545" fill="#665545"/>
<rect x="40.0908" y="17.1818" width="0.954545" height="0.954545" fill="#665545"/>
<rect x="39.1367" y="17.1818" width="0.954545" height="0.954545" fill="#665545"/>
<rect x="41.0449" y="17.1818" width="0.954545" height="0.954545" fill="#665545"/>
<rect x="28.6357" y="23.8636" width="0.954545" height="0.954545" fill="#665545"/>
<rect x="29.5908" y="23.8636" width="0.954545" height="0.954545" fill="#665545"/>
<rect x="27.6816" y="23.8636" width="0.954545" height="0.954545" fill="#665545"/>
<rect x="29.5908" y="22.9091" width="0.954545" height="0.954545" fill="#665545"/>
<rect x="30.5459" y="22.9091" width="0.954545" height="0.954545" fill="#665545"/>
<rect x="28.6357" y="22.9091" width="0.954545" height="0.954545" fill="#665545"/>
<rect x="29.5908" y="21.9545" width="0.954545" height="0.954545" fill="#665545"/>
<rect x="30.5459" y="21.9545" width="0.954545" height="0.954545" fill="#665545"/>
<rect x="28.6357" y="21.9545" width="0.954545" height="0.954545" fill="#665545"/>
<rect x="29.5908" y="21" width="0.954545" height="0.954545" fill="#665545"/>
<rect x="30.5459" y="21" width="0.954545" height="0.954545" fill="#665545"/>
<rect x="28.6357" y="21" width="0.954545" height="0.954545" fill="#665545"/>
<rect x="29.5908" y="20.0455" width="0.954545" height="0.954545" fill="#665545"/>
<rect x="30.5459" y="20.0455" width="0.954545" height="0.954545" fill="#665545"/>
<rect x="29.5908" y="19.0909" width="0.954545" height="0.954545" fill="#665545"/>
<rect x="29.5908" y="18.1364" width="0.954545" height="0.954545" fill="#665545"/>
<rect x="30.5459" y="18.1364" width="0.954545" height="0.954545" fill="#665545"/>
<rect x="29.5908" y="17.1818" width="0.954545" height="0.954545" fill="#665545"/>
<rect x="30.5459" y="16.2273" width="0.954545" height="0.954545" fill="#665545"/>
<rect x="30.5459" y="15.2727" width="0.954545" height="0.954545" fill="#665545"/>
<rect x="33.4082" y="17.1818" width="0.954545" height="0.954545" fill="#665545"/>
<rect x="31.5" y="16.2273" width="0.954545" height="0.954545" fill="#665545"/>
<rect x="32.4541" y="16.2273" width="0.954545" height="0.954545" fill="#665545"/>
<rect x="34.3643" y="16.2273" width="0.954545" height="0.954545" fill="#665545"/>
<rect x="35.3184" y="16.2273" width="0.954545" height="0.954545" fill="#665545"/>
<rect x="36.2725" y="16.2273" width="0.954545" height="0.954545" fill="#665545"/>
<rect x="37.2266" y="16.2273" width="0.954545" height="0.954545" fill="#665545"/>
<rect x="38.1826" y="16.2273" width="0.954545" height="0.954545" fill="#665545"/>
<rect x="40.0908" y="16.2273" width="0.954545" height="0.954545" fill="#665545"/>
<rect x="39.1367" y="16.2273" width="0.954545" height="0.954545" fill="#665545"/>
<rect x="31.5" y="15.2727" width="0.954545" height="0.954545" fill="#665545"/>
<rect x="30.5459" y="14.3182" width="0.954545" height="0.954545" fill="#665545"/>
<rect x="31.5" y="14.3182" width="0.954545" height="0.954545" fill="#665545"/>
<rect x="33.4082" y="16.2273" width="0.954545" height="0.954545" fill="#665545"/>
<rect x="34.3643" y="15.2727" width="0.954545" height="0.954545" fill="#665545"/>
<rect x="35.3184" y="15.2727" width="0.954545" height="0.954545" fill="#665545"/>
<rect x="36.2725" y="15.2727" width="0.954545" height="0.954545" fill="#665545"/>
<rect x="37.2266" y="15.2727" width="0.954545" height="0.954545" fill="#665545"/>
<rect x="38.1826" y="15.2727" width="0.954545" height="0.954545" fill="#665545"/>
<rect x="40.0908" y="15.2727" width="0.954545" height="0.954545" fill="#665545"/>
<rect x="39.1367" y="15.2727" width="0.954545" height="0.954545" fill="#665545"/>
<rect x="33.4082" y="15.2727" width="0.954545" height="0.954545" fill="#665545"/>
<rect x="34.3643" y="14.3182" width="0.954545" height="0.954545" fill="#665545"/>
<rect x="35.3184" y="14.3182" width="0.954545" height="0.954545" fill="#665545"/>
<rect x="36.2725" y="14.3182" width="0.954545" height="0.954545" fill="#665545"/>
<rect x="37.2266" y="14.3182" width="0.954545" height="0.954545" fill="#665545"/>
<rect x="38.1826" y="14.3182" width="0.954545" height="0.954545" fill="#665545"/>
<rect x="40.0908" y="14.3182" width="0.954545" height="0.954545" fill="#665545"/>
<rect x="39.1367" y="14.3182" width="0.954545" height="0.954545" fill="#665545"/>
<rect x="33.4082" y="14.3182" width="0.954545" height="0.954545" fill="#665545"/>
<rect x="32.4541" y="14.3182" width="0.954545" height="0.954545" fill="#665545"/>
<rect x="30.5459" y="13.3636" width="0.954545" height="0.954545" fill="#665545"/>
<rect x="31.5" y="13.3636" width="0.954545" height="0.954545" fill="#665545"/>
<rect x="28.6357" y="13.3636" width="0.954545" height="0.954545" fill="#665545"/>
<rect x="29.5908" y="13.3636" width="0.954545" height="0.954545" fill="#665545"/>
<rect x="34.3643" y="13.3636" width="0.954545" height="0.954545" fill="#665545"/>
<rect x="35.3184" y="13.3636" width="0.954545" height="0.954545" fill="#665545"/>
<rect x="36.2725" y="13.3636" width="0.954545" height="0.954545" fill="#665545"/>
<rect x="37.2266" y="13.3636" width="0.954545" height="0.954545" fill="#665545"/>
<rect x="38.1826" y="13.3636" width="0.954545" height="0.954545" fill="#665545"/>
<rect x="40.0908" y="13.3636" width="0.954545" height="0.954545" fill="#665545"/>
<rect x="39.1367" y="13.3636" width="0.954545" height="0.954545" fill="#665545"/>
<rect x="33.4082" y="13.3636" width="0.954545" height="0.954545" fill="#665545"/>
<rect x="32.4541" y="13.3636" width="0.954545" height="0.954545" fill="#665545"/>
<rect x="30.5459" y="12.4091" width="0.954545" height="0.954545" fill="#665545"/>
<rect x="31.5" y="12.4091" width="0.954545" height="0.954545" fill="#665545"/>
<rect x="28.6357" y="12.4091" width="0.954545" height="0.954545" fill="#665545"/>
<rect x="29.5908" y="12.4091" width="0.954545" height="0.954545" fill="#665545"/>
<rect x="34.3643" y="12.4091" width="0.954545" height="0.954545" fill="#665545"/>
<rect x="35.3184" y="12.4091" width="0.954545" height="0.954545" fill="#665545"/>
<rect x="36.2725" y="12.4091" width="0.954545" height="0.954545" fill="#665545"/>
<rect x="37.2266" y="12.4091" width="0.954545" height="0.954545" fill="#665545"/>
<rect x="38.1826" y="12.4091" width="0.954545" height="0.954545" fill="#665545"/>
<rect x="39.1367" y="12.4091" width="0.954545" height="0.954545" fill="#665545"/>
<rect x="33.4082" y="12.4091" width="0.954545" height="0.954545" fill="#665545"/>
<rect x="32.4541" y="12.4091" width="0.954545" height="0.954545" fill="#665545"/>
<rect x="30.5459" y="11.4545" width="0.954545" height="0.954545" fill="#665545"/>
<rect x="31.5" y="11.4545" width="0.954545" height="0.954545" fill="#665545"/>
<rect x="28.6357" y="11.4545" width="0.954545" height="0.954545" fill="#665545"/>
<rect x="29.5908" y="11.4545" width="0.954545" height="0.954545" fill="#665545"/>
<rect x="34.3643" y="11.4545" width="0.954545" height="0.954545" fill="#665545"/>
<rect x="35.3184" y="11.4545" width="0.954545" height="0.954545" fill="#665545"/>
<rect x="36.2725" y="11.4545" width="0.954545" height="0.954545" fill="#665545"/>
<rect x="37.2266" y="11.4545" width="0.954545" height="0.954545" fill="#665545"/>
<rect x="38.1826" y="11.4545" width="0.954545" height="0.954545" fill="#665545"/>
<rect x="39.1367" y="11.4545" width="0.954545" height="0.954545" fill="#665545"/>
<rect x="33.4082" y="11.4545" width="0.954545" height="0.954545" fill="#665545"/>
<rect x="32.4541" y="11.4545" width="0.954545" height="0.954545" fill="#665545"/>
<rect x="30.5459" y="10.5" width="0.954545" height="0.954545" fill="#665545"/>
<rect x="31.5" y="10.5" width="0.954545" height="0.954545" fill="#665545"/>
<rect x="28.6357" y="10.5" width="0.954545" height="0.954545" fill="#665545"/>
<rect x="27.6816" y="9.54546" width="0.954545" height="0.954545" fill="#665545"/>
<rect x="22.9092" y="14.3182" width="0.954545" height="0.954545" fill="#665545"/>
<rect x="22.9092" y="13.3636" width="0.954545" height="0.954545" fill="#665545"/>
<rect x="22.9092" y="12.4091" width="0.954545" height="0.954545" fill="#665545"/>
<rect x="22.9092" y="11.4545" width="0.954545" height="0.954545" fill="#665545"/>
<rect x="23.8633" y="17.1818" width="0.954545" height="0.954545" fill="#665545"/>
<rect x="23.8633" y="16.2273" width="0.954545" height="0.954545" fill="#665545"/>
<rect x="24.8184" y="16.2273" width="0.954545" height="0.954545" fill="#665545"/>
<rect x="23.8633" y="15.2727" width="0.954545" height="0.954545" fill="#665545"/>
<rect x="23.8633" y="14.3182" width="0.954545" height="0.954545" fill="#665545"/>
<rect x="21.9551" y="10.5" width="0.954545" height="0.954545" fill="#665545"/>
<rect x="21.9551" y="9.54546" width="0.954545" height="0.954545" fill="#665545"/>
<rect x="21.9551" y="8.59091" width="0.954545" height="0.954545" fill="#665545"/>
<rect x="21.9551" y="7.63636" width="0.954545" height="0.954545" fill="#665545"/>
<rect x="22.9092" y="10.5" width="0.954545" height="0.954545" fill="#665545"/>
<rect x="22.9092" y="9.54546" width="0.954545" height="0.954545" fill="#665545"/>
<rect x="22.9092" y="8.59091" width="0.954545" height="0.954545" fill="#665545"/>
<rect x="22.9092" y="7.63636" width="0.954545" height="0.954545" fill="#665545"/>
<rect x="21.9551" y="6.68182" width="0.954545" height="0.954545" fill="#665545"/>
<rect x="21.9551" y="5.72727" width="0.954545" height="0.954545" fill="#665545"/>
<rect x="21.9551" y="4.77273" width="0.954545" height="0.954545" fill="#665545"/>
<rect x="22.9092" y="6.68182" width="0.954545" height="0.954545" fill="#665545"/>
<rect x="22.9092" y="5.72727" width="0.954545" height="0.954545" fill="#665545"/>
<rect x="22.9092" y="4.77273" width="0.954545" height="0.954545" fill="#665545"/>
<rect x="22.9092" y="3.81818" width="0.954545" height="0.954545" fill="#665545"/>
<rect x="28.6357" y="7.63636" width="0.954545" height="0.954545" fill="#665545"/>
<rect x="28.6357" y="6.68182" width="0.954545" height="0.954545" fill="#665545"/>
<rect x="28.6357" y="5.72727" width="0.954545" height="0.954545" fill="#665545"/>
<rect x="28.6357" y="4.77273" width="0.954545" height="0.954545" fill="#665545"/>
<rect x="28.6357" y="3.81818" width="0.954545" height="0.954545" fill="#665545"/>
<rect x="29.5908" y="2.86364" width="0.954545" height="0.954545" fill="#665545"/>
<rect x="30.5459" y="1.90909" width="0.954545" height="0.954545" fill="#665545"/>
<rect x="24.8184" y="2.86364" width="0.954545" height="0.954545" fill="#665545"/>
<rect x="23.8633" y="2.86364" width="0.954545" height="0.954545" fill="#665545"/>
<rect x="25.7734" y="1.90909" width="0.954545" height="0.954545" fill="#665545"/>
<rect x="26.7275" y="0.954544" width="0.954545" height="0.954545" fill="#665545"/>
<rect x="27.6816" width="0.954545" height="0.954545" fill="#665545"/>
<rect x="36.2725" y="1.90909" width="0.954545" height="0.954545" fill="#665545"/>
<rect x="34.3643" y="1.90909" width="0.954545" height="0.954545" fill="#665545"/>
<rect x="29.5908" y="10.5" width="0.954545" height="0.954545" fill="#665545"/>
<rect x="34.3643" y="10.5" width="0.954545" height="0.954545" fill="#665545"/>
<rect x="35.3184" y="10.5" width="0.954545" height="0.954545" fill="#665545"/>
<rect x="36.2725" y="10.5" width="0.954545" height="0.954545" fill="#665545"/>
<rect x="37.2266" y="10.5" width="0.954545" height="0.954545" fill="#665545"/>
<rect x="38.1826" y="10.5" width="0.954545" height="0.954545" fill="#665545"/>
<rect x="39.1367" y="10.5" width="0.954545" height="0.954545" fill="#665545"/>
<rect x="33.4082" y="10.5" width="0.954545" height="0.954545" fill="#665545"/>
<rect x="32.4541" y="10.5" width="0.954545" height="0.954545" fill="#665545"/>
<rect x="25.7734" y="7.63636" width="0.954545" height="0.954545" fill="#665545"/>
<rect x="26.7275" y="7.63636" width="0.954545" height="0.954545" fill="#665545"/>
<rect x="23.8633" y="7.63636" width="0.954545" height="0.954545" fill="#665545"/>
<rect x="24.8184" y="7.63636" width="0.954545" height="0.954545" fill="#665545"/>
<rect x="25.7734" y="8.59091" width="0.954545" height="0.954545" fill="#665545"/>
<rect x="26.7275" y="8.59091" width="0.954545" height="0.954545" fill="#665545"/>
<rect x="23.8633" y="8.59091" width="0.954545" height="0.954545" fill="#665545"/>
<rect x="24.8184" y="8.59091" width="0.954545" height="0.954545" fill="#665545"/>
<rect x="25.7734" y="9.54546" width="0.954545" height="0.954545" fill="#665545"/>
<rect x="26.7275" y="9.54546" width="0.954545" height="0.954545" fill="#665545"/>
<rect x="23.8633" y="9.54546" width="0.954545" height="0.954545" fill="#665545"/>
<rect x="24.8184" y="9.54546" width="0.954545" height="0.954545" fill="#665545"/>
<rect x="27.6816" y="7.63636" width="0.954545" height="0.954545" fill="#665545"/>
<rect x="25.7734" y="6.68182" width="0.954545" height="0.954545" fill="#665545"/>
<rect x="26.7275" y="6.68182" width="0.954545" height="0.954545" fill="#665545"/>
<rect x="23.8633" y="6.68182" width="0.954545" height="0.954545" fill="#665545"/>
<rect x="24.8184" y="6.68182" width="0.954545" height="0.954545" fill="#665545"/>
<rect x="25.7734" y="11.4545" width="0.954545" height="0.954545" fill="#665545"/>
<rect x="26.7275" y="11.4545" width="0.954545" height="0.954545" fill="#665545"/>
<rect x="23.8633" y="11.4545" width="0.954545" height="0.954545" fill="#665545"/>
<rect x="24.8184" y="11.4545" width="0.954545" height="0.954545" fill="#665545"/>
<rect x="25.7734" y="12.4091" width="0.954545" height="0.954545" fill="#665545"/>
<rect x="26.7275" y="12.4091" width="0.954545" height="0.954545" fill="#665545"/>
<rect x="23.8633" y="12.4091" width="0.954545" height="0.954545" fill="#665545"/>
<rect x="24.8184" y="12.4091" width="0.954545" height="0.954545" fill="#665545"/>
<rect x="25.7734" y="13.3636" width="0.954545" height="0.954545" fill="#665545"/>
<rect x="26.7275" y="13.3636" width="0.954545" height="0.954545" fill="#665545"/>
<rect x="26.7275" y="14.3182" width="0.954545" height="0.954545" fill="#665545"/>
<rect x="23.8633" y="13.3636" width="0.954545" height="0.954545" fill="#665545"/>
<rect x="24.8184" y="13.3636" width="0.954545" height="0.954545" fill="#665545"/>
<rect x="25.7734" y="14.3182" width="0.954545" height="0.954545" fill="#665545"/>
<rect x="24.8184" y="14.3182" width="0.954545" height="0.954545" fill="#665545"/>
<rect x="25.7734" y="15.2727" width="0.954545" height="0.954545" fill="#665545"/>
<rect x="24.8184" y="15.2727" width="0.954545" height="0.954545" fill="#665545"/>
<rect x="25.7734" y="10.5" width="0.954545" height="0.954545" fill="#665545"/>
<rect x="26.7275" y="10.5" width="0.954545" height="0.954545" fill="#665545"/>
<rect x="23.8633" y="10.5" width="0.954545" height="0.954545" fill="#665545"/>
<rect x="24.8184" y="10.5" width="0.954545" height="0.954545" fill="#665545"/>
<rect x="27.6816" y="6.68182" width="0.954545" height="0.954545" fill="#665545"/>
<rect x="25.7734" y="5.72727" width="0.954545" height="0.954545" fill="#665545"/>
<rect x="26.7275" y="5.72727" width="0.954545" height="0.954545" fill="#665545"/>
<rect x="23.8633" y="5.72727" width="0.954545" height="0.954545" fill="#665545"/>
<rect x="24.8184" y="5.72727" width="0.954545" height="0.954545" fill="#665545"/>
<rect x="27.6816" y="5.72727" width="0.954545" height="0.954545" fill="#665545"/>
<rect x="25.7734" y="4.77273" width="0.954545" height="0.954545" fill="#665545"/>
<rect x="26.7275" y="4.77273" width="0.954545" height="0.954545" fill="#665545"/>
<rect x="23.8633" y="4.77273" width="0.954545" height="0.954545" fill="#665545"/>
<rect x="24.8184" y="4.77273" width="0.954545" height="0.954545" fill="#665545"/>
<rect x="27.6816" y="4.77273" width="0.954545" height="0.954545" fill="#665545"/>
<rect x="30.5459" y="9.54546" width="0.954545" height="0.954545" fill="#665545"/>
<rect x="31.5" y="9.54546" width="0.954545" height="0.954545" fill="#665545"/>
<rect x="29.5908" y="9.54546" width="0.954545" height="0.954545" fill="#665545"/>
<rect x="34.3643" y="9.54546" width="0.954545" height="0.954545" fill="#665545"/>
<rect x="35.3184" y="9.54546" width="0.954545" height="0.954545" fill="#665545"/>
<rect x="36.2725" y="9.54546" width="0.954545" height="0.954545" fill="#665545"/>
<rect x="37.2266" y="9.54546" width="0.954545" height="0.954545" fill="#665545"/>
<rect x="38.1826" y="9.54546" width="0.954545" height="0.954545" fill="#665545"/>
<rect x="39.1367" y="9.54546" width="0.954545" height="0.954545" fill="#665545"/>
<rect x="33.4082" y="9.54546" width="0.954545" height="0.954545" fill="#665545"/>
<rect x="32.4541" y="9.54546" width="0.954545" height="0.954545" fill="#665545"/>
<rect x="30.5459" y="8.59091" width="0.954545" height="0.954545" fill="#665545"/>
<rect x="31.5" y="8.59091" width="0.954545" height="0.954545" fill="#665545"/>
<rect x="29.5908" y="8.59091" width="0.954545" height="0.954545" fill="#665545"/>
<rect x="34.3643" y="8.59091" width="0.954545" height="0.954545" fill="#665545"/>
<rect x="35.3184" y="8.59091" width="0.954545" height="0.954545" fill="#665545"/>
<rect x="36.2725" y="8.59091" width="0.954545" height="0.954545" fill="#665545"/>
<rect x="37.2266" y="8.59091" width="0.954545" height="0.954545" fill="#665545"/>
<rect x="38.1826" y="8.59091" width="0.954545" height="0.954545" fill="#665545"/>
<rect x="33.4082" y="8.59091" width="0.954545" height="0.954545" fill="#665545"/>
<rect x="32.4541" y="8.59091" width="0.954545" height="0.954545" fill="#665545"/>
<rect x="30.5459" y="7.63636" width="0.954545" height="0.954545" fill="#665545"/>
<rect x="31.5" y="7.63636" width="0.954545" height="0.954545" fill="#665545"/>
<rect x="34.3643" y="7.63636" width="0.954545" height="0.954545" fill="#665545"/>
<rect x="35.3184" y="7.63636" width="0.954545" height="0.954545" fill="#665545"/>
<rect x="36.2725" y="7.63636" width="0.954545" height="0.954545" fill="#665545"/>
<rect x="37.2266" y="7.63636" width="0.954545" height="0.954545" fill="#665545"/>
<rect x="38.1826" y="7.63636" width="0.954545" height="0.954545" fill="#665545"/>
<rect x="33.4082" y="7.63636" width="0.954545" height="0.954545" fill="#665545"/>
<rect x="32.4541" y="7.63636" width="0.954545" height="0.954545" fill="#665545"/>
<rect x="31.5" y="6.68182" width="0.954545" height="0.954545" fill="#665545"/>
<rect x="34.3643" y="6.68182" width="0.954545" height="0.954545" fill="#665545"/>
<rect x="35.3184" y="6.68182" width="0.954545" height="0.954545" fill="#665545"/>
<rect x="36.2725" y="6.68182" width="0.954545" height="0.954545" fill="#665545"/>
<rect x="37.2266" y="6.68182" width="0.954545" height="0.954545" fill="#665545"/>
<rect x="38.1826" y="6.68182" width="0.954545" height="0.954545" fill="#665545"/>
<rect x="33.4082" y="6.68182" width="0.954545" height="0.954545" fill="#665545"/>
<rect x="34.3643" y="5.72727" width="0.954545" height="0.954545" fill="#665545"/>
<rect x="35.3184" y="5.72727" width="0.954545" height="0.954545" fill="#665545"/>
<rect x="36.2725" y="5.72727" width="0.954545" height="0.954545" fill="#665545"/>
<rect x="37.2266" y="5.72727" width="0.954545" height="0.954545" fill="#665545"/>
<rect x="38.1826" y="5.72727" width="0.954545" height="0.954545" fill="#665545"/>
<rect x="34.3643" y="4.77273" width="0.954545" height="0.954545" fill="#665545"/>
<rect x="35.3184" y="4.77273" width="0.954545" height="0.954545" fill="#665545"/>
<rect x="36.2725" y="4.77273" width="0.954545" height="0.954545" fill="#665545"/>
<rect x="37.2266" y="4.77273" width="0.954545" height="0.954545" fill="#665545"/>
<rect x="35.3184" y="3.81818" width="0.954545" height="0.954545" fill="#665545"/>
<rect x="36.2725" y="3.81818" width="0.954545" height="0.954545" fill="#665545"/>
<rect x="37.2266" y="3.81818" width="0.954545" height="0.954545" fill="#665545"/>
<rect x="37.2266" y="2.86364" width="0.954545" height="0.954545" fill="#665545"/>
<rect x="37.2266" y="1.90909" width="0.954545" height="0.954545" fill="#665545"/>
<rect x="38.1826" y="4.77273" width="0.954545" height="0.954545" fill="#665545"/>
<rect x="33.4082" y="5.72727" width="0.954545" height="0.954545" fill="#665545"/>
<rect x="31.5" width="0.954545" height="0.954545" fill="#665545"/>
<rect x="32.4541" width="0.954545" height="0.954545" fill="#665545"/>
<rect x="33.4082" width="0.954545" height="0.954545" fill="#665545"/>
<rect x="34.3643" width="0.954545" height="0.954545" fill="#665545"/>
<rect x="35.3184" width="0.954545" height="0.954545" fill="#665545"/>
<rect x="36.2725" y="0.954544" width="0.954545" height="0.954545" fill="#665545"/>
<rect x="30.5459" width="0.954545" height="0.954545" fill="#665545"/>
<rect x="29.5908" width="0.954545" height="0.954545" fill="#665545"/>
<rect x="28.6357" width="0.954545" height="0.954545" fill="#665545"/>
<rect x="32.4541" y="6.68182" width="0.954545" height="0.954545" fill="#665545"/>
<rect x="30.5459" y="19.0909" width="0.954545" height="0.954545" fill="#665545"/>
<rect x="28.6357" y="20.0455" width="0.954545" height="0.954545" fill="#665545"/>
<rect x="26.7275" y="19.0909" width="0.954545" height="0.954545" fill="#665545"/>
<rect x="26.7275" y="18.1364" width="0.954545" height="0.954545" fill="#665545"/>
<rect x="25.7734" y="17.1818" width="0.954545" height="0.954545" fill="#665545"/>
<rect x="24.8184" y="17.1818" width="0.954545" height="0.954545" fill="#665545"/>
<rect x="17.1816" y="27.6818" width="0.954545" height="0.954545" fill="#665545"/>
<rect x="16.2275" y="27.6818" width="0.954545" height="0.954545" fill="#665545"/>
<rect x="13.3633" y="32.4545" width="0.954545" height="0.954545" fill="#665545"/>
<rect x="10.5" y="35.3182" width="0.954545" height="0.954545" fill="#665545"/>
<rect x="15.2725" y="30.5455" width="0.954545" height="0.954545" fill="#665545"/>
<rect x="13.3633" y="31.5" width="0.954545" height="0.954545" fill="#665545"/>
<rect x="14.3184" y="29.5909" width="0.954545" height="0.954545" fill="#665545"/>
<rect x="13.3633" y="29.5909" width="0.954545" height="0.954545" fill="#665545"/>
<rect x="14.3184" y="28.6364" width="0.954545" height="0.954545" fill="#665545"/>
<rect x="13.3633" y="28.6364" width="0.954545" height="0.954545" fill="#665545"/>
<rect x="13.3633" y="27.6818" width="0.954545" height="0.954545" fill="#665545"/>
<rect x="12.4092" y="29.5909" width="0.954545" height="0.954545" fill="#665545"/>
<rect x="12.4092" y="28.6364" width="0.954545" height="0.954545" fill="#665545"/>
<rect x="14.3184" y="30.5455" width="0.954545" height="0.954545" fill="#665545"/>
<rect x="13.3633" y="30.5455" width="0.954545" height="0.954545" fill="#665545"/>
<rect x="10.5" y="34.3636" width="0.954545" height="0.954545" fill="#665545"/>
<rect x="11.4551" y="33.4091" width="0.954545" height="0.954545" fill="#665545"/>
<rect x="12.4092" y="33.4091" width="0.954545" height="0.954545" fill="#665545"/>
<rect x="10.5" y="33.4091" width="0.954545" height="0.954545" fill="#665545"/>
<rect x="11.4551" y="31.5" width="0.954545" height="0.954545" fill="#665545"/>
<rect x="10.5" y="31.5" width="0.954545" height="0.954545" fill="#665545"/>
<rect x="11.4551" y="30.5455" width="0.954545" height="0.954545" fill="#665545"/>
<rect x="10.5" y="30.5455" width="0.954545" height="0.954545" fill="#665545"/>
<rect x="10.5" y="29.5909" width="0.954545" height="0.954545" fill="#665545"/>
<rect x="9.54492" y="31.5" width="0.954545" height="0.954545" fill="#665545"/>
<rect x="9.54492" y="30.5455" width="0.954545" height="0.954545" fill="#665545"/>
<rect x="11.4551" y="32.4545" width="0.954545" height="0.954545" fill="#665545"/>
<rect x="10.5" y="32.4545" width="0.954545" height="0.954545" fill="#665545"/>
<rect x="2.86426" y="37.2273" width="0.954545" height="0.954545" fill="#665545"/>
</svg>
