<svg width="20" height="24" viewBox="0 0 20 24" fill="none" xmlns="http://www.w3.org/2000/svg">
<path d="M7.08232 21.5296C7.32675 22.9611 8.55342 24 9.99903 24C11.445 24 12.6721 22.9611 12.9165 21.5296L12.9314 21.4424H7.06738L7.08232 21.5296Z" fill="white"/>
<path d="M19.9783 17.4365C19.739 17.1962 19.4953 16.9929 19.2594 16.7962C18.2675 15.9689 17.4107 15.2545 17.4107 12.2883V9.93546C17.4107 6.47572 14.9902 3.43991 11.6412 2.67876C11.7755 2.41439 11.8435 2.13651 11.8435 1.85118C11.8435 0.83053 11.0165 0 9.99981 0C8.98342 0 8.15653 0.83053 8.15653 1.85118C8.15653 2.1367 8.22449 2.41453 8.35882 2.67876C5.00966 3.43991 2.58934 6.47572 2.58934 9.93546V12.2883C2.58934 15.2545 1.73257 15.969 0.740637 16.7962C0.504835 16.9929 0.261006 17.1962 0.0217505 17.4365L0 17.4584V19.7926H20V17.4584L19.9783 17.4365Z" fill="white"/>
</svg>
