<svg width="320" height="54" viewBox="0 0 320 54" fill="none" xmlns="http://www.w3.org/2000/svg" preserveAspectRatio="none">
<g filter="url(#filter0_d_2716_71743)">
<path fill-rule="evenodd" clip-rule="evenodd" d="M309 1H11C11 5.41828 7.41828 9 3 9V41C7.41828 41 11 44.5817 11 49H309C309 44.5817 312.582 41 317 41V9C312.582 9 309 5.41828 309 1Z" fill="url(#paint0_linear_2716_71743)"/>
<path fill-rule="evenodd" clip-rule="evenodd" d="M307 3H13C13 7.41828 9.41828 11 5 11V39C9.41828 39 13 42.5817 13 47H307C307 42.5817 310.582 39 315 39V11C310.582 11 307 7.41828 307 3Z" fill="#CF1C00"/>
<mask id="mask0_2716_71743" style="mask-type:alpha" maskUnits="userSpaceOnUse" x="5" y="3" width="310" height="44">
<path fill-rule="evenodd" clip-rule="evenodd" d="M307 3H13C13 7.41828 9.41828 11 5 11V39C9.41828 39 13 42.5817 13 47H307C307 42.5817 310.582 39 315 39V11C310.582 11 307 7.41828 307 3Z" fill="#1E5E5E"/>
</mask>
<g mask="url(#mask0_2716_71743)">
<path fill-rule="evenodd" clip-rule="evenodd" d="M55.2629 3.49342C56.2509 3.83174 57.2704 4.13592 58.3186 4.40555C67.0825 7.88991 78.8442 9.31609 91.924 8.27968C91.0324 8.12418 90.0904 7.93546 89.0957 7.71223C77.4736 5.10712 69.4641 -1.31781 68.6634 -7.88333C71.5917 -4.14122 76.5817 -0.674131 82.9946 1.67056C83.5487 1.87341 84.1054 2.06436 84.6621 2.24401C84.1078 0.279076 83.2636 -4.1332 84.1344 -6.80534C83.6236 -4.82785 84.621 0.000204878 92.3987 4.00834C92.637 4.04084 92.8747 4.0712 93.112 4.09949C94.7024 5.0767 96.4563 6.01665 98.3477 6.8883C98.7411 7.07013 99.1359 7.24611 99.53 7.41672C99.6193 7.40362 99.7093 7.39024 99.7992 7.3768C101.504 8.29772 105.875 11.6803 112.626 19.5836C113.504 19.6515 115.815 20.2579 118.028 22.1416C118.451 21.9066 120.248 21.965 124.049 24.0783C128.182 23.7283 135.797 25.2796 133.194 34.2843C132.771 34.5191 131.795 35.0058 131.274 35.0726C130.038 36.3152 127.161 38.6353 125.547 37.9754C125.677 36.5135 125.56 33.8553 124.05 34.9162C122.835 36.5172 119.501 39.9437 115.882 40.8419C117.91 38.2333 121.186 33.1161 118.062 33.5172C117.867 33.9035 117.092 34.8339 115.556 35.4646C115.057 34.4448 113.545 32.5798 111.488 33.2773C111.293 33.6636 110.779 34.5605 110.284 35.0575C110.024 34.3685 108.982 33.057 106.899 33.3245C105.153 33.368 100.736 33.3569 97.0385 32.9646C93.9579 32.6375 87.2625 31.8351 85.128 31.242C84.0646 31.7398 83.4095 33.1967 89.2936 35.0425C89.5436 35.5523 90.0748 37.1099 90.2053 39.2607C91.2253 41.6587 95.5299 47.0309 104.591 49.3359C105.046 49.6387 105.983 50.6746 106.088 52.3955C106.337 52.905 107.331 53.4279 109.31 51.4395C108.778 53.4949 106.654 57.4165 102.411 56.6607C101.424 58.4129 98.0048 61.8864 92.2251 61.7615C94.3619 60.9454 98.5965 58.6675 98.44 56.0867C97.5941 56.5561 95.2448 57.4722 92.615 57.3764C94.9256 55.8152 98.8826 52.5614 96.2267 52.0353C92.9395 48.3028 85.2005 41.0954 80.5406 42.127C75.854 40.561 66.7871 35.9808 68.0103 30.1879C66.2207 33.1272 64.1776 40.5426 70.3223 46.6902C67.7731 47.9206 62.5904 51.1509 62.2522 54.229C58.9327 53.5713 52.3262 50.626 52.4559 44.1065C51.1653 48.0655 51.2266 56.2946 61.7967 57.5389C61.7102 59.7177 62.3247 64.0826 65.4748 64.1116C60.6909 64.5447 50.4334 64.8503 47.6735 62.6033C50.0277 65.3719 57.1832 70.1614 66.972 67.1706C69.7274 69.3459 76.2667 73.3472 80.3802 71.9524C77.2453 74.3415 66.8948 78.8856 50.5711 77.9468C57.9151 80.0745 75.3432 81.9198 86.3029 72.2757C89.1886 72.9896 97.55 73.8671 107.912 71.6698C106.545 74.374 102.283 80.5208 96.1648 83.4737C101.328 82.0884 111.817 77.6715 112.467 71.0848C117.262 70.8304 128.081 68.9721 133.002 63.5715L135.227 63.4838C127.164 74.0915 115.957 83.1037 102.727 89.3923C79.3545 93.9743 66.5296 89.4757 62.8907 86.4183C70.6612 93.4077 79.5328 95.4488 85.6513 95.6397C81.4801 96.7427 77.183 97.5899 72.7852 98.1546C66.6569 98.9408 60.6552 99.1383 54.8565 98.7966C33.4148 66.5869 43.8305 44.5711 52.0499 37.4132C32.7486 52.8085 38.2495 80.6693 44.7974 97.637C34.8594 95.9111 25.724 92.545 17.8364 87.8346C14.923 81.8186 13.2459 73.8544 12.6751 69.5628C11.1964 74.0986 10.8275 79.2186 10.8684 83.0702C6.29603 79.5027 2.30318 75.4113 -0.989474 70.8761C-0.766731 48.8791 13.487 33.2433 21.2958 27.8134C5.73035 35.1014 -3.65689 47.8156 -8.27539 57.0997C-9.4416 53.8208 -10.2961 50.4002 -10.8103 46.857C-8.07884 42.4253 -2.999 36.8235 0.013025 33.7968C-4.67159 36.1065 -8.60189 39.6593 -11.2582 42.608C-11.2651 42.5025 -11.2718 42.3969 -11.2783 42.2912C-11.4119 40.0869 -11.4133 37.891 -11.2886 35.7093C1.37261 25.7888 19.6424 18.2733 40.2354 15.6298C42.8916 15.2888 45.4474 15.0467 47.9048 14.8989C30.7039 21.9157 18.7967 40.6747 20.0305 61.0352C20.2681 64.9565 20.9785 68.695 22.0976 72.1937C22.6845 62.662 26.115 52.9572 32.453 44.0239C34.1429 31.1555 49.1279 18.9998 69.2605 13.6968C60.2845 13.8961 50.8591 12.0432 42.2651 7.94965C32.0604 3.08871 24.8419 -4.06771 21.2586 -11.8731C23.1921 -8.50343 26.1726 -5.16877 30.0484 -2.30114C38.5246 3.97026 48.6906 6.09031 55.2629 3.49342ZM55.2618 3.49301C49.6135 1.55851 44.9984 -1.49223 41.9561 -5.5873C41.8451 -2.80027 42.6412 -0.420432 44.4512 1.36075C46.152 3.03446 48.6013 4.03525 51.6008 4.41408C52.9086 4.24311 54.1377 3.93703 55.2618 3.49301ZM40.3364 -27.7744L40.3372 -27.776C32.8154 -24.7548 25.8525 -20.8739 19.6317 -16.3174L19.632 -16.3162C25.8525 -20.8725 32.8151 -24.7532 40.3364 -27.7744ZM39.4728 35.6752C36.8312 38.3568 34.4924 41.1496 32.4542 44.0222C33.0961 39.1395 35.6519 34.3594 39.6769 30.0173C42.0513 29.5623 44.4746 29.1739 46.9379 28.8577C47.0431 28.8442 47.1483 28.8308 47.2533 28.8176C44.5114 30.916 41.9079 33.2032 39.4728 35.6752ZM104.314 23.1165C100.828 20.4293 95.2827 17.5939 94.1596 17.9172C93.8588 20.128 97.7075 22.3388 97.7075 22.3388C99.2691 22.1384 102.762 22.7738 104.314 23.1165Z" fill="#C18279" fill-opacity="0.3"/>
<path fill-rule="evenodd" clip-rule="evenodd" d="M262.372 -26.6992C261.427 -26.3755 260.452 -26.0846 259.449 -25.8267C251.066 -22.4936 239.815 -21.1293 227.303 -22.1207C228.156 -22.2695 229.057 -22.45 230.008 -22.6636C241.126 -25.1555 248.788 -31.3015 249.554 -37.5819C246.752 -34.0023 241.979 -30.6858 235.845 -28.4429C235.315 -28.2488 234.782 -28.0662 234.25 -27.8943C234.78 -29.7739 235.587 -33.9946 234.754 -36.5507C235.243 -34.6591 234.289 -30.0407 226.849 -26.2066C226.621 -26.1755 226.394 -26.1465 226.167 -26.1194C224.645 -25.1846 222.967 -24.2855 221.158 -23.4517C220.782 -23.2778 220.404 -23.1094 220.027 -22.9462C219.942 -22.9588 219.856 -22.9716 219.77 -22.9844C218.139 -22.1035 213.958 -18.8677 207.5 -11.3077C206.66 -11.2427 204.449 -10.6626 202.332 -8.86074C201.927 -9.08556 200.209 -9.02961 196.573 -7.00815C192.619 -7.34296 185.335 -5.85899 187.825 2.7547C188.229 2.97935 189.163 3.44487 189.661 3.50879C190.844 4.69741 193.596 6.91678 195.14 6.28552C195.015 4.88718 195.128 2.34435 196.572 3.35918C197.734 4.89069 200.924 8.16839 204.385 9.02754C202.445 6.53223 199.312 1.63729 202.3 2.02097C202.487 2.39049 203.228 3.28048 204.697 3.88378C205.174 2.90827 206.621 1.1242 208.589 1.79148C208.775 2.16099 209.267 3.0189 209.74 3.49431C209.989 2.83522 210.985 1.58071 212.978 1.83655C214.649 1.87824 218.874 1.8676 222.411 1.49229C225.357 1.17938 231.762 0.411856 233.804 -0.15549C234.821 0.320727 235.448 1.71438 229.819 3.48001C229.58 3.96765 229.072 5.45763 228.947 7.51506C227.971 9.80888 223.854 14.9479 215.186 17.1528C214.751 17.4424 213.854 18.4334 213.754 20.0795C213.516 20.5669 212.565 21.067 210.672 19.165C211.181 21.1311 213.212 24.8825 217.271 24.1595C218.216 25.8356 221.486 29.1583 227.015 29.0388C224.971 28.2581 220.92 26.0791 221.07 23.6104C221.879 24.0595 224.126 24.9358 226.642 24.8441C224.432 23.3507 220.646 20.2382 223.187 19.735C226.332 16.1645 233.735 9.27005 238.192 10.2569C242.675 8.75892 251.348 4.37755 250.178 -1.16377C251.89 1.64785 253.845 8.74129 247.967 14.622C250.405 15.7989 255.363 18.889 255.686 21.8334C258.862 21.2042 265.181 18.3869 265.057 12.1504C266.292 15.9376 266.233 23.8093 256.122 24.9995C256.205 27.0838 255.617 31.2591 252.604 31.2869C257.18 31.7012 266.992 31.9935 269.632 29.8441C267.38 32.4925 260.535 37.074 251.172 34.2131C248.536 36.2939 242.28 40.1215 238.346 38.7873C241.344 41.0726 251.245 45.4194 266.86 44.5213C259.835 46.5566 243.164 48.3218 232.68 39.0965C229.92 39.7793 221.921 40.6188 212.009 38.5169C213.317 41.1036 217.394 46.9836 223.246 49.8083C218.308 48.4831 208.274 44.258 207.652 37.9573C203.065 37.714 192.716 35.9363 188.009 30.7702L185.881 30.6864C193.593 40.8335 204.313 49.4543 216.969 55.4698C239.327 59.8529 251.595 55.5496 255.076 52.625C247.642 59.3109 239.156 61.2634 233.303 61.446C237.293 62.5011 241.404 63.3115 245.611 63.8517C251.473 64.6037 257.214 64.7927 262.761 64.4658C283.272 33.6547 273.308 12.5948 265.446 5.74775C283.909 20.4746 278.647 47.1256 272.383 63.3565C281.89 61.7056 290.629 58.4857 298.174 53.9798C300.961 48.225 302.565 40.6067 303.111 36.5014C304.525 40.8402 304.878 45.738 304.839 49.4223C309.213 46.0097 313.032 42.0959 316.182 37.7576C315.969 16.7158 302.334 1.75895 294.864 -3.43521C309.754 3.53632 318.734 15.6985 323.152 24.5794C324.267 21.4429 325.085 18.1709 325.576 14.7815C322.964 10.5422 318.104 5.18363 315.223 2.2884C319.704 4.49777 323.464 7.89629 326.005 10.717C326.012 10.616 326.018 10.515 326.024 10.4139C326.152 8.30532 326.153 6.20483 326.034 4.11788C313.923 -5.37192 296.446 -12.5611 276.747 -15.0898C274.206 -15.416 271.761 -15.6475 269.411 -15.7889C285.865 -9.07684 297.255 8.86764 296.075 28.3441C295.847 32.0951 295.168 35.6713 294.097 39.0181C293.536 29.9003 290.254 20.6168 284.192 12.0714C282.575 -0.238257 268.241 -11.8661 248.982 -16.9388C257.569 -16.7482 266.585 -18.5206 274.806 -22.4364C284.567 -27.0863 291.472 -33.932 294.9 -41.3985C293.05 -38.1751 290.199 -34.9853 286.492 -32.2421C278.384 -26.243 268.659 -24.2151 262.372 -26.6992ZM262.372 -26.6992C267.775 -28.5497 272.191 -31.4683 275.101 -35.3856C275.207 -32.7196 274.446 -30.4431 272.714 -28.7392C271.087 -27.1382 268.745 -26.1809 265.875 -25.8185C264.624 -25.982 263.447 -26.2744 262.372 -26.6992ZM276.651 -56.6093L276.65 -56.6108C283.845 -53.7208 290.506 -50.0084 296.456 -45.6498C290.506 -50.0082 283.845 -53.7193 276.651 -56.6093ZM277.477 4.08527C280.004 6.65041 282.241 9.32192 284.191 12.0698C283.577 7.39906 281.132 2.82652 277.281 -1.32695C275.01 -1.76222 272.692 -2.13376 270.336 -2.43623C270.235 -2.44918 270.134 -2.46195 270.034 -2.47458C272.657 -0.467275 275.147 1.72059 277.477 4.08527ZM215.451 -7.92814C218.786 -10.4986 224.09 -13.211 225.164 -12.9017C225.452 -10.7869 221.771 -8.67208 221.771 -8.67208C220.277 -8.86378 216.935 -8.25598 215.451 -7.92814Z" fill="#C18279" fill-opacity="0.3"/>
<rect x="3" y="1" width="314" height="48" fill="url(#paint1_linear_2716_71743)" fill-opacity="0.35"/>
</g>
<rect width="3.96753" height="3.96753" transform="matrix(0.705495 0.708714 -0.705495 0.708714 15.3555 21.7998)" fill="url(#paint2_diamond_2716_71743)"/>
<circle cx="5" cy="3" r="2" fill="#5E1B1A"/>
<circle cx="315" cy="3" r="2" fill="#5E1B1A"/>
<circle cx="5" cy="47" r="2" fill="#5E1B1A"/>
<circle cx="315" cy="47" r="2" fill="#5E1B1A"/>
<rect width="3.96753" height="3.96753" transform="matrix(0.705495 0.708714 -0.705495 0.708714 304.799 21.7998)" fill="url(#paint3_diamond_2716_71743)"/>
</g>
<defs>
<filter id="filter0_d_2716_71743" x="0" y="0" width="320" height="54" filterUnits="userSpaceOnUse" color-interpolation-filters="sRGB">
<feFlood flood-opacity="0" result="BackgroundImageFix"/>
<feColorMatrix in="SourceAlpha" type="matrix" values="0 0 0 0 0 0 0 0 0 0 0 0 0 0 0 0 0 0 127 0" result="hardAlpha"/>
<feOffset dy="2"/>
<feGaussianBlur stdDeviation="1.5"/>
<feComposite in2="hardAlpha" operator="out"/>
<feColorMatrix type="matrix" values="0 0 0 0 0 0 0 0 0 0 0 0 0 0 0 0 0 0 0.88 0"/>
<feBlend mode="normal" in2="BackgroundImageFix" result="effect1_dropShadow_2716_71743"/>
<feBlend mode="normal" in="SourceGraphic" in2="effect1_dropShadow_2716_71743" result="shape"/>
</filter>
<linearGradient id="paint0_linear_2716_71743" x1="159.25" y1="1" x2="169.229" y2="48.9437" gradientUnits="userSpaceOnUse">
<stop stop-color="#DC9F29"/>
<stop offset="0.557292" stop-color="#E8B573"/>
<stop offset="1" stop-color="#C38C27"/>
</linearGradient>
<linearGradient id="paint1_linear_2716_71743" x1="160" y1="1" x2="160" y2="49" gradientUnits="userSpaceOnUse">
<stop stop-color="#C83228"/>
<stop offset="0.463542" stop-color="#3E2722" stop-opacity="0.83"/>
<stop offset="0.630208" stop-color="#421714" stop-opacity="0.8"/>
<stop offset="1" stop-color="#E77913"/>
</linearGradient>
<radialGradient id="paint2_diamond_2716_71743" cx="0" cy="0" r="1" gradientUnits="userSpaceOnUse" gradientTransform="translate(1.98377 1.98377) rotate(134.998) scale(3.29925)">
<stop stop-color="white"/>
<stop offset="0.364583" stop-color="#EAD5B7"/>
<stop offset="0.708333" stop-color="#EBD7BA"/>
<stop offset="1" stop-color="#EEE6D0"/>
</radialGradient>
<radialGradient id="paint3_diamond_2716_71743" cx="0" cy="0" r="1" gradientUnits="userSpaceOnUse" gradientTransform="translate(1.98377 1.98377) rotate(134.998) scale(3.29925)">
<stop stop-color="white"/>
<stop offset="0.364583" stop-color="#EAD5B7"/>
<stop offset="0.708333" stop-color="#EBD7BA"/>
<stop offset="1" stop-color="#EEE6D0"/>
</radialGradient>
</defs>
</svg>
