<svg width="106" height="83" viewBox="0 0 106 83" fill="none" xmlns="http://www.w3.org/2000/svg">
<path d="M102.218 17.9846C100.387 16.1321 97.8092 14.9672 94.9957 14.9672H83.9545C83.0665 14.9704 82.2356 14.4388 81.8537 13.5793L78.5468 6.17601C76.9109 2.50612 73.2727 0.119141 69.237 0.119141H36.861C32.8251 0.119141 29.1872 2.50632 27.548 6.17295V6.17621L24.2442 13.5796C23.8622 14.439 23.0315 14.9704 22.1434 14.9674H11.1023C8.28861 14.9674 5.70751 16.1323 3.87419 17.9848C2.04087 19.8305 0.901367 22.4119 0.901367 25.2223V72.7358C0.901367 75.5462 2.04087 78.1276 3.87419 79.9735C5.70751 81.826 8.28882 82.9909 11.1023 82.9877H57.0943H94.9957C97.8094 82.9909 100.387 81.826 102.218 79.9735C104.057 78.1274 105.197 75.5462 105.197 72.7358V25.2223C105.197 22.4119 104.057 19.8275 102.218 17.9846ZM97.3095 72.7358C97.3095 73.4106 97.0486 73.9835 96.6221 74.4226C96.1829 74.8522 95.6353 75.1006 94.9957 75.1038H57.0943H11.1023C10.4595 75.1006 9.90886 74.8524 9.47599 74.4226C9.04944 73.9835 8.7885 73.4104 8.7885 72.7358V25.2223C8.7885 24.5475 9.04944 23.9747 9.47599 23.5355C9.90886 23.1026 10.4595 22.8576 11.1023 22.8543H22.1436C26.173 22.8543 29.8142 20.4641 31.4503 16.7909L34.7478 9.39083C35.1361 8.53467 35.9637 8.00301 36.8612 8.00301H69.2372C70.1347 8.00301 70.9624 8.53447 71.3474 9.38757L74.6512 16.794C76.2841 20.4639 79.9252 22.8541 83.9547 22.8541H94.9959C95.6357 22.8574 96.1831 23.1024 96.6223 23.5353C97.0488 23.9745 97.3098 24.5505 97.3098 25.2221V72.7358H97.3095Z" fill="#C4C4C4"/>
<path fill-rule="evenodd" clip-rule="evenodd" d="M38.2319 30.4521C42.0334 26.6128 47.3188 24.2226 53.1388 24.2256C58.9558 24.2226 64.2443 26.6127 68.0458 30.4521C71.853 34.2913 74.2113 39.6089 74.2083 45.4549C74.2113 51.3009 71.853 56.6243 68.0458 60.4578C64.2443 64.3 58.9558 66.6872 53.1388 66.6872C47.319 66.6872 42.0334 64.3 38.2319 60.4578C34.4246 56.6243 32.0664 51.3009 32.0693 45.4549C32.0664 39.6089 34.4246 34.2913 38.2319 30.4521ZM55.5517 34.2276C55.5517 32.8469 54.4324 31.7276 53.0517 31.7276C51.671 31.7276 50.5517 32.8469 50.5517 34.2276V42.9307H41.8486C40.4679 42.9307 39.3486 44.05 39.3486 45.4307C39.3486 46.8114 40.4679 47.9307 41.8486 47.9307H50.5517V56.6338C50.5517 58.0145 51.671 59.1338 53.0517 59.1338C54.4324 59.1338 55.5517 58.0145 55.5517 56.6338V47.9307H64.2548C65.6355 47.9307 66.7548 46.8114 66.7548 45.4307C66.7548 44.05 65.6355 42.9307 64.2548 42.9307H55.5517V34.2276Z" fill="#C4C4C4"/>
</svg>
