<svg width="106" height="83" viewBox="0 0 106 83" fill="none" xmlns="http://www.w3.org/2000/svg" preserveAspectRatio="none">
<path d="M102.218 17.9846C100.388 16.1321 97.8095 14.9672 94.9959 14.9672H83.9547C83.0668 14.9704 82.2359 14.4388 81.8539 13.5793L78.547 6.17601C76.9111 2.50612 73.273 0.119141 69.2372 0.119141H36.8613C32.8253 0.119141 29.1874 2.50632 27.5482 6.17295V6.17621L24.2444 13.5796C23.8625 14.439 23.0318 14.9704 22.1436 14.9674H11.1026C8.28886 14.9674 5.70775 16.1323 3.87444 17.9848C2.04112 19.8305 0.901611 22.4119 0.901611 25.2223V72.7358C0.901611 75.5463 2.04112 78.1276 3.87444 79.9735C5.70775 81.826 8.28906 82.9909 11.1026 82.9877H57.0946H94.9959C97.8097 82.9909 100.388 81.826 102.218 79.9735C104.057 78.1274 105.197 75.5463 105.197 72.7358V25.2223C105.197 22.4119 104.057 19.8275 102.218 17.9846ZM97.3098 72.7358C97.3098 73.4106 97.0489 73.9835 96.6223 74.4226C96.1831 74.8522 95.6356 75.1006 94.9959 75.1038H57.0946H11.1026C10.4597 75.1006 9.9091 74.8524 9.47623 74.4226C9.04968 73.9835 8.78874 73.4104 8.78874 72.7358V25.2223C8.78874 24.5475 9.04968 23.9747 9.47623 23.5355C9.9091 23.1026 10.4597 22.8576 11.1026 22.8543H22.1438C26.1733 22.8543 29.8144 20.4641 31.4506 16.7909L34.7481 9.39083C35.1363 8.53467 35.964 8.00301 36.8615 8.00301H69.2374C70.135 8.00301 70.9626 8.53447 71.3476 9.38757L74.6514 16.794C76.2843 20.4639 79.9255 22.8541 83.9549 22.8541H94.9961C95.636 22.8574 96.1833 23.1024 96.6225 23.5353C97.0491 23.9745 97.31 24.5505 97.31 25.2221V72.7358H97.3098Z" fill="white"/>
<path fill-rule="evenodd" clip-rule="evenodd" d="M38.2321 30.4521C42.0336 26.6128 47.3191 24.2226 53.1391 24.2256C58.9561 24.2226 64.2445 26.6127 68.046 30.4521C71.8533 34.2913 74.2115 39.6089 74.2086 45.4549C74.2115 51.3009 71.8533 56.6243 68.046 60.4578C64.2445 64.3 58.9561 66.6872 53.1391 66.6872C47.3193 66.6872 42.0336 64.3 38.2321 60.4578C34.4249 56.6243 32.0666 51.3009 32.0696 45.4549C32.0666 39.6089 34.4249 34.2913 38.2321 30.4521ZM55.552 34.2276C55.552 32.8469 54.4327 31.7276 53.052 31.7276C51.6712 31.7276 50.552 32.8469 50.552 34.2276V42.9307H41.8489C40.4682 42.9307 39.3489 44.05 39.3489 45.4307C39.3489 46.8114 40.4682 47.9307 41.8489 47.9307H50.552V56.6338C50.552 58.0145 51.6712 59.1338 53.052 59.1338C54.4327 59.1338 55.552 58.0145 55.552 56.6338V47.9307H64.255C65.6357 47.9307 66.755 46.8114 66.755 45.4307C66.755 44.05 65.6357 42.9307 64.255 42.9307H55.552V34.2276Z" fill="white"/>
</svg>
