<svg width="10" height="11" viewBox="0 0 10 11" fill="none" xmlns="http://www.w3.org/2000/svg">
<path d="M5 0.40625C2.32422 0.40625 0.15625 2.57422 0.15625 5.25C0.15625 7.92578 2.32422 10.0938 5 10.0938C7.67578 10.0938 9.84375 7.92578 9.84375 5.25C9.84375 2.57422 7.67578 0.40625 5 0.40625ZM5 9.15625C2.83203 9.15625 1.09375 7.41797 1.09375 5.25C1.09375 3.10156 2.83203 1.34375 5 1.34375C7.14844 1.34375 8.90625 3.10156 8.90625 5.25C8.90625 7.41797 7.14844 9.15625 5 9.15625ZM6.19141 7.125C6.30859 7.20312 6.44531 7.18359 6.52344 7.06641L6.89453 6.57812C6.97266 6.46094 6.95312 6.32422 6.83594 6.24609L5.54688 5.28906V2.51562C5.54688 2.39844 5.42969 2.28125 5.3125 2.28125H4.6875C4.55078 2.28125 4.45312 2.39844 4.45312 2.51562V5.73828C4.45312 5.79688 4.47266 5.875 4.53125 5.91406L6.19141 7.125Z" fill="#F8F8F8"/>
</svg>
