<svg width="280" height="54" viewBox="0 0 280 54" fill="none" xmlns="http://www.w3.org/2000/svg">
<g filter="url(#filter0_d_3312_68694)">
<rect x="6.5" y="0.5" width="271" height="45" rx="2.5" fill="#FEFDF9" stroke="#464C5A"/>
<rect x="10" y="3.66699" width="264" height="38" rx="1" fill="#FEFDF9" stroke="#464C5A" stroke-width="2"/>
<path d="M98.936 20.88V24.198H102.254V25.682H98.936V29H97.354V25.682H94.036V24.198H97.354V20.88H98.936ZM116.793 18.402H118.795V22.238C118.795 24.646 118.207 26.4567 117.031 27.67C115.865 28.874 114.017 29.5973 111.487 29.84L111.095 28.118C113.251 27.8567 114.74 27.3013 115.561 26.452C116.383 25.6027 116.793 24.212 116.793 22.28V18.402ZM109.751 24.702V18.402H111.711V24.702H109.751ZM123.793 20.46V18.738H132.753V20.46C132.1 21.916 131.195 23.288 130.037 24.576C131.531 25.92 132.837 27.152 133.957 28.272L132.669 29.546C131.307 28.1833 130.014 26.9467 128.791 25.836C127.177 27.3293 125.38 28.538 123.401 29.462L122.561 27.922C124.437 26.998 126.061 25.9013 127.433 24.632C128.805 23.3627 129.883 21.972 130.667 20.46H123.793ZM138.451 18.178H140.411V22.098C142.838 22.686 145.377 23.4653 148.027 24.436L147.439 26.2C145.106 25.332 142.763 24.604 140.411 24.016V29.742H138.451V18.178ZM160.977 27.838L161.131 29.42C159.899 29.6067 158.686 29.7 157.491 29.7C155.737 29.7 154.472 29.49 153.697 29.07C152.923 28.6593 152.535 28.0153 152.535 27.138C152.535 26.438 152.857 25.794 153.501 25.206C154.155 24.6087 155.135 24.1 156.441 23.68C156.227 23.2227 155.83 22.994 155.251 22.994C154.262 22.994 153.091 23.9413 151.737 25.836L150.267 24.954C151.359 23.4327 152.213 21.9953 152.829 20.642H150.435V19.158H153.445C153.632 18.6633 153.814 18.1453 153.991 17.604L155.797 17.94C155.685 18.276 155.536 18.682 155.349 19.158H161.173V20.642H154.747C154.635 20.9033 154.458 21.2953 154.215 21.818L154.229 21.846C154.743 21.6407 155.223 21.538 155.671 21.538C156.922 21.538 157.767 22.098 158.205 23.218C159.204 23.0127 160.193 22.854 161.173 22.742L161.313 24.282C160.492 24.3753 159.577 24.5247 158.569 24.73C158.653 25.346 158.695 26.0693 158.695 26.9H156.833C156.833 26.1813 156.815 25.6167 156.777 25.206C156.012 25.458 155.424 25.738 155.013 26.046C154.612 26.3447 154.411 26.6433 154.411 26.942C154.411 27.2033 154.481 27.418 154.621 27.586C154.761 27.7447 155.065 27.88 155.531 27.992C155.998 28.104 156.651 28.16 157.491 28.16C158.443 28.16 159.605 28.0527 160.977 27.838ZM170.063 26.242H174.095V25.052H170.063V26.242ZM170.063 22.812V23.582H175.971V27.628H170.063H168.243V18.78H170.735C170.866 18.3973 171.001 17.912 171.141 17.324L172.975 17.492C172.835 18.0427 172.719 18.472 172.625 18.78H175.635V22.812H170.063ZM170.063 21.412H173.773V20.292H170.063V21.412ZM167.739 20.474L166.549 21.566C165.803 20.726 164.995 19.872 164.127 19.004L165.359 17.912C166.218 18.78 167.011 19.634 167.739 20.474ZM163.931 22.798H167.235V27.208C167.459 27.5907 167.735 27.8753 168.061 28.062C168.388 28.2393 168.915 28.37 169.643 28.454C170.371 28.538 171.454 28.58 172.891 28.58H176.615L176.531 30.12H172.835C170.997 30.12 169.601 30.022 168.649 29.826C167.707 29.63 167.002 29.2893 166.535 28.804C165.975 29.3267 165.317 29.84 164.561 30.344L163.707 28.874C164.351 28.4633 164.939 28.034 165.471 27.586V24.338H163.931V22.798ZM186.723 29.14V29.938H185.001V18.542H190.335V29.938H188.515V29.14H186.723ZM188.515 27.6V20.138H186.723V27.6H188.515ZM180.353 29.798L180.269 28.09C180.997 28.1833 181.525 28.23 181.851 28.23C182.019 28.23 182.15 28.1133 182.243 27.88C182.337 27.6373 182.411 27.082 182.467 26.214C182.533 25.3367 182.565 24.058 182.565 22.378V21.272H181.235C181.123 23.6053 180.881 25.4207 180.507 26.718C180.143 28.0153 179.574 29.1727 178.799 30.19L177.511 28.692C178.118 27.8333 178.566 26.8813 178.855 25.836C179.154 24.7907 179.35 23.2693 179.443 21.272H177.861V19.648H179.499C179.509 19.2 179.513 18.4767 179.513 17.478H181.305C181.305 18.4767 181.301 19.2 181.291 19.648H184.343V21.188C184.343 23.2413 184.315 24.842 184.259 25.99C184.213 27.138 184.11 28.0107 183.951 28.608C183.793 29.2053 183.615 29.574 183.419 29.714C183.223 29.8633 182.934 29.938 182.551 29.938C182.178 29.938 181.445 29.8913 180.353 29.798Z" fill="#7885BA"/>
</g>
<defs>
<filter id="filter0_d_3312_68694" x="0" y="0" width="280" height="54" filterUnits="userSpaceOnUse" color-interpolation-filters="sRGB">
<feFlood flood-opacity="0" result="BackgroundImageFix"/>
<feColorMatrix in="SourceAlpha" type="matrix" values="0 0 0 0 0 0 0 0 0 0 0 0 0 0 0 0 0 0 127 0" result="hardAlpha"/>
<feOffset dx="-2" dy="4"/>
<feGaussianBlur stdDeviation="2"/>
<feComposite in2="hardAlpha" operator="out"/>
<feColorMatrix type="matrix" values="0 0 0 0 0 0 0 0 0 0 0 0 0 0 0 0 0 0 0.5 0"/>
<feBlend mode="normal" in2="BackgroundImageFix" result="effect1_dropShadow_3312_68694"/>
<feBlend mode="normal" in="SourceGraphic" in2="effect1_dropShadow_3312_68694" result="shape"/>
</filter>
</defs>
</svg>
