<svg width="320" height="54" viewBox="0 0 320 54" fill="none" xmlns="http://www.w3.org/2000/svg">
<g filter="url(#filter0_d_2441_60737)">
<path fill-rule="evenodd" clip-rule="evenodd" d="M309 1H11C11 5.41828 7.41828 9 3 9V41C7.41828 41 11 44.5817 11 49H309C309 44.5817 312.582 41 317 41V9C312.582 9 309 5.41828 309 1Z" fill="url(#paint0_linear_2441_60737)"/>
<path fill-rule="evenodd" clip-rule="evenodd" d="M307 3H13C13 7.41828 9.41828 11 5 11V39C9.41828 39 13 42.5817 13 47H307C307 42.5817 310.582 39 315 39V11C310.582 11 307 7.41828 307 3Z" fill="#F2AF2C"/>
<mask id="mask0_2441_60737" style="mask-type:alpha" maskUnits="userSpaceOnUse" x="5" y="3" width="310" height="44">
<path fill-rule="evenodd" clip-rule="evenodd" d="M307 3H13C13 7.41828 9.41828 11 5 11V39C9.41828 39 13 42.5817 13 47H307C307 42.5817 310.582 39 315 39V11C310.582 11 307 7.41828 307 3Z" fill="#1E5E5E"/>
</mask>
<g mask="url(#mask0_2441_60737)">
<path fill-rule="evenodd" clip-rule="evenodd" d="M55.2629 3.49342C56.2509 3.83174 57.2704 4.13592 58.3186 4.40555C67.0825 7.88991 78.8442 9.31609 91.924 8.27968C91.0324 8.12418 90.0904 7.93546 89.0957 7.71223C77.4736 5.10712 69.4641 -1.31781 68.6634 -7.88334C71.5917 -4.14122 76.5817 -0.674131 82.9946 1.67056C83.5487 1.87341 84.1054 2.06436 84.6621 2.24401C84.1078 0.279075 83.2636 -4.1332 84.1344 -6.80534C83.6236 -4.82785 84.621 0.000204255 92.3987 4.00834C92.637 4.04084 92.8747 4.0712 93.112 4.09949C94.7024 5.0767 96.4563 6.01665 98.3477 6.8883C98.7411 7.07013 99.1359 7.24611 99.53 7.41672C99.6193 7.40362 99.7093 7.39024 99.7992 7.3768C101.504 8.29772 105.875 11.6803 112.626 19.5836C113.504 19.6515 115.815 20.2579 118.028 22.1416C118.451 21.9066 120.248 21.965 124.049 24.0783C128.182 23.7283 135.797 25.2796 133.194 34.2843C132.772 34.5191 131.795 35.0058 131.274 35.0726C130.038 36.3152 127.161 38.6353 125.547 37.9754C125.677 36.5136 125.56 33.8553 124.05 34.9162C122.835 36.5172 119.501 39.9437 115.882 40.8419C117.91 38.2333 121.186 33.1161 118.062 33.5172C117.867 33.9035 117.092 34.8339 115.556 35.4646C115.057 34.4448 113.545 32.5798 111.488 33.2773C111.293 33.6636 110.779 34.5605 110.284 35.0575C110.024 34.3685 108.982 33.057 106.899 33.3245C105.153 33.368 100.736 33.3569 97.0385 32.9646C93.9579 32.6375 87.2625 31.8351 85.128 31.242C84.0646 31.7398 83.4095 33.1967 89.2936 35.0425C89.5436 35.5523 90.0748 37.1099 90.2053 39.2607C91.2253 41.6587 95.5299 47.031 104.591 49.3359C105.046 49.6387 105.983 50.6746 106.088 52.3955C106.337 52.905 107.331 53.4279 109.31 51.4395C108.778 53.4949 106.654 57.4165 102.411 56.6607C101.424 58.4129 98.0048 61.8864 92.2251 61.7615C94.3619 60.9454 98.5965 58.6675 98.44 56.0867C97.5941 56.5561 95.2448 57.4722 92.615 57.3764C94.9256 55.8152 98.8826 52.5614 96.2267 52.0353C92.9395 48.3028 85.2005 41.0954 80.5405 42.127C75.854 40.561 66.7871 35.9808 68.0103 30.1879C66.2207 33.1272 64.1776 40.5426 70.3223 46.6902C67.7731 47.9206 62.5904 51.1509 62.2522 54.229C58.9328 53.5713 52.3262 50.626 52.4559 44.1065C51.1653 48.0655 51.2266 56.2946 61.7967 57.5389C61.7102 59.7177 62.3247 64.0826 65.4748 64.1116C60.6909 64.5447 50.4334 64.8503 47.6735 62.6033C50.0277 65.3719 57.1832 70.1614 66.972 67.1706C69.7274 69.3459 76.2667 73.3472 80.3802 71.9524C77.2453 74.3415 66.8948 78.8856 50.5711 77.9468C57.9151 80.0745 75.3432 81.9198 86.3029 72.2757C89.1886 72.9896 97.55 73.8671 107.912 71.6698C106.545 74.374 102.283 80.5209 96.1648 83.4737C101.328 82.0884 111.817 77.6715 112.467 71.0848C117.262 70.8304 128.081 68.9721 133.002 63.5715L135.227 63.4838C127.164 74.0915 115.957 83.1037 102.727 89.3922C79.3545 93.9743 66.5296 89.4757 62.8907 86.4183C70.6612 93.4077 79.5328 95.4488 85.6513 95.6397C81.4802 96.7427 77.183 97.5899 72.7852 98.1546C66.6569 98.9408 60.6552 99.1383 54.8565 98.7966C33.4148 66.5869 43.8305 44.5711 52.0499 37.4132C32.7486 52.8085 38.2495 80.6693 44.7974 97.6369C34.8594 95.9111 25.724 92.545 17.8364 87.8346C14.923 81.8186 13.2459 73.8544 12.6751 69.5628C11.1964 74.0986 10.8275 79.2186 10.8684 83.0702C6.29603 79.5027 2.30318 75.4113 -0.989474 70.8761C-0.766731 48.8791 13.487 33.2433 21.2958 27.8134C5.73035 35.1014 -3.65689 47.8156 -8.27539 57.0997C-9.4416 53.8208 -10.2961 50.4002 -10.8103 46.857C-8.07884 42.4253 -2.999 36.8235 0.0130245 33.7968C-4.67158 36.1065 -8.60189 39.6593 -11.2582 42.608C-11.2651 42.5025 -11.2718 42.3969 -11.2783 42.2912C-11.4119 40.0868 -11.4133 37.891 -11.2886 35.7093C1.37261 25.7888 19.6424 18.2733 40.2354 15.6298C42.8916 15.2888 45.4474 15.0467 47.9048 14.8989C30.7039 21.9157 18.7967 40.6747 20.0305 61.0352C20.2681 64.9565 20.9785 68.695 22.0976 72.1937C22.6845 62.662 26.115 52.9572 32.453 44.0239C34.1429 31.1555 49.1279 18.9998 69.2605 13.6968C60.2845 13.8961 50.8591 12.0432 42.2651 7.94965C32.0604 3.08871 24.8419 -4.06771 21.2586 -11.8731C23.1921 -8.50343 26.1726 -5.16877 30.0484 -2.30114C38.5246 3.97026 48.6906 6.09031 55.2629 3.49342ZM55.2618 3.49301C49.6135 1.55851 44.9984 -1.49223 41.9561 -5.5873C41.8451 -2.80027 42.6412 -0.420432 44.4512 1.36075C46.152 3.03446 48.6013 4.03525 51.6008 4.41408C52.9086 4.24311 54.1378 3.93703 55.2618 3.49301ZM40.3364 -27.7744L40.3372 -27.776C32.8154 -24.7548 25.8525 -20.8739 19.6317 -16.3174L19.632 -16.3162C25.8525 -20.8725 32.8151 -24.7532 40.3364 -27.7744ZM39.4728 35.6752C36.8312 38.3568 34.4924 41.1496 32.4542 44.0222C33.0961 39.1395 35.6519 34.3594 39.6769 30.0173C42.0513 29.5623 44.4746 29.1739 46.9379 28.8577C47.0431 28.8442 47.1483 28.8308 47.2533 28.8176C44.5114 30.916 41.9079 33.2032 39.4728 35.6752ZM104.314 23.1165C100.828 20.4293 95.2827 17.5939 94.1596 17.9172C93.8588 20.128 97.7075 22.3388 97.7075 22.3388C99.2691 22.1384 102.762 22.7738 104.314 23.1165Z" fill="#83574D" fill-opacity="0.2"/>
<path fill-rule="evenodd" clip-rule="evenodd" d="M262.372 -26.6992C261.427 -26.3755 260.452 -26.0846 259.449 -25.8267C251.066 -22.4936 239.815 -21.1293 227.303 -22.1207C228.156 -22.2695 229.057 -22.45 230.008 -22.6636C241.126 -25.1555 248.788 -31.3015 249.554 -37.5819C246.752 -34.0023 241.979 -30.6858 235.845 -28.4429C235.315 -28.2488 234.782 -28.0662 234.25 -27.8943C234.78 -29.774 235.587 -33.9946 234.754 -36.5508C235.243 -34.6591 234.289 -30.0407 226.849 -26.2066C226.621 -26.1755 226.394 -26.1465 226.167 -26.1194C224.645 -25.1846 222.967 -24.2855 221.158 -23.4517C220.782 -23.2778 220.404 -23.1094 220.027 -22.9462C219.942 -22.9588 219.856 -22.9716 219.77 -22.9844C218.139 -22.1035 213.958 -18.8677 207.5 -11.3077C206.66 -11.2427 204.449 -10.6626 202.332 -8.86074C201.927 -9.08556 200.209 -9.02961 196.573 -7.00815C192.619 -7.34296 185.335 -5.859 187.825 2.7547C188.229 2.97935 189.163 3.44487 189.661 3.50879C190.844 4.69741 193.596 6.91679 195.14 6.28552C195.015 4.88718 195.128 2.34435 196.572 3.35919C197.734 4.89069 200.924 8.16839 204.385 9.02753C202.445 6.53223 199.312 1.63729 202.3 2.02097C202.487 2.39049 203.228 3.28048 204.697 3.88378C205.174 2.90828 206.621 1.1242 208.589 1.79148C208.775 2.161 209.267 3.0189 209.74 3.49431C209.989 2.83522 210.985 1.58071 212.978 1.83655C214.649 1.87823 218.874 1.8676 222.411 1.49229C225.357 1.17938 231.762 0.411854 233.804 -0.155492C234.821 0.320725 235.448 1.71439 229.819 3.48001C229.58 3.96764 229.072 5.45764 228.947 7.51506C227.971 9.80888 223.854 14.9479 215.186 17.1528C214.751 17.4424 213.854 18.4334 213.754 20.0795C213.516 20.5669 212.565 21.067 210.672 19.165C211.181 21.1311 213.212 24.8825 217.271 24.1595C218.216 25.8356 221.486 29.1583 227.015 29.0388C224.971 28.2581 220.92 26.0791 221.07 23.6104C221.879 24.0595 224.126 24.9358 226.642 24.8441C224.432 23.3507 220.646 20.2382 223.187 19.735C226.332 16.1645 233.735 9.27004 238.192 10.2569C242.675 8.75892 251.348 4.37755 250.178 -1.16377C251.89 1.64785 253.845 8.74129 247.967 14.622C250.405 15.7989 255.363 18.889 255.686 21.8334C258.862 21.2042 265.181 18.3869 265.057 12.1504C266.292 15.9376 266.233 23.8093 256.122 24.9995C256.205 27.0838 255.617 31.2591 252.604 31.2869C257.18 31.7012 266.992 31.9935 269.632 29.8441C267.38 32.4925 260.535 37.074 251.172 34.2131C248.536 36.2939 242.28 40.1215 238.346 38.7873C241.344 41.0726 251.245 45.4194 266.86 44.5213C259.835 46.5566 243.164 48.3218 232.68 39.0965C229.92 39.7793 221.921 40.6188 212.009 38.5169C213.317 41.1036 217.394 46.9836 223.246 49.8083C218.308 48.4831 208.274 44.258 207.652 37.9573C203.065 37.714 192.716 35.9363 188.009 30.7702L185.881 30.6864C193.593 40.8335 204.313 49.4543 216.969 55.4698C239.327 59.8529 251.595 55.5496 255.076 52.625C247.642 59.3109 239.156 61.2634 233.303 61.446C237.293 62.5011 241.404 63.3115 245.611 63.8517C251.473 64.6038 257.214 64.7927 262.761 64.4658C283.272 33.6547 273.308 12.5948 265.446 5.74774C283.909 20.4745 278.647 47.1256 272.383 63.3565C281.89 61.7056 290.629 58.4857 298.174 53.9798C300.961 48.225 302.565 40.6067 303.111 36.5014C304.525 40.8402 304.878 45.738 304.839 49.4223C309.213 46.0097 313.032 42.0959 316.182 37.7576C315.969 16.7158 302.334 1.75895 294.864 -3.43521C309.754 3.53632 318.734 15.6985 323.152 24.5794C324.267 21.4429 325.085 18.1709 325.576 14.7815C322.964 10.5422 318.104 5.18363 315.223 2.2884C319.704 4.49777 323.464 7.89629 326.005 10.717C326.012 10.6161 326.018 10.515 326.024 10.4139C326.152 8.30532 326.153 6.20483 326.034 4.11788C313.923 -5.37192 296.446 -12.5611 276.747 -15.0898C274.206 -15.416 271.761 -15.6475 269.411 -15.7889C285.865 -9.07684 297.255 8.86764 296.075 28.3441C295.847 32.0951 295.168 35.6713 294.097 39.0181C293.536 29.9003 290.254 20.6168 284.192 12.0714C282.575 -0.238256 268.241 -11.8661 248.982 -16.9388C257.569 -16.7482 266.585 -18.5206 274.806 -22.4364C284.567 -27.0863 291.472 -33.932 294.9 -41.3985C293.05 -38.1751 290.199 -34.9853 286.492 -32.2421C278.384 -26.243 268.659 -24.2151 262.372 -26.6992ZM262.372 -26.6992C267.775 -28.5497 272.191 -31.4683 275.101 -35.3856C275.207 -32.7196 274.446 -30.4431 272.714 -28.7392C271.087 -27.1382 268.745 -26.1809 265.875 -25.8185C264.624 -25.982 263.447 -26.2744 262.372 -26.6992ZM276.651 -56.6093L276.65 -56.6108C283.845 -53.7208 290.506 -50.0084 296.456 -45.6498C290.506 -50.0082 283.845 -53.7193 276.651 -56.6093ZM277.477 4.08527C280.004 6.65041 282.241 9.32192 284.191 12.0698C283.577 7.39906 281.132 2.82652 277.281 -1.32696C275.01 -1.76222 272.692 -2.13376 270.336 -2.43624C270.235 -2.44918 270.134 -2.46195 270.034 -2.47458C272.657 -0.467274 275.147 1.72059 277.477 4.08527ZM215.451 -7.92814C218.786 -10.4986 224.09 -13.211 225.164 -12.9017C225.452 -10.7869 221.771 -8.67208 221.771 -8.67208C220.277 -8.86378 216.935 -8.25598 215.451 -7.92814Z" fill="#83544D" fill-opacity="0.2"/>
<rect x="3" y="1" width="314" height="48" fill="url(#paint1_linear_2441_60737)" fill-opacity="0.35"/>
</g>
<rect width="3.96753" height="3.96753" transform="matrix(0.705495 0.708714 -0.705495 0.708714 15.3555 21.8)" fill="url(#paint2_diamond_2441_60737)"/>
<circle cx="5" cy="3" r="2" fill="#5E1B1A"/>
<circle cx="315" cy="3" r="2" fill="#5E1B1A"/>
<circle cx="5" cy="47" r="2" fill="#5E1B1A"/>
<circle cx="315" cy="47" r="2" fill="#5E1B1A"/>
<rect width="3.96753" height="3.96753" transform="matrix(0.705495 0.708714 -0.705495 0.708714 304.799 21.8)" fill="url(#paint3_diamond_2441_60737)"/>
<path d="M94.12 20.4L81.8 20.4L81.8 17.86L93.8 17.86C93.8267 17.06 94.1267 16.3867 94.7 15.84C95.2867 15.28 95.9867 15 96.8 15C97.6267 15 98.3333 15.2933 98.92 15.88C99.5067 16.4667 99.8 17.1733 99.8 18C99.8 18.8133 99.5133 19.5133 98.94 20.1C98.38 20.6733 97.6933 20.9733 96.88 21C96.5067 24.7333 95.2467 27.56 93.1 29.48C90.9667 31.4 87.8667 32.5533 83.8 32.94L83.32 30.46C86.8667 30.1133 89.4867 29.16 91.18 27.6C92.8867 26.04 93.8667 23.64 94.12 20.4ZM97.72 18.92C97.9733 18.6667 98.1 18.36 98.1 18C98.1 17.64 97.9733 17.3333 97.72 17.08C97.4667 16.8267 97.16 16.7 96.8 16.7C96.44 16.7 96.1333 16.8267 95.88 17.08C95.6267 17.3333 95.5 17.64 95.5 18C95.5 18.36 95.6267 18.6667 95.88 18.92C96.1333 19.1733 96.44 19.3 96.8 19.3C97.16 19.3 97.4667 19.1733 97.72 18.92ZM104.94 32.14L102.14 32.14L102.14 17.46L117.86 17.46L117.86 32.14L104.94 32.14ZM104.94 29.7L115.06 29.7L115.06 19.9L104.94 19.9L104.94 29.7ZM135.82 19.74L138.36 20.18C137.587 24.3933 136.033 27.48 133.7 29.44C131.367 31.4 127.867 32.5867 123.2 33L122.8 30.46C126.96 30.1 130 29.1333 131.92 27.56C133.84 25.9867 135.14 23.38 135.82 19.74ZM136.72 18.44L134.84 19.34C134.413 18.46 133.907 17.4933 133.32 16.44L135.2 15.5C135.747 16.5267 136.253 17.5067 136.72 18.44ZM139.8 18.2L137.88 19.12C137.16 17.7333 136.64 16.7467 136.32 16.16L138.24 15.2C138.853 16.32 139.373 17.32 139.8 18.2ZM122.48 21.66C124.227 21.9533 126.427 22.38 129.08 22.94L128.58 25.3C126.193 24.7933 124 24.3733 122 24.04L122.48 21.66ZM123.42 16.8C125.54 17.1467 127.807 17.5667 130.22 18.06L129.72 20.46C127.307 19.9667 125.04 19.5467 122.92 19.2L123.42 16.8ZM144.16 20.68L155.84 20.68L155.84 22.86L151.26 22.86L151.26 29.94L156.32 29.94L156.32 32.12L143.68 32.12L143.68 29.94L148.74 29.94L148.74 22.86L144.16 22.86L144.16 20.68ZM174.34 20.6L167.68 20.6C166.84 22.7333 165.52 24.66 163.72 26.38L161.82 24.76C162.98 23.6133 163.927 22.3 164.66 20.82C165.407 19.3267 165.873 17.8067 166.06 16.26L168.66 16.4C168.607 16.96 168.513 17.56 168.38 18.2L177.2 18.2L177.2 18.66C177.2 23.3133 176.14 26.7467 174.02 28.96C171.9 31.1733 168.493 32.4733 163.8 32.86L163.4 30.46C167.147 30.0867 169.847 29.1667 171.5 27.7C173.167 26.2333 174.113 23.8667 174.34 20.6ZM184.54 16.54L187.34 16.54L187.34 22.14C190.807 22.98 194.433 24.0933 198.22 25.48L197.38 28C194.047 26.76 190.7 25.72 187.34 24.88L187.34 33.06L184.54 33.06L184.54 16.54ZM205.64 20.9L205.64 33.86L202.96 33.86L202.96 25.14C202.427 25.98 201.947 26.6333 201.52 27.1L200.48 24.42C202.533 21.9933 203.907 19.0733 204.6 15.66L207.06 16.14C206.753 17.9133 206.28 19.5 205.64 20.9ZM219.4 19.6L213.8 19.6L213.8 22.5L218.8 22.5L218.8 24.7L213.8 24.7L213.8 27.66L218.8 27.66L218.8 29.94L213.8 29.94L213.8 33.86L211.06 33.86L211.06 19.6L210.78 19.6C209.953 21.5733 209.013 23.3867 207.96 25.04L205.84 23.42C207.427 20.9533 208.667 18.2933 209.56 15.44L212.1 15.96C212.007 16.28 211.853 16.76 211.64 17.4L219.4 17.4L219.4 19.6ZM229.84 21.76C229.84 23.2 229.833 24.36 229.82 25.24C229.807 26.1067 229.76 26.8867 229.68 27.58C229.613 28.26 229.54 28.76 229.46 29.08C229.38 29.3867 229.233 29.64 229.02 29.84C228.82 30.04 228.62 30.16 228.42 30.2C228.233 30.2267 227.947 30.24 227.56 30.24C227.133 30.24 226.247 30.1933 224.9 30.1L224.62 27.96C225.553 28.0533 226.22 28.1 226.62 28.1C227.033 28.1 227.28 27.9067 227.36 27.52C227.453 27.12 227.5 25.8933 227.5 23.84L224.66 23.84L224.66 24.16C224.66 26.28 224.473 28.1 224.1 29.62C223.727 31.14 223.133 32.5533 222.32 33.86L220.5 31.5C221.127 30.26 221.547 29.0133 221.76 27.76C221.987 26.4933 222.1 24.66 222.1 22.26L222.1 17.56L230.04 17.56C230.013 16.7067 230 16.04 230 15.56L232.5 15.56C232.5 16.04 232.513 16.7067 232.54 17.56L234.86 17.56C234.433 17.04 233.953 16.4933 233.42 15.92L235.46 15.06C236.22 15.8733 236.913 16.7067 237.54 17.56L238.74 17.56L238.74 19.76L232.68 19.76C232.88 21.9333 233.24 23.9133 233.76 25.7C234.56 24.34 235.16 22.7867 235.56 21.04L237.86 21.68C237.273 24.24 236.24 26.5 234.76 28.46C235.093 29.1933 235.42 29.7667 235.74 30.18C236.073 30.5933 236.313 30.8 236.46 30.8C236.847 30.8 237.14 29.6667 237.34 27.4L239.54 28.28C239.42 30.12 239.107 31.4867 238.6 32.38C238.093 33.2867 237.493 33.74 236.8 33.74C236.213 33.74 235.58 33.46 234.9 32.9C234.22 32.34 233.573 31.5267 232.96 30.46C231.493 31.8067 229.847 32.8067 228.02 33.46L226.96 31.34C228.893 30.6467 230.54 29.5867 231.9 28.16C230.993 25.7733 230.413 22.9733 230.16 19.76L224.66 19.76L224.66 21.76L229.84 21.76Z" fill="white"/>
<path d="M94.12 20.4L96.1139 20.5559L96.2825 18.4L94.12 18.4L94.12 20.4ZM81.8 20.4L79.8 20.4L79.8 22.4L81.8 22.4L81.8 20.4ZM81.8 17.86L81.8 15.86L79.8 15.86L79.8 17.86L81.8 17.86ZM93.8 17.86L93.8 19.86L95.7344 19.86L95.7989 17.9266L93.8 17.86ZM94.7 15.84L96.0802 17.2875L96.081 17.2867L94.7 15.84ZM98.94 20.1L97.5096 18.7021L97.5092 18.7025L98.94 20.1ZM96.88 21L96.8145 19.0011L95.0642 19.0585L94.8899 20.801L96.88 21ZM93.1 29.48L91.7667 27.9893L91.7621 27.9934L93.1 29.48ZM83.8 32.94L81.8364 33.32L82.1815 35.1029L83.9893 34.931L83.8 32.94ZM83.32 30.46L83.1254 28.4695L80.939 28.6832L81.3564 30.84L83.32 30.46ZM91.18 27.6L89.8306 26.1238L89.8249 26.1291L91.18 27.6ZM94.12 18.4L81.8 18.4L81.8 22.4L94.12 22.4L94.12 18.4ZM83.8 20.4L83.8 17.86L79.8 17.86L79.8 20.4L83.8 20.4ZM81.8 19.86L93.8 19.86L93.8 15.86L81.8 15.86L81.8 19.86ZM95.7989 17.9266C95.8083 17.6441 95.8903 17.4684 96.0802 17.2875L93.3198 14.3925C92.363 15.3049 91.845 16.4759 91.8011 17.7934L95.7989 17.9266ZM96.081 17.2867C96.2944 17.083 96.4994 17 96.8 17L96.8 13C95.474 13 94.2789 13.477 93.319 14.3933L96.081 17.2867ZM96.8 17C97.0941 17 97.2927 17.0811 97.5058 17.2942L100.334 14.4658C99.374 13.5056 98.1593 13 96.8 13L96.8 17ZM97.5058 17.2942C97.7189 17.5073 97.8 17.7059 97.8 18L101.8 18C101.8 16.6407 101.294 15.426 100.334 14.4658L97.5058 17.2942ZM97.8 18C97.8 18.2859 97.7213 18.4855 97.5096 18.7021L100.37 21.4979C101.305 20.5411 101.8 19.3408 101.8 18L97.8 18ZM97.5092 18.7025C97.3159 18.9005 97.121 18.991 96.8145 19.0011L96.9455 22.9989C98.2656 22.9556 99.4441 22.4461 100.371 21.4975L97.5092 18.7025ZM94.8899 20.801C94.5509 24.1916 93.439 26.4936 91.7667 27.9893L94.4333 30.9707C97.0544 28.6264 98.4625 25.275 98.8701 21.199L94.8899 20.801ZM91.7621 27.9934C90.0573 29.5277 87.4254 30.5863 83.6107 30.949L83.9893 34.931C88.308 34.5204 91.876 33.2723 94.4379 30.9666L91.7621 27.9934ZM85.7636 32.56L85.2836 30.08L81.3564 30.84L81.8364 33.32L85.7636 32.56ZM83.5146 32.4505C87.2714 32.0833 90.389 31.0481 92.5351 29.0709L89.8249 26.1291C88.5843 27.2719 86.4619 28.1434 83.1254 28.4695L83.5146 32.4505ZM92.5294 29.0762C94.7394 27.0562 95.8371 24.096 96.1139 20.5559L92.1261 20.2441C91.8962 23.184 91.034 25.0238 89.8306 26.1238L92.5294 29.0762ZM99.1342 20.3342C99.7647 19.7038 100.1 18.8875 100.1 18L96.1 18C96.1 17.9405 96.1116 17.8452 96.1565 17.7365C96.2015 17.6276 96.2613 17.5503 96.3058 17.5058L99.1342 20.3342ZM100.1 18C100.1 17.1125 99.7647 16.2962 99.1342 15.6658L96.3058 18.4942C96.2613 18.4497 96.2015 18.3724 96.1565 18.2635C96.1116 18.1548 96.1 18.0595 96.1 18L100.1 18ZM99.1342 15.6658C98.5038 15.0353 97.6875 14.7 96.8 14.7L96.8 18.7C96.7405 18.7 96.6452 18.6884 96.5365 18.6435C96.4276 18.5985 96.3503 18.5387 96.3058 18.4942L99.1342 15.6658ZM96.8 14.7C95.9125 14.7 95.0962 15.0353 94.4658 15.6658L97.2942 18.4942C97.2497 18.5387 97.1724 18.5985 97.0635 18.6435C96.9548 18.6884 96.8595 18.7 96.8 18.7L96.8 14.7ZM94.4658 15.6658C93.8353 16.2962 93.5 17.1125 93.5 18L97.5 18C97.5 18.0595 97.4884 18.1548 97.4435 18.2635C97.3985 18.3724 97.3387 18.4497 97.2942 18.4942L94.4658 15.6658ZM93.5 18C93.5 18.8875 93.8353 19.7038 94.4658 20.3342L97.2942 17.5058C97.3387 17.5503 97.3985 17.6276 97.4435 17.7365C97.4884 17.8452 97.5 17.9405 97.5 18L93.5 18ZM94.4658 20.3342C95.0962 20.9647 95.9125 21.3 96.8 21.3L96.8 17.3C96.8595 17.3 96.9548 17.3116 97.0635 17.3565C97.1724 17.4015 97.2497 17.4613 97.2942 17.5058L94.4658 20.3342ZM96.8 21.3C97.6875 21.3 98.5038 20.9647 99.1342 20.3342L96.3058 17.5058C96.3503 17.4613 96.4276 17.4015 96.5365 17.3565C96.6452 17.3116 96.7405 17.3 96.8 17.3L96.8 21.3ZM102.14 32.14L100.14 32.14L100.14 34.14L102.14 34.14L102.14 32.14ZM102.14 17.46L102.14 15.46L100.14 15.46L100.14 17.46L102.14 17.46ZM117.86 17.46L119.86 17.46L119.86 15.46L117.86 15.46L117.86 17.46ZM117.86 32.14L117.86 34.14L119.86 34.14L119.86 32.14L117.86 32.14ZM104.94 29.7L102.94 29.7L102.94 31.7L104.94 31.7L104.94 29.7ZM115.06 29.7L115.06 31.7L117.06 31.7L117.06 29.7L115.06 29.7ZM115.06 19.9L117.06 19.9L117.06 17.9L115.06 17.9L115.06 19.9ZM104.94 19.9L104.94 17.9L102.94 17.9L102.94 19.9L104.94 19.9ZM104.94 30.14L102.14 30.14L102.14 34.14L104.94 34.14L104.94 30.14ZM104.14 32.14L104.14 17.46L100.14 17.46L100.14 32.14L104.14 32.14ZM102.14 19.46L117.86 19.46L117.86 15.46L102.14 15.46L102.14 19.46ZM115.86 17.46L115.86 32.14L119.86 32.14L119.86 17.46L115.86 17.46ZM117.86 30.14L104.94 30.14L104.94 34.14L117.86 34.14L117.86 30.14ZM104.94 31.7L115.06 31.7L115.06 27.7L104.94 27.7L104.94 31.7ZM117.06 29.7L117.06 19.9L113.06 19.9L113.06 29.7L117.06 29.7ZM115.06 17.9L104.94 17.9L104.94 21.9L115.06 21.9L115.06 17.9ZM102.94 19.9L102.94 29.7L106.94 29.7L106.94 19.9L102.94 19.9ZM135.82 19.74L136.161 17.7693L134.216 17.4324L133.854 19.3727L135.82 19.74ZM138.36 20.18L140.327 20.5411L140.692 18.5542L138.701 18.2093L138.36 20.18ZM133.7 29.44L134.986 30.9714L133.7 29.44ZM123.2 33L121.224 33.3111L121.515 35.1571L123.376 34.9922L123.2 33ZM122.8 30.46L122.628 28.4674L120.491 28.6524L120.824 30.7711L122.8 30.46ZM131.92 27.56L130.652 26.013L131.92 27.56ZM136.72 18.44L137.584 20.2439L139.419 19.3654L138.509 17.5456L136.72 18.44ZM134.84 19.34L133.04 20.2125L133.909 22.0033L135.704 21.1439L134.84 19.34ZM133.32 16.44L132.426 14.6511L130.555 15.5863L131.573 17.4132L133.32 16.44ZM135.2 15.5L136.965 14.56L136.049 12.8394L134.306 13.7111L135.2 15.5ZM139.8 18.2L140.664 20.0036L142.476 19.1354L141.6 17.3275L139.8 18.2ZM137.88 19.12L136.105 20.0416L136.998 21.7606L138.744 20.9236L137.88 19.12ZM136.32 16.16L135.426 14.3711L133.572 15.2981L134.564 17.1177L136.32 16.16ZM138.24 15.2L139.994 14.2394L139.069 12.5495L137.346 13.4111L138.24 15.2ZM122.48 21.66L122.811 19.6876L120.902 19.367L120.519 21.2646L122.48 21.66ZM129.08 22.94L131.037 23.3545L131.451 21.3964L129.493 20.9831L129.08 22.94ZM128.58 25.3L128.165 27.2564L130.122 27.6719L130.537 25.7145L128.58 25.3ZM122 24.04L120.039 23.6446L119.63 25.6727L121.671 26.0128L122 24.04ZM123.42 16.8L123.743 14.8262L121.853 14.5171L121.462 16.3921L123.42 16.8ZM130.22 18.06L132.178 18.4679L132.587 16.5026L130.621 16.1005L130.22 18.06ZM129.72 20.46L129.319 22.4195L131.272 22.8185L131.678 20.8679L129.72 20.46ZM122.92 19.2L120.962 18.7921L120.536 20.8367L122.597 21.1738L122.92 19.2ZM135.479 21.7107L138.019 22.1506L138.701 18.2093L136.161 17.7693L135.479 21.7107ZM136.393 19.8189C135.67 23.7579 134.271 26.3488 132.414 27.9086L134.986 30.9714C137.796 28.6112 139.503 25.0288 140.327 20.5411L136.393 19.8189ZM132.414 27.9086C130.522 29.4978 127.487 30.6125 123.024 31.0078L123.376 34.9922C128.247 34.5608 132.212 33.3022 134.986 30.9714L132.414 27.9086ZM125.176 32.6889L124.776 30.1489L120.824 30.7711L121.224 33.3111L125.176 32.6889ZM122.972 32.4526C127.288 32.0791 130.808 31.057 133.188 29.107L130.652 26.013C129.192 27.2097 126.632 28.1209 122.628 28.4674L122.972 32.4526ZM133.188 29.107C135.614 27.1185 137.061 23.9904 137.786 20.1073L133.854 19.3727C133.219 22.7696 132.066 24.8549 130.652 26.013L133.188 29.107ZM135.856 16.6361L133.976 17.5361L135.704 21.1439L137.584 20.2439L135.856 16.6361ZM136.64 18.4675C136.193 17.5467 135.668 16.546 135.067 15.4668L131.573 17.4132C132.145 18.4407 132.633 19.3733 133.04 20.2125L136.64 18.4675ZM134.214 18.2289L136.094 17.2889L134.306 13.7111L132.426 14.6511L134.214 18.2289ZM133.435 16.44C133.974 17.4532 134.473 18.418 134.931 19.3344L138.509 17.5456C138.034 16.5953 137.519 15.6001 136.965 14.56L133.435 16.44ZM138.936 16.3964L137.016 17.3164L138.744 20.9236L140.664 20.0036L138.936 16.3964ZM139.655 18.1984C138.935 16.8112 138.406 15.8086 138.076 15.2023L134.564 17.1177C134.874 17.6847 135.385 18.6554 136.105 20.0416L139.655 18.1984ZM137.214 17.9489L139.134 16.9889L137.346 13.4111L135.426 14.3711L137.214 17.9489ZM136.486 16.1606C137.088 17.2598 137.592 18.2296 138 19.0725L141.6 17.3275C141.155 16.4104 140.619 15.3802 139.994 14.2394L136.486 16.1606ZM122.149 23.6324C123.858 23.9194 126.028 24.34 128.667 24.8969L129.493 20.9831C126.825 20.42 124.596 19.9873 122.811 19.6876L122.149 23.6324ZM127.123 22.5255L126.623 24.8855L130.537 25.7145L131.037 23.3545L127.123 22.5255ZM128.995 23.3436C126.585 22.832 124.363 22.4062 122.329 22.0672L121.671 26.0128C123.637 26.3404 125.801 26.7547 128.165 27.2564L128.995 23.3436ZM123.961 24.4354L124.441 22.0554L120.519 21.2646L120.039 23.6446L123.961 24.4354ZM123.097 18.7738C125.188 19.1156 127.428 19.5307 129.819 20.0195L130.621 16.1005C128.185 15.6027 125.892 15.1777 123.743 14.8262L123.097 18.7738ZM128.262 17.6521L127.762 20.0521L131.678 20.8679L132.178 18.4679L128.262 17.6521ZM130.121 18.5005C127.685 18.0027 125.392 17.5777 123.243 17.2262L122.597 21.1738C124.688 21.5156 126.928 21.9307 129.319 22.4195L130.121 18.5005ZM124.878 19.6079L125.378 17.2079L121.462 16.3921L120.962 18.7921L124.878 19.6079ZM144.16 20.68L144.16 18.68L142.16 18.68L142.16 20.68L144.16 20.68ZM155.84 20.68L157.84 20.68L157.84 18.68L155.84 18.68L155.84 20.68ZM155.84 22.86L155.84 24.86L157.84 24.86L157.84 22.86L155.84 22.86ZM151.26 22.86L151.26 20.86L149.26 20.86L149.26 22.86L151.26 22.86ZM151.26 29.94L149.26 29.94L149.26 31.94L151.26 31.94L151.26 29.94ZM156.32 29.94L158.32 29.94L158.32 27.94L156.32 27.94L156.32 29.94ZM156.32 32.12L156.32 34.12L158.32 34.12L158.32 32.12L156.32 32.12ZM143.68 32.12L141.68 32.12L141.68 34.12L143.68 34.12L143.68 32.12ZM143.68 29.94L143.68 27.94L141.68 27.94L141.68 29.94L143.68 29.94ZM148.74 29.94L148.74 31.94L150.74 31.94L150.74 29.94L148.74 29.94ZM148.74 22.86L150.74 22.86L150.74 20.86L148.74 20.86L148.74 22.86ZM144.16 22.86L142.16 22.86L142.16 24.86L144.16 24.86L144.16 22.86ZM144.16 22.68L155.84 22.68L155.84 18.68L144.16 18.68L144.16 22.68ZM153.84 20.68L153.84 22.86L157.84 22.86L157.84 20.68L153.84 20.68ZM155.84 20.86L151.26 20.86L151.26 24.86L155.84 24.86L155.84 20.86ZM149.26 22.86L149.26 29.94L153.26 29.94L153.26 22.86L149.26 22.86ZM151.26 31.94L156.32 31.94L156.32 27.94L151.26 27.94L151.26 31.94ZM154.32 29.94L154.32 32.12L158.32 32.12L158.32 29.94L154.32 29.94ZM156.32 30.12L143.68 30.12L143.68 34.12L156.32 34.12L156.32 30.12ZM145.68 32.12L145.68 29.94L141.68 29.94L141.68 32.12L145.68 32.12ZM143.68 31.94L148.74 31.94L148.74 27.94L143.68 27.94L143.68 31.94ZM150.74 29.94L150.74 22.86L146.74 22.86L146.74 29.94L150.74 29.94ZM148.74 20.86L144.16 20.86L144.16 24.86L148.74 24.86L148.74 20.86ZM146.16 22.86L146.16 20.68L142.16 20.68L142.16 22.86L146.16 22.86ZM174.34 20.6L176.335 20.7384L176.484 18.6L174.34 18.6L174.34 20.6ZM167.68 20.6L167.68 18.6L166.318 18.6L165.819 19.8673L167.68 20.6ZM163.72 26.38L162.422 27.9019L163.796 29.0734L165.102 27.826L163.72 26.38ZM161.82 24.76L160.414 23.3376L158.865 24.8688L160.522 26.2819L161.82 24.76ZM164.66 20.82L162.871 19.9256L162.868 19.932L164.66 20.82ZM166.06 16.26L166.168 14.2629L164.299 14.1623L164.074 16.0204L166.06 16.26ZM168.66 16.4L170.651 16.5896L170.849 14.5149L168.768 14.4029L168.66 16.4ZM168.38 18.2L166.422 17.7921L165.92 20.2L168.38 20.2L168.38 18.2ZM177.2 18.2L179.2 18.2L179.2 16.2L177.2 16.2L177.2 18.2ZM174.02 28.96L172.576 27.5766L174.02 28.96ZM163.8 32.86L161.827 33.1888L162.13 35.0044L163.964 34.8532L163.8 32.86ZM163.4 30.46L163.202 28.4699L161.076 28.6817L161.427 30.7888L163.4 30.46ZM171.5 27.7L170.179 26.1986L170.173 26.2038L171.5 27.7ZM174.34 18.6L167.68 18.6L167.68 22.6L174.34 22.6L174.34 18.6ZM165.819 19.8673C165.094 21.7084 163.947 23.3968 162.338 24.934L165.102 27.826C167.093 25.9232 168.586 23.7583 169.541 21.3327L165.819 19.8673ZM165.018 24.8581L163.118 23.2381L160.522 26.2819L162.422 27.9019L165.018 24.8581ZM163.226 26.1824C164.545 24.8782 165.622 23.3837 166.452 21.708L162.868 19.932C162.232 21.2163 161.415 22.3485 160.414 23.3376L163.226 26.1824ZM166.449 21.7144C167.291 20.0305 167.829 18.2901 168.046 16.4996L164.074 16.0204C163.917 17.3232 163.523 18.6228 162.871 19.9256L166.449 21.7144ZM165.952 18.2571L168.552 18.3971L168.768 14.4029L166.168 14.2629L165.952 18.2571ZM166.669 16.2104C166.624 16.6865 166.543 17.2129 166.422 17.7921L170.338 18.6079C170.484 17.9071 170.59 17.2335 170.651 16.5896L166.669 16.2104ZM168.38 20.2L177.2 20.2L177.2 16.2L168.38 16.2L168.38 20.2ZM175.2 18.2L175.2 18.66L179.2 18.66L179.2 18.2L175.2 18.2ZM175.2 18.66C175.2 23.0589 174.192 25.8889 172.576 27.5766L175.464 30.3434C178.088 27.6044 179.2 23.5678 179.2 18.66L175.2 18.66ZM172.576 27.5766C170.935 29.2899 168.093 30.4995 163.636 30.8668L163.964 34.8532C168.893 34.4472 172.865 33.0568 175.464 30.3434L172.576 27.5766ZM165.773 32.5312L165.373 30.1312L161.427 30.7888L161.827 33.1888L165.773 32.5312ZM163.598 32.4501C167.499 32.0614 170.706 31.0781 172.827 29.1961L170.173 26.2038C168.988 27.2552 166.794 28.1119 163.202 28.4699L163.598 32.4501ZM172.821 29.2014C175.037 27.2515 176.089 24.2827 176.335 20.7384L172.345 20.4616C172.137 23.4507 171.296 25.2152 170.179 26.1986L172.821 29.2014ZM184.54 16.54L184.54 14.54L182.54 14.54L182.54 16.54L184.54 16.54ZM187.34 16.54L189.34 16.54L189.34 14.54L187.34 14.54L187.34 16.54ZM187.34 22.14L185.34 22.14L185.34 23.7133L186.869 24.0838L187.34 22.14ZM198.22 25.48L200.117 26.1125L200.732 24.2698L198.908 23.602L198.22 25.48ZM197.38 28L196.683 29.8745L198.623 30.5962L199.277 28.6325L197.38 28ZM187.34 24.88L187.825 22.9397L185.34 22.3184L185.34 24.88L187.34 24.88ZM187.34 33.06L187.34 35.06L189.34 35.06L189.34 33.06L187.34 33.06ZM184.54 33.06L182.54 33.06L182.54 35.06L184.54 35.06L184.54 33.06ZM184.54 18.54L187.34 18.54L187.34 14.54L184.54 14.54L184.54 18.54ZM185.34 16.54L185.34 22.14L189.34 22.14L189.34 16.54L185.34 16.54ZM186.869 24.0838C190.254 24.9038 193.808 25.9941 197.532 27.358L198.908 23.602C195.059 22.1926 191.36 21.0562 187.811 20.1962L186.869 24.0838ZM196.323 24.8475L195.483 27.3675L199.277 28.6325L200.117 26.1125L196.323 24.8475ZM198.077 26.1255C194.676 24.8603 191.259 23.7982 187.825 22.9397L186.855 26.8203C190.141 27.6418 193.417 28.6597 196.683 29.8745L198.077 26.1255ZM185.34 24.88L185.34 33.06L189.34 33.06L189.34 24.88L185.34 24.88ZM187.34 31.06L184.54 31.06L184.54 35.06L187.34 35.06L187.34 31.06ZM186.54 33.06L186.54 16.54L182.54 16.54L182.54 33.06L186.54 33.06ZM205.64 20.9L203.821 20.0685L203.64 20.4645L203.64 20.9L205.64 20.9ZM205.64 33.86L205.64 35.86L207.64 35.86L207.64 33.86L205.64 33.86ZM202.96 33.86L200.96 33.86L200.96 35.86L202.96 35.86L202.96 33.86ZM202.96 25.14L204.96 25.14L204.96 18.2587L201.272 24.068L202.96 25.14ZM201.52 27.1L199.655 27.8235L200.821 30.8281L202.996 28.4495L201.52 27.1ZM200.48 24.42L198.953 23.1281L198.185 24.0355L198.615 25.1435L200.48 24.42ZM204.6 15.66L204.983 13.697L203.035 13.3169L202.64 15.2619L204.6 15.66ZM207.06 16.14L209.031 16.4808L209.364 14.5519L207.443 14.177L207.06 16.14ZM219.4 19.6L219.4 21.6L221.4 21.6L221.4 19.6L219.4 19.6ZM213.8 19.6L213.8 17.6L211.8 17.6L211.8 19.6L213.8 19.6ZM213.8 22.5L211.8 22.5L211.8 24.5L213.8 24.5L213.8 22.5ZM218.8 22.5L220.8 22.5L220.8 20.5L218.8 20.5L218.8 22.5ZM218.8 24.7L218.8 26.7L220.8 26.7L220.8 24.7L218.8 24.7ZM213.8 24.7L213.8 22.7L211.8 22.7L211.8 24.7L213.8 24.7ZM213.8 27.66L211.8 27.66L211.8 29.66L213.8 29.66L213.8 27.66ZM218.8 27.66L220.8 27.66L220.8 25.66L218.8 25.66L218.8 27.66ZM218.8 29.94L218.8 31.94L220.8 31.94L220.8 29.94L218.8 29.94ZM213.8 29.94L213.8 27.94L211.8 27.94L211.8 29.94L213.8 29.94ZM213.8 33.86L213.8 35.86L215.8 35.86L215.8 33.86L213.8 33.86ZM211.06 33.86L209.06 33.86L209.06 35.86L211.06 35.86L211.06 33.86ZM211.06 19.6L213.06 19.6L213.06 17.6L211.06 17.6L211.06 19.6ZM210.78 19.6L210.78 17.6L209.449 17.6L208.935 18.8272L210.78 19.6ZM207.96 25.04L206.746 26.6291L208.476 27.9517L209.647 26.1146L207.96 25.04ZM205.84 23.42L204.158 22.338L203.16 23.8893L204.626 25.0091L205.84 23.42ZM209.56 15.44L209.961 13.4806L208.191 13.1183L207.651 14.8424L209.56 15.44ZM212.1 15.96L214.02 16.52L214.628 14.436L212.501 14.0006L212.1 15.96ZM211.64 17.4L209.743 16.7675L208.865 19.4L211.64 19.4L211.64 17.4ZM219.4 17.4L221.4 17.4L221.4 15.4L219.4 15.4L219.4 17.4ZM203.64 20.9L203.64 33.86L207.64 33.86L207.64 20.9L203.64 20.9ZM205.64 31.86L202.96 31.86L202.96 35.86L205.64 35.86L205.64 31.86ZM204.96 33.86L204.96 25.14L200.96 25.14L200.96 33.86L204.96 33.86ZM201.272 24.068C200.77 24.8585 200.36 25.4042 200.044 25.7505L202.996 28.4495C203.533 27.8624 204.084 27.1015 204.648 26.212L201.272 24.068ZM203.385 26.3764L202.345 23.6964L198.615 25.1435L199.655 27.8235L203.385 26.3764ZM202.007 25.7119C204.298 23.0044 205.806 19.7688 206.56 16.0581L202.64 15.2619C202.007 18.3779 200.769 20.9822 198.953 23.1281L202.007 25.7119ZM204.217 17.623L206.677 18.103L207.443 14.177L204.983 13.697L204.217 17.623ZM205.089 15.7992C204.807 17.4309 204.379 18.8486 203.821 20.0685L207.459 21.7315C208.181 20.1514 208.7 18.3958 209.031 16.4808L205.089 15.7992ZM219.4 17.6L213.8 17.6L213.8 21.6L219.4 21.6L219.4 17.6ZM211.8 19.6L211.8 22.5L215.8 22.5L215.8 19.6L211.8 19.6ZM213.8 24.5L218.8 24.5L218.8 20.5L213.8 20.5L213.8 24.5ZM216.8 22.5L216.8 24.7L220.8 24.7L220.8 22.5L216.8 22.5ZM218.8 22.7L213.8 22.7L213.8 26.7L218.8 26.7L218.8 22.7ZM211.8 24.7L211.8 27.66L215.8 27.66L215.8 24.7L211.8 24.7ZM213.8 29.66L218.8 29.66L218.8 25.66L213.8 25.66L213.8 29.66ZM216.8 27.66L216.8 29.94L220.8 29.94L220.8 27.66L216.8 27.66ZM218.8 27.94L213.8 27.94L213.8 31.94L218.8 31.94L218.8 27.94ZM211.8 29.94L211.8 33.86L215.8 33.86L215.8 29.94L211.8 29.94ZM213.8 31.86L211.06 31.86L211.06 35.86L213.8 35.86L213.8 31.86ZM213.06 33.86L213.06 19.6L209.06 19.6L209.06 33.86L213.06 33.86ZM211.06 17.6L210.78 17.6L210.78 21.6L211.06 21.6L211.06 17.6ZM208.935 18.8272C208.149 20.7051 207.26 22.4162 206.273 23.9654L209.647 26.1146C210.766 24.3571 211.758 22.4416 212.625 20.3728L208.935 18.8272ZM209.174 23.4509L207.054 21.8309L204.626 25.0091L206.746 26.6291L209.174 23.4509ZM207.522 24.502C209.207 21.8818 210.523 19.0584 211.469 16.0376L207.651 14.8424C206.81 17.5282 205.646 20.0249 204.158 22.338L207.522 24.502ZM209.159 17.3994L211.699 17.9194L212.501 14.0006L209.961 13.4806L209.159 17.3994ZM210.18 15.4C210.098 15.682 209.954 16.1325 209.743 16.7675L213.537 18.0325C213.752 17.3875 213.916 16.878 214.02 16.52L210.18 15.4ZM211.64 19.4L219.4 19.4L219.4 15.4L211.64 15.4L211.64 19.4ZM217.4 17.4L217.4 19.6L221.4 19.6L221.4 17.4L217.4 17.4ZM229.84 21.76L231.84 21.76L231.84 19.76L229.84 19.76L229.84 21.76ZM229.82 25.24L231.82 25.2708L231.82 25.2703L229.82 25.24ZM229.68 27.58L227.693 27.3508L227.691 27.3678L227.69 27.3849L229.68 27.58ZM229.46 29.08L231.395 29.5848L231.398 29.575L231.4 29.5651L229.46 29.08ZM229.02 29.84L227.652 28.3809L227.629 28.403L227.606 28.4258L229.02 29.84ZM228.42 30.2L228.703 32.1799L228.758 32.172L228.812 32.1612L228.42 30.2ZM224.9 30.1L222.917 30.3595L223.129 31.9821L224.762 32.0952L224.9 30.1ZM224.62 27.96L224.819 25.9699L222.31 25.719L222.637 28.2195L224.62 27.96ZM227.36 27.52L225.412 27.0655L225.407 27.0901L225.401 27.1148L227.36 27.52ZM227.5 23.84L229.5 23.84L229.5 21.84L227.5 21.84L227.5 23.84ZM224.66 23.84L224.66 21.84L222.66 21.84L222.66 23.84L224.66 23.84ZM224.1 29.62L226.042 30.097L224.1 29.62ZM222.32 33.86L220.736 35.0814L222.496 37.3627L224.018 34.9169L222.32 33.86ZM220.5 31.5L218.715 30.5979L218.146 31.7231L218.916 32.7214L220.5 31.5ZM221.76 27.76L219.791 27.4077L219.79 27.416L219.788 27.4244L221.76 27.76ZM222.1 17.56L222.1 15.56L220.1 15.56L220.1 17.56L222.1 17.56ZM230.04 17.56L230.04 19.56L232.103 19.56L232.039 17.4975L230.04 17.56ZM230 15.56L230 13.56L228 13.56L228 15.56L230 15.56ZM232.5 15.56L234.5 15.56L234.5 13.56L232.5 13.56L232.5 15.56ZM232.54 17.56L230.541 17.6225L230.602 19.56L232.54 19.56L232.54 17.56ZM234.86 17.56L234.86 19.56L239.088 19.56L236.406 16.2914L234.86 17.56ZM233.42 15.92L232.643 14.0771L230.008 15.1881L231.956 17.2822L233.42 15.92ZM235.46 15.06L236.921 13.6945L235.969 12.6751L234.683 13.2171L235.46 15.06ZM237.54 17.56L235.928 18.7438L236.527 19.56L237.54 19.56L237.54 17.56ZM238.74 17.56L240.74 17.56L240.74 15.56L238.74 15.56L238.74 17.56ZM238.74 19.76L238.74 21.76L240.74 21.76L240.74 19.76L238.74 19.76ZM232.68 19.76L232.68 17.76L230.488 17.76L230.688 19.9433L232.68 19.76ZM233.76 25.7L231.84 26.2589L233.135 30.7079L235.484 26.714L233.76 25.7ZM235.56 21.04L236.096 19.1132L234.078 18.5517L233.61 20.5935L235.56 21.04ZM237.86 21.68L239.809 22.1268L240.236 20.2652L238.396 19.7532L237.86 21.68ZM234.76 28.46L233.164 27.2548L232.447 28.2044L232.939 29.2876L234.76 28.46ZM235.74 30.18L234.159 31.4043L234.171 31.42L234.183 31.4355L235.74 30.18ZM237.34 27.4L238.083 25.543L235.584 24.5436L235.348 27.2242L237.34 27.4ZM239.54 28.28L241.536 28.4102L241.63 26.962L240.283 26.423L239.54 28.28ZM238.6 32.38L236.86 31.3933L236.854 31.4044L238.6 32.38ZM234.9 32.9L236.171 31.3561L236.171 31.3561L234.9 32.9ZM232.96 30.46L234.694 29.4631L233.448 27.2966L231.607 28.9868L232.96 30.46ZM228.02 33.46L226.231 34.3544L227.024 35.9403L228.694 35.3432L228.02 33.46ZM226.96 31.34L226.285 29.4574L224.163 30.2183L225.171 32.2344L226.96 31.34ZM231.9 28.16L233.348 29.54L234.217 28.6278L233.77 27.4497L231.9 28.16ZM230.16 19.76L232.154 19.6028L232.009 17.76L230.16 17.76L230.16 19.76ZM224.66 19.76L224.66 17.76L222.66 17.76L222.66 19.76L224.66 19.76ZM224.66 21.76L222.66 21.76L222.66 23.76L224.66 23.76L224.66 21.76ZM227.84 21.76C227.84 23.1954 227.833 24.3441 227.82 25.2097L231.82 25.2703C231.833 24.3759 231.84 23.2046 231.84 21.76L227.84 21.76ZM227.82 25.2092C227.808 26.0247 227.764 26.7368 227.693 27.3508L231.667 27.8092C231.756 27.0365 231.806 26.1887 231.82 25.2708L227.82 25.2092ZM227.69 27.3849C227.625 28.0475 227.562 28.4253 227.52 28.5949L231.4 29.5651C231.518 29.0947 231.602 28.4725 231.67 27.7751L227.69 27.3849ZM227.525 28.5752C227.526 28.5686 227.535 28.5393 227.559 28.4979C227.584 28.4555 227.616 28.4148 227.652 28.3809L230.388 31.2991C230.9 30.8193 231.228 30.2249 231.395 29.5848L227.525 28.5752ZM227.606 28.4258C227.581 28.4509 227.718 28.3009 228.028 28.2388L228.812 32.1612C229.522 32.0191 230.059 31.6291 230.434 31.2542L227.606 28.4258ZM228.137 28.2201C228.138 28.22 228.134 28.2206 228.126 28.2214C228.118 28.2223 228.107 28.2234 228.093 28.2246C228.063 28.2271 228.024 28.2298 227.972 28.2322C227.868 28.237 227.732 28.24 227.56 28.24L227.56 32.24C227.965 32.24 228.369 32.2276 228.703 32.1799L228.137 28.2201ZM227.56 28.24C227.215 28.24 226.399 28.1991 225.038 28.1048L224.762 32.0952C226.094 32.1876 227.052 32.24 227.56 32.24L227.56 28.24ZM226.883 29.8405L226.603 27.7005L222.637 28.2195L222.917 30.3595L226.883 29.8405ZM224.421 29.9501C225.356 30.0436 226.111 30.1 226.62 30.1L226.62 26.1C226.329 26.1 225.75 26.063 224.819 25.9699L224.421 29.9501ZM226.62 30.1C227.131 30.1 227.775 29.9786 228.349 29.5291C228.933 29.0713 229.208 28.4579 229.319 27.9252L225.401 27.1148C225.432 26.9688 225.544 26.6454 225.881 26.3809C226.208 26.1248 226.522 26.1 226.62 26.1L226.62 30.1ZM229.308 27.9745C229.405 27.5567 229.441 26.9571 229.464 26.376C229.488 25.7262 229.5 24.8776 229.5 23.84L225.5 23.84C225.5 24.8557 225.488 25.6471 225.466 26.224C225.442 26.8695 225.408 27.0833 225.412 27.0655L229.308 27.9745ZM227.5 21.84L224.66 21.84L224.66 25.84L227.5 25.84L227.5 21.84ZM222.66 23.84L222.66 24.16L226.66 24.16L226.66 23.84L222.66 23.84ZM222.66 24.16C222.66 26.1719 222.482 27.823 222.158 29.1429L226.042 30.097C226.465 28.377 226.66 26.3881 226.66 24.16L222.66 24.16ZM222.158 29.1429C221.834 30.4615 221.322 31.6787 220.622 32.8031L224.018 34.9169C224.945 33.428 225.619 31.8185 226.042 30.097L222.158 29.1429ZM223.904 32.6386L222.084 30.2786L218.916 32.7214L220.736 35.0814L223.904 32.6386ZM222.285 32.4021C222.994 31.0001 223.482 29.5634 223.732 28.0956L219.788 27.4244C219.612 28.4632 219.26 29.5199 218.715 30.5979L222.285 32.4021ZM223.729 28.1123C223.987 26.6694 224.1 24.6956 224.1 22.26L220.1 22.26C220.1 24.6244 219.986 26.3173 219.791 27.4077L223.729 28.1123ZM224.1 22.26L224.1 17.56L220.1 17.56L220.1 22.26L224.1 22.26ZM222.1 19.56L230.04 19.56L230.04 15.56L222.1 15.56L222.1 19.56ZM232.039 17.4975C232.013 16.6517 232 16.0091 232 15.56L228 15.56C228 16.0709 228.014 16.7616 228.041 17.6225L232.039 17.4975ZM230 17.56L232.5 17.56L232.5 13.56L230 13.56L230 17.56ZM230.5 15.56C230.5 16.0709 230.514 16.7616 230.541 17.6225L234.539 17.4975C234.513 16.6517 234.5 16.0091 234.5 15.56L230.5 15.56ZM232.54 19.56L234.86 19.56L234.86 15.56L232.54 15.56L232.54 19.56ZM236.406 16.2914C235.949 15.7347 235.441 15.1567 234.884 14.5578L231.956 17.2822C232.465 17.83 232.917 18.3453 233.314 18.8286L236.406 16.2914ZM234.197 17.7629L236.237 16.9029L234.683 13.2171L232.643 14.0771L234.197 17.7629ZM233.999 16.4255C234.708 17.1842 235.35 17.9571 235.928 18.7438L239.152 16.3762C238.476 15.4562 237.732 14.5625 236.921 13.6945L233.999 16.4255ZM237.54 19.56L238.74 19.56L238.74 15.56L237.54 15.56L237.54 19.56ZM236.74 17.56L236.74 19.76L240.74 19.76L240.74 17.56L236.74 17.56ZM238.74 17.76L232.68 17.76L232.68 21.76L238.74 21.76L238.74 17.76ZM230.688 19.9433C230.898 22.2226 231.278 24.3307 231.84 26.2589L235.68 25.1411C235.202 23.4959 234.862 21.6441 234.672 19.5767L230.688 19.9433ZM235.484 26.714C236.401 25.1554 237.07 23.4061 237.51 21.4865L233.61 20.5935C233.25 22.1672 232.719 23.5246 232.036 24.686L235.484 26.714ZM235.024 22.9668L237.324 23.6068L238.396 19.7532L236.096 19.1132L235.024 22.9668ZM235.911 21.2332C235.382 23.5377 234.462 25.5352 233.164 27.2548L236.356 29.6652C238.018 27.4648 239.164 24.9423 239.809 22.1268L235.911 21.2332ZM232.939 29.2876C233.306 30.0949 233.707 30.8214 234.159 31.4043L237.321 28.9557C237.133 28.7119 236.88 28.2918 236.581 27.6324L232.939 29.2876ZM234.183 31.4355C234.382 31.6824 234.613 31.9433 234.865 32.1605C234.992 32.2696 235.169 32.407 235.39 32.5251C235.596 32.6353 235.972 32.8 236.46 32.8L236.46 28.8C236.875 28.8 237.166 28.9388 237.275 28.9974C237.4 29.0639 237.468 29.1237 237.475 29.1295C237.487 29.1401 237.431 29.091 237.297 28.9245L234.183 31.4355ZM236.46 32.8C237.65 32.8 238.262 31.9252 238.447 31.6165C238.679 31.2304 238.816 30.8006 238.906 30.4511C239.095 29.72 239.23 28.7368 239.332 27.5758L235.348 27.2242C235.25 28.3298 235.138 29.0467 235.034 29.4489C234.978 29.666 234.956 29.6613 235.018 29.5585C235.051 29.5024 235.157 29.3361 235.371 29.1697C235.607 28.9855 235.982 28.8 236.46 28.8L236.46 32.8ZM236.597 29.257L238.797 30.137L240.283 26.423L238.083 25.543L236.597 29.257ZM237.544 28.1498C237.431 29.8917 237.143 30.8954 236.86 31.3933L240.34 33.3667C241.071 32.0779 241.409 30.3483 241.536 28.4102L237.544 28.1498ZM236.854 31.4044C236.688 31.7021 236.576 31.7954 236.564 31.8043C236.564 31.8049 236.589 31.7857 236.641 31.7676C236.694 31.7488 236.751 31.74 236.8 31.74L236.8 35.74C238.541 35.74 239.678 34.5501 240.346 33.3556L236.854 31.4044ZM236.8 31.74C236.86 31.74 236.666 31.7634 236.171 31.3561L233.629 34.4439C234.494 35.1566 235.567 35.74 236.8 35.74L236.8 31.74ZM236.171 31.3561C235.735 30.9967 235.231 30.3977 234.694 29.4631L231.226 31.4569C231.915 32.6556 232.705 33.6833 233.629 34.4439L236.171 31.3561ZM231.607 28.9868C230.332 30.1577 228.915 31.0158 227.346 31.5768L228.694 35.3432C230.778 34.5975 232.655 33.4556 234.313 31.9332L231.607 28.9868ZM229.809 32.5656L228.749 30.4456L225.171 32.2344L226.231 34.3544L229.809 32.5656ZM227.635 33.2226C229.849 32.4287 231.764 31.2016 233.348 29.54L230.452 26.78C229.316 27.9717 227.938 28.8646 226.285 29.4574L227.635 33.2226ZM233.77 27.4497C232.945 25.28 232.396 22.674 232.154 19.6028L228.166 19.9172C228.431 23.2726 229.041 26.2667 230.03 28.8703L233.77 27.4497ZM230.16 17.76L224.66 17.76L224.66 21.76L230.16 21.76L230.16 17.76ZM222.66 19.76L222.66 21.76L226.66 21.76L226.66 19.76L222.66 19.76ZM224.66 23.76L229.84 23.76L229.84 19.76L224.66 19.76L224.66 23.76Z" fill="url(#paint4_linear_2441_60737)"/>
</g>
<defs>
<filter id="filter0_d_2441_60737" x="0" y="0" width="320" height="54" filterUnits="userSpaceOnUse" color-interpolation-filters="sRGB">
<feFlood flood-opacity="0" result="BackgroundImageFix"/>
<feColorMatrix in="SourceAlpha" type="matrix" values="0 0 0 0 0 0 0 0 0 0 0 0 0 0 0 0 0 0 127 0" result="hardAlpha"/>
<feOffset dy="2"/>
<feGaussianBlur stdDeviation="1.5"/>
<feComposite in2="hardAlpha" operator="out"/>
<feColorMatrix type="matrix" values="0 0 0 0 0 0 0 0 0 0 0 0 0 0 0 0 0 0 0.88 0"/>
<feBlend mode="normal" in2="BackgroundImageFix" result="effect1_dropShadow_2441_60737"/>
<feBlend mode="normal" in="SourceGraphic" in2="effect1_dropShadow_2441_60737" result="shape"/>
</filter>
<linearGradient id="paint0_linear_2441_60737" x1="159.25" y1="1" x2="169.229" y2="48.9437" gradientUnits="userSpaceOnUse">
<stop stop-color="#403D37"/>
<stop offset="0.557292" stop-color="#A95B42"/>
<stop offset="1" stop-color="#634238"/>
</linearGradient>
<linearGradient id="paint1_linear_2441_60737" x1="160" y1="1" x2="160" y2="49" gradientUnits="userSpaceOnUse">
<stop stop-color="#FFF7EB"/>
<stop offset="0.463542" stop-color="#412D06" stop-opacity="0.69"/>
<stop offset="0.630208" stop-color="#492F17" stop-opacity="0.756889"/>
<stop offset="1" stop-color="white"/>
</linearGradient>
<radialGradient id="paint2_diamond_2441_60737" cx="0" cy="0" r="1" gradientUnits="userSpaceOnUse" gradientTransform="translate(1.98377 1.98377) rotate(134.998) scale(3.29925)">
<stop stop-color="white"/>
<stop offset="0.364583" stop-color="#EAD5B7"/>
<stop offset="0.708333" stop-color="#EBD7BA"/>
<stop offset="1" stop-color="#EEE6D0"/>
</radialGradient>
<radialGradient id="paint3_diamond_2441_60737" cx="0" cy="0" r="1" gradientUnits="userSpaceOnUse" gradientTransform="translate(1.98377 1.98377) rotate(134.998) scale(3.29925)">
<stop stop-color="white"/>
<stop offset="0.364583" stop-color="#EAD5B7"/>
<stop offset="0.708333" stop-color="#EBD7BA"/>
<stop offset="1" stop-color="#EEE6D0"/>
</radialGradient>
<linearGradient id="paint4_linear_2441_60737" x1="160" y1="9" x2="160" y2="39" gradientUnits="userSpaceOnUse">
<stop stop-color="#7B1616"/>
<stop offset="0.525488" stop-color="#342422"/>
<stop offset="0.907964" stop-color="#4A201F"/>
</linearGradient>
</defs>
</svg>
