<svg width="596" height="375" viewBox="0 0 596 375" fill="none" xmlns="http://www.w3.org/2000/svg">
<path fill-rule="evenodd" clip-rule="evenodd" d="M223.709 79.3411C226.303 81.0532 229.012 82.6911 231.831 84.2515C254.474 100.825 287.29 113.747 325.745 120.594C323.292 119.479 320.72 118.23 318.021 116.843C286.487 100.645 268.215 76.2041 270.815 56.7719C276.454 69.7035 288.238 83.3942 304.96 94.9341C306.405 95.9319 307.866 96.8976 309.335 97.8308C309.207 91.7789 310.072 78.4899 314.578 71.4796C311.628 76.7678 310.894 91.3644 330.304 108.7C330.966 108.972 331.629 109.238 332.291 109.497C336.142 113.494 340.493 117.507 345.29 121.427C346.287 122.244 347.293 123.045 348.301 123.83C348.568 123.859 348.837 123.889 349.106 123.918C353.33 127.839 363.392 140.822 376.935 168.559C379.415 169.413 385.619 172.888 390.586 179.952C391.981 179.596 397.112 181.112 406.483 190.027C418.652 192.126 439.43 202.294 425.202 226.166C423.809 226.522 420.632 227.185 419.082 226.986C414.591 229.621 404.57 234.116 400.415 231.011C401.882 226.916 403.529 219.204 398.386 221.113C393.691 224.793 381.526 232.117 370.429 231.976C378.221 226.017 391.482 213.8 382.182 212.604C381.331 213.566 378.405 215.653 373.508 216.308C372.834 213.009 369.87 206.524 363.423 206.98C362.573 207.942 360.422 210.129 358.626 211.183C358.39 209.011 356.37 204.467 350.17 203.671C345.106 202.484 332.39 199.136 322.032 195.235C313.402 191.984 294.714 184.655 289.008 181.352C285.573 181.981 282.597 185.668 298.168 195.38C298.507 197.03 298.874 201.896 297.642 208.163C298.789 215.806 307.175 234.447 331.554 247.861C332.639 249.071 334.565 252.746 333.58 257.76C333.918 259.409 336.391 261.655 343.576 257.437C340.509 262.933 331.461 272.587 319.801 267.233C315.647 271.517 303.203 278.913 286.647 274.215C293.412 273.479 307.313 270.125 308.791 262.605C306.003 263.316 298.551 264.18 291.047 261.931C298.87 259.188 312.7 252.826 305.442 249.323C298.762 236.15 281.854 209.667 267.658 209.127C255.328 201.117 232.631 181.173 240.483 165.476C233.132 172.563 221.705 192.298 234.812 214.543C226.549 216.158 209.205 221.532 205.931 230.107C196.859 225.728 180.029 212.32 185.274 193.719C178.597 204.105 172.625 227.753 202.145 239.258C200.267 245.442 198.776 258.423 207.829 260.871C193.724 258.522 163.946 251.697 157.675 243.18C162.388 252.888 179.422 271.998 209.856 270.769C216.168 279.077 232.017 295.463 244.909 294.551C234.092 299.05 200.879 304.312 154.556 289.363C174.123 300.979 222.95 319.357 261.729 299.925C269.509 304.139 292.94 312.934 324.433 314.412C318.475 321.142 301.601 335.571 281.771 339.447C297.68 339.35 331.196 334.557 337.993 316.154C351.995 319.024 384.551 321.818 402.761 310.022L409.237 311.441C378.084 335.812 339.065 353.246 296.254 361.35C225.498 356.943 191.914 334.412 183.716 322.911C200.878 348.791 224.909 361.307 242.393 366.448C229.552 366.48 216.54 365.683 203.449 364.001C185.207 361.655 167.77 357.715 151.321 352.381C113.622 243.9 160.079 188.575 189.106 174.216C121.999 203.881 117.026 287.92 123.21 341.503C95.8702 329.091 72.0685 312.578 52.8661 293.145C48.9689 273.703 50.0892 249.601 51.6518 236.864C44.0025 248.763 39.1137 263.171 36.3535 274.249C25.8473 260.583 17.4022 245.851 11.3059 230.371C28.3854 167.447 81.1312 133.303 107.684 123.592C57.3977 132.808 20.8543 162.227 0.611674 185.387C-0.297691 175.107 -0.203317 164.655 0.963295 154.107C12.1437 143.446 30.9636 131.193 41.9023 124.774C26.6811 127.881 12.7039 135.12 2.84825 141.583C2.90702 141.275 2.96663 140.967 3.02706 140.66C4.28949 134.237 5.9261 127.938 7.91578 121.774C51.8032 102.826 110.05 94.9878 171.349 102.867C179.256 103.884 186.8 105.108 193.989 106.529C139.194 113.74 90.8741 158.604 79.2134 217.928C76.9677 229.353 76.2204 240.609 76.8299 251.484C85.6433 224.586 102.778 199.327 127.712 178.463C142.196 142.823 194.448 119.21 256.409 119.116C230.402 112.948 204.634 100.557 182.936 82.3634C157.171 60.7596 141.724 34.8141 137.234 9.73648C140.286 20.853 146.38 32.6551 155.402 43.79C175.134 68.1414 202.835 81.8548 223.709 79.3411ZM223.706 79.339C208.881 69.5498 197.865 57.3347 192.161 43.3051C189.759 51.2155 190.274 58.639 194.157 65.1067C197.806 71.1841 204.114 75.8935 212.472 79.2321C216.367 79.7237 220.137 79.7686 223.706 79.339ZM154.173 159.788C144.559 165.496 135.735 171.75 127.717 178.459C133.214 164.937 144.149 153.146 158.989 143.714C166.169 144.192 173.44 144.897 180.773 145.84C181.086 145.88 181.399 145.92 181.711 145.961C172.244 149.921 163.035 154.527 154.173 159.788ZM350.35 172.451C342.316 162.127 328.46 149.831 324.983 149.915C322.465 156.03 331.9 165.261 331.9 165.261C336.548 165.858 346.136 170.303 350.35 172.451Z" fill="black" fill-opacity="0.1"/>
<path fill-rule="evenodd" clip-rule="evenodd" d="M535.541 307.023C535.376 311.516 534.969 315.963 534.331 320.349C541.116 313.614 547.45 306.436 553.275 298.869C554.945 296.699 556.574 294.499 558.159 292.267C567.838 278.638 575.908 263.869 582.062 248.253L582.062 248.25C589.737 228.774 594.433 207.983 595.553 186.444C601.039 80.9336 518.649 -2.51366 411.533 0.0578793C346.643 1.6155 287.563 34.3838 249.848 83.4331L249.85 83.4317C287.565 34.3836 346.643 1.61558 411.533 0.0578793C445.419 -0.755706 476.83 7.03994 503.767 21.4185C541.684 49.8315 566.228 94.0594 568.527 145.113C565.985 139.367 563.155 133.788 560.051 128.391C561.051 137.365 561.637 146.482 561.794 155.725C546.369 143.694 527.081 136.109 505.671 134.732L505.672 134.734C527.082 136.111 546.369 143.697 561.794 155.728C561.909 162.554 561.789 169.449 561.428 176.406C560.672 190.964 558.878 205.303 556.125 219.357L556.125 219.36C558.877 205.307 560.669 190.969 561.426 176.417L561.425 176.405C560.669 190.963 558.876 205.302 556.123 219.356C553.021 227.317 549.388 235.046 545.27 242.498C540.564 233.546 534.684 225.337 527.81 218.053C528.113 271.775 503.882 326.217 457.436 363.784C452.873 367.474 448.197 370.922 443.423 374.127C458.339 369.8 472.645 363.829 486.104 356.433C490.168 354.201 494.153 351.838 498.056 349.354L498.054 349.355C509.815 341.866 520.818 333.254 530.89 323.689C524.725 329.543 518.212 335.04 511.389 340.141C523.542 322.133 531.373 301.218 533.27 278.991C535.098 287.95 535.896 297.334 535.541 307.023ZM556.125 219.36C554.126 229.563 551.621 239.614 548.636 249.486C547.592 247.111 546.471 244.784 545.272 242.503C549.391 235.05 553.024 227.322 556.125 219.36ZM561.794 155.728L561.794 155.725C576.737 167.38 588.054 183.206 594.165 201.602C592.589 213.599 589.908 225.312 586.231 236.64C586.723 232.414 587.084 228.157 587.306 223.869C588.064 209.313 587.2 195.163 584.873 181.578C578.795 171.633 570.979 162.893 561.794 155.728Z" fill="black" fill-opacity="0.1"/>
</svg>
