<svg width="286" height="352" viewBox="0 0 286 352" fill="none" xmlns="http://www.w3.org/2000/svg">
<g filter="url(#filter0_d_3308_68673)">
<path d="M52.1963 10.3804H7V37.6687H8.70552V83.7178H10.411V121.239H18.0859V122.945H24.0552V124.65H26.6135V126.356H29.1718V128.061H10.411V272.178L12.1166 273.031V332.724H15.5276V341.252H17.2331V344.663H46.227V341.252H89.7178V342.957H91.4233V344.663H110.184V342.957H111.037V339.546L112.742 338.693V336.988H114.448V340.399L117.006 341.485V343.81H157.939V341.485H160.497V339.546L204.84 338.693V341.485H207.399V342.957H240.656L242.362 341.252L244.067 340.663V338.693L244.92 336.135L245.773 334.429H246.626L247.479 336.135L249.184 336.988V338.693H252.595L253.448 340.399L267.092 340.663V339.546H268.798V337.841H285V322.491H283.294V315.669H281.589V307.141H279.031V293.497H277.325V271.325H274.767V261.092H273.061V158.761H271.356V136.589H268.798V114.417H270.503V63.2515H273.061V39.3742H276.472V15.4969H273.914V2.70552H272.209L271.356 1H267.092V2.70552H264.534V5.2638H262.828H249.184L247.479 6.96933L245.773 8.67485V10.3804H240.656L238.951 6.96933L237.245 5.2638H184.374V2.70552L110.184 1.85276V5.2638H86.3067V6.96933H52.1963V10.3804Z" fill="#DFC4AA" stroke="#333333"/>
<path d="M11.2637 128.062V121.24H18.0858V122.946H24.0551V124.651H26.6134V126.357H29.1716V128.062H11.2637Z" fill="#333333" stroke="#333333"/>
<path d="M23.2024 105.89V107.595H21.4969V105.89H23.2024Z" fill="#938980"/>
<path d="M14.6748 97.3623V99.0678H16.3803H18.0858V97.3623V111.006H16.3803M14.6748 111.006V107.595V105.037V111.006ZM14.6748 111.006H16.3803M16.3803 111.006V114.418H14.6748V116.123V116.976V119.534H18.0858V117.829H19.7914V116.123H23.2024V114.418V111.006H21.4969V112.712H19.7914V107.595H21.4969M21.4969 107.595H23.2024V105.89H21.4969V107.595Z" stroke="#938980" stroke-width="2"/>
<path d="M14.6748 119.533V114.417H16.3803V111.006H19.7914V112.711H23.2024V116.122H19.7914V117.828H18.0858V119.533H14.6748Z" fill="#938980" stroke="#938980" stroke-width="2"/>
<path d="M23.2026 119.533V121.239H24.9082H26.6137V118.681M26.6137 114.417V116.122H28.3192V114.417V111.006M28.3192 111.006H25.7609H32.583H28.3192ZM34.2885 114.417H37.6996M30.8775 119.533H32.583M31.7302 122.092V125.503M35.994 119.533H37.6996" stroke="#938980" stroke-width="2"/>
<path d="M101.657 340.401V342.959H109.331V342.106H110.184V338.695H111.89V336.137H113.595V334.431H110.184H108.479V336.137H106.773V337.842H103.362V340.401H101.657Z" fill="#938980"/>
<path d="M93.1289 340.401V342.959H96.5399V340.401H98.2455V342.959H101.657M101.657 342.959V340.401H103.362V337.842H106.773V336.137H108.479V334.431H110.184M101.657 342.959H109.331V342.106H110.184V338.695H111.89V336.137H113.595V334.431H110.184M110.184 334.431V331.873" stroke="#938980" stroke-width="2"/>
<path d="M84.6011 335.283V338.694M88.0121 335.283V338.694H89.7176V336.988H92.2759M92.2759 332.725H93.9814M95.687 332.725H99.098V334.43H100.804M96.5397 336.136H98.2452V337.841H96.5397V336.136Z" stroke="#938980" stroke-width="2"/>
</g>
<defs>
<filter id="filter0_d_3308_68673" x="0.5" y="0.5" width="285" height="350.662" filterUnits="userSpaceOnUse" color-interpolation-filters="sRGB">
<feFlood flood-opacity="0" result="BackgroundImageFix"/>
<feColorMatrix in="SourceAlpha" type="matrix" values="0 0 0 0 0 0 0 0 0 0 0 0 0 0 0 0 0 0 127 0" result="hardAlpha"/>
<feOffset dx="-4" dy="4"/>
<feGaussianBlur stdDeviation="1"/>
<feComposite in2="hardAlpha" operator="out"/>
<feColorMatrix type="matrix" values="0 0 0 0 0 0 0 0 0 0 0 0 0 0 0 0 0 0 0.5 0"/>
<feBlend mode="normal" in2="BackgroundImageFix" result="effect1_dropShadow_3308_68673"/>
<feBlend mode="normal" in="SourceGraphic" in2="effect1_dropShadow_3308_68673" result="shape"/>
</filter>
</defs>
</svg>
