<svg width="168" height="48" viewBox="0 0 168 48" fill="none" xmlns="http://www.w3.org/2000/svg">
<g filter="url(#filter0_dd_3635_84277)">
<rect x="4" width="160" height="40" rx="4" fill="#E9C279"/>
<rect x="5" y="1" width="158" height="38" rx="3" stroke="#463E29" stroke-opacity="0.6" stroke-width="2"/>
</g>
<path d="M6 6C6 3.79086 7.79086 2 10 2H158C160.209 2 162 3.79086 162 6V34C162 36.2091 160.209 38 158 38H10C7.79086 38 6 36.2091 6 34V6Z" fill="url(#paint0_linear_3635_84277)"/>
<path fill-rule="evenodd" clip-rule="evenodd" d="M6 16.9854V36.0002C6 37.1047 6.89543 38.0002 8 38.0002H160C161.105 38.0002 162 37.1047 162 36.0002V16.9854C162 20.2991 159.314 22.9854 156 22.9854H12C8.6863 22.9854 6 20.2991 6 16.9854Z" fill="url(#paint1_linear_3635_84277)"/>
<defs>
<filter id="filter0_dd_3635_84277" x="0" y="0" width="168" height="48" filterUnits="userSpaceOnUse" color-interpolation-filters="sRGB">
<feFlood flood-opacity="0" result="BackgroundImageFix"/>
<feColorMatrix in="SourceAlpha" type="matrix" values="0 0 0 0 0 0 0 0 0 0 0 0 0 0 0 0 0 0 127 0" result="hardAlpha"/>
<feOffset dy="1.5"/>
<feGaussianBlur stdDeviation="0.5"/>
<feComposite in2="hardAlpha" operator="out"/>
<feColorMatrix type="matrix" values="0 0 0 0 0 0 0 0 0 0 0 0 0 0 0 0 0 0 0.25 0"/>
<feBlend mode="normal" in2="BackgroundImageFix" result="effect1_dropShadow_3635_84277"/>
<feColorMatrix in="SourceAlpha" type="matrix" values="0 0 0 0 0 0 0 0 0 0 0 0 0 0 0 0 0 0 127 0" result="hardAlpha"/>
<feOffset dy="4"/>
<feGaussianBlur stdDeviation="2"/>
<feComposite in2="hardAlpha" operator="out"/>
<feColorMatrix type="matrix" values="0 0 0 0 0 0 0 0 0 0 0 0 0 0 0 0 0 0 0.25 0"/>
<feBlend mode="normal" in2="effect1_dropShadow_3635_84277" result="effect2_dropShadow_3635_84277"/>
<feBlend mode="normal" in="SourceGraphic" in2="effect2_dropShadow_3635_84277" result="shape"/>
</filter>
<linearGradient id="paint0_linear_3635_84277" x1="84" y1="2" x2="84" y2="38" gradientUnits="userSpaceOnUse">
<stop stop-color="#FFD994"/>
<stop offset="0.145833" stop-color="#F2C167"/>
<stop offset="0.583333" stop-color="#E1A83D"/>
</linearGradient>
<linearGradient id="paint1_linear_3635_84277" x1="84" y1="16.9854" x2="84" y2="38.0002" gradientUnits="userSpaceOnUse">
<stop stop-color="#FFD382" stop-opacity="0"/>
<stop offset="0.11654" stop-color="#956815" stop-opacity="0.88"/>
<stop offset="0.856946" stop-color="#C18413"/>
<stop offset="1" stop-color="#F2AC2B" stop-opacity="0"/>
</linearGradient>
</defs>
</svg>
