<svg width="128" height="45" viewBox="0 0 128 45" fill="none" xmlns="http://www.w3.org/2000/svg">
<path d="M112.336 9.31532L112.439 7.58172L110.705 7.47892L101.44 6.92949L99.7061 6.82669L99.6033 8.56029L97.8803 37.6168L97.7775 39.3504L99.5111 39.4532L108.777 40.0026L110.51 40.1054L110.613 38.3718L110.721 36.5475L111.368 36.5858L111.26 38.4102L111.157 40.1438L112.89 40.2466L122.156 40.796L123.89 40.8988L123.992 39.1652L124.597 28.9732L124.699 27.2396L122.966 27.1368L121.623 27.0572L121.683 26.0482L121.769 24.5945L121.786 24.3146L121.872 22.8609L121.932 21.8519L123.275 21.9315L125.008 22.0343L125.111 20.3007L125.715 10.1087L125.818 8.3751L124.085 8.2723L114.819 7.72287L113.085 7.62007L112.983 9.35366L112.874 11.178L112.228 11.1397L112.336 9.31532Z" fill="url(#paint0_linear_1720_40047)" stroke="url(#paint1_linear_1720_40047)" stroke-width="3.47328"/>
<path d="M72.6347 22.3739L72.3154 23.5654L72.1852 24.0514L71.8659 25.2428L69.8768 32.6663L69.4274 34.3437L71.1048 34.7932L93.2316 40.7221L94.9091 41.1715L95.3586 39.4941L100.134 21.6707L100.454 20.4792L100.584 19.9932L100.903 18.8017L102.892 11.3783L103.342 9.70087L101.664 9.25139L79.5374 3.32253L77.8599 2.87306L77.4104 4.55052L72.6347 22.3739Z" fill="url(#paint2_linear_1720_40047)" stroke="url(#paint3_linear_1720_40047)" stroke-width="3.47328"/>
<path d="M53.9679 9.15723V7.42059H52.2312H29.9922H28.2555V9.15723V38.2648V40.0014H29.9922H39.4967H40.9901H41.2333H42.7267H52.2312H53.9679V38.2648V9.15723Z" fill="url(#paint4_linear_1720_40047)" stroke="url(#paint5_linear_1720_40047)" stroke-width="3.47328"/>
<path d="M5.31163 21.2982L5.76111 22.9757L7.43857 22.5262L11.8576 21.3421L16.9526 40.3569L17.4021 42.0344L19.0796 41.5849L28.3678 39.0962L30.0453 38.6467L29.5958 36.9692L24.5008 17.9544L28.9199 16.7703L30.5973 16.3208L30.1479 14.6433L28.1588 7.21992L27.7093 5.54246L26.0318 5.99193L4.55052 11.7478L2.87306 12.1973L3.32253 13.8748L5.31163 21.2982Z" fill="url(#paint6_linear_1720_40047)" stroke="url(#paint7_linear_1720_40047)" stroke-width="3.47328"/>
<path d="M74.011 16.2344V14.4977H72.2744H54.6572H52.9206V16.2344V36.5758V38.3125H54.6572H72.2744H74.011V36.5758V16.2344ZM63.9735 23.4196V29.3906H62.9581V23.4196H63.9735Z" fill="url(#paint8_linear_1720_40047)" stroke="url(#paint9_linear_1720_40047)" stroke-width="3.47328"/>
<path d="M111.8 9.28356L111.871 8.08554L110.673 8.0145L101.408 7.46507L100.21 7.39403L100.139 8.59205L98.4159 37.6486L98.3448 38.8466L99.5429 38.9176L108.808 39.467L110.006 39.5381L110.077 38.3401L110.217 35.9801L110.391 35.9904L111.935 36.082L111.795 38.4419L111.724 39.6399L112.922 39.711L122.188 40.2604L123.386 40.3315L123.457 39.1334L124.061 28.9414L124.132 27.7434L122.934 27.6724L121.056 27.561L121.148 26.0164L121.219 24.8184L120.021 24.7474L118.365 24.6492L118.412 23.8579L120.068 23.9561L121.266 24.0271L121.337 22.8291L121.428 21.2846L123.306 21.3959L124.504 21.467L124.575 20.269L125.18 10.0769L125.251 8.87892L124.053 8.80788L114.787 8.25845L113.589 8.18741L113.518 9.38542L113.378 11.7453L111.834 11.6538L111.66 11.6435L111.8 9.28356Z" fill="url(#paint10_linear_1720_40047)" stroke="#202020" stroke-width="2.40024"/>
<path d="M73.1529 22.5128L72.8423 23.672L74.0015 23.9826L85.896 27.1697L85.7485 27.7202L73.854 24.5331L72.6948 24.2225L72.3842 25.3817L70.3951 32.8051L70.0845 33.9643L71.2437 34.275L93.3705 40.2038L94.5297 40.5144L94.8403 39.3552L99.6161 21.5318L99.9267 20.3726L98.7675 20.062L86.873 16.8749L87.0205 16.3244L98.915 19.5115L100.074 19.8221L100.385 18.6629L102.374 11.2395L102.685 10.0802L101.525 9.76963L79.3985 3.84078L78.2393 3.53016L77.9287 4.68939L73.1529 22.5128Z" fill="url(#paint11_linear_1720_40047)" stroke="#202020" stroke-width="2.40024"/>
<path d="M53.4314 9.15723V7.95711H52.2312H29.9922H28.7921V9.15723V38.2648V39.4649H29.9922H39.4967H40.6968V38.2648V31.6682H41.5266V38.2648V39.4649H42.7267H52.2312H53.4314V38.2648V9.15723ZM41.4152 17.2258V22.1767H40.8082V17.2258H41.4152Z" fill="url(#paint12_linear_1720_40047)" stroke="#202020" stroke-width="2.40024"/>
<rect x="50.1094" y="8.98877" width="2.67115" height="2.67115" fill="#202020"/>
<rect x="29.6309" y="8.98877" width="2.67115" height="2.67115" fill="#202020"/>
<path d="M5.82987 21.1593L6.14049 22.3185L7.29971 22.0079L12.237 20.685L17.4709 40.2181L17.7815 41.3773L18.9407 41.0667L28.229 38.5779L29.3882 38.2673L29.0776 37.1081L23.8437 17.575L28.781 16.252L29.9402 15.9414L29.6296 14.7822L27.6405 7.35879L27.3299 6.19956L26.1707 6.51017L4.68939 12.2661L3.53016 12.5767L3.84078 13.7359L5.82987 21.1593Z" fill="url(#paint13_linear_1720_40047)" stroke="#202020" stroke-width="2.40024"/>
<path d="M73.4745 16.2344V15.0343H72.2744H54.6572H53.4571V16.2344V36.5758V37.776H54.6572H72.2744H73.4745V36.5758V16.2344ZM64.51 22.8831V29.9271H62.4216V22.8831H64.51Z" fill="url(#paint14_linear_1720_40047)" stroke="#202020" stroke-width="2.40024"/>
<defs>
<linearGradient id="paint0_linear_1720_40047" x1="112.659" y1="9.33449" x2="110.936" y2="38.391" gradientUnits="userSpaceOnUse">
<stop stop-color="#FDF74A"/>
<stop offset="1" stop-color="#EE3F29"/>
</linearGradient>
<linearGradient id="paint1_linear_1720_40047" x1="112.659" y1="9.33449" x2="110.936" y2="38.391" gradientUnits="userSpaceOnUse">
<stop stop-color="#E3B783"/>
<stop offset="0.276042" stop-color="#FFE3C1"/>
<stop offset="1" stop-color="#E18633"/>
</linearGradient>
<linearGradient id="paint2_linear_1720_40047" x1="90.1513" y1="7.96443" x2="82.6177" y2="36.0802" gradientUnits="userSpaceOnUse">
<stop stop-color="#FDF74A"/>
<stop offset="1" stop-color="#EE3F29"/>
</linearGradient>
<linearGradient id="paint3_linear_1720_40047" x1="90.1513" y1="7.96443" x2="82.6177" y2="36.0802" gradientUnits="userSpaceOnUse">
<stop stop-color="#E3B783"/>
<stop offset="0.276042" stop-color="#FFE3C1"/>
<stop offset="1" stop-color="#E18633"/>
</linearGradient>
<linearGradient id="paint4_linear_1720_40047" x1="41.1117" y1="9.15723" x2="41.1117" y2="38.2648" gradientUnits="userSpaceOnUse">
<stop stop-color="#FDF74A"/>
<stop offset="1" stop-color="#EE3F29"/>
</linearGradient>
<linearGradient id="paint5_linear_1720_40047" x1="41.1117" y1="9.15723" x2="41.1117" y2="38.2648" gradientUnits="userSpaceOnUse">
<stop stop-color="#E3B783"/>
<stop offset="0.276042" stop-color="#FFE3C1"/>
<stop offset="1" stop-color="#E18633"/>
</linearGradient>
<linearGradient id="paint6_linear_1720_40047" x1="15.7406" y1="10.5473" x2="23.2742" y2="38.6631" gradientUnits="userSpaceOnUse">
<stop stop-color="#FDF74A"/>
<stop offset="1" stop-color="#EE3F29"/>
</linearGradient>
<linearGradient id="paint7_linear_1720_40047" x1="15.7406" y1="10.5473" x2="23.2742" y2="38.6631" gradientUnits="userSpaceOnUse">
<stop stop-color="#E3B783"/>
<stop offset="0.276042" stop-color="#FFE3C1"/>
<stop offset="1" stop-color="#E18633"/>
</linearGradient>
<linearGradient id="paint8_linear_1720_40047" x1="63.4658" y1="16.2344" x2="63.4658" y2="36.5758" gradientUnits="userSpaceOnUse">
<stop stop-color="#9784F8"/>
<stop offset="1" stop-color="#EE3F29"/>
</linearGradient>
<linearGradient id="paint9_linear_1720_40047" x1="63.4658" y1="16.2344" x2="63.4658" y2="36.5758" gradientUnits="userSpaceOnUse">
<stop stop-color="#E3B783"/>
<stop offset="0.276042" stop-color="#FFE3C1"/>
<stop offset="1" stop-color="#E18633"/>
</linearGradient>
<linearGradient id="paint10_linear_1720_40047" x1="112.659" y1="9.33449" x2="110.936" y2="38.391" gradientUnits="userSpaceOnUse">
<stop stop-color="#F5FBAD"/>
<stop offset="1" stop-color="#FF9900"/>
</linearGradient>
<linearGradient id="paint11_linear_1720_40047" x1="90.1513" y1="7.96443" x2="82.6177" y2="36.0802" gradientUnits="userSpaceOnUse">
<stop stop-color="#F5FBAD"/>
<stop offset="1" stop-color="#FF9900"/>
</linearGradient>
<linearGradient id="paint12_linear_1720_40047" x1="41.1117" y1="9.15723" x2="41.1117" y2="38.2648" gradientUnits="userSpaceOnUse">
<stop stop-color="#F5FBAD"/>
<stop offset="1" stop-color="#FF9900"/>
</linearGradient>
<linearGradient id="paint13_linear_1720_40047" x1="15.7406" y1="10.5473" x2="23.2742" y2="38.6631" gradientUnits="userSpaceOnUse">
<stop stop-color="#F5FBAD"/>
<stop offset="1" stop-color="#FF9900"/>
</linearGradient>
<linearGradient id="paint14_linear_1720_40047" x1="63.4658" y1="16.2344" x2="63.4658" y2="36.5758" gradientUnits="userSpaceOnUse">
<stop stop-color="#F9FAB6"/>
<stop offset="1" stop-color="#47FF06"/>
</linearGradient>
</defs>
</svg>
