<svg width="468" height="55" viewBox="0 0 468 55" fill="none" xmlns="http://www.w3.org/2000/svg">
<path fill-rule="evenodd" clip-rule="evenodd" d="M20.3652 0C19.813 0 19.3652 0.447714 19.3652 0.999999V4.21663C8.42269 5.74197 0 15.1374 0 26.5C0 37.8626 8.42269 47.258 19.3652 48.7834V54C19.3652 54.5523 19.813 55 20.3652 55H448.71C449.262 55 449.71 54.5523 449.71 54V48.6068C460.124 46.6355 468 37.4875 468 26.5C468 15.5125 460.124 6.36446 449.71 4.39322V1C449.71 0.447715 449.262 0 448.71 0H20.3652Z" fill="#4C341A"/>
<mask id="path-2-inside-1_2692_73021" fill="white">
<path fill-rule="evenodd" clip-rule="evenodd" d="M24.1558 2.99772C23.6045 2.99903 23.1582 3.44636 23.1582 3.99772V7.00301C12.5463 7.1854 4 15.8447 4 26.5001C4 37.1555 12.5463 45.8148 23.1582 45.9971V50.9977C23.1582 51.5509 23.6073 51.999 24.1605 51.9977L445.908 51.0024C446.459 51.0011 446.905 50.5538 446.905 50.0024V45.9502C457.019 45.2301 465 36.7971 465 26.5001C465 16.203 457.019 7.77007 446.905 7.04993V3.00244C446.905 2.44924 446.456 2.00114 445.903 2.00244L24.1558 2.99772Z"/>
</mask>
<path fill-rule="evenodd" clip-rule="evenodd" d="M24.1558 2.99772C23.6045 2.99903 23.1582 3.44636 23.1582 3.99772V7.00301C12.5463 7.1854 4 15.8447 4 26.5001C4 37.1555 12.5463 45.8148 23.1582 45.9971V50.9977C23.1582 51.5509 23.6073 51.999 24.1605 51.9977L445.908 51.0024C446.459 51.0011 446.905 50.5538 446.905 50.0024V45.9502C457.019 45.2301 465 36.7971 465 26.5001C465 16.203 457.019 7.77007 446.905 7.04993V3.00244C446.905 2.44924 446.456 2.00114 445.903 2.00244L24.1558 2.99772Z" fill="#4C341A"/>
<path d="M24.1558 2.99772L24.1629 5.99772L24.1558 2.99772ZM23.1582 7.00301L23.2098 10.0026L26.1582 9.95189V7.00301H23.1582ZM23.1582 45.9971H26.1582V43.0483L23.2098 42.9976L23.1582 45.9971ZM24.1605 51.9977L24.1676 54.9977H24.1676L24.1605 51.9977ZM445.908 51.0024L445.9 48.0024L445.908 51.0024ZM446.905 45.9502L446.692 42.9578L443.905 43.1563V45.9502H446.905ZM446.905 7.04993H443.905V9.84391L446.692 10.0424L446.905 7.04993ZM445.903 2.00244L445.896 -0.997547L445.903 2.00244ZM26.1582 3.99772C26.1582 5.10045 25.2656 5.99511 24.1629 5.99772L24.1488 -0.00226712C21.9433 0.00293732 20.1582 1.79227 20.1582 3.99772H26.1582ZM26.1582 7.00301V3.99772H20.1582V7.00301H26.1582ZM23.1066 4.00346C10.8611 4.21393 1 14.2051 1 26.5001H7C7 17.4843 14.2316 10.1569 23.2098 10.0026L23.1066 4.00346ZM1 26.5001C1 38.7951 10.8611 48.7862 23.1066 48.9967L23.2098 42.9976C14.2316 42.8433 7 35.5159 7 26.5001H1ZM26.1582 50.9977V45.9971H20.1582V50.9977H26.1582ZM24.1535 48.9977C25.26 48.9951 26.1582 49.8914 26.1582 50.9977H20.1582C20.1582 53.2104 21.9547 55.0029 24.1676 54.9977L24.1535 48.9977ZM445.9 48.0024L24.1535 48.9977L24.1676 54.9977L445.915 54.0024L445.9 48.0024ZM443.905 50.0024C443.905 48.8997 444.798 48.005 445.9 48.0024L445.915 54.0024C448.12 53.9972 449.905 52.2079 449.905 50.0024H443.905ZM443.905 45.9502V50.0024H449.905V45.9502H443.905ZM447.118 48.9427C458.791 48.1115 468 38.3826 468 26.5001H462C462 35.2117 455.247 42.3487 446.692 42.9578L447.118 48.9427ZM468 26.5001C468 14.6176 458.791 4.88865 447.118 4.05751L446.692 10.0424C455.247 10.6515 462 17.7885 462 26.5001H468ZM443.905 3.00244V7.04993H449.905V3.00244H443.905ZM445.91 5.00244C444.803 5.00505 443.905 4.10878 443.905 3.00244H449.905C449.905 0.789689 448.109 -1.00277 445.896 -0.997547L445.91 5.00244ZM24.1629 5.99772L445.91 5.00244L445.896 -0.997547L24.1488 -0.00226712L24.1629 5.99772Z" fill="url(#paint0_linear_2692_73021)" mask="url(#path-2-inside-1_2692_73021)"/>
<circle cx="24" cy="27" r="12" fill="url(#paint1_linear_2692_73021)"/>
<circle cx="24" cy="27" r="9.5" fill="url(#paint2_linear_2692_73021)" stroke="#4C341A"/>
<circle cx="24" cy="27" r="8" fill="url(#paint3_radial_2692_73021)"/>
<circle cx="446" cy="27" r="12" fill="url(#paint4_linear_2692_73021)"/>
<circle cx="446" cy="27" r="9.5" fill="url(#paint5_linear_2692_73021)" stroke="#4C341A"/>
<circle cx="446" cy="27" r="8" fill="url(#paint6_radial_2692_73021)"/>
<defs>
<linearGradient id="paint0_linear_2692_73021" x1="234.5" y1="2.00244" x2="234.5" y2="51.9977" gradientUnits="userSpaceOnUse">
<stop stop-color="#EAC4A6"/>
<stop offset="0.46875" stop-color="#D7CBC1"/>
<stop offset="1" stop-color="#EAC4A6"/>
</linearGradient>
<linearGradient id="paint1_linear_2692_73021" x1="24" y1="15" x2="24" y2="39" gradientUnits="userSpaceOnUse">
<stop stop-color="#E7D3AD"/>
<stop offset="0.411458" stop-color="#BF994F"/>
<stop offset="1" stop-color="#A07F40"/>
</linearGradient>
<linearGradient id="paint2_linear_2692_73021" x1="24" y1="17" x2="24" y2="37" gradientUnits="userSpaceOnUse">
<stop stop-color="#E7D6AD"/>
<stop offset="0.411458" stop-color="#BFAD4F"/>
<stop offset="1" stop-color="#A08B40"/>
</linearGradient>
<radialGradient id="paint3_radial_2692_73021" cx="0" cy="0" r="1" gradientUnits="userSpaceOnUse" gradientTransform="translate(24 27) rotate(90) scale(8)">
<stop stop-color="#A08B40"/>
<stop offset="0.817708" stop-color="#BFAD4F"/>
<stop offset="1" stop-color="#E7D6AD"/>
</radialGradient>
<linearGradient id="paint4_linear_2692_73021" x1="446" y1="15" x2="446" y2="39" gradientUnits="userSpaceOnUse">
<stop stop-color="#E7D3AD"/>
<stop offset="0.411458" stop-color="#BF994F"/>
<stop offset="1" stop-color="#A07F40"/>
</linearGradient>
<linearGradient id="paint5_linear_2692_73021" x1="446" y1="17" x2="446" y2="37" gradientUnits="userSpaceOnUse">
<stop stop-color="#E7D6AD"/>
<stop offset="0.411458" stop-color="#BFAD4F"/>
<stop offset="1" stop-color="#A08B40"/>
</linearGradient>
<radialGradient id="paint6_radial_2692_73021" cx="0" cy="0" r="1" gradientUnits="userSpaceOnUse" gradientTransform="translate(446 27) rotate(90) scale(8)">
<stop stop-color="#A08B40"/>
<stop offset="0.817708" stop-color="#BFAD4F"/>
<stop offset="1" stop-color="#E7D6AD"/>
</radialGradient>
</defs>
</svg>
