<svg width="112" height="112" viewBox="0 0 112 112" fill="none" xmlns="http://www.w3.org/2000/svg">
<path d="M80.0457 70.4402H74.9869L73.1938 68.7113C79.4694 61.4111 83.2476 51.9337 83.2476 41.6238C83.2476 18.6346 64.6129 0 41.6238 0C18.6346 0 0 18.6346 0 41.6238C0 64.6129 18.6346 83.2476 41.6238 83.2476C51.9337 83.2476 61.4111 79.4694 68.7113 73.1938L70.4402 74.9869V80.0457L102.459 112L112 102.459L80.0457 70.4402ZM41.6238 70.4402C25.6787 70.4402 12.8073 57.5689 12.8073 41.6238C12.8073 25.6787 25.6787 12.8073 41.6238 12.8073C57.5689 12.8073 70.4402 25.6787 70.4402 41.6238C70.4402 57.5689 57.5689 70.4402 41.6238 70.4402Z" fill="#707070" fill-opacity="0.1"/>
</svg>
