<svg width="437" height="708" viewBox="0 0 437 708" fill="none" xmlns="http://www.w3.org/2000/svg" preserveAspectRatio="none">
<rect x="160.72" y="28.9565" width="8.96745" height="3.84846" fill="#1E1E1E"/>
<rect x="291" y="18" width="43" height="3" fill="#1E1E1E"/>
<rect x="324" y="19" width="43" height="3" fill="#1E1E1E"/>
<rect x="356" y="18" width="43" height="3" fill="#1E1E1E"/>
<rect x="307" y="15" width="25" height="3" fill="#1E1E1E"/>
<rect x="431" y="31" width="25" height="3" transform="rotate(90 431 31)" fill="#1E1E1E"/>
<rect x="431" y="79" width="25" height="3" transform="rotate(90 431 79)" fill="#1E1E1E"/>
<rect x="353" y="14" width="3" height="3" fill="#1E1E1E"/>
<rect x="420" y="11" width="3" height="3" fill="#1E1E1E"/>
<rect x="432" y="28" width="3" height="3" fill="#1E1E1E"/>
<rect x="434" y="76" width="3" height="3" fill="#1E1E1E"/>
<rect x="373" width="3" height="3" fill="#1E1E1E"/>
<rect x="376" y="10" width="9" height="3" fill="#1E1E1E"/>
<rect x="434" y="59" width="9" height="3" transform="rotate(90 434 59)" fill="#1E1E1E"/>
<rect x="432" y="89" width="9" height="3" transform="rotate(90 432 89)" fill="#1E1E1E"/>
<rect x="429" y="64" width="21" height="3" transform="rotate(90 429 64)" fill="#1E1E1E"/>
<rect x="384" y="5" width="12" height="3" fill="#1E1E1E"/>
<rect x="383" y="20" width="43" height="3" fill="#1E1E1E"/>
<rect width="43" height="3" transform="matrix(1 -8.74228e-08 -8.74228e-08 -1 291 690)" fill="#1E1E1E"/>
<rect width="43" height="3" transform="matrix(1 -8.74228e-08 -8.74228e-08 -1 324 689)" fill="#1E1E1E"/>
<rect width="43" height="3" transform="matrix(1 -8.74228e-08 -8.74228e-08 -1 356 690)" fill="#1E1E1E"/>
<rect width="25" height="3" transform="matrix(1 -8.74228e-08 -8.74228e-08 -1 307 693)" fill="#1E1E1E"/>
<rect width="25" height="3" transform="matrix(-1.31134e-07 -1 -1 1.31134e-07 431 677)" fill="#1E1E1E"/>
<rect width="25" height="3" transform="matrix(1 -8.74228e-08 -8.74228e-08 -1 240 689)" fill="#1E1E1E"/>
<rect width="3" height="3" transform="matrix(1 -8.74228e-08 -8.74228e-08 -1 353 694)" fill="#1E1E1E"/>
<rect width="3" height="3" transform="matrix(1 -8.74228e-08 -8.74228e-08 -1 224 690)" fill="#1E1E1E"/>
<rect width="3" height="3" transform="matrix(1 -8.74228e-08 -8.74228e-08 -1 420 697)" fill="#1E1E1E"/>
<rect width="3" height="3" transform="matrix(1 -8.74228e-08 -8.74228e-08 -1 432 680)" fill="#1E1E1E"/>
<rect width="3" height="3" transform="matrix(1 -8.74228e-08 -8.74228e-08 -1 434 632)" fill="#1E1E1E"/>
<rect width="3" height="3" transform="matrix(1 -8.74228e-08 -8.74228e-08 -1 373 708)" fill="#1E1E1E"/>
<rect width="3" height="3" transform="matrix(1 -8.74228e-08 -8.74228e-08 -1 237 694)" fill="#1E1E1E"/>
<rect width="9" height="3" transform="matrix(1 -8.74228e-08 -8.74228e-08 -1 376 698)" fill="#1E1E1E"/>
<rect width="9" height="3" transform="matrix(1 -8.74228e-08 -8.74228e-08 -1 282 698)" fill="#1E1E1E"/>
<rect width="6" height="3" transform="matrix(1 -8.74228e-08 -8.74228e-08 -1 278 700)" fill="#1E1E1E"/>
<rect width="7" height="3" transform="matrix(1 -8.74228e-08 -8.74228e-08 -1 281 695)" fill="#1E1E1E"/>
<rect width="3" height="3" transform="matrix(1 -8.74228e-08 -8.74228e-08 -1 273 703)" fill="#1E1E1E"/>
<rect width="9" height="3" transform="matrix(-1.31134e-07 -1 -1 1.31134e-07 434 649)" fill="#1E1E1E"/>
<rect width="9" height="3" transform="matrix(1 -8.74228e-08 -8.74228e-08 -1 250 690)" fill="#1E1E1E"/>
<rect width="21" height="3" transform="matrix(-1.31134e-07 -1 -1 1.31134e-07 429 644)" fill="#1E1E1E"/>
<rect width="12" height="3" transform="matrix(1 -8.74228e-08 -8.74228e-08 -1 384 703)" fill="#1E1E1E"/>
<rect width="43" height="3" transform="matrix(1 -8.74228e-08 -8.74228e-08 -1 383 688)" fill="#1E1E1E"/>
<rect y="21" width="428" height="666" fill="#1E1E1E"/>
</svg>
