<svg width="897" height="614" viewBox="0 0 897 614" fill="none" xmlns="http://www.w3.org/2000/svg" preserveAspectRatio="none">
<path d="M329.582 245.945C329.582 247.096 329.548 248.823 329.48 251.125C329.48 253.427 329.413 256.034 329.277 258.945C329.142 261.789 328.939 264.768 328.668 267.883C328.465 270.93 328.16 273.807 327.754 276.516C327.348 279.224 326.84 281.594 326.23 283.625C325.689 285.656 325.012 287.01 324.199 287.688C323.59 288.229 322.777 288.771 321.762 289.312C320.814 289.854 319.798 290.362 318.715 290.836C317.699 291.31 316.684 291.75 315.668 292.156C314.652 292.495 313.738 292.766 312.926 292.969C314.212 296.016 315.465 298.995 316.684 301.906C317.902 304.885 319.121 307.898 320.34 310.945C317.285 310.5 314.785 309.5 299.723 305.969C298.03 303.125 296.202 300.315 294.238 297.539C293.697 297.607 293.155 297.641 292.613 297.641C292.072 297.641 291.53 297.641 290.988 297.641C289.837 297.641 288.111 297.573 285.809 297.438C283.574 297.302 281.035 297.099 278.191 296.828C275.415 296.557 272.504 296.219 269.457 295.812C266.41 295.406 263.566 294.966 260.926 294.492C258.353 294.018 256.118 293.477 254.223 292.867C252.327 292.258 251.108 291.615 250.566 290.938C249.618 289.786 248.806 287.891 248.129 285.25C247.52 282.542 247.012 279.664 246.605 276.617C246.199 273.503 245.895 270.523 245.691 267.68C245.488 264.768 245.387 262.568 245.387 261.078C245.319 259.385 245.285 257.727 245.285 256.102C245.285 254.409 245.285 252.682 245.285 250.922C245.285 249.635 245.285 247.977 245.285 245.945C245.353 243.914 245.488 241.815 245.691 239.648C245.895 237.482 246.233 235.451 246.707 233.555C247.181 231.659 247.892 230.203 248.84 229.188C249.382 228.578 250.566 228.003 252.395 227.461C254.29 226.852 256.525 226.31 259.098 225.836C261.671 225.294 264.447 224.82 267.426 224.414C270.405 224.008 273.316 223.635 276.16 223.297C279.004 222.958 281.611 222.721 283.98 222.586C286.418 222.383 288.314 222.247 289.668 222.18C291.632 222.112 293.595 222.078 295.559 222.078C297.522 222.01 299.486 221.977 301.449 221.977C304.022 221.977 306.73 222.044 309.574 222.18C312.486 222.247 315.228 222.688 317.801 223.5C320.441 224.245 322.743 225.464 324.707 227.156C326.738 228.849 328.16 231.253 328.973 234.367C329.108 234.977 329.21 235.789 329.277 236.805C329.413 237.82 329.48 238.904 329.48 240.055C329.548 241.206 329.582 242.323 329.582 243.406C329.582 244.49 329.582 245.336 329.582 245.945ZM307.645 251.836C307.645 251.497 307.645 251.057 307.645 250.516C307.645 249.974 307.611 249.432 307.543 248.891C307.475 248.349 307.34 247.841 307.137 247.367C307.001 246.893 306.798 246.521 306.527 246.25C306.189 245.979 305.715 245.742 305.105 245.539C304.496 245.336 303.819 245.201 303.074 245.133C302.397 245.065 301.686 245.031 300.941 245.031C300.264 244.964 299.723 244.93 299.316 244.93C298.368 244.93 296.879 244.997 294.848 245.133C292.884 245.268 290.65 245.471 288.145 245.742C285.707 246.013 283.134 246.352 280.426 246.758C277.717 247.096 275.212 247.503 272.91 247.977C270.608 248.451 268.611 248.958 266.918 249.5C265.293 250.042 264.277 250.617 263.871 251.227C263.6 251.633 263.431 252.174 263.363 252.852C263.363 253.529 263.363 254.138 263.363 254.68C263.363 256.034 263.465 257.727 263.668 259.758C263.871 261.789 264.142 263.888 264.48 266.055C264.819 268.221 265.158 270.32 265.496 272.352C265.902 274.383 266.275 276.042 266.613 277.328C268.238 277.938 269.694 278.445 270.98 278.852C272.267 279.19 273.52 279.461 274.738 279.664C275.957 279.867 277.21 280.036 278.496 280.172C279.85 280.24 281.408 280.307 283.168 280.375C281.611 281.188 284.928 279.495 283.168 280.375C284.725 279.562 286.294 260.25 286.294 260.25C286.294 260.25 301.618 276.482 303.582 276.008C305.004 272.148 306.02 268.188 306.629 264.125C307.306 259.995 307.645 255.898 307.645 251.836Z" fill="#C40000"/>
<path d="M419.084 263.984C419.084 267.844 418.982 271.669 418.779 275.461C418.644 279.253 418.305 283.078 417.764 286.938C416.68 287.75 415.597 288.529 414.514 289.273C413.43 289.951 412.313 290.695 411.162 291.508C410.214 292.117 409.165 292.828 408.014 293.641C406.93 294.385 405.779 295.13 404.56 295.875C403.342 296.62 402.089 297.263 400.803 297.805C399.584 298.414 398.433 298.82 397.35 299.023C396.334 299.294 394.98 299.396 393.287 299.328C391.594 299.328 390.172 299.328 389.021 299.328C386.178 299.464 383.334 299.565 380.49 299.633C377.646 299.701 374.735 299.734 371.756 299.734C370.402 299.734 368.844 299.734 367.084 299.734C365.323 299.802 363.732 299.667 362.31 299.328C361.904 299.26 361.227 298.922 360.279 298.312C359.331 297.771 358.248 297.094 357.029 296.281C355.878 295.401 354.659 294.487 353.373 293.539C352.086 292.523 350.834 291.576 349.615 290.695C348.464 289.747 347.448 288.935 346.568 288.258C345.756 287.513 345.18 287.005 344.842 286.734C344.503 283.146 344.232 279.591 344.029 276.07C343.894 272.482 343.826 268.893 343.826 265.305C343.826 258.331 344.063 251.424 344.537 244.586C345.079 237.747 345.654 230.875 346.264 223.969L367.185 223.461C366.508 227.794 366.034 232.398 365.764 237.273C365.493 242.081 365.357 246.719 365.357 251.188C365.357 251.932 365.391 253.253 365.459 255.148C365.527 256.977 365.662 258.94 365.865 261.039C366.068 263.138 366.305 265.068 366.576 266.828C366.915 268.589 367.321 269.74 367.795 270.281C367.998 270.484 368.506 270.688 369.318 270.891C370.198 271.026 371.214 271.161 372.365 271.297C373.584 271.432 374.87 271.534 376.225 271.602C377.579 271.669 378.865 271.737 380.084 271.805C381.303 271.805 382.386 271.839 383.334 271.906C384.282 271.906 384.959 271.906 385.365 271.906C385.704 271.906 386.279 271.906 387.092 271.906C387.904 271.906 388.717 271.906 389.529 271.906C390.409 271.839 391.222 271.771 391.967 271.703C392.711 271.635 393.219 271.5 393.49 271.297C394.303 270.755 394.912 269.435 395.318 267.336C395.725 265.237 396.029 262.935 396.232 260.43C396.435 257.924 396.537 255.521 396.537 253.219C396.537 250.917 396.537 249.258 396.537 248.242C396.537 246.685 396.537 245.128 396.537 243.57C396.605 242.013 396.639 240.456 396.639 238.898C396.639 235.716 396.605 232.602 396.537 229.555C396.469 226.44 396.368 223.292 396.232 220.109C397.654 220.245 399.042 220.346 400.396 220.414C401.818 220.414 403.24 220.414 404.662 220.414C406.355 220.414 408.014 220.38 409.639 220.312C411.331 220.245 412.99 220.042 414.615 219.703C416.037 226.948 417.12 234.294 417.865 241.742C418.678 249.122 419.084 256.536 419.084 263.984Z" fill="#C40000"/>
<path d="M494.11 235.648C487.475 235.987 480.873 236.359 474.305 236.766C467.805 237.104 461.238 237.544 454.602 238.086L454.399 246.109L480.602 244.586C480.941 246.888 481.178 249.156 481.313 251.391C481.516 253.625 481.618 255.893 481.618 258.195C481.618 259.143 481.584 260.125 481.516 261.141C481.516 262.156 481.516 263.138 481.516 264.086L457.141 268.453L458.665 281.047C463.811 280.708 468.923 280.234 474.001 279.625C479.147 278.948 484.326 278.372 489.54 277.898C490.014 281.284 490.488 284.703 490.962 288.156C491.436 291.542 492.113 294.859 492.993 298.109C483.378 298.042 473.831 298.042 464.352 298.109C454.873 298.245 445.326 298.312 435.712 298.312C435.915 290.391 436.152 282.503 436.423 274.648C436.693 266.794 436.829 258.872 436.829 250.883V248.953C436.829 244.349 436.761 239.779 436.626 235.242C436.49 230.638 436.355 226 436.219 221.328C441.568 221.396 446.884 221.43 452.165 221.43C457.514 221.362 462.897 221.328 468.313 221.328C472.443 221.328 476.54 221.43 480.602 221.633C484.733 221.768 488.863 221.938 492.993 222.141L494.11 235.648Z" fill="#C40000"/>
<path d="M582.949 279.625C582.949 282.875 582.17 285.516 580.613 287.547C579.056 289.51 576.855 291.102 574.011 292.32C571.642 293.336 568.662 294.148 565.074 294.758C561.485 295.299 557.761 295.706 553.902 295.977C550.043 296.18 546.251 296.315 542.527 296.383C538.803 296.451 535.688 296.484 533.183 296.484C528.918 296.484 524.686 296.417 520.488 296.281C516.358 296.146 512.16 295.943 507.894 295.672C508.097 288.766 507.894 281.927 507.285 275.156C512.363 275.292 517.407 275.427 522.418 275.562C527.496 275.63 532.574 275.732 537.652 275.867C539.616 275.935 541.579 276.003 543.543 276.07C545.574 276.138 547.605 276.172 549.636 276.172C549.975 276.172 550.483 276.172 551.16 276.172C551.837 276.172 552.548 276.138 553.293 276.07C554.037 276.003 554.714 275.901 555.324 275.766C556.001 275.63 556.509 275.427 556.847 275.156C557.118 274.885 557.287 274.513 557.355 274.039C557.423 273.497 557.457 273.023 557.457 272.617C557.457 271.872 557.355 270.992 557.152 269.977C556.949 268.893 556.644 268.013 556.238 267.336C556.17 267.268 555.933 267.201 555.527 267.133C555.188 267.065 554.782 267.031 554.308 267.031C553.834 266.964 553.394 266.93 552.988 266.93C552.582 266.862 552.345 266.828 552.277 266.828C547.944 266.49 543.61 266.253 539.277 266.117C535.011 265.982 530.712 265.745 526.379 265.406C524.415 265.203 522.384 265 520.285 264.797C518.254 264.594 516.358 264.221 514.597 263.68C512.905 263.206 511.449 262.156 510.23 260.531C509.079 258.839 508.131 256.943 507.386 254.844C506.709 252.677 506.201 250.51 505.863 248.344C505.592 246.177 505.457 244.349 505.457 242.859C505.457 240.422 505.694 238.12 506.168 235.953C506.642 233.719 507.386 231.654 508.402 229.758C509.485 227.862 510.839 226.203 512.464 224.781C514.089 223.292 516.087 222.073 518.457 221.125C522.519 219.568 526.852 218.484 531.457 217.875C536.129 217.266 540.597 216.961 544.863 216.961C549.873 216.961 554.816 217.266 559.691 217.875C564.566 218.484 569.441 219.263 574.316 220.211C574.248 222.174 574.181 224.138 574.113 226.102C574.113 227.997 574.113 229.927 574.113 231.891C574.113 233.854 574.214 235.852 574.418 237.883C574.621 239.846 574.824 241.81 575.027 243.773C568.595 243.909 562.162 244.044 555.73 244.18C549.366 244.247 542.933 244.417 536.433 244.688C535.621 244.688 534.504 244.721 533.082 244.789C531.727 244.857 530.407 244.958 529.121 245.094C527.834 245.161 526.717 245.229 525.769 245.297C524.821 245.365 524.347 245.398 524.347 245.398C524.009 246.143 523.806 246.922 523.738 247.734C523.67 248.479 523.636 249.258 523.636 250.07C523.636 250.477 523.636 250.984 523.636 251.594C523.704 252.203 523.873 252.677 524.144 253.016C524.212 253.083 524.787 253.185 525.871 253.32C526.954 253.456 528.139 253.591 529.425 253.727C530.78 253.862 532.032 253.997 533.183 254.133C534.402 254.268 535.147 254.336 535.418 254.336C537.652 254.539 540.259 254.776 543.238 255.047C546.285 255.318 549.366 255.622 552.48 255.961C555.662 256.299 558.709 256.74 561.621 257.281C564.532 257.755 567.071 258.331 569.238 259.008C571.201 259.685 572.996 260.768 574.621 262.258C576.313 263.68 577.769 265.372 578.988 267.336C580.207 269.232 581.155 271.263 581.832 273.43C582.576 275.529 582.949 277.594 582.949 279.625Z" fill="#C40000"/>
<path d="M654.624 238.391V245.5L635.022 246.516C634.751 250.443 634.548 254.336 634.413 258.195C634.277 262.055 634.209 265.914 634.209 269.773C634.209 274.513 634.074 279.253 633.803 283.992C633.6 288.664 633.329 293.336 632.991 298.008C630.553 298.143 628.116 298.245 625.678 298.312C623.241 298.448 620.803 298.516 618.366 298.516C617.486 298.516 616.605 298.482 615.725 298.414C614.913 298.414 614.1 298.414 613.288 298.414C613.423 294.284 613.525 290.188 613.592 286.125C613.728 281.995 613.795 277.898 613.795 273.836C613.795 269.773 613.694 265.711 613.491 261.648C613.288 257.518 613.051 253.388 612.78 249.258C610.816 249.326 608.819 249.393 606.788 249.461C604.824 249.529 602.827 249.562 600.795 249.562C599.644 249.562 598.493 249.562 597.342 249.562C596.259 249.562 595.142 249.529 593.991 249.461C593.788 244.451 593.652 239.474 593.584 234.531C593.517 229.589 593.449 224.646 593.381 219.703C603.538 219.906 613.626 220.211 623.647 220.617C633.668 220.956 643.722 221.26 653.811 221.531C654.082 224.443 654.285 227.286 654.42 230.062C654.556 232.771 654.624 235.547 654.624 238.391Z" fill="#C40000"/>
<path d="M331.21 372.43L331.108 388.273C327.994 388.883 324.913 389.458 321.866 390C318.819 390.542 315.739 391.016 312.624 391.422C309.374 391.828 306.124 392.201 302.874 392.539C299.624 392.878 296.374 393.047 293.124 393.047C292.176 393.047 290.788 393.013 288.96 392.945C287.132 392.878 285.236 392.742 283.272 392.539C281.309 392.336 279.447 392.099 277.687 391.828C275.926 391.49 274.64 391.083 273.827 390.609C273.082 390.135 272.371 389.594 271.694 388.984C271.017 388.307 270.408 387.63 269.866 386.953C268.444 385.193 267.259 383.263 266.312 381.164C265.364 379.065 264.619 376.898 264.077 374.664C263.535 372.43 263.129 370.161 262.858 367.859C262.655 365.557 262.554 363.289 262.554 361.055C262.554 358.346 262.689 355.536 262.96 352.625C263.299 349.714 263.806 346.836 264.483 343.992C265.16 341.148 266.041 338.406 267.124 335.766C268.275 333.125 269.663 330.688 271.288 328.453C271.762 327.844 272.371 327.099 273.116 326.219C273.861 325.339 274.606 324.695 275.351 324.289C277.179 323.273 279.21 322.427 281.444 321.75C283.746 321.073 286.116 320.565 288.554 320.227C290.991 319.82 293.395 319.549 295.765 319.414C298.202 319.211 300.437 319.109 302.468 319.109C306.327 319.109 310.187 319.346 314.046 319.82C317.905 320.227 321.663 320.971 325.319 322.055C325.184 323.883 325.082 325.745 325.015 327.641C324.947 329.469 324.913 331.297 324.913 333.125C324.913 337.526 325.015 341.961 325.218 346.43C322.171 345.279 318.989 344.466 315.671 343.992C312.353 343.451 309.069 343.18 305.819 343.18C305.142 343.18 304.16 343.247 302.874 343.383C301.588 343.451 300.132 343.586 298.507 343.789C296.882 343.924 295.189 344.128 293.429 344.398C291.736 344.669 290.145 345.008 288.655 345.414C287.166 345.82 285.845 346.294 284.694 346.836C283.611 347.378 282.9 347.953 282.562 348.562C282.291 349.104 282.054 349.883 281.851 350.898C281.715 351.846 281.58 352.862 281.444 353.945C281.377 355.029 281.309 356.078 281.241 357.094C281.241 358.109 281.241 358.922 281.241 359.531C281.241 360.141 281.309 361.359 281.444 363.188C281.58 365.016 281.749 366.979 281.952 369.078C282.155 371.109 282.392 372.971 282.663 374.664C283.002 376.357 283.34 377.339 283.679 377.609C284.017 377.812 284.559 377.948 285.304 378.016C286.116 378.016 286.658 378.016 286.929 378.016C290.246 378.016 293.801 377.846 297.593 377.508C301.384 377.169 305.21 376.729 309.069 376.188C312.996 375.578 316.856 374.969 320.647 374.359C324.439 373.682 327.96 373.039 331.21 372.43Z" fill="#C40000"/>
<path d="M393.541 393.961C385.484 394.57 377.46 395.146 369.471 395.688C361.549 396.229 353.559 396.737 345.502 397.211C345.163 384.279 344.892 371.448 344.689 358.719C344.486 345.922 344.114 333.023 343.572 320.023C348.109 319.956 352.577 319.82 356.978 319.617C361.379 319.414 365.814 319.143 370.283 318.805C369.538 323.815 368.827 328.859 368.15 333.938C367.541 338.948 367.067 343.992 366.728 349.07C366.458 353.336 366.221 357.602 366.017 361.867C365.882 366.065 365.747 370.297 365.611 374.562C370.08 374.698 374.481 374.766 378.814 374.766C383.215 374.766 387.616 374.833 392.017 374.969L393.541 393.961Z" fill="#C40000"/>
<path d="M463.286 334.648C456.65 334.987 450.049 335.359 443.481 335.766C436.981 336.104 430.414 336.544 423.778 337.086L423.575 345.109L449.778 343.586C450.117 345.888 450.354 348.156 450.489 350.391C450.692 352.625 450.794 354.893 450.794 357.195C450.794 358.143 450.76 359.125 450.692 360.141C450.692 361.156 450.692 362.138 450.692 363.086L426.317 367.453L427.841 380.047C432.986 379.708 438.098 379.234 443.177 378.625C448.322 377.948 453.502 377.372 458.716 376.898C459.19 380.284 459.664 383.703 460.137 387.156C460.611 390.542 461.289 393.859 462.169 397.109C452.554 397.042 443.007 397.042 433.528 397.109C424.049 397.245 414.502 397.312 404.887 397.312C405.091 389.391 405.328 381.503 405.598 373.648C405.869 365.794 406.005 357.872 406.005 349.883V347.953C406.005 343.349 405.937 338.779 405.802 334.242C405.666 329.638 405.531 325 405.395 320.328C410.744 320.396 416.059 320.43 421.341 320.43C426.69 320.362 432.072 320.328 437.489 320.328C441.619 320.328 445.716 320.43 449.778 320.633C453.908 320.768 458.039 320.938 462.169 321.141L463.286 334.648Z" fill="#C40000"/>
<path d="M541.867 396.195L526.429 398.531C525.346 395.078 524.263 391.659 523.179 388.273C522.096 384.82 521.047 381.367 520.031 377.914L495.047 378.828L491.898 392.336H476.257C477.205 380.826 478.187 369.383 479.203 358.008C480.218 346.633 481.2 335.224 482.148 323.781C487.023 322.969 491.864 322.292 496.672 321.75C501.547 321.208 506.455 320.938 511.398 320.938C517.424 320.938 523.45 321.039 529.476 321.242C530.56 328.284 531.609 335.326 532.625 342.367C533.708 349.341 534.825 356.349 535.976 363.391C536.789 368.943 537.669 374.427 538.617 379.844C539.632 385.26 540.716 390.711 541.867 396.195ZM516.476 364.102C516.408 363.492 516.239 362.375 515.968 360.75C515.698 359.057 515.393 357.297 515.054 355.469C514.716 353.573 514.31 351.88 513.836 350.391C513.429 348.833 513.023 347.919 512.617 347.648C512.481 347.581 512.143 347.513 511.601 347.445C511.127 347.378 510.586 347.31 509.976 347.242C509.435 347.174 508.893 347.141 508.351 347.141C507.81 347.141 507.437 347.141 507.234 347.141C506.895 347.141 506.422 347.141 505.812 347.141C505.27 347.141 504.661 347.174 503.984 347.242C503.375 347.242 502.765 347.31 502.156 347.445C501.614 347.581 501.242 347.75 501.039 347.953C500.903 348.021 500.734 348.461 500.531 349.273C500.328 350.086 500.057 351.102 499.718 352.32C499.448 353.471 499.143 354.724 498.804 356.078C498.533 357.432 498.263 358.719 497.992 359.938C497.721 361.156 497.484 362.206 497.281 363.086C497.145 363.966 497.044 364.474 496.976 364.609L516.476 364.102Z" fill="#C40000"/>
<path d="M628.674 345.414C628.674 350.966 626.982 355.333 623.596 358.516C620.211 361.698 615.742 363.424 610.19 363.695C616.893 374.867 622.75 386.31 627.76 398.023L598.104 398.734C597.562 393.25 596.75 388.206 595.667 383.602C594.583 378.997 593.06 374.156 591.096 369.078C588.862 369.214 586.627 369.383 584.393 369.586C582.226 369.789 580.06 369.958 577.893 370.094L578.401 393.148C574.542 393.352 570.682 393.453 566.823 393.453C564.859 393.453 562.93 393.419 561.034 393.352C559.206 393.284 557.344 393.148 555.448 392.945C555.922 386.716 556.362 380.521 556.768 374.359C557.174 368.13 557.411 361.935 557.479 355.773C557.682 344.805 557.987 333.836 558.393 322.867C564.758 322.529 571.088 322.156 577.385 321.75C583.75 321.344 590.114 321.141 596.479 321.141C598.104 321.141 599.864 321.174 601.76 321.242C603.656 321.31 605.552 321.513 607.448 321.852C609.411 322.122 611.273 322.529 613.034 323.07C614.862 323.612 616.487 324.323 617.909 325.203C621.362 327.37 624.002 330.281 625.831 333.938C627.726 337.526 628.674 341.352 628.674 345.414ZM605.112 343.789C605.112 343.247 605.078 342.503 605.01 341.555C605.01 340.607 604.943 339.659 604.807 338.711C604.672 337.695 604.469 336.781 604.198 335.969C603.927 335.089 603.555 334.445 603.081 334.039C602.742 333.768 602.167 333.565 601.354 333.43C600.542 333.294 599.661 333.193 598.713 333.125C597.833 332.99 596.953 332.922 596.073 332.922C595.26 332.854 594.685 332.82 594.346 332.82C591.638 332.82 588.963 332.956 586.323 333.227C583.75 333.497 581.177 333.836 578.604 334.242L581.346 353.945C582.836 354.284 584.393 354.521 586.018 354.656C587.643 354.792 589.234 354.859 590.792 354.859C591.469 354.859 592.45 354.826 593.737 354.758C595.091 354.69 596.445 354.555 597.799 354.352C599.221 354.148 600.508 353.878 601.659 353.539C602.877 353.133 603.724 352.625 604.198 352.016C604.401 351.745 604.57 351.237 604.706 350.492C604.841 349.68 604.909 348.867 604.909 348.055C604.976 347.174 605.01 346.328 605.01 345.516C605.078 344.703 605.112 344.128 605.112 343.789Z" fill="#C40000"/>
<path d="M254.876 534.5H266.376M278.376 534.5H266.376M266.376 534.5L272.876 545M266.376 534.5L258.876 551.5" stroke="#C40000" stroke-width="5" stroke-linecap="square" stroke-dasharray="8 8"/>
<path d="M197.376 360L202.376 395L229.376 404L241.376 413.5L242.876 448.5H275.876C285.543 446.667 305.476 443 307.876 443C310.276 443 341.543 423.333 356.876 413.5L365.876 443L353.376 432L354.876 452.5L349.876 448.5V465L335.376 455.5L337.876 476L328.376 467V489L347.376 485L345.876 503.5L369.376 500L365.876 514.5H383.376L378.376 532C355.709 525.333 310.476 510.8 310.876 506C302.876 512.8 287.876 523.167 281.376 527.5M197.376 360H183.876V393H193.876V386L190.876 366.5M197.376 360L196.876 353.5M281.376 527.5C281.376 519 279.876 500.9 273.876 496.5L212.876 500M281.376 527.5H247.876M281.376 527.5L262.376 501.5L247.876 527.5M212.876 500V527.5M212.876 500V491.5M212.876 446H202.376M212.876 446V480.5M212.876 446L224.376 463.5L212.876 480.5M158.876 446H172.876M158.876 446H133.876L158.876 411.25M158.876 446V411.25M126.876 355V376.5H142.876M126.876 355L196.876 353.5M126.876 355L127.876 341.5H104.376V316L149.376 319L162.876 332H197.376L196.876 353.5M247.876 527.5H212.876M247.876 527.5L233.876 501.5L212.876 527.5M212.876 491.5L190.876 500.5L202.376 446M212.876 491.5V480.5M202.376 446L172.876 467V446M202.376 446H172.876M158.876 411.25L133.876 413.5L158.876 393.875M158.876 411.25V393.875M158.876 393.875V390M158.876 390V376.5H142.876M158.876 390H133.876L142.876 376.5M197.376 400.5H175.876V362H133.876M249.876 491.5H233.876M233.876 491.5V460M233.876 491.5H219.376M422 488L412 472.5L406 485L397.5 474.5L387.876 487L376.5 470L361 482M422 434.5L412 452.5L406 436.5L397.5 451.5L387.876 436.5L373.876 454H363.5M389.5 463H422M167.376 343H189.876M312.876 482L297.876 496.5C293.043 501 275.876 507.5 284.376 487.5C286.926 481.5 303.709 476.333 312.876 482ZM299.876 544.5L306.876 520.5L286.876 534L277.376 554L299.876 544.5ZM295.876 555.5L288.876 581.5L262.376 582L274.376 563.5L295.876 555.5ZM257.876 593L283.376 594L269.376 611L239.376 599.5L257.876 593ZM172.876 474.5L183.876 495L190.876 462.5L172.876 474.5ZM192.876 508.5L205.876 523.5L208.376 503.5L192.876 508.5ZM215.376 554V563.5L224.376 552H247.876V534H215.376V554ZM186.876 515.5L205.376 534L206.876 549.5L178.376 521L186.876 515.5ZM182.876 508L166.376 478.5L155.876 487.5L172.876 513.5L182.876 508ZM152.376 474.5L165.376 470.5V453.5H134.876L152.376 474.5ZM126.376 440.5L142.876 420L127.876 422.5L126.376 440.5ZM114.876 400.5L126.876 409L140.876 398L114.876 400.5ZM105.376 391.5L123.376 390.5C122.376 386.833 119.676 383.3 116.876 380.5C114.076 377.7 106.876 372.167 105.376 374V391.5ZM106.376 352.5L104.376 347.5L119.876 348L117.876 353L111.876 366.5L106.376 352.5ZM166.876 439V406.5L189.876 439H166.876ZM233.876 441.5L213.876 418.5L233.876 420V441.5ZM242.876 473.5V455.5L270.376 454L242.876 473.5ZM122.376 417.5C106.709 420.5 70.0759 440.7 70.8759 497.5C64.4759 497.5 51.3757 514.333 46.3757 513.5C46.3757 513.5 -14.6243 509.5 6.87571 505C19.7831 502.298 31.876 459.5 31.876 459.5L55.376 454.5L54.3759 431.5L79.3758 434.5V417.5H122.376ZM177.876 408L200.876 439H218.376L193.876 408H177.876ZM113.876 335.5L135.376 324.5L112.876 323L113.876 335.5ZM147.376 327.5L160.376 347L135.376 348L147.376 327.5Z" stroke="#C40000" stroke-width="5" stroke-linecap="square" stroke-dasharray="6 6"/>
<path d="M33.8758 500L32.0198 501.675L32.0198 501.675L33.8758 500ZM33.8756 481.5L32.289 479.568L33.8756 481.5ZM53.3758 489.5L54.6721 491.638L53.3758 489.5ZM36.9643 472.251L34.7137 473.339L32.5366 468.838L34.7872 467.749L36.9643 472.251ZM63.0186 446H60.5186V441H63.0186V446ZM51.3757 465.5L49.4826 467.133L47.645 465.002L49.9771 463.428L51.3757 465.5ZM63.0186 479L65.4068 479.739L64.0725 484.05L61.1254 480.633L63.0186 479ZM71.3757 452L69.977 449.928L75.8641 445.954L73.7639 452.739L71.3757 452ZM40.1757 466.881L42.6628 467.135L42.1553 472.109L39.6682 471.855L40.1757 466.881ZM46.0017 474.624L43.9778 473.157L46.9128 469.109L48.9367 470.577L46.0017 474.624ZM55.322 477.076L56.7408 479.134L52.6241 481.972L51.2053 479.913L55.322 477.076ZM53.2468 485.767L53.6992 483.308L58.6167 484.213L58.1643 486.672L53.2468 485.767ZM46.5972 491.236L44.4813 489.904L47.1443 485.672L49.2602 487.004L46.5972 491.236ZM40.5736 479.4L42.6772 480.75L39.9754 484.958L37.8718 483.607L40.5736 479.4ZM33.1358 486.56L32.1789 488.869L27.5597 486.956L28.5166 484.646L33.1358 486.56ZM28.8155 496.633L27.8445 494.329L32.4519 492.387L33.4229 494.691L28.8155 496.633ZM38.5188 499.942L40.9009 500.701L39.3829 505.465L37.0009 504.706L38.5188 499.942ZM47.0156 505.57L44.5218 505.747L44.1685 500.76L46.6622 500.583L47.0156 505.57ZM67.2329 441H69.7329V446H67.2329V441ZM75.6614 446H73.1614V441H75.6614V446ZM56.1796 467.242L57.8124 469.135L54.026 472.401L52.3933 470.508L56.1796 467.242ZM58.2147 477.258L56.582 475.365L60.3683 472.099L62.0011 473.992L58.2147 477.258ZM61.675 474.886L62.4142 472.498L67.1907 473.976L66.4514 476.364L61.675 474.886ZM68.5407 469.614L67.8015 472.002L63.0251 470.524L63.7643 468.136L68.5407 469.614ZM65.8536 461.386L66.5928 458.998L71.3692 460.476L70.63 462.864L65.8536 461.386ZM72.7193 456.114L71.9801 458.502L67.2037 457.024L67.9429 454.636L72.7193 456.114ZM70.2744 455.76L68.2023 457.158L65.4049 453.014L67.4771 451.615L70.2744 455.76ZM62.4771 454.99L64.5492 453.592L67.3465 457.736L65.2744 459.135L62.4771 454.99ZM60.2744 462.51L58.2023 463.908L55.4049 459.764L57.4771 458.365L60.2744 462.51ZM52.4771 461.74L54.5492 460.342L57.3466 464.486L55.2744 465.885L52.4771 461.74ZM34.7872 467.749C36.5147 466.914 38.3712 466.697 40.1757 466.881L39.6682 471.855C38.6014 471.746 37.7062 471.892 36.9643 472.251L34.7872 467.749ZM48.9367 470.577C51.4095 472.369 53.6556 474.658 55.322 477.076L51.2053 479.913C49.8723 477.98 48.0308 476.096 46.0017 474.624L48.9367 470.577ZM58.1643 486.672C57.7901 488.706 56.6255 490.453 54.6721 491.638L52.0795 487.363C52.8286 486.908 53.1343 486.379 53.2468 485.767L58.1643 486.672ZM54.6721 491.638C53.2781 492.483 51.8089 492.797 50.3412 492.638C48.929 492.485 47.6704 491.911 46.5972 491.236L49.2602 487.004C49.9513 487.439 50.4789 487.624 50.8806 487.667C51.2266 487.705 51.5988 487.654 52.0795 487.363L54.6721 491.638ZM37.8718 483.607C37.1782 483.161 36.7205 483.031 36.4365 483.018C36.2352 483.008 35.9378 483.042 35.4623 483.432L32.289 479.568C33.6075 478.485 35.0939 477.949 36.6727 478.023C38.1689 478.094 39.4876 478.702 40.5736 479.4L37.8718 483.607ZM35.4623 483.432C34.3835 484.318 33.6225 485.385 33.1358 486.56L28.5166 484.646C29.3084 482.735 30.5566 480.991 32.289 479.568L35.4623 483.432ZM33.4229 494.691C33.976 496.003 34.7557 497.244 35.7318 498.325L32.0198 501.675C30.6603 500.169 29.5813 498.45 28.8155 496.633L33.4229 494.691ZM35.7318 498.325C36.329 498.987 37.2507 499.538 38.5188 499.942L37.0009 504.706C35.2019 504.132 33.3971 503.201 32.0198 501.675L35.7318 498.325ZM46.6622 500.583C47.8941 500.496 48.9622 500.36 49.7193 500.246C50.0969 500.19 50.3948 500.139 50.5943 500.103C50.694 500.085 50.7689 500.071 50.8167 500.062C50.8406 500.058 50.8577 500.054 50.8678 500.052C50.8728 500.051 50.876 500.051 50.8775 500.05C50.8782 500.05 50.8784 500.05 50.8782 500.05C50.8781 500.05 50.8779 500.05 50.8776 500.05C50.8774 500.05 50.8773 500.05 50.877 500.05C50.8769 500.05 50.8767 500.05 50.8767 500.05C50.8765 500.051 50.8763 500.051 51.3757 502.5C51.8752 504.95 51.875 504.95 51.8748 504.95C51.8747 504.95 51.8745 504.95 51.8743 504.95C51.8739 504.95 51.8736 504.95 51.8732 504.95C51.8724 504.95 51.8715 504.951 51.8705 504.951C51.8684 504.951 51.8659 504.952 51.8629 504.952C51.8569 504.953 51.8491 504.955 51.8394 504.957C51.8201 504.961 51.7934 504.966 51.7598 504.972C51.6926 504.985 51.5973 505.003 51.4763 505.025C51.2345 505.068 50.8895 505.127 50.4604 505.191C49.6041 505.32 48.4038 505.472 47.0156 505.57L46.6622 500.583ZM63.0186 441H67.2329V446H63.0186V441ZM75.6614 441H79.8757V446H75.6614V441ZM53.2689 463.867L56.1796 467.242L52.3933 470.508L49.4826 467.133L53.2689 463.867ZM62.0011 473.992L64.9118 477.367L61.1254 480.633L58.2147 477.258L62.0011 473.992ZM60.6304 478.261L61.675 474.886L66.4514 476.364L65.4068 479.739L60.6304 478.261ZM63.7643 468.136L65.8536 461.386L70.63 462.864L68.5407 469.614L63.7643 468.136ZM67.9429 454.636L68.9875 451.261L73.7639 452.739L72.7193 456.114L67.9429 454.636ZM72.7744 454.072L70.2744 455.76L67.4771 451.615L69.977 449.928L72.7744 454.072ZM65.2744 459.135L60.2744 462.51L57.4771 458.365L62.4771 454.99L65.2744 459.135ZM55.2744 465.885L52.7744 467.572L49.9771 463.428L52.4771 461.74L55.2744 465.885Z" fill="#C40000"/>
<path d="M108.876 354.5H116.376" stroke="#C40000" stroke-width="5" stroke-linecap="square" stroke-dasharray="8 8"/>
<path d="M642.124 534.5H630.624M618.624 534.5H630.624M630.624 534.5L624.124 545M630.624 534.5L638.124 551.5" stroke="#C40000" stroke-width="5" stroke-linecap="square" stroke-dasharray="8 8"/>
<path d="M699.624 360L694.624 395L667.624 404L655.624 413.5L654.124 448.5H621.124C611.457 446.667 591.524 443 589.124 443C586.724 443 555.457 423.333 540.124 413.5L531.124 443L543.624 432L542.124 452.5L547.124 448.5V465L561.624 455.5L559.124 476L568.624 467V489L549.624 485L551.124 503.5L527.624 500L531.124 514.5H513.624L518.624 532C541.291 525.333 586.524 510.8 586.124 506C594.124 512.8 609.124 523.167 615.624 527.5M699.624 360H713.124V393H703.124V386L706.124 366.5M699.624 360L700.124 353.5M615.624 527.5C615.624 519 617.124 500.9 623.124 496.5L684.124 500M615.624 527.5H649.124M615.624 527.5L634.624 501.5L649.124 527.5M684.124 500V527.5M684.124 500V491.5M684.124 446H694.624M684.124 446V480.5M684.124 446L672.624 463.5L684.124 480.5M738.124 446H724.124M738.124 446H763.124L738.124 411.25M738.124 446V411.25M770.124 355V376.5H754.124M770.124 355L700.124 353.5M770.124 355L769.124 341.5H792.624V316L747.624 319L734.124 332H699.624L700.124 353.5M649.124 527.5H684.124M649.124 527.5L663.124 501.5L684.124 527.5M684.124 491.5L706.124 500.5L694.624 446M684.124 491.5V480.5M694.624 446L724.124 467V446M694.624 446H724.124M738.124 411.25L763.124 413.5L738.124 393.875M738.124 411.25V393.875M738.124 393.875V390M738.124 390V376.5H754.124M738.124 390H763.124L754.124 376.5M699.624 400.5H721.124V362H763.124M647.124 491.5H663.124M663.124 491.5V460M663.124 491.5H677.624M475 488L485 472.5L491 485L499.5 474.5L509.124 487L520.5 470L536 482M475 434.5L485 452.5L491 436.5L499.5 451.5L509.124 436.5L523.124 454H533.5M507.5 463H475M729.624 343H707.124M584.124 482L599.124 496.5C603.957 501 621.124 507.5 612.624 487.5C610.074 481.5 593.291 476.333 584.124 482ZM597.124 544.5L590.124 520.5L610.124 534L619.624 554L597.124 544.5ZM601.124 555.5L608.124 581.5L634.624 582L622.624 563.5L601.124 555.5ZM639.124 593L613.624 594L627.624 611L657.624 599.5L639.124 593ZM724.124 474.5L713.124 495L706.124 462.5L724.124 474.5ZM704.124 508.5L691.124 523.5L688.624 503.5L704.124 508.5ZM681.624 554V563.5L672.624 552H649.124V534H681.624V554ZM710.124 515.5L691.624 534L690.124 549.5L718.624 521L710.124 515.5ZM714.124 508L730.624 478.5L741.124 487.5L724.124 513.5L714.124 508ZM744.624 474.5L731.624 470.5V453.5H762.124L744.624 474.5ZM770.624 440.5L754.124 420L769.124 422.5L770.624 440.5ZM782.124 400.5L770.124 409L756.124 398L782.124 400.5ZM791.624 391.5L773.624 390.5C774.624 386.833 777.324 383.3 780.124 380.5C782.924 377.7 790.124 372.167 791.624 374V391.5ZM790.624 352.5L792.624 347.5L777.124 348L779.124 353L785.124 366.5L790.624 352.5ZM730.124 439V406.5L707.124 439H730.124ZM663.124 441.5L683.124 418.5L663.124 420V441.5ZM654.124 473.5V455.5L626.624 454L654.124 473.5ZM774.624 417.5C790.291 420.5 826.924 440.7 826.124 497.5C832.524 497.5 845.624 514.333 850.624 513.5C850.624 513.5 911.624 509.5 890.124 505C877.217 502.298 865.124 459.5 865.124 459.5L841.624 454.5L842.624 431.5L817.624 434.5V417.5H774.624ZM719.124 408L696.124 439H678.624L703.124 408H719.124ZM783.124 335.5L761.624 324.5L784.124 323L783.124 335.5ZM749.624 327.5L736.624 347L761.624 348L749.624 327.5Z" stroke="#C40000" stroke-width="5" stroke-linecap="square" stroke-dasharray="6 6"/>
<path d="M863.124 500L864.98 501.675L864.98 501.675L863.124 500ZM863.124 481.5L864.711 479.568L863.124 481.5ZM843.624 489.5L842.328 491.638L843.624 489.5ZM860.036 472.251L862.286 473.339L864.463 468.838L862.213 467.749L860.036 472.251ZM833.981 446H836.481V441H833.981V446ZM845.624 465.5L847.517 467.133L849.355 465.002L847.023 463.428L845.624 465.5ZM833.981 479L831.593 479.739L832.927 484.05L835.875 480.633L833.981 479ZM825.624 452L827.023 449.928L821.136 445.954L823.236 452.739L825.624 452ZM856.824 466.881L854.337 467.135L854.845 472.109L857.332 471.855L856.824 466.881ZM850.998 474.624L853.022 473.157L850.087 469.109L848.063 470.577L850.998 474.624ZM841.678 477.076L840.259 479.134L844.376 481.972L845.795 479.913L841.678 477.076ZM843.753 485.767L843.301 483.308L838.383 484.213L838.836 486.672L843.753 485.767ZM850.403 491.236L852.519 489.904L849.856 485.672L847.74 487.004L850.403 491.236ZM856.426 479.4L854.323 480.75L857.025 484.958L859.128 483.607L856.426 479.4ZM863.864 486.56L864.821 488.869L869.44 486.956L868.483 484.646L863.864 486.56ZM868.185 496.633L869.156 494.329L864.548 492.387L863.577 494.691L868.185 496.633ZM858.481 499.942L856.099 500.701L857.617 505.465L859.999 504.706L858.481 499.942ZM849.984 505.57L852.478 505.747L852.832 500.76L850.338 500.583L849.984 505.57ZM829.767 441H827.267V446H829.767V441ZM821.339 446H823.839V441H821.339V446ZM840.82 467.242L839.188 469.135L842.974 472.401L844.607 470.508L840.82 467.242ZM838.785 477.258L840.418 475.365L836.632 472.099L834.999 473.992L838.785 477.258ZM835.325 474.886L834.586 472.498L829.809 473.976L830.549 476.364L835.325 474.886ZM828.459 469.614L829.198 472.002L833.975 470.524L833.236 468.136L828.459 469.614ZM831.146 461.386L830.407 458.998L825.631 460.476L826.37 462.864L831.146 461.386ZM824.281 456.114L825.02 458.502L829.796 457.024L829.057 454.636L824.281 456.114ZM826.726 455.76L828.798 457.158L831.595 453.014L829.523 451.615L826.726 455.76ZM834.523 454.99L832.451 453.592L829.653 457.736L831.726 459.135L834.523 454.99ZM836.726 462.51L838.798 463.908L841.595 459.764L839.523 458.365L836.726 462.51ZM844.523 461.74L842.451 460.342L839.653 464.486L841.726 465.885L844.523 461.74ZM862.213 467.749C860.485 466.914 858.629 466.697 856.824 466.881L857.332 471.855C858.399 471.746 859.294 471.892 860.036 472.251L862.213 467.749ZM848.063 470.577C845.59 472.369 843.344 474.658 841.678 477.076L845.795 479.913C847.128 477.98 848.969 476.096 850.998 474.624L848.063 470.577ZM838.836 486.672C839.21 488.706 840.375 490.453 842.328 491.638L844.921 487.363C844.171 486.908 843.866 486.379 843.753 485.767L838.836 486.672ZM842.328 491.638C843.722 492.483 845.191 492.797 846.659 492.638C848.071 492.485 849.33 491.911 850.403 491.236L847.74 487.004C847.049 487.439 846.521 487.624 846.119 487.667C845.773 487.705 845.401 487.654 844.921 487.363L842.328 491.638ZM859.128 483.607C859.822 483.161 860.28 483.031 860.563 483.018C860.765 483.008 861.062 483.042 861.538 483.432L864.711 479.568C863.392 478.485 861.906 477.949 860.327 478.023C858.831 478.094 857.512 478.702 856.426 479.4L859.128 483.607ZM861.538 483.432C862.616 484.318 863.377 485.385 863.864 486.56L868.483 484.646C867.692 482.735 866.443 480.991 864.711 479.568L861.538 483.432ZM863.577 494.691C863.024 496.003 862.244 497.244 861.268 498.325L864.98 501.675C866.34 500.169 867.419 498.45 868.185 496.633L863.577 494.691ZM861.268 498.325C860.671 498.987 859.749 499.538 858.481 499.942L859.999 504.706C861.798 504.132 863.603 503.201 864.98 501.675L861.268 498.325ZM850.338 500.583C849.106 500.496 848.038 500.36 847.281 500.246C846.903 500.19 846.605 500.139 846.406 500.103C846.306 500.085 846.231 500.071 846.183 500.062C846.159 500.058 846.142 500.054 846.132 500.052C846.127 500.051 846.124 500.051 846.123 500.05C846.122 500.05 846.122 500.05 846.122 500.05C846.122 500.05 846.122 500.05 846.122 500.05C846.123 500.05 846.123 500.05 846.123 500.05C846.123 500.05 846.123 500.05 846.123 500.05C846.124 500.051 846.124 500.051 845.624 502.5C845.125 504.95 845.125 504.95 845.125 504.95C845.125 504.95 845.126 504.95 845.126 504.95C845.126 504.95 845.126 504.95 845.127 504.95C845.128 504.95 845.129 504.951 845.13 504.951C845.132 504.951 845.134 504.952 845.137 504.952C845.143 504.953 845.151 504.955 845.161 504.957C845.18 504.961 845.207 504.966 845.24 504.972C845.307 504.985 845.403 505.003 845.524 505.025C845.765 505.068 846.111 505.127 846.54 505.191C847.396 505.32 848.596 505.472 849.984 505.57L850.338 500.583ZM833.981 441H829.767V446H833.981V441ZM821.339 441H817.124V446H821.339V441ZM843.731 463.867L840.82 467.242L844.607 470.508L847.517 467.133L843.731 463.867ZM834.999 473.992L832.088 477.367L835.875 480.633L838.785 477.258L834.999 473.992ZM836.37 478.261L835.325 474.886L830.549 476.364L831.593 479.739L836.37 478.261ZM833.236 468.136L831.146 461.386L826.37 462.864L828.459 469.614L833.236 468.136ZM829.057 454.636L828.012 451.261L823.236 452.739L824.281 456.114L829.057 454.636ZM824.226 454.072L826.726 455.76L829.523 451.615L827.023 449.928L824.226 454.072ZM831.726 459.135L836.726 462.51L839.523 458.365L834.523 454.99L831.726 459.135ZM841.726 465.885L844.226 467.572L847.023 463.428L844.523 461.74L841.726 465.885Z" fill="#C40000"/>
<path d="M788.124 354.5H780.624" stroke="#C40000" stroke-width="5" stroke-linecap="square" stroke-dasharray="8 8"/>
<path d="M192.785 310.762C192.785 317.613 186.708 323.5 178.785 323.5C170.862 323.5 164.785 317.613 164.785 310.762C164.785 307.124 166.44 301.631 169.251 297.028C172.148 292.286 175.624 289.5 178.785 289.5C181.947 289.5 185.423 292.286 188.319 297.028C191.13 301.631 192.785 307.124 192.785 310.762Z" stroke="#C40000" stroke-width="5"/>
<circle r="3" transform="matrix(0.999981 -0.00622762 -0.00622762 -0.999981 146.748 306.528)" stroke="#C40000" stroke-width="3" stroke-dasharray="210 10"/>
<circle r="3" transform="matrix(0.999981 -0.00622762 -0.00622762 -0.999981 136.748 306.59)" stroke="#C40000" stroke-width="3" stroke-dasharray="210 10"/>
<circle r="3" transform="matrix(0.999981 -0.00622762 -0.00622762 -0.999981 126.749 306.652)" stroke="#C40000" stroke-width="3" stroke-dasharray="210 10"/>
<circle r="3" transform="matrix(0.999981 -0.00622762 -0.00622762 -0.999981 116.749 306.714)" stroke="#C40000" stroke-width="3" stroke-dasharray="210 10"/>
<circle r="3" transform="matrix(0.999981 -0.00625193 -0.00625193 -0.999981 106.749 306.778)" stroke="#C40000" stroke-width="3" stroke-dasharray="210 10"/>
<path d="M254.876 79.5H266.376M278.376 79.5H266.376M266.376 79.5L272.876 69M266.376 79.5L258.876 62.5" stroke="#C40000" stroke-width="5" stroke-linecap="square" stroke-dasharray="8 8"/>
<path d="M197.376 254L202.376 219L229.376 210L241.376 200.5L242.876 165.5H275.876C285.543 167.333 305.476 171 307.876 171C310.276 171 341.543 190.667 356.876 200.5L365.876 171L353.376 182L354.876 161.5L349.876 165.5V149L335.376 158.5L337.876 138L328.376 147V125L347.376 129L345.876 110.5L369.376 114L365.876 99.5H383.376L378.376 82C355.709 88.6667 310.476 103.2 310.876 108C302.876 101.2 287.876 90.8333 281.376 86.5M197.376 254H183.876V221H193.876V228L190.876 247.5M197.376 254L196.876 260.5M281.376 86.5C281.376 95 279.876 113.1 273.876 117.5L212.876 114M281.376 86.5L247.876 86.5M281.376 86.5L262.376 112.5L247.876 86.5M212.876 114V86.5M212.876 114V122.5M212.876 168H202.376M212.876 168V133.5M212.876 168L224.376 150.5L212.876 133.5M158.876 168H172.876M158.876 168H133.876L158.876 202.75M158.876 168V202.75M126.876 259V237.5H142.876M126.876 259L196.876 260.5M126.876 259L127.876 272.5H104.376V298L149.376 295L162.876 282H197.376L196.876 260.5M247.876 86.5H212.876M247.876 86.5L233.876 112.5L212.876 86.5M212.876 122.5L190.876 113.5L202.376 168M212.876 122.5V133.5M202.376 168L172.876 147V168M202.376 168H172.876M158.876 202.75L133.876 200.5L158.876 220.125M158.876 202.75V220.125M158.876 220.125V224M158.876 224V237.5H142.876M158.876 224H133.876L142.876 237.5M197.376 213.5H175.876V252H133.876M249.876 122.5H233.876M233.876 122.5V154M233.876 122.5H219.376M422 126L412 141.5L406 129L397.5 139.5L387.876 127L376.5 144L361 132M422 179.5L412 161.5L406 177.5L397.5 162.5L387.876 177.5L373.876 160H363.5M389.5 151H422M167.376 271H189.876M312.876 132L297.876 117.5C293.043 113 275.876 106.5 284.376 126.5C286.926 132.5 303.709 137.667 312.876 132ZM299.876 69.5L306.876 93.5L286.876 80L277.376 60L299.876 69.5ZM295.876 58.5L288.876 32.5L262.376 32L274.376 50.5L295.876 58.5ZM257.876 21L283.376 20L269.376 3L239.376 14.5L257.876 21ZM172.876 139.5L183.876 119L190.876 151.5L172.876 139.5ZM192.876 105.5L205.876 90.5L208.376 110.5L192.876 105.5ZM215.376 60V50.5L224.376 62H247.876V80H215.376V60ZM186.876 98.5L205.376 80L206.876 64.5L178.376 93L186.876 98.5ZM182.876 106L166.376 135.5L155.876 126.5L172.876 100.5L182.876 106ZM152.376 139.5L165.376 143.5V160.5H134.876L152.376 139.5ZM126.376 173.5L142.876 194L127.876 191.5L126.376 173.5ZM114.876 213.5L126.876 205L140.876 216L114.876 213.5ZM105.376 222.5L123.376 223.5C122.376 227.167 119.676 230.7 116.876 233.5C114.076 236.3 106.876 241.833 105.376 240V222.5ZM106.376 261.5L104.376 266.5L119.876 266L117.876 261L111.876 247.5L106.376 261.5ZM166.876 175V207.5L189.876 175H166.876ZM233.876 172.5L213.876 195.5L233.876 194V172.5ZM242.876 140.5V158.5L270.376 160L242.876 140.5ZM122.376 196.5C106.709 193.5 70.0759 173.3 70.8759 116.5C64.4759 116.5 51.3757 99.6667 46.3757 100.5C46.3757 100.5 -14.6243 104.5 6.87571 109C19.7831 111.702 31.876 154.5 31.876 154.5L55.376 159.5L54.3759 182.5L79.3758 179.5V196.5H122.376ZM177.876 206L200.876 175H218.376L193.876 206H177.876ZM113.876 278.5L135.376 289.5L112.876 291L113.876 278.5ZM147.376 286.5L160.376 267L135.376 266L147.376 286.5Z" stroke="#C40000" stroke-width="5" stroke-linecap="square" stroke-dasharray="6 6"/>
<path d="M33.8758 114L32.0198 112.325L32.0198 112.325L33.8758 114ZM33.8756 132.5L32.289 134.432L33.8756 132.5ZM53.3758 124.5L54.6721 122.362L53.3758 124.5ZM36.9643 141.749L34.7137 140.661L32.5366 145.162L34.7872 146.251L36.9643 141.749ZM63.0186 168H60.5186V173H63.0186V168ZM51.3757 148.5L49.4826 146.867L47.645 148.998L49.9771 150.572L51.3757 148.5ZM63.0186 135L65.4068 134.261L64.0725 129.95L61.1254 133.367L63.0186 135ZM71.3757 162L69.977 164.072L75.8641 168.046L73.7639 161.261L71.3757 162ZM40.1757 147.119L42.6628 146.865L42.1553 141.891L39.6682 142.145L40.1757 147.119ZM46.0017 139.376L43.9778 140.843L46.9128 144.891L48.9367 143.423L46.0017 139.376ZM55.322 136.924L56.7408 134.866L52.6241 132.028L51.2053 134.087L55.322 136.924ZM53.2468 128.233L53.6992 130.692L58.6167 129.787L58.1643 127.328L53.2468 128.233ZM46.5972 122.764L44.4813 124.096L47.1443 128.328L49.2602 126.996L46.5972 122.764ZM40.5736 134.6L42.6772 133.25L39.9754 129.042L37.8718 130.393L40.5736 134.6ZM33.1358 127.44L32.1789 125.131L27.5597 127.044L28.5166 129.354L33.1358 127.44ZM28.8155 117.367L27.8445 119.671L32.4519 121.613L33.4229 119.309L28.8155 117.367ZM38.5188 114.058L40.9009 113.299L39.3829 108.535L37.0009 109.294L38.5188 114.058ZM47.0156 108.43L44.5218 108.253L44.1685 113.24L46.6622 113.417L47.0156 108.43ZM67.2329 173H69.7329V168H67.2329V173ZM75.6614 168H73.1614V173H75.6614V168ZM56.1796 146.758L57.8124 144.865L54.026 141.599L52.3933 143.492L56.1796 146.758ZM58.2147 136.742L56.582 138.635L60.3683 141.901L62.0011 140.008L58.2147 136.742ZM61.675 139.114L62.4142 141.502L67.1907 140.024L66.4514 137.636L61.675 139.114ZM68.5407 144.386L67.8015 141.998L63.0251 143.476L63.7643 145.864L68.5407 144.386ZM65.8536 152.614L66.5928 155.002L71.3692 153.524L70.63 151.136L65.8536 152.614ZM72.7193 157.886L71.9801 155.498L67.2037 156.976L67.9429 159.364L72.7193 157.886ZM70.2744 158.24L68.2023 156.842L65.4049 160.986L67.4771 162.385L70.2744 158.24ZM62.4771 159.01L64.5492 160.408L67.3465 156.264L65.2744 154.865L62.4771 159.01ZM60.2744 151.49L58.2023 150.092L55.4049 154.236L57.4771 155.635L60.2744 151.49ZM52.4771 152.26L54.5492 153.658L57.3466 149.514L55.2744 148.115L52.4771 152.26ZM34.7872 146.251C36.5147 147.086 38.3712 147.303 40.1757 147.119L39.6682 142.145C38.6014 142.254 37.7062 142.108 36.9643 141.749L34.7872 146.251ZM48.9367 143.423C51.4095 141.631 53.6556 139.342 55.322 136.924L51.2053 134.087C49.8723 136.02 48.0308 137.904 46.0017 139.376L48.9367 143.423ZM58.1643 127.328C57.7901 125.294 56.6255 123.547 54.6721 122.362L52.0795 126.637C52.8286 127.092 53.1343 127.621 53.2468 128.233L58.1643 127.328ZM54.6721 122.362C53.2781 121.517 51.8089 121.203 50.3412 121.362C48.929 121.515 47.6704 122.089 46.5972 122.764L49.2602 126.996C49.9513 126.561 50.4789 126.376 50.8806 126.333C51.2266 126.295 51.5988 126.346 52.0795 126.637L54.6721 122.362ZM37.8718 130.393C37.1782 130.839 36.7205 130.969 36.4365 130.982C36.2352 130.992 35.9378 130.958 35.4623 130.568L32.289 134.432C33.6075 135.515 35.0939 136.051 36.6727 135.977C38.1689 135.906 39.4876 135.298 40.5736 134.6L37.8718 130.393ZM35.4623 130.568C34.3835 129.682 33.6225 128.615 33.1358 127.44L28.5166 129.354C29.3084 131.265 30.5566 133.009 32.289 134.432L35.4623 130.568ZM33.4229 119.309C33.976 117.997 34.7557 116.756 35.7318 115.675L32.0198 112.325C30.6603 113.831 29.5813 115.55 28.8155 117.367L33.4229 119.309ZM35.7318 115.675C36.329 115.013 37.2507 114.462 38.5188 114.058L37.0009 109.294C35.2019 109.868 33.3971 110.799 32.0198 112.325L35.7318 115.675ZM46.6622 113.417C47.8941 113.504 48.9622 113.64 49.7193 113.754C50.0969 113.81 50.3948 113.861 50.5943 113.897C50.694 113.915 50.7689 113.929 50.8167 113.938C50.8406 113.942 50.8577 113.946 50.8678 113.948C50.8728 113.949 50.876 113.949 50.8775 113.95C50.8782 113.95 50.8784 113.95 50.8782 113.95C50.8781 113.95 50.8779 113.95 50.8776 113.95C50.8774 113.95 50.8773 113.95 50.877 113.95C50.8769 113.95 50.8767 113.95 50.8767 113.95C50.8765 113.949 50.8763 113.949 51.3757 111.5C51.8752 109.05 51.875 109.05 51.8748 109.05C51.8747 109.05 51.8745 109.05 51.8743 109.05C51.8739 109.05 51.8736 109.05 51.8732 109.05C51.8724 109.05 51.8715 109.049 51.8705 109.049C51.8684 109.049 51.8659 109.048 51.8629 109.048C51.8569 109.047 51.8491 109.045 51.8394 109.043C51.8201 109.039 51.7934 109.034 51.7598 109.028C51.6926 109.015 51.5973 108.997 51.4763 108.975C51.2345 108.932 50.8895 108.873 50.4604 108.809C49.6041 108.68 48.4038 108.528 47.0156 108.43L46.6622 113.417ZM63.0186 173H67.2329V168H63.0186V173ZM75.6614 173H79.8757V168H75.6614V173ZM53.2689 150.133L56.1796 146.758L52.3933 143.492L49.4826 146.867L53.2689 150.133ZM62.0011 140.008L64.9118 136.633L61.1254 133.367L58.2147 136.742L62.0011 140.008ZM60.6304 135.739L61.675 139.114L66.4514 137.636L65.4068 134.261L60.6304 135.739ZM63.7643 145.864L65.8536 152.614L70.63 151.136L68.5407 144.386L63.7643 145.864ZM67.9429 159.364L68.9875 162.739L73.7639 161.261L72.7193 157.886L67.9429 159.364ZM72.7744 159.928L70.2744 158.24L67.4771 162.385L69.977 164.072L72.7744 159.928ZM65.2744 154.865L60.2744 151.49L57.4771 155.635L62.4771 159.01L65.2744 154.865ZM55.2744 148.115L52.7744 146.428L49.9771 150.572L52.4771 152.26L55.2744 148.115Z" fill="#C40000"/>
<path d="M108.876 259.5H116.376" stroke="#C40000" stroke-width="5" stroke-linecap="square" stroke-dasharray="8 8"/>
<path d="M166.285 309.5L169.285 304.842L174.885 312L180.085 304.421L185.285 310.737L189.785 304.842" stroke="#C40000" stroke-width="5" stroke-linecap="square" stroke-dasharray="8 8"/>
<path d="M704.215 310.762C704.215 317.613 710.292 323.5 718.215 323.5C726.138 323.5 732.215 317.613 732.215 310.762C732.215 307.124 730.56 301.631 727.749 297.028C724.852 292.286 721.376 289.5 718.215 289.5C715.053 289.5 711.577 292.286 708.681 297.028C705.87 301.631 704.215 307.124 704.215 310.762Z" stroke="#C40000" stroke-width="5"/>
<circle cx="750.252" cy="306.528" r="3" transform="rotate(-179.643 750.252 306.528)" stroke="#C40000" stroke-width="3" stroke-dasharray="210 10"/>
<circle cx="760.252" cy="306.59" r="3" transform="rotate(-179.643 760.252 306.59)" stroke="#C40000" stroke-width="3" stroke-dasharray="210 10"/>
<circle cx="770.251" cy="306.652" r="3" transform="rotate(-179.643 770.251 306.652)" stroke="#C40000" stroke-width="3" stroke-dasharray="210 10"/>
<circle cx="780.251" cy="306.715" r="3" transform="rotate(-179.643 780.251 306.715)" stroke="#C40000" stroke-width="3" stroke-dasharray="210 10"/>
<circle cx="790.251" cy="306.778" r="3" transform="rotate(-179.642 790.251 306.778)" stroke="#C40000" stroke-width="3" stroke-dasharray="210 10"/>
<path d="M642.124 79.5H630.624M618.624 79.5H630.624M630.624 79.5L624.124 69M630.624 79.5L638.124 62.5" stroke="#C40000" stroke-width="5" stroke-linecap="square" stroke-dasharray="8 8"/>
<path d="M699.624 254L694.624 219L667.624 210L655.624 200.5L654.124 165.5H621.124C611.457 167.333 591.524 171 589.124 171C586.724 171 555.457 190.667 540.124 200.5L531.124 171L543.624 182L542.124 161.5L547.124 165.5V149L561.624 158.5L559.124 138L568.624 147V125L549.624 129L551.124 110.5L527.624 114L531.124 99.5H513.624L518.624 82C541.291 88.6667 586.524 103.2 586.124 108C594.124 101.2 609.124 90.8333 615.624 86.5M699.624 254H713.124V221H703.124V228L706.124 247.5M699.624 254L700.124 260.5M615.624 86.5C615.624 95 617.124 113.1 623.124 117.5L684.124 114M615.624 86.5L649.124 86.5M615.624 86.5L634.624 112.5L649.124 86.5M684.124 114V86.5M684.124 114V122.5M684.124 168H694.624M684.124 168V133.5M684.124 168L672.624 150.5L684.124 133.5M738.124 168H724.124M738.124 168H763.124L738.124 202.75M738.124 168V202.75M770.124 259V237.5H754.124M770.124 259L700.124 260.5M770.124 259L769.124 272.5H792.624V298L747.624 295L734.124 282H699.624L700.124 260.5M649.124 86.5H684.124M649.124 86.5L663.124 112.5L684.124 86.5M684.124 122.5L706.124 113.5L694.624 168M684.124 122.5V133.5M694.624 168L724.124 147V168M694.624 168H724.124M738.124 202.75L763.124 200.5L738.124 220.125M738.124 202.75V220.125M738.124 220.125V224M738.124 224V237.5H754.124M738.124 224H763.124L754.124 237.5M699.624 213.5H721.124V252H763.124M647.124 122.5H663.124M663.124 122.5V154M663.124 122.5H677.624M475 126L485 141.5L491 129L499.5 139.5L509.124 127L520.5 144L536 132M475 179.5L485 161.5L491 177.5L499.5 162.5L509.124 177.5L523.124 160H533.5M507.5 151H475M729.624 271H707.124M584.124 132L599.124 117.5C603.957 113 621.124 106.5 612.624 126.5C610.074 132.5 593.291 137.667 584.124 132ZM597.124 69.5L590.124 93.5L610.124 80L619.624 60L597.124 69.5ZM601.124 58.5L608.124 32.5L634.624 32L622.624 50.5L601.124 58.5ZM639.124 21L613.624 20L627.624 3L657.624 14.5L639.124 21ZM724.124 139.5L713.124 119L706.124 151.5L724.124 139.5ZM704.124 105.5L691.124 90.5L688.624 110.5L704.124 105.5ZM681.624 60V50.5L672.624 62H649.124V80H681.624V60ZM710.124 98.5L691.624 80L690.124 64.5L718.624 93L710.124 98.5ZM714.124 106L730.624 135.5L741.124 126.5L724.124 100.5L714.124 106ZM744.624 139.5L731.624 143.5V160.5H762.124L744.624 139.5ZM770.624 173.5L754.124 194L769.124 191.5L770.624 173.5ZM782.124 213.5L770.124 205L756.124 216L782.124 213.5ZM791.624 222.5L773.624 223.5C774.624 227.167 777.324 230.7 780.124 233.5C782.924 236.3 790.124 241.833 791.624 240V222.5ZM790.624 261.5L792.624 266.5L777.124 266L779.124 261L785.124 247.5L790.624 261.5ZM730.124 175V207.5L707.124 175H730.124ZM663.124 172.5L683.124 195.5L663.124 194V172.5ZM654.124 140.5V158.5L626.624 160L654.124 140.5ZM774.624 196.5C790.291 193.5 826.924 173.3 826.124 116.5C832.524 116.5 845.624 99.6667 850.624 100.5C850.624 100.5 911.624 104.5 890.124 109C877.217 111.702 865.124 154.5 865.124 154.5L841.624 159.5L842.624 182.5L817.624 179.5V196.5H774.624ZM719.124 206L696.124 175H678.624L703.124 206H719.124ZM783.124 278.5L761.624 289.5L784.124 291L783.124 278.5ZM749.624 286.5L736.624 267L761.624 266L749.624 286.5Z" stroke="#C40000" stroke-width="5" stroke-linecap="square" stroke-dasharray="6 6"/>
<path d="M863.124 114L864.98 112.325L864.98 112.325L863.124 114ZM863.124 132.5L864.711 134.432L863.124 132.5ZM843.624 124.5L842.328 122.362L843.624 124.5ZM860.036 141.749L862.286 140.661L864.463 145.162L862.213 146.251L860.036 141.749ZM833.981 168H836.481V173H833.981V168ZM845.624 148.5L847.517 146.867L849.355 148.998L847.023 150.572L845.624 148.5ZM833.981 135L831.593 134.261L832.927 129.95L835.875 133.367L833.981 135ZM825.624 162L827.023 164.072L821.136 168.046L823.236 161.261L825.624 162ZM856.824 147.119L854.337 146.865L854.845 141.891L857.332 142.145L856.824 147.119ZM850.998 139.376L853.022 140.843L850.087 144.891L848.063 143.423L850.998 139.376ZM841.678 136.924L840.259 134.866L844.376 132.028L845.795 134.087L841.678 136.924ZM843.753 128.233L843.301 130.692L838.383 129.787L838.836 127.328L843.753 128.233ZM850.403 122.764L852.519 124.096L849.856 128.328L847.74 126.996L850.403 122.764ZM856.426 134.6L854.323 133.25L857.025 129.042L859.128 130.393L856.426 134.6ZM863.864 127.44L864.821 125.131L869.44 127.044L868.483 129.354L863.864 127.44ZM868.185 117.367L869.156 119.671L864.548 121.613L863.577 119.309L868.185 117.367ZM858.481 114.058L856.099 113.299L857.617 108.535L859.999 109.294L858.481 114.058ZM849.984 108.43L852.478 108.253L852.832 113.24L850.338 113.417L849.984 108.43ZM829.767 173H827.267V168H829.767V173ZM821.339 168H823.839V173H821.339V168ZM840.82 146.758L839.188 144.865L842.974 141.599L844.607 143.492L840.82 146.758ZM838.785 136.742L840.418 138.635L836.632 141.901L834.999 140.008L838.785 136.742ZM835.325 139.114L834.586 141.502L829.809 140.024L830.549 137.636L835.325 139.114ZM828.459 144.386L829.198 141.998L833.975 143.476L833.236 145.864L828.459 144.386ZM831.146 152.614L830.407 155.002L825.631 153.524L826.37 151.136L831.146 152.614ZM824.281 157.886L825.02 155.498L829.796 156.976L829.057 159.364L824.281 157.886ZM826.726 158.24L828.798 156.842L831.595 160.986L829.523 162.385L826.726 158.24ZM834.523 159.01L832.451 160.408L829.653 156.264L831.726 154.865L834.523 159.01ZM836.726 151.49L838.798 150.092L841.595 154.236L839.523 155.635L836.726 151.49ZM844.523 152.26L842.451 153.658L839.653 149.514L841.726 148.115L844.523 152.26ZM862.213 146.251C860.485 147.086 858.629 147.303 856.824 147.119L857.332 142.145C858.399 142.254 859.294 142.108 860.036 141.749L862.213 146.251ZM848.063 143.423C845.59 141.631 843.344 139.342 841.678 136.924L845.795 134.087C847.128 136.02 848.969 137.904 850.998 139.376L848.063 143.423ZM838.836 127.328C839.21 125.294 840.375 123.547 842.328 122.362L844.921 126.637C844.171 127.092 843.866 127.621 843.753 128.233L838.836 127.328ZM842.328 122.362C843.722 121.517 845.191 121.203 846.659 121.362C848.071 121.515 849.33 122.089 850.403 122.764L847.74 126.996C847.049 126.561 846.521 126.376 846.119 126.333C845.773 126.295 845.401 126.346 844.921 126.637L842.328 122.362ZM859.128 130.393C859.822 130.839 860.28 130.969 860.563 130.982C860.765 130.992 861.062 130.958 861.538 130.568L864.711 134.432C863.392 135.515 861.906 136.051 860.327 135.977C858.831 135.906 857.512 135.298 856.426 134.6L859.128 130.393ZM861.538 130.568C862.616 129.682 863.377 128.615 863.864 127.44L868.483 129.354C867.692 131.265 866.443 133.009 864.711 134.432L861.538 130.568ZM863.577 119.309C863.024 117.997 862.244 116.756 861.268 115.675L864.98 112.325C866.34 113.831 867.419 115.55 868.185 117.367L863.577 119.309ZM861.268 115.675C860.671 115.013 859.749 114.462 858.481 114.058L859.999 109.294C861.798 109.868 863.603 110.799 864.98 112.325L861.268 115.675ZM850.338 113.417C849.106 113.504 848.038 113.64 847.281 113.754C846.903 113.81 846.605 113.861 846.406 113.897C846.306 113.915 846.231 113.929 846.183 113.938C846.159 113.942 846.142 113.946 846.132 113.948C846.127 113.949 846.124 113.949 846.123 113.95C846.122 113.95 846.122 113.95 846.122 113.95C846.122 113.95 846.122 113.95 846.122 113.95C846.123 113.95 846.123 113.95 846.123 113.95C846.123 113.95 846.123 113.95 846.123 113.95C846.124 113.949 846.124 113.949 845.624 111.5C845.125 109.05 845.125 109.05 845.125 109.05C845.125 109.05 845.126 109.05 845.126 109.05C845.126 109.05 845.126 109.05 845.127 109.05C845.128 109.05 845.129 109.049 845.13 109.049C845.132 109.049 845.134 109.048 845.137 109.048C845.143 109.047 845.151 109.045 845.161 109.043C845.18 109.039 845.207 109.034 845.24 109.028C845.307 109.015 845.403 108.997 845.524 108.975C845.765 108.932 846.111 108.873 846.54 108.809C847.396 108.68 848.596 108.528 849.984 108.43L850.338 113.417ZM833.981 173H829.767V168H833.981V173ZM821.339 173H817.124V168H821.339V173ZM843.731 150.133L840.82 146.758L844.607 143.492L847.517 146.867L843.731 150.133ZM834.999 140.008L832.088 136.633L835.875 133.367L838.785 136.742L834.999 140.008ZM836.37 135.739L835.325 139.114L830.549 137.636L831.593 134.261L836.37 135.739ZM833.236 145.864L831.146 152.614L826.37 151.136L828.459 144.386L833.236 145.864ZM829.057 159.364L828.012 162.739L823.236 161.261L824.281 157.886L829.057 159.364ZM824.226 159.928L826.726 158.24L829.523 162.385L827.023 164.072L824.226 159.928ZM831.726 154.865L836.726 151.49L839.523 155.635L834.523 159.01L831.726 154.865ZM841.726 148.115L844.226 146.428L847.023 150.572L844.523 152.26L841.726 148.115Z" fill="#C40000"/>
<path d="M788.124 259.5H780.624" stroke="#C40000" stroke-width="5" stroke-linecap="square" stroke-dasharray="8 8"/>
<path d="M730.715 309.5L727.715 304.842L722.115 312L716.915 304.421L711.715 310.737L707.215 304.842" stroke="#C40000" stroke-width="5" stroke-linecap="square" stroke-dasharray="8 8"/>
<path d="M441.501 65.9839L450.501 46L459.5 65.9839L450.501 91.5L441.501 65.9839Z" stroke="#C40000" stroke-width="5" stroke-linecap="square" stroke-dasharray="8 8"/>
<path d="M417.591 85.8919L437.887 94.1636L430.629 73.4836L406.52 61.2037L417.591 85.8919Z" stroke="#C40000" stroke-width="5" stroke-linecap="square" stroke-dasharray="8 8"/>
<path d="M482.815 85.8919L462.519 94.1636L469.776 73.4836L493.886 61.2037L482.815 85.8919Z" stroke="#C40000" stroke-width="5" stroke-linecap="square" stroke-dasharray="8 8"/>
<path d="M450 123.5L453.5 127L446.5 134.5L436 124L450.293 110L464.5 124L441 150.89L429.597 150.89" stroke="#C40000" stroke-width="5" stroke-linecap="square" stroke-dasharray="8 8"/>
<path d="M447.195 178.092L443.695 174.592L450.695 167.092L461.195 177.592L446.902 191.592L432.695 177.592L456.195 150.702L467.598 150.702" stroke="#C40000" stroke-width="5" stroke-linecap="square" stroke-dasharray="8 8"/>
<path d="M441.501 547.858L450.501 567.842L459.5 547.858L450.501 522.342L441.501 547.858Z" stroke="#C40000" stroke-width="5" stroke-linecap="square" stroke-dasharray="8 8"/>
<path d="M417.591 527.95L437.887 519.678L430.629 540.358L406.52 552.638L417.591 527.95Z" stroke="#C40000" stroke-width="5" stroke-linecap="square" stroke-dasharray="8 8"/>
<path d="M482.815 527.95L462.519 519.678L469.776 540.358L493.886 552.638L482.815 527.95Z" stroke="#C40000" stroke-width="5" stroke-linecap="square" stroke-dasharray="8 8"/>
<path d="M450 490.342L453.5 486.842L446.5 479.342L436 489.842L450.293 503.842L464.5 489.842L441 462.952L429.597 462.952" stroke="#C40000" stroke-width="5" stroke-linecap="square" stroke-dasharray="8 8"/>
<path d="M447.195 435.75L443.695 439.25L450.695 446.75L461.195 436.25L446.902 422.25L432.695 436.25L456.195 463.14L467.598 463.14" stroke="#C40000" stroke-width="5" stroke-linecap="square" stroke-dasharray="8 8"/>
</svg>
