<svg width="24" height="26" viewBox="0 0 24 26" fill="none" xmlns="http://www.w3.org/2000/svg" preserveAspectRatio="none">
<path d="M24 15.5885C24 16.9004 23.3568 18.1288 22.2786 18.8761L14.2786 24.4208C12.908 25.3707 11.092 25.3707 9.72144 24.4208L1.72144 18.8761C0.643244 18.1288 0 16.9004 0 15.5885L0 4C0 1.79086 1.79086 0 4 0L20 0C22.2091 0 24 1.79086 24 4L24 15.5885Z" fill="#D76D6D"/>
<path d="M24 15.5885C24 16.9004 23.3568 18.1288 22.2786 18.8761L14.2786 24.4208C12.908 25.3707 11.092 25.3707 9.72144 24.4208L1.72144 18.8761C0.643244 18.1288 0 16.9004 0 15.5885L0 4C0 1.79086 1.79086 0 4 0L20 0C22.2091 0 24 1.79086 24 4L24 15.5885Z" fill="url(#paint0_linear_3490_39358)" fill-opacity="0.4"/>
<path d="M23.5 15.5885C23.5 16.7364 22.9372 17.8113 21.9937 18.4652L13.9937 24.0098C12.7945 24.841 11.2055 24.841 10.0063 24.0098L2.00626 18.4652C1.06284 17.8113 0.5 16.7364 0.5 15.5885L0.5 4C0.5 2.06701 2.067 0.5 4 0.5L20 0.5C21.933 0.5 23.5 2.067 23.5 4L23.5 15.5885Z" stroke="#463E29" stroke-opacity="0.6"/>
<g filter="url(#filter0_di_3490_39358)">
<path d="M8 11H16" stroke="white" stroke-width="3" stroke-linecap="round"/>
</g>
<mask id="path-4-inside-1_3490_39358" fill="white">
<path fill-rule="evenodd" clip-rule="evenodd" d="M23 5.7998V3.9998C23 2.34295 21.6569 0.999802 20 0.999802L4 0.999802C2.34315 0.999802 1 2.34295 1 3.9998V5.7998C1 3.59067 2.79086 1.7998 5 1.7998L19 1.7998C21.2091 1.7998 23 3.59066 23 5.7998Z"/>
</mask>
<path d="M22 3.9998V5.7998H24V3.9998H22ZM20 1.9998C21.1046 1.9998 22 2.89523 22 3.9998H24C24 1.79066 22.2091 -0.000197887 20 -0.000197887V1.9998ZM4 1.9998L20 1.9998V-0.000197887L4 -0.000197887V1.9998ZM2 3.9998C2 2.89523 2.89543 1.9998 4 1.9998V-0.000197887C1.79086 -0.000197887 0 1.79067 0 3.9998H2ZM2 5.7998V3.9998H0V5.7998H2ZM2 5.7998C2 4.14295 3.34315 2.7998 5 2.7998V0.799803C2.23858 0.799803 0 3.03838 0 5.7998H2ZM5 2.7998L19 2.7998V0.799803L5 0.799803V2.7998ZM19 2.7998C20.6569 2.7998 22 4.14295 22 5.7998H24C24 3.03838 21.7614 0.799803 19 0.799803V2.7998Z" fill="#F4B0B0" mask="url(#path-4-inside-1_3490_39358)"/>
<mask id="path-6-inside-2_3490_39358" fill="white">
<path fill-rule="evenodd" clip-rule="evenodd" d="M21.7134 18.0418C22.5194 17.481 23 16.5612 23 15.5793V14.7581C23 16.158 22.2681 17.4561 21.0702 18.1807L14.0702 22.4148C12.7974 23.1847 11.2026 23.1847 9.92977 22.4148L2.92977 18.1807C1.7319 17.4561 1 16.158 1 14.7581V15.5793C1 16.5612 1.48055 17.481 2.28659 18.0418L10.2866 23.6081C11.3165 24.3247 12.6835 24.3247 13.7134 23.6081L21.7134 18.0418Z"/>
</mask>
<path d="M21.7134 18.0418L21.1423 17.221L21.7134 18.0418ZM21.0702 18.1807L20.5527 17.325L21.0702 18.1807ZM14.0702 22.4148L14.5878 23.2704V23.2704L14.0702 22.4148ZM9.92977 22.4148L9.41221 23.2704V23.2704L9.92977 22.4148ZM2.92977 18.1807L3.44733 17.325L2.92977 18.1807ZM2.28659 18.0418L2.85773 17.221V17.221L2.28659 18.0418ZM10.2866 23.6081L10.8577 22.7872L10.2866 23.6081ZM13.7134 23.6081L14.2845 24.4289L13.7134 23.6081ZM22 15.5793C22 16.2339 21.6796 16.8471 21.1423 17.221L22.2845 18.8627C23.3593 18.1149 24 16.8885 24 15.5793H22ZM22 14.7581V15.5793H24V14.7581H22ZM22 14.7581C22 15.8081 21.4511 16.7816 20.5527 17.325L21.5878 19.0363C23.0851 18.1306 24 16.508 24 14.7581H22ZM20.5527 17.325L13.5527 21.5591L14.5878 23.2704L21.5878 19.0363L20.5527 17.325ZM13.5527 21.5591C12.5981 22.1365 11.4019 22.1365 10.4473 21.5591L9.41221 23.2704C11.0032 24.2328 12.9968 24.2328 14.5878 23.2704L13.5527 21.5591ZM10.4473 21.5591L3.44733 17.325L2.41221 19.0363L9.41221 23.2704L10.4473 21.5591ZM3.44733 17.325C2.54893 16.7816 2 15.8081 2 14.7581L0 14.7581C0 16.508 0.914873 18.1306 2.41221 19.0363L3.44733 17.325ZM2 15.5793V14.7581L0 14.7581V15.5793L2 15.5793ZM2.85773 17.221C2.32037 16.8471 2 16.2339 2 15.5793L0 15.5793C0 16.8885 0.640738 18.1149 1.71545 18.8627L2.85773 17.221ZM10.8577 22.7872L2.85773 17.221L1.71545 18.8627L9.71546 24.4289L10.8577 22.7872ZM13.1423 22.7872C12.4557 23.2649 11.5443 23.2649 10.8577 22.7872L9.71546 24.4289C11.0886 25.3844 12.9114 25.3844 14.2845 24.4289L13.1423 22.7872ZM21.1423 17.221L13.1423 22.7872L14.2845 24.4289L22.2845 18.8627L21.1423 17.221Z" fill="#974545" mask="url(#path-6-inside-2_3490_39358)"/>
<defs>
<filter id="filter0_di_3490_39358" x="5.5" y="9.5" width="13" height="5" filterUnits="userSpaceOnUse" color-interpolation-filters="sRGB">
<feFlood flood-opacity="0" result="BackgroundImageFix"/>
<feColorMatrix in="SourceAlpha" type="matrix" values="0 0 0 0 0 0 0 0 0 0 0 0 0 0 0 0 0 0 127 0" result="hardAlpha"/>
<feOffset dy="1"/>
<feGaussianBlur stdDeviation="0.5"/>
<feComposite in2="hardAlpha" operator="out"/>
<feColorMatrix type="matrix" values="0 0 0 0 1 0 0 0 0 1 0 0 0 0 1 0 0 0 0.3 0"/>
<feBlend mode="normal" in2="BackgroundImageFix" result="effect1_dropShadow_3490_39358"/>
<feBlend mode="normal" in="SourceGraphic" in2="effect1_dropShadow_3490_39358" result="shape"/>
<feColorMatrix in="SourceAlpha" type="matrix" values="0 0 0 0 0 0 0 0 0 0 0 0 0 0 0 0 0 0 127 0" result="hardAlpha"/>
<feOffset dy="1"/>
<feGaussianBlur stdDeviation="1.5"/>
<feComposite in2="hardAlpha" operator="arithmetic" k2="-1" k3="1"/>
<feColorMatrix type="matrix" values="0 0 0 0 0 0 0 0 0 0 0 0 0 0 0 0 0 0 0.15 0"/>
<feBlend mode="normal" in2="shape" result="effect2_innerShadow_3490_39358"/>
</filter>
<linearGradient id="paint0_linear_3490_39358" x1="12" y1="28" x2="12" y2="-2.94525" gradientUnits="userSpaceOnUse">
<stop stop-color="white"/>
<stop offset="0.296053" stop-color="white" stop-opacity="0"/>
<stop offset="0.809498" stop-color="white" stop-opacity="0"/>
<stop offset="0.863545" stop-color="white"/>
</linearGradient>
</defs>
</svg>
