<svg width="151" height="141" viewBox="0 0 151 141" fill="none" xmlns="http://www.w3.org/2000/svg" preserveAspectRatio="none">
<rect y="53.3359" width="3.33336" height="3.33336" fill="white"/>
<rect x="3.33301" y="56.6758" width="3.33336" height="3.33336" fill="white"/>
<rect x="6.66504" y="60.001" width="3.33336" height="3.33336" fill="white"/>
<rect x="10.0049" y="63.333" width="3.33336" height="3.33336" fill="white"/>
<rect x="13.3301" y="66.666" width="3.33336" height="3.33336" fill="white"/>
<rect x="16.6699" y="70.0059" width="3.33336" height="3.33336" fill="white"/>
<rect x="19.9951" y="73.3232" width="3.33336" height="3.33336" fill="white"/>
<rect x="23.335" y="76.6709" width="3.33336" height="3.33336" fill="white"/>
<rect x="26.668" y="80.0029" width="3.33336" height="3.33336" fill="white"/>
<rect x="30" y="83.3359" width="3.33336" height="3.33336" fill="white"/>
<rect x="33.333" y="86.668" width="3.33336" height="3.33336" fill="white"/>
<rect x="36.665" y="90.001" width="3.33336" height="3.33336" fill="white"/>
<rect x="30" y="86.668" width="3.33336" height="3.33336" fill="white"/>
<rect x="33.333" y="90.001" width="3.33336" height="3.33336" fill="white"/>
<rect x="36.665" y="93.333" width="3.33336" height="3.33336" fill="white"/>
<rect x="39.998" y="93.333" width="3.33336" height="3.33336" fill="white"/>
<rect x="43.3379" y="96.666" width="3.33336" height="3.33336" fill="white"/>
<rect x="39.998" y="96.666" width="3.33336" height="3.33336" fill="white"/>
<rect x="43.3379" y="99.999" width="3.33336" height="3.33336" fill="white"/>
<rect x="46.6631" y="99.999" width="3.33336" height="3.33336" fill="white"/>
<rect x="50.0029" y="103.331" width="3.33336" height="3.33336" fill="white"/>
<rect x="46.6631" y="103.331" width="3.33336" height="3.33336" fill="white"/>
<rect x="50.0029" y="106.671" width="3.33336" height="3.33336" fill="white"/>
<rect x="50.0029" y="110.004" width="3.33336" height="3.33336" fill="white"/>
<rect x="56.668" y="110.004" width="3.33336" height="3.33336" fill="white"/>
<rect x="56.668" y="113.336" width="3.33336" height="3.33336" fill="white"/>
<rect x="56.668" y="116.669" width="3.33336" height="3.33336" fill="white"/>
<rect x="60.001" y="113.336" width="3.33336" height="3.33336" fill="white"/>
<rect x="60.001" y="116.669" width="3.33336" height="3.33336" fill="white"/>
<rect x="60.001" y="120.001" width="3.33336" height="3.33336" fill="white"/>
<rect x="63.333" y="116.669" width="3.33336" height="3.33336" fill="white"/>
<rect x="63.333" y="120.001" width="3.33336" height="3.33336" fill="white"/>
<rect x="63.333" y="123.334" width="3.33336" height="3.33336" fill="white"/>
<rect x="70.0059" y="129.999" width="3.33336" height="3.33336" fill="white"/>
<rect x="66.666" y="123.334" width="3.33336" height="3.33336" fill="white"/>
<rect x="66.666" y="126.666" width="3.33336" height="3.33336" fill="white"/>
<rect x="53.3359" y="106.671" width="3.33336" height="3.33336" fill="white"/>
<rect x="53.3359" y="110.004" width="3.33336" height="3.33336" fill="white"/>
<rect x="53.3359" y="113.336" width="3.33336" height="3.33336" fill="white"/>
<rect y="36.665" width="3.33336" height="3.33336" fill="white"/>
<rect y="40.0049" width="3.33336" height="3.33336" fill="white"/>
<rect y="43.3301" width="3.33336" height="3.33336" fill="white"/>
<rect y="46.6699" width="3.33336" height="3.33336" fill="white"/>
<rect y="50.0029" width="3.33336" height="3.33336" fill="white"/>
<rect x="3.33301" y="53.3359" width="3.33336" height="3.33336" fill="white"/>
<rect x="3.33301" y="36.665" width="3.33336" height="3.33336" fill="white"/>
<rect x="3.33301" y="33.333" width="3.33336" height="3.33336" fill="white"/>
<rect x="6.66504" y="33.333" width="3.33336" height="3.33336" fill="white"/>
<rect x="10.0049" y="30" width="3.33336" height="3.33336" fill="white"/>
<rect x="13.3301" y="30" width="3.33336" height="3.33336" fill="white"/>
<rect x="16.6699" y="26.6748" width="3.33336" height="3.33336" fill="white"/>
<rect x="19.9951" y="26.6748" width="3.33336" height="3.33336" fill="white"/>
<rect x="23.335" y="23.335" width="3.33336" height="3.33336" fill="white"/>
<rect x="26.668" y="23.335" width="3.33336" height="3.33336" fill="white"/>
<rect x="10.0049" y="33.333" width="3.33336" height="3.33336" fill="white"/>
<rect x="13.3301" y="33.333" width="3.33336" height="3.33336" fill="white"/>
<rect x="16.6699" y="30" width="3.33336" height="3.33336" fill="white"/>
<rect x="19.9951" y="30" width="3.33336" height="3.33336" fill="white"/>
<rect x="23.335" y="26.6748" width="3.33336" height="3.33336" fill="white"/>
<rect x="26.668" y="19.9951" width="3.33336" height="3.33336" fill="white"/>
<rect x="30" y="19.9951" width="3.33336" height="3.33336" fill="white"/>
<rect x="30" y="23.335" width="3.33336" height="3.33336" fill="white"/>
<rect x="33.333" y="16.6699" width="3.33336" height="3.33336" fill="white"/>
<rect x="36.665" y="16.6699" width="3.33336" height="3.33336" fill="white"/>
<rect x="39.998" y="13.3301" width="3.33336" height="3.33336" fill="white"/>
<rect x="43.3379" y="13.3301" width="3.33336" height="3.33336" fill="white"/>
<rect x="46.6631" y="9.99805" width="3.33336" height="3.33336" fill="white"/>
<rect x="33.333" y="19.9951" width="3.33336" height="3.33336" fill="white"/>
<rect x="36.665" y="19.9951" width="3.33336" height="3.33336" fill="white"/>
<rect x="39.998" y="16.6699" width="3.33336" height="3.33336" fill="white"/>
<rect x="43.3379" y="16.6699" width="3.33336" height="3.33336" fill="white"/>
<rect x="46.6631" y="13.3301" width="3.33336" height="3.33336" fill="white"/>
<rect x="50.0029" y="9.99805" width="3.33336" height="3.33336" fill="white"/>
<rect x="56.668" y="3.33301" width="3.33336" height="3.33336" fill="white"/>
<rect x="60.001" y="3.33301" width="3.33336" height="3.33336" fill="white"/>
<rect x="63.333" width="3.33336" height="3.33336" fill="white"/>
<rect x="66.666" width="3.33336" height="3.33336" fill="white"/>
<rect x="53.3359" y="6.66504" width="3.33336" height="3.33336" fill="white"/>
<rect x="56.668" y="6.66504" width="3.33336" height="3.33336" fill="white"/>
<rect x="60.001" y="6.66504" width="3.33336" height="3.33336" fill="white"/>
<rect x="63.333" y="3.33301" width="3.33336" height="3.33336" fill="white"/>
<rect x="66.666" y="3.33301" width="3.33336" height="3.33336" fill="white"/>
<rect x="70.0059" y="3.33301" width="3.33336" height="3.33336" fill="white"/>
<rect x="70.0059" y="6.66504" width="3.33336" height="3.33336" fill="white"/>
<rect x="73.3311" y="6.66504" width="3.33336" height="3.33336" fill="white"/>
<rect x="73.3311" y="9.99805" width="3.33336" height="3.33336" fill="white"/>
<rect x="123.334" y="46.6699" width="3.33336" height="3.33336" fill="white"/>
<rect x="133.331" y="53.3359" width="3.33336" height="3.33336" fill="white"/>
<rect x="136.664" y="56.6758" width="3.33336" height="3.33336" fill="white"/>
<rect x="139.996" y="60.001" width="3.33336" height="3.33336" fill="white"/>
<rect x="90.001" y="19.9951" width="3.33336" height="3.33336" fill="white"/>
<rect x="79.9961" y="16.6699" width="3.33336" height="3.33336" fill="white"/>
<rect x="79.9961" y="13.3301" width="3.33336" height="3.33336" fill="white"/>
<rect x="83.3359" y="13.3301" width="3.33336" height="3.33336" fill="white"/>
<rect x="83.3359" y="16.6699" width="3.33336" height="3.33336" fill="white"/>
<rect x="86.668" y="16.6699" width="3.33336" height="3.33336" fill="white"/>
<rect x="83.3359" y="19.9951" width="3.33336" height="3.33336" fill="white"/>
<rect x="86.668" y="19.9951" width="3.33336" height="3.33336" fill="white"/>
<rect x="93.333" y="23.335" width="3.33336" height="3.33336" fill="white"/>
<rect x="90.001" y="23.335" width="3.33336" height="3.33336" fill="white"/>
<rect x="96.666" y="26.6748" width="3.33336" height="3.33336" fill="white"/>
<rect x="93.333" y="26.6748" width="3.33336" height="3.33336" fill="white"/>
<rect x="103.331" y="30" width="3.33336" height="3.33336" fill="white"/>
<rect x="99.999" y="30" width="3.33336" height="3.33336" fill="white"/>
<rect x="106.664" y="33.333" width="3.33336" height="3.33336" fill="white"/>
<rect x="103.331" y="33.333" width="3.33336" height="3.33336" fill="white"/>
<rect x="96.666" y="30" width="3.33336" height="3.33336" fill="white"/>
<rect x="99.999" y="33.333" width="3.33336" height="3.33336" fill="white"/>
<rect x="99.999" y="40.0049" width="3.33336" height="3.33336" fill="white"/>
<rect x="103.331" y="40.0049" width="3.33336" height="3.33336" fill="white"/>
<rect x="106.664" y="43.3301" width="3.33336" height="3.33336" fill="white"/>
<rect x="110.004" y="46.6699" width="3.33336" height="3.33336" fill="white"/>
<rect x="113.336" y="46.6699" width="3.33336" height="3.33336" fill="white"/>
<rect x="113.336" y="36.665" width="3.33336" height="3.33336" fill="white"/>
<rect x="110.004" y="36.665" width="3.33336" height="3.33336" fill="white"/>
<rect x="106.664" y="36.665" width="3.33336" height="3.33336" fill="white"/>
<rect x="120.001" y="43.3301" width="3.33336" height="3.33336" fill="white"/>
<rect x="116.669" y="43.3301" width="3.33336" height="3.33336" fill="white"/>
<rect x="129.999" y="50.0029" width="3.33336" height="3.33336" fill="white"/>
<rect x="126.666" y="50.0029" width="3.33336" height="3.33336" fill="white"/>
<rect x="110.004" y="40.0049" width="3.33336" height="3.33336" fill="white"/>
<rect x="116.669" y="40.0049" width="3.33336" height="3.33336" fill="white"/>
<rect x="123.334" y="56.6758" width="3.33336" height="3.33336" fill="white"/>
<rect x="120.001" y="53.3359" width="3.33336" height="3.33336" fill="white"/>
<rect x="126.666" y="60.001" width="3.33336" height="3.33336" fill="white"/>
<rect x="116.669" y="50.0029" width="3.33336" height="3.33336" fill="white"/>
<rect x="70.0059" y="13.3301" width="3.33336" height="3.33336" fill="white"/>
<rect x="66.666" y="9.99805" width="3.33336" height="3.33336" fill="white"/>
<rect x="73.3311" y="16.6699" width="3.33336" height="3.33336" fill="white"/>
<rect x="83.3359" y="26.6748" width="3.33336" height="3.33336" fill="white"/>
<rect x="79.9961" y="23.335" width="3.33336" height="3.33336" fill="white"/>
<rect x="86.668" y="30" width="3.33336" height="3.33336" fill="white"/>
<rect x="90.001" y="30" width="3.33336" height="3.33336" fill="white"/>
<rect x="86.668" y="26.6748" width="3.33336" height="3.33336" fill="white"/>
<rect x="76.6709" y="19.9951" width="3.33336" height="3.33336" fill="white"/>
<rect x="113.336" y="40.0049" width="3.33336" height="3.33336" fill="white"/>
<rect x="76.6709" y="9.99805" width="3.33336" height="3.33336" fill="white"/>
<rect x="76.6709" y="13.3301" width="3.33336" height="3.33336" fill="white"/>
<rect x="53.3359" y="9.99805" width="3.33336" height="3.33336" fill="white"/>
<rect x="3.33301" y="40.0049" width="3.33336" height="3.33336" fill="white"/>
<rect x="3.33301" y="43.3301" width="3.33336" height="3.33336" fill="white"/>
<rect x="3.33301" y="46.6699" width="3.33336" height="3.33336" fill="white"/>
<rect x="3.33301" y="50.0029" width="3.33336" height="3.33336" fill="white"/>
<rect x="6.66504" y="56.6758" width="3.33336" height="3.33336" fill="white"/>
<rect x="6.66504" y="53.3359" width="3.33336" height="3.33336" fill="white"/>
<rect x="6.66504" y="43.3301" width="3.33336" height="3.33336" fill="white"/>
<rect x="6.66504" y="46.6699" width="3.33336" height="3.33336" fill="white"/>
<rect x="6.66504" y="50.0029" width="3.33336" height="3.33336" fill="white"/>
<rect x="10.0049" y="60.001" width="3.33336" height="3.33336" fill="white"/>
<rect x="10.0049" y="56.6758" width="3.33336" height="3.33336" fill="white"/>
<rect x="10.0049" y="53.3359" width="3.33336" height="3.33336" fill="white"/>
<rect x="13.3301" y="63.333" width="3.33336" height="3.33336" fill="white"/>
<rect x="13.3301" y="60.001" width="3.33336" height="3.33336" fill="white"/>
<rect x="13.3301" y="56.6758" width="3.33336" height="3.33336" fill="white"/>
<rect x="16.6699" y="66.666" width="3.33336" height="3.33336" fill="white"/>
<rect x="16.6699" y="63.333" width="3.33336" height="3.33336" fill="white"/>
<rect x="16.6699" y="60.001" width="3.33336" height="3.33336" fill="white"/>
<rect x="19.9951" y="70.0059" width="3.33336" height="3.33336" fill="white"/>
<rect x="19.9951" y="66.666" width="3.33336" height="3.33336" fill="white"/>
<rect x="19.9951" y="63.333" width="3.33336" height="3.33336" fill="white"/>
<rect x="23.335" y="73.3232" width="3.33336" height="3.33336" fill="white"/>
<rect x="23.335" y="70.0059" width="3.33336" height="3.33336" fill="white"/>
<rect x="23.335" y="66.666" width="3.33336" height="3.33336" fill="white"/>
<rect x="26.668" y="76.6709" width="3.33336" height="3.33336" fill="white"/>
<rect x="26.668" y="73.3232" width="3.33336" height="3.33336" fill="white"/>
<rect x="26.668" y="70.0059" width="3.33336" height="3.33336" fill="white"/>
<rect x="30" y="80.0029" width="3.33336" height="3.33336" fill="white"/>
<rect x="30" y="76.6709" width="3.33336" height="3.33336" fill="white"/>
<rect x="30" y="73.3232" width="3.33336" height="3.33336" fill="white"/>
<rect x="33.333" y="83.3359" width="3.33336" height="3.33336" fill="white"/>
<rect x="33.333" y="80.0029" width="3.33336" height="3.33336" fill="white"/>
<rect x="33.333" y="76.6709" width="3.33336" height="3.33336" fill="white"/>
<rect x="36.665" y="86.668" width="3.33336" height="3.33336" fill="white"/>
<rect x="36.665" y="83.3359" width="3.33336" height="3.33336" fill="white"/>
<rect x="36.665" y="80.0029" width="3.33336" height="3.33336" fill="white"/>
<rect x="39.998" y="90.001" width="3.33336" height="3.33336" fill="white"/>
<rect x="39.998" y="86.668" width="3.33336" height="3.33336" fill="white"/>
<rect x="39.998" y="83.3359" width="3.33336" height="3.33336" fill="white"/>
<rect x="43.3379" y="93.333" width="3.33336" height="3.33336" fill="white"/>
<rect x="43.3379" y="90.001" width="3.33336" height="3.33336" fill="white"/>
<rect x="46.6631" y="96.666" width="3.33336" height="3.33336" fill="white"/>
<rect x="46.6631" y="93.333" width="3.33336" height="3.33336" fill="white"/>
<rect x="50.0029" y="99.999" width="3.33336" height="3.33336" fill="white"/>
<rect x="50.0029" y="96.666" width="3.33336" height="3.33336" fill="white"/>
<rect x="53.3359" y="103.331" width="3.33336" height="3.33336" fill="white"/>
<rect x="53.3359" y="99.999" width="3.33336" height="3.33336" fill="white"/>
<rect x="56.668" y="106.671" width="3.33336" height="3.33336" fill="white"/>
<rect x="56.668" y="103.331" width="3.33336" height="3.33336" fill="white"/>
<rect x="60.001" y="110.004" width="3.33336" height="3.33336" fill="white"/>
<rect x="60.001" y="106.671" width="3.33336" height="3.33336" fill="white"/>
<rect x="60.001" y="103.331" width="3.33336" height="3.33336" fill="white"/>
<rect x="63.333" y="113.336" width="3.33336" height="3.33336" fill="white"/>
<rect x="63.333" y="110.004" width="3.33336" height="3.33336" fill="white"/>
<rect x="66.666" y="116.669" width="3.33336" height="3.33336" fill="white"/>
<rect x="66.666" y="120.001" width="3.33336" height="3.33336" fill="white"/>
<rect x="66.666" y="113.336" width="3.33336" height="3.33336" fill="white"/>
<rect x="70.0059" y="123.334" width="3.33336" height="3.33336" fill="white"/>
<rect x="70.0059" y="126.666" width="3.33336" height="3.33336" fill="white"/>
<rect x="70.0059" y="116.669" width="3.33336" height="3.33336" fill="white"/>
<rect x="70.0059" y="120.001" width="3.33336" height="3.33336" fill="white"/>
<rect x="70.0059" y="113.336" width="3.33336" height="3.33336" fill="white"/>
<rect x="76.6709" y="113.336" width="3.33336" height="3.33336" fill="white"/>
<rect x="79.9961" y="113.336" width="3.33336" height="3.33336" fill="white"/>
<rect x="73.3311" y="110.004" width="3.33336" height="3.33336" fill="white"/>
<rect x="76.6709" y="110.004" width="3.33336" height="3.33336" fill="white"/>
<rect x="79.9961" y="110.004" width="3.33336" height="3.33336" fill="white"/>
<rect x="70.0059" y="106.671" width="3.33336" height="3.33336" fill="white"/>
<rect x="73.3311" y="106.671" width="3.33336" height="3.33336" fill="white"/>
<rect x="76.6709" y="106.671" width="3.33336" height="3.33336" fill="white"/>
<rect x="66.666" y="103.331" width="3.33336" height="3.33336" fill="white"/>
<rect x="70.0059" y="103.331" width="3.33336" height="3.33336" fill="white"/>
<rect x="73.3311" y="103.331" width="3.33336" height="3.33336" fill="white"/>
<rect x="63.333" y="99.999" width="3.33336" height="3.33336" fill="white"/>
<rect x="66.666" y="99.999" width="3.33336" height="3.33336" fill="white"/>
<rect x="70.0059" y="99.999" width="3.33336" height="3.33336" fill="white"/>
<rect x="60.001" y="96.666" width="3.33336" height="3.33336" fill="white"/>
<rect x="63.333" y="96.666" width="3.33336" height="3.33336" fill="white"/>
<rect x="66.666" y="96.666" width="3.33336" height="3.33336" fill="white"/>
<rect x="56.668" y="93.333" width="3.33336" height="3.33336" fill="white"/>
<rect x="60.001" y="93.333" width="3.33336" height="3.33336" fill="white"/>
<rect x="63.333" y="93.333" width="3.33336" height="3.33336" fill="white"/>
<rect x="53.3359" y="90.001" width="3.33336" height="3.33336" fill="white"/>
<rect x="56.668" y="90.001" width="3.33336" height="3.33336" fill="white"/>
<rect x="60.001" y="90.001" width="3.33336" height="3.33336" fill="white"/>
<rect x="50.0029" y="86.668" width="3.33336" height="3.33336" fill="white"/>
<rect x="53.3359" y="86.668" width="3.33336" height="3.33336" fill="white"/>
<rect x="50.0029" y="83.3359" width="3.33336" height="3.33336" fill="white"/>
<rect x="53.3359" y="83.3359" width="3.33336" height="3.33336" fill="white"/>
<rect x="46.6631" y="80.0029" width="3.33336" height="3.33336" fill="white"/>
<rect x="50.0029" y="80.0029" width="3.33336" height="3.33336" fill="white"/>
<rect x="43.3379" y="76.6709" width="3.33336" height="3.33336" fill="white"/>
<rect x="46.6631" y="76.6709" width="3.33336" height="3.33336" fill="white"/>
<rect x="39.998" y="73.3232" width="3.33336" height="3.33336" fill="white"/>
<rect x="43.3379" y="73.3232" width="3.33336" height="3.33336" fill="white"/>
<rect x="36.665" y="70.0059" width="3.33336" height="3.33336" fill="white"/>
<rect x="39.998" y="70.0059" width="3.33336" height="3.33336" fill="white"/>
<rect x="33.333" y="66.666" width="3.33336" height="3.33336" fill="white"/>
<rect x="36.665" y="66.666" width="3.33336" height="3.33336" fill="white"/>
<rect x="30" y="63.333" width="3.33336" height="3.33336" fill="white"/>
<rect x="33.333" y="63.333" width="3.33336" height="3.33336" fill="white"/>
<rect x="26.668" y="60.001" width="3.33336" height="3.33336" fill="white"/>
<rect x="30" y="60.001" width="3.33336" height="3.33336" fill="white"/>
<rect x="23.335" y="56.6758" width="3.33336" height="3.33336" fill="white"/>
<rect x="26.668" y="56.6758" width="3.33336" height="3.33336" fill="white"/>
<rect x="19.9951" y="53.3359" width="3.33336" height="3.33336" fill="white"/>
<rect x="23.335" y="53.3359" width="3.33336" height="3.33336" fill="white"/>
<rect x="16.6699" y="50.0029" width="3.33336" height="3.33336" fill="white"/>
<rect x="19.9951" y="50.0029" width="3.33336" height="3.33336" fill="white"/>
<rect x="16.6699" y="46.6699" width="3.33336" height="3.33336" fill="white"/>
<rect x="13.3301" y="43.3301" width="3.33336" height="3.33336" fill="white"/>
<rect x="10.0049" y="40.0049" width="3.33336" height="3.33336" fill="white"/>
<rect x="36.665" y="56.6758" width="3.33336" height="3.33336" fill="white"/>
<rect x="33.333" y="53.3359" width="3.33336" height="3.33336" fill="white"/>
<rect x="30" y="50.0029" width="3.33336" height="3.33336" fill="white"/>
<rect x="26.668" y="46.6699" width="3.33336" height="3.33336" fill="white"/>
<rect x="23.335" y="43.3301" width="3.33336" height="3.33336" fill="white"/>
<rect x="19.9951" y="40.0049" width="3.33336" height="3.33336" fill="white"/>
<rect x="16.6699" y="36.665" width="3.33336" height="3.33336" fill="white"/>
<rect x="60.001" y="80.0029" width="3.33336" height="3.33336" fill="white"/>
<rect x="56.668" y="73.3232" width="3.33336" height="3.33336" fill="white"/>
<rect x="56.668" y="76.6709" width="3.33336" height="3.33336" fill="white"/>
<rect x="53.3359" y="73.3232" width="3.33336" height="3.33336" fill="white"/>
<rect x="63.333" y="73.3232" width="3.33336" height="3.33336" fill="white"/>
<rect x="60.001" y="73.3232" width="3.33336" height="3.33336" fill="white"/>
<rect x="70.0059" y="73.3232" width="3.33336" height="3.33336" fill="white"/>
<rect x="66.666" y="73.3232" width="3.33336" height="3.33336" fill="white"/>
<rect x="76.6709" y="73.3232" width="3.33336" height="3.33336" fill="white"/>
<rect x="73.3311" y="73.3232" width="3.33336" height="3.33336" fill="white"/>
<rect x="83.3359" y="73.3232" width="3.33336" height="3.33336" fill="white"/>
<rect x="79.9961" y="73.3232" width="3.33336" height="3.33336" fill="white"/>
<rect x="90.001" y="73.3232" width="3.33336" height="3.33336" fill="white"/>
<rect x="86.668" y="73.3232" width="3.33336" height="3.33336" fill="white"/>
<rect x="96.666" y="73.3232" width="3.33336" height="3.33336" fill="white"/>
<rect x="93.333" y="73.3232" width="3.33336" height="3.33336" fill="white"/>
<rect x="103.331" y="73.3232" width="3.33336" height="3.33336" fill="white"/>
<rect x="99.999" y="73.3232" width="3.33336" height="3.33336" fill="white"/>
<rect x="110.004" y="73.3232" width="3.33336" height="3.33336" fill="white"/>
<rect x="106.664" y="73.3232" width="3.33336" height="3.33336" fill="white"/>
<rect x="116.669" y="73.3232" width="3.33336" height="3.33336" fill="white"/>
<rect x="113.336" y="73.3232" width="3.33336" height="3.33336" fill="white"/>
<rect x="63.333" y="76.6709" width="3.33336" height="3.33336" fill="white"/>
<rect x="60.001" y="76.6709" width="3.33336" height="3.33336" fill="white"/>
<rect x="70.0059" y="76.6709" width="3.33336" height="3.33336" fill="white"/>
<rect x="66.666" y="76.6709" width="3.33336" height="3.33336" fill="white"/>
<rect x="76.6709" y="76.6709" width="3.33336" height="3.33336" fill="white"/>
<rect x="73.3311" y="76.6709" width="3.33336" height="3.33336" fill="white"/>
<rect x="83.3359" y="76.6709" width="3.33336" height="3.33336" fill="white"/>
<rect x="79.9961" y="76.6709" width="3.33336" height="3.33336" fill="white"/>
<rect x="90.001" y="76.6709" width="3.33336" height="3.33336" fill="white"/>
<rect x="86.668" y="76.6709" width="3.33336" height="3.33336" fill="white"/>
<rect x="96.666" y="76.6709" width="3.33336" height="3.33336" fill="white"/>
<rect x="93.333" y="76.6709" width="3.33336" height="3.33336" fill="white"/>
<rect x="103.331" y="76.6709" width="3.33336" height="3.33336" fill="white"/>
<rect x="99.999" y="76.6709" width="3.33336" height="3.33336" fill="white"/>
<rect x="110.004" y="76.6709" width="3.33336" height="3.33336" fill="white"/>
<rect x="106.664" y="76.6709" width="3.33336" height="3.33336" fill="white"/>
<rect x="63.333" y="80.0029" width="3.33336" height="3.33336" fill="white"/>
<rect x="70.0059" y="80.0029" width="3.33336" height="3.33336" fill="white"/>
<rect x="66.666" y="80.0029" width="3.33336" height="3.33336" fill="white"/>
<rect x="76.6709" y="80.0029" width="3.33336" height="3.33336" fill="white"/>
<rect x="73.3311" y="80.0029" width="3.33336" height="3.33336" fill="white"/>
<rect x="83.3359" y="80.0029" width="3.33336" height="3.33336" fill="white"/>
<rect x="79.9961" y="80.0029" width="3.33336" height="3.33336" fill="white"/>
<rect x="90.001" y="80.0029" width="3.33336" height="3.33336" fill="white"/>
<rect x="86.668" y="80.0029" width="3.33336" height="3.33336" fill="white"/>
<rect x="96.666" y="80.0029" width="3.33336" height="3.33336" fill="white"/>
<rect x="93.333" y="80.0029" width="3.33336" height="3.33336" fill="white"/>
<rect x="103.331" y="80.0029" width="3.33336" height="3.33336" fill="white"/>
<rect x="99.999" y="80.0029" width="3.33336" height="3.33336" fill="white"/>
<rect x="110.004" y="80.0029" width="3.33336" height="3.33336" fill="white"/>
<rect x="106.664" y="80.0029" width="3.33336" height="3.33336" fill="white"/>
<rect x="70.0059" y="83.3359" width="3.33336" height="3.33336" fill="white"/>
<rect x="66.666" y="83.3359" width="3.33336" height="3.33336" fill="white"/>
<rect x="76.6709" y="83.3359" width="3.33336" height="3.33336" fill="white"/>
<rect x="73.3311" y="83.3359" width="3.33336" height="3.33336" fill="white"/>
<rect x="83.3359" y="83.3359" width="3.33336" height="3.33336" fill="white"/>
<rect x="79.9961" y="83.3359" width="3.33336" height="3.33336" fill="white"/>
<rect x="90.001" y="83.3359" width="3.33336" height="3.33336" fill="white"/>
<rect x="86.668" y="83.3359" width="3.33336" height="3.33336" fill="white"/>
<rect x="96.666" y="83.3359" width="3.33336" height="3.33336" fill="white"/>
<rect x="93.333" y="83.3359" width="3.33336" height="3.33336" fill="white"/>
<rect x="103.331" y="83.3359" width="3.33336" height="3.33336" fill="white"/>
<rect x="99.999" y="83.3359" width="3.33336" height="3.33336" fill="white"/>
<rect x="70.0059" y="86.668" width="3.33336" height="3.33336" fill="white"/>
<rect x="76.6709" y="86.668" width="3.33336" height="3.33336" fill="white"/>
<rect x="73.3311" y="86.668" width="3.33336" height="3.33336" fill="white"/>
<rect x="83.3359" y="86.668" width="3.33336" height="3.33336" fill="white"/>
<rect x="79.9961" y="86.668" width="3.33336" height="3.33336" fill="white"/>
<rect x="90.001" y="86.668" width="3.33336" height="3.33336" fill="white"/>
<rect x="86.668" y="86.668" width="3.33336" height="3.33336" fill="white"/>
<rect x="96.666" y="86.668" width="3.33336" height="3.33336" fill="white"/>
<rect x="93.333" y="86.668" width="3.33336" height="3.33336" fill="white"/>
<rect x="103.331" y="86.668" width="3.33336" height="3.33336" fill="white"/>
<rect x="99.999" y="86.668" width="3.33336" height="3.33336" fill="white"/>
<rect x="76.6709" y="90.001" width="3.33336" height="3.33336" fill="white"/>
<rect x="73.3311" y="90.001" width="3.33336" height="3.33336" fill="white"/>
<rect x="83.3359" y="90.001" width="3.33336" height="3.33336" fill="white"/>
<rect x="79.9961" y="90.001" width="3.33336" height="3.33336" fill="white"/>
<rect x="90.001" y="90.001" width="3.33336" height="3.33336" fill="white"/>
<rect x="86.668" y="90.001" width="3.33336" height="3.33336" fill="white"/>
<rect x="96.666" y="90.001" width="3.33336" height="3.33336" fill="white"/>
<rect x="93.333" y="90.001" width="3.33336" height="3.33336" fill="white"/>
<rect x="76.6709" y="93.333" width="3.33336" height="3.33336" fill="white"/>
<rect x="83.3359" y="93.333" width="3.33336" height="3.33336" fill="white"/>
<rect x="79.9961" y="93.333" width="3.33336" height="3.33336" fill="white"/>
<rect x="90.001" y="93.333" width="3.33336" height="3.33336" fill="white"/>
<rect x="86.668" y="93.333" width="3.33336" height="3.33336" fill="white"/>
<rect x="96.666" y="93.333" width="3.33336" height="3.33336" fill="white"/>
<rect x="93.333" y="93.333" width="3.33336" height="3.33336" fill="white"/>
<rect x="83.3359" y="96.666" width="3.33336" height="3.33336" fill="white"/>
<rect x="79.9961" y="96.666" width="3.33336" height="3.33336" fill="white"/>
<rect x="90.001" y="96.666" width="3.33336" height="3.33336" fill="white"/>
<rect x="86.668" y="96.666" width="3.33336" height="3.33336" fill="white"/>
<rect x="83.3359" y="99.999" width="3.33336" height="3.33336" fill="white"/>
<rect x="90.001" y="99.999" width="3.33336" height="3.33336" fill="white"/>
<rect x="86.668" y="99.999" width="3.33336" height="3.33336" fill="white"/>
<rect x="93.333" y="96.666" width="3.33336" height="3.33336" fill="white"/>
<rect x="99.999" y="90.001" width="3.33336" height="3.33336" fill="white"/>
<rect x="106.664" y="83.3359" width="3.33336" height="3.33336" fill="white"/>
<rect x="116.669" y="76.6709" width="3.33336" height="3.33336" fill="white"/>
<rect x="113.336" y="76.6709" width="3.33336" height="3.33336" fill="white"/>
<rect x="50.0029" y="70.0059" width="3.33336" height="3.33336" fill="white"/>
<rect x="46.6631" y="66.666" width="3.33336" height="3.33336" fill="white"/>
<rect x="43.3379" y="63.333" width="3.33336" height="3.33336" fill="white"/>
<rect x="39.998" y="60.001" width="3.33336" height="3.33336" fill="white"/>
<rect x="83.3359" y="103.331" width="3.33336" height="3.33336" fill="white"/>
<rect x="86.668" y="106.671" width="3.33336" height="3.33336" fill="white"/>
<rect x="86.668" y="103.331" width="3.33336" height="3.33336" fill="white"/>
<rect x="79.9961" y="99.999" width="3.33336" height="3.33336" fill="white"/>
<rect x="76.6709" y="96.666" width="3.33336" height="3.33336" fill="white"/>
<rect x="73.3311" y="93.333" width="3.33336" height="3.33336" fill="white"/>
<rect x="70.0059" y="90.001" width="3.33336" height="3.33336" fill="white"/>
<rect x="66.666" y="86.668" width="3.33336" height="3.33336" fill="white"/>
<rect x="63.333" y="83.3359" width="3.33336" height="3.33336" fill="white"/>
<rect x="6.66504" y="36.665" width="3.33336" height="3.33336" fill="white"/>
<rect x="56.668" y="86.668" width="3.33336" height="3.33336" fill="white"/>
<rect x="73.3311" y="133.331" width="3.33336" height="3.33336" fill="white"/>
<rect x="73.3311" y="126.666" width="3.33336" height="3.33336" fill="white"/>
<rect x="73.3311" y="129.999" width="3.33336" height="3.33336" fill="white"/>
<rect x="73.3311" y="120.001" width="3.33336" height="3.33336" fill="white"/>
<rect x="73.3311" y="123.334" width="3.33336" height="3.33336" fill="white"/>
<rect x="76.6709" y="136.671" width="3.33336" height="3.33336" fill="white"/>
<rect x="76.6709" y="129.999" width="3.33336" height="3.33336" fill="white"/>
<rect x="76.6709" y="133.331" width="3.33336" height="3.33336" fill="white"/>
<rect x="76.6709" y="123.334" width="3.33336" height="3.33336" fill="white"/>
<rect x="76.6709" y="126.666" width="3.33336" height="3.33336" fill="white"/>
<rect x="79.9961" y="136.671" width="3.33336" height="3.33336" fill="white"/>
<rect x="79.9961" y="133.331" width="3.33336" height="3.33336" fill="white"/>
<rect x="83.3359" y="136.671" width="3.33336" height="3.33336" fill="white"/>
<rect x="83.3359" y="133.331" width="3.33336" height="3.33336" fill="white"/>
<rect x="86.668" y="129.999" width="3.33336" height="3.33336" fill="white"/>
<rect x="86.668" y="133.331" width="3.33336" height="3.33336" fill="white"/>
<rect x="90.001" y="126.666" width="3.33336" height="3.33336" fill="white"/>
<rect x="90.001" y="129.999" width="3.33336" height="3.33336" fill="white"/>
<rect x="93.333" y="123.334" width="3.33336" height="3.33336" fill="white"/>
<rect x="93.333" y="126.666" width="3.33336" height="3.33336" fill="white"/>
<rect x="96.666" y="120.001" width="3.33336" height="3.33336" fill="white"/>
<rect x="96.666" y="123.334" width="3.33336" height="3.33336" fill="white"/>
<rect x="99.999" y="116.669" width="3.33336" height="3.33336" fill="white"/>
<rect x="99.999" y="120.001" width="3.33336" height="3.33336" fill="white"/>
<rect x="106.664" y="110.004" width="3.33336" height="3.33336" fill="white"/>
<rect x="106.664" y="113.336" width="3.33336" height="3.33336" fill="white"/>
<rect x="103.331" y="113.336" width="3.33336" height="3.33336" fill="white"/>
<rect x="103.331" y="116.669" width="3.33336" height="3.33336" fill="white"/>
<rect x="110.004" y="106.671" width="3.33336" height="3.33336" fill="white"/>
<rect x="110.004" y="110.004" width="3.33336" height="3.33336" fill="white"/>
<rect x="116.669" y="99.999" width="3.33336" height="3.33336" fill="white"/>
<rect x="116.669" y="103.331" width="3.33336" height="3.33336" fill="white"/>
<rect x="113.336" y="103.331" width="3.33336" height="3.33336" fill="white"/>
<rect x="113.336" y="106.671" width="3.33336" height="3.33336" fill="white"/>
<rect x="120.001" y="96.666" width="3.33336" height="3.33336" fill="white"/>
<rect x="120.001" y="99.999" width="3.33336" height="3.33336" fill="white"/>
<rect x="129.999" y="90.001" width="3.33336" height="3.33336" fill="white"/>
<rect x="83.3359" y="123.334" width="3.33336" height="3.33336" fill="white"/>
<rect x="79.9961" y="120.001" width="3.33336" height="3.33336" fill="white"/>
<rect x="83.3359" y="120.001" width="3.33336" height="3.33336" fill="white"/>
<rect x="79.9961" y="116.669" width="3.33336" height="3.33336" fill="white"/>
<rect x="83.3359" y="116.669" width="3.33336" height="3.33336" fill="white"/>
<rect x="86.668" y="116.669" width="3.33336" height="3.33336" fill="white"/>
<rect x="83.3359" y="113.336" width="3.33336" height="3.33336" fill="white"/>
<rect x="86.668" y="113.336" width="3.33336" height="3.33336" fill="white"/>
<rect x="90.001" y="113.336" width="3.33336" height="3.33336" fill="white"/>
<rect x="93.333" y="113.336" width="3.33336" height="3.33336" fill="white"/>
<rect x="90.001" y="110.004" width="3.33336" height="3.33336" fill="white"/>
<rect x="93.333" y="110.004" width="3.33336" height="3.33336" fill="white"/>
<rect x="96.666" y="110.004" width="3.33336" height="3.33336" fill="white"/>
<rect x="93.333" y="106.671" width="3.33336" height="3.33336" fill="white"/>
<rect x="96.666" y="106.671" width="3.33336" height="3.33336" fill="white"/>
<rect x="96.666" y="103.331" width="3.33336" height="3.33336" fill="white"/>
<rect x="90.001" y="103.331" width="3.33336" height="3.33336" fill="white"/>
<rect x="93.333" y="99.999" width="3.33336" height="3.33336" fill="white"/>
<rect x="96.666" y="96.666" width="3.33336" height="3.33336" fill="white"/>
<rect x="99.999" y="93.333" width="3.33336" height="3.33336" fill="white"/>
<rect x="103.331" y="90.001" width="3.33336" height="3.33336" fill="white"/>
<rect x="106.664" y="86.668" width="3.33336" height="3.33336" fill="white"/>
<rect x="110.004" y="83.3359" width="3.33336" height="3.33336" fill="white"/>
<rect x="113.336" y="80.0029" width="3.33336" height="3.33336" fill="white"/>
<rect x="106.664" y="90.001" width="3.33336" height="3.33336" fill="white"/>
<rect x="110.004" y="86.668" width="3.33336" height="3.33336" fill="white"/>
<rect x="113.336" y="83.3359" width="3.33336" height="3.33336" fill="white"/>
<rect x="116.669" y="80.0029" width="3.33336" height="3.33336" fill="white"/>
<rect x="120.001" y="76.6709" width="3.33336" height="3.33336" fill="white"/>
<rect x="120.001" y="73.3232" width="3.33336" height="3.33336" fill="white"/>
<rect x="123.334" y="73.3232" width="3.33336" height="3.33336" fill="white"/>
<rect x="56.668" y="70.0059" width="3.33336" height="3.33336" fill="white"/>
<rect x="53.3359" y="70.0059" width="3.33336" height="3.33336" fill="white"/>
<rect x="63.333" y="70.0059" width="3.33336" height="3.33336" fill="white"/>
<rect x="60.001" y="70.0059" width="3.33336" height="3.33336" fill="white"/>
<rect x="70.0059" y="70.0059" width="3.33336" height="3.33336" fill="white"/>
<rect x="66.666" y="70.0059" width="3.33336" height="3.33336" fill="white"/>
<rect x="73.3311" y="70.0059" width="3.33336" height="3.33336" fill="white"/>
<rect x="90.001" y="70.0059" width="3.33336" height="3.33336" fill="white"/>
<rect x="86.668" y="70.0059" width="3.33336" height="3.33336" fill="white"/>
<rect x="96.666" y="70.0059" width="3.33336" height="3.33336" fill="white"/>
<rect x="93.333" y="70.0059" width="3.33336" height="3.33336" fill="white"/>
<rect x="103.331" y="70.0059" width="3.33336" height="3.33336" fill="white"/>
<rect x="99.999" y="70.0059" width="3.33336" height="3.33336" fill="white"/>
<rect x="110.004" y="70.0059" width="3.33336" height="3.33336" fill="white"/>
<rect x="106.664" y="70.0059" width="3.33336" height="3.33336" fill="white"/>
<rect x="116.669" y="70.0059" width="3.33336" height="3.33336" fill="white"/>
<rect x="113.336" y="70.0059" width="3.33336" height="3.33336" fill="white"/>
<rect x="120.001" y="70.0059" width="3.33336" height="3.33336" fill="white"/>
<rect x="123.334" y="70.0059" width="3.33336" height="3.33336" fill="white"/>
<rect x="126.666" y="70.0059" width="3.33336" height="3.33336" fill="white"/>
<rect x="50.0029" y="66.666" width="3.33336" height="3.33336" fill="white"/>
<rect x="56.668" y="66.666" width="3.33336" height="3.33336" fill="white"/>
<rect x="53.3359" y="66.666" width="3.33336" height="3.33336" fill="white"/>
<rect x="63.333" y="66.666" width="3.33336" height="3.33336" fill="white"/>
<rect x="60.001" y="66.666" width="3.33336" height="3.33336" fill="white"/>
<rect x="76.6709" y="66.666" width="3.33336" height="3.33336" fill="white"/>
<rect x="83.3359" y="66.666" width="3.33336" height="3.33336" fill="white"/>
<rect x="90.001" y="63.333" width="3.33336" height="3.33336" fill="white"/>
<rect x="96.666" y="66.666" width="3.33336" height="3.33336" fill="white"/>
<rect x="93.333" y="66.666" width="3.33336" height="3.33336" fill="white"/>
<rect x="103.331" y="66.666" width="3.33336" height="3.33336" fill="white"/>
<rect x="99.999" y="66.666" width="3.33336" height="3.33336" fill="white"/>
<rect x="110.004" y="66.666" width="3.33336" height="3.33336" fill="white"/>
<rect x="106.664" y="66.666" width="3.33336" height="3.33336" fill="white"/>
<rect x="116.669" y="66.666" width="3.33336" height="3.33336" fill="white"/>
<rect x="113.336" y="66.666" width="3.33336" height="3.33336" fill="white"/>
<rect x="120.001" y="66.666" width="3.33336" height="3.33336" fill="white"/>
<rect x="123.334" y="66.666" width="3.33336" height="3.33336" fill="white"/>
<rect x="126.666" y="66.666" width="3.33336" height="3.33336" fill="white"/>
<rect x="46.6631" y="63.333" width="3.33336" height="3.33336" fill="white"/>
<rect x="50.0029" y="63.333" width="3.33336" height="3.33336" fill="white"/>
<rect x="56.668" y="63.333" width="3.33336" height="3.33336" fill="white"/>
<rect x="53.3359" y="63.333" width="3.33336" height="3.33336" fill="white"/>
<rect x="60.001" y="63.333" width="3.33336" height="3.33336" fill="white"/>
<rect x="70.0059" y="63.333" width="3.33336" height="3.33336" fill="white"/>
<rect x="66.666" y="63.333" width="3.33336" height="3.33336" fill="white"/>
<rect x="73.3311" y="63.333" width="3.33336" height="3.33336" fill="white"/>
<rect x="83.3359" y="63.333" width="3.33336" height="3.33336" fill="white"/>
<rect x="86.668" y="63.333" width="3.33336" height="3.33336" fill="white"/>
<rect x="96.666" y="63.333" width="3.33336" height="3.33336" fill="white"/>
<rect x="103.331" y="63.333" width="3.33336" height="3.33336" fill="white"/>
<rect x="99.999" y="63.333" width="3.33336" height="3.33336" fill="white"/>
<rect x="110.004" y="63.333" width="3.33336" height="3.33336" fill="white"/>
<rect x="106.664" y="63.333" width="3.33336" height="3.33336" fill="white"/>
<rect x="116.669" y="63.333" width="3.33336" height="3.33336" fill="white"/>
<rect x="113.336" y="63.333" width="3.33336" height="3.33336" fill="white"/>
<rect x="120.001" y="63.333" width="3.33336" height="3.33336" fill="white"/>
<rect x="123.334" y="63.333" width="3.33336" height="3.33336" fill="white"/>
<rect x="43.3379" y="60.001" width="3.33336" height="3.33336" fill="white"/>
<rect x="46.6631" y="60.001" width="3.33336" height="3.33336" fill="white"/>
<rect x="50.0029" y="60.001" width="3.33336" height="3.33336" fill="white"/>
<rect x="56.668" y="60.001" width="3.33336" height="3.33336" fill="white"/>
<rect x="53.3359" y="60.001" width="3.33336" height="3.33336" fill="white"/>
<rect x="63.333" y="60.001" width="3.33336" height="3.33336" fill="white"/>
<rect x="70.0059" y="60.001" width="3.33336" height="3.33336" fill="white"/>
<rect x="66.666" y="60.001" width="3.33336" height="3.33336" fill="white"/>
<rect x="83.3359" y="60.001" width="3.33336" height="3.33336" fill="white"/>
<rect x="90.001" y="60.001" width="3.33336" height="3.33336" fill="white"/>
<rect x="86.668" y="60.001" width="3.33336" height="3.33336" fill="white"/>
<rect x="96.666" y="60.001" width="3.33336" height="3.33336" fill="white"/>
<rect x="103.331" y="60.001" width="3.33336" height="3.33336" fill="white"/>
<rect x="99.999" y="60.001" width="3.33336" height="3.33336" fill="white"/>
<rect x="110.004" y="60.001" width="3.33336" height="3.33336" fill="white"/>
<rect x="106.664" y="60.001" width="3.33336" height="3.33336" fill="white"/>
<rect x="116.669" y="60.001" width="3.33336" height="3.33336" fill="white"/>
<rect x="113.336" y="60.001" width="3.33336" height="3.33336" fill="white"/>
<rect x="120.001" y="60.001" width="3.33336" height="3.33336" fill="white"/>
<rect x="39.998" y="56.6758" width="3.33336" height="3.33336" fill="white"/>
<rect x="43.3379" y="56.6758" width="3.33336" height="3.33336" fill="white"/>
<rect x="46.6631" y="56.6758" width="3.33336" height="3.33336" fill="white"/>
<rect x="50.0029" y="56.6758" width="3.33336" height="3.33336" fill="white"/>
<rect x="53.3359" y="56.6758" width="3.33336" height="3.33336" fill="white"/>
<rect x="63.333" y="56.6758" width="3.33336" height="3.33336" fill="white"/>
<rect x="60.001" y="56.6758" width="3.33336" height="3.33336" fill="white"/>
<rect x="70.0059" y="56.6758" width="3.33336" height="3.33336" fill="white"/>
<rect x="66.666" y="56.6758" width="3.33336" height="3.33336" fill="white"/>
<rect x="76.6709" y="56.6758" width="3.33336" height="3.33336" fill="white"/>
<rect x="83.3359" y="56.6758" width="3.33336" height="3.33336" fill="white"/>
<rect x="90.001" y="56.6758" width="3.33336" height="3.33336" fill="white"/>
<rect x="86.668" y="56.6758" width="3.33336" height="3.33336" fill="white"/>
<rect x="96.666" y="56.6758" width="3.33336" height="3.33336" fill="white"/>
<rect x="103.331" y="56.6758" width="3.33336" height="3.33336" fill="white"/>
<rect x="99.999" y="56.6758" width="3.33336" height="3.33336" fill="white"/>
<rect x="110.004" y="56.6758" width="3.33336" height="3.33336" fill="white"/>
<rect x="106.664" y="56.6758" width="3.33336" height="3.33336" fill="white"/>
<rect x="116.669" y="56.6758" width="3.33336" height="3.33336" fill="white"/>
<rect x="113.336" y="56.6758" width="3.33336" height="3.33336" fill="white"/>
<rect x="36.665" y="53.3359" width="3.33336" height="3.33336" fill="white"/>
<rect x="39.998" y="53.3359" width="3.33336" height="3.33336" fill="white"/>
<rect x="43.3379" y="53.3359" width="3.33336" height="3.33336" fill="white"/>
<rect x="46.6631" y="53.3359" width="3.33336" height="3.33336" fill="white"/>
<rect x="50.0029" y="53.3359" width="3.33336" height="3.33336" fill="white"/>
<rect x="96.666" y="53.3359" width="3.33336" height="3.33336" fill="white"/>
<rect x="103.331" y="53.3359" width="3.33336" height="3.33336" fill="white"/>
<rect x="99.999" y="53.3359" width="3.33336" height="3.33336" fill="white"/>
<rect x="110.004" y="53.3359" width="3.33336" height="3.33336" fill="white"/>
<rect x="106.664" y="53.3359" width="3.33336" height="3.33336" fill="white"/>
<rect x="116.669" y="53.3359" width="3.33336" height="3.33336" fill="white"/>
<rect x="113.336" y="53.3359" width="3.33336" height="3.33336" fill="white"/>
<rect x="33.333" y="50.0029" width="3.33336" height="3.33336" fill="white"/>
<rect x="36.665" y="50.0029" width="3.33336" height="3.33336" fill="white"/>
<rect x="39.998" y="50.0029" width="3.33336" height="3.33336" fill="white"/>
<rect x="43.3379" y="50.0029" width="3.33336" height="3.33336" fill="white"/>
<rect x="46.6631" y="50.0029" width="3.33336" height="3.33336" fill="white"/>
<rect x="50.0029" y="50.0029" width="3.33336" height="3.33336" fill="white"/>
<rect x="56.668" y="50.0029" width="3.33336" height="3.33336" fill="white"/>
<rect x="63.333" y="50.0029" width="3.33336" height="3.33336" fill="white"/>
<rect x="70.0059" y="50.0029" width="3.33336" height="3.33336" fill="white"/>
<rect x="73.3311" y="50.0029" width="3.33336" height="3.33336" fill="white"/>
<rect x="79.9961" y="50.0029" width="3.33336" height="3.33336" fill="white"/>
<rect x="90.001" y="50.0029" width="3.33336" height="3.33336" fill="white"/>
<rect x="96.666" y="50.0029" width="3.33336" height="3.33336" fill="white"/>
<rect x="103.331" y="50.0029" width="3.33336" height="3.33336" fill="white"/>
<rect x="99.999" y="50.0029" width="3.33336" height="3.33336" fill="white"/>
<rect x="110.004" y="50.0029" width="3.33336" height="3.33336" fill="white"/>
<rect x="106.664" y="50.0029" width="3.33336" height="3.33336" fill="white"/>
<rect x="30" y="46.6699" width="3.33336" height="3.33336" fill="white"/>
<rect x="33.333" y="46.6699" width="3.33336" height="3.33336" fill="white"/>
<rect x="36.665" y="46.6699" width="3.33336" height="3.33336" fill="white"/>
<rect x="39.998" y="46.6699" width="3.33336" height="3.33336" fill="white"/>
<rect x="43.3379" y="46.6699" width="3.33336" height="3.33336" fill="white"/>
<rect x="46.6631" y="46.6699" width="3.33336" height="3.33336" fill="white"/>
<rect x="56.668" y="46.6699" width="3.33336" height="3.33336" fill="white"/>
<rect x="53.3359" y="46.6699" width="3.33336" height="3.33336" fill="white"/>
<rect x="60.001" y="46.6699" width="3.33336" height="3.33336" fill="white"/>
<rect x="70.0059" y="46.6699" width="3.33336" height="3.33336" fill="white"/>
<rect x="66.666" y="46.6699" width="3.33336" height="3.33336" fill="white"/>
<rect x="73.3311" y="46.6699" width="3.33336" height="3.33336" fill="white"/>
<rect x="83.3359" y="46.6699" width="3.33336" height="3.33336" fill="white"/>
<rect x="86.668" y="46.6699" width="3.33336" height="3.33336" fill="white"/>
<rect x="96.666" y="46.6699" width="3.33336" height="3.33336" fill="white"/>
<rect x="93.333" y="46.6699" width="3.33336" height="3.33336" fill="white"/>
<rect x="103.331" y="46.6699" width="3.33336" height="3.33336" fill="white"/>
<rect x="99.999" y="46.6699" width="3.33336" height="3.33336" fill="white"/>
<rect x="26.668" y="43.3301" width="3.33336" height="3.33336" fill="white"/>
<rect x="30" y="43.3301" width="3.33336" height="3.33336" fill="white"/>
<rect x="33.333" y="43.3301" width="3.33336" height="3.33336" fill="white"/>
<rect x="36.665" y="43.3301" width="3.33336" height="3.33336" fill="white"/>
<rect x="39.998" y="43.3301" width="3.33336" height="3.33336" fill="white"/>
<rect x="43.3379" y="43.3301" width="3.33336" height="3.33336" fill="white"/>
<rect x="46.6631" y="43.3301" width="3.33336" height="3.33336" fill="white"/>
<rect x="56.668" y="43.3301" width="3.33336" height="3.33336" fill="white"/>
<rect x="53.3359" y="43.3301" width="3.33336" height="3.33336" fill="white"/>
<rect x="60.001" y="43.3301" width="3.33336" height="3.33336" fill="white"/>
<rect x="63.333" y="39.998" width="3.33336" height="3.33336" fill="white"/>
<rect x="83.3359" y="43.3301" width="3.33336" height="3.33336" fill="white"/>
<rect x="79.9961" y="43.3301" width="3.33336" height="3.33336" fill="white"/>
<rect x="86.668" y="43.3301" width="3.33336" height="3.33336" fill="white"/>
<rect x="96.666" y="43.3301" width="3.33336" height="3.33336" fill="white"/>
<rect x="93.333" y="43.3301" width="3.33336" height="3.33336" fill="white"/>
<rect x="23.335" y="40.0049" width="3.33336" height="3.33336" fill="white"/>
<rect x="26.668" y="40.0049" width="3.33336" height="3.33336" fill="white"/>
<rect x="30" y="40.0049" width="3.33336" height="3.33336" fill="white"/>
<rect x="33.333" y="40.0049" width="3.33336" height="3.33336" fill="white"/>
<rect x="36.665" y="40.0049" width="3.33336" height="3.33336" fill="white"/>
<rect x="39.998" y="40.0049" width="3.33336" height="3.33336" fill="white"/>
<rect x="43.3379" y="40.0049" width="3.33336" height="3.33336" fill="white"/>
<rect x="46.6631" y="40.0049" width="3.33336" height="3.33336" fill="white"/>
<rect x="56.668" y="40.0049" width="3.33336" height="3.33336" fill="white"/>
<rect x="53.3359" y="40.0049" width="3.33336" height="3.33336" fill="white"/>
<rect x="70.0059" y="40.0049" width="3.33336" height="3.33336" fill="white"/>
<rect x="83.3359" y="40.0049" width="3.33336" height="3.33336" fill="white"/>
<rect x="79.9961" y="40.0049" width="3.33336" height="3.33336" fill="white"/>
<rect x="90.001" y="40.0049" width="3.33336" height="3.33336" fill="white"/>
<rect x="96.666" y="40.0049" width="3.33336" height="3.33336" fill="white"/>
<rect x="93.333" y="40.0049" width="3.33336" height="3.33336" fill="white"/>
<rect x="19.9951" y="36.665" width="3.33336" height="3.33336" fill="white"/>
<rect x="23.335" y="36.665" width="3.33336" height="3.33336" fill="white"/>
<rect x="26.668" y="36.665" width="3.33336" height="3.33336" fill="white"/>
<rect x="30" y="36.665" width="3.33336" height="3.33336" fill="white"/>
<rect x="33.333" y="36.665" width="3.33336" height="3.33336" fill="white"/>
<rect x="36.665" y="36.665" width="3.33336" height="3.33336" fill="white"/>
<rect x="39.998" y="36.665" width="3.33336" height="3.33336" fill="white"/>
<rect x="43.3379" y="36.665" width="3.33336" height="3.33336" fill="white"/>
<rect x="46.6631" y="36.665" width="3.33336" height="3.33336" fill="white"/>
<rect x="50.0029" y="36.665" width="3.33336" height="3.33336" fill="white"/>
<rect x="63.333" y="36.665" width="3.33336" height="3.33336" fill="white"/>
<rect x="70.0059" y="36.665" width="3.33336" height="3.33336" fill="white"/>
<rect x="66.666" y="36.665" width="3.33336" height="3.33336" fill="white"/>
<rect x="73.3311" y="36.665" width="3.33336" height="3.33336" fill="white"/>
<rect x="90.001" y="36.665" width="3.33336" height="3.33336" fill="white"/>
<rect x="86.668" y="36.665" width="3.33336" height="3.33336" fill="white"/>
<rect x="96.666" y="36.665" width="3.33336" height="3.33336" fill="white"/>
<rect x="93.333" y="36.665" width="3.33336" height="3.33336" fill="white"/>
<rect x="23.335" y="33.333" width="3.33336" height="3.33336" fill="white"/>
<rect x="26.668" y="33.333" width="3.33336" height="3.33336" fill="white"/>
<rect x="30" y="33.333" width="3.33336" height="3.33336" fill="white"/>
<rect x="33.333" y="33.333" width="3.33336" height="3.33336" fill="white"/>
<rect x="36.665" y="33.333" width="3.33336" height="3.33336" fill="white"/>
<rect x="39.998" y="33.333" width="3.33336" height="3.33336" fill="white"/>
<rect x="43.3379" y="33.333" width="3.33336" height="3.33336" fill="white"/>
<rect x="46.6631" y="33.333" width="3.33336" height="3.33336" fill="white"/>
<rect x="50.0029" y="33.333" width="3.33336" height="3.33336" fill="white"/>
<rect x="63.333" y="33.333" width="3.33336" height="3.33336" fill="white"/>
<rect x="60.001" y="33.333" width="3.33336" height="3.33336" fill="white"/>
<rect x="66.666" y="33.333" width="3.33336" height="3.33336" fill="white"/>
<rect x="83.3359" y="33.333" width="3.33336" height="3.33336" fill="white"/>
<rect x="79.9961" y="33.333" width="3.33336" height="3.33336" fill="white"/>
<rect x="26.668" y="30" width="3.33336" height="3.33336" fill="white"/>
<rect x="30" y="30" width="3.33336" height="3.33336" fill="white"/>
<rect x="33.333" y="30" width="3.33336" height="3.33336" fill="white"/>
<rect x="36.665" y="30" width="3.33336" height="3.33336" fill="white"/>
<rect x="39.998" y="30" width="3.33336" height="3.33336" fill="white"/>
<rect x="43.3379" y="30" width="3.33336" height="3.33336" fill="white"/>
<rect x="46.6631" y="30" width="3.33336" height="3.33336" fill="white"/>
<rect x="50.0029" y="30" width="3.33336" height="3.33336" fill="white"/>
<rect x="56.668" y="30" width="3.33336" height="3.33336" fill="white"/>
<rect x="53.3359" y="30" width="3.33336" height="3.33336" fill="white"/>
<rect x="70.0059" y="30" width="3.33336" height="3.33336" fill="white"/>
<rect x="76.6709" y="30" width="3.33336" height="3.33336" fill="white"/>
<rect x="73.3311" y="30" width="3.33336" height="3.33336" fill="white"/>
<rect x="83.3359" y="30" width="3.33336" height="3.33336" fill="white"/>
<rect x="79.9961" y="30" width="3.33336" height="3.33336" fill="white"/>
<rect x="33.333" y="26.6748" width="3.33336" height="3.33336" fill="white"/>
<rect x="36.665" y="26.6748" width="3.33336" height="3.33336" fill="white"/>
<rect x="39.998" y="26.6748" width="3.33336" height="3.33336" fill="white"/>
<rect x="43.3379" y="26.6748" width="3.33336" height="3.33336" fill="white"/>
<rect x="46.6631" y="26.6748" width="3.33336" height="3.33336" fill="white"/>
<rect x="50.0029" y="26.6748" width="3.33336" height="3.33336" fill="white"/>
<rect x="56.668" y="26.6748" width="3.33336" height="3.33336" fill="white"/>
<rect x="53.3359" y="26.6748" width="3.33336" height="3.33336" fill="white"/>
<rect x="63.333" y="26.6748" width="3.33336" height="3.33336" fill="white"/>
<rect x="60.001" y="26.6748" width="3.33336" height="3.33336" fill="white"/>
<rect x="70.0059" y="26.6748" width="3.33336" height="3.33336" fill="white"/>
<rect x="66.666" y="26.6748" width="3.33336" height="3.33336" fill="white"/>
<rect x="76.6709" y="26.6748" width="3.33336" height="3.33336" fill="white"/>
<rect x="73.3311" y="26.6748" width="3.33336" height="3.33336" fill="white"/>
<rect x="39.998" y="23.335" width="3.33336" height="3.33336" fill="white"/>
<rect x="43.3379" y="23.335" width="3.33336" height="3.33336" fill="white"/>
<rect x="46.6631" y="23.335" width="3.33336" height="3.33336" fill="white"/>
<rect x="50.0029" y="23.335" width="3.33336" height="3.33336" fill="white"/>
<rect x="56.668" y="23.335" width="3.33336" height="3.33336" fill="white"/>
<rect x="53.3359" y="23.335" width="3.33336" height="3.33336" fill="white"/>
<rect x="63.333" y="23.335" width="3.33336" height="3.33336" fill="white"/>
<rect x="60.001" y="23.335" width="3.33336" height="3.33336" fill="white"/>
<rect x="70.0059" y="23.335" width="3.33336" height="3.33336" fill="white"/>
<rect x="66.666" y="23.335" width="3.33336" height="3.33336" fill="white"/>
<rect x="76.6709" y="23.335" width="3.33336" height="3.33336" fill="white"/>
<rect x="73.3311" y="23.335" width="3.33336" height="3.33336" fill="white"/>
<rect x="46.6631" y="19.9951" width="3.33336" height="3.33336" fill="white"/>
<rect x="50.0029" y="19.9951" width="3.33336" height="3.33336" fill="white"/>
<rect x="56.668" y="19.9951" width="3.33336" height="3.33336" fill="white"/>
<rect x="53.3359" y="19.9951" width="3.33336" height="3.33336" fill="white"/>
<rect x="63.333" y="19.9951" width="3.33336" height="3.33336" fill="white"/>
<rect x="60.001" y="19.9951" width="3.33336" height="3.33336" fill="white"/>
<rect x="70.0059" y="19.9951" width="3.33336" height="3.33336" fill="white"/>
<rect x="66.666" y="19.9951" width="3.33336" height="3.33336" fill="white"/>
<rect x="56.668" y="16.6699" width="3.33336" height="3.33336" fill="white"/>
<rect x="53.3359" y="16.6699" width="3.33336" height="3.33336" fill="white"/>
<rect x="63.333" y="16.6699" width="3.33336" height="3.33336" fill="white"/>
<rect x="60.001" y="16.6699" width="3.33336" height="3.33336" fill="white"/>
<rect x="70.0059" y="16.6699" width="3.33336" height="3.33336" fill="white"/>
<rect x="66.666" y="16.6699" width="3.33336" height="3.33336" fill="white"/>
<rect x="50.0029" y="13.3301" width="3.33336" height="3.33336" fill="white"/>
<rect x="56.668" y="13.3301" width="3.33336" height="3.33336" fill="white"/>
<rect x="63.333" y="13.3301" width="3.33336" height="3.33336" fill="white"/>
<rect x="60.001" y="13.3301" width="3.33336" height="3.33336" fill="white"/>
<rect x="63.333" y="9.99805" width="3.33336" height="3.33336" fill="white"/>
<rect x="66.666" y="13.3301" width="3.33336" height="3.33336" fill="white"/>
<rect x="73.3311" y="19.9951" width="3.33336" height="3.33336" fill="white"/>
<rect x="79.9961" y="26.6748" width="3.33336" height="3.33336" fill="white"/>
<rect x="90.001" y="33.333" width="3.33336" height="3.33336" fill="white"/>
<rect x="86.668" y="33.333" width="3.33336" height="3.33336" fill="white"/>
<rect x="93.333" y="33.333" width="3.33336" height="3.33336" fill="white"/>
<rect x="103.331" y="43.3301" width="3.33336" height="3.33336" fill="white"/>
<rect x="99.999" y="43.3301" width="3.33336" height="3.33336" fill="white"/>
<rect x="106.664" y="46.6699" width="3.33336" height="3.33336" fill="white"/>
<rect x="113.336" y="50.0029" width="3.33336" height="3.33336" fill="white"/>
<rect x="120.001" y="56.6758" width="3.33336" height="3.33336" fill="white"/>
<rect x="123.334" y="60.001" width="3.33336" height="3.33336" fill="white"/>
<rect x="126.666" y="63.333" width="3.33336" height="3.33336" fill="white"/>
<rect x="129.999" y="66.666" width="3.33336" height="3.33336" fill="white"/>
<rect x="126.666" y="73.3232" width="3.33336" height="3.33336" fill="white"/>
<rect x="129.999" y="70.0059" width="3.33336" height="3.33336" fill="white"/>
<rect x="133.331" y="66.666" width="3.33336" height="3.33336" fill="white"/>
<rect x="136.664" y="66.666" width="3.33336" height="3.33336" fill="white"/>
<rect x="129.999" y="63.333" width="3.33336" height="3.33336" fill="white"/>
<rect x="129.999" y="60.001" width="3.33336" height="3.33336" fill="white"/>
<rect x="133.331" y="63.333" width="3.33336" height="3.33336" fill="white"/>
<rect x="136.664" y="63.333" width="3.33336" height="3.33336" fill="white"/>
<rect x="99.999" y="103.331" width="3.33336" height="3.33336" fill="white"/>
<rect x="99.999" y="106.671" width="3.33336" height="3.33336" fill="white"/>
<rect x="103.331" y="106.671" width="3.33336" height="3.33336" fill="white"/>
<rect x="106.664" y="103.331" width="3.33336" height="3.33336" fill="white"/>
<rect x="103.331" y="103.331" width="3.33336" height="3.33336" fill="white"/>
<rect x="103.331" y="99.999" width="3.33336" height="3.33336" fill="white"/>
<rect x="106.664" y="99.999" width="3.33336" height="3.33336" fill="white"/>
<rect x="106.664" y="96.666" width="3.33336" height="3.33336" fill="white"/>
<rect x="113.336" y="90.001" width="3.33336" height="3.33336" fill="white"/>
<rect x="110.004" y="93.333" width="3.33336" height="3.33336" fill="white"/>
<rect x="110.004" y="96.666" width="3.33336" height="3.33336" fill="white"/>
<rect x="110.004" y="99.999" width="3.33336" height="3.33336" fill="white"/>
<rect x="113.336" y="96.666" width="3.33336" height="3.33336" fill="white"/>
<rect x="116.669" y="93.333" width="3.33336" height="3.33336" fill="white"/>
<rect x="120.001" y="90.001" width="3.33336" height="3.33336" fill="white"/>
<rect x="123.334" y="86.668" width="3.33336" height="3.33336" fill="white"/>
<rect x="126.666" y="80.0029" width="3.33336" height="3.33336" fill="white"/>
<rect x="129.999" y="76.6709" width="3.33336" height="3.33336" fill="white"/>
<rect x="133.331" y="73.3232" width="3.33336" height="3.33336" fill="white"/>
<rect x="136.664" y="70.0059" width="3.33336" height="3.33336" fill="white"/>
<rect x="113.336" y="93.333" width="3.33336" height="3.33336" fill="white"/>
<rect x="116.669" y="90.001" width="3.33336" height="3.33336" fill="white"/>
<rect x="120.001" y="86.668" width="3.33336" height="3.33336" fill="white"/>
<rect x="123.334" y="83.3359" width="3.33336" height="3.33336" fill="white"/>
<rect x="126.666" y="83.3359" width="3.33336" height="3.33336" fill="white"/>
<rect x="126.666" y="90.001" width="3.33336" height="3.33336" fill="white"/>
<rect x="129.999" y="86.668" width="3.33336" height="3.33336" fill="white"/>
<rect x="129.999" y="80.0029" width="3.33336" height="3.33336" fill="white"/>
<rect x="133.331" y="76.6709" width="3.33336" height="3.33336" fill="white"/>
<rect x="136.664" y="73.3232" width="3.33336" height="3.33336" fill="white"/>
<rect x="136.664" y="76.6709" width="3.33336" height="3.33336" fill="white"/>
<rect x="139.996" y="70.0059" width="3.33336" height="3.33336" fill="white"/>
<rect x="139.996" y="66.666" width="3.33336" height="3.33336" fill="white"/>
<rect x="143.336" y="66.666" width="3.33336" height="3.33336" fill="white"/>
<rect x="146.669" y="63.333" width="3.33336" height="3.33336" fill="white"/>
<rect x="139.996" y="73.3232" width="3.33336" height="3.33336" fill="white"/>
<rect x="143.336" y="70.0059" width="3.33336" height="3.33336" fill="white"/>
<rect x="146.669" y="66.666" width="3.33336" height="3.33336" fill="white"/>
<rect x="139.996" y="63.333" width="3.33336" height="3.33336" fill="white"/>
<rect x="143.336" y="60.001" width="3.33336" height="3.33336" fill="white"/>
<rect x="143.336" y="63.333" width="3.33336" height="3.33336" fill="white"/>
<rect x="133.331" y="86.668" width="3.33336" height="3.33336" fill="white"/>
<rect x="133.331" y="83.3359" width="3.33336" height="3.33336" fill="white"/>
<rect x="136.664" y="83.3359" width="3.33336" height="3.33336" fill="white"/>
<rect x="136.664" y="80.0029" width="3.33336" height="3.33336" fill="white"/>
<rect x="126.666" y="93.333" width="3.33336" height="3.33336" fill="white"/>
<rect x="123.334" y="93.333" width="3.33336" height="3.33336" fill="white"/>
<rect x="123.334" y="96.666" width="3.33336" height="3.33336" fill="white"/>
<rect x="73.3311" y="116.669" width="3.33336" height="3.33336" fill="white"/>
<rect x="66.666" y="110.004" width="3.33336" height="3.33336" fill="white"/>
<rect x="63.333" y="106.671" width="3.33336" height="3.33336" fill="white"/>
<rect x="56.668" y="99.999" width="3.33336" height="3.33336" fill="white"/>
<rect x="53.3359" y="96.666" width="3.33336" height="3.33336" fill="white"/>
<rect x="50.0029" y="93.333" width="3.33336" height="3.33336" fill="white"/>
<rect x="46.6631" y="90.001" width="3.33336" height="3.33336" fill="white"/>
<rect x="43.3379" y="86.668" width="3.33336" height="3.33336" fill="white"/>
<rect x="43.3379" y="83.3359" width="3.33336" height="3.33336" fill="white"/>
<rect x="39.998" y="80.0029" width="3.33336" height="3.33336" fill="white"/>
<rect x="36.665" y="76.6709" width="3.33336" height="3.33336" fill="white"/>
<rect x="33.333" y="73.3232" width="3.33336" height="3.33336" fill="white"/>
<rect x="30" y="70.0059" width="3.33336" height="3.33336" fill="white"/>
<rect x="26.668" y="66.666" width="3.33336" height="3.33336" fill="white"/>
<rect x="23.335" y="63.333" width="3.33336" height="3.33336" fill="white"/>
<rect x="19.9951" y="60.001" width="3.33336" height="3.33336" fill="white"/>
<rect x="16.6699" y="56.6758" width="3.33336" height="3.33336" fill="white"/>
<rect x="13.3301" y="53.3359" width="3.33336" height="3.33336" fill="white"/>
<rect x="10.0049" y="46.6699" width="3.33336" height="3.33336" fill="white"/>
<rect x="10.0049" y="50.0029" width="3.33336" height="3.33336" fill="white"/>
</svg>
