<svg width="141" height="151" viewBox="0 0 141 151" fill="none" xmlns="http://www.w3.org/2000/svg">
<rect x="9.57275" y="146.811" width="3.19149" height="3.19149" fill="white"/>
<rect x="9.57275" y="143.617" width="3.19149" height="3.19149" fill="white"/>
<rect x="12.7661" y="143.617" width="3.19149" height="3.19149" fill="white"/>
<rect x="3.18945" y="143.617" width="3.19149" height="3.19149" fill="white"/>
<rect x="6.38281" y="143.617" width="3.19149" height="3.19149" fill="white"/>
<rect x="9.57275" y="140.424" width="3.19149" height="3.19149" fill="white"/>
<rect x="12.7661" y="140.424" width="3.19149" height="3.19149" fill="white"/>
<rect x="3.18945" y="140.424" width="3.19149" height="3.19149" fill="white"/>
<rect x="6.38281" y="140.424" width="3.19149" height="3.19149" fill="white"/>
<rect y="140.424" width="3.19149" height="3.19149" fill="white"/>
<rect y="137.234" width="3.19149" height="3.19149" fill="white"/>
<rect x="3.18945" y="137.234" width="3.19149" height="3.19149" fill="white"/>
<rect x="12.7661" y="137.234" width="3.19149" height="3.19149" fill="white"/>
<rect x="15.9561" y="137.234" width="3.19149" height="3.19149" fill="white"/>
<rect x="6.38281" y="137.234" width="3.19149" height="3.19149" fill="white"/>
<rect x="9.57275" y="137.234" width="3.19149" height="3.19149" fill="white"/>
<rect y="134.044" width="3.19149" height="3.19149" fill="white"/>
<rect x="3.18945" y="134.044" width="3.19149" height="3.19149" fill="white"/>
<rect x="12.7661" y="134.044" width="3.19149" height="3.19149" fill="white"/>
<rect x="15.9561" y="134.044" width="3.19149" height="3.19149" fill="white"/>
<rect x="6.38281" y="134.044" width="3.19149" height="3.19149" fill="white"/>
<rect x="9.57275" y="134.044" width="3.19149" height="3.19149" fill="white"/>
<rect x="3.18945" y="130.851" width="3.19149" height="3.19149" fill="white"/>
<rect x="12.7661" y="130.851" width="3.19149" height="3.19149" fill="white"/>
<rect x="15.9561" y="130.851" width="3.19149" height="3.19149" fill="white"/>
<rect x="6.38281" y="130.851" width="3.19149" height="3.19149" fill="white"/>
<rect x="9.57275" y="130.851" width="3.19149" height="3.19149" fill="white"/>
<rect x="6.38281" y="127.661" width="3.19149" height="3.19149" fill="white"/>
<rect x="15.9561" y="127.661" width="3.19149" height="3.19149" fill="white"/>
<rect x="22.3389" y="127.661" width="3.19149" height="3.19149" fill="white"/>
<rect x="19.1494" y="124.468" width="3.19149" height="3.19149" fill="white"/>
<rect x="9.57275" y="127.661" width="3.19149" height="3.19149" fill="white"/>
<rect x="6.38281" y="124.468" width="3.19149" height="3.19149" fill="white"/>
<rect x="15.9561" y="124.468" width="3.19149" height="3.19149" fill="white"/>
<rect x="19.1494" y="118.085" width="3.19149" height="3.19149" fill="white"/>
<rect x="15.9561" y="118.085" width="3.19149" height="3.19149" fill="white"/>
<rect x="19.1494" y="121.278" width="3.19149" height="3.19149" fill="white"/>
<rect x="15.9561" y="121.278" width="3.19149" height="3.19149" fill="white"/>
<rect x="25.5322" y="124.468" width="3.19149" height="3.19149" fill="white"/>
<rect x="28.7217" y="121.278" width="3.19149" height="3.19149" fill="white"/>
<rect x="31.915" y="121.278" width="3.19149" height="3.19149" fill="white"/>
<rect x="25.5322" y="121.278" width="3.19149" height="3.19149" fill="white"/>
<rect x="28.7217" y="114.895" width="3.19149" height="3.19149" fill="white"/>
<rect x="25.5322" y="114.895" width="3.19149" height="3.19149" fill="white"/>
<rect x="28.7217" y="111.702" width="3.19149" height="3.19149" fill="white"/>
<rect x="25.5322" y="111.702" width="3.19149" height="3.19149" fill="white"/>
<rect x="25.5322" y="108.508" width="3.19149" height="3.19149" fill="white"/>
<rect x="22.3389" y="114.895" width="3.19149" height="3.19149" fill="white"/>
<rect x="22.3389" y="111.702" width="3.19149" height="3.19149" fill="white"/>
<rect x="28.7217" y="118.085" width="3.19149" height="3.19149" fill="white"/>
<rect x="25.5322" y="118.085" width="3.19149" height="3.19149" fill="white"/>
<rect x="54.2539" y="98.9395" width="3.19149" height="3.19149" fill="white"/>
<rect x="57.4473" y="95.7422" width="3.19149" height="3.19149" fill="white"/>
<rect x="60.6372" y="92.5527" width="3.19149" height="3.19149" fill="white"/>
<rect x="54.2539" y="95.7422" width="3.19149" height="3.19149" fill="white"/>
<rect x="57.4473" y="89.3628" width="3.19149" height="3.19149" fill="white"/>
<rect x="54.2539" y="89.3628" width="3.19149" height="3.19149" fill="white"/>
<rect x="63.8306" y="89.3628" width="3.19149" height="3.19149" fill="white"/>
<rect x="54.2539" y="86.1694" width="3.19149" height="3.19149" fill="white"/>
<rect x="54.2539" y="82.9795" width="3.19149" height="3.19149" fill="white"/>
<rect x="51.0645" y="89.3628" width="3.19149" height="3.19149" fill="white"/>
<rect x="51.0645" y="86.1694" width="3.19149" height="3.19149" fill="white"/>
<rect x="63.8306" y="82.9795" width="3.19149" height="3.19149" fill="white"/>
<rect x="63.8306" y="79.7861" width="3.19149" height="3.19149" fill="white"/>
<rect x="63.8306" y="76.5967" width="3.19149" height="3.19149" fill="white"/>
<rect x="60.6372" y="82.9795" width="3.19149" height="3.19149" fill="white"/>
<rect x="60.6372" y="79.7861" width="3.19149" height="3.19149" fill="white"/>
<rect x="67.0205" y="86.1694" width="3.19149" height="3.19149" fill="white"/>
<rect x="63.8306" y="86.1694" width="3.19149" height="3.19149" fill="white"/>
<rect x="70.2139" y="82.9795" width="3.19149" height="3.19149" fill="white"/>
<rect x="73.4033" y="76.5967" width="3.19149" height="3.19149" fill="white"/>
<rect x="73.4033" y="73.4033" width="3.19149" height="3.19149" fill="white"/>
<rect x="73.4033" y="70.2139" width="3.19149" height="3.19149" fill="white"/>
<rect x="70.2139" y="73.4033" width="3.19149" height="3.19149" fill="white"/>
<rect x="70.2139" y="70.2139" width="3.19149" height="3.19149" fill="white"/>
<rect x="70.2139" y="79.7861" width="3.19149" height="3.19149" fill="white"/>
<rect x="70.2139" y="76.5967" width="3.19149" height="3.19149" fill="white"/>
<rect x="79.7861" y="70.2139" width="3.19149" height="3.19149" fill="white"/>
<rect x="79.7861" y="67.0205" width="3.19149" height="3.19149" fill="white"/>
<rect x="79.7861" y="76.5967" width="3.19149" height="3.19149" fill="white"/>
<rect x="82.9795" y="73.4033" width="3.19149" height="3.19149" fill="white"/>
<rect x="79.7861" y="73.4033" width="3.19149" height="3.19149" fill="white"/>
<rect x="76.5967" y="79.7861" width="3.19149" height="3.19149" fill="white"/>
<rect x="73.4033" y="79.7861" width="3.19149" height="3.19149" fill="white"/>
<rect x="79.7861" y="63.8306" width="3.19149" height="3.19149" fill="white"/>
<rect x="86.1694" y="70.2139" width="3.19149" height="3.19149" fill="white"/>
<rect x="86.1694" y="67.0205" width="3.19149" height="3.19149" fill="white"/>
<rect x="86.1694" y="76.5967" width="3.19149" height="3.19149" fill="white"/>
<rect x="86.1694" y="73.4033" width="3.19149" height="3.19149" fill="white"/>
<rect x="86.1694" y="63.8306" width="3.19149" height="3.19149" fill="white"/>
<rect x="76.5967" y="63.8306" width="3.19149" height="3.19149" fill="white"/>
<rect x="86.1694" y="60.6372" width="3.19149" height="3.19149" fill="white"/>
<rect x="89.3628" y="70.2139" width="3.19149" height="3.19149" fill="white"/>
<rect x="89.3628" y="67.0205" width="3.19149" height="3.19149" fill="white"/>
<rect x="89.3628" y="76.5967" width="3.19149" height="3.19149" fill="white"/>
<rect x="89.3628" y="73.4033" width="3.19149" height="3.19149" fill="white"/>
<rect x="92.5527" y="70.2139" width="3.19149" height="3.19149" fill="white"/>
<rect x="92.5527" y="67.0205" width="3.19149" height="3.19149" fill="white"/>
<rect x="92.5527" y="76.5967" width="3.19149" height="3.19149" fill="white"/>
<rect x="92.5527" y="73.4033" width="3.19149" height="3.19149" fill="white"/>
<rect x="89.3628" y="82.9795" width="3.19149" height="3.19149" fill="white"/>
<rect x="89.3628" y="79.7861" width="3.19149" height="3.19149" fill="white"/>
<rect x="92.5527" y="82.9795" width="3.19149" height="3.19149" fill="white"/>
<rect x="95.7461" y="82.9795" width="3.19149" height="3.19149" fill="white"/>
<rect x="95.7461" y="86.1694" width="3.19149" height="3.19149" fill="white"/>
<rect x="98.9355" y="86.1694" width="3.19149" height="3.19149" fill="white"/>
<rect x="102.129" y="86.1694" width="3.19149" height="3.19149" fill="white"/>
<rect x="105.318" y="86.1694" width="3.19149" height="3.19149" fill="white"/>
<rect x="108.508" y="89.3628" width="3.19149" height="3.19149" fill="white"/>
<rect x="111.702" y="89.3628" width="3.19149" height="3.19149" fill="white"/>
<rect x="108.508" y="86.1694" width="3.19149" height="3.19149" fill="white"/>
<rect x="111.702" y="86.1694" width="3.19149" height="3.19149" fill="white"/>
<rect x="114.892" y="89.3628" width="3.19149" height="3.19149" fill="white"/>
<rect x="118.085" y="89.3628" width="3.19149" height="3.19149" fill="white"/>
<rect x="121.278" y="86.1694" width="3.19149" height="3.19149" fill="white"/>
<rect x="124.468" y="82.9795" width="3.19149" height="3.19149" fill="white"/>
<rect x="127.661" y="79.7861" width="3.19149" height="3.19149" fill="white"/>
<rect x="130.851" y="76.5967" width="3.19149" height="3.19149" fill="white"/>
<rect x="134.044" y="73.4033" width="3.19149" height="3.19149" fill="white"/>
<rect x="114.892" y="86.1694" width="3.19149" height="3.19149" fill="white"/>
<rect x="98.9355" y="82.9795" width="3.19149" height="3.19149" fill="white"/>
<rect x="102.129" y="82.9795" width="3.19149" height="3.19149" fill="white"/>
<rect x="105.318" y="82.9795" width="3.19149" height="3.19149" fill="white"/>
<rect x="108.508" y="82.9795" width="3.19149" height="3.19149" fill="white"/>
<rect x="111.702" y="82.9795" width="3.19149" height="3.19149" fill="white"/>
<rect x="114.892" y="82.9795" width="3.19149" height="3.19149" fill="white"/>
<rect x="118.085" y="82.9795" width="3.19149" height="3.19149" fill="white"/>
<rect x="102.129" y="79.7861" width="3.19149" height="3.19149" fill="white"/>
<rect x="105.318" y="79.7861" width="3.19149" height="3.19149" fill="white"/>
<rect x="108.508" y="79.7861" width="3.19149" height="3.19149" fill="white"/>
<rect x="111.702" y="79.7861" width="3.19149" height="3.19149" fill="white"/>
<rect x="114.892" y="79.7861" width="3.19149" height="3.19149" fill="white"/>
<rect x="118.085" y="79.7861" width="3.19149" height="3.19149" fill="white"/>
<rect x="121.278" y="79.7861" width="3.19149" height="3.19149" fill="white"/>
<rect x="105.318" y="73.4033" width="3.19149" height="3.19149" fill="white"/>
<rect x="108.508" y="73.4033" width="3.19149" height="3.19149" fill="white"/>
<rect x="111.702" y="73.4033" width="3.19149" height="3.19149" fill="white"/>
<rect x="114.892" y="73.4033" width="3.19149" height="3.19149" fill="white"/>
<rect x="118.085" y="73.4033" width="3.19149" height="3.19149" fill="white"/>
<rect x="121.278" y="73.4033" width="3.19149" height="3.19149" fill="white"/>
<rect x="105.318" y="76.5967" width="3.19149" height="3.19149" fill="white"/>
<rect x="108.508" y="76.5967" width="3.19149" height="3.19149" fill="white"/>
<rect x="111.702" y="76.5967" width="3.19149" height="3.19149" fill="white"/>
<rect x="114.892" y="76.5967" width="3.19149" height="3.19149" fill="white"/>
<rect x="118.085" y="76.5967" width="3.19149" height="3.19149" fill="white"/>
<rect x="121.278" y="76.5967" width="3.19149" height="3.19149" fill="white"/>
<rect x="124.468" y="73.4033" width="3.19149" height="3.19149" fill="white"/>
<rect x="124.468" y="76.5967" width="3.19149" height="3.19149" fill="white"/>
<rect x="127.661" y="73.4033" width="3.19149" height="3.19149" fill="white"/>
<rect x="105.318" y="70.2139" width="3.19149" height="3.19149" fill="white"/>
<rect x="108.508" y="70.2139" width="3.19149" height="3.19149" fill="white"/>
<rect x="111.702" y="70.2139" width="3.19149" height="3.19149" fill="white"/>
<rect x="114.892" y="70.2139" width="3.19149" height="3.19149" fill="white"/>
<rect x="118.085" y="70.2139" width="3.19149" height="3.19149" fill="white"/>
<rect x="121.278" y="70.2139" width="3.19149" height="3.19149" fill="white"/>
<rect x="124.468" y="70.2139" width="3.19149" height="3.19149" fill="white"/>
<rect x="127.661" y="70.2139" width="3.19149" height="3.19149" fill="white"/>
<rect x="134.044" y="70.2139" width="3.19149" height="3.19149" fill="white"/>
<rect x="130.851" y="70.2139" width="3.19149" height="3.19149" fill="white"/>
<rect x="105.318" y="63.8306" width="3.19149" height="3.19149" fill="white"/>
<rect x="108.508" y="63.8306" width="3.19149" height="3.19149" fill="white"/>
<rect x="114.892" y="63.8306" width="3.19149" height="3.19149" fill="white"/>
<rect x="118.085" y="63.8306" width="3.19149" height="3.19149" fill="white"/>
<rect x="121.278" y="63.8306" width="3.19149" height="3.19149" fill="white"/>
<rect x="124.468" y="63.8306" width="3.19149" height="3.19149" fill="white"/>
<rect x="127.661" y="63.8306" width="3.19149" height="3.19149" fill="white"/>
<rect x="134.044" y="63.8306" width="3.19149" height="3.19149" fill="white"/>
<rect x="130.851" y="63.8306" width="3.19149" height="3.19149" fill="white"/>
<rect x="105.318" y="67.0205" width="3.19149" height="3.19149" fill="white"/>
<rect x="108.508" y="67.0205" width="3.19149" height="3.19149" fill="white"/>
<rect x="111.702" y="67.0205" width="3.19149" height="3.19149" fill="white"/>
<rect x="114.892" y="67.0205" width="3.19149" height="3.19149" fill="white"/>
<rect x="118.085" y="67.0205" width="3.19149" height="3.19149" fill="white"/>
<rect x="121.278" y="67.0205" width="3.19149" height="3.19149" fill="white"/>
<rect x="124.468" y="67.0205" width="3.19149" height="3.19149" fill="white"/>
<rect x="127.661" y="67.0205" width="3.19149" height="3.19149" fill="white"/>
<rect x="134.044" y="67.0205" width="3.19149" height="3.19149" fill="white"/>
<rect x="130.851" y="67.0205" width="3.19149" height="3.19149" fill="white"/>
<rect x="137.234" y="67.0205" width="3.19149" height="3.19149" fill="white"/>
<rect x="137.234" y="63.8306" width="3.19149" height="3.19149" fill="white"/>
<rect x="105.318" y="60.6372" width="3.19149" height="3.19149" fill="white"/>
<rect x="108.508" y="60.6372" width="3.19149" height="3.19149" fill="white"/>
<rect x="114.892" y="60.6372" width="3.19149" height="3.19149" fill="white"/>
<rect x="118.085" y="60.6372" width="3.19149" height="3.19149" fill="white"/>
<rect x="121.278" y="60.6372" width="3.19149" height="3.19149" fill="white"/>
<rect x="124.468" y="60.6372" width="3.19149" height="3.19149" fill="white"/>
<rect x="127.661" y="60.6372" width="3.19149" height="3.19149" fill="white"/>
<rect x="134.044" y="60.6372" width="3.19149" height="3.19149" fill="white"/>
<rect x="130.851" y="60.6372" width="3.19149" height="3.19149" fill="white"/>
<rect x="137.234" y="60.6372" width="3.19149" height="3.19149" fill="white"/>
<rect x="105.318" y="57.4473" width="3.19149" height="3.19149" fill="white"/>
<rect x="108.508" y="57.4473" width="3.19149" height="3.19149" fill="white"/>
<rect x="114.892" y="57.4473" width="3.19149" height="3.19149" fill="white"/>
<rect x="118.085" y="57.4473" width="3.19149" height="3.19149" fill="white"/>
<rect x="121.278" y="57.4473" width="3.19149" height="3.19149" fill="white"/>
<rect x="124.468" y="57.4473" width="3.19149" height="3.19149" fill="white"/>
<rect x="127.661" y="57.4473" width="3.19149" height="3.19149" fill="white"/>
<rect x="134.044" y="57.4473" width="3.19149" height="3.19149" fill="white"/>
<rect x="130.851" y="57.4473" width="3.19149" height="3.19149" fill="white"/>
<rect x="137.234" y="57.4473" width="3.19149" height="3.19149" fill="white"/>
<rect x="95.7461" y="79.7861" width="3.19149" height="3.19149" fill="white"/>
<rect x="98.9355" y="79.7861" width="3.19149" height="3.19149" fill="white"/>
<rect x="92.5527" y="79.7861" width="3.19149" height="3.19149" fill="white"/>
<rect x="98.9355" y="76.5967" width="3.19149" height="3.19149" fill="white"/>
<rect x="102.129" y="76.5967" width="3.19149" height="3.19149" fill="white"/>
<rect x="95.7461" y="76.5967" width="3.19149" height="3.19149" fill="white"/>
<rect x="98.9355" y="73.4033" width="3.19149" height="3.19149" fill="white"/>
<rect x="102.129" y="73.4033" width="3.19149" height="3.19149" fill="white"/>
<rect x="95.7461" y="73.4033" width="3.19149" height="3.19149" fill="white"/>
<rect x="98.9355" y="70.2139" width="3.19149" height="3.19149" fill="white"/>
<rect x="102.129" y="70.2139" width="3.19149" height="3.19149" fill="white"/>
<rect x="95.7461" y="70.2139" width="3.19149" height="3.19149" fill="white"/>
<rect x="98.9355" y="67.0205" width="3.19149" height="3.19149" fill="white"/>
<rect x="102.129" y="67.0205" width="3.19149" height="3.19149" fill="white"/>
<rect x="98.9355" y="63.8306" width="3.19149" height="3.19149" fill="white"/>
<rect x="98.9355" y="60.6372" width="3.19149" height="3.19149" fill="white"/>
<rect x="102.129" y="60.6372" width="3.19149" height="3.19149" fill="white"/>
<rect x="98.9355" y="57.4473" width="3.19149" height="3.19149" fill="white"/>
<rect x="102.129" y="54.2578" width="3.19149" height="3.19149" fill="white"/>
<rect x="102.129" y="51.0605" width="3.19149" height="3.19149" fill="white"/>
<rect x="111.702" y="57.4473" width="3.19149" height="3.19149" fill="white"/>
<rect x="105.318" y="54.2578" width="3.19149" height="3.19149" fill="white"/>
<rect x="108.508" y="54.2578" width="3.19149" height="3.19149" fill="white"/>
<rect x="114.892" y="54.2578" width="3.19149" height="3.19149" fill="white"/>
<rect x="118.085" y="54.2578" width="3.19149" height="3.19149" fill="white"/>
<rect x="121.278" y="54.2578" width="3.19149" height="3.19149" fill="white"/>
<rect x="124.468" y="54.2578" width="3.19149" height="3.19149" fill="white"/>
<rect x="127.661" y="54.2578" width="3.19149" height="3.19149" fill="white"/>
<rect x="134.044" y="54.2578" width="3.19149" height="3.19149" fill="white"/>
<rect x="130.851" y="54.2578" width="3.19149" height="3.19149" fill="white"/>
<rect x="105.318" y="51.0605" width="3.19149" height="3.19149" fill="white"/>
<rect x="102.129" y="47.8711" width="3.19149" height="3.19149" fill="white"/>
<rect x="105.318" y="47.8711" width="3.19149" height="3.19149" fill="white"/>
<rect x="111.702" y="54.2578" width="3.19149" height="3.19149" fill="white"/>
<rect x="114.892" y="51.0605" width="3.19149" height="3.19149" fill="white"/>
<rect x="118.085" y="51.0605" width="3.19149" height="3.19149" fill="white"/>
<rect x="121.278" y="51.0605" width="3.19149" height="3.19149" fill="white"/>
<rect x="124.468" y="51.0605" width="3.19149" height="3.19149" fill="white"/>
<rect x="127.661" y="51.0605" width="3.19149" height="3.19149" fill="white"/>
<rect x="134.044" y="51.0605" width="3.19149" height="3.19149" fill="white"/>
<rect x="130.851" y="51.0605" width="3.19149" height="3.19149" fill="white"/>
<rect x="111.702" y="51.0605" width="3.19149" height="3.19149" fill="white"/>
<rect x="114.892" y="47.8711" width="3.19149" height="3.19149" fill="white"/>
<rect x="118.085" y="47.8711" width="3.19149" height="3.19149" fill="white"/>
<rect x="121.278" y="47.8711" width="3.19149" height="3.19149" fill="white"/>
<rect x="124.468" y="47.8711" width="3.19149" height="3.19149" fill="white"/>
<rect x="127.661" y="47.8711" width="3.19149" height="3.19149" fill="white"/>
<rect x="134.044" y="47.8711" width="3.19149" height="3.19149" fill="white"/>
<rect x="130.851" y="47.8711" width="3.19149" height="3.19149" fill="white"/>
<rect x="111.702" y="47.8711" width="3.19149" height="3.19149" fill="white"/>
<rect x="108.508" y="47.8711" width="3.19149" height="3.19149" fill="white"/>
<rect x="102.129" y="44.6816" width="3.19149" height="3.19149" fill="white"/>
<rect x="105.318" y="44.6816" width="3.19149" height="3.19149" fill="white"/>
<rect x="95.7461" y="44.6816" width="3.19149" height="3.19149" fill="white"/>
<rect x="98.9355" y="44.6816" width="3.19149" height="3.19149" fill="white"/>
<rect x="114.892" y="44.6816" width="3.19149" height="3.19149" fill="white"/>
<rect x="118.085" y="44.6816" width="3.19149" height="3.19149" fill="white"/>
<rect x="121.278" y="44.6816" width="3.19149" height="3.19149" fill="white"/>
<rect x="124.468" y="44.6816" width="3.19149" height="3.19149" fill="white"/>
<rect x="127.661" y="44.6816" width="3.19149" height="3.19149" fill="white"/>
<rect x="134.044" y="44.6816" width="3.19149" height="3.19149" fill="white"/>
<rect x="130.851" y="44.6816" width="3.19149" height="3.19149" fill="white"/>
<rect x="111.702" y="44.6816" width="3.19149" height="3.19149" fill="white"/>
<rect x="108.508" y="44.6816" width="3.19149" height="3.19149" fill="white"/>
<rect x="102.129" y="41.4917" width="3.19149" height="3.19149" fill="white"/>
<rect x="105.318" y="41.4917" width="3.19149" height="3.19149" fill="white"/>
<rect x="95.7461" y="41.4917" width="3.19149" height="3.19149" fill="white"/>
<rect x="98.9355" y="41.4917" width="3.19149" height="3.19149" fill="white"/>
<rect x="114.892" y="41.4917" width="3.19149" height="3.19149" fill="white"/>
<rect x="118.085" y="41.4917" width="3.19149" height="3.19149" fill="white"/>
<rect x="121.278" y="41.4917" width="3.19149" height="3.19149" fill="white"/>
<rect x="124.468" y="41.4917" width="3.19149" height="3.19149" fill="white"/>
<rect x="127.661" y="41.4917" width="3.19149" height="3.19149" fill="white"/>
<rect x="130.851" y="41.4917" width="3.19149" height="3.19149" fill="white"/>
<rect x="111.702" y="41.4917" width="3.19149" height="3.19149" fill="white"/>
<rect x="108.508" y="41.4917" width="3.19149" height="3.19149" fill="white"/>
<rect x="102.129" y="38.2983" width="3.19149" height="3.19149" fill="white"/>
<rect x="105.318" y="38.2983" width="3.19149" height="3.19149" fill="white"/>
<rect x="95.7461" y="38.2983" width="3.19149" height="3.19149" fill="white"/>
<rect x="98.9355" y="38.2983" width="3.19149" height="3.19149" fill="white"/>
<rect x="114.892" y="38.2983" width="3.19149" height="3.19149" fill="white"/>
<rect x="118.085" y="38.2983" width="3.19149" height="3.19149" fill="white"/>
<rect x="121.278" y="38.2983" width="3.19149" height="3.19149" fill="white"/>
<rect x="124.468" y="38.2983" width="3.19149" height="3.19149" fill="white"/>
<rect x="127.661" y="38.2983" width="3.19149" height="3.19149" fill="white"/>
<rect x="130.851" y="38.2983" width="3.19149" height="3.19149" fill="white"/>
<rect x="111.702" y="38.2983" width="3.19149" height="3.19149" fill="white"/>
<rect x="108.508" y="38.2983" width="3.19149" height="3.19149" fill="white"/>
<rect x="102.129" y="35.105" width="3.19149" height="3.19149" fill="white"/>
<rect x="105.318" y="35.105" width="3.19149" height="3.19149" fill="white"/>
<rect x="95.7461" y="35.105" width="3.19149" height="3.19149" fill="white"/>
<rect x="92.5527" y="31.915" width="3.19149" height="3.19149" fill="white"/>
<rect x="76.5967" y="47.8711" width="3.19149" height="3.19149" fill="white"/>
<rect x="76.5967" y="44.6816" width="3.19149" height="3.19149" fill="white"/>
<rect x="76.5967" y="41.4917" width="3.19149" height="3.19149" fill="white"/>
<rect x="76.5967" y="38.2983" width="3.19149" height="3.19149" fill="white"/>
<rect x="79.7861" y="57.4473" width="3.19149" height="3.19149" fill="white"/>
<rect x="79.7861" y="54.2578" width="3.19149" height="3.19149" fill="white"/>
<rect x="82.9795" y="54.2578" width="3.19149" height="3.19149" fill="white"/>
<rect x="79.7861" y="51.0605" width="3.19149" height="3.19149" fill="white"/>
<rect x="79.7861" y="47.8711" width="3.19149" height="3.19149" fill="white"/>
<rect x="73.4033" y="35.105" width="3.19149" height="3.19149" fill="white"/>
<rect x="73.4033" y="31.915" width="3.19149" height="3.19149" fill="white"/>
<rect x="73.4033" y="28.7217" width="3.19149" height="3.19149" fill="white"/>
<rect x="73.4033" y="25.5322" width="3.19149" height="3.19149" fill="white"/>
<rect x="76.5967" y="35.105" width="3.19149" height="3.19149" fill="white"/>
<rect x="76.5967" y="31.915" width="3.19149" height="3.19149" fill="white"/>
<rect x="76.5967" y="28.7217" width="3.19149" height="3.19149" fill="white"/>
<rect x="76.5967" y="25.5322" width="3.19149" height="3.19149" fill="white"/>
<rect x="73.4033" y="22.3389" width="3.19149" height="3.19149" fill="white"/>
<rect x="73.4033" y="19.1494" width="3.19149" height="3.19149" fill="white"/>
<rect x="73.4033" y="15.9561" width="3.19149" height="3.19149" fill="white"/>
<rect x="76.5967" y="22.3389" width="3.19149" height="3.19149" fill="white"/>
<rect x="76.5967" y="19.1494" width="3.19149" height="3.19149" fill="white"/>
<rect x="76.5967" y="15.9561" width="3.19149" height="3.19149" fill="white"/>
<rect x="76.5967" y="12.7661" width="3.19149" height="3.19149" fill="white"/>
<rect x="95.7461" y="25.5322" width="3.19149" height="3.19149" fill="white"/>
<rect x="95.7461" y="22.3389" width="3.19149" height="3.19149" fill="white"/>
<rect x="95.7461" y="19.1494" width="3.19149" height="3.19149" fill="white"/>
<rect x="95.7461" y="15.9561" width="3.19149" height="3.19149" fill="white"/>
<rect x="95.7461" y="12.7661" width="3.19149" height="3.19149" fill="white"/>
<rect x="98.9355" y="9.57617" width="3.19149" height="3.19149" fill="white"/>
<rect x="102.129" y="6.38281" width="3.19149" height="3.19149" fill="white"/>
<rect x="82.9795" y="9.57617" width="3.19149" height="3.19149" fill="white"/>
<rect x="79.7861" y="9.57617" width="3.19149" height="3.19149" fill="white"/>
<rect x="86.1694" y="6.38281" width="3.19149" height="3.19149" fill="white"/>
<rect x="89.3628" y="3.18945" width="3.19149" height="3.19149" fill="white"/>
<rect x="92.5527" width="3.19149" height="3.19149" fill="white"/>
<rect x="121.278" y="6.38281" width="3.19149" height="3.19149" fill="white"/>
<rect x="114.892" y="6.38281" width="3.19149" height="3.19149" fill="white"/>
<rect x="98.9355" y="35.105" width="3.19149" height="3.19149" fill="white"/>
<rect x="114.892" y="35.105" width="3.19149" height="3.19149" fill="white"/>
<rect x="118.085" y="35.105" width="3.19149" height="3.19149" fill="white"/>
<rect x="121.278" y="35.105" width="3.19149" height="3.19149" fill="white"/>
<rect x="124.468" y="35.105" width="3.19149" height="3.19149" fill="white"/>
<rect x="127.661" y="35.105" width="3.19149" height="3.19149" fill="white"/>
<rect x="130.851" y="35.105" width="3.19149" height="3.19149" fill="white"/>
<rect x="111.702" y="35.105" width="3.19149" height="3.19149" fill="white"/>
<rect x="108.508" y="35.105" width="3.19149" height="3.19149" fill="white"/>
<rect x="86.1694" y="25.5322" width="3.19149" height="3.19149" fill="white"/>
<rect x="89.3628" y="25.5322" width="3.19149" height="3.19149" fill="white"/>
<rect x="79.7861" y="25.5322" width="3.19149" height="3.19149" fill="white"/>
<rect x="82.9795" y="25.5322" width="3.19149" height="3.19149" fill="white"/>
<rect x="86.1694" y="28.7217" width="3.19149" height="3.19149" fill="white"/>
<rect x="89.3628" y="28.7217" width="3.19149" height="3.19149" fill="white"/>
<rect x="79.7861" y="28.7217" width="3.19149" height="3.19149" fill="white"/>
<rect x="82.9795" y="28.7217" width="3.19149" height="3.19149" fill="white"/>
<rect x="86.1694" y="31.915" width="3.19149" height="3.19149" fill="white"/>
<rect x="89.3628" y="31.915" width="3.19149" height="3.19149" fill="white"/>
<rect x="79.7861" y="31.915" width="3.19149" height="3.19149" fill="white"/>
<rect x="82.9795" y="31.915" width="3.19149" height="3.19149" fill="white"/>
<rect x="92.5527" y="25.5322" width="3.19149" height="3.19149" fill="white"/>
<rect x="86.1694" y="22.3389" width="3.19149" height="3.19149" fill="white"/>
<rect x="89.3628" y="22.3389" width="3.19149" height="3.19149" fill="white"/>
<rect x="79.7861" y="22.3389" width="3.19149" height="3.19149" fill="white"/>
<rect x="82.9795" y="22.3389" width="3.19149" height="3.19149" fill="white"/>
<rect x="86.1694" y="38.2983" width="3.19149" height="3.19149" fill="white"/>
<rect x="89.3628" y="38.2983" width="3.19149" height="3.19149" fill="white"/>
<rect x="79.7861" y="38.2983" width="3.19149" height="3.19149" fill="white"/>
<rect x="82.9795" y="38.2983" width="3.19149" height="3.19149" fill="white"/>
<rect x="86.1694" y="41.4917" width="3.19149" height="3.19149" fill="white"/>
<rect x="89.3628" y="41.4917" width="3.19149" height="3.19149" fill="white"/>
<rect x="79.7861" y="41.4917" width="3.19149" height="3.19149" fill="white"/>
<rect x="82.9795" y="41.4917" width="3.19149" height="3.19149" fill="white"/>
<rect x="86.1694" y="44.6816" width="3.19149" height="3.19149" fill="white"/>
<rect x="89.3628" y="44.6816" width="3.19149" height="3.19149" fill="white"/>
<rect x="89.3628" y="47.8711" width="3.19149" height="3.19149" fill="white"/>
<rect x="79.7861" y="44.6816" width="3.19149" height="3.19149" fill="white"/>
<rect x="82.9795" y="44.6816" width="3.19149" height="3.19149" fill="white"/>
<rect x="86.1694" y="47.8711" width="3.19149" height="3.19149" fill="white"/>
<rect x="82.9795" y="47.8711" width="3.19149" height="3.19149" fill="white"/>
<rect x="86.1694" y="51.0605" width="3.19149" height="3.19149" fill="white"/>
<rect x="82.9795" y="51.0605" width="3.19149" height="3.19149" fill="white"/>
<rect x="86.1694" y="35.105" width="3.19149" height="3.19149" fill="white"/>
<rect x="89.3628" y="35.105" width="3.19149" height="3.19149" fill="white"/>
<rect x="79.7861" y="35.105" width="3.19149" height="3.19149" fill="white"/>
<rect x="82.9795" y="35.105" width="3.19149" height="3.19149" fill="white"/>
<rect x="92.5527" y="22.3389" width="3.19149" height="3.19149" fill="white"/>
<rect x="86.1694" y="19.1494" width="3.19149" height="3.19149" fill="white"/>
<rect x="89.3628" y="19.1494" width="3.19149" height="3.19149" fill="white"/>
<rect x="79.7861" y="19.1494" width="3.19149" height="3.19149" fill="white"/>
<rect x="82.9795" y="19.1494" width="3.19149" height="3.19149" fill="white"/>
<rect x="92.5527" y="19.1494" width="3.19149" height="3.19149" fill="white"/>
<rect x="86.1694" y="15.9561" width="3.19149" height="3.19149" fill="white"/>
<rect x="89.3628" y="15.9561" width="3.19149" height="3.19149" fill="white"/>
<rect x="79.7861" y="15.9561" width="3.19149" height="3.19149" fill="white"/>
<rect x="82.9795" y="15.9561" width="3.19149" height="3.19149" fill="white"/>
<rect x="92.5527" y="15.9561" width="3.19149" height="3.19149" fill="white"/>
<rect x="102.129" y="31.915" width="3.19149" height="3.19149" fill="white"/>
<rect x="105.318" y="31.915" width="3.19149" height="3.19149" fill="white"/>
<rect x="98.9355" y="31.915" width="3.19149" height="3.19149" fill="white"/>
<rect x="114.892" y="31.915" width="3.19149" height="3.19149" fill="white"/>
<rect x="118.085" y="31.915" width="3.19149" height="3.19149" fill="white"/>
<rect x="121.278" y="31.915" width="3.19149" height="3.19149" fill="white"/>
<rect x="124.468" y="31.915" width="3.19149" height="3.19149" fill="white"/>
<rect x="127.661" y="31.915" width="3.19149" height="3.19149" fill="white"/>
<rect x="130.851" y="31.915" width="3.19149" height="3.19149" fill="white"/>
<rect x="111.702" y="31.915" width="3.19149" height="3.19149" fill="white"/>
<rect x="108.508" y="31.915" width="3.19149" height="3.19149" fill="white"/>
<rect x="102.129" y="28.7217" width="3.19149" height="3.19149" fill="white"/>
<rect x="105.318" y="28.7217" width="3.19149" height="3.19149" fill="white"/>
<rect x="98.9355" y="28.7217" width="3.19149" height="3.19149" fill="white"/>
<rect x="114.892" y="28.7217" width="3.19149" height="3.19149" fill="white"/>
<rect x="118.085" y="28.7217" width="3.19149" height="3.19149" fill="white"/>
<rect x="121.278" y="28.7217" width="3.19149" height="3.19149" fill="white"/>
<rect x="124.468" y="28.7217" width="3.19149" height="3.19149" fill="white"/>
<rect x="127.661" y="28.7217" width="3.19149" height="3.19149" fill="white"/>
<rect x="111.702" y="28.7217" width="3.19149" height="3.19149" fill="white"/>
<rect x="108.508" y="28.7217" width="3.19149" height="3.19149" fill="white"/>
<rect x="102.129" y="25.5322" width="3.19149" height="3.19149" fill="white"/>
<rect x="105.318" y="25.5322" width="3.19149" height="3.19149" fill="white"/>
<rect x="114.892" y="25.5322" width="3.19149" height="3.19149" fill="white"/>
<rect x="118.085" y="25.5322" width="3.19149" height="3.19149" fill="white"/>
<rect x="121.278" y="25.5322" width="3.19149" height="3.19149" fill="white"/>
<rect x="124.468" y="25.5322" width="3.19149" height="3.19149" fill="white"/>
<rect x="127.661" y="25.5322" width="3.19149" height="3.19149" fill="white"/>
<rect x="111.702" y="25.5322" width="3.19149" height="3.19149" fill="white"/>
<rect x="108.508" y="25.5322" width="3.19149" height="3.19149" fill="white"/>
<rect x="105.318" y="22.3389" width="3.19149" height="3.19149" fill="white"/>
<rect x="114.892" y="22.3389" width="3.19149" height="3.19149" fill="white"/>
<rect x="118.085" y="22.3389" width="3.19149" height="3.19149" fill="white"/>
<rect x="121.278" y="22.3389" width="3.19149" height="3.19149" fill="white"/>
<rect x="124.468" y="22.3389" width="3.19149" height="3.19149" fill="white"/>
<rect x="127.661" y="22.3389" width="3.19149" height="3.19149" fill="white"/>
<rect x="111.702" y="22.3389" width="3.19149" height="3.19149" fill="white"/>
<rect x="114.892" y="19.1494" width="3.19149" height="3.19149" fill="white"/>
<rect x="118.085" y="19.1494" width="3.19149" height="3.19149" fill="white"/>
<rect x="121.278" y="19.1494" width="3.19149" height="3.19149" fill="white"/>
<rect x="124.468" y="19.1494" width="3.19149" height="3.19149" fill="white"/>
<rect x="127.661" y="19.1494" width="3.19149" height="3.19149" fill="white"/>
<rect x="114.892" y="15.9561" width="3.19149" height="3.19149" fill="white"/>
<rect x="118.085" y="15.9561" width="3.19149" height="3.19149" fill="white"/>
<rect x="121.278" y="15.9561" width="3.19149" height="3.19149" fill="white"/>
<rect x="124.468" y="15.9561" width="3.19149" height="3.19149" fill="white"/>
<rect x="118.085" y="12.7661" width="3.19149" height="3.19149" fill="white"/>
<rect x="121.278" y="12.7661" width="3.19149" height="3.19149" fill="white"/>
<rect x="124.468" y="12.7661" width="3.19149" height="3.19149" fill="white"/>
<rect x="124.468" y="9.57617" width="3.19149" height="3.19149" fill="white"/>
<rect x="124.468" y="6.38281" width="3.19149" height="3.19149" fill="white"/>
<rect x="127.661" y="15.9561" width="3.19149" height="3.19149" fill="white"/>
<rect x="111.702" y="19.1494" width="3.19149" height="3.19149" fill="white"/>
<rect x="105.318" width="3.19149" height="3.19149" fill="white"/>
<rect x="108.508" width="3.19149" height="3.19149" fill="white"/>
<rect x="111.702" width="3.19149" height="3.19149" fill="white"/>
<rect x="114.892" width="3.19149" height="3.19149" fill="white"/>
<rect x="118.085" width="3.19149" height="3.19149" fill="white"/>
<rect x="121.278" y="3.18945" width="3.19149" height="3.19149" fill="white"/>
<rect x="102.129" width="3.19149" height="3.19149" fill="white"/>
<rect x="98.9355" width="3.19149" height="3.19149" fill="white"/>
<rect x="95.7461" width="3.19149" height="3.19149" fill="white"/>
<rect x="108.508" y="22.3389" width="3.19149" height="3.19149" fill="white"/>
<rect x="102.129" y="63.8306" width="3.19149" height="3.19149" fill="white"/>
<rect x="95.7461" y="67.0205" width="3.19149" height="3.19149" fill="white"/>
<rect x="89.3628" y="63.8306" width="3.19149" height="3.19149" fill="white"/>
<rect x="89.3628" y="60.6372" width="3.19149" height="3.19149" fill="white"/>
<rect x="86.1694" y="57.4473" width="3.19149" height="3.19149" fill="white"/>
<rect x="82.9795" y="57.4473" width="3.19149" height="3.19149" fill="white"/>
<rect x="57.4473" y="92.5527" width="3.19149" height="3.19149" fill="white"/>
<rect x="54.2539" y="92.5527" width="3.19149" height="3.19149" fill="white"/>
<rect x="44.6816" y="108.508" width="3.19149" height="3.19149" fill="white"/>
<rect x="35.1084" y="118.085" width="3.19149" height="3.19149" fill="white"/>
<rect x="51.0645" y="102.129" width="3.19149" height="3.19149" fill="white"/>
<rect x="44.6816" y="105.318" width="3.19149" height="3.19149" fill="white"/>
<rect x="47.8711" y="98.9395" width="3.19149" height="3.19149" fill="white"/>
<rect x="44.6816" y="98.9395" width="3.19149" height="3.19149" fill="white"/>
<rect x="47.8711" y="95.7422" width="3.19149" height="3.19149" fill="white"/>
<rect x="44.6816" y="95.7422" width="3.19149" height="3.19149" fill="white"/>
<rect x="44.6816" y="92.5527" width="3.19149" height="3.19149" fill="white"/>
<rect x="41.4917" y="98.9395" width="3.19149" height="3.19149" fill="white"/>
<rect x="41.4917" y="95.7422" width="3.19149" height="3.19149" fill="white"/>
<rect x="47.8711" y="102.129" width="3.19149" height="3.19149" fill="white"/>
<rect x="44.6816" y="102.129" width="3.19149" height="3.19149" fill="white"/>
<rect x="35.1084" y="114.895" width="3.19149" height="3.19149" fill="white"/>
<rect x="38.2983" y="111.702" width="3.19149" height="3.19149" fill="white"/>
<rect x="41.4917" y="111.702" width="3.19149" height="3.19149" fill="white"/>
<rect x="35.1084" y="111.702" width="3.19149" height="3.19149" fill="white"/>
<rect x="38.2983" y="105.318" width="3.19149" height="3.19149" fill="white"/>
<rect x="35.1084" y="105.318" width="3.19149" height="3.19149" fill="white"/>
<rect x="38.2983" y="102.129" width="3.19149" height="3.19149" fill="white"/>
<rect x="35.1084" y="102.129" width="3.19149" height="3.19149" fill="white"/>
<rect x="35.1084" y="98.9395" width="3.19149" height="3.19149" fill="white"/>
<rect x="31.915" y="105.318" width="3.19149" height="3.19149" fill="white"/>
<rect x="31.915" y="102.129" width="3.19149" height="3.19149" fill="white"/>
<rect x="38.2983" y="108.508" width="3.19149" height="3.19149" fill="white"/>
<rect x="35.1084" y="108.508" width="3.19149" height="3.19149" fill="white"/>
<rect x="9.57275" y="124.468" width="3.19149" height="3.19149" fill="white"/>
</svg>
