<svg width="24" height="26" viewBox="0 0 24 26" fill="none" xmlns="http://www.w3.org/2000/svg">
<path d="M0 10.4115C0 9.09964 0.643245 7.87118 1.72144 7.1239L9.72144 1.57923C11.092 0.629334 12.908 0.629335 14.2786 1.57923L22.2786 7.1239C23.3568 7.87118 24 9.09964 24 10.4115L24 22C24 24.2091 22.2091 26 20 26L4 26C1.79086 26 0 24.2091 0 22L0 10.4115Z" fill="#3C844C"/>
<path d="M0 10.4115C0 9.09964 0.643245 7.87118 1.72144 7.1239L9.72144 1.57923C11.092 0.629334 12.908 0.629335 14.2786 1.57923L22.2786 7.1239C23.3568 7.87118 24 9.09964 24 10.4115L24 22C24 24.2091 22.2091 26 20 26L4 26C1.79086 26 0 24.2091 0 22L0 10.4115Z" fill="#69A777"/>
<path d="M0.5 10.4115C0.5 9.26362 1.06284 8.18872 2.00626 7.53485L10.0063 1.99018C11.2055 1.15902 12.7945 1.15902 13.9937 1.99018L21.9937 7.53485C22.9372 8.18872 23.5 9.26362 23.5 10.4115L23.5 22C23.5 23.933 21.933 25.5 20 25.5L4 25.5C2.067 25.5 0.5 23.933 0.5 22L0.5 10.4115Z" stroke="#463E29" stroke-opacity="0.6"/>
<g filter="url(#filter0_di_3490_39344)">
<path d="M8 15.2354H16.4706" stroke="white" stroke-width="3" stroke-linecap="round"/>
<path d="M12.2354 19.4707V11.0001" stroke="white" stroke-width="3" stroke-linecap="round"/>
</g>
<mask id="path-5-inside-1_3490_39344" fill="white">
<path fill-rule="evenodd" clip-rule="evenodd" d="M1 20.2002L1 22.0002C1 23.6571 2.34315 25.0002 4 25.0002L20 25.0002C21.6569 25.0002 23 23.6571 23 22.0002V20.2002C23 22.4093 21.2091 24.2002 19 24.2002L5 24.2002C2.79086 24.2002 1 22.4093 1 20.2002Z"/>
</mask>
<path d="M2 22.0002L2 20.2002H0L0 22.0002H2ZM4 24.0002C2.89543 24.0002 2 23.1048 2 22.0002H0C0 24.2093 1.79086 26.0002 4 26.0002L4 24.0002ZM20 24.0002L4 24.0002L4 26.0002L20 26.0002V24.0002ZM22 22.0002C22 23.1048 21.1046 24.0002 20 24.0002V26.0002C22.2091 26.0002 24 24.2093 24 22.0002L22 22.0002ZM22 20.2002V22.0002L24 22.0002V20.2002L22 20.2002ZM22 20.2002C22 21.8571 20.6569 23.2002 19 23.2002V25.2002C21.7614 25.2002 24 22.9616 24 20.2002L22 20.2002ZM19 23.2002L5 23.2002L5 25.2002L19 25.2002V23.2002ZM5 23.2002C3.34315 23.2002 2 21.8571 2 20.2002H0C0 22.9616 2.23858 25.2002 5 25.2002L5 23.2002Z" fill="#247162" mask="url(#path-5-inside-1_3490_39344)"/>
<mask id="path-7-inside-2_3490_39344" fill="white">
<path fill-rule="evenodd" clip-rule="evenodd" d="M2.28659 7.95818C1.48055 8.51901 1 9.4388 1 10.4207L1 11.2419C1 9.84196 1.7319 8.54388 2.92977 7.81932L9.92977 3.58521C11.2026 2.81534 12.7974 2.81534 14.0702 3.58521L21.0702 7.81932C22.2681 8.54388 23 9.84196 23 11.2419V10.4207C23 9.4388 22.5194 8.51901 21.7134 7.95818L13.7134 2.39193C12.6835 1.67535 11.3165 1.67535 10.2866 2.39193L2.28659 7.95818Z"/>
</mask>
<path d="M2.28659 7.95818L2.85773 8.77904L2.28659 7.95818ZM2.92977 7.81932L3.44733 8.67497L2.92977 7.81932ZM9.92977 3.58521L9.41221 2.72957V2.72957L9.92977 3.58521ZM14.0702 3.58521L14.5878 2.72957V2.72957L14.0702 3.58521ZM21.0702 7.81932L20.5527 8.67497L21.0702 7.81932ZM21.7134 7.95818L21.1423 8.77904V8.77904L21.7134 7.95818ZM13.7134 2.39193L13.1423 3.21278L13.7134 2.39193ZM10.2866 2.39193L9.71546 1.57107L10.2866 2.39193ZM2 10.4207C2 9.76612 2.32037 9.15292 2.85773 8.77904L1.71546 7.13733C0.640738 7.8851 0 9.11148 0 10.4207H2ZM2 11.2419V10.4207H0L0 11.2419H2ZM2 11.2419C2 10.1919 2.54892 9.21839 3.44733 8.67497L2.41221 6.96368C0.914874 7.86937 0 9.49197 0 11.2419H2ZM3.44733 8.67497L10.4473 4.44086L9.41221 2.72957L2.41221 6.96368L3.44733 8.67497ZM10.4473 4.44086C11.4019 3.86345 12.5981 3.86345 13.5527 4.44086L14.5878 2.72957C12.9968 1.76722 11.0032 1.76722 9.41221 2.72957L10.4473 4.44086ZM13.5527 4.44086L20.5527 8.67497L21.5878 6.96367L14.5878 2.72957L13.5527 4.44086ZM20.5527 8.67497C21.4511 9.21839 22 10.1919 22 11.2419H24C24 9.49197 23.0851 7.86937 21.5878 6.96367L20.5527 8.67497ZM22 10.4207V11.2419H24V10.4207H22ZM21.1423 8.77904C21.6796 9.15292 22 9.76611 22 10.4207H24C24 9.11148 23.3593 7.8851 22.2845 7.13733L21.1423 8.77904ZM13.1423 3.21278L21.1423 8.77904L22.2845 7.13733L14.2845 1.57107L13.1423 3.21278ZM10.8577 3.21278C11.5443 2.73506 12.4557 2.73506 13.1423 3.21278L14.2845 1.57107C12.9114 0.615634 11.0886 0.615632 9.71546 1.57107L10.8577 3.21278ZM2.85773 8.77904L10.8577 3.21278L9.71546 1.57107L1.71546 7.13733L2.85773 8.77904Z" fill="#99D9CC" mask="url(#path-7-inside-2_3490_39344)"/>
<defs>
<filter id="filter0_di_3490_39344" x="5.5" y="9.5" width="13.4707" height="13.4707" filterUnits="userSpaceOnUse" color-interpolation-filters="sRGB">
<feFlood flood-opacity="0" result="BackgroundImageFix"/>
<feColorMatrix in="SourceAlpha" type="matrix" values="0 0 0 0 0 0 0 0 0 0 0 0 0 0 0 0 0 0 127 0" result="hardAlpha"/>
<feOffset dy="1"/>
<feGaussianBlur stdDeviation="0.5"/>
<feComposite in2="hardAlpha" operator="out"/>
<feColorMatrix type="matrix" values="0 0 0 0 1 0 0 0 0 1 0 0 0 0 1 0 0 0 0.3 0"/>
<feBlend mode="normal" in2="BackgroundImageFix" result="effect1_dropShadow_3490_39344"/>
<feBlend mode="normal" in="SourceGraphic" in2="effect1_dropShadow_3490_39344" result="shape"/>
<feColorMatrix in="SourceAlpha" type="matrix" values="0 0 0 0 0 0 0 0 0 0 0 0 0 0 0 0 0 0 127 0" result="hardAlpha"/>
<feOffset dy="1"/>
<feGaussianBlur stdDeviation="1.5"/>
<feComposite in2="hardAlpha" operator="arithmetic" k2="-1" k3="1"/>
<feColorMatrix type="matrix" values="0 0 0 0 0 0 0 0 0 0 0 0 0 0 0 0 0 0 0.15 0"/>
<feBlend mode="normal" in2="shape" result="effect2_innerShadow_3490_39344"/>
</filter>
</defs>
</svg>
