<svg width="150" height="150" viewBox="0 0 150 150" fill="none" xmlns="http://www.w3.org/2000/svg" preserveAspectRatio="none">
<path d="M56.9971 18.0029H59.9971V21.0029H56.9971V18.0029Z" fill="white"/>
<path d="M54.002 15H57.002V18H54.002V15Z" fill="white"/>
<path d="M54.002 18.0029H57.002V21.0029H54.002V18.0029Z" fill="white"/>
<path d="M50.998 18.0029H53.998V21.0029H50.998V18.0029Z" fill="white"/>
<path d="M60 18.0029H63V21.0029H60V18.0029Z" fill="white"/>
<path d="M56.9971 20.998H59.9971V23.998H56.9971V20.998Z" fill="white"/>
<path d="M54.002 20.998H57.002V23.998H54.002V20.998Z" fill="white"/>
<path d="M50.998 20.998H53.998V23.998H50.998V20.998Z" fill="white"/>
<path d="M60 20.998H63V23.998H60V20.998Z" fill="white"/>
<path d="M54.002 24.002H57.002V27.002H54.002V24.002Z" fill="white"/>
<path d="M50.998 24.002H53.998V27.002H50.998V24.002Z" fill="white"/>
<path d="M60 24.002H63V27.002H60V24.002Z" fill="white"/>
<path d="M60 27.0039H63V30.0039H60V27.0039Z" fill="white"/>
<path d="M56.9971 24.002H59.9971V27.002H56.9971V24.002Z" fill="white"/>
<path d="M50.998 27.0039H53.998V30.0039H50.998V27.0039Z" fill="white"/>
<rect x="56.9971" y="15" width="3" height="3" fill="white"/>
<path d="M30 54.002H33V57.002H30V54.002Z" fill="white"/>
<path d="M26.9971 50.998H29.9971V53.998H26.9971V50.998Z" fill="white"/>
<path d="M26.9971 54.002H29.9971V57.002H26.9971V54.002Z" fill="white"/>
<path d="M24.002 54.002H27.002V57.002H24.002V54.002Z" fill="white"/>
<path d="M33.0029 54.002H36.0029V57.002H33.0029V54.002Z" fill="white"/>
<path d="M35.998 54.002H38.998V57.002H35.998V54.002Z" fill="white"/>
<path d="M33.0029 50.998H36.0029V53.998H33.0029V50.998Z" fill="white"/>
<path d="M30 56.9971H33V59.9971H30V56.9971Z" fill="white"/>
<path d="M26.9971 56.9971H29.9971V59.9971H26.9971V56.9971Z" fill="white"/>
<path d="M24.002 56.9971H27.002V59.9971H24.002V56.9971Z" fill="white"/>
<path d="M26.9971 60H29.9971V63H26.9971V60Z" fill="white"/>
<path d="M24.002 60H27.002V63H24.002V60Z" fill="white"/>
<path d="M24.002 62.9961H27.002V65.9961H24.002V62.9961Z" fill="white"/>
<path d="M33.0029 56.9971H36.0029V59.9971H33.0029V56.9971Z" fill="white"/>
<path d="M35.998 56.9971H38.998V59.9971H35.998V56.9971Z" fill="white"/>
<rect x="30" y="50.998" width="3" height="3" fill="white"/>
<path d="M110.998 24.002H113.998V27.002H110.998V24.002Z" fill="white"/>
<path d="M108.003 20.998H111.003V23.998H108.003V20.998Z" fill="white"/>
<path d="M108.003 24.002H111.003V27.002H108.003V24.002Z" fill="white"/>
<path d="M105 24.002H108V27.002H105V24.002Z" fill="white"/>
<path d="M114.002 24.002H117.002V27.002H114.002V24.002Z" fill="white"/>
<path d="M110.998 27.0039H113.998V30.0039H110.998V27.0039Z" fill="white"/>
<path d="M108.003 27.0039H111.003V30.0039H108.003V27.0039Z" fill="white"/>
<path d="M105 27.0039H108V30.0039H105V27.0039Z" fill="white"/>
<path d="M114.002 27.0039H117.002V30.0039H114.002V27.0039Z" fill="white"/>
<path d="M108.003 30H111.003V33H108.003V30Z" fill="white"/>
<path d="M105 30H108V33H105V30Z" fill="white"/>
<path d="M114.002 30H117.002V33H114.002V30Z" fill="white"/>
<path d="M114.002 33.0029H117.002V36.0029H114.002V33.0029Z" fill="white"/>
<path d="M110.998 30H113.998V33H110.998V30Z" fill="white"/>
<path d="M105 33.0029H108V36.0029H105V33.0029Z" fill="white"/>
<rect x="110.998" y="20.998" width="3" height="3" fill="white"/>
<path d="M110.998 41.9971H113.998V44.9971H110.998V41.9971Z" fill="white"/>
<path d="M108.003 38.9941H111.003V41.9941H108.003V38.9941Z" fill="white"/>
<path d="M108.003 41.9971H111.003V44.9971H108.003V41.9971Z" fill="white"/>
<path d="M105 41.9971H108V44.9971H105V41.9971Z" fill="white"/>
<path d="M114.002 41.9971H117.002V44.9971H114.002V41.9971Z" fill="white"/>
<path d="M110.998 45H113.998V48H110.998V45Z" fill="white"/>
<path d="M108.003 45H111.003V48H108.003V45Z" fill="white"/>
<path d="M105 45H108V48H105V45Z" fill="white"/>
<path d="M105 47.9961H108V50.9961H105V47.9961Z" fill="white"/>
<path d="M114.002 47.9961H117.002V50.9961H114.002V47.9961Z" fill="white"/>
<path d="M114.002 45H117.002V48H114.002V45Z" fill="white"/>
<rect x="110.998" y="38.9941" width="3" height="3" fill="white"/>
<path d="M110.998 56.9971H113.998V59.9971H110.998V56.9971Z" fill="white"/>
<path d="M108.003 54.002H111.003V57.002H108.003V54.002Z" fill="white"/>
<path d="M108.003 56.9971H111.003V59.9971H108.003V56.9971Z" fill="white"/>
<path d="M105 56.9971H108V59.9971H105V56.9971Z" fill="white"/>
<path d="M114.002 56.9971H117.002V59.9971H114.002V56.9971Z" fill="white"/>
<path d="M110.998 60H113.998V63H110.998V60Z" fill="white"/>
<path d="M108.003 60H111.003V63H108.003V60Z" fill="white"/>
<path d="M105 60H108V63H105V60Z" fill="white"/>
<path d="M114.002 60H117.002V63H114.002V60Z" fill="white"/>
<rect x="110.998" y="54.002" width="3" height="3" fill="white"/>
<path d="M93.0029 36.0059H96.0029V39.0059H93.0029V36.0059Z" fill="white"/>
<path d="M90 33.0029H93V36.0029H90V33.0029Z" fill="white"/>
<path d="M90 36.0059H93V39.0059H90V36.0059Z" fill="white"/>
<path d="M86.9971 36.0059H89.9971V39.0059H86.9971V36.0059Z" fill="white"/>
<path d="M95.998 36.0059H98.998V39.0059H95.998V36.0059Z" fill="white"/>
<path d="M93.0029 38.9941H96.0029V41.9941H93.0029V38.9941Z" fill="white"/>
<path d="M90 38.9941H93V41.9941H90V38.9941Z" fill="white"/>
<path d="M86.9971 38.9941H89.9971V41.9941H86.9971V38.9941Z" fill="white"/>
<path d="M95.998 38.9941H98.998V41.9941H95.998V38.9941Z" fill="white"/>
<path d="M93.0029 41.9971H96.0029V44.9971H93.0029V41.9971Z" fill="white"/>
<path d="M90 41.9971H93V44.9971H90V41.9971Z" fill="white"/>
<path d="M86.9971 41.9971H89.9971V44.9971H86.9971V41.9971Z" fill="white"/>
<path d="M86.9971 45H89.9971V48H86.9971V45Z" fill="white"/>
<path d="M95.998 45H98.998V48H95.998V45Z" fill="white"/>
<path d="M95.998 41.9971H98.998V44.9971H95.998V41.9971Z" fill="white"/>
<rect x="93.0029" y="33.0029" width="3" height="3" fill="white"/>
<path d="M93.0029 54.002H96.0029V57.002H93.0029V54.002Z" fill="white"/>
<path d="M90 50.998H93V53.998H90V50.998Z" fill="white"/>
<path d="M90 54.002H93V57.002H90V54.002Z" fill="white"/>
<path d="M86.9971 54.002H89.9971V57.002H86.9971V54.002Z" fill="white"/>
<path d="M95.998 54.002H98.998V57.002H95.998V54.002Z" fill="white"/>
<path d="M93.0029 56.9971H96.0029V59.9971H93.0029V56.9971Z" fill="white"/>
<path d="M90 56.9971H93V59.9971H90V56.9971Z" fill="white"/>
<path d="M86.9971 56.9971H89.9971V59.9971H86.9971V56.9971Z" fill="white"/>
<path d="M95.998 56.9971H98.998V59.9971H95.998V56.9971Z" fill="white"/>
<path d="M93.0029 60H96.0029V63H93.0029V60Z" fill="white"/>
<path d="M90 60H93V63H90V60Z" fill="white"/>
<path d="M86.9971 60H89.9971V63H86.9971V60Z" fill="white"/>
<path d="M95.998 60H98.998V63H95.998V60Z" fill="white"/>
<rect x="93.0029" y="50.998" width="3" height="3" fill="white"/>
<path d="M75 30H78V33H75V30Z" fill="white"/>
<path d="M71.9971 27.0039H74.9971V30.0039H71.9971V27.0039Z" fill="white"/>
<path d="M71.9971 30H74.9971V33H71.9971V30Z" fill="white"/>
<path d="M69.002 30H72.002V33H69.002V30Z" fill="white"/>
<path d="M78.0029 30H81.0029V33H78.0029V30Z" fill="white"/>
<path d="M75 33.0029H78V36.0029H75V33.0029Z" fill="white"/>
<path d="M71.9971 33.0029H74.9971V36.0029H71.9971V33.0029Z" fill="white"/>
<path d="M69.002 33.0029H72.002V36.0029H69.002V33.0029Z" fill="white"/>
<path d="M78.0029 33.0029H81.0029V36.0029H78.0029V33.0029Z" fill="white"/>
<path d="M75 36.0059H78V39.0059H75V36.0059Z" fill="white"/>
<path d="M71.9971 36.0059H74.9971V39.0059H71.9971V36.0059Z" fill="white"/>
<path d="M69.002 36.0059H72.002V39.0059H69.002V36.0059Z" fill="white"/>
<path d="M69.002 38.9941H72.002V41.9941H69.002V38.9941Z" fill="white"/>
<path d="M78.0029 38.9941H81.0029V41.9941H78.0029V38.9941Z" fill="white"/>
<path d="M78.0029 36.0059H81.0029V39.0059H78.0029V36.0059Z" fill="white"/>
<rect x="75" y="27.0039" width="3" height="3" fill="white"/>
<path d="M56.9971 36.0059H59.9971V39.0059H56.9971V36.0059Z" fill="white"/>
<path d="M54.002 33.0029H57.002V36.0029H54.002V33.0029Z" fill="white"/>
<path d="M54.002 36.0059H57.002V39.0059H54.002V36.0059Z" fill="white"/>
<path d="M50.998 36.0059H53.998V39.0059H50.998V36.0059Z" fill="white"/>
<path d="M60 36.0059H63V39.0059H60V36.0059Z" fill="white"/>
<path d="M56.9971 38.9941H59.9971V41.9941H56.9971V38.9941Z" fill="white"/>
<path d="M54.002 38.9941H57.002V41.9941H54.002V38.9941Z" fill="white"/>
<path d="M50.998 38.9941H53.998V41.9941H50.998V38.9941Z" fill="white"/>
<path d="M60 38.9941H63V41.9941H60V38.9941Z" fill="white"/>
<path d="M56.9971 41.9971H59.9971V44.9971H56.9971V41.9971Z" fill="white"/>
<path d="M54.002 41.9971H57.002V44.9971H54.002V41.9971Z" fill="white"/>
<path d="M50.998 41.9971H53.998V44.9971H50.998V41.9971Z" fill="white"/>
<path d="M50.998 45H53.998V48H50.998V45Z" fill="white"/>
<path d="M60 45H63V48H60V45Z" fill="white"/>
<path d="M60 41.9971H63V44.9971H60V41.9971Z" fill="white"/>
<rect x="56.9971" y="33.0029" width="3" height="3" fill="white"/>
<path d="M56.9971 54.002H59.9971V57.002H56.9971V54.002Z" fill="white"/>
<path d="M54.002 50.998H57.002V53.998H54.002V50.998Z" fill="white"/>
<path d="M54.002 54.002H57.002V57.002H54.002V54.002Z" fill="white"/>
<path d="M50.998 54.002H53.998V57.002H50.998V54.002Z" fill="white"/>
<path d="M60 54.002H63V57.002H60V54.002Z" fill="white"/>
<path d="M56.9971 56.9971H59.9971V59.9971H56.9971V56.9971Z" fill="white"/>
<path d="M54.002 56.9971H57.002V59.9971H54.002V56.9971Z" fill="white"/>
<path d="M50.998 56.9971H53.998V59.9971H50.998V56.9971Z" fill="white"/>
<path d="M60 56.9971H63V59.9971H60V56.9971Z" fill="white"/>
<path d="M63.0029 69.002H66.0029V72.002H63.0029V69.002Z" fill="white"/>
<path d="M65.998 69.002H68.998V72.002H65.998V69.002Z" fill="white"/>
<path d="M63.0029 71.9971H66.0029V74.9971H63.0029V71.9971Z" fill="white"/>
<path d="M65.998 71.9971H68.998V74.9971H65.998V71.9971Z" fill="white"/>
<path d="M56.9971 60H59.9971V63H56.9971V60Z" fill="white"/>
<path d="M54.002 60H57.002V63H54.002V60Z" fill="white"/>
<path d="M50.998 60H53.998V63H50.998V60Z" fill="white"/>
<path d="M60 60H63V63H60V60Z" fill="white"/>
<path d="M56.9971 62.9961H59.9971V65.9961H56.9971V62.9961Z" fill="white"/>
<path d="M54.002 62.9961H57.002V65.9961H54.002V62.9961Z" fill="white"/>
<path d="M50.998 62.9961H53.998V65.9961H50.998V62.9961Z" fill="white"/>
<path d="M50.998 65.998H53.998V68.998H50.998V65.998Z" fill="white"/>
<path d="M50.998 69.002H53.998V72.002H50.998V69.002Z" fill="white"/>
<path d="M60 62.9961H63V65.9961H60V62.9961Z" fill="white"/>
<path d="M56.9971 71.9971H59.9971V74.9971H56.9971V71.9971Z" fill="white"/>
<path d="M54.002 71.9971H57.002V74.9971H54.002V71.9971Z" fill="white"/>
<path d="M50.998 71.9971H53.998V74.9971H50.998V71.9971Z" fill="white"/>
<path d="M60 71.9971H63V74.9971H60V71.9971Z" fill="white"/>
<path d="M60 65.998H63V68.998H60V65.998Z" fill="white"/>
<path d="M60 69.002H63V72.002H60V69.002Z" fill="white"/>
<path d="M69.002 69.002H72.002V72.002H69.002V69.002Z" fill="white"/>
<path d="M75 71.9971H78V74.9971H75V71.9971Z" fill="white"/>
<path d="M71.9971 71.9971H74.9971V74.9971H71.9971V71.9971Z" fill="white"/>
<path d="M69.002 71.9971H72.002V74.9971H69.002V71.9971Z" fill="white"/>
<path d="M78.0029 71.9971H81.0029V74.9971H78.0029V71.9971Z" fill="white"/>
<path d="M78.0029 69.002H81.0029V72.002H78.0029V69.002Z" fill="white"/>
<rect x="56.9971" y="50.998" width="3" height="3" fill="white"/>
<path d="M63.0029 62.9961H66.0029V65.9961H63.0029V62.9961Z" fill="white"/>
<rect x="65.998" y="62.9961" width="3" height="3" fill="white"/>
<path d="M63.0029 65.998H66.0029V68.998H63.0029V65.998Z" fill="white"/>
<rect x="65.998" y="65.998" width="3" height="3" fill="white"/>
<path d="M80.998 69.002H83.998V72.002H80.998V69.002Z" fill="white"/>
<path d="M84.002 69.002H87.002V72.002H84.002V69.002Z" fill="white"/>
<path d="M80.998 71.9971H83.998V74.9971H80.998V71.9971Z" fill="white"/>
<path d="M84.002 71.9971H87.002V74.9971H84.002V71.9971Z" fill="white"/>
<path d="M80.998 62.9961H83.998V65.9961H80.998V62.9961Z" fill="white"/>
<rect x="84.002" y="62.9961" width="3" height="3" fill="white"/>
<path d="M80.998 65.998H83.998V68.998H80.998V65.998Z" fill="white"/>
<rect x="84.002" y="65.998" width="3" height="3" fill="white"/>
<path d="M99.002 69.002H102.002V72.002H99.002V69.002Z" fill="white"/>
<path d="M101.997 69.002H104.997V72.002H101.997V69.002Z" fill="white"/>
<path d="M99.002 71.9971H102.002V74.9971H99.002V71.9971Z" fill="white"/>
<path d="M101.997 71.9971H104.997V74.9971H101.997V71.9971Z" fill="white"/>
<path d="M99.002 62.9961H102.002V65.9961H99.002V62.9961Z" fill="white"/>
<rect x="101.997" y="62.9961" width="3" height="3" fill="white"/>
<path d="M99.002 65.998H102.002V68.998H99.002V65.998Z" fill="white"/>
<rect x="101.997" y="65.998" width="3" height="3" fill="white"/>
<path d="M75 47.9961H78V50.9961H75V47.9961Z" fill="white"/>
<path d="M71.9971 45H74.9971V48H71.9971V45Z" fill="white"/>
<path d="M71.9971 47.9961H74.9971V50.9961H71.9971V47.9961Z" fill="white"/>
<path d="M69.002 47.9961H72.002V50.9961H69.002V47.9961Z" fill="white"/>
<path d="M78.0029 47.9961H81.0029V50.9961H78.0029V47.9961Z" fill="white"/>
<path d="M75 50.998H78V53.998H75V50.998Z" fill="white"/>
<path d="M71.9971 50.998H74.9971V53.998H71.9971V50.998Z" fill="white"/>
<path d="M69.002 50.998H72.002V53.998H69.002V50.998Z" fill="white"/>
<path d="M78.0029 50.998H81.0029V53.998H78.0029V50.998Z" fill="white"/>
<path d="M75 54.002H78V57.002H75V54.002Z" fill="white"/>
<path d="M71.9971 54.002H74.9971V57.002H71.9971V54.002Z" fill="white"/>
<path d="M69.002 54.002H72.002V57.002H69.002V54.002Z" fill="white"/>
<path d="M78.0029 54.002H81.0029V57.002H78.0029V54.002Z" fill="white"/>
<path d="M75 56.9971H78V59.9971H75V56.9971Z" fill="white"/>
<path d="M71.9971 56.9971H74.9971V59.9971H71.9971V56.9971Z" fill="white"/>
<path d="M69.002 56.9971H72.002V59.9971H69.002V56.9971Z" fill="white"/>
<path d="M78.0029 56.9971H81.0029V59.9971H78.0029V56.9971Z" fill="white"/>
<path d="M75 60H78V63H75V60Z" fill="white"/>
<path d="M71.9971 60H74.9971V63H71.9971V60Z" fill="white"/>
<path d="M69.002 60H72.002V63H69.002V60Z" fill="white"/>
<path d="M78.0029 60H81.0029V63H78.0029V60Z" fill="white"/>
<path d="M75 62.9961H78V65.9961H75V62.9961Z" fill="white"/>
<path d="M71.9971 62.9961H74.9971V65.9961H71.9971V62.9961Z" fill="white"/>
<path d="M69.002 62.9961H72.002V65.9961H69.002V62.9961Z" fill="white"/>
<path d="M69.002 65.998H72.002V68.998H69.002V65.998Z" fill="white"/>
<path d="M78.0029 65.998H81.0029V68.998H78.0029V65.998Z" fill="white"/>
<path d="M78.0029 62.9961H81.0029V65.9961H78.0029V62.9961Z" fill="white"/>
<path d="M86.9971 69.002H89.9971V72.002H86.9971V69.002Z" fill="white"/>
<path d="M93.0029 71.9971H96.0029V74.9971H93.0029V71.9971Z" fill="white"/>
<path d="M90 71.9971H93V74.9971H90V71.9971Z" fill="white"/>
<path d="M86.9971 71.9971H89.9971V74.9971H86.9971V71.9971Z" fill="white"/>
<path d="M95.998 71.9971H98.998V74.9971H95.998V71.9971Z" fill="white"/>
<path d="M95.998 69.002H98.998V72.002H95.998V69.002Z" fill="white"/>
<path d="M93.0029 62.9961H96.0029V65.9961H93.0029V62.9961Z" fill="white"/>
<path d="M90 62.9961H93V65.9961H90V62.9961Z" fill="white"/>
<path d="M86.9971 62.9961H89.9971V65.9961H86.9971V62.9961Z" fill="white"/>
<path d="M86.9971 65.998H89.9971V68.998H86.9971V65.998Z" fill="white"/>
<path d="M95.998 65.998H98.998V68.998H95.998V65.998Z" fill="white"/>
<path d="M95.998 62.9961H98.998V65.9961H95.998V62.9961Z" fill="white"/>
<path d="M105 69.002H108V72.002H105V69.002Z" fill="white"/>
<path d="M110.998 71.9971H113.998V74.9971H110.998V71.9971Z" fill="white"/>
<path d="M108.003 71.9971H111.003V74.9971H108.003V71.9971Z" fill="white"/>
<path d="M105 71.9971H108V74.9971H105V71.9971Z" fill="white"/>
<path d="M114.002 71.9971H117.002V74.9971H114.002V71.9971Z" fill="white"/>
<path d="M63.0029 75H66.0029V78H63.0029V75Z" fill="white"/>
<path d="M65.998 75H68.998V78H65.998V75Z" fill="white"/>
<path d="M56.9971 75H59.9971V78H56.9971V75Z" fill="white"/>
<path d="M54.002 75H57.002V78H54.002V75Z" fill="white"/>
<path d="M50.998 75H53.998V78H50.998V75Z" fill="white"/>
<path d="M60 75H63V78H60V75Z" fill="white"/>
<path d="M75 75H78V78H75V75Z" fill="white"/>
<path d="M71.9971 75H74.9971V78H71.9971V75Z" fill="white"/>
<path d="M69.002 75H72.002V78H69.002V75Z" fill="white"/>
<path d="M78.0029 75H81.0029V78H78.0029V75Z" fill="white"/>
<path d="M80.998 75H83.998V78H80.998V75Z" fill="white"/>
<path d="M84.002 75H87.002V78H84.002V75Z" fill="white"/>
<path d="M99.002 75H102.002V78H99.002V75Z" fill="white"/>
<path d="M101.997 75H104.997V78H101.997V75Z" fill="white"/>
<path d="M93.0029 75H96.0029V78H93.0029V75Z" fill="white"/>
<path d="M90 75H93V78H90V75Z" fill="white"/>
<path d="M86.9971 75H89.9971V78H86.9971V75Z" fill="white"/>
<path d="M95.998 75H98.998V78H95.998V75Z" fill="white"/>
<path d="M110.998 75H113.998V78H110.998V75Z" fill="white"/>
<path d="M108.003 75H111.003V78H108.003V75Z" fill="white"/>
<path d="M105 75H108V78H105V75Z" fill="white"/>
<path d="M114.002 75H117.002V78H114.002V75Z" fill="white"/>
<path d="M63.0029 78.0029H66.0029V81.0029H63.0029V78.0029Z" fill="white"/>
<path d="M65.998 78.0029H68.998V81.0029H65.998V78.0029Z" fill="white"/>
<path d="M56.9971 78.0029H59.9971V81.0029H56.9971V78.0029Z" fill="white"/>
<path d="M54.002 78.0029H57.002V81.0029H54.002V78.0029Z" fill="white"/>
<path d="M50.998 78.0029H53.998V81.0029H50.998V78.0029Z" fill="white"/>
<path d="M45 80.998H48V83.998H45V80.998Z" fill="white"/>
<path d="M48.0029 80.998H51.0029V83.998H48.0029V80.998Z" fill="white"/>
<path d="M30 78.0029H33V81.0029H30V78.0029Z" fill="white"/>
<path d="M30 75H33V78H30V75Z" fill="white"/>
<path d="M33.0029 75H36.0029V78H33.0029V75Z" fill="white"/>
<path d="M30 71.9971H33V74.9971H30V71.9971Z" fill="white"/>
<path d="M30 69.002H33V72.002H30V69.002Z" fill="white"/>
<path d="M35.998 71.9971H38.998V74.9971H35.998V71.9971Z" fill="white"/>
<path d="M39.002 71.9971H42.002V74.9971H39.002V71.9971Z" fill="white"/>
<path d="M41.9971 69.002H44.9971V72.002H41.9971V69.002Z" fill="white"/>
<path d="M41.9971 71.9971H44.9971V74.9971H41.9971V71.9971Z" fill="white"/>
<path d="M45 71.9971H48V74.9971H45V71.9971Z" fill="white"/>
<path d="M33.0029 71.9971H36.0029V74.9971H33.0029V71.9971Z" fill="white"/>
<path d="M33.0029 69.002H36.0029V72.002H33.0029V69.002Z" fill="white"/>
<path d="M35.998 69.002H38.998V72.002H35.998V69.002Z" fill="white"/>
<path d="M39.002 69.002H42.002V72.002H39.002V69.002Z" fill="white"/>
<path d="M33.0029 65.998H36.0029V68.998H33.0029V65.998Z" fill="white"/>
<path d="M35.998 65.998H38.998V68.998H35.998V65.998Z" fill="white"/>
<path d="M39.002 65.998H42.002V68.998H39.002V65.998Z" fill="white"/>
<path d="M45 78.0029H48V81.0029H45V78.0029Z" fill="white"/>
<path d="M41.9971 78.0029H44.9971V81.0029H41.9971V78.0029Z" fill="white"/>
<path d="M48.0029 105H51.0029V108H48.0029V105Z" fill="white"/>
<path d="M45 102.004H48V105.004H45V102.004Z" fill="white"/>
<path d="M41.9971 99.002H44.9971V102.002H41.9971V99.002Z" fill="white"/>
<path d="M39.002 95.998H42.002V98.998H39.002V95.998Z" fill="white"/>
<path d="M39.002 93.0029H42.002V96.0029H39.002V93.0029Z" fill="white"/>
<path d="M35.998 87.0039H38.998V90.0039H35.998V87.0039Z" fill="white"/>
<path d="M35.998 84.002H38.998V87.002H35.998V84.002Z" fill="white"/>
<path d="M39.002 80.998H42.002V83.998H39.002V80.998Z" fill="white"/>
<path d="M39.002 84.002H42.002V87.002H39.002V84.002Z" fill="white"/>
<path d="M35.998 90H38.998V93H35.998V90Z" fill="white"/>
<path d="M39.002 87.0039H42.002V90.0039H39.002V87.0039Z" fill="white"/>
<path d="M39.002 90H42.002V93H39.002V90Z" fill="white"/>
<path d="M41.9971 95.998H44.9971V98.998H41.9971V95.998Z" fill="white"/>
<path d="M41.9971 93.0029H44.9971V96.0029H41.9971V93.0029Z" fill="white"/>
<path d="M41.9971 80.998H44.9971V83.998H41.9971V80.998Z" fill="white"/>
<path d="M41.9971 84.002H44.9971V87.002H41.9971V84.002Z" fill="white"/>
<path d="M41.9971 87.0039H44.9971V90.0039H41.9971V87.0039Z" fill="white"/>
<path d="M41.9971 90H44.9971V93H41.9971V90Z" fill="white"/>
<path d="M60 78.0029H63V81.0029H60V78.0029Z" fill="white"/>
<path d="M75 78.0029H78V81.0029H75V78.0029Z" fill="white"/>
<path d="M71.9971 78.0029H74.9971V81.0029H71.9971V78.0029Z" fill="white"/>
<path d="M69.002 78.0029H72.002V81.0029H69.002V78.0029Z" fill="white"/>
<path d="M78.0029 78.0029H81.0029V81.0029H78.0029V78.0029Z" fill="white"/>
<path d="M80.998 78.0029H83.998V81.0029H80.998V78.0029Z" fill="white"/>
<path d="M84.002 78.0029H87.002V81.0029H84.002V78.0029Z" fill="white"/>
<path d="M99.002 78.0029H102.002V81.0029H99.002V78.0029Z" fill="white"/>
<path d="M101.997 78.0029H104.997V81.0029H101.997V78.0029Z" fill="white"/>
<path d="M93.0029 78.0029H96.0029V81.0029H93.0029V78.0029Z" fill="white"/>
<path d="M90 78.0029H93V81.0029H90V78.0029Z" fill="white"/>
<path d="M86.9971 78.0029H89.9971V81.0029H86.9971V78.0029Z" fill="white"/>
<path d="M95.998 78.0029H98.998V81.0029H95.998V78.0029Z" fill="white"/>
<path d="M110.998 78.0029H113.998V81.0029H110.998V78.0029Z" fill="white"/>
<path d="M108.003 78.0029H111.003V81.0029H108.003V78.0029Z" fill="white"/>
<path d="M105 78.0029H108V81.0029H105V78.0029Z" fill="white"/>
<path d="M114.002 78.0029H117.002V81.0029H114.002V78.0029Z" fill="white"/>
<path d="M63.0029 80.998H66.0029V83.998H63.0029V80.998Z" fill="white"/>
<path d="M65.998 80.998H68.998V83.998H65.998V80.998Z" fill="white"/>
<path d="M56.9971 80.998H59.9971V83.998H56.9971V80.998Z" fill="white"/>
<path d="M54.002 80.998H57.002V83.998H54.002V80.998Z" fill="white"/>
<path d="M50.998 80.998H53.998V83.998H50.998V80.998Z" fill="white"/>
<path d="M60 80.998H63V83.998H60V80.998Z" fill="white"/>
<path d="M75 80.998H78V83.998H75V80.998Z" fill="white"/>
<path d="M71.9971 80.998H74.9971V83.998H71.9971V80.998Z" fill="white"/>
<path d="M69.002 80.998H72.002V83.998H69.002V80.998Z" fill="white"/>
<path d="M78.0029 80.998H81.0029V83.998H78.0029V80.998Z" fill="white"/>
<path d="M80.998 80.998H83.998V83.998H80.998V80.998Z" fill="white"/>
<path d="M84.002 80.998H87.002V83.998H84.002V80.998Z" fill="white"/>
<path d="M99.002 80.998H102.002V83.998H99.002V80.998Z" fill="white"/>
<path d="M101.997 80.998H104.997V83.998H101.997V80.998Z" fill="white"/>
<path d="M93.0029 80.998H96.0029V83.998H93.0029V80.998Z" fill="white"/>
<path d="M90 80.998H93V83.998H90V80.998Z" fill="white"/>
<path d="M86.9971 80.998H89.9971V83.998H86.9971V80.998Z" fill="white"/>
<path d="M95.998 80.998H98.998V83.998H95.998V80.998Z" fill="white"/>
<path d="M110.998 80.998H113.998V83.998H110.998V80.998Z" fill="white"/>
<path d="M108.003 80.998H111.003V83.998H108.003V80.998Z" fill="white"/>
<path d="M105 80.998H108V83.998H105V80.998Z" fill="white"/>
<path d="M114.002 80.998H117.002V83.998H114.002V80.998Z" fill="white"/>
<path d="M63.0029 84.002H66.0029V87.002H63.0029V84.002Z" fill="white"/>
<path d="M65.998 84.002H68.998V87.002H65.998V84.002Z" fill="white"/>
<path d="M56.9971 84.002H59.9971V87.002H56.9971V84.002Z" fill="white"/>
<path d="M54.002 84.002H57.002V87.002H54.002V84.002Z" fill="white"/>
<path d="M50.998 84.002H53.998V87.002H50.998V84.002Z" fill="white"/>
<path d="M60 84.002H63V87.002H60V84.002Z" fill="white"/>
<path d="M75 84.002H78V87.002H75V84.002Z" fill="white"/>
<path d="M71.9971 84.002H74.9971V87.002H71.9971V84.002Z" fill="white"/>
<path d="M69.002 84.002H72.002V87.002H69.002V84.002Z" fill="white"/>
<path d="M78.0029 84.002H81.0029V87.002H78.0029V84.002Z" fill="white"/>
<path d="M80.998 84.002H83.998V87.002H80.998V84.002Z" fill="white"/>
<path d="M84.002 84.002H87.002V87.002H84.002V84.002Z" fill="white"/>
<path d="M99.002 84.002H102.002V87.002H99.002V84.002Z" fill="white"/>
<path d="M101.997 84.002H104.997V87.002H101.997V84.002Z" fill="white"/>
<path d="M93.0029 84.002H96.0029V87.002H93.0029V84.002Z" fill="white"/>
<path d="M90 84.002H93V87.002H90V84.002Z" fill="white"/>
<path d="M86.9971 84.002H89.9971V87.002H86.9971V84.002Z" fill="white"/>
<path d="M95.998 84.002H98.998V87.002H95.998V84.002Z" fill="white"/>
<path d="M110.998 84.002H113.998V87.002H110.998V84.002Z" fill="white"/>
<path d="M108.003 84.002H111.003V87.002H108.003V84.002Z" fill="white"/>
<path d="M105 84.002H108V87.002H105V84.002Z" fill="white"/>
<path d="M114.002 84.002H117.002V87.002H114.002V84.002Z" fill="white"/>
<path d="M63.0029 87.0039H66.0029V90.0039H63.0029V87.0039Z" fill="white"/>
<path d="M65.998 87.0039H68.998V90.0039H65.998V87.0039Z" fill="white"/>
<path d="M56.9971 87.0039H59.9971V90.0039H56.9971V87.0039Z" fill="white"/>
<path d="M54.002 87.0039H57.002V90.0039H54.002V87.0039Z" fill="white"/>
<path d="M50.998 87.0039H53.998V90.0039H50.998V87.0039Z" fill="white"/>
<path d="M60 87.0039H63V90.0039H60V87.0039Z" fill="white"/>
<path d="M75 87.0039H78V90.0039H75V87.0039Z" fill="white"/>
<path d="M71.9971 87.0039H74.9971V90.0039H71.9971V87.0039Z" fill="white"/>
<path d="M69.002 87.0039H72.002V90.0039H69.002V87.0039Z" fill="white"/>
<path d="M78.0029 87.0039H81.0029V90.0039H78.0029V87.0039Z" fill="white"/>
<path d="M80.998 87.0039H83.998V90.0039H80.998V87.0039Z" fill="white"/>
<path d="M84.002 87.0039H87.002V90.0039H84.002V87.0039Z" fill="white"/>
<path d="M99.002 87.0039H102.002V90.0039H99.002V87.0039Z" fill="white"/>
<path d="M101.997 87.0039H104.997V90.0039H101.997V87.0039Z" fill="white"/>
<path d="M93.0029 87.0039H96.0029V90.0039H93.0029V87.0039Z" fill="white"/>
<path d="M90 87.0039H93V90.0039H90V87.0039Z" fill="white"/>
<path d="M86.9971 87.0039H89.9971V90.0039H86.9971V87.0039Z" fill="white"/>
<path d="M95.998 87.0039H98.998V90.0039H95.998V87.0039Z" fill="white"/>
<path d="M110.998 87.0039H113.998V90.0039H110.998V87.0039Z" fill="white"/>
<path d="M108.003 87.0039H111.003V90.0039H108.003V87.0039Z" fill="white"/>
<path d="M105 87.0039H108V90.0039H105V87.0039Z" fill="white"/>
<path d="M114.002 87.0039H117.002V90.0039H114.002V87.0039Z" fill="white"/>
<path d="M63.0029 90H66.0029V93H63.0029V90Z" fill="white"/>
<path d="M65.998 90H68.998V93H65.998V90Z" fill="white"/>
<path d="M56.9971 90H59.9971V93H56.9971V90Z" fill="white"/>
<path d="M54.002 90H57.002V93H54.002V90Z" fill="white"/>
<path d="M50.998 90H53.998V93H50.998V90Z" fill="white"/>
<path d="M60 90H63V93H60V90Z" fill="white"/>
<path d="M75 90H78V93H75V90Z" fill="white"/>
<path d="M71.9971 90H74.9971V93H71.9971V90Z" fill="white"/>
<path d="M69.002 90H72.002V93H69.002V90Z" fill="white"/>
<path d="M78.0029 90H81.0029V93H78.0029V90Z" fill="white"/>
<path d="M80.998 90H83.998V93H80.998V90Z" fill="white"/>
<path d="M84.002 90H87.002V93H84.002V90Z" fill="white"/>
<path d="M99.002 90H102.002V93H99.002V90Z" fill="white"/>
<path d="M101.997 90H104.997V93H101.997V90Z" fill="white"/>
<path d="M93.0029 90H96.0029V93H93.0029V90Z" fill="white"/>
<path d="M90 90H93V93H90V90Z" fill="white"/>
<path d="M86.9971 90H89.9971V93H86.9971V90Z" fill="white"/>
<path d="M95.998 90H98.998V93H95.998V90Z" fill="white"/>
<path d="M110.998 90H113.998V93H110.998V90Z" fill="white"/>
<path d="M108.003 90H111.003V93H108.003V90Z" fill="white"/>
<path d="M105 90H108V93H105V90Z" fill="white"/>
<path d="M114.002 90H117.002V93H114.002V90Z" fill="white"/>
<path d="M63.0029 93.0029H66.0029V96.0029H63.0029V93.0029Z" fill="white"/>
<path d="M65.998 93.0029H68.998V96.0029H65.998V93.0029Z" fill="white"/>
<path d="M56.9971 93.0029H59.9971V96.0029H56.9971V93.0029Z" fill="white"/>
<path d="M54.002 93.0029H57.002V96.0029H54.002V93.0029Z" fill="white"/>
<path d="M50.998 93.0029H53.998V96.0029H50.998V93.0029Z" fill="white"/>
<path d="M48.0029 84.002H51.0029V87.002H48.0029V84.002Z" fill="white"/>
<path d="M45 84.002H48V87.002H45V84.002Z" fill="white"/>
<path d="M48.0029 87.0039H51.0029V90.0039H48.0029V87.0039Z" fill="white"/>
<path d="M45 87.0039H48V90.0039H45V87.0039Z" fill="white"/>
<path d="M48.0029 90H51.0029V93H48.0029V90Z" fill="white"/>
<path d="M45 90H48V93H45V90Z" fill="white"/>
<path d="M48.0029 93.0029H51.0029V96.0029H48.0029V93.0029Z" fill="white"/>
<path d="M45 93.0029H48V96.0029H45V93.0029Z" fill="white"/>
<path d="M60 93.0029H63V96.0029H60V93.0029Z" fill="white"/>
<path d="M75 93.0029H78V96.0029H75V93.0029Z" fill="white"/>
<path d="M71.9971 93.0029H74.9971V96.0029H71.9971V93.0029Z" fill="white"/>
<path d="M69.002 93.0029H72.002V96.0029H69.002V93.0029Z" fill="white"/>
<path d="M78.0029 93.0029H81.0029V96.0029H78.0029V93.0029Z" fill="white"/>
<path d="M80.998 93.0029H83.998V96.0029H80.998V93.0029Z" fill="white"/>
<path d="M84.002 93.0029H87.002V96.0029H84.002V93.0029Z" fill="white"/>
<path d="M99.002 93.0029H102.002V96.0029H99.002V93.0029Z" fill="white"/>
<path d="M101.997 93.0029H104.997V96.0029H101.997V93.0029Z" fill="white"/>
<path d="M93.0029 93.0029H96.0029V96.0029H93.0029V93.0029Z" fill="white"/>
<path d="M90 93.0029H93V96.0029H90V93.0029Z" fill="white"/>
<path d="M86.9971 93.0029H89.9971V96.0029H86.9971V93.0029Z" fill="white"/>
<path d="M95.998 93.0029H98.998V96.0029H95.998V93.0029Z" fill="white"/>
<path d="M110.998 93.0029H113.998V96.0029H110.998V93.0029Z" fill="white"/>
<path d="M108.003 93.0029H111.003V96.0029H108.003V93.0029Z" fill="white"/>
<path d="M105 93.0029H108V96.0029H105V93.0029Z" fill="white"/>
<path d="M63.0029 95.998H66.0029V98.998H63.0029V95.998Z" fill="white"/>
<path d="M65.998 95.998H68.998V98.998H65.998V95.998Z" fill="white"/>
<path d="M56.9971 95.998H59.9971V98.998H56.9971V95.998Z" fill="white"/>
<path d="M54.002 95.998H57.002V98.998H54.002V95.998Z" fill="white"/>
<path d="M50.998 95.998H53.998V98.998H50.998V95.998Z" fill="white"/>
<path d="M60 95.998H63V98.998H60V95.998Z" fill="white"/>
<path d="M75 95.998H78V98.998H75V95.998Z" fill="white"/>
<path d="M71.9971 95.998H74.9971V98.998H71.9971V95.998Z" fill="white"/>
<path d="M69.002 95.998H72.002V98.998H69.002V95.998Z" fill="white"/>
<path d="M78.0029 95.998H81.0029V98.998H78.0029V95.998Z" fill="white"/>
<path d="M80.998 95.998H83.998V98.998H80.998V95.998Z" fill="white"/>
<path d="M84.002 95.998H87.002V98.998H84.002V95.998Z" fill="white"/>
<path d="M99.002 95.998H102.002V98.998H99.002V95.998Z" fill="white"/>
<path d="M101.997 95.998H104.997V98.998H101.997V95.998Z" fill="white"/>
<path d="M93.0029 95.998H96.0029V98.998H93.0029V95.998Z" fill="white"/>
<path d="M90 95.998H93V98.998H90V95.998Z" fill="white"/>
<path d="M86.9971 95.998H89.9971V98.998H86.9971V95.998Z" fill="white"/>
<path d="M95.998 95.998H98.998V98.998H95.998V95.998Z" fill="white"/>
<path d="M108.003 95.998H111.003V98.998H108.003V95.998Z" fill="white"/>
<path d="M105 95.998H108V98.998H105V95.998Z" fill="white"/>
<path d="M63.0029 99.002H66.0029V102.002H63.0029V99.002Z" fill="white"/>
<path d="M65.998 99.002H68.998V102.002H65.998V99.002Z" fill="white"/>
<path d="M56.9971 99.002H59.9971V102.002H56.9971V99.002Z" fill="white"/>
<path d="M54.002 99.002H57.002V102.002H54.002V99.002Z" fill="white"/>
<path d="M50.998 99.002H53.998V102.002H50.998V99.002Z" fill="white"/>
<path d="M48.0029 95.998H51.0029V98.998H48.0029V95.998Z" fill="white"/>
<path d="M45 95.998H48V98.998H45V95.998Z" fill="white"/>
<path d="M48.0029 99.002H51.0029V102.002H48.0029V99.002Z" fill="white"/>
<path d="M45 99.002H48V102.002H45V99.002Z" fill="white"/>
<path d="M60 99.002H63V102.002H60V99.002Z" fill="white"/>
<path d="M75 99.002H78V102.002H75V99.002Z" fill="white"/>
<path d="M71.9971 99.002H74.9971V102.002H71.9971V99.002Z" fill="white"/>
<path d="M69.002 99.002H72.002V102.002H69.002V99.002Z" fill="white"/>
<path d="M78.0029 99.002H81.0029V102.002H78.0029V99.002Z" fill="white"/>
<path d="M80.998 99.002H83.998V102.002H80.998V99.002Z" fill="white"/>
<path d="M84.002 99.002H87.002V102.002H84.002V99.002Z" fill="white"/>
<path d="M99.002 99.002H102.002V102.002H99.002V99.002Z" fill="white"/>
<path d="M101.997 99.002H104.997V102.002H101.997V99.002Z" fill="white"/>
<path d="M93.0029 99.002H96.0029V102.002H93.0029V99.002Z" fill="white"/>
<path d="M90 99.002H93V102.002H90V99.002Z" fill="white"/>
<path d="M86.9971 99.002H89.9971V102.002H86.9971V99.002Z" fill="white"/>
<path d="M95.998 99.002H98.998V102.002H95.998V99.002Z" fill="white"/>
<path d="M108.003 99.002H111.003V102.002H108.003V99.002Z" fill="white"/>
<path d="M105 99.002H108V102.002H105V99.002Z" fill="white"/>
<path d="M63.0029 102.004H66.0029V105.004H63.0029V102.004Z" fill="white"/>
<path d="M65.998 102.004H68.998V105.004H65.998V102.004Z" fill="white"/>
<path d="M56.9971 102.004H59.9971V105.004H56.9971V102.004Z" fill="white"/>
<path d="M54.002 102.004H57.002V105.004H54.002V102.004Z" fill="white"/>
<path d="M50.998 102.004H53.998V105.004H50.998V102.004Z" fill="white"/>
<path d="M48.0029 102.004H51.0029V105.004H48.0029V102.004Z" fill="white"/>
<path d="M60 102.004H63V105.004H60V102.004Z" fill="white"/>
<path d="M75 102.004H78V105.004H75V102.004Z" fill="white"/>
<path d="M71.9971 102.004H74.9971V105.004H71.9971V102.004Z" fill="white"/>
<path d="M69.002 102.004H72.002V105.004H69.002V102.004Z" fill="white"/>
<path d="M78.0029 102.004H81.0029V105.004H78.0029V102.004Z" fill="white"/>
<path d="M80.998 102.004H83.998V105.004H80.998V102.004Z" fill="white"/>
<path d="M84.002 102.004H87.002V105.004H84.002V102.004Z" fill="white"/>
<path d="M99.002 102.004H102.002V105.004H99.002V102.004Z" fill="white"/>
<path d="M101.997 102.004H104.997V105.004H101.997V102.004Z" fill="white"/>
<path d="M93.0029 102.004H96.0029V105.004H93.0029V102.004Z" fill="white"/>
<path d="M90 102.004H93V105.004H90V102.004Z" fill="white"/>
<path d="M86.9971 102.004H89.9971V105.004H86.9971V102.004Z" fill="white"/>
<path d="M95.998 102.004H98.998V105.004H95.998V102.004Z" fill="white"/>
<path d="M105 102.004H108V105.004H105V102.004Z" fill="white"/>
<path d="M63.0029 105H66.0029V108H63.0029V105Z" fill="white"/>
<path d="M65.998 105H68.998V108H65.998V105Z" fill="white"/>
<path d="M56.9971 105H59.9971V108H56.9971V105Z" fill="white"/>
<path d="M54.002 105H57.002V108H54.002V105Z" fill="white"/>
<path d="M50.998 105H53.998V108H50.998V105Z" fill="white"/>
<path d="M60 105H63V108H60V105Z" fill="white"/>
<path d="M75 105H78V108H75V105Z" fill="white"/>
<path d="M71.9971 105H74.9971V108H71.9971V105Z" fill="white"/>
<path d="M69.002 105H72.002V108H69.002V105Z" fill="white"/>
<path d="M78.0029 105H81.0029V108H78.0029V105Z" fill="white"/>
<path d="M80.998 105H83.998V108H80.998V105Z" fill="white"/>
<path d="M84.002 105H87.002V108H84.002V105Z" fill="white"/>
<path d="M99.002 105H102.002V108H99.002V105Z" fill="white"/>
<path d="M101.997 105H104.997V108H101.997V105Z" fill="white"/>
<path d="M93.0029 105H96.0029V108H93.0029V105Z" fill="white"/>
<path d="M90 105H93V108H90V105Z" fill="white"/>
<path d="M86.9971 105H89.9971V108H86.9971V105Z" fill="white"/>
<path d="M95.998 105H98.998V108H95.998V105Z" fill="white"/>
<path d="M105 105H108V108H105V105Z" fill="white"/>
<path d="M63.0029 108.003H66.0029V111.003H63.0029V108.003Z" fill="white"/>
<path d="M65.998 108.003H68.998V111.003H65.998V108.003Z" fill="white"/>
<path d="M56.9971 108.003H59.9971V111.003H56.9971V108.003Z" fill="white"/>
<path d="M54.002 108.003H57.002V111.003H54.002V108.003Z" fill="white"/>
<path d="M60 108.003H63V111.003H60V108.003Z" fill="white"/>
<path d="M75 108.003H78V111.003H75V108.003Z" fill="white"/>
<path d="M71.9971 108.003H74.9971V111.003H71.9971V108.003Z" fill="white"/>
<path d="M69.002 108.003H72.002V111.003H69.002V108.003Z" fill="white"/>
<path d="M78.0029 108.003H81.0029V111.003H78.0029V108.003Z" fill="white"/>
<path d="M80.998 108.003H83.998V111.003H80.998V108.003Z" fill="white"/>
<path d="M84.002 108.003H87.002V111.003H84.002V108.003Z" fill="white"/>
<path d="M99.002 108.003H102.002V111.003H99.002V108.003Z" fill="white"/>
<path d="M101.997 108.003H104.997V111.003H101.997V108.003Z" fill="white"/>
<path d="M93.0029 108.003H96.0029V111.003H93.0029V108.003Z" fill="white"/>
<path d="M90 108.003H93V111.003H90V108.003Z" fill="white"/>
<path d="M86.9971 108.003H89.9971V111.003H86.9971V108.003Z" fill="white"/>
<path d="M95.998 108.003H98.998V111.003H95.998V108.003Z" fill="white"/>
<path d="M105 108.003H108V111.003H105V108.003Z" fill="white"/>
<path d="M63.0029 111.006H66.0029V114.006H63.0029V111.006Z" fill="white"/>
<path d="M65.998 111.006H68.998V114.006H65.998V111.006Z" fill="white"/>
<path d="M56.9971 111.006H59.9971V114.006H56.9971V111.006Z" fill="white"/>
<path d="M54.002 111.006H57.002V114.006H54.002V111.006Z" fill="white"/>
<path d="M60 111.006H63V114.006H60V111.006Z" fill="white"/>
<path d="M75 111.006H78V114.006H75V111.006Z" fill="white"/>
<path d="M71.9971 111.006H74.9971V114.006H71.9971V111.006Z" fill="white"/>
<path d="M69.002 111.006H72.002V114.006H69.002V111.006Z" fill="white"/>
<path d="M78.0029 111.006H81.0029V114.006H78.0029V111.006Z" fill="white"/>
<path d="M80.998 111.006H83.998V114.006H80.998V111.006Z" fill="white"/>
<path d="M84.002 111.006H87.002V114.006H84.002V111.006Z" fill="white"/>
<path d="M99.002 111.006H102.002V114.006H99.002V111.006Z" fill="white"/>
<path d="M101.997 111.006H104.997V114.006H101.997V111.006Z" fill="white"/>
<path d="M93.0029 111.006H96.0029V114.006H93.0029V111.006Z" fill="white"/>
<path d="M90 111.006H93V114.006H90V111.006Z" fill="white"/>
<path d="M86.9971 111.006H89.9971V114.006H86.9971V111.006Z" fill="white"/>
<path d="M95.998 111.006H98.998V114.006H95.998V111.006Z" fill="white"/>
<path d="M105 111.006H108V114.006H105V111.006Z" fill="white"/>
<path d="M63.0029 113.994H66.0029V116.994H63.0029V113.994Z" fill="white"/>
<path d="M65.998 113.994H68.998V116.994H65.998V113.994Z" fill="white"/>
<path d="M56.9971 113.994H59.9971V116.994H56.9971V113.994Z" fill="white"/>
<path d="M54.002 113.994H57.002V116.994H54.002V113.994Z" fill="white"/>
<path d="M60 113.994H63V116.994H60V113.994Z" fill="white"/>
<path d="M75 113.994H78V116.994H75V113.994Z" fill="white"/>
<path d="M71.9971 113.994H74.9971V116.994H71.9971V113.994Z" fill="white"/>
<path d="M69.002 113.994H72.002V116.994H69.002V113.994Z" fill="white"/>
<path d="M78.0029 113.994H81.0029V116.994H78.0029V113.994Z" fill="white"/>
<path d="M80.998 113.994H83.998V116.994H80.998V113.994Z" fill="white"/>
<path d="M84.002 113.994H87.002V116.994H84.002V113.994Z" fill="white"/>
<path d="M99.002 113.994H102.002V116.994H99.002V113.994Z" fill="white"/>
<path d="M101.997 113.994H104.997V116.994H101.997V113.994Z" fill="white"/>
<path d="M93.0029 113.994H96.0029V116.994H93.0029V113.994Z" fill="white"/>
<path d="M90 113.994H93V116.994H90V113.994Z" fill="white"/>
<path d="M86.9971 113.994H89.9971V116.994H86.9971V113.994Z" fill="white"/>
<path d="M95.998 113.994H98.998V116.994H95.998V113.994Z" fill="white"/>
<path d="M105 113.994H108V116.994H105V113.994Z" fill="white"/>
<path d="M63.0029 116.997H66.0029V119.997H63.0029V116.997Z" fill="white"/>
<path d="M65.998 116.997H68.998V119.997H65.998V116.997Z" fill="white"/>
<path d="M56.9971 116.997H59.9971V119.997H56.9971V116.997Z" fill="white"/>
<path d="M54.002 116.997H57.002V119.997H54.002V116.997Z" fill="white"/>
<path d="M60 116.997H63V119.997H60V116.997Z" fill="white"/>
<path d="M75 116.997H78V119.997H75V116.997Z" fill="white"/>
<path d="M71.9971 116.997H74.9971V119.997H71.9971V116.997Z" fill="white"/>
<path d="M69.002 116.997H72.002V119.997H69.002V116.997Z" fill="white"/>
<path d="M78.0029 116.997H81.0029V119.997H78.0029V116.997Z" fill="white"/>
<path d="M80.998 116.997H83.998V119.997H80.998V116.997Z" fill="white"/>
<path d="M84.002 116.997H87.002V119.997H84.002V116.997Z" fill="white"/>
<path d="M99.002 116.997H102.002V119.997H99.002V116.997Z" fill="white"/>
<path d="M101.997 116.997H104.997V119.997H101.997V116.997Z" fill="white"/>
<path d="M93.0029 116.997H96.0029V119.997H93.0029V116.997Z" fill="white"/>
<path d="M90 116.997H93V119.997H90V116.997Z" fill="white"/>
<path d="M86.9971 116.997H89.9971V119.997H86.9971V116.997Z" fill="white"/>
<path d="M95.998 116.997H98.998V119.997H95.998V116.997Z" fill="white"/>
<path d="M105 116.997H108V119.997H105V116.997Z" fill="white"/>
<path d="M114.002 93.0029H117.002V96.0029H114.002V93.0029Z" fill="white"/>
<path d="M110.998 95.998H113.998V98.998H110.998V95.998Z" fill="white"/>
<path d="M110.998 99.002H113.998V102.002H110.998V99.002Z" fill="white"/>
<path d="M108.003 102.004H111.003V105.004H108.003V102.004Z" fill="white"/>
<path d="M108.003 105H111.003V108H108.003V105Z" fill="white"/>
<path d="M108.003 108.003H111.003V111.003H108.003V108.003Z" fill="white"/>
<path d="M108.003 111.006H111.003V114.006H108.003V111.006Z" fill="white"/>
<path d="M108.003 113.994H111.003V116.994H108.003V113.994Z" fill="white"/>
<path d="M108.003 116.997H111.003V119.997H108.003V116.997Z" fill="white"/>
<path d="M50.998 108.003H53.998V111.003H50.998V108.003Z" fill="white"/>
<path d="M50.998 111.006H53.998V114.006H50.998V111.006Z" fill="white"/>
<path d="M50.998 113.994H53.998V116.994H50.998V113.994Z" fill="white"/>
<path d="M50.998 116.997H53.998V119.997H50.998V116.997Z" fill="white"/>
<path d="M63.0029 120H66.0029V123H63.0029V120Z" fill="white"/>
<path d="M65.998 120H68.998V123H65.998V120Z" fill="white"/>
<path d="M56.9971 120H59.9971V123H56.9971V120Z" fill="white"/>
<path d="M54.002 120H57.002V123H54.002V120Z" fill="white"/>
<path d="M60 120H63V123H60V120Z" fill="white"/>
<path d="M75 120H78V123H75V120Z" fill="white"/>
<path d="M71.9971 120H74.9971V123H71.9971V120Z" fill="white"/>
<path d="M69.002 120H72.002V123H69.002V120Z" fill="white"/>
<path d="M78.0029 120H81.0029V123H78.0029V120Z" fill="white"/>
<path d="M80.998 120H83.998V123H80.998V120Z" fill="white"/>
<path d="M84.002 120H87.002V123H84.002V120Z" fill="white"/>
<path d="M99.002 120H102.002V123H99.002V120Z" fill="white"/>
<path d="M101.997 120H104.997V123H101.997V120Z" fill="white"/>
<path d="M93.0029 120H96.0029V123H93.0029V120Z" fill="white"/>
<path d="M90 120H93V123H90V120Z" fill="white"/>
<path d="M86.9971 120H89.9971V123H86.9971V120Z" fill="white"/>
<path d="M95.998 120H98.998V123H95.998V120Z" fill="white"/>
<path d="M105 120H108V123H105V120Z" fill="white"/>
<path d="M63.0029 122.996H66.0029V125.996H63.0029V122.996Z" fill="white"/>
<path d="M65.998 122.996H68.998V125.996H65.998V122.996Z" fill="white"/>
<path d="M56.9971 122.996H59.9971V125.996H56.9971V122.996Z" fill="white"/>
<path d="M54.002 122.996H57.002V125.996H54.002V122.996Z" fill="white"/>
<path d="M60 122.996H63V125.996H60V122.996Z" fill="white"/>
<path d="M75 122.996H78V125.996H75V122.996Z" fill="white"/>
<path d="M71.9971 122.996H74.9971V125.996H71.9971V122.996Z" fill="white"/>
<path d="M69.002 122.996H72.002V125.996H69.002V122.996Z" fill="white"/>
<path d="M78.0029 122.996H81.0029V125.996H78.0029V122.996Z" fill="white"/>
<path d="M80.998 122.996H83.998V125.996H80.998V122.996Z" fill="white"/>
<path d="M84.002 122.996H87.002V125.996H84.002V122.996Z" fill="white"/>
<path d="M99.002 122.996H102.002V125.996H99.002V122.996Z" fill="white"/>
<path d="M101.997 122.996H104.997V125.996H101.997V122.996Z" fill="white"/>
<path d="M93.0029 122.996H96.0029V125.996H93.0029V122.996Z" fill="white"/>
<path d="M90 122.996H93V125.996H90V122.996Z" fill="white"/>
<path d="M86.9971 122.996H89.9971V125.996H86.9971V122.996Z" fill="white"/>
<path d="M95.998 122.996H98.998V125.996H95.998V122.996Z" fill="white"/>
<path d="M63.0029 125.998H66.0029V128.998H63.0029V125.998Z" fill="white"/>
<path d="M65.998 125.998H68.998V128.998H65.998V125.998Z" fill="white"/>
<path d="M60 125.998H63V128.998H60V125.998Z" fill="white"/>
<path d="M75 125.998H78V128.998H75V125.998Z" fill="white"/>
<path d="M71.9971 125.998H74.9971V128.998H71.9971V125.998Z" fill="white"/>
<path d="M69.002 125.998H72.002V128.998H69.002V125.998Z" fill="white"/>
<path d="M78.0029 125.998H81.0029V128.998H78.0029V125.998Z" fill="white"/>
<path d="M80.998 125.998H83.998V128.998H80.998V125.998Z" fill="white"/>
<path d="M84.002 125.998H87.002V128.998H84.002V125.998Z" fill="white"/>
<path d="M99.002 125.998H102.002V128.998H99.002V125.998Z" fill="white"/>
<path d="M93.0029 125.998H96.0029V128.998H93.0029V125.998Z" fill="white"/>
<path d="M90 125.998H93V128.998H90V125.998Z" fill="white"/>
<path d="M86.9971 125.998H89.9971V128.998H86.9971V125.998Z" fill="white"/>
<path d="M75 129.002H78V132.002H75V129.002Z" fill="white"/>
<path d="M71.9971 129.002H74.9971V132.002H71.9971V129.002Z" fill="white"/>
<path d="M69.002 129.002H72.002V132.002H69.002V129.002Z" fill="white"/>
<path d="M78.0029 129.002H81.0029V132.002H78.0029V129.002Z" fill="white"/>
<path d="M80.998 129.002H83.998V132.002H80.998V129.002Z" fill="white"/>
<path d="M84.002 129.002H87.002V132.002H84.002V129.002Z" fill="white"/>
<path d="M90 129.002H93V132.002H90V129.002Z" fill="white"/>
<path d="M86.9971 129.002H89.9971V132.002H86.9971V129.002Z" fill="white"/>
<path d="M75 131.997H78V134.997H75V131.997Z" fill="white"/>
<path d="M71.9971 131.997H74.9971V134.997H71.9971V131.997Z" fill="white"/>
<path d="M78.0029 131.997H81.0029V134.997H78.0029V131.997Z" fill="white"/>
<path d="M80.998 131.997H83.998V134.997H80.998V131.997Z" fill="white"/>
<path d="M78.0029 135H81.0029V138H78.0029V135Z" fill="white"/>
<path d="M80.998 135H83.998V138H80.998V135Z" fill="white"/>
<path d="M84.002 131.997H87.002V134.997H84.002V131.997Z" fill="white"/>
<path d="M86.9971 131.997H89.9971V134.997H86.9971V131.997Z" fill="white"/>
<path d="M95.998 125.998H98.998V128.998H95.998V125.998Z" fill="white"/>
<path d="M105 122.996H108V125.996H105V122.996Z" fill="white"/>
<path d="M108.003 120H111.003V123H108.003V120Z" fill="white"/>
<path d="M108.003 122.996H111.003V125.996H108.003V122.996Z" fill="white"/>
<path d="M50.998 120H53.998V123H50.998V120Z" fill="white"/>
<path d="M50.998 122.996H53.998V125.996H50.998V122.996Z" fill="white"/>
<path d="M110.998 120H113.998V123H110.998V120Z" fill="white"/>
<path d="M110.998 122.996H113.998V125.996H110.998V122.996Z" fill="white"/>
<path d="M48.0029 120H51.0029V123H48.0029V120Z" fill="white"/>
<path d="M48.0029 122.996H51.0029V125.996H48.0029V122.996Z" fill="white"/>
<path d="M108.003 125.998H111.003V128.998H108.003V125.998Z" fill="white"/>
<path d="M110.998 125.998H113.998V128.998H110.998V125.998Z" fill="white"/>
<path d="M101.997 125.998H104.997V128.998H101.997V125.998Z" fill="white"/>
<path d="M105 125.998H108V128.998H105V125.998Z" fill="white"/>
<path d="M78.0029 140.998H81.0029V143.998H78.0029V140.998Z" fill="white"/>
<path d="M80.998 140.998H83.998V143.998H80.998V140.998Z" fill="white"/>
<path d="M75 137.996H78V140.996H75V137.996Z" fill="white"/>
<path d="M78.0029 137.996H81.0029V140.996H78.0029V137.996Z" fill="white"/>
<path d="M71.9971 135H74.9971V138H71.9971V135Z" fill="white"/>
<path d="M75 135H78V138H75V135Z" fill="white"/>
<path d="M65.998 131.997H68.998V134.997H65.998V131.997Z" fill="white"/>
<path d="M69.002 131.997H72.002V134.997H69.002V131.997Z" fill="white"/>
<path d="M99.002 129.002H102.002V132.002H99.002V129.002Z" fill="white"/>
<path d="M101.997 129.002H104.997V132.002H101.997V129.002Z" fill="white"/>
<path d="M93.0029 129.002H96.0029V132.002H93.0029V129.002Z" fill="white"/>
<path d="M95.998 129.002H98.998V132.002H95.998V129.002Z" fill="white"/>
<path d="M63.0029 129.002H66.0029V132.002H63.0029V129.002Z" fill="white"/>
<path d="M65.998 129.002H68.998V132.002H65.998V129.002Z" fill="white"/>
<path d="M56.9971 129.002H59.9971V132.002H56.9971V129.002Z" fill="white"/>
<path d="M60 129.002H63V132.002H60V129.002Z" fill="white"/>
<path d="M54.002 125.998H57.002V128.998H54.002V125.998Z" fill="white"/>
<path d="M56.9971 125.998H59.9971V128.998H56.9971V125.998Z" fill="white"/>
<path d="M48.0029 125.998H51.0029V128.998H48.0029V125.998Z" fill="white"/>
<path d="M50.998 125.998H53.998V128.998H50.998V125.998Z" fill="white"/>
<path d="M90 131.997H93V134.997H90V131.997Z" fill="white"/>
<path d="M93.0029 131.997H96.0029V134.997H93.0029V131.997Z" fill="white"/>
<path d="M84.002 135H87.002V138H84.002V135Z" fill="white"/>
<path d="M86.9971 135H89.9971V138H86.9971V135Z" fill="white"/>
<path d="M80.998 137.996H83.998V140.996H80.998V137.996Z" fill="white"/>
<path d="M84.002 137.996H87.002V140.996H84.002V137.996Z" fill="white"/>
<path d="M114.002 69.002H117.002V72.002H114.002V69.002Z" fill="white"/>
<path d="M110.998 62.9961H113.998V65.9961H110.998V62.9961Z" fill="white"/>
<path d="M108.003 62.9961H111.003V65.9961H108.003V62.9961Z" fill="white"/>
<path d="M105 62.9961H108V65.9961H105V62.9961Z" fill="white"/>
<path d="M105 65.998H108V68.998H105V65.998Z" fill="white"/>
<path d="M114.002 65.998H117.002V68.998H114.002V65.998Z" fill="white"/>
<path d="M114.002 62.9961H117.002V65.9961H114.002V62.9961Z" fill="white"/>
<rect x="75" y="45" width="3" height="3" fill="white"/>
<path d="M75 9.00195H78V12.002H75V9.00195Z" fill="white"/>
<path d="M71.9971 5.99805H74.9971V8.99805H71.9971V5.99805Z" fill="white"/>
<path d="M71.9971 9.00195H74.9971V12.002H71.9971V9.00195Z" fill="white"/>
<path d="M69.002 9.00195H72.002V12.002H69.002V9.00195Z" fill="white"/>
<path d="M78.0029 9.00195H81.0029V12.002H78.0029V9.00195Z" fill="white"/>
<path d="M75 12.0039H78V15.0039H75V12.0039Z" fill="white"/>
<path d="M71.9971 12.0039H74.9971V15.0039H71.9971V12.0039Z" fill="white"/>
<path d="M69.002 12.0039H72.002V15.0039H69.002V12.0039Z" fill="white"/>
<path d="M78.0029 12.0039H81.0029V15.0039H78.0029V12.0039Z" fill="white"/>
<path d="M75 15H78V18H75V15Z" fill="white"/>
<path d="M71.9971 15H74.9971V18H71.9971V15Z" fill="white"/>
<path d="M69.002 15H72.002V18H69.002V15Z" fill="white"/>
<path d="M78.0029 15H81.0029V18H78.0029V15Z" fill="white"/>
<path d="M71.9971 18.0029H74.9971V21.0029H71.9971V18.0029Z" fill="white"/>
<path d="M69.002 18.0029H72.002V21.0029H69.002V18.0029Z" fill="white"/>
<path d="M78.0029 18.0029H81.0029V21.0029H78.0029V18.0029Z" fill="white"/>
<path d="M78.0029 20.998H81.0029V23.998H78.0029V20.998Z" fill="white"/>
<path d="M75 18.0029H78V21.0029H75V18.0029Z" fill="white"/>
<path d="M69.002 20.998H72.002V23.998H69.002V20.998Z" fill="white"/>
<rect x="75" y="5.99805" width="3" height="3" fill="white"/>
<path d="M93.0029 15H96.0029V18H93.0029V15Z" fill="white"/>
<path d="M90 12.0039H93V15.0039H90V12.0039Z" fill="white"/>
<path d="M90 15H93V18H90V15Z" fill="white"/>
<path d="M86.9971 15H89.9971V18H86.9971V15Z" fill="white"/>
<path d="M95.998 15H98.998V18H95.998V15Z" fill="white"/>
<path d="M93.0029 18.0029H96.0029V21.0029H93.0029V18.0029Z" fill="white"/>
<path d="M90 18.0029H93V21.0029H90V18.0029Z" fill="white"/>
<path d="M86.9971 18.0029H89.9971V21.0029H86.9971V18.0029Z" fill="white"/>
<path d="M95.998 18.0029H98.998V21.0029H95.998V18.0029Z" fill="white"/>
<path d="M93.0029 20.998H96.0029V23.998H93.0029V20.998Z" fill="white"/>
<path d="M90 20.998H93V23.998H90V20.998Z" fill="white"/>
<path d="M86.9971 20.998H89.9971V23.998H86.9971V20.998Z" fill="white"/>
<path d="M95.998 20.998H98.998V23.998H95.998V20.998Z" fill="white"/>
<path d="M90 24.002H93V27.002H90V24.002Z" fill="white"/>
<path d="M86.9971 24.002H89.9971V27.002H86.9971V24.002Z" fill="white"/>
<path d="M95.998 24.002H98.998V27.002H95.998V24.002Z" fill="white"/>
<path d="M95.998 27.0039H98.998V30.0039H95.998V27.0039Z" fill="white"/>
<path d="M93.0029 24.002H96.0029V27.002H93.0029V24.002Z" fill="white"/>
<path d="M86.9971 27.0039H89.9971V30.0039H86.9971V27.0039Z" fill="white"/>
<rect x="93.0029" y="12.0039" width="3" height="3" fill="white"/>
</svg>
