<svg width="18" height="32" viewBox="0 0 18 32" fill="none" xmlns="http://www.w3.org/2000/svg">
<path d="M14.4074 0.632118C14.7855 0.228817 15.3136 0 15.8665 0H18V32H15.8665C15.3136 32 14.7855 31.7712 14.4074 31.3679L1.28239 17.3679C0.561156 16.5986 0.561156 15.4014 1.28239 14.6321L14.4074 0.632118Z" fill="#F5EDE5"/>
<path d="M14.4074 0.632118C14.7855 0.228817 15.3136 0 15.8665 0H18V32H15.8665C15.3136 32 14.7855 31.7712 14.4074 31.3679L1.28239 17.3679C0.561156 16.5986 0.561156 15.4014 1.28239 14.6321L14.4074 0.632118Z" fill="url(#paint0_linear_3279_68661)" fill-opacity="0.07"/>
<circle cx="10" cy="16" r="2" fill="#665545" fill-opacity="0.78"/>
<defs>
<linearGradient id="paint0_linear_3279_68661" x1="9" y1="0" x2="9" y2="32" gradientUnits="userSpaceOnUse">
<stop/>
<stop offset="0.046875" stop-opacity="0"/>
<stop offset="0.578125" stop-opacity="0"/>
<stop offset="1"/>
</linearGradient>
</defs>
</svg>
