<svg width="708" height="229" viewBox="0 0 708 229" fill="none" xmlns="http://www.w3.org/2000/svg" preserveAspectRatio="none">
<rect x="18" y="146.263" width="43" height="3" transform="rotate(-90 18 146.263)" fill="#1E1E1E"/>
<rect x="19" y="113.263" width="43" height="3" transform="rotate(-90 19 113.263)" fill="#1E1E1E"/>
<rect x="18" y="81.2634" width="43" height="3" transform="rotate(-90 18 81.2634)" fill="#1E1E1E"/>
<rect x="15" y="130.263" width="25" height="3" transform="rotate(-90 15 130.263)" fill="#1E1E1E"/>
<rect x="31" y="6.26343" width="25" height="3" fill="#1E1E1E"/>
<rect x="79" y="6.26343" width="25" height="3" fill="#1E1E1E"/>
<rect x="14" y="84.2634" width="3" height="3" transform="rotate(-90 14 84.2634)" fill="#1E1E1E"/>
<rect x="11" y="17.2634" width="3" height="3" transform="rotate(-90 11 17.2634)" fill="#1E1E1E"/>
<rect x="28" y="5.26343" width="3" height="3" transform="rotate(-90 28 5.26343)" fill="#1E1E1E"/>
<rect x="76" y="3.26343" width="3" height="3" transform="rotate(-90 76 3.26343)" fill="#1E1E1E"/>
<rect y="64.2634" width="3" height="3" transform="rotate(-90 0 64.2634)" fill="#1E1E1E"/>
<rect x="10" y="61.2634" width="9" height="3" transform="rotate(-90 10 61.2634)" fill="#1E1E1E"/>
<rect x="38" y="223.894" width="9" height="3" transform="rotate(180 38 223.894)" fill="#1E1E1E"/>
<rect x="84" y="223.894" width="22" height="3" transform="rotate(180 84 223.894)" fill="#1E1E1E"/>
<rect x="14" y="193.263" width="4" height="3" transform="rotate(180 14 193.263)" fill="#1E1E1E"/>
<rect x="46" y="226.894" width="4" height="3" transform="rotate(180 46 226.894)" fill="#1E1E1E"/>
<rect x="59" y="3.26343" width="9" height="3" fill="#1E1E1E"/>
<rect x="89" y="5.26343" width="9" height="3" fill="#1E1E1E"/>
<rect x="64" y="8.26343" width="21" height="3" fill="#1E1E1E"/>
<rect x="5" y="53.2634" width="12" height="3" transform="rotate(-90 5 53.2634)" fill="#1E1E1E"/>
<rect x="20" y="54.2634" width="43" height="3" transform="rotate(-90 20 54.2634)" fill="#1E1E1E"/>
<rect x="19" y="220.894" width="25" height="3" transform="rotate(-90 19 220.894)" fill="#1E1E1E"/>
<rect width="43" height="3" transform="matrix(-1.31134e-07 -1 -1 1.31134e-07 690 146.263)" fill="#1E1E1E"/>
<rect width="43" height="3" transform="matrix(-1.31134e-07 -1 -1 1.31134e-07 689 113.263)" fill="#1E1E1E"/>
<rect width="43" height="3" transform="matrix(-1.31134e-07 -1 -1 1.31134e-07 690 81.2632)" fill="#1E1E1E"/>
<rect width="25" height="3" transform="matrix(-1.31134e-07 -1 -1 1.31134e-07 693 130.263)" fill="#1E1E1E"/>
<rect width="25" height="3" transform="matrix(-1 1.74846e-07 1.74846e-07 1 677 6.26318)" fill="#1E1E1E"/>
<rect width="25" height="3" transform="matrix(-1.31134e-07 -1 -1 1.31134e-07 690 217.894)" fill="#1E1E1E"/>
<rect width="3" height="3" transform="matrix(-1.31134e-07 -1 -1 1.31134e-07 694 84.2632)" fill="#1E1E1E"/>
<rect width="3" height="12" transform="matrix(-1.31134e-07 -1 -1 1.31134e-07 671 223.894)" fill="#1E1E1E"/>
<rect width="3" height="3" transform="matrix(-1.31134e-07 -1 -1 1.31134e-07 697 17.2632)" fill="#1E1E1E"/>
<rect width="3" height="3" transform="matrix(-1.31134e-07 -1 -1 1.31134e-07 680 5.26318)" fill="#1E1E1E"/>
<rect width="3" height="3" transform="matrix(-1.31134e-07 -1 -1 1.31134e-07 632 3.26318)" fill="#1E1E1E"/>
<rect width="3" height="3" transform="matrix(-1.31134e-07 -1 -1 1.31134e-07 708 64.2632)" fill="#1E1E1E"/>
<rect width="3" height="3" transform="matrix(-1.31134e-07 -1 -1 1.31134e-07 682 228.894)" fill="#1E1E1E"/>
<rect width="9" height="3" transform="matrix(-1.31134e-07 -1 -1 1.31134e-07 698 61.2632)" fill="#1E1E1E"/>
<rect width="9" height="3" transform="matrix(-1.31134e-07 -1 -1 1.31134e-07 698 155.263)" fill="#1E1E1E"/>
<rect width="6" height="3" transform="matrix(-1.31134e-07 -1 -1 1.31134e-07 700 159.263)" fill="#1E1E1E"/>
<rect width="7" height="3" transform="matrix(-1.31134e-07 -1 -1 1.31134e-07 695 156.263)" fill="#1E1E1E"/>
<rect width="3" height="3" transform="matrix(-1.31134e-07 -1 -1 1.31134e-07 703 164.263)" fill="#1E1E1E"/>
<rect width="9" height="3" transform="matrix(-1 1.74846e-07 1.74846e-07 1 649 3.26318)" fill="#1E1E1E"/>
<rect width="9" height="3" transform="matrix(-1.31134e-07 -1 -1 1.31134e-07 695 195.894)" fill="#1E1E1E"/>
<rect width="21" height="3" transform="matrix(-1 1.74846e-07 1.74846e-07 1 644 8.26318)" fill="#1E1E1E"/>
<rect width="12" height="3" transform="matrix(-1.31134e-07 -1 -1 1.31134e-07 703 53.2632)" fill="#1E1E1E"/>
<rect width="43" height="3" transform="matrix(-1.31134e-07 -1 -1 1.31134e-07 688 54.2632)" fill="#1E1E1E"/>
<rect x="21" y="220.894" width="210" height="666" transform="rotate(-90 21 220.894)" fill="#1E1E1E"/>
</svg>
