<svg width="17" height="14" viewBox="0 0 17 14" fill="none" xmlns="http://www.w3.org/2000/svg">
<mask id="path-1-outside-1_2678_62038" maskUnits="userSpaceOnUse" x="0" y="0" width="17" height="14" fill="black">
<rect fill="white" width="17" height="14"/>
<path fill-rule="evenodd" clip-rule="evenodd" d="M4 1C2.34315 1 1 2.34315 1 4V10C1 11.6569 2.34315 13 4 13H10C11.6569 13 13 11.6569 13 10V7.86603L14.5 7L13 6.13397V4C13 2.34315 11.6569 1 10 1H4Z"/>
</mask>
<path fill-rule="evenodd" clip-rule="evenodd" d="M4 1C2.34315 1 1 2.34315 1 4V10C1 11.6569 2.34315 13 4 13H10C11.6569 13 13 11.6569 13 10V7.86603L14.5 7L13 6.13397V4C13 2.34315 11.6569 1 10 1H4Z" fill="white"/>
<path d="M13 7.86603L12.5 7L12 7.28868V7.86603H13ZM14.5 7L15 7.86603L16.5 7L15 6.13397L14.5 7ZM13 6.13397H12V6.71132L12.5 7L13 6.13397ZM2 4C2 2.89543 2.89543 2 4 2V0C1.79086 0 0 1.79086 0 4H2ZM2 10V4H0V10H2ZM4 12C2.89543 12 2 11.1046 2 10H0C0 12.2091 1.79086 14 4 14V12ZM10 12H4V14H10V12ZM12 10C12 11.1046 11.1046 12 10 12V14C12.2091 14 14 12.2091 14 10H12ZM12 7.86603V10H14V7.86603H12ZM14 6.13397L12.5 7L13.5 8.73205L15 7.86603L14 6.13397ZM12.5 7L14 7.86603L15 6.13397L13.5 5.26795L12.5 7ZM12 4V6.13397H14V4H12ZM10 2C11.1046 2 12 2.89543 12 4H14C14 1.79086 12.2091 0 10 0V2ZM4 2H10V0H4V2Z" fill="#C8C8C8" mask="url(#path-1-outside-1_2678_62038)"/>
<path d="M7.74332 8.75034H6.28342L6.05348 2H7.97326L7.74332 8.75034ZM6 10.8535C6 10.5188 6.09447 10.2451 6.28342 10.0326C6.47594 9.81547 6.7148 9.70692 7 9.70692C7.2852 9.70692 7.52228 9.81547 7.71123 10.0326C7.90374 10.2451 8 10.5188 8 10.8535C8 11.1882 7.90374 11.464 7.71123 11.6811C7.52228 11.8937 7.2852 12 7 12C6.7148 12 6.47594 11.8937 6.28342 11.6811C6.09447 11.464 6 11.1882 6 10.8535Z" fill="#C8C8C8"/>
</svg>
