<svg width="82" height="82" viewBox="0 0 82 82" fill="none" xmlns="http://www.w3.org/2000/svg">
<g filter="url(#filter0_d_4006_97614)">
<rect x="6.74902" y="0.75" width="74.5" height="74.5" rx="4.25" fill="white" stroke="#333333" stroke-width="0.5"/>
<rect x="7.99902" y="2" width="72" height="72" rx="3" fill="#333333" stroke="#E5C5AD" stroke-width="2"/>
<rect x="9.90723" y="3.90234" width="68.1905" height="68.1961" rx="2" fill="#D9754A"/>
<rect x="12.5742" y="6.57422" width="62.8456" height="62.8507" rx="2.25" stroke="white" stroke-opacity="0.6" stroke-width="0.5"/>
<rect x="11.5996" y="5.60059" width="64.7939" height="64.7992" rx="2.25" stroke="white" stroke-opacity="0.6" stroke-width="0.5"/>
<g opacity="0.6">
<path d="M37.8418 18.5068H38.8678V19.5328H37.8418V18.5068Z" fill="white"/>
<path d="M36.8184 17.4795H37.8444V18.5055H36.8184V17.4795Z" fill="white"/>
<path d="M36.8184 18.5068H37.8444V19.5328H36.8184V18.5068Z" fill="white"/>
<path d="M35.7891 18.5068H36.8151V19.5328H35.7891V18.5068Z" fill="white"/>
<path d="M38.8691 18.5068H39.8951V19.5328H38.8691V18.5068Z" fill="white"/>
<path d="M37.8418 19.5293H38.8678V20.5553H37.8418V19.5293Z" fill="white"/>
<path d="M36.8184 19.5293H37.8444V20.5553H36.8184V19.5293Z" fill="white"/>
<path d="M35.7891 19.5293H36.8151V20.5553H35.7891V19.5293Z" fill="white"/>
<path d="M38.8691 19.5293H39.8951V20.5553H38.8691V19.5293Z" fill="white"/>
<path d="M36.8184 20.5596H37.8444V21.5856H36.8184V20.5596Z" fill="white"/>
<path d="M35.7891 20.5596H36.8151V21.5856H35.7891V20.5596Z" fill="white"/>
<path d="M38.8691 20.5596H39.8951V21.5856H38.8691V20.5596Z" fill="white"/>
<path d="M38.8691 21.584H39.8951V22.61H38.8691V21.584Z" fill="white"/>
<path d="M37.8418 20.5596H38.8678V21.5856H37.8418V20.5596Z" fill="white"/>
<path d="M35.7891 21.584H36.8151V22.61H35.7891V21.584Z" fill="white"/>
<rect x="37.8418" y="17.4795" width="1.026" height="1.026" fill="white"/>
<path d="M28.6084 30.8193H29.6344V31.8453H28.6084V30.8193Z" fill="white"/>
<path d="M27.5811 29.79H28.6071V30.816H27.5811V29.79Z" fill="white"/>
<path d="M27.5811 30.8193H28.6071V31.8453H27.5811V30.8193Z" fill="white"/>
<path d="M26.5586 30.8193H27.5846V31.8453H26.5586V30.8193Z" fill="white"/>
<path d="M29.6357 30.8193H30.6617V31.8453H29.6357V30.8193Z" fill="white"/>
<path d="M30.6592 30.8193H31.6852V31.8453H30.6592V30.8193Z" fill="white"/>
<path d="M29.6357 29.79H30.6617V30.816H29.6357V29.79Z" fill="white"/>
<path d="M28.6084 31.8428H29.6344V32.8688H28.6084V31.8428Z" fill="white"/>
<path d="M27.5811 31.8428H28.6071V32.8688H27.5811V31.8428Z" fill="white"/>
<path d="M26.5586 31.8428H27.5846V32.8688H26.5586V31.8428Z" fill="white"/>
<path d="M27.5811 32.8701H28.6071V33.8961H27.5811V32.8701Z" fill="white"/>
<path d="M26.5586 32.8701H27.5846V33.8961H26.5586V32.8701Z" fill="white"/>
<path d="M26.5586 33.8955H27.5846V34.9215H26.5586V33.8955Z" fill="white"/>
<path d="M29.6357 31.8428H30.6617V32.8688H29.6357V31.8428Z" fill="white"/>
<path d="M30.6592 31.8428H31.6852V32.8688H30.6592V31.8428Z" fill="white"/>
<rect x="28.6084" y="29.79" width="1.026" height="1.026" fill="white"/>
<path d="M56.3086 20.5596H57.3346V21.5856H56.3086V20.5596Z" fill="white"/>
<path d="M55.2852 19.5293H56.3112V20.5553H55.2852V19.5293Z" fill="white"/>
<path d="M55.2852 20.5596H56.3112V21.5856H55.2852V20.5596Z" fill="white"/>
<path d="M54.2588 20.5596H55.2848V21.5856H54.2588V20.5596Z" fill="white"/>
<path d="M57.3379 20.5596H58.3639V21.5856H57.3379V20.5596Z" fill="white"/>
<path d="M56.3086 21.584H57.3346V22.61H56.3086V21.584Z" fill="white"/>
<path d="M55.2852 21.584H56.3112V22.61H55.2852V21.584Z" fill="white"/>
<path d="M54.2588 21.584H55.2848V22.61H54.2588V21.584Z" fill="white"/>
<path d="M57.3379 21.584H58.3639V22.61H57.3379V21.584Z" fill="white"/>
<path d="M55.2852 22.6094H56.3112V23.6354H55.2852V22.6094Z" fill="white"/>
<path d="M54.2588 22.6094H55.2848V23.6354H54.2588V22.6094Z" fill="white"/>
<path d="M57.3379 22.6094H58.3639V23.6354H57.3379V22.6094Z" fill="white"/>
<path d="M57.3379 23.6367H58.3639V24.6627H57.3379V23.6367Z" fill="white"/>
<path d="M56.3086 22.6094H57.3346V23.6354H56.3086V22.6094Z" fill="white"/>
<path d="M54.2588 23.6367H55.2848V24.6627H54.2588V23.6367Z" fill="white"/>
<rect x="56.3086" y="19.5293" width="1.026" height="1.026" fill="white"/>
<path d="M56.3086 26.7129H57.3346V27.7389H56.3086V26.7129Z" fill="white"/>
<path d="M55.2852 25.6855H56.3112V26.7115H55.2852V25.6855Z" fill="white"/>
<path d="M55.2852 26.7129H56.3112V27.7389H55.2852V26.7129Z" fill="white"/>
<path d="M54.2588 26.7129H55.2848V27.7389H54.2588V26.7129Z" fill="white"/>
<path d="M57.3379 26.7129H58.3639V27.7389H57.3379V26.7129Z" fill="white"/>
<path d="M56.3086 27.7393H57.3346V28.7653H56.3086V27.7393Z" fill="white"/>
<path d="M55.2852 27.7393H56.3112V28.7653H55.2852V27.7393Z" fill="white"/>
<path d="M54.2588 27.7393H55.2848V28.7653H54.2588V27.7393Z" fill="white"/>
<path d="M54.2588 28.7656H55.2848V29.7916H54.2588V28.7656Z" fill="white"/>
<path d="M57.3379 28.7656H58.3639V29.7916H57.3379V28.7656Z" fill="white"/>
<path d="M57.3379 27.7393H58.3639V28.7653H57.3379V27.7393Z" fill="white"/>
<rect x="56.3086" y="25.6855" width="1.026" height="1.026" fill="white"/>
<path d="M56.3086 31.8428H57.3346V32.8688H56.3086V31.8428Z" fill="white"/>
<path d="M55.2852 30.8193H56.3112V31.8453H55.2852V30.8193Z" fill="white"/>
<path d="M55.2852 31.8428H56.3112V32.8688H55.2852V31.8428Z" fill="white"/>
<path d="M54.2588 31.8428H55.2848V32.8688H54.2588V31.8428Z" fill="white"/>
<path d="M57.3379 31.8428H58.3639V32.8688H57.3379V31.8428Z" fill="white"/>
<path d="M56.3086 32.8701H57.3346V33.8961H56.3086V32.8701Z" fill="white"/>
<path d="M55.2852 32.8701H56.3112V33.8961H55.2852V32.8701Z" fill="white"/>
<path d="M54.2588 32.8701H55.2848V33.8961H54.2588V32.8701Z" fill="white"/>
<path d="M57.3379 32.8701H58.3639V33.8961H57.3379V32.8701Z" fill="white"/>
<rect x="56.3086" y="30.8193" width="1.026" height="1.026" fill="white"/>
<path d="M50.1553 24.6631H51.1813V25.6891H50.1553V24.6631Z" fill="white"/>
<path d="M49.1289 23.6367H50.1549V24.6627H49.1289V23.6367Z" fill="white"/>
<path d="M49.1289 24.6631H50.1549V25.6891H49.1289V24.6631Z" fill="white"/>
<path d="M48.1016 24.6631H49.1276V25.6891H48.1016V24.6631Z" fill="white"/>
<path d="M51.1787 24.6631H52.2047V25.6891H51.1787V24.6631Z" fill="white"/>
<path d="M50.1553 25.6855H51.1813V26.7115H50.1553V25.6855Z" fill="white"/>
<path d="M49.1289 25.6855H50.1549V26.7115H49.1289V25.6855Z" fill="white"/>
<path d="M48.1016 25.6855H49.1276V26.7115H48.1016V25.6855Z" fill="white"/>
<path d="M51.1787 25.6855H52.2047V26.7115H51.1787V25.6855Z" fill="white"/>
<path d="M50.1553 26.7129H51.1813V27.7389H50.1553V26.7129Z" fill="white"/>
<path d="M49.1289 26.7129H50.1549V27.7389H49.1289V26.7129Z" fill="white"/>
<path d="M48.1016 26.7129H49.1276V27.7389H48.1016V26.7129Z" fill="white"/>
<path d="M48.1016 27.7393H49.1276V28.7653H48.1016V27.7393Z" fill="white"/>
<path d="M51.1787 27.7393H52.2047V28.7653H51.1787V27.7393Z" fill="white"/>
<path d="M51.1787 26.7129H52.2047V27.7389H51.1787V26.7129Z" fill="white"/>
<rect x="50.1553" y="23.6367" width="1.02599" height="1.026" fill="white"/>
<path d="M50.1553 30.8193H51.1813V31.8453H50.1553V30.8193Z" fill="white"/>
<path d="M49.1289 29.79H50.1549V30.816H49.1289V29.79Z" fill="white"/>
<path d="M49.1289 30.8193H50.1549V31.8453H49.1289V30.8193Z" fill="white"/>
<path d="M48.1016 30.8193H49.1276V31.8453H48.1016V30.8193Z" fill="white"/>
<path d="M51.1787 30.8193H52.2047V31.8453H51.1787V30.8193Z" fill="white"/>
<path d="M50.1553 31.8428H51.1813V32.8688H50.1553V31.8428Z" fill="white"/>
<path d="M49.1289 31.8428H50.1549V32.8688H49.1289V31.8428Z" fill="white"/>
<path d="M48.1016 31.8428H49.1276V32.8688H48.1016V31.8428Z" fill="white"/>
<path d="M51.1787 31.8428H52.2047V32.8688H51.1787V31.8428Z" fill="white"/>
<path d="M50.1553 32.8701H51.1813V33.8961H50.1553V32.8701Z" fill="white"/>
<path d="M49.1289 32.8701H50.1549V33.8961H49.1289V32.8701Z" fill="white"/>
<path d="M48.1016 32.8701H49.1276V33.8961H48.1016V32.8701Z" fill="white"/>
<path d="M51.1787 32.8701H52.2047V33.8961H51.1787V32.8701Z" fill="white"/>
<rect x="50.1553" y="29.79" width="1.02599" height="1.026" fill="white"/>
<path d="M43.999 22.6094H45.025V23.6354H43.999V22.6094Z" fill="white"/>
<path d="M42.9717 21.584H43.9977V22.61H42.9717V21.584Z" fill="white"/>
<path d="M42.9717 22.6094H43.9977V23.6354H42.9717V22.6094Z" fill="white"/>
<path d="M41.9482 22.6094H42.9742V23.6354H41.9482V22.6094Z" fill="white"/>
<path d="M45.0254 22.6094H46.0514V23.6354H45.0254V22.6094Z" fill="white"/>
<path d="M43.999 23.6367H45.025V24.6627H43.999V23.6367Z" fill="white"/>
<path d="M42.9717 23.6367H43.9977V24.6627H42.9717V23.6367Z" fill="white"/>
<path d="M41.9482 23.6367H42.9742V24.6627H41.9482V23.6367Z" fill="white"/>
<path d="M45.0254 23.6367H46.0514V24.6627H45.0254V23.6367Z" fill="white"/>
<path d="M43.999 24.6631H45.025V25.6891H43.999V24.6631Z" fill="white"/>
<path d="M42.9717 24.6631H43.9977V25.6891H42.9717V24.6631Z" fill="white"/>
<path d="M41.9482 24.6631H42.9742V25.6891H41.9482V24.6631Z" fill="white"/>
<path d="M41.9482 25.6855H42.9742V26.7115H41.9482V25.6855Z" fill="white"/>
<path d="M45.0254 25.6855H46.0514V26.7115H45.0254V25.6855Z" fill="white"/>
<path d="M45.0254 24.6631H46.0514V25.6891H45.0254V24.6631Z" fill="white"/>
<rect x="43.999" y="21.584" width="1.026" height="1.026" fill="white"/>
<path d="M37.8418 24.6631H38.8678V25.6891H37.8418V24.6631Z" fill="white"/>
<path d="M36.8184 23.6367H37.8444V24.6627H36.8184V23.6367Z" fill="white"/>
<path d="M36.8184 24.6631H37.8444V25.6891H36.8184V24.6631Z" fill="white"/>
<path d="M35.7891 24.6631H36.8151V25.6891H35.7891V24.6631Z" fill="white"/>
<path d="M38.8691 24.6631H39.8951V25.6891H38.8691V24.6631Z" fill="white"/>
<path d="M37.8418 25.6855H38.8678V26.7115H37.8418V25.6855Z" fill="white"/>
<path d="M36.8184 25.6855H37.8444V26.7115H36.8184V25.6855Z" fill="white"/>
<path d="M35.7891 25.6855H36.8151V26.7115H35.7891V25.6855Z" fill="white"/>
<path d="M38.8691 25.6855H39.8951V26.7115H38.8691V25.6855Z" fill="white"/>
<path d="M37.8418 26.7129H38.8678V27.7389H37.8418V26.7129Z" fill="white"/>
<path d="M36.8184 26.7129H37.8444V27.7389H36.8184V26.7129Z" fill="white"/>
<path d="M35.7891 26.7129H36.8151V27.7389H35.7891V26.7129Z" fill="white"/>
<path d="M35.7891 27.7393H36.8151V28.7653H35.7891V27.7393Z" fill="white"/>
<path d="M38.8691 27.7393H39.8951V28.7653H38.8691V27.7393Z" fill="white"/>
<path d="M38.8691 26.7129H39.8951V27.7389H38.8691V26.7129Z" fill="white"/>
<rect x="37.8418" y="23.6367" width="1.026" height="1.026" fill="white"/>
<path d="M37.8418 30.8193H38.8678V31.8453H37.8418V30.8193Z" fill="white"/>
<path d="M36.8184 29.79H37.8444V30.816H36.8184V29.79Z" fill="white"/>
<path d="M36.8184 30.8193H37.8444V31.8453H36.8184V30.8193Z" fill="white"/>
<path d="M35.7891 30.8193H36.8151V31.8453H35.7891V30.8193Z" fill="white"/>
<path d="M38.8691 30.8193H39.8951V31.8453H38.8691V30.8193Z" fill="white"/>
<path d="M37.8418 31.8428H38.8678V32.8688H37.8418V31.8428Z" fill="white"/>
<path d="M36.8184 31.8428H37.8444V32.8688H36.8184V31.8428Z" fill="white"/>
<path d="M35.7891 31.8428H36.8151V32.8688H35.7891V31.8428Z" fill="white"/>
<path d="M38.8691 31.8428H39.8951V32.8688H38.8691V31.8428Z" fill="white"/>
<path d="M39.8955 35.9492H40.9215V36.9752H39.8955V35.9492Z" fill="white"/>
<path d="M40.9189 35.9492H41.945V36.9752H40.9189V35.9492Z" fill="white"/>
<path d="M39.8955 36.9727H40.9215V37.9987H39.8955V36.9727Z" fill="white"/>
<path d="M40.9189 36.9727H41.945V37.9987H40.9189V36.9727Z" fill="white"/>
<path d="M37.8418 32.8701H38.8678V33.8961H37.8418V32.8701Z" fill="white"/>
<path d="M36.8184 32.8701H37.8444V33.8961H36.8184V32.8701Z" fill="white"/>
<path d="M35.7891 32.8701H36.8151V33.8961H35.7891V32.8701Z" fill="white"/>
<path d="M38.8691 32.8701H39.8951V33.8961H38.8691V32.8701Z" fill="white"/>
<path d="M37.8418 33.8955H38.8678V34.9215H37.8418V33.8955Z" fill="white"/>
<path d="M36.8184 33.8955H37.8444V34.9215H36.8184V33.8955Z" fill="white"/>
<path d="M35.7891 33.8955H36.8151V34.9215H35.7891V33.8955Z" fill="white"/>
<path d="M35.7891 34.9199H36.8151V35.9459H35.7891V34.9199Z" fill="white"/>
<path d="M35.7891 35.9492H36.8151V36.9752H35.7891V35.9492Z" fill="white"/>
<path d="M38.8691 33.8955H39.8951V34.9215H38.8691V33.8955Z" fill="white"/>
<path d="M37.8418 36.9727H38.8678V37.9987H37.8418V36.9727Z" fill="white"/>
<path d="M36.8184 36.9727H37.8444V37.9987H36.8184V36.9727Z" fill="white"/>
<path d="M35.7891 36.9727H36.8151V37.9987H35.7891V36.9727Z" fill="white"/>
<path d="M38.8691 36.9727H39.8951V37.9987H38.8691V36.9727Z" fill="white"/>
<path d="M38.8691 34.9199H39.8951V35.9459H38.8691V34.9199Z" fill="white"/>
<path d="M38.8691 35.9492H39.8951V36.9752H38.8691V35.9492Z" fill="white"/>
<path d="M41.9482 35.9492H42.9742V36.9752H41.9482V35.9492Z" fill="white"/>
<path d="M43.999 36.9727H45.025V37.9987H43.999V36.9727Z" fill="white"/>
<path d="M42.9717 36.9727H43.9977V37.9987H42.9717V36.9727Z" fill="white"/>
<path d="M41.9482 36.9727H42.9742V37.9987H41.9482V36.9727Z" fill="white"/>
<path d="M45.0254 36.9727H46.0514V37.9987H45.0254V36.9727Z" fill="white"/>
<path d="M45.0254 35.9492H46.0514V36.9752H45.0254V35.9492Z" fill="white"/>
<rect x="37.8418" y="29.79" width="1.026" height="1.026" fill="white"/>
<path d="M39.8955 33.8955H40.9215V34.9215H39.8955V33.8955Z" fill="white"/>
<rect x="40.9189" y="33.8955" width="1.026" height="1.026" fill="white"/>
<path d="M39.8955 34.9199H40.9215V35.9459H39.8955V34.9199Z" fill="white"/>
<rect x="40.9189" y="34.9199" width="1.026" height="1.026" fill="white"/>
<path d="M46.0488 35.9492H47.0748V36.9752H46.0488V35.9492Z" fill="white"/>
<path d="M47.0781 35.9492H48.1041V36.9752H47.0781V35.9492Z" fill="white"/>
<path d="M46.0488 36.9727H47.0748V37.9987H46.0488V36.9727Z" fill="white"/>
<path d="M47.0781 36.9727H48.1041V37.9987H47.0781V36.9727Z" fill="white"/>
<path d="M46.0488 33.8955H47.0748V34.9215H46.0488V33.8955Z" fill="white"/>
<rect x="47.0781" y="33.8955" width="1.026" height="1.026" fill="white"/>
<path d="M46.0488 34.9199H47.0748V35.9459H46.0488V34.9199Z" fill="white"/>
<rect x="47.0781" y="34.9199" width="1.026" height="1.026" fill="white"/>
<path d="M52.208 35.9492H53.234V36.9752H52.208V35.9492Z" fill="white"/>
<path d="M53.2314 35.9492H54.2574V36.9752H53.2314V35.9492Z" fill="white"/>
<path d="M52.208 36.9727H53.234V37.9987H52.208V36.9727Z" fill="white"/>
<path d="M53.2314 36.9727H54.2574V37.9987H53.2314V36.9727Z" fill="white"/>
<path d="M52.208 33.8955H53.234V34.9215H52.208V33.8955Z" fill="white"/>
<rect x="53.2314" y="33.8955" width="1.026" height="1.026" fill="white"/>
<path d="M52.208 34.9199H53.234V35.9459H52.208V34.9199Z" fill="white"/>
<rect x="53.2314" y="34.9199" width="1.026" height="1.026" fill="white"/>
<path d="M43.999 28.7656H45.025V29.7916H43.999V28.7656Z" fill="white"/>
<path d="M42.9717 27.7393H43.9977V28.7653H42.9717V27.7393Z" fill="white"/>
<path d="M42.9717 28.7656H43.9977V29.7916H42.9717V28.7656Z" fill="white"/>
<path d="M41.9482 28.7656H42.9742V29.7916H41.9482V28.7656Z" fill="white"/>
<path d="M45.0254 28.7656H46.0514V29.7916H45.0254V28.7656Z" fill="white"/>
<path d="M43.999 29.79H45.025V30.816H43.999V29.79Z" fill="white"/>
<path d="M42.9717 29.79H43.9977V30.816H42.9717V29.79Z" fill="white"/>
<path d="M41.9482 29.79H42.9742V30.816H41.9482V29.79Z" fill="white"/>
<path d="M45.0254 29.79H46.0514V30.816H45.0254V29.79Z" fill="white"/>
<path d="M43.999 30.8193H45.025V31.8453H43.999V30.8193Z" fill="white"/>
<path d="M42.9717 30.8193H43.9977V31.8453H42.9717V30.8193Z" fill="white"/>
<path d="M41.9482 30.8193H42.9742V31.8453H41.9482V30.8193Z" fill="white"/>
<path d="M45.0254 30.8193H46.0514V31.8453H45.0254V30.8193Z" fill="white"/>
<path d="M43.999 31.8428H45.025V32.8688H43.999V31.8428Z" fill="white"/>
<path d="M42.9717 31.8428H43.9977V32.8688H42.9717V31.8428Z" fill="white"/>
<path d="M41.9482 31.8428H42.9742V32.8688H41.9482V31.8428Z" fill="white"/>
<path d="M45.0254 31.8428H46.0514V32.8688H45.0254V31.8428Z" fill="white"/>
<path d="M43.999 32.8701H45.025V33.8961H43.999V32.8701Z" fill="white"/>
<path d="M42.9717 32.8701H43.9977V33.8961H42.9717V32.8701Z" fill="white"/>
<path d="M41.9482 32.8701H42.9742V33.8961H41.9482V32.8701Z" fill="white"/>
<path d="M45.0254 32.8701H46.0514V33.8961H45.0254V32.8701Z" fill="white"/>
<path d="M43.999 33.8955H45.025V34.9215H43.999V33.8955Z" fill="white"/>
<path d="M42.9717 33.8955H43.9977V34.9215H42.9717V33.8955Z" fill="white"/>
<path d="M41.9482 33.8955H42.9742V34.9215H41.9482V33.8955Z" fill="white"/>
<path d="M41.9482 34.9199H42.9742V35.9459H41.9482V34.9199Z" fill="white"/>
<path d="M45.0254 34.9199H46.0514V35.9459H45.0254V34.9199Z" fill="white"/>
<path d="M45.0254 33.8955H46.0514V34.9215H45.0254V33.8955Z" fill="white"/>
<path d="M48.1016 35.9492H49.1276V36.9752H48.1016V35.9492Z" fill="white"/>
<path d="M50.1553 36.9727H51.1813V37.9987H50.1553V36.9727Z" fill="white"/>
<path d="M49.1289 36.9727H50.1549V37.9987H49.1289V36.9727Z" fill="white"/>
<path d="M48.1016 36.9727H49.1276V37.9987H48.1016V36.9727Z" fill="white"/>
<path d="M51.1787 36.9727H52.2047V37.9987H51.1787V36.9727Z" fill="white"/>
<path d="M51.1787 35.9492H52.2047V36.9752H51.1787V35.9492Z" fill="white"/>
<path d="M50.1553 33.8955H51.1813V34.9215H50.1553V33.8955Z" fill="white"/>
<path d="M49.1289 33.8955H50.1549V34.9215H49.1289V33.8955Z" fill="white"/>
<path d="M48.1016 33.8955H49.1276V34.9215H48.1016V33.8955Z" fill="white"/>
<path d="M48.1016 34.9199H49.1276V35.9459H48.1016V34.9199Z" fill="white"/>
<path d="M51.1787 34.9199H52.2047V35.9459H51.1787V34.9199Z" fill="white"/>
<path d="M51.1787 33.8955H52.2047V34.9215H51.1787V33.8955Z" fill="white"/>
<path d="M54.2588 35.9492H55.2848V36.9752H54.2588V35.9492Z" fill="white"/>
<path d="M56.3086 36.9727H57.3346V37.9987H56.3086V36.9727Z" fill="white"/>
<path d="M55.2852 36.9727H56.3112V37.9987H55.2852V36.9727Z" fill="white"/>
<path d="M54.2588 36.9727H55.2848V37.9987H54.2588V36.9727Z" fill="white"/>
<path d="M57.3379 36.9727H58.3639V37.9987H57.3379V36.9727Z" fill="white"/>
<path d="M39.8955 38H40.9215V39.026H39.8955V38Z" fill="white"/>
<path d="M40.9189 38H41.945V39.026H40.9189V38Z" fill="white"/>
<path d="M37.8418 38H38.8678V39.026H37.8418V38Z" fill="white"/>
<path d="M36.8184 38H37.8444V39.026H36.8184V38Z" fill="white"/>
<path d="M35.7891 38H36.8151V39.026H35.7891V38Z" fill="white"/>
<path d="M38.8691 38H39.8951V39.026H38.8691V38Z" fill="white"/>
<path d="M43.999 38H45.025V39.026H43.999V38Z" fill="white"/>
<path d="M42.9717 38H43.9977V39.026H42.9717V38Z" fill="white"/>
<path d="M41.9482 38H42.9742V39.026H41.9482V38Z" fill="white"/>
<path d="M45.0254 38H46.0514V39.026H45.0254V38Z" fill="white"/>
<path d="M46.0488 38H47.0748V39.026H46.0488V38Z" fill="white"/>
<path d="M47.0781 38H48.1041V39.026H47.0781V38Z" fill="white"/>
<path d="M52.208 38H53.234V39.026H52.208V38Z" fill="white"/>
<path d="M53.2314 38H54.2574V39.026H53.2314V38Z" fill="white"/>
<path d="M50.1553 38H51.1813V39.026H50.1553V38Z" fill="white"/>
<path d="M49.1289 38H50.1549V39.026H49.1289V38Z" fill="white"/>
<path d="M48.1016 38H49.1276V39.026H48.1016V38Z" fill="white"/>
<path d="M51.1787 38H52.2047V39.026H51.1787V38Z" fill="white"/>
<path d="M56.3086 38H57.3346V39.026H56.3086V38Z" fill="white"/>
<path d="M55.2852 38H56.3112V39.026H55.2852V38Z" fill="white"/>
<path d="M54.2588 38H55.2848V39.026H54.2588V38Z" fill="white"/>
<path d="M57.3379 38H58.3639V39.026H57.3379V38Z" fill="white"/>
<path d="M39.8955 39.0264H40.9215V40.0524H39.8955V39.0264Z" fill="white"/>
<path d="M40.9189 39.0264H41.945V40.0524H40.9189V39.0264Z" fill="white"/>
<path d="M37.8418 39.0264H38.8678V40.0524H37.8418V39.0264Z" fill="white"/>
<path d="M36.8184 39.0264H37.8444V40.0524H36.8184V39.0264Z" fill="white"/>
<path d="M35.7891 39.0264H36.8151V40.0524H35.7891V39.0264Z" fill="white"/>
<path d="M33.7383 40.0498H34.7643V41.0758H33.7383V40.0498Z" fill="white"/>
<path d="M34.7656 40.0498H35.7916V41.0758H34.7656V40.0498Z" fill="white"/>
<path d="M28.6084 39.0264H29.6344V40.0524H28.6084V39.0264Z" fill="white"/>
<path d="M28.6084 38H29.6344V39.026H28.6084V38Z" fill="white"/>
<path d="M29.6357 38H30.6617V39.026H29.6357V38Z" fill="white"/>
<path d="M28.6084 36.9727H29.6344V37.9987H28.6084V36.9727Z" fill="white"/>
<path d="M28.6084 35.9492H29.6344V36.9752H28.6084V35.9492Z" fill="white"/>
<path d="M30.6592 36.9727H31.6852V37.9987H30.6592V36.9727Z" fill="white"/>
<path d="M31.6885 36.9727H32.7145V37.9987H31.6885V36.9727Z" fill="white"/>
<path d="M32.7119 35.9492H33.7379V36.9752H32.7119V35.9492Z" fill="white"/>
<path d="M32.7119 36.9727H33.7379V37.9987H32.7119V36.9727Z" fill="white"/>
<path d="M33.7383 36.9727H34.7643V37.9987H33.7383V36.9727Z" fill="white"/>
<path d="M29.6357 36.9727H30.6617V37.9987H29.6357V36.9727Z" fill="white"/>
<path d="M29.6357 35.9492H30.6617V36.9752H29.6357V35.9492Z" fill="white"/>
<path d="M30.6592 35.9492H31.6852V36.9752H30.6592V35.9492Z" fill="white"/>
<path d="M31.6885 35.9492H32.7145V36.9752H31.6885V35.9492Z" fill="white"/>
<path d="M29.6357 34.9199H30.6617V35.9459H29.6357V34.9199Z" fill="white"/>
<path d="M30.6592 34.9199H31.6852V35.9459H30.6592V34.9199Z" fill="white"/>
<path d="M31.6885 34.9199H32.7145V35.9459H31.6885V34.9199Z" fill="white"/>
<path d="M33.7383 39.0264H34.7643V40.0524H33.7383V39.0264Z" fill="white"/>
<path d="M32.7119 39.0264H33.7379V40.0524H32.7119V39.0264Z" fill="white"/>
<path d="M34.7656 48.2598H35.7916V49.2858H34.7656V48.2598Z" fill="white"/>
<path d="M33.7383 47.2334H34.7643V48.2594H33.7383V47.2334Z" fill="white"/>
<path d="M32.7119 46.209H33.7379V47.235H32.7119V46.209Z" fill="white"/>
<path d="M31.6885 45.1797H32.7145V46.2057H31.6885V45.1797Z" fill="white"/>
<path d="M31.6885 44.1562H32.7145V45.1822H31.6885V44.1562Z" fill="white"/>
<path d="M30.6592 42.1035H31.6852V43.1295H30.6592V42.1035Z" fill="white"/>
<path d="M30.6592 41.0791H31.6852V42.1051H30.6592V41.0791Z" fill="white"/>
<path d="M31.6885 40.0498H32.7145V41.0758H31.6885V40.0498Z" fill="white"/>
<path d="M31.6885 41.0791H32.7145V42.1051H31.6885V41.0791Z" fill="white"/>
<path d="M30.6592 43.1299H31.6852V44.1559H30.6592V43.1299Z" fill="white"/>
<path d="M31.6885 42.1035H32.7145V43.1295H31.6885V42.1035Z" fill="white"/>
<path d="M31.6885 43.1299H32.7145V44.1559H31.6885V43.1299Z" fill="white"/>
<path d="M32.7119 45.1797H33.7379V46.2057H32.7119V45.1797Z" fill="white"/>
<path d="M32.7119 44.1562H33.7379V45.1822H32.7119V44.1562Z" fill="white"/>
<path d="M32.7119 40.0498H33.7379V41.0758H32.7119V40.0498Z" fill="white"/>
<path d="M32.7119 41.0791H33.7379V42.1051H32.7119V41.0791Z" fill="white"/>
<path d="M32.7119 42.1035H33.7379V43.1295H32.7119V42.1035Z" fill="white"/>
<path d="M32.7119 43.1299H33.7379V44.1559H32.7119V43.1299Z" fill="white"/>
<path d="M38.8691 39.0264H39.8951V40.0524H38.8691V39.0264Z" fill="white"/>
<path d="M43.999 39.0264H45.025V40.0524H43.999V39.0264Z" fill="white"/>
<path d="M42.9717 39.0264H43.9977V40.0524H42.9717V39.0264Z" fill="white"/>
<path d="M41.9482 39.0264H42.9742V40.0524H41.9482V39.0264Z" fill="white"/>
<path d="M45.0254 39.0264H46.0514V40.0524H45.0254V39.0264Z" fill="white"/>
<path d="M46.0488 39.0264H47.0748V40.0524H46.0488V39.0264Z" fill="white"/>
<path d="M47.0781 39.0264H48.1041V40.0524H47.0781V39.0264Z" fill="white"/>
<path d="M52.208 39.0264H53.234V40.0524H52.208V39.0264Z" fill="white"/>
<path d="M53.2314 39.0264H54.2574V40.0524H53.2314V39.0264Z" fill="white"/>
<path d="M50.1553 39.0264H51.1813V40.0524H50.1553V39.0264Z" fill="white"/>
<path d="M49.1289 39.0264H50.1549V40.0524H49.1289V39.0264Z" fill="white"/>
<path d="M48.1016 39.0264H49.1276V40.0524H48.1016V39.0264Z" fill="white"/>
<path d="M51.1787 39.0264H52.2047V40.0524H51.1787V39.0264Z" fill="white"/>
<path d="M56.3086 39.0264H57.3346V40.0524H56.3086V39.0264Z" fill="white"/>
<path d="M55.2852 39.0264H56.3112V40.0524H55.2852V39.0264Z" fill="white"/>
<path d="M54.2588 39.0264H55.2848V40.0524H54.2588V39.0264Z" fill="white"/>
<path d="M57.3379 39.0264H58.3639V40.0524H57.3379V39.0264Z" fill="white"/>
<path d="M39.8955 40.0498H40.9215V41.0758H39.8955V40.0498Z" fill="white"/>
<path d="M40.9189 40.0498H41.945V41.0758H40.9189V40.0498Z" fill="white"/>
<path d="M37.8418 40.0498H38.8678V41.0758H37.8418V40.0498Z" fill="white"/>
<path d="M36.8184 40.0498H37.8444V41.0758H36.8184V40.0498Z" fill="white"/>
<path d="M35.7891 40.0498H36.8151V41.0758H35.7891V40.0498Z" fill="white"/>
<path d="M38.8691 40.0498H39.8951V41.0758H38.8691V40.0498Z" fill="white"/>
<path d="M43.999 40.0498H45.025V41.0758H43.999V40.0498Z" fill="white"/>
<path d="M42.9717 40.0498H43.9977V41.0758H42.9717V40.0498Z" fill="white"/>
<path d="M41.9482 40.0498H42.9742V41.0758H41.9482V40.0498Z" fill="white"/>
<path d="M45.0254 40.0498H46.0514V41.0758H45.0254V40.0498Z" fill="white"/>
<path d="M46.0488 40.0498H47.0748V41.0758H46.0488V40.0498Z" fill="white"/>
<path d="M47.0781 40.0498H48.1041V41.0758H47.0781V40.0498Z" fill="white"/>
<path d="M52.208 40.0498H53.234V41.0758H52.208V40.0498Z" fill="white"/>
<path d="M53.2314 40.0498H54.2574V41.0758H53.2314V40.0498Z" fill="white"/>
<path d="M50.1553 40.0498H51.1813V41.0758H50.1553V40.0498Z" fill="white"/>
<path d="M49.1289 40.0498H50.1549V41.0758H49.1289V40.0498Z" fill="white"/>
<path d="M48.1016 40.0498H49.1276V41.0758H48.1016V40.0498Z" fill="white"/>
<path d="M51.1787 40.0498H52.2047V41.0758H51.1787V40.0498Z" fill="white"/>
<path d="M56.3086 40.0498H57.3346V41.0758H56.3086V40.0498Z" fill="white"/>
<path d="M55.2852 40.0498H56.3112V41.0758H55.2852V40.0498Z" fill="white"/>
<path d="M54.2588 40.0498H55.2848V41.0758H54.2588V40.0498Z" fill="white"/>
<path d="M57.3379 40.0498H58.3639V41.0758H57.3379V40.0498Z" fill="white"/>
<path d="M39.8955 41.0791H40.9215V42.1051H39.8955V41.0791Z" fill="white"/>
<path d="M40.9189 41.0791H41.945V42.1051H40.9189V41.0791Z" fill="white"/>
<path d="M37.8418 41.0791H38.8678V42.1051H37.8418V41.0791Z" fill="white"/>
<path d="M36.8184 41.0791H37.8444V42.1051H36.8184V41.0791Z" fill="white"/>
<path d="M35.7891 41.0791H36.8151V42.1051H35.7891V41.0791Z" fill="white"/>
<path d="M38.8691 41.0791H39.8951V42.1051H38.8691V41.0791Z" fill="white"/>
<path d="M43.999 41.0791H45.025V42.1051H43.999V41.0791Z" fill="white"/>
<path d="M42.9717 41.0791H43.9977V42.1051H42.9717V41.0791Z" fill="white"/>
<path d="M41.9482 41.0791H42.9742V42.1051H41.9482V41.0791Z" fill="white"/>
<path d="M45.0254 41.0791H46.0514V42.1051H45.0254V41.0791Z" fill="white"/>
<path d="M46.0488 41.0791H47.0748V42.1051H46.0488V41.0791Z" fill="white"/>
<path d="M47.0781 41.0791H48.1041V42.1051H47.0781V41.0791Z" fill="white"/>
<path d="M52.208 41.0791H53.234V42.1051H52.208V41.0791Z" fill="white"/>
<path d="M53.2314 41.0791H54.2574V42.1051H53.2314V41.0791Z" fill="white"/>
<path d="M50.1553 41.0791H51.1813V42.1051H50.1553V41.0791Z" fill="white"/>
<path d="M49.1289 41.0791H50.1549V42.1051H49.1289V41.0791Z" fill="white"/>
<path d="M48.1016 41.0791H49.1276V42.1051H48.1016V41.0791Z" fill="white"/>
<path d="M51.1787 41.0791H52.2047V42.1051H51.1787V41.0791Z" fill="white"/>
<path d="M56.3086 41.0791H57.3346V42.1051H56.3086V41.0791Z" fill="white"/>
<path d="M55.2852 41.0791H56.3112V42.1051H55.2852V41.0791Z" fill="white"/>
<path d="M54.2588 41.0791H55.2848V42.1051H54.2588V41.0791Z" fill="white"/>
<path d="M57.3379 41.0791H58.3639V42.1051H57.3379V41.0791Z" fill="white"/>
<path d="M39.8955 42.1035H40.9215V43.1295H39.8955V42.1035Z" fill="white"/>
<path d="M40.9189 42.1035H41.945V43.1295H40.9189V42.1035Z" fill="white"/>
<path d="M37.8418 42.1035H38.8678V43.1295H37.8418V42.1035Z" fill="white"/>
<path d="M36.8184 42.1035H37.8444V43.1295H36.8184V42.1035Z" fill="white"/>
<path d="M35.7891 42.1035H36.8151V43.1295H35.7891V42.1035Z" fill="white"/>
<path d="M38.8691 42.1035H39.8951V43.1295H38.8691V42.1035Z" fill="white"/>
<path d="M43.999 42.1035H45.025V43.1295H43.999V42.1035Z" fill="white"/>
<path d="M42.9717 42.1035H43.9977V43.1295H42.9717V42.1035Z" fill="white"/>
<path d="M41.9482 42.1035H42.9742V43.1295H41.9482V42.1035Z" fill="white"/>
<path d="M45.0254 42.1035H46.0514V43.1295H45.0254V42.1035Z" fill="white"/>
<path d="M46.0488 42.1035H47.0748V43.1295H46.0488V42.1035Z" fill="white"/>
<path d="M47.0781 42.1035H48.1041V43.1295H47.0781V42.1035Z" fill="white"/>
<path d="M52.208 42.1035H53.234V43.1295H52.208V42.1035Z" fill="white"/>
<path d="M53.2314 42.1035H54.2574V43.1295H53.2314V42.1035Z" fill="white"/>
<path d="M50.1553 42.1035H51.1813V43.1295H50.1553V42.1035Z" fill="white"/>
<path d="M49.1289 42.1035H50.1549V43.1295H49.1289V42.1035Z" fill="white"/>
<path d="M48.1016 42.1035H49.1276V43.1295H48.1016V42.1035Z" fill="white"/>
<path d="M51.1787 42.1035H52.2047V43.1295H51.1787V42.1035Z" fill="white"/>
<path d="M56.3086 42.1035H57.3346V43.1295H56.3086V42.1035Z" fill="white"/>
<path d="M55.2852 42.1035H56.3112V43.1295H55.2852V42.1035Z" fill="white"/>
<path d="M54.2588 42.1035H55.2848V43.1295H54.2588V42.1035Z" fill="white"/>
<path d="M57.3379 42.1035H58.3639V43.1295H57.3379V42.1035Z" fill="white"/>
<path d="M39.8955 43.1299H40.9215V44.1559H39.8955V43.1299Z" fill="white"/>
<path d="M40.9189 43.1299H41.945V44.1559H40.9189V43.1299Z" fill="white"/>
<path d="M37.8418 43.1299H38.8678V44.1559H37.8418V43.1299Z" fill="white"/>
<path d="M36.8184 43.1299H37.8444V44.1559H36.8184V43.1299Z" fill="white"/>
<path d="M35.7891 43.1299H36.8151V44.1559H35.7891V43.1299Z" fill="white"/>
<path d="M38.8691 43.1299H39.8951V44.1559H38.8691V43.1299Z" fill="white"/>
<path d="M43.999 43.1299H45.025V44.1559H43.999V43.1299Z" fill="white"/>
<path d="M42.9717 43.1299H43.9977V44.1559H42.9717V43.1299Z" fill="white"/>
<path d="M41.9482 43.1299H42.9742V44.1559H41.9482V43.1299Z" fill="white"/>
<path d="M45.0254 43.1299H46.0514V44.1559H45.0254V43.1299Z" fill="white"/>
<path d="M46.0488 43.1299H47.0748V44.1559H46.0488V43.1299Z" fill="white"/>
<path d="M47.0781 43.1299H48.1041V44.1559H47.0781V43.1299Z" fill="white"/>
<path d="M52.208 43.1299H53.234V44.1559H52.208V43.1299Z" fill="white"/>
<path d="M53.2314 43.1299H54.2574V44.1559H53.2314V43.1299Z" fill="white"/>
<path d="M50.1553 43.1299H51.1813V44.1559H50.1553V43.1299Z" fill="white"/>
<path d="M49.1289 43.1299H50.1549V44.1559H49.1289V43.1299Z" fill="white"/>
<path d="M48.1016 43.1299H49.1276V44.1559H48.1016V43.1299Z" fill="white"/>
<path d="M51.1787 43.1299H52.2047V44.1559H51.1787V43.1299Z" fill="white"/>
<path d="M56.3086 43.1299H57.3346V44.1559H56.3086V43.1299Z" fill="white"/>
<path d="M55.2852 43.1299H56.3112V44.1559H55.2852V43.1299Z" fill="white"/>
<path d="M54.2588 43.1299H55.2848V44.1559H54.2588V43.1299Z" fill="white"/>
<path d="M57.3379 43.1299H58.3639V44.1559H57.3379V43.1299Z" fill="white"/>
<path d="M39.8955 44.1562H40.9215V45.1822H39.8955V44.1562Z" fill="white"/>
<path d="M40.9189 44.1562H41.945V45.1822H40.9189V44.1562Z" fill="white"/>
<path d="M37.8418 44.1562H38.8678V45.1822H37.8418V44.1562Z" fill="white"/>
<path d="M36.8184 44.1562H37.8444V45.1822H36.8184V44.1562Z" fill="white"/>
<path d="M35.7891 44.1562H36.8151V45.1822H35.7891V44.1562Z" fill="white"/>
<path d="M34.7656 41.0791H35.7916V42.1051H34.7656V41.0791Z" fill="white"/>
<path d="M33.7383 41.0791H34.7643V42.1051H33.7383V41.0791Z" fill="white"/>
<path d="M34.7656 42.1035H35.7916V43.1295H34.7656V42.1035Z" fill="white"/>
<path d="M33.7383 42.1035H34.7643V43.1295H33.7383V42.1035Z" fill="white"/>
<path d="M34.7656 43.1299H35.7916V44.1559H34.7656V43.1299Z" fill="white"/>
<path d="M33.7383 43.1299H34.7643V44.1559H33.7383V43.1299Z" fill="white"/>
<path d="M34.7656 44.1562H35.7916V45.1822H34.7656V44.1562Z" fill="white"/>
<path d="M33.7383 44.1562H34.7643V45.1822H33.7383V44.1562Z" fill="white"/>
<path d="M38.8691 44.1562H39.8951V45.1822H38.8691V44.1562Z" fill="white"/>
<path d="M43.999 44.1562H45.025V45.1822H43.999V44.1562Z" fill="white"/>
<path d="M42.9717 44.1562H43.9977V45.1822H42.9717V44.1562Z" fill="white"/>
<path d="M41.9482 44.1562H42.9742V45.1822H41.9482V44.1562Z" fill="white"/>
<path d="M45.0254 44.1562H46.0514V45.1822H45.0254V44.1562Z" fill="white"/>
<path d="M46.0488 44.1562H47.0748V45.1822H46.0488V44.1562Z" fill="white"/>
<path d="M47.0781 44.1562H48.1041V45.1822H47.0781V44.1562Z" fill="white"/>
<path d="M52.208 44.1562H53.234V45.1822H52.208V44.1562Z" fill="white"/>
<path d="M53.2314 44.1562H54.2574V45.1822H53.2314V44.1562Z" fill="white"/>
<path d="M50.1553 44.1562H51.1813V45.1822H50.1553V44.1562Z" fill="white"/>
<path d="M49.1289 44.1562H50.1549V45.1822H49.1289V44.1562Z" fill="white"/>
<path d="M48.1016 44.1562H49.1276V45.1822H48.1016V44.1562Z" fill="white"/>
<path d="M51.1787 44.1562H52.2047V45.1822H51.1787V44.1562Z" fill="white"/>
<path d="M56.3086 44.1562H57.3346V45.1822H56.3086V44.1562Z" fill="white"/>
<path d="M55.2852 44.1562H56.3112V45.1822H55.2852V44.1562Z" fill="white"/>
<path d="M54.2588 44.1562H55.2848V45.1822H54.2588V44.1562Z" fill="white"/>
<path d="M39.8955 45.1797H40.9215V46.2057H39.8955V45.1797Z" fill="white"/>
<path d="M40.9189 45.1797H41.945V46.2057H40.9189V45.1797Z" fill="white"/>
<path d="M37.8418 45.1797H38.8678V46.2057H37.8418V45.1797Z" fill="white"/>
<path d="M36.8184 45.1797H37.8444V46.2057H36.8184V45.1797Z" fill="white"/>
<path d="M35.7891 45.1797H36.8151V46.2057H35.7891V45.1797Z" fill="white"/>
<path d="M38.8691 45.1797H39.8951V46.2057H38.8691V45.1797Z" fill="white"/>
<path d="M43.999 45.1797H45.025V46.2057H43.999V45.1797Z" fill="white"/>
<path d="M42.9717 45.1797H43.9977V46.2057H42.9717V45.1797Z" fill="white"/>
<path d="M41.9482 45.1797H42.9742V46.2057H41.9482V45.1797Z" fill="white"/>
<path d="M45.0254 45.1797H46.0514V46.2057H45.0254V45.1797Z" fill="white"/>
<path d="M46.0488 45.1797H47.0748V46.2057H46.0488V45.1797Z" fill="white"/>
<path d="M47.0781 45.1797H48.1041V46.2057H47.0781V45.1797Z" fill="white"/>
<path d="M52.208 45.1797H53.234V46.2057H52.208V45.1797Z" fill="white"/>
<path d="M53.2314 45.1797H54.2574V46.2057H53.2314V45.1797Z" fill="white"/>
<path d="M50.1553 45.1797H51.1813V46.2057H50.1553V45.1797Z" fill="white"/>
<path d="M49.1289 45.1797H50.1549V46.2057H49.1289V45.1797Z" fill="white"/>
<path d="M48.1016 45.1797H49.1276V46.2057H48.1016V45.1797Z" fill="white"/>
<path d="M51.1787 45.1797H52.2047V46.2057H51.1787V45.1797Z" fill="white"/>
<path d="M55.2852 45.1797H56.3112V46.2057H55.2852V45.1797Z" fill="white"/>
<path d="M54.2588 45.1797H55.2848V46.2057H54.2588V45.1797Z" fill="white"/>
<path d="M39.8955 46.209H40.9215V47.235H39.8955V46.209Z" fill="white"/>
<path d="M40.9189 46.209H41.945V47.235H40.9189V46.209Z" fill="white"/>
<path d="M37.8418 46.209H38.8678V47.235H37.8418V46.209Z" fill="white"/>
<path d="M36.8184 46.209H37.8444V47.235H36.8184V46.209Z" fill="white"/>
<path d="M35.7891 46.209H36.8151V47.235H35.7891V46.209Z" fill="white"/>
<path d="M34.7656 45.1797H35.7916V46.2057H34.7656V45.1797Z" fill="white"/>
<path d="M33.7383 45.1797H34.7643V46.2057H33.7383V45.1797Z" fill="white"/>
<path d="M34.7656 46.209H35.7916V47.235H34.7656V46.209Z" fill="white"/>
<path d="M33.7383 46.209H34.7643V47.235H33.7383V46.209Z" fill="white"/>
<path d="M38.8691 46.209H39.8951V47.235H38.8691V46.209Z" fill="white"/>
<path d="M43.999 46.209H45.025V47.235H43.999V46.209Z" fill="white"/>
<path d="M42.9717 46.209H43.9977V47.235H42.9717V46.209Z" fill="white"/>
<path d="M41.9482 46.209H42.9742V47.235H41.9482V46.209Z" fill="white"/>
<path d="M45.0254 46.209H46.0514V47.235H45.0254V46.209Z" fill="white"/>
<path d="M46.0488 46.209H47.0748V47.235H46.0488V46.209Z" fill="white"/>
<path d="M47.0781 46.209H48.1041V47.235H47.0781V46.209Z" fill="white"/>
<path d="M52.208 46.209H53.234V47.235H52.208V46.209Z" fill="white"/>
<path d="M53.2314 46.209H54.2574V47.235H53.2314V46.209Z" fill="white"/>
<path d="M50.1553 46.209H51.1813V47.235H50.1553V46.209Z" fill="white"/>
<path d="M49.1289 46.209H50.1549V47.235H49.1289V46.209Z" fill="white"/>
<path d="M48.1016 46.209H49.1276V47.235H48.1016V46.209Z" fill="white"/>
<path d="M51.1787 46.209H52.2047V47.235H51.1787V46.209Z" fill="white"/>
<path d="M55.2852 46.209H56.3112V47.235H55.2852V46.209Z" fill="white"/>
<path d="M54.2588 46.209H55.2848V47.235H54.2588V46.209Z" fill="white"/>
<path d="M39.8955 47.2334H40.9215V48.2594H39.8955V47.2334Z" fill="white"/>
<path d="M40.9189 47.2334H41.945V48.2594H40.9189V47.2334Z" fill="white"/>
<path d="M37.8418 47.2334H38.8678V48.2594H37.8418V47.2334Z" fill="white"/>
<path d="M36.8184 47.2334H37.8444V48.2594H36.8184V47.2334Z" fill="white"/>
<path d="M35.7891 47.2334H36.8151V48.2594H35.7891V47.2334Z" fill="white"/>
<path d="M34.7656 47.2334H35.7916V48.2594H34.7656V47.2334Z" fill="white"/>
<path d="M38.8691 47.2334H39.8951V48.2594H38.8691V47.2334Z" fill="white"/>
<path d="M43.999 47.2334H45.025V48.2594H43.999V47.2334Z" fill="white"/>
<path d="M42.9717 47.2334H43.9977V48.2594H42.9717V47.2334Z" fill="white"/>
<path d="M41.9482 47.2334H42.9742V48.2594H41.9482V47.2334Z" fill="white"/>
<path d="M45.0254 47.2334H46.0514V48.2594H45.0254V47.2334Z" fill="white"/>
<path d="M46.0488 47.2334H47.0748V48.2594H46.0488V47.2334Z" fill="white"/>
<path d="M47.0781 47.2334H48.1041V48.2594H47.0781V47.2334Z" fill="white"/>
<path d="M52.208 47.2334H53.234V48.2594H52.208V47.2334Z" fill="white"/>
<path d="M53.2314 47.2334H54.2574V48.2594H53.2314V47.2334Z" fill="white"/>
<path d="M50.1553 47.2334H51.1813V48.2594H50.1553V47.2334Z" fill="white"/>
<path d="M49.1289 47.2334H50.1549V48.2594H49.1289V47.2334Z" fill="white"/>
<path d="M48.1016 47.2334H49.1276V48.2594H48.1016V47.2334Z" fill="white"/>
<path d="M51.1787 47.2334H52.2047V48.2594H51.1787V47.2334Z" fill="white"/>
<path d="M54.2588 47.2334H55.2848V48.2594H54.2588V47.2334Z" fill="white"/>
<path d="M39.8955 48.2598H40.9215V49.2858H39.8955V48.2598Z" fill="white"/>
<path d="M40.9189 48.2598H41.945V49.2858H40.9189V48.2598Z" fill="white"/>
<path d="M37.8418 48.2598H38.8678V49.2858H37.8418V48.2598Z" fill="white"/>
<path d="M36.8184 48.2598H37.8444V49.2858H36.8184V48.2598Z" fill="white"/>
<path d="M35.7891 48.2598H36.8151V49.2858H35.7891V48.2598Z" fill="white"/>
<path d="M38.8691 48.2598H39.8951V49.2858H38.8691V48.2598Z" fill="white"/>
<path d="M43.999 48.2598H45.025V49.2858H43.999V48.2598Z" fill="white"/>
<path d="M42.9717 48.2598H43.9977V49.2858H42.9717V48.2598Z" fill="white"/>
<path d="M41.9482 48.2598H42.9742V49.2858H41.9482V48.2598Z" fill="white"/>
<path d="M45.0254 48.2598H46.0514V49.2858H45.0254V48.2598Z" fill="white"/>
<path d="M46.0488 48.2598H47.0748V49.2858H46.0488V48.2598Z" fill="white"/>
<path d="M47.0781 48.2598H48.1041V49.2858H47.0781V48.2598Z" fill="white"/>
<path d="M52.208 48.2598H53.234V49.2858H52.208V48.2598Z" fill="white"/>
<path d="M53.2314 48.2598H54.2574V49.2858H53.2314V48.2598Z" fill="white"/>
<path d="M50.1553 48.2598H51.1813V49.2858H50.1553V48.2598Z" fill="white"/>
<path d="M49.1289 48.2598H50.1549V49.2858H49.1289V48.2598Z" fill="white"/>
<path d="M48.1016 48.2598H49.1276V49.2858H48.1016V48.2598Z" fill="white"/>
<path d="M51.1787 48.2598H52.2047V49.2858H51.1787V48.2598Z" fill="white"/>
<path d="M54.2588 48.2598H55.2848V49.2858H54.2588V48.2598Z" fill="white"/>
<path d="M39.8955 49.2861H40.9215V50.3121H39.8955V49.2861Z" fill="white"/>
<path d="M40.9189 49.2861H41.945V50.3121H40.9189V49.2861Z" fill="white"/>
<path d="M37.8418 49.2861H38.8678V50.3121H37.8418V49.2861Z" fill="white"/>
<path d="M36.8184 49.2861H37.8444V50.3121H36.8184V49.2861Z" fill="white"/>
<path d="M38.8691 49.2861H39.8951V50.3121H38.8691V49.2861Z" fill="white"/>
<path d="M43.999 49.2861H45.025V50.3121H43.999V49.2861Z" fill="white"/>
<path d="M42.9717 49.2861H43.9977V50.3121H42.9717V49.2861Z" fill="white"/>
<path d="M41.9482 49.2861H42.9742V50.3121H41.9482V49.2861Z" fill="white"/>
<path d="M45.0254 49.2861H46.0514V50.3121H45.0254V49.2861Z" fill="white"/>
<path d="M46.0488 49.2861H47.0748V50.3121H46.0488V49.2861Z" fill="white"/>
<path d="M47.0781 49.2861H48.1041V50.3121H47.0781V49.2861Z" fill="white"/>
<path d="M52.208 49.2861H53.234V50.3121H52.208V49.2861Z" fill="white"/>
<path d="M53.2314 49.2861H54.2574V50.3121H53.2314V49.2861Z" fill="white"/>
<path d="M50.1553 49.2861H51.1813V50.3121H50.1553V49.2861Z" fill="white"/>
<path d="M49.1289 49.2861H50.1549V50.3121H49.1289V49.2861Z" fill="white"/>
<path d="M48.1016 49.2861H49.1276V50.3121H48.1016V49.2861Z" fill="white"/>
<path d="M51.1787 49.2861H52.2047V50.3121H51.1787V49.2861Z" fill="white"/>
<path d="M54.2588 49.2861H55.2848V50.3121H54.2588V49.2861Z" fill="white"/>
<path d="M39.8955 50.3135H40.9215V51.3395H39.8955V50.3135Z" fill="white"/>
<path d="M40.9189 50.3135H41.945V51.3395H40.9189V50.3135Z" fill="white"/>
<path d="M37.8418 50.3135H38.8678V51.3395H37.8418V50.3135Z" fill="white"/>
<path d="M36.8184 50.3135H37.8444V51.3395H36.8184V50.3135Z" fill="white"/>
<path d="M38.8691 50.3135H39.8951V51.3395H38.8691V50.3135Z" fill="white"/>
<path d="M43.999 50.3135H45.025V51.3395H43.999V50.3135Z" fill="white"/>
<path d="M42.9717 50.3135H43.9977V51.3395H42.9717V50.3135Z" fill="white"/>
<path d="M41.9482 50.3135H42.9742V51.3395H41.9482V50.3135Z" fill="white"/>
<path d="M45.0254 50.3135H46.0514V51.3395H45.0254V50.3135Z" fill="white"/>
<path d="M46.0488 50.3135H47.0748V51.3395H46.0488V50.3135Z" fill="white"/>
<path d="M47.0781 50.3135H48.1041V51.3395H47.0781V50.3135Z" fill="white"/>
<path d="M52.208 50.3135H53.234V51.3395H52.208V50.3135Z" fill="white"/>
<path d="M53.2314 50.3135H54.2574V51.3395H53.2314V50.3135Z" fill="white"/>
<path d="M50.1553 50.3135H51.1813V51.3395H50.1553V50.3135Z" fill="white"/>
<path d="M49.1289 50.3135H50.1549V51.3395H49.1289V50.3135Z" fill="white"/>
<path d="M48.1016 50.3135H49.1276V51.3395H48.1016V50.3135Z" fill="white"/>
<path d="M51.1787 50.3135H52.2047V51.3395H51.1787V50.3135Z" fill="white"/>
<path d="M54.2588 50.3135H55.2848V51.3395H54.2588V50.3135Z" fill="white"/>
<path d="M39.8955 51.3359H40.9215V52.3619H39.8955V51.3359Z" fill="white"/>
<path d="M40.9189 51.3359H41.945V52.3619H40.9189V51.3359Z" fill="white"/>
<path d="M37.8418 51.3359H38.8678V52.3619H37.8418V51.3359Z" fill="white"/>
<path d="M36.8184 51.3359H37.8444V52.3619H36.8184V51.3359Z" fill="white"/>
<path d="M38.8691 51.3359H39.8951V52.3619H38.8691V51.3359Z" fill="white"/>
<path d="M43.999 51.3359H45.025V52.3619H43.999V51.3359Z" fill="white"/>
<path d="M42.9717 51.3359H43.9977V52.3619H42.9717V51.3359Z" fill="white"/>
<path d="M41.9482 51.3359H42.9742V52.3619H41.9482V51.3359Z" fill="white"/>
<path d="M45.0254 51.3359H46.0514V52.3619H45.0254V51.3359Z" fill="white"/>
<path d="M46.0488 51.3359H47.0748V52.3619H46.0488V51.3359Z" fill="white"/>
<path d="M47.0781 51.3359H48.1041V52.3619H47.0781V51.3359Z" fill="white"/>
<path d="M52.208 51.3359H53.234V52.3619H52.208V51.3359Z" fill="white"/>
<path d="M53.2314 51.3359H54.2574V52.3619H53.2314V51.3359Z" fill="white"/>
<path d="M50.1553 51.3359H51.1813V52.3619H50.1553V51.3359Z" fill="white"/>
<path d="M49.1289 51.3359H50.1549V52.3619H49.1289V51.3359Z" fill="white"/>
<path d="M48.1016 51.3359H49.1276V52.3619H48.1016V51.3359Z" fill="white"/>
<path d="M51.1787 51.3359H52.2047V52.3619H51.1787V51.3359Z" fill="white"/>
<path d="M54.2588 51.3359H55.2848V52.3619H54.2588V51.3359Z" fill="white"/>
<path d="M39.8955 52.3623H40.9215V53.3883H39.8955V52.3623Z" fill="white"/>
<path d="M40.9189 52.3623H41.945V53.3883H40.9189V52.3623Z" fill="white"/>
<path d="M37.8418 52.3623H38.8678V53.3883H37.8418V52.3623Z" fill="white"/>
<path d="M36.8184 52.3623H37.8444V53.3883H36.8184V52.3623Z" fill="white"/>
<path d="M38.8691 52.3623H39.8951V53.3883H38.8691V52.3623Z" fill="white"/>
<path d="M43.999 52.3623H45.025V53.3883H43.999V52.3623Z" fill="white"/>
<path d="M42.9717 52.3623H43.9977V53.3883H42.9717V52.3623Z" fill="white"/>
<path d="M41.9482 52.3623H42.9742V53.3883H41.9482V52.3623Z" fill="white"/>
<path d="M45.0254 52.3623H46.0514V53.3883H45.0254V52.3623Z" fill="white"/>
<path d="M46.0488 52.3623H47.0748V53.3883H46.0488V52.3623Z" fill="white"/>
<path d="M47.0781 52.3623H48.1041V53.3883H47.0781V52.3623Z" fill="white"/>
<path d="M52.208 52.3623H53.234V53.3883H52.208V52.3623Z" fill="white"/>
<path d="M53.2314 52.3623H54.2574V53.3883H53.2314V52.3623Z" fill="white"/>
<path d="M50.1553 52.3623H51.1813V53.3883H50.1553V52.3623Z" fill="white"/>
<path d="M49.1289 52.3623H50.1549V53.3883H49.1289V52.3623Z" fill="white"/>
<path d="M48.1016 52.3623H49.1276V53.3883H48.1016V52.3623Z" fill="white"/>
<path d="M51.1787 52.3623H52.2047V53.3883H51.1787V52.3623Z" fill="white"/>
<path d="M54.2588 52.3623H55.2848V53.3883H54.2588V52.3623Z" fill="white"/>
<path d="M57.3379 44.1562H58.3639V45.1822H57.3379V44.1562Z" fill="white"/>
<path d="M56.3086 45.1797H57.3346V46.2057H56.3086V45.1797Z" fill="white"/>
<path d="M56.3086 46.209H57.3346V47.235H56.3086V46.209Z" fill="white"/>
<path d="M55.2852 47.2334H56.3112V48.2594H55.2852V47.2334Z" fill="white"/>
<path d="M55.2852 48.2598H56.3112V49.2858H55.2852V48.2598Z" fill="white"/>
<path d="M55.2852 49.2861H56.3112V50.3121H55.2852V49.2861Z" fill="white"/>
<path d="M55.2852 50.3135H56.3112V51.3395H55.2852V50.3135Z" fill="white"/>
<path d="M55.2852 51.3359H56.3112V52.3619H55.2852V51.3359Z" fill="white"/>
<path d="M55.2852 52.3623H56.3112V53.3883H55.2852V52.3623Z" fill="white"/>
<path d="M35.7891 49.2861H36.8151V50.3121H35.7891V49.2861Z" fill="white"/>
<path d="M35.7891 50.3135H36.8151V51.3395H35.7891V50.3135Z" fill="white"/>
<path d="M35.7891 51.3359H36.8151V52.3619H35.7891V51.3359Z" fill="white"/>
<path d="M35.7891 52.3623H36.8151V53.3883H35.7891V52.3623Z" fill="white"/>
<path d="M39.8955 53.3896H40.9215V54.4156H39.8955V53.3896Z" fill="white"/>
<path d="M40.9189 53.3896H41.945V54.4156H40.9189V53.3896Z" fill="white"/>
<path d="M37.8418 53.3896H38.8678V54.4156H37.8418V53.3896Z" fill="white"/>
<path d="M36.8184 53.3896H37.8444V54.4156H36.8184V53.3896Z" fill="white"/>
<path d="M38.8691 53.3896H39.8951V54.4156H38.8691V53.3896Z" fill="white"/>
<path d="M43.999 53.3896H45.025V54.4156H43.999V53.3896Z" fill="white"/>
<path d="M42.9717 53.3896H43.9977V54.4156H42.9717V53.3896Z" fill="white"/>
<path d="M41.9482 53.3896H42.9742V54.4156H41.9482V53.3896Z" fill="white"/>
<path d="M45.0254 53.3896H46.0514V54.4156H45.0254V53.3896Z" fill="white"/>
<path d="M46.0488 53.3896H47.0748V54.4156H46.0488V53.3896Z" fill="white"/>
<path d="M47.0781 53.3896H48.1041V54.4156H47.0781V53.3896Z" fill="white"/>
<path d="M52.208 53.3896H53.234V54.4156H52.208V53.3896Z" fill="white"/>
<path d="M53.2314 53.3896H54.2574V54.4156H53.2314V53.3896Z" fill="white"/>
<path d="M50.1553 53.3896H51.1813V54.4156H50.1553V53.3896Z" fill="white"/>
<path d="M49.1289 53.3896H50.1549V54.4156H49.1289V53.3896Z" fill="white"/>
<path d="M48.1016 53.3896H49.1276V54.4156H48.1016V53.3896Z" fill="white"/>
<path d="M51.1787 53.3896H52.2047V54.4156H51.1787V53.3896Z" fill="white"/>
<path d="M54.2588 53.3896H55.2848V54.4156H54.2588V53.3896Z" fill="white"/>
<path d="M39.8955 54.415H40.9215V55.441H39.8955V54.415Z" fill="white"/>
<path d="M40.9189 54.415H41.945V55.441H40.9189V54.415Z" fill="white"/>
<path d="M37.8418 54.415H38.8678V55.441H37.8418V54.415Z" fill="white"/>
<path d="M36.8184 54.415H37.8444V55.441H36.8184V54.415Z" fill="white"/>
<path d="M38.8691 54.415H39.8951V55.441H38.8691V54.415Z" fill="white"/>
<path d="M43.999 54.415H45.025V55.441H43.999V54.415Z" fill="white"/>
<path d="M42.9717 54.415H43.9977V55.441H42.9717V54.415Z" fill="white"/>
<path d="M41.9482 54.415H42.9742V55.441H41.9482V54.415Z" fill="white"/>
<path d="M45.0254 54.415H46.0514V55.441H45.0254V54.415Z" fill="white"/>
<path d="M46.0488 54.415H47.0748V55.441H46.0488V54.415Z" fill="white"/>
<path d="M47.0781 54.415H48.1041V55.441H47.0781V54.415Z" fill="white"/>
<path d="M52.208 54.415H53.234V55.441H52.208V54.415Z" fill="white"/>
<path d="M53.2314 54.415H54.2574V55.441H53.2314V54.415Z" fill="white"/>
<path d="M50.1553 54.415H51.1813V55.441H50.1553V54.415Z" fill="white"/>
<path d="M49.1289 54.415H50.1549V55.441H49.1289V54.415Z" fill="white"/>
<path d="M48.1016 54.415H49.1276V55.441H48.1016V54.415Z" fill="white"/>
<path d="M51.1787 54.415H52.2047V55.441H51.1787V54.415Z" fill="white"/>
<path d="M39.8955 55.4395H40.9215V56.4655H39.8955V55.4395Z" fill="white"/>
<path d="M40.9189 55.4395H41.945V56.4655H40.9189V55.4395Z" fill="white"/>
<path d="M38.8691 55.4395H39.8951V56.4655H38.8691V55.4395Z" fill="white"/>
<path d="M43.999 55.4395H45.025V56.4655H43.999V55.4395Z" fill="white"/>
<path d="M42.9717 55.4395H43.9977V56.4655H42.9717V55.4395Z" fill="white"/>
<path d="M41.9482 55.4395H42.9742V56.4655H41.9482V55.4395Z" fill="white"/>
<path d="M45.0254 55.4395H46.0514V56.4655H45.0254V55.4395Z" fill="white"/>
<path d="M46.0488 55.4395H47.0748V56.4655H46.0488V55.4395Z" fill="white"/>
<path d="M47.0781 55.4395H48.1041V56.4655H47.0781V55.4395Z" fill="white"/>
<path d="M52.208 55.4395H53.234V56.4655H52.208V55.4395Z" fill="white"/>
<path d="M50.1553 55.4395H51.1813V56.4655H50.1553V55.4395Z" fill="white"/>
<path d="M49.1289 55.4395H50.1549V56.4655H49.1289V55.4395Z" fill="white"/>
<path d="M48.1016 55.4395H49.1276V56.4655H48.1016V55.4395Z" fill="white"/>
<path d="M43.999 56.4697H45.025V57.4957H43.999V56.4697Z" fill="white"/>
<path d="M42.9717 56.4697H43.9977V57.4957H42.9717V56.4697Z" fill="white"/>
<path d="M41.9482 56.4697H42.9742V57.4957H41.9482V56.4697Z" fill="white"/>
<path d="M45.0254 56.4697H46.0514V57.4957H45.0254V56.4697Z" fill="white"/>
<path d="M46.0488 56.4697H47.0748V57.4957H46.0488V56.4697Z" fill="white"/>
<path d="M47.0781 56.4697H48.1041V57.4957H47.0781V56.4697Z" fill="white"/>
<path d="M49.1289 56.4697H50.1549V57.4957H49.1289V56.4697Z" fill="white"/>
<path d="M48.1016 56.4697H49.1276V57.4957H48.1016V56.4697Z" fill="white"/>
<path d="M43.999 57.4922H45.025V58.5182H43.999V57.4922Z" fill="white"/>
<path d="M42.9717 57.4922H43.9977V58.5182H42.9717V57.4922Z" fill="white"/>
<path d="M45.0254 57.4922H46.0514V58.5182H45.0254V57.4922Z" fill="white"/>
<path d="M46.0488 57.4922H47.0748V58.5182H46.0488V57.4922Z" fill="white"/>
<path d="M45.0254 58.5195H46.0514V59.5455H45.0254V58.5195Z" fill="white"/>
<path d="M46.0488 58.5195H47.0748V59.5455H46.0488V58.5195Z" fill="white"/>
<path d="M47.0781 57.4922H48.1041V58.5182H47.0781V57.4922Z" fill="white"/>
<path d="M48.1016 57.4922H49.1276V58.5182H48.1016V57.4922Z" fill="white"/>
<path d="M51.1787 55.4395H52.2047V56.4655H51.1787V55.4395Z" fill="white"/>
<path d="M54.2588 54.415H55.2848V55.441H54.2588V54.415Z" fill="white"/>
<path d="M55.2852 53.3896H56.3112V54.4156H55.2852V53.3896Z" fill="white"/>
<path d="M55.2852 54.415H56.3112V55.441H55.2852V54.415Z" fill="white"/>
<path d="M35.7891 53.3896H36.8151V54.4156H35.7891V53.3896Z" fill="white"/>
<path d="M35.7891 54.415H36.8151V55.441H35.7891V54.415Z" fill="white"/>
<path d="M56.3086 53.3896H57.3346V54.4156H56.3086V53.3896Z" fill="white"/>
<path d="M56.3086 54.415H57.3346V55.441H56.3086V54.415Z" fill="white"/>
<path d="M34.7656 53.3896H35.7916V54.4156H34.7656V53.3896Z" fill="white"/>
<path d="M34.7656 54.415H35.7916V55.441H34.7656V54.415Z" fill="white"/>
<path d="M55.2852 55.4395H56.3112V56.4655H55.2852V55.4395Z" fill="white"/>
<path d="M56.3086 55.4395H57.3346V56.4655H56.3086V55.4395Z" fill="white"/>
<path d="M53.2314 55.4395H54.2574V56.4655H53.2314V55.4395Z" fill="white"/>
<path d="M54.2588 55.4395H55.2848V56.4655H54.2588V55.4395Z" fill="white"/>
<path d="M45.0254 60.5703H46.0514V61.5963H45.0254V60.5703Z" fill="white"/>
<path d="M46.0488 60.5703H47.0748V61.5963H46.0488V60.5703Z" fill="white"/>
<path d="M43.999 59.5459H45.025V60.5719H43.999V59.5459Z" fill="white"/>
<path d="M45.0254 59.5459H46.0514V60.5719H45.0254V59.5459Z" fill="white"/>
<path d="M42.9717 58.5195H43.9977V59.5455H42.9717V58.5195Z" fill="white"/>
<path d="M43.999 58.5195H45.025V59.5455H43.999V58.5195Z" fill="white"/>
<path d="M40.9189 57.4922H41.945V58.5182H40.9189V57.4922Z" fill="white"/>
<path d="M41.9482 57.4922H42.9742V58.5182H41.9482V57.4922Z" fill="white"/>
<path d="M52.208 56.4697H53.234V57.4957H52.208V56.4697Z" fill="white"/>
<path d="M53.2314 56.4697H54.2574V57.4957H53.2314V56.4697Z" fill="white"/>
<path d="M50.1553 56.4697H51.1813V57.4957H50.1553V56.4697Z" fill="white"/>
<path d="M51.1787 56.4697H52.2047V57.4957H51.1787V56.4697Z" fill="white"/>
<path d="M39.8955 56.4697H40.9215V57.4957H39.8955V56.4697Z" fill="white"/>
<path d="M40.9189 56.4697H41.945V57.4957H40.9189V56.4697Z" fill="white"/>
<path d="M37.8418 56.4697H38.8678V57.4957H37.8418V56.4697Z" fill="white"/>
<path d="M38.8691 56.4697H39.8951V57.4957H38.8691V56.4697Z" fill="white"/>
<path d="M36.8184 55.4395H37.8444V56.4655H36.8184V55.4395Z" fill="white"/>
<path d="M37.8418 55.4395H38.8678V56.4655H37.8418V55.4395Z" fill="white"/>
<path d="M34.7656 55.4395H35.7916V56.4655H34.7656V55.4395Z" fill="white"/>
<path d="M35.7891 55.4395H36.8151V56.4655H35.7891V55.4395Z" fill="white"/>
<path d="M49.1289 57.4922H50.1549V58.5182H49.1289V57.4922Z" fill="white"/>
<path d="M50.1553 57.4922H51.1813V58.5182H50.1553V57.4922Z" fill="white"/>
<path d="M47.0781 58.5195H48.1041V59.5455H47.0781V58.5195Z" fill="white"/>
<path d="M48.1016 58.5195H49.1276V59.5455H48.1016V58.5195Z" fill="white"/>
<path d="M46.0488 59.5459H47.0748V60.5719H46.0488V59.5459Z" fill="white"/>
<path d="M47.0781 59.5459H48.1041V60.5719H47.0781V59.5459Z" fill="white"/>
<path d="M57.3379 35.9492H58.3639V36.9752H57.3379V35.9492Z" fill="white"/>
<path d="M56.3086 33.8955H57.3346V34.9215H56.3086V33.8955Z" fill="white"/>
<path d="M55.2852 33.8955H56.3112V34.9215H55.2852V33.8955Z" fill="white"/>
<path d="M54.2588 33.8955H55.2848V34.9215H54.2588V33.8955Z" fill="white"/>
<path d="M54.2588 34.9199H55.2848V35.9459H54.2588V34.9199Z" fill="white"/>
<path d="M57.3379 34.9199H58.3639V35.9459H57.3379V34.9199Z" fill="white"/>
<path d="M57.3379 33.8955H58.3639V34.9215H57.3379V33.8955Z" fill="white"/>
<rect x="43.999" y="27.7393" width="1.026" height="1.026" fill="white"/>
<path d="M43.999 15.4297H45.025V16.4557H43.999V15.4297Z" fill="white"/>
<path d="M42.9717 14.3994H43.9977V15.4254H42.9717V14.3994Z" fill="white"/>
<path d="M42.9717 15.4297H43.9977V16.4557H42.9717V15.4297Z" fill="white"/>
<path d="M41.9482 15.4297H42.9742V16.4557H41.9482V15.4297Z" fill="white"/>
<path d="M45.0254 15.4297H46.0514V16.4557H45.0254V15.4297Z" fill="white"/>
<path d="M43.999 16.4541H45.025V17.4801H43.999V16.4541Z" fill="white"/>
<path d="M42.9717 16.4541H43.9977V17.4801H42.9717V16.4541Z" fill="white"/>
<path d="M41.9482 16.4541H42.9742V17.4801H41.9482V16.4541Z" fill="white"/>
<path d="M45.0254 16.4541H46.0514V17.4801H45.0254V16.4541Z" fill="white"/>
<path d="M43.999 17.4795H45.025V18.5055H43.999V17.4795Z" fill="white"/>
<path d="M42.9717 17.4795H43.9977V18.5055H42.9717V17.4795Z" fill="white"/>
<path d="M41.9482 17.4795H42.9742V18.5055H41.9482V17.4795Z" fill="white"/>
<path d="M45.0254 17.4795H46.0514V18.5055H45.0254V17.4795Z" fill="white"/>
<path d="M42.9717 18.5068H43.9977V19.5328H42.9717V18.5068Z" fill="white"/>
<path d="M41.9482 18.5068H42.9742V19.5328H41.9482V18.5068Z" fill="white"/>
<path d="M45.0254 18.5068H46.0514V19.5328H45.0254V18.5068Z" fill="white"/>
<path d="M45.0254 19.5293H46.0514V20.5553H45.0254V19.5293Z" fill="white"/>
<path d="M43.999 18.5068H45.025V19.5328H43.999V18.5068Z" fill="white"/>
<path d="M41.9482 19.5293H42.9742V20.5553H41.9482V19.5293Z" fill="white"/>
<rect x="43.999" y="14.3994" width="1.026" height="1.026" fill="white"/>
<path d="M50.1553 17.4795H51.1813V18.5055H50.1553V17.4795Z" fill="white"/>
<path d="M49.1289 16.4541H50.1549V17.4801H49.1289V16.4541Z" fill="white"/>
<path d="M49.1289 17.4795H50.1549V18.5055H49.1289V17.4795Z" fill="white"/>
<path d="M48.1016 17.4795H49.1276V18.5055H48.1016V17.4795Z" fill="white"/>
<path d="M51.1787 17.4795H52.2047V18.5055H51.1787V17.4795Z" fill="white"/>
<path d="M50.1553 18.5068H51.1813V19.5328H50.1553V18.5068Z" fill="white"/>
<path d="M49.1289 18.5068H50.1549V19.5328H49.1289V18.5068Z" fill="white"/>
<path d="M48.1016 18.5068H49.1276V19.5328H48.1016V18.5068Z" fill="white"/>
<path d="M51.1787 18.5068H52.2047V19.5328H51.1787V18.5068Z" fill="white"/>
<path d="M50.1553 19.5293H51.1813V20.5553H50.1553V19.5293Z" fill="white"/>
<path d="M49.1289 19.5293H50.1549V20.5553H49.1289V19.5293Z" fill="white"/>
<path d="M48.1016 19.5293H49.1276V20.5553H48.1016V19.5293Z" fill="white"/>
<path d="M51.1787 19.5293H52.2047V20.5553H51.1787V19.5293Z" fill="white"/>
<path d="M49.1289 20.5596H50.1549V21.5856H49.1289V20.5596Z" fill="white"/>
<path d="M48.1016 20.5596H49.1276V21.5856H48.1016V20.5596Z" fill="white"/>
<path d="M51.1787 20.5596H52.2047V21.5856H51.1787V20.5596Z" fill="white"/>
<path d="M51.1787 21.584H52.2047V22.61H51.1787V21.584Z" fill="white"/>
<path d="M50.1553 20.5596H51.1813V21.5856H50.1553V20.5596Z" fill="white"/>
<path d="M48.1016 21.584H49.1276V22.61H48.1016V21.584Z" fill="white"/>
<rect x="50.1553" y="16.4541" width="1.02599" height="1.026" fill="white"/>
</g>
</g>
<defs>
<filter id="filter0_d_4006_97614" x="0.499023" y="0.5" width="81" height="81" filterUnits="userSpaceOnUse" color-interpolation-filters="sRGB">
<feFlood flood-opacity="0" result="BackgroundImageFix"/>
<feColorMatrix in="SourceAlpha" type="matrix" values="0 0 0 0 0 0 0 0 0 0 0 0 0 0 0 0 0 0 127 0" result="hardAlpha"/>
<feOffset dx="-4" dy="4"/>
<feGaussianBlur stdDeviation="1"/>
<feComposite in2="hardAlpha" operator="out"/>
<feColorMatrix type="matrix" values="0 0 0 0 0 0 0 0 0 0 0 0 0 0 0 0 0 0 0.5 0"/>
<feBlend mode="normal" in2="BackgroundImageFix" result="effect1_dropShadow_4006_97614"/>
<feBlend mode="normal" in="SourceGraphic" in2="effect1_dropShadow_4006_97614" result="shape"/>
</filter>
</defs>
</svg>
