<svg width="82" height="82" viewBox="0 0 82 82" fill="none" xmlns="http://www.w3.org/2000/svg">
<g filter="url(#filter0_d_3470_65751)">
<rect x="6.75" y="0.75" width="74.5" height="74.5" rx="4.25" fill="white" stroke="#333333" stroke-width="0.5"/>
<rect x="8" y="2" width="72" height="72" rx="3" fill="#333333" stroke="#E5C5AD" stroke-width="2"/>
<rect x="9.90771" y="3.90234" width="68.1905" height="68.1961" rx="2" fill="#C26DBF"/>
<rect x="12.5747" y="6.57422" width="62.8456" height="62.8507" rx="2.25" stroke="white" stroke-opacity="0.6" stroke-width="0.5"/>
<rect x="11.6003" y="5.60059" width="64.7939" height="64.7992" rx="2.25" stroke="white" stroke-opacity="0.6" stroke-width="0.5"/>
<path d="M51.2154 33.1315L46.9404 31.6049L47.1686 30.6613L40.6234 28.9629L40.3621 30.2472L35.8701 29.939L34.874 35.2481L33.3833 35.5843V36.3968C33.3833 36.3968 33.3833 43.596 33.3833 43.8829V43.8875V43.8912C33.3841 43.9503 33.3894 44.0048 33.3969 44.051C33.4045 44.0972 33.4136 44.132 33.4143 44.135L33.4166 44.1449L33.4189 44.1532C33.4412 44.238 33.4707 44.3108 33.4863 44.3455L33.4866 44.3478L33.4878 44.3501C33.5268 44.4417 33.571 44.5311 33.6229 44.6311C33.7202 44.8203 33.8516 45.0589 34.0114 45.3406C34.5679 46.3243 35.4694 47.8365 36.235 49.1109C36.7756 50.0098 37.2474 50.786 37.4776 51.1653L37.2628 60.49H52.5252V53.4348L55.4262 47.6759V37.4538L50.9982 34.9049L51.2154 33.1315ZM49.4752 34.1514L49.3276 35.3577L47.8397 41.8723L45.7614 41.5769L44.3526 40.6008L45.2431 36.7987L45.2447 36.7912L46.142 32.9618L49.4752 34.1514ZM41.868 30.8802L45.257 31.7601L45.1074 32.6975L44.8482 33.8062C44.8413 33.7933 44.8364 33.7834 44.8352 33.7804L44.638 33.3881L43.6877 33.6578L41.5163 34.2758L41.1604 34.3561L41.868 30.8802ZM37.1936 31.573L40.5901 31.8055L40.0183 34.6134L36.4726 35.4138L37.1936 31.573ZM53.8222 38.3254V47.3238L51.6687 51.5977C50.7137 52.355 49.1083 53.4817 48.1058 53.3856C49.5753 53.6339 50.4461 54.1216 50.9209 54.4904L50.9209 58.9513H47.3546V55.8323L46.0037 58.9513H38.8974L39.036 53.4734L47.6557 52.2331C44.6707 52.4451 40.6269 50.9382 38.7054 50.1294C38.2537 49.3866 37.3798 47.941 36.5851 46.6022C36.1444 45.86 35.7282 45.1498 35.4249 44.6137C35.2734 44.3456 35.1492 44.1214 35.0675 43.9625C35.0315 43.8943 35.0046 43.8383 34.9872 43.8012C34.9872 43.3953 34.9872 41.6998 34.9872 40.0315C34.9872 39.1145 34.9872 38.2058 34.9872 37.5258C34.9872 37.2389 34.9872 36.9919 34.9872 36.8034L41.7903 35.2678L43.992 34.6415L44.0351 34.6287C44.0552 34.6869 44.0757 34.7483 44.0954 34.8141C44.1908 35.1284 44.2771 35.5342 44.2767 35.9424C44.2767 36.1415 44.256 36.34 44.2098 36.5308L44.2034 36.5596C44.1739 36.6777 44.1334 36.7913 44.0822 36.9003C43.9421 37.1973 43.7259 37.4667 43.3571 37.7045C42.5027 38.2512 41.6454 38.542 40.9518 38.6964C40.2585 38.851 39.7308 38.8677 39.5471 38.8677C39.521 38.8677 39.5016 38.8677 39.49 38.8661H39.4775L36.8358 38.748L39.2223 39.8415C39.2488 39.8536 40.9654 40.6503 42.779 42.1633C43.6858 42.919 44.6165 43.8519 45.3779 44.9483C46.1397 46.0457 46.7319 47.3027 46.978 48.7188L48.0324 48.5499C47.8239 47.3482 47.3929 46.257 46.836 45.2802C47.5975 44.429 48.7352 44.0943 49.6064 43.9648L49.6602 43.9989L51.8525 44.2624L52.7725 40.951L51.7396 40.6861L51.0596 43.1334L50.0509 43.0122L48.8545 42.2232L50.2183 36.2509L53.8222 38.3254Z" fill="white" fill-opacity="0.5"/>
<path d="M58.8625 34.7089L62.5503 25.5985L54.7979 25.8204L53.0343 15.6817L44.1279 22.8505L37.4548 15.5098L34.787 25.5137L25.4088 23.9508L29.6422 34.2001L22.9607 39.1002L29.9019 43.0674L30.813 41.4727L26.327 38.9093L31.8893 34.8302L28.3685 26.3058L36.1314 27.5992L38.3614 19.2377L43.9322 25.3653L51.7587 19.0658L53.2607 27.7022L59.7927 27.5143L56.5422 35.5457L61.5635 38.2498L57.0087 43.5051L58.3963 44.7083L64.4528 37.7191L58.8625 34.7089Z" fill="white" fill-opacity="0.5"/>
</g>
<defs>
<filter id="filter0_d_3470_65751" x="0.5" y="0.5" width="81" height="81" filterUnits="userSpaceOnUse" color-interpolation-filters="sRGB">
<feFlood flood-opacity="0" result="BackgroundImageFix"/>
<feColorMatrix in="SourceAlpha" type="matrix" values="0 0 0 0 0 0 0 0 0 0 0 0 0 0 0 0 0 0 127 0" result="hardAlpha"/>
<feOffset dx="-4" dy="4"/>
<feGaussianBlur stdDeviation="1"/>
<feComposite in2="hardAlpha" operator="out"/>
<feColorMatrix type="matrix" values="0 0 0 0 0 0 0 0 0 0 0 0 0 0 0 0 0 0 0.5 0"/>
<feBlend mode="normal" in2="BackgroundImageFix" result="effect1_dropShadow_3470_65751"/>
<feBlend mode="normal" in="SourceGraphic" in2="effect1_dropShadow_3470_65751" result="shape"/>
</filter>
</defs>
</svg>
