<svg width="82" height="82" viewBox="0 0 82 82" fill="none" xmlns="http://www.w3.org/2000/svg">
<g filter="url(#filter0_d_4006_98407)">
<rect x="6.83398" y="0.75" width="74.5" height="74.5" rx="4.25" fill="white" stroke="#333333" stroke-width="0.5"/>
<rect x="8.08398" y="2" width="72" height="72" rx="3" fill="#333333" stroke="#E5C5AD" stroke-width="2"/>
<rect x="9.99219" y="3.90234" width="68.1905" height="68.1961" rx="2" fill="#7567CB"/>
<rect x="12.6592" y="6.57422" width="62.8456" height="62.8507" rx="2.25" stroke="white" stroke-opacity="0.6" stroke-width="0.5"/>
<rect x="11.6846" y="5.60059" width="64.7939" height="64.7992" rx="2.25" stroke="white" stroke-opacity="0.6" stroke-width="0.5"/>
<g opacity="0.6">
<rect x="19.7842" y="32.1582" width="1.06926" height="1.06926" fill="white"/>
<rect x="20.8535" y="33.2285" width="1.06926" height="1.06926" fill="white"/>
<rect x="21.9229" y="34.2959" width="1.06926" height="1.06926" fill="white"/>
<rect x="22.9932" y="35.3662" width="1.06926" height="1.06926" fill="white"/>
<rect x="24.0596" y="36.4346" width="1.06926" height="1.06926" fill="white"/>
<rect x="25.1309" y="37.5059" width="1.06926" height="1.06926" fill="white"/>
<rect x="26.1982" y="38.5703" width="1.06926" height="1.06926" fill="white"/>
<rect x="27.2686" y="39.6426" width="1.06926" height="1.06926" fill="white"/>
<rect x="28.3389" y="40.7139" width="1.06926" height="1.06926" fill="white"/>
<rect x="29.4072" y="41.7812" width="1.06926" height="1.06926" fill="white"/>
<rect x="30.4775" y="42.8525" width="1.06926" height="1.06926" fill="white"/>
<rect x="31.5439" y="43.9199" width="1.06926" height="1.06926" fill="white"/>
<rect x="29.4072" y="42.8525" width="1.06926" height="1.06926" fill="white"/>
<rect x="30.4775" y="43.9199" width="1.06926" height="1.06926" fill="white"/>
<rect x="31.5439" y="44.9893" width="1.06926" height="1.06926" fill="white"/>
<rect x="32.6152" y="44.9893" width="1.06926" height="1.06926" fill="white"/>
<rect x="33.6865" y="46.0566" width="1.06926" height="1.06926" fill="white"/>
<rect x="32.6152" y="46.0566" width="1.06926" height="1.06926" fill="white"/>
<rect x="33.6865" y="47.1279" width="1.06926" height="1.06926" fill="white"/>
<rect x="34.7529" y="47.1279" width="1.06926" height="1.06926" fill="white"/>
<rect x="35.8232" y="48.1953" width="1.06926" height="1.06926" fill="white"/>
<rect x="34.7529" y="48.1953" width="1.06926" height="1.06926" fill="white"/>
<rect x="35.8232" y="49.2676" width="1.06926" height="1.06926" fill="white"/>
<rect x="35.8232" y="50.3359" width="1.06926" height="1.06927" fill="white"/>
<rect x="37.9619" y="50.3359" width="1.06926" height="1.06927" fill="white"/>
<rect x="37.9619" y="51.4062" width="1.06926" height="1.06926" fill="white"/>
<rect x="37.9619" y="52.4746" width="1.06926" height="1.06926" fill="white"/>
<rect x="39.0303" y="51.4062" width="1.06926" height="1.06926" fill="white"/>
<rect x="39.0303" y="52.4746" width="1.06926" height="1.06926" fill="white"/>
<rect x="39.0303" y="53.543" width="1.06926" height="1.06927" fill="white"/>
<rect x="40.1006" y="52.4746" width="1.06926" height="1.06926" fill="white"/>
<rect x="40.1006" y="53.543" width="1.06926" height="1.06927" fill="white"/>
<rect x="40.1006" y="54.6123" width="1.06926" height="1.06926" fill="white"/>
<rect x="42.2402" y="56.751" width="1.06926" height="1.06926" fill="white"/>
<rect x="41.1689" y="54.6123" width="1.06926" height="1.06926" fill="white"/>
<rect x="41.1689" y="55.6816" width="1.06926" height="1.06926" fill="white"/>
<rect x="36.8926" y="49.2676" width="1.06926" height="1.06926" fill="white"/>
<rect x="36.8926" y="50.3359" width="1.06926" height="1.06927" fill="white"/>
<rect x="36.8926" y="51.4062" width="1.06926" height="1.06926" fill="white"/>
<rect x="19.7842" y="26.8096" width="1.06926" height="1.06926" fill="white"/>
<rect x="19.7842" y="27.8828" width="1.06926" height="1.06926" fill="white"/>
<rect x="19.7842" y="28.9482" width="1.06926" height="1.06926" fill="white"/>
<rect x="19.7842" y="30.0205" width="1.06926" height="1.06926" fill="white"/>
<rect x="19.7842" y="31.0889" width="1.06926" height="1.06926" fill="white"/>
<rect x="20.8535" y="32.1582" width="1.06926" height="1.06926" fill="white"/>
<rect x="20.8535" y="26.8096" width="1.06926" height="1.06926" fill="white"/>
<rect x="20.8535" y="25.7432" width="1.06926" height="1.06926" fill="white"/>
<rect x="21.9229" y="25.7432" width="1.06926" height="1.06926" fill="white"/>
<rect x="22.9932" y="24.6729" width="1.06926" height="1.06926" fill="white"/>
<rect x="24.0596" y="24.6729" width="1.06926" height="1.06926" fill="white"/>
<rect x="25.1309" y="23.6074" width="1.06926" height="1.06926" fill="white"/>
<rect x="26.1982" y="23.6074" width="1.06926" height="1.06926" fill="white"/>
<rect x="27.2686" y="22.5342" width="1.06926" height="1.06926" fill="white"/>
<rect x="28.3389" y="22.5342" width="1.06926" height="1.06926" fill="white"/>
<rect x="22.9932" y="25.7432" width="1.06926" height="1.06926" fill="white"/>
<rect x="24.0596" y="25.7432" width="1.06926" height="1.06926" fill="white"/>
<rect x="25.1309" y="24.6729" width="1.06926" height="1.06926" fill="white"/>
<rect x="26.1982" y="24.6729" width="1.06926" height="1.06926" fill="white"/>
<rect x="27.2686" y="23.6074" width="1.06926" height="1.06926" fill="white"/>
<rect x="28.3389" y="21.4639" width="1.06926" height="1.06926" fill="white"/>
<rect x="29.4072" y="21.4639" width="1.06926" height="1.06926" fill="white"/>
<rect x="29.4072" y="22.5342" width="1.06926" height="1.06926" fill="white"/>
<rect x="30.4775" y="20.3965" width="1.06926" height="1.06926" fill="white"/>
<rect x="31.5439" y="20.3965" width="1.06926" height="1.06926" fill="white"/>
<rect x="32.6152" y="19.3252" width="1.06926" height="1.06926" fill="white"/>
<rect x="33.6865" y="19.3252" width="1.06926" height="1.06926" fill="white"/>
<rect x="34.7529" y="18.2568" width="1.06926" height="1.06926" fill="white"/>
<rect x="30.4775" y="21.4639" width="1.06926" height="1.06926" fill="white"/>
<rect x="31.5439" y="21.4639" width="1.06926" height="1.06926" fill="white"/>
<rect x="32.6152" y="20.3965" width="1.06926" height="1.06926" fill="white"/>
<rect x="33.6865" y="20.3965" width="1.06926" height="1.06926" fill="white"/>
<rect x="34.7529" y="19.3252" width="1.06926" height="1.06926" fill="white"/>
<rect x="35.8232" y="18.2568" width="1.06926" height="1.06926" fill="white"/>
<rect x="37.9619" y="16.1191" width="1.06926" height="1.06926" fill="white"/>
<rect x="39.0303" y="16.1191" width="1.06926" height="1.06926" fill="white"/>
<rect x="40.1006" y="15.0498" width="1.06926" height="1.06926" fill="white"/>
<rect x="41.1689" y="15.0498" width="1.06926" height="1.06926" fill="white"/>
<rect x="36.8926" y="17.1885" width="1.06926" height="1.06926" fill="white"/>
<rect x="37.9619" y="17.1885" width="1.06926" height="1.06926" fill="white"/>
<rect x="39.0303" y="17.1885" width="1.06926" height="1.06926" fill="white"/>
<rect x="40.1006" y="16.1191" width="1.06926" height="1.06926" fill="white"/>
<rect x="41.1689" y="16.1191" width="1.06926" height="1.06926" fill="white"/>
<rect x="42.2402" y="16.1191" width="1.06926" height="1.06926" fill="white"/>
<rect x="42.2402" y="17.1885" width="1.06926" height="1.06926" fill="white"/>
<rect x="43.3076" y="17.1885" width="1.06926" height="1.06926" fill="white"/>
<rect x="43.3076" y="18.2568" width="1.06926" height="1.06926" fill="white"/>
<rect x="59.3467" y="30.0205" width="1.06926" height="1.06926" fill="white"/>
<rect x="62.5537" y="32.1582" width="1.06926" height="1.06926" fill="white"/>
<rect x="63.6221" y="33.2285" width="1.06926" height="1.06926" fill="white"/>
<rect x="64.6914" y="34.2959" width="1.06925" height="1.06926" fill="white"/>
<rect x="48.6543" y="21.4639" width="1.06926" height="1.06926" fill="white"/>
<rect x="45.4443" y="20.3965" width="1.06926" height="1.06926" fill="white"/>
<rect x="45.4443" y="19.3252" width="1.06926" height="1.06926" fill="white"/>
<rect x="46.5156" y="19.3252" width="1.06926" height="1.06926" fill="white"/>
<rect x="46.5156" y="20.3965" width="1.06926" height="1.06926" fill="white"/>
<rect x="47.5869" y="20.3965" width="1.06926" height="1.06926" fill="white"/>
<rect x="46.5156" y="21.4639" width="1.06926" height="1.06926" fill="white"/>
<rect x="47.5869" y="21.4639" width="1.06926" height="1.06926" fill="white"/>
<rect x="49.7236" y="22.5342" width="1.06926" height="1.06926" fill="white"/>
<rect x="48.6543" y="22.5342" width="1.06926" height="1.06926" fill="white"/>
<rect x="50.791" y="23.6074" width="1.06926" height="1.06926" fill="white"/>
<rect x="49.7236" y="23.6074" width="1.06926" height="1.06926" fill="white"/>
<rect x="52.9297" y="24.6729" width="1.06927" height="1.06926" fill="white"/>
<rect x="51.8623" y="24.6729" width="1.06926" height="1.06926" fill="white"/>
<rect x="54.001" y="25.7432" width="1.06926" height="1.06926" fill="white"/>
<rect x="52.9297" y="25.7432" width="1.06927" height="1.06926" fill="white"/>
<rect x="50.791" y="24.6729" width="1.06926" height="1.06926" fill="white"/>
<rect x="51.8623" y="25.7432" width="1.06926" height="1.06926" fill="white"/>
<rect x="51.8623" y="27.8828" width="1.06926" height="1.06926" fill="white"/>
<rect x="52.9297" y="27.8828" width="1.06927" height="1.06926" fill="white"/>
<rect x="54.001" y="28.9482" width="1.06926" height="1.06926" fill="white"/>
<rect x="55.0703" y="30.0205" width="1.06926" height="1.06926" fill="white"/>
<rect x="56.1406" y="30.0205" width="1.06926" height="1.06926" fill="white"/>
<rect x="56.1406" y="26.8096" width="1.06926" height="1.06926" fill="white"/>
<rect x="55.0703" y="26.8096" width="1.06926" height="1.06926" fill="white"/>
<rect x="54.001" y="26.8096" width="1.06926" height="1.06926" fill="white"/>
<rect x="58.2773" y="28.9482" width="1.06925" height="1.06926" fill="white"/>
<rect x="57.209" y="28.9482" width="1.06926" height="1.06926" fill="white"/>
<rect x="61.4854" y="31.0889" width="1.06926" height="1.06926" fill="white"/>
<rect x="60.416" y="31.0889" width="1.06926" height="1.06926" fill="white"/>
<rect x="55.0703" y="27.8828" width="1.06926" height="1.06926" fill="white"/>
<rect x="57.209" y="27.8828" width="1.06926" height="1.06926" fill="white"/>
<rect x="59.3467" y="33.2285" width="1.06926" height="1.06926" fill="white"/>
<rect x="58.2773" y="32.1582" width="1.06925" height="1.06926" fill="white"/>
<rect x="60.416" y="34.2959" width="1.06926" height="1.06926" fill="white"/>
<rect x="57.209" y="31.0889" width="1.06926" height="1.06926" fill="white"/>
<rect x="42.2402" y="19.3252" width="1.06926" height="1.06926" fill="white"/>
<rect x="41.1689" y="18.2568" width="1.06926" height="1.06926" fill="white"/>
<rect x="43.3076" y="20.3965" width="1.06926" height="1.06926" fill="white"/>
<rect x="46.5156" y="23.6074" width="1.06926" height="1.06926" fill="white"/>
<rect x="45.4443" y="22.5342" width="1.06926" height="1.06926" fill="white"/>
<rect x="47.5869" y="24.6729" width="1.06926" height="1.06926" fill="white"/>
<rect x="48.6543" y="24.6729" width="1.06926" height="1.06926" fill="white"/>
<rect x="47.5869" y="23.6074" width="1.06926" height="1.06926" fill="white"/>
<rect x="44.377" y="21.4639" width="1.06926" height="1.06926" fill="white"/>
<rect x="56.1406" y="27.8828" width="1.06926" height="1.06926" fill="white"/>
<rect x="44.377" y="18.2568" width="1.06926" height="1.06926" fill="white"/>
<rect x="44.377" y="19.3252" width="1.06926" height="1.06926" fill="white"/>
<rect x="36.8926" y="18.2568" width="1.06926" height="1.06926" fill="white"/>
<rect x="20.8535" y="27.8828" width="1.06926" height="1.06926" fill="white"/>
<rect x="20.8535" y="28.9482" width="1.06926" height="1.06926" fill="white"/>
<rect x="20.8535" y="30.0205" width="1.06926" height="1.06926" fill="white"/>
<rect x="20.8535" y="31.0889" width="1.06926" height="1.06926" fill="white"/>
<rect x="21.9229" y="33.2285" width="1.06926" height="1.06926" fill="white"/>
<rect x="21.9229" y="32.1582" width="1.06926" height="1.06926" fill="white"/>
<rect x="21.9229" y="28.9482" width="1.06926" height="1.06926" fill="white"/>
<rect x="21.9229" y="30.0205" width="1.06926" height="1.06926" fill="white"/>
<rect x="21.9229" y="31.0889" width="1.06926" height="1.06926" fill="white"/>
<rect x="22.9932" y="34.2959" width="1.06926" height="1.06926" fill="white"/>
<rect x="22.9932" y="33.2285" width="1.06926" height="1.06926" fill="white"/>
<rect x="22.9932" y="32.1582" width="1.06926" height="1.06926" fill="white"/>
<rect x="24.0596" y="35.3662" width="1.06926" height="1.06926" fill="white"/>
<rect x="24.0596" y="34.2959" width="1.06926" height="1.06926" fill="white"/>
<rect x="24.0596" y="33.2285" width="1.06926" height="1.06926" fill="white"/>
<rect x="25.1309" y="36.4346" width="1.06926" height="1.06926" fill="white"/>
<rect x="25.1309" y="35.3662" width="1.06926" height="1.06926" fill="white"/>
<rect x="25.1309" y="34.2959" width="1.06926" height="1.06926" fill="white"/>
<rect x="26.1982" y="37.5059" width="1.06926" height="1.06926" fill="white"/>
<rect x="26.1982" y="36.4346" width="1.06926" height="1.06926" fill="white"/>
<rect x="26.1982" y="35.3662" width="1.06926" height="1.06926" fill="white"/>
<rect x="27.2686" y="38.5703" width="1.06926" height="1.06926" fill="white"/>
<rect x="27.2686" y="37.5059" width="1.06926" height="1.06926" fill="white"/>
<rect x="27.2686" y="36.4346" width="1.06926" height="1.06926" fill="white"/>
<rect x="28.3389" y="39.6426" width="1.06926" height="1.06926" fill="white"/>
<rect x="28.3389" y="38.5703" width="1.06926" height="1.06926" fill="white"/>
<rect x="28.3389" y="37.5059" width="1.06926" height="1.06926" fill="white"/>
<rect x="29.4072" y="40.7139" width="1.06926" height="1.06926" fill="white"/>
<rect x="29.4072" y="39.6426" width="1.06926" height="1.06926" fill="white"/>
<rect x="29.4072" y="38.5703" width="1.06926" height="1.06926" fill="white"/>
<rect x="30.4775" y="41.7812" width="1.06926" height="1.06926" fill="white"/>
<rect x="30.4775" y="40.7139" width="1.06926" height="1.06926" fill="white"/>
<rect x="30.4775" y="39.6426" width="1.06926" height="1.06926" fill="white"/>
<rect x="31.5439" y="42.8525" width="1.06926" height="1.06926" fill="white"/>
<rect x="31.5439" y="41.7812" width="1.06926" height="1.06926" fill="white"/>
<rect x="31.5439" y="40.7139" width="1.06926" height="1.06926" fill="white"/>
<rect x="32.6152" y="43.9199" width="1.06926" height="1.06926" fill="white"/>
<rect x="32.6152" y="42.8525" width="1.06926" height="1.06926" fill="white"/>
<rect x="32.6152" y="41.7812" width="1.06926" height="1.06926" fill="white"/>
<rect x="33.6865" y="44.9893" width="1.06926" height="1.06926" fill="white"/>
<rect x="33.6865" y="43.9199" width="1.06926" height="1.06926" fill="white"/>
<rect x="34.7529" y="46.0566" width="1.06926" height="1.06926" fill="white"/>
<rect x="34.7529" y="44.9893" width="1.06926" height="1.06926" fill="white"/>
<rect x="35.8232" y="47.1279" width="1.06926" height="1.06926" fill="white"/>
<rect x="35.8232" y="46.0566" width="1.06926" height="1.06926" fill="white"/>
<rect x="36.8926" y="48.1953" width="1.06926" height="1.06926" fill="white"/>
<rect x="36.8926" y="47.1279" width="1.06926" height="1.06926" fill="white"/>
<rect x="37.9619" y="49.2676" width="1.06926" height="1.06926" fill="white"/>
<rect x="37.9619" y="48.1953" width="1.06926" height="1.06926" fill="white"/>
<rect x="39.0303" y="50.3359" width="1.06926" height="1.06927" fill="white"/>
<rect x="39.0303" y="49.2676" width="1.06926" height="1.06926" fill="white"/>
<rect x="39.0303" y="48.1953" width="1.06926" height="1.06926" fill="white"/>
<rect x="40.1006" y="51.4062" width="1.06926" height="1.06926" fill="white"/>
<rect x="40.1006" y="50.3359" width="1.06926" height="1.06927" fill="white"/>
<rect x="41.1689" y="52.4746" width="1.06926" height="1.06926" fill="white"/>
<rect x="41.1689" y="53.543" width="1.06926" height="1.06927" fill="white"/>
<rect x="41.1689" y="51.4062" width="1.06926" height="1.06926" fill="white"/>
<rect x="42.2402" y="54.6123" width="1.06926" height="1.06926" fill="white"/>
<rect x="42.2402" y="55.6816" width="1.06926" height="1.06926" fill="white"/>
<rect x="42.2402" y="52.4746" width="1.06926" height="1.06926" fill="white"/>
<rect x="42.2402" y="53.543" width="1.06926" height="1.06927" fill="white"/>
<rect x="42.2402" y="51.4062" width="1.06926" height="1.06926" fill="white"/>
<rect x="44.377" y="51.4062" width="1.06926" height="1.06926" fill="white"/>
<rect x="45.4443" y="51.4062" width="1.06926" height="1.06926" fill="white"/>
<rect x="43.3076" y="50.3359" width="1.06926" height="1.06927" fill="white"/>
<rect x="44.377" y="50.3359" width="1.06926" height="1.06927" fill="white"/>
<rect x="45.4443" y="50.3359" width="1.06926" height="1.06927" fill="white"/>
<rect x="42.2402" y="49.2676" width="1.06926" height="1.06926" fill="white"/>
<rect x="43.3076" y="49.2676" width="1.06926" height="1.06926" fill="white"/>
<rect x="44.377" y="49.2676" width="1.06926" height="1.06926" fill="white"/>
<rect x="41.1689" y="48.1953" width="1.06926" height="1.06926" fill="white"/>
<rect x="42.2402" y="48.1953" width="1.06926" height="1.06926" fill="white"/>
<rect x="43.3076" y="48.1953" width="1.06926" height="1.06926" fill="white"/>
<rect x="40.1006" y="47.1279" width="1.06926" height="1.06926" fill="white"/>
<rect x="41.1689" y="47.1279" width="1.06926" height="1.06926" fill="white"/>
<rect x="42.2402" y="47.1279" width="1.06926" height="1.06926" fill="white"/>
<rect x="39.0303" y="46.0566" width="1.06926" height="1.06926" fill="white"/>
<rect x="40.1006" y="46.0566" width="1.06926" height="1.06926" fill="white"/>
<rect x="41.1689" y="46.0566" width="1.06926" height="1.06926" fill="white"/>
<rect x="37.9619" y="44.9893" width="1.06926" height="1.06926" fill="white"/>
<rect x="39.0303" y="44.9893" width="1.06926" height="1.06926" fill="white"/>
<rect x="40.1006" y="44.9893" width="1.06926" height="1.06926" fill="white"/>
<rect x="36.8926" y="43.9199" width="1.06926" height="1.06926" fill="white"/>
<rect x="37.9619" y="43.9199" width="1.06926" height="1.06926" fill="white"/>
<rect x="39.0303" y="43.9199" width="1.06926" height="1.06926" fill="white"/>
<rect x="35.8232" y="42.8525" width="1.06926" height="1.06926" fill="white"/>
<rect x="36.8926" y="42.8525" width="1.06926" height="1.06926" fill="white"/>
<rect x="35.8232" y="41.7812" width="1.06926" height="1.06926" fill="white"/>
<rect x="36.8926" y="41.7812" width="1.06926" height="1.06926" fill="white"/>
<rect x="34.7529" y="40.7139" width="1.06926" height="1.06926" fill="white"/>
<rect x="35.8232" y="40.7139" width="1.06926" height="1.06926" fill="white"/>
<rect x="33.6865" y="39.6426" width="1.06926" height="1.06926" fill="white"/>
<rect x="34.7529" y="39.6426" width="1.06926" height="1.06926" fill="white"/>
<rect x="32.6152" y="38.5703" width="1.06926" height="1.06926" fill="white"/>
<rect x="33.6865" y="38.5703" width="1.06926" height="1.06926" fill="white"/>
<rect x="31.5439" y="37.5059" width="1.06926" height="1.06926" fill="white"/>
<rect x="32.6152" y="37.5059" width="1.06926" height="1.06926" fill="white"/>
<rect x="30.4775" y="36.4346" width="1.06926" height="1.06926" fill="white"/>
<rect x="31.5439" y="36.4346" width="1.06926" height="1.06926" fill="white"/>
<rect x="29.4072" y="35.3662" width="1.06926" height="1.06926" fill="white"/>
<rect x="30.4775" y="35.3662" width="1.06926" height="1.06926" fill="white"/>
<rect x="28.3389" y="34.2959" width="1.06926" height="1.06926" fill="white"/>
<rect x="29.4072" y="34.2959" width="1.06926" height="1.06926" fill="white"/>
<rect x="27.2686" y="33.2285" width="1.06926" height="1.06926" fill="white"/>
<rect x="28.3389" y="33.2285" width="1.06926" height="1.06926" fill="white"/>
<rect x="26.1982" y="32.1582" width="1.06926" height="1.06926" fill="white"/>
<rect x="27.2686" y="32.1582" width="1.06926" height="1.06926" fill="white"/>
<rect x="25.1309" y="31.0889" width="1.06926" height="1.06926" fill="white"/>
<rect x="26.1982" y="31.0889" width="1.06926" height="1.06926" fill="white"/>
<rect x="25.1309" y="30.0205" width="1.06926" height="1.06926" fill="white"/>
<rect x="24.0596" y="28.9482" width="1.06926" height="1.06926" fill="white"/>
<rect x="22.9932" y="27.8828" width="1.06926" height="1.06926" fill="white"/>
<rect x="31.5439" y="33.2285" width="1.06926" height="1.06926" fill="white"/>
<rect x="30.4775" y="32.1582" width="1.06926" height="1.06926" fill="white"/>
<rect x="29.4072" y="31.0889" width="1.06926" height="1.06926" fill="white"/>
<rect x="28.3389" y="30.0205" width="1.06926" height="1.06926" fill="white"/>
<rect x="27.2686" y="28.9482" width="1.06926" height="1.06926" fill="white"/>
<rect x="26.1982" y="27.8828" width="1.06926" height="1.06926" fill="white"/>
<rect x="25.1309" y="26.8096" width="1.06926" height="1.06926" fill="white"/>
<rect x="39.0303" y="40.7139" width="1.06926" height="1.06926" fill="white"/>
<rect x="37.9619" y="38.5703" width="1.06926" height="1.06926" fill="white"/>
<rect x="37.9619" y="39.6426" width="1.06926" height="1.06926" fill="white"/>
<rect x="36.8926" y="38.5703" width="1.06926" height="1.06926" fill="white"/>
<rect x="40.1006" y="38.5703" width="1.06926" height="1.06926" fill="white"/>
<rect x="39.0303" y="38.5703" width="1.06926" height="1.06926" fill="white"/>
<rect x="42.2402" y="38.5703" width="1.06926" height="1.06926" fill="white"/>
<rect x="41.1689" y="38.5703" width="1.06926" height="1.06926" fill="white"/>
<rect x="44.377" y="38.5703" width="1.06926" height="1.06926" fill="white"/>
<rect x="43.3076" y="38.5703" width="1.06926" height="1.06926" fill="white"/>
<rect x="46.5156" y="38.5703" width="1.06926" height="1.06926" fill="white"/>
<rect x="45.4443" y="38.5703" width="1.06926" height="1.06926" fill="white"/>
<rect x="48.6543" y="38.5703" width="1.06926" height="1.06926" fill="white"/>
<rect x="47.5869" y="38.5703" width="1.06926" height="1.06926" fill="white"/>
<rect x="50.791" y="38.5703" width="1.06926" height="1.06926" fill="white"/>
<rect x="49.7236" y="38.5703" width="1.06926" height="1.06926" fill="white"/>
<rect x="52.9297" y="38.5703" width="1.06927" height="1.06926" fill="white"/>
<rect x="51.8623" y="38.5703" width="1.06926" height="1.06926" fill="white"/>
<rect x="55.0703" y="38.5703" width="1.06926" height="1.06926" fill="white"/>
<rect x="54.001" y="38.5703" width="1.06926" height="1.06926" fill="white"/>
<rect x="57.209" y="38.5703" width="1.06926" height="1.06926" fill="white"/>
<rect x="56.1406" y="38.5703" width="1.06926" height="1.06926" fill="white"/>
<rect x="40.1006" y="39.6426" width="1.06926" height="1.06926" fill="white"/>
<rect x="39.0303" y="39.6426" width="1.06926" height="1.06926" fill="white"/>
<rect x="42.2402" y="39.6426" width="1.06926" height="1.06926" fill="white"/>
<rect x="41.1689" y="39.6426" width="1.06926" height="1.06926" fill="white"/>
<rect x="44.377" y="39.6426" width="1.06926" height="1.06926" fill="white"/>
<rect x="43.3076" y="39.6426" width="1.06926" height="1.06926" fill="white"/>
<rect x="46.5156" y="39.6426" width="1.06926" height="1.06926" fill="white"/>
<rect x="45.4443" y="39.6426" width="1.06926" height="1.06926" fill="white"/>
<rect x="48.6543" y="39.6426" width="1.06926" height="1.06926" fill="white"/>
<rect x="47.5869" y="39.6426" width="1.06926" height="1.06926" fill="white"/>
<rect x="50.791" y="39.6426" width="1.06926" height="1.06926" fill="white"/>
<rect x="49.7236" y="39.6426" width="1.06926" height="1.06926" fill="white"/>
<rect x="52.9297" y="39.6426" width="1.06927" height="1.06926" fill="white"/>
<rect x="51.8623" y="39.6426" width="1.06926" height="1.06926" fill="white"/>
<rect x="55.0703" y="39.6426" width="1.06926" height="1.06926" fill="white"/>
<rect x="54.001" y="39.6426" width="1.06926" height="1.06926" fill="white"/>
<rect x="40.1006" y="40.7139" width="1.06926" height="1.06926" fill="white"/>
<rect x="42.2402" y="40.7139" width="1.06926" height="1.06926" fill="white"/>
<rect x="41.1689" y="40.7139" width="1.06926" height="1.06926" fill="white"/>
<rect x="44.377" y="40.7139" width="1.06926" height="1.06926" fill="white"/>
<rect x="43.3076" y="40.7139" width="1.06926" height="1.06926" fill="white"/>
<rect x="46.5156" y="40.7139" width="1.06926" height="1.06926" fill="white"/>
<rect x="45.4443" y="40.7139" width="1.06926" height="1.06926" fill="white"/>
<rect x="48.6543" y="40.7139" width="1.06926" height="1.06926" fill="white"/>
<rect x="47.5869" y="40.7139" width="1.06926" height="1.06926" fill="white"/>
<rect x="50.791" y="40.7139" width="1.06926" height="1.06926" fill="white"/>
<rect x="49.7236" y="40.7139" width="1.06926" height="1.06926" fill="white"/>
<rect x="52.9297" y="40.7139" width="1.06927" height="1.06926" fill="white"/>
<rect x="51.8623" y="40.7139" width="1.06926" height="1.06926" fill="white"/>
<rect x="55.0703" y="40.7139" width="1.06926" height="1.06926" fill="white"/>
<rect x="54.001" y="40.7139" width="1.06926" height="1.06926" fill="white"/>
<rect x="42.2402" y="41.7812" width="1.06926" height="1.06926" fill="white"/>
<rect x="41.1689" y="41.7812" width="1.06926" height="1.06926" fill="white"/>
<rect x="44.377" y="41.7812" width="1.06926" height="1.06926" fill="white"/>
<rect x="43.3076" y="41.7812" width="1.06926" height="1.06926" fill="white"/>
<rect x="46.5156" y="41.7812" width="1.06926" height="1.06926" fill="white"/>
<rect x="45.4443" y="41.7812" width="1.06926" height="1.06926" fill="white"/>
<rect x="48.6543" y="41.7812" width="1.06926" height="1.06926" fill="white"/>
<rect x="47.5869" y="41.7812" width="1.06926" height="1.06926" fill="white"/>
<rect x="50.791" y="41.7812" width="1.06926" height="1.06926" fill="white"/>
<rect x="49.7236" y="41.7812" width="1.06926" height="1.06926" fill="white"/>
<rect x="52.9297" y="41.7812" width="1.06927" height="1.06926" fill="white"/>
<rect x="51.8623" y="41.7812" width="1.06926" height="1.06926" fill="white"/>
<rect x="42.2402" y="42.8525" width="1.06926" height="1.06926" fill="white"/>
<rect x="44.377" y="42.8525" width="1.06926" height="1.06926" fill="white"/>
<rect x="43.3076" y="42.8525" width="1.06926" height="1.06926" fill="white"/>
<rect x="46.5156" y="42.8525" width="1.06926" height="1.06926" fill="white"/>
<rect x="45.4443" y="42.8525" width="1.06926" height="1.06926" fill="white"/>
<rect x="48.6543" y="42.8525" width="1.06926" height="1.06926" fill="white"/>
<rect x="47.5869" y="42.8525" width="1.06926" height="1.06926" fill="white"/>
<rect x="50.791" y="42.8525" width="1.06926" height="1.06926" fill="white"/>
<rect x="49.7236" y="42.8525" width="1.06926" height="1.06926" fill="white"/>
<rect x="52.9297" y="42.8525" width="1.06927" height="1.06926" fill="white"/>
<rect x="51.8623" y="42.8525" width="1.06926" height="1.06926" fill="white"/>
<rect x="44.377" y="43.9199" width="1.06926" height="1.06926" fill="white"/>
<rect x="43.3076" y="43.9199" width="1.06926" height="1.06926" fill="white"/>
<rect x="46.5156" y="43.9199" width="1.06926" height="1.06926" fill="white"/>
<rect x="45.4443" y="43.9199" width="1.06926" height="1.06926" fill="white"/>
<rect x="48.6543" y="43.9199" width="1.06926" height="1.06926" fill="white"/>
<rect x="47.5869" y="43.9199" width="1.06926" height="1.06926" fill="white"/>
<rect x="50.791" y="43.9199" width="1.06926" height="1.06926" fill="white"/>
<rect x="49.7236" y="43.9199" width="1.06926" height="1.06926" fill="white"/>
<rect x="44.377" y="44.9893" width="1.06926" height="1.06926" fill="white"/>
<rect x="46.5156" y="44.9893" width="1.06926" height="1.06926" fill="white"/>
<rect x="45.4443" y="44.9893" width="1.06926" height="1.06926" fill="white"/>
<rect x="48.6543" y="44.9893" width="1.06926" height="1.06926" fill="white"/>
<rect x="47.5869" y="44.9893" width="1.06926" height="1.06926" fill="white"/>
<rect x="50.791" y="44.9893" width="1.06926" height="1.06926" fill="white"/>
<rect x="49.7236" y="44.9893" width="1.06926" height="1.06926" fill="white"/>
<rect x="46.5156" y="46.0566" width="1.06926" height="1.06926" fill="white"/>
<rect x="45.4443" y="46.0566" width="1.06926" height="1.06926" fill="white"/>
<rect x="48.6543" y="46.0566" width="1.06926" height="1.06926" fill="white"/>
<rect x="47.5869" y="46.0566" width="1.06926" height="1.06926" fill="white"/>
<rect x="46.5156" y="47.1279" width="1.06926" height="1.06926" fill="white"/>
<rect x="48.6543" y="47.1279" width="1.06926" height="1.06926" fill="white"/>
<rect x="47.5869" y="47.1279" width="1.06926" height="1.06926" fill="white"/>
<rect x="49.7236" y="46.0566" width="1.06926" height="1.06926" fill="white"/>
<rect x="51.8623" y="43.9199" width="1.06926" height="1.06926" fill="white"/>
<rect x="54.001" y="41.7812" width="1.06926" height="1.06926" fill="white"/>
<rect x="57.209" y="39.6426" width="1.06926" height="1.06926" fill="white"/>
<rect x="56.1406" y="39.6426" width="1.06926" height="1.06926" fill="white"/>
<rect x="35.8232" y="37.5059" width="1.06926" height="1.06926" fill="white"/>
<rect x="34.7529" y="36.4346" width="1.06926" height="1.06926" fill="white"/>
<rect x="33.6865" y="35.3662" width="1.06926" height="1.06926" fill="white"/>
<rect x="32.6152" y="34.2959" width="1.06926" height="1.06926" fill="white"/>
<rect x="46.5156" y="48.1953" width="1.06926" height="1.06926" fill="white"/>
<rect x="47.5869" y="49.2676" width="1.06926" height="1.06926" fill="white"/>
<rect x="47.5869" y="48.1953" width="1.06926" height="1.06926" fill="white"/>
<rect x="45.4443" y="47.1279" width="1.06926" height="1.06926" fill="white"/>
<rect x="44.377" y="46.0566" width="1.06926" height="1.06926" fill="white"/>
<rect x="43.3076" y="44.9893" width="1.06926" height="1.06926" fill="white"/>
<rect x="42.2402" y="43.9199" width="1.06926" height="1.06926" fill="white"/>
<rect x="41.1689" y="42.8525" width="1.06926" height="1.06926" fill="white"/>
<rect x="40.1006" y="41.7812" width="1.06926" height="1.06926" fill="white"/>
<rect x="21.9229" y="26.8096" width="1.06926" height="1.06926" fill="white"/>
<rect x="37.9619" y="42.8525" width="1.06926" height="1.06926" fill="white"/>
<rect x="43.3076" y="57.8193" width="1.06926" height="1.06926" fill="white"/>
<rect x="43.3076" y="55.6816" width="1.06926" height="1.06926" fill="white"/>
<rect x="43.3076" y="56.751" width="1.06926" height="1.06926" fill="white"/>
<rect x="43.3076" y="53.543" width="1.06926" height="1.06927" fill="white"/>
<rect x="43.3076" y="54.6123" width="1.06926" height="1.06926" fill="white"/>
<rect x="44.377" y="58.8906" width="1.06926" height="1.06925" fill="white"/>
<rect x="44.377" y="56.751" width="1.06926" height="1.06926" fill="white"/>
<rect x="44.377" y="57.8193" width="1.06926" height="1.06926" fill="white"/>
<rect x="44.377" y="54.6123" width="1.06926" height="1.06926" fill="white"/>
<rect x="44.377" y="55.6816" width="1.06926" height="1.06926" fill="white"/>
<rect x="45.4443" y="58.8906" width="1.06926" height="1.06925" fill="white"/>
<rect x="45.4443" y="57.8193" width="1.06926" height="1.06926" fill="white"/>
<rect x="46.5156" y="58.8906" width="1.06926" height="1.06925" fill="white"/>
<rect x="46.5156" y="57.8193" width="1.06926" height="1.06926" fill="white"/>
<rect x="47.5869" y="56.751" width="1.06926" height="1.06926" fill="white"/>
<rect x="47.5869" y="57.8193" width="1.06926" height="1.06926" fill="white"/>
<rect x="48.6543" y="55.6816" width="1.06926" height="1.06926" fill="white"/>
<rect x="48.6543" y="56.751" width="1.06926" height="1.06926" fill="white"/>
<rect x="49.7236" y="54.6123" width="1.06926" height="1.06926" fill="white"/>
<rect x="49.7236" y="55.6816" width="1.06926" height="1.06926" fill="white"/>
<rect x="50.791" y="53.543" width="1.06926" height="1.06927" fill="white"/>
<rect x="50.791" y="54.6123" width="1.06926" height="1.06926" fill="white"/>
<rect x="51.8623" y="52.4746" width="1.06926" height="1.06926" fill="white"/>
<rect x="51.8623" y="53.543" width="1.06926" height="1.06927" fill="white"/>
<rect x="54.001" y="50.3359" width="1.06926" height="1.06927" fill="white"/>
<rect x="54.001" y="51.4062" width="1.06926" height="1.06926" fill="white"/>
<rect x="52.9297" y="51.4062" width="1.06927" height="1.06926" fill="white"/>
<rect x="52.9297" y="52.4746" width="1.06927" height="1.06926" fill="white"/>
<rect x="55.0703" y="49.2676" width="1.06926" height="1.06926" fill="white"/>
<rect x="55.0703" y="50.3359" width="1.06926" height="1.06927" fill="white"/>
<rect x="57.209" y="47.1279" width="1.06926" height="1.06926" fill="white"/>
<rect x="57.209" y="48.1953" width="1.06926" height="1.06926" fill="white"/>
<rect x="56.1406" y="48.1953" width="1.06926" height="1.06926" fill="white"/>
<rect x="56.1406" y="49.2676" width="1.06926" height="1.06926" fill="white"/>
<rect x="58.2773" y="46.0566" width="1.06925" height="1.06926" fill="white"/>
<rect x="58.2773" y="47.1279" width="1.06925" height="1.06926" fill="white"/>
<rect x="61.4854" y="43.9199" width="1.06926" height="1.06926" fill="white"/>
<rect x="46.5156" y="54.6123" width="1.06926" height="1.06926" fill="white"/>
<rect x="45.4443" y="53.543" width="1.06926" height="1.06927" fill="white"/>
<rect x="46.5156" y="53.543" width="1.06926" height="1.06927" fill="white"/>
<rect x="45.4443" y="52.4746" width="1.06926" height="1.06926" fill="white"/>
<rect x="46.5156" y="52.4746" width="1.06926" height="1.06926" fill="white"/>
<rect x="47.5869" y="52.4746" width="1.06926" height="1.06926" fill="white"/>
<rect x="46.5156" y="51.4062" width="1.06926" height="1.06926" fill="white"/>
<rect x="47.5869" y="51.4062" width="1.06926" height="1.06926" fill="white"/>
<rect x="48.6543" y="51.4062" width="1.06926" height="1.06926" fill="white"/>
<rect x="49.7236" y="51.4062" width="1.06926" height="1.06926" fill="white"/>
<rect x="48.6543" y="50.3359" width="1.06926" height="1.06927" fill="white"/>
<rect x="49.7236" y="50.3359" width="1.06926" height="1.06927" fill="white"/>
<rect x="50.791" y="50.3359" width="1.06926" height="1.06927" fill="white"/>
<rect x="49.7236" y="49.2676" width="1.06926" height="1.06926" fill="white"/>
<rect x="50.791" y="49.2676" width="1.06926" height="1.06926" fill="white"/>
<rect x="50.791" y="48.1953" width="1.06926" height="1.06926" fill="white"/>
<rect x="48.6543" y="48.1953" width="1.06926" height="1.06926" fill="white"/>
<rect x="49.7236" y="47.1279" width="1.06926" height="1.06926" fill="white"/>
<rect x="50.791" y="46.0566" width="1.06926" height="1.06926" fill="white"/>
<rect x="51.8623" y="44.9893" width="1.06926" height="1.06926" fill="white"/>
<rect x="52.9297" y="43.9199" width="1.06927" height="1.06926" fill="white"/>
<rect x="54.001" y="42.8525" width="1.06926" height="1.06926" fill="white"/>
<rect x="55.0703" y="41.7812" width="1.06926" height="1.06926" fill="white"/>
<rect x="56.1406" y="40.7139" width="1.06926" height="1.06926" fill="white"/>
<rect x="54.001" y="43.9199" width="1.06926" height="1.06926" fill="white"/>
<rect x="55.0703" y="42.8525" width="1.06926" height="1.06926" fill="white"/>
<rect x="56.1406" y="41.7812" width="1.06926" height="1.06926" fill="white"/>
<rect x="57.209" y="40.7139" width="1.06926" height="1.06926" fill="white"/>
<rect x="58.2773" y="39.6426" width="1.06925" height="1.06926" fill="white"/>
<rect x="58.2773" y="38.5703" width="1.06925" height="1.06926" fill="white"/>
<rect x="59.3467" y="38.5703" width="1.06926" height="1.06926" fill="white"/>
<rect x="37.9619" y="37.5059" width="1.06926" height="1.06926" fill="white"/>
<rect x="36.8926" y="37.5059" width="1.06926" height="1.06926" fill="white"/>
<rect x="40.1006" y="37.5059" width="1.06926" height="1.06926" fill="white"/>
<rect x="39.0303" y="37.5059" width="1.06926" height="1.06926" fill="white"/>
<rect x="42.2402" y="37.5059" width="1.06926" height="1.06926" fill="white"/>
<rect x="41.1689" y="37.5059" width="1.06926" height="1.06926" fill="white"/>
<rect x="43.3076" y="37.5059" width="1.06926" height="1.06926" fill="white"/>
<rect x="48.6543" y="37.5059" width="1.06926" height="1.06926" fill="white"/>
<rect x="47.5869" y="37.5059" width="1.06926" height="1.06926" fill="white"/>
<rect x="50.791" y="37.5059" width="1.06926" height="1.06926" fill="white"/>
<rect x="49.7236" y="37.5059" width="1.06926" height="1.06926" fill="white"/>
<rect x="52.9297" y="37.5059" width="1.06927" height="1.06926" fill="white"/>
<rect x="51.8623" y="37.5059" width="1.06926" height="1.06926" fill="white"/>
<rect x="55.0703" y="37.5059" width="1.06926" height="1.06926" fill="white"/>
<rect x="54.001" y="37.5059" width="1.06926" height="1.06926" fill="white"/>
<rect x="57.209" y="37.5059" width="1.06926" height="1.06926" fill="white"/>
<rect x="56.1406" y="37.5059" width="1.06926" height="1.06926" fill="white"/>
<rect x="58.2773" y="37.5059" width="1.06925" height="1.06926" fill="white"/>
<rect x="59.3467" y="37.5059" width="1.06926" height="1.06926" fill="white"/>
<rect x="60.416" y="37.5059" width="1.06926" height="1.06926" fill="white"/>
<rect x="35.8232" y="36.4346" width="1.06926" height="1.06926" fill="white"/>
<rect x="37.9619" y="36.4346" width="1.06926" height="1.06926" fill="white"/>
<rect x="36.8926" y="36.4346" width="1.06926" height="1.06926" fill="white"/>
<rect x="40.1006" y="36.4346" width="1.06926" height="1.06926" fill="white"/>
<rect x="39.0303" y="36.4346" width="1.06926" height="1.06926" fill="white"/>
<rect x="44.377" y="36.4346" width="1.06926" height="1.06926" fill="white"/>
<rect x="46.5156" y="36.4346" width="1.06926" height="1.06926" fill="white"/>
<rect x="48.6543" y="35.3662" width="1.06926" height="1.06926" fill="white"/>
<rect x="50.791" y="36.4346" width="1.06926" height="1.06926" fill="white"/>
<rect x="49.7236" y="36.4346" width="1.06926" height="1.06926" fill="white"/>
<rect x="52.9297" y="36.4346" width="1.06927" height="1.06926" fill="white"/>
<rect x="51.8623" y="36.4346" width="1.06926" height="1.06926" fill="white"/>
<rect x="55.0703" y="36.4346" width="1.06926" height="1.06926" fill="white"/>
<rect x="54.001" y="36.4346" width="1.06926" height="1.06926" fill="white"/>
<rect x="57.209" y="36.4346" width="1.06926" height="1.06926" fill="white"/>
<rect x="56.1406" y="36.4346" width="1.06926" height="1.06926" fill="white"/>
<rect x="58.2773" y="36.4346" width="1.06925" height="1.06926" fill="white"/>
<rect x="59.3467" y="36.4346" width="1.06926" height="1.06926" fill="white"/>
<rect x="60.416" y="36.4346" width="1.06926" height="1.06926" fill="white"/>
<rect x="34.7529" y="35.3662" width="1.06926" height="1.06926" fill="white"/>
<rect x="35.8232" y="35.3662" width="1.06926" height="1.06926" fill="white"/>
<rect x="37.9619" y="35.3662" width="1.06926" height="1.06926" fill="white"/>
<rect x="36.8926" y="35.3662" width="1.06926" height="1.06926" fill="white"/>
<rect x="39.0303" y="35.3662" width="1.06926" height="1.06926" fill="white"/>
<rect x="42.2402" y="35.3662" width="1.06926" height="1.06926" fill="white"/>
<rect x="41.1689" y="35.3662" width="1.06926" height="1.06926" fill="white"/>
<rect x="43.3076" y="35.3662" width="1.06926" height="1.06926" fill="white"/>
<rect x="46.5156" y="35.3662" width="1.06926" height="1.06926" fill="white"/>
<rect x="47.5869" y="35.3662" width="1.06926" height="1.06926" fill="white"/>
<rect x="50.791" y="35.3662" width="1.06926" height="1.06926" fill="white"/>
<rect x="52.9297" y="35.3662" width="1.06927" height="1.06926" fill="white"/>
<rect x="51.8623" y="35.3662" width="1.06926" height="1.06926" fill="white"/>
<rect x="55.0703" y="35.3662" width="1.06926" height="1.06926" fill="white"/>
<rect x="54.001" y="35.3662" width="1.06926" height="1.06926" fill="white"/>
<rect x="57.209" y="35.3662" width="1.06926" height="1.06926" fill="white"/>
<rect x="56.1406" y="35.3662" width="1.06926" height="1.06926" fill="white"/>
<rect x="58.2773" y="35.3662" width="1.06925" height="1.06926" fill="white"/>
<rect x="59.3467" y="35.3662" width="1.06926" height="1.06926" fill="white"/>
<rect x="33.6865" y="34.2959" width="1.06926" height="1.06926" fill="white"/>
<rect x="34.7529" y="34.2959" width="1.06926" height="1.06926" fill="white"/>
<rect x="35.8232" y="34.2959" width="1.06926" height="1.06926" fill="white"/>
<rect x="37.9619" y="34.2959" width="1.06926" height="1.06926" fill="white"/>
<rect x="36.8926" y="34.2959" width="1.06926" height="1.06926" fill="white"/>
<rect x="40.1006" y="34.2959" width="1.06926" height="1.06926" fill="white"/>
<rect x="42.2402" y="34.2959" width="1.06926" height="1.06926" fill="white"/>
<rect x="41.1689" y="34.2959" width="1.06926" height="1.06926" fill="white"/>
<rect x="46.5156" y="34.2959" width="1.06926" height="1.06926" fill="white"/>
<rect x="48.6543" y="34.2959" width="1.06926" height="1.06926" fill="white"/>
<rect x="47.5869" y="34.2959" width="1.06926" height="1.06926" fill="white"/>
<rect x="50.791" y="34.2959" width="1.06926" height="1.06926" fill="white"/>
<rect x="52.9297" y="34.2959" width="1.06927" height="1.06926" fill="white"/>
<rect x="51.8623" y="34.2959" width="1.06926" height="1.06926" fill="white"/>
<rect x="55.0703" y="34.2959" width="1.06926" height="1.06926" fill="white"/>
<rect x="54.001" y="34.2959" width="1.06926" height="1.06926" fill="white"/>
<rect x="57.209" y="34.2959" width="1.06926" height="1.06926" fill="white"/>
<rect x="56.1406" y="34.2959" width="1.06926" height="1.06926" fill="white"/>
<rect x="58.2773" y="34.2959" width="1.06925" height="1.06926" fill="white"/>
<rect x="32.6152" y="33.2285" width="1.06926" height="1.06926" fill="white"/>
<rect x="33.6865" y="33.2285" width="1.06926" height="1.06926" fill="white"/>
<rect x="34.7529" y="33.2285" width="1.06926" height="1.06926" fill="white"/>
<rect x="35.8232" y="33.2285" width="1.06926" height="1.06926" fill="white"/>
<rect x="36.8926" y="33.2285" width="1.06926" height="1.06926" fill="white"/>
<rect x="40.1006" y="33.2285" width="1.06926" height="1.06926" fill="white"/>
<rect x="39.0303" y="33.2285" width="1.06926" height="1.06926" fill="white"/>
<rect x="42.2402" y="33.2285" width="1.06926" height="1.06926" fill="white"/>
<rect x="41.1689" y="33.2285" width="1.06926" height="1.06926" fill="white"/>
<rect x="44.377" y="33.2285" width="1.06926" height="1.06926" fill="white"/>
<rect x="46.5156" y="33.2285" width="1.06926" height="1.06926" fill="white"/>
<rect x="48.6543" y="33.2285" width="1.06926" height="1.06926" fill="white"/>
<rect x="47.5869" y="33.2285" width="1.06926" height="1.06926" fill="white"/>
<rect x="50.791" y="33.2285" width="1.06926" height="1.06926" fill="white"/>
<rect x="52.9297" y="33.2285" width="1.06927" height="1.06926" fill="white"/>
<rect x="51.8623" y="33.2285" width="1.06926" height="1.06926" fill="white"/>
<rect x="55.0703" y="33.2285" width="1.06926" height="1.06926" fill="white"/>
<rect x="54.001" y="33.2285" width="1.06926" height="1.06926" fill="white"/>
<rect x="57.209" y="33.2285" width="1.06926" height="1.06926" fill="white"/>
<rect x="56.1406" y="33.2285" width="1.06926" height="1.06926" fill="white"/>
<rect x="31.5439" y="32.1582" width="1.06926" height="1.06926" fill="white"/>
<rect x="32.6152" y="32.1582" width="1.06926" height="1.06926" fill="white"/>
<rect x="33.6865" y="32.1582" width="1.06926" height="1.06926" fill="white"/>
<rect x="34.7529" y="32.1582" width="1.06926" height="1.06926" fill="white"/>
<rect x="35.8232" y="32.1582" width="1.06926" height="1.06926" fill="white"/>
<rect x="50.791" y="32.1582" width="1.06926" height="1.06926" fill="white"/>
<rect x="52.9297" y="32.1582" width="1.06927" height="1.06926" fill="white"/>
<rect x="51.8623" y="32.1582" width="1.06926" height="1.06926" fill="white"/>
<rect x="55.0703" y="32.1582" width="1.06926" height="1.06926" fill="white"/>
<rect x="54.001" y="32.1582" width="1.06926" height="1.06926" fill="white"/>
<rect x="57.209" y="32.1582" width="1.06926" height="1.06926" fill="white"/>
<rect x="56.1406" y="32.1582" width="1.06926" height="1.06926" fill="white"/>
<rect x="30.4775" y="31.0889" width="1.06926" height="1.06926" fill="white"/>
<rect x="31.5439" y="31.0889" width="1.06926" height="1.06926" fill="white"/>
<rect x="32.6152" y="31.0889" width="1.06926" height="1.06926" fill="white"/>
<rect x="33.6865" y="31.0889" width="1.06926" height="1.06926" fill="white"/>
<rect x="34.7529" y="31.0889" width="1.06926" height="1.06926" fill="white"/>
<rect x="35.8232" y="31.0889" width="1.06926" height="1.06926" fill="white"/>
<rect x="37.9619" y="31.0889" width="1.06926" height="1.06926" fill="white"/>
<rect x="40.1006" y="31.0889" width="1.06926" height="1.06926" fill="white"/>
<rect x="42.2402" y="31.0889" width="1.06926" height="1.06926" fill="white"/>
<rect x="43.3076" y="31.0889" width="1.06926" height="1.06926" fill="white"/>
<rect x="45.4443" y="31.0889" width="1.06926" height="1.06926" fill="white"/>
<rect x="48.6543" y="31.0889" width="1.06926" height="1.06926" fill="white"/>
<rect x="50.791" y="31.0889" width="1.06926" height="1.06926" fill="white"/>
<rect x="52.9297" y="31.0889" width="1.06927" height="1.06926" fill="white"/>
<rect x="51.8623" y="31.0889" width="1.06926" height="1.06926" fill="white"/>
<rect x="55.0703" y="31.0889" width="1.06926" height="1.06926" fill="white"/>
<rect x="54.001" y="31.0889" width="1.06926" height="1.06926" fill="white"/>
<rect x="29.4072" y="30.0205" width="1.06926" height="1.06926" fill="white"/>
<rect x="30.4775" y="30.0205" width="1.06926" height="1.06926" fill="white"/>
<rect x="31.5439" y="30.0205" width="1.06926" height="1.06926" fill="white"/>
<rect x="32.6152" y="30.0205" width="1.06926" height="1.06926" fill="white"/>
<rect x="33.6865" y="30.0205" width="1.06926" height="1.06926" fill="white"/>
<rect x="34.7529" y="30.0205" width="1.06926" height="1.06926" fill="white"/>
<rect x="37.9619" y="30.0205" width="1.06926" height="1.06926" fill="white"/>
<rect x="36.8926" y="30.0205" width="1.06926" height="1.06926" fill="white"/>
<rect x="39.0303" y="30.0205" width="1.06926" height="1.06926" fill="white"/>
<rect x="42.2402" y="30.0205" width="1.06926" height="1.06926" fill="white"/>
<rect x="41.1689" y="30.0205" width="1.06926" height="1.06926" fill="white"/>
<rect x="43.3076" y="30.0205" width="1.06926" height="1.06926" fill="white"/>
<rect x="46.5156" y="30.0205" width="1.06926" height="1.06926" fill="white"/>
<rect x="47.5869" y="30.0205" width="1.06926" height="1.06926" fill="white"/>
<rect x="50.791" y="30.0205" width="1.06926" height="1.06926" fill="white"/>
<rect x="49.7236" y="30.0205" width="1.06926" height="1.06926" fill="white"/>
<rect x="52.9297" y="30.0205" width="1.06927" height="1.06926" fill="white"/>
<rect x="51.8623" y="30.0205" width="1.06926" height="1.06926" fill="white"/>
<rect x="28.3389" y="28.9482" width="1.06926" height="1.06926" fill="white"/>
<rect x="29.4072" y="28.9482" width="1.06926" height="1.06926" fill="white"/>
<rect x="30.4775" y="28.9482" width="1.06926" height="1.06926" fill="white"/>
<rect x="31.5439" y="28.9482" width="1.06926" height="1.06926" fill="white"/>
<rect x="32.6152" y="28.9482" width="1.06926" height="1.06926" fill="white"/>
<rect x="33.6865" y="28.9482" width="1.06926" height="1.06926" fill="white"/>
<rect x="34.7529" y="28.9482" width="1.06926" height="1.06926" fill="white"/>
<rect x="37.9619" y="28.9482" width="1.06926" height="1.06926" fill="white"/>
<rect x="36.8926" y="28.9482" width="1.06926" height="1.06926" fill="white"/>
<rect x="39.0303" y="28.9482" width="1.06926" height="1.06926" fill="white"/>
<rect x="40.1006" y="27.8809" width="1.06926" height="1.06925" fill="white"/>
<rect x="46.5156" y="28.9482" width="1.06926" height="1.06926" fill="white"/>
<rect x="45.4443" y="28.9482" width="1.06926" height="1.06926" fill="white"/>
<rect x="47.5869" y="28.9482" width="1.06926" height="1.06926" fill="white"/>
<rect x="50.791" y="28.9482" width="1.06926" height="1.06926" fill="white"/>
<rect x="49.7236" y="28.9482" width="1.06926" height="1.06926" fill="white"/>
<rect x="27.2686" y="27.8828" width="1.06926" height="1.06926" fill="white"/>
<rect x="28.3389" y="27.8828" width="1.06926" height="1.06926" fill="white"/>
<rect x="29.4072" y="27.8828" width="1.06926" height="1.06926" fill="white"/>
<rect x="30.4775" y="27.8828" width="1.06926" height="1.06926" fill="white"/>
<rect x="31.5439" y="27.8828" width="1.06926" height="1.06926" fill="white"/>
<rect x="32.6152" y="27.8828" width="1.06926" height="1.06926" fill="white"/>
<rect x="33.6865" y="27.8828" width="1.06926" height="1.06926" fill="white"/>
<rect x="34.7529" y="27.8828" width="1.06926" height="1.06926" fill="white"/>
<rect x="37.9619" y="27.8828" width="1.06926" height="1.06926" fill="white"/>
<rect x="36.8926" y="27.8828" width="1.06926" height="1.06926" fill="white"/>
<rect x="42.2402" y="27.8828" width="1.06926" height="1.06926" fill="white"/>
<rect x="46.5156" y="27.8828" width="1.06926" height="1.06926" fill="white"/>
<rect x="45.4443" y="27.8828" width="1.06926" height="1.06926" fill="white"/>
<rect x="48.6543" y="27.8828" width="1.06926" height="1.06926" fill="white"/>
<rect x="50.791" y="27.8828" width="1.06926" height="1.06926" fill="white"/>
<rect x="49.7236" y="27.8828" width="1.06926" height="1.06926" fill="white"/>
<rect x="26.1982" y="26.8096" width="1.06926" height="1.06926" fill="white"/>
<rect x="27.2686" y="26.8096" width="1.06926" height="1.06926" fill="white"/>
<rect x="28.3389" y="26.8096" width="1.06926" height="1.06926" fill="white"/>
<rect x="29.4072" y="26.8096" width="1.06926" height="1.06926" fill="white"/>
<rect x="30.4775" y="26.8096" width="1.06926" height="1.06926" fill="white"/>
<rect x="31.5439" y="26.8096" width="1.06926" height="1.06926" fill="white"/>
<rect x="32.6152" y="26.8096" width="1.06926" height="1.06926" fill="white"/>
<rect x="33.6865" y="26.8096" width="1.06926" height="1.06926" fill="white"/>
<rect x="34.7529" y="26.8096" width="1.06926" height="1.06926" fill="white"/>
<rect x="35.8232" y="26.8096" width="1.06926" height="1.06926" fill="white"/>
<rect x="40.1006" y="26.8096" width="1.06926" height="1.06926" fill="white"/>
<rect x="42.2402" y="26.8096" width="1.06926" height="1.06926" fill="white"/>
<rect x="41.1689" y="26.8096" width="1.06926" height="1.06926" fill="white"/>
<rect x="43.3076" y="26.8096" width="1.06926" height="1.06926" fill="white"/>
<rect x="48.6543" y="26.8096" width="1.06926" height="1.06926" fill="white"/>
<rect x="47.5869" y="26.8096" width="1.06926" height="1.06926" fill="white"/>
<rect x="50.791" y="26.8096" width="1.06926" height="1.06926" fill="white"/>
<rect x="49.7236" y="26.8096" width="1.06926" height="1.06926" fill="white"/>
<rect x="27.2686" y="25.7432" width="1.06926" height="1.06926" fill="white"/>
<rect x="28.3389" y="25.7432" width="1.06926" height="1.06926" fill="white"/>
<rect x="29.4072" y="25.7432" width="1.06926" height="1.06926" fill="white"/>
<rect x="30.4775" y="25.7432" width="1.06926" height="1.06926" fill="white"/>
<rect x="31.5439" y="25.7432" width="1.06926" height="1.06926" fill="white"/>
<rect x="32.6152" y="25.7432" width="1.06926" height="1.06926" fill="white"/>
<rect x="33.6865" y="25.7432" width="1.06926" height="1.06926" fill="white"/>
<rect x="34.7529" y="25.7432" width="1.06926" height="1.06926" fill="white"/>
<rect x="35.8232" y="25.7432" width="1.06926" height="1.06926" fill="white"/>
<rect x="40.1006" y="25.7432" width="1.06926" height="1.06926" fill="white"/>
<rect x="39.0303" y="25.7432" width="1.06926" height="1.06926" fill="white"/>
<rect x="41.1689" y="25.7432" width="1.06926" height="1.06926" fill="white"/>
<rect x="46.5156" y="25.7432" width="1.06926" height="1.06926" fill="white"/>
<rect x="45.4443" y="25.7432" width="1.06926" height="1.06926" fill="white"/>
<rect x="28.3389" y="24.6729" width="1.06926" height="1.06926" fill="white"/>
<rect x="29.4072" y="24.6729" width="1.06926" height="1.06926" fill="white"/>
<rect x="30.4775" y="24.6729" width="1.06926" height="1.06926" fill="white"/>
<rect x="31.5439" y="24.6729" width="1.06926" height="1.06926" fill="white"/>
<rect x="32.6152" y="24.6729" width="1.06926" height="1.06926" fill="white"/>
<rect x="33.6865" y="24.6729" width="1.06926" height="1.06926" fill="white"/>
<rect x="34.7529" y="24.6729" width="1.06926" height="1.06926" fill="white"/>
<rect x="35.8232" y="24.6729" width="1.06926" height="1.06926" fill="white"/>
<rect x="37.9619" y="24.6729" width="1.06926" height="1.06926" fill="white"/>
<rect x="36.8926" y="24.6729" width="1.06926" height="1.06926" fill="white"/>
<rect x="42.2402" y="24.6729" width="1.06926" height="1.06926" fill="white"/>
<rect x="44.377" y="24.6729" width="1.06926" height="1.06926" fill="white"/>
<rect x="43.3076" y="24.6729" width="1.06926" height="1.06926" fill="white"/>
<rect x="46.5156" y="24.6729" width="1.06926" height="1.06926" fill="white"/>
<rect x="45.4443" y="24.6729" width="1.06926" height="1.06926" fill="white"/>
<rect x="30.4775" y="23.6074" width="1.06926" height="1.06926" fill="white"/>
<rect x="31.5439" y="23.6074" width="1.06926" height="1.06926" fill="white"/>
<rect x="32.6152" y="23.6074" width="1.06926" height="1.06926" fill="white"/>
<rect x="33.6865" y="23.6074" width="1.06926" height="1.06926" fill="white"/>
<rect x="34.7529" y="23.6074" width="1.06926" height="1.06926" fill="white"/>
<rect x="35.8232" y="23.6074" width="1.06926" height="1.06926" fill="white"/>
<rect x="37.9619" y="23.6074" width="1.06926" height="1.06926" fill="white"/>
<rect x="36.8926" y="23.6074" width="1.06926" height="1.06926" fill="white"/>
<rect x="40.1006" y="23.6074" width="1.06926" height="1.06926" fill="white"/>
<rect x="39.0303" y="23.6074" width="1.06926" height="1.06926" fill="white"/>
<rect x="42.2402" y="23.6074" width="1.06926" height="1.06926" fill="white"/>
<rect x="41.1689" y="23.6074" width="1.06926" height="1.06926" fill="white"/>
<rect x="44.377" y="23.6074" width="1.06926" height="1.06926" fill="white"/>
<rect x="43.3076" y="23.6074" width="1.06926" height="1.06926" fill="white"/>
<rect x="32.6152" y="22.5342" width="1.06926" height="1.06926" fill="white"/>
<rect x="33.6865" y="22.5342" width="1.06926" height="1.06926" fill="white"/>
<rect x="34.7529" y="22.5342" width="1.06926" height="1.06926" fill="white"/>
<rect x="35.8232" y="22.5342" width="1.06926" height="1.06926" fill="white"/>
<rect x="37.9619" y="22.5342" width="1.06926" height="1.06926" fill="white"/>
<rect x="36.8926" y="22.5342" width="1.06926" height="1.06926" fill="white"/>
<rect x="40.1006" y="22.5342" width="1.06926" height="1.06926" fill="white"/>
<rect x="39.0303" y="22.5342" width="1.06926" height="1.06926" fill="white"/>
<rect x="42.2402" y="22.5342" width="1.06926" height="1.06926" fill="white"/>
<rect x="41.1689" y="22.5342" width="1.06926" height="1.06926" fill="white"/>
<rect x="44.377" y="22.5342" width="1.06926" height="1.06926" fill="white"/>
<rect x="43.3076" y="22.5342" width="1.06926" height="1.06926" fill="white"/>
<rect x="34.7529" y="21.4639" width="1.06926" height="1.06926" fill="white"/>
<rect x="35.8232" y="21.4639" width="1.06926" height="1.06926" fill="white"/>
<rect x="37.9619" y="21.4639" width="1.06926" height="1.06926" fill="white"/>
<rect x="36.8926" y="21.4639" width="1.06926" height="1.06926" fill="white"/>
<rect x="40.1006" y="21.4639" width="1.06926" height="1.06926" fill="white"/>
<rect x="39.0303" y="21.4639" width="1.06926" height="1.06926" fill="white"/>
<rect x="42.2402" y="21.4639" width="1.06926" height="1.06926" fill="white"/>
<rect x="41.1689" y="21.4639" width="1.06926" height="1.06926" fill="white"/>
<rect x="37.9619" y="20.3965" width="1.06926" height="1.06926" fill="white"/>
<rect x="36.8926" y="20.3965" width="1.06926" height="1.06926" fill="white"/>
<rect x="40.1006" y="20.3965" width="1.06926" height="1.06926" fill="white"/>
<rect x="39.0303" y="20.3965" width="1.06926" height="1.06926" fill="white"/>
<rect x="42.2402" y="20.3965" width="1.06926" height="1.06926" fill="white"/>
<rect x="41.1689" y="20.3965" width="1.06926" height="1.06926" fill="white"/>
<rect x="35.8232" y="19.3252" width="1.06926" height="1.06926" fill="white"/>
<rect x="37.9619" y="19.3252" width="1.06926" height="1.06926" fill="white"/>
<rect x="40.1006" y="19.3252" width="1.06926" height="1.06926" fill="white"/>
<rect x="39.0303" y="19.3252" width="1.06926" height="1.06926" fill="white"/>
<rect x="40.1006" y="18.2568" width="1.06926" height="1.06926" fill="white"/>
<rect x="41.1689" y="19.3252" width="1.06926" height="1.06926" fill="white"/>
<rect x="43.3076" y="21.4639" width="1.06926" height="1.06926" fill="white"/>
<rect x="45.4443" y="23.6074" width="1.06926" height="1.06926" fill="white"/>
<rect x="48.6543" y="25.7432" width="1.06926" height="1.06926" fill="white"/>
<rect x="47.5869" y="25.7432" width="1.06926" height="1.06926" fill="white"/>
<rect x="49.7236" y="25.7432" width="1.06926" height="1.06926" fill="white"/>
<rect x="52.9297" y="28.9482" width="1.06927" height="1.06926" fill="white"/>
<rect x="51.8623" y="28.9482" width="1.06926" height="1.06926" fill="white"/>
<rect x="54.001" y="30.0205" width="1.06926" height="1.06926" fill="white"/>
<rect x="56.1406" y="31.0889" width="1.06926" height="1.06926" fill="white"/>
<rect x="58.2773" y="33.2285" width="1.06925" height="1.06926" fill="white"/>
<rect x="59.3467" y="34.2959" width="1.06926" height="1.06926" fill="white"/>
<rect x="60.416" y="35.3662" width="1.06926" height="1.06926" fill="white"/>
<rect x="61.4854" y="36.4346" width="1.06926" height="1.06926" fill="white"/>
<rect x="60.416" y="38.5703" width="1.06926" height="1.06926" fill="white"/>
<rect x="61.4854" y="37.5059" width="1.06926" height="1.06926" fill="white"/>
<rect x="62.5537" y="36.4346" width="1.06926" height="1.06926" fill="white"/>
<rect x="63.6221" y="36.4346" width="1.06926" height="1.06926" fill="white"/>
<rect x="61.4854" y="35.3662" width="1.06926" height="1.06926" fill="white"/>
<rect x="61.4854" y="34.2959" width="1.06926" height="1.06926" fill="white"/>
<rect x="62.5537" y="35.3662" width="1.06926" height="1.06926" fill="white"/>
<rect x="63.6221" y="35.3662" width="1.06926" height="1.06926" fill="white"/>
<rect x="51.8623" y="48.1953" width="1.06926" height="1.06926" fill="white"/>
<rect x="51.8623" y="49.2676" width="1.06926" height="1.06926" fill="white"/>
<rect x="52.9297" y="49.2676" width="1.06927" height="1.06926" fill="white"/>
<rect x="54.001" y="48.1953" width="1.06926" height="1.06926" fill="white"/>
<rect x="52.9297" y="48.1953" width="1.06927" height="1.06926" fill="white"/>
<rect x="52.9297" y="47.1279" width="1.06927" height="1.06926" fill="white"/>
<rect x="54.001" y="47.1279" width="1.06926" height="1.06926" fill="white"/>
<rect x="54.001" y="46.0566" width="1.06926" height="1.06926" fill="white"/>
<rect x="56.1406" y="43.9199" width="1.06926" height="1.06926" fill="white"/>
<rect x="55.0703" y="44.9893" width="1.06926" height="1.06926" fill="white"/>
<rect x="55.0703" y="46.0566" width="1.06926" height="1.06926" fill="white"/>
<rect x="55.0703" y="47.1279" width="1.06926" height="1.06926" fill="white"/>
<rect x="56.1406" y="46.0566" width="1.06926" height="1.06926" fill="white"/>
<rect x="57.209" y="44.9893" width="1.06926" height="1.06926" fill="white"/>
<rect x="58.2773" y="43.9199" width="1.06925" height="1.06926" fill="white"/>
<rect x="59.3467" y="42.8525" width="1.06926" height="1.06926" fill="white"/>
<rect x="60.416" y="40.7139" width="1.06926" height="1.06926" fill="white"/>
<rect x="61.4854" y="39.6426" width="1.06926" height="1.06926" fill="white"/>
<rect x="62.5537" y="38.5703" width="1.06926" height="1.06926" fill="white"/>
<rect x="63.6221" y="37.5059" width="1.06926" height="1.06926" fill="white"/>
<rect x="56.1406" y="44.9893" width="1.06926" height="1.06926" fill="white"/>
<rect x="57.209" y="43.9199" width="1.06926" height="1.06926" fill="white"/>
<rect x="58.2773" y="42.8525" width="1.06925" height="1.06926" fill="white"/>
<rect x="59.3467" y="41.7812" width="1.06926" height="1.06926" fill="white"/>
<rect x="60.416" y="41.7812" width="1.06926" height="1.06926" fill="white"/>
<rect x="60.416" y="43.9199" width="1.06926" height="1.06926" fill="white"/>
<rect x="61.4854" y="42.8525" width="1.06926" height="1.06926" fill="white"/>
<rect x="61.4854" y="40.7139" width="1.06926" height="1.06926" fill="white"/>
<rect x="62.5537" y="39.6426" width="1.06926" height="1.06926" fill="white"/>
<rect x="63.6221" y="38.5703" width="1.06926" height="1.06926" fill="white"/>
<rect x="63.6221" y="39.6426" width="1.06926" height="1.06926" fill="white"/>
<rect x="64.6914" y="37.5059" width="1.06925" height="1.06926" fill="white"/>
<rect x="64.6914" y="36.4346" width="1.06925" height="1.06926" fill="white"/>
<rect x="65.7617" y="36.4346" width="1.06926" height="1.06926" fill="white"/>
<rect x="66.833" y="35.3662" width="1.06925" height="1.06926" fill="white"/>
<rect x="64.6914" y="38.5703" width="1.06925" height="1.06926" fill="white"/>
<rect x="65.7617" y="37.5059" width="1.06926" height="1.06926" fill="white"/>
<rect x="66.833" y="36.4346" width="1.06925" height="1.06926" fill="white"/>
<rect x="64.6914" y="35.3662" width="1.06925" height="1.06926" fill="white"/>
<rect x="65.7617" y="34.2959" width="1.06926" height="1.06926" fill="white"/>
<rect x="65.7617" y="35.3662" width="1.06926" height="1.06926" fill="white"/>
<rect x="62.5537" y="42.8525" width="1.06926" height="1.06926" fill="white"/>
<rect x="62.5537" y="41.7812" width="1.06926" height="1.06926" fill="white"/>
<rect x="63.6221" y="41.7812" width="1.06926" height="1.06926" fill="white"/>
<rect x="63.6221" y="40.7139" width="1.06926" height="1.06926" fill="white"/>
<rect x="60.416" y="44.9893" width="1.06926" height="1.06926" fill="white"/>
<rect x="59.3467" y="44.9893" width="1.06926" height="1.06926" fill="white"/>
<rect x="59.3467" y="46.0566" width="1.06926" height="1.06926" fill="white"/>
<rect x="43.3076" y="52.4746" width="1.06926" height="1.06926" fill="white"/>
<rect x="41.1689" y="50.3359" width="1.06926" height="1.06927" fill="white"/>
<rect x="40.1006" y="49.2676" width="1.06926" height="1.06926" fill="white"/>
<rect x="37.9619" y="47.1279" width="1.06926" height="1.06926" fill="white"/>
<rect x="36.8926" y="46.0566" width="1.06926" height="1.06926" fill="white"/>
<rect x="35.8232" y="44.9893" width="1.06926" height="1.06926" fill="white"/>
<rect x="34.7529" y="43.9199" width="1.06926" height="1.06926" fill="white"/>
<rect x="33.6865" y="42.8525" width="1.06926" height="1.06926" fill="white"/>
<rect x="33.6865" y="41.7812" width="1.06926" height="1.06926" fill="white"/>
<rect x="32.6152" y="40.7139" width="1.06926" height="1.06926" fill="white"/>
<rect x="31.5439" y="39.6426" width="1.06926" height="1.06926" fill="white"/>
<rect x="30.4775" y="38.5703" width="1.06926" height="1.06926" fill="white"/>
<rect x="29.4072" y="37.5059" width="1.06926" height="1.06926" fill="white"/>
<rect x="28.3389" y="36.4346" width="1.06926" height="1.06926" fill="white"/>
<rect x="27.2686" y="35.3662" width="1.06926" height="1.06926" fill="white"/>
<rect x="26.1982" y="34.2959" width="1.06926" height="1.06926" fill="white"/>
<rect x="25.1309" y="33.2285" width="1.06926" height="1.06926" fill="white"/>
<rect x="24.0596" y="32.1582" width="1.06926" height="1.06926" fill="white"/>
<rect x="22.9932" y="30.0205" width="1.06926" height="1.06926" fill="white"/>
<rect x="22.9932" y="31.0889" width="1.06926" height="1.06926" fill="white"/>
</g>
</g>
<defs>
<filter id="filter0_d_4006_98407" x="0.583984" y="0.5" width="81" height="81" filterUnits="userSpaceOnUse" color-interpolation-filters="sRGB">
<feFlood flood-opacity="0" result="BackgroundImageFix"/>
<feColorMatrix in="SourceAlpha" type="matrix" values="0 0 0 0 0 0 0 0 0 0 0 0 0 0 0 0 0 0 127 0" result="hardAlpha"/>
<feOffset dx="-4" dy="4"/>
<feGaussianBlur stdDeviation="1"/>
<feComposite in2="hardAlpha" operator="out"/>
<feColorMatrix type="matrix" values="0 0 0 0 0 0 0 0 0 0 0 0 0 0 0 0 0 0 0.5 0"/>
<feBlend mode="normal" in2="BackgroundImageFix" result="effect1_dropShadow_4006_98407"/>
<feBlend mode="normal" in="SourceGraphic" in2="effect1_dropShadow_4006_98407" result="shape"/>
</filter>
</defs>
</svg>
