<svg width="82" height="82" viewBox="0 0 82 82" fill="none" xmlns="http://www.w3.org/2000/svg">
<g filter="url(#filter0_d_3470_65803)">
<rect x="6.75" y="0.75" width="74.5" height="74.5" rx="4.25" fill="white" stroke="#333333" stroke-width="0.5"/>
<rect x="8" y="2" width="72" height="72" rx="3" fill="#333333" stroke="#E5C5AD" stroke-width="2"/>
<rect x="9.90771" y="3.90234" width="68.1905" height="68.1961" rx="2" fill="#65BAAA"/>
<rect x="12.5747" y="6.57422" width="62.8456" height="62.8507" rx="2.25" stroke="white" stroke-opacity="0.6" stroke-width="0.5"/>
<rect x="11.6001" y="5.60059" width="64.7939" height="64.7992" rx="2.25" stroke="white" stroke-opacity="0.6" stroke-width="0.5"/>
<path d="M56.7253 33.6223C64.7602 32.9134 66.4141 29.1327 64.0478 25.5889C59.7983 19.2244 50.4114 16.719 40.9393 19.5969C29.0192 23.2183 21.1338 34.2323 23.3264 44.1972C25.5188 54.1623 36.9593 59.3047 48.8794 55.6833C54.053 54.1111 58.4664 51.1466 61.6254 47.4795C62.9006 45.9994 63.3424 41.4204 57.4342 41.6572C51.1343 41.9099 50.2619 34.1928 56.7253 33.6223ZM54.6795 24.983C55.2603 24.4029 56.0634 24.0698 56.8852 24.0698C57.7069 24.0698 58.5093 24.4029 59.0909 24.983C59.6717 25.5645 60.0047 26.3676 60.0047 27.1894C60.0047 28.0112 59.6717 28.8135 59.0909 29.3951C58.5093 29.9759 57.7069 30.309 56.8852 30.309C56.0634 30.309 55.2603 29.9759 54.6795 29.3951C54.0987 28.8135 53.7656 28.0112 53.7656 27.1894C53.7656 26.3676 54.0987 25.5645 54.6795 24.983ZM28.3235 35.2215C28.7928 33.8092 30.3173 33.0449 31.7289 33.5136C33.1412 33.9829 33.9062 35.5075 33.4375 36.9191C32.9681 38.3313 31.4429 39.0956 30.0319 38.6276C28.6197 38.1576 27.8548 36.6331 28.3235 35.2215ZM33.4756 47.6075C32.5063 48.6308 30.8905 48.6757 29.8673 47.7073C28.8434 46.738 28.7991 45.1229 29.7684 44.0997C30.7369 43.0757 32.352 43.0308 33.3759 44C34.399 44.9685 34.4441 46.5836 33.4756 47.6075ZM38.62 30.6461C37.349 31.5606 35.5767 31.2712 34.6621 30.0001C33.7476 28.7284 34.037 26.9568 35.308 26.0422V26.0415C36.5798 25.1277 38.3515 25.4171 39.2659 26.6882C40.1806 27.9592 39.8912 29.7315 38.62 30.6461ZM43.5444 25.2661C43.354 23.6323 44.524 22.1549 46.1579 21.9652C47.7911 21.7755 49.2692 22.9456 49.4589 24.5786C49.6492 26.2118 48.4786 27.6898 46.8453 27.8795C45.2116 28.07 43.7341 26.8993 43.5444 25.2661ZM52.6206 47.5806C52.6206 48.5768 52.217 49.5488 51.5129 50.2536C50.8088 50.9576 49.8354 51.3613 48.8392 51.3613C47.8437 51.3613 46.8696 50.9576 46.1662 50.2536C45.4622 49.5488 45.0585 48.5768 45.0585 47.5806C45.0585 46.5844 45.4622 45.6103 46.1662 44.9062C46.8696 44.2027 47.8437 43.7991 48.8392 43.7991C49.8354 43.7991 50.8088 44.2027 51.5129 44.9062C52.217 45.6102 52.6206 46.5843 52.6206 47.5806Z" fill="white" fill-opacity="0.5"/>
</g>
<defs>
<filter id="filter0_d_3470_65803" x="0.5" y="0.5" width="81" height="81" filterUnits="userSpaceOnUse" color-interpolation-filters="sRGB">
<feFlood flood-opacity="0" result="BackgroundImageFix"/>
<feColorMatrix in="SourceAlpha" type="matrix" values="0 0 0 0 0 0 0 0 0 0 0 0 0 0 0 0 0 0 127 0" result="hardAlpha"/>
<feOffset dx="-4" dy="4"/>
<feGaussianBlur stdDeviation="1"/>
<feComposite in2="hardAlpha" operator="out"/>
<feColorMatrix type="matrix" values="0 0 0 0 0 0 0 0 0 0 0 0 0 0 0 0 0 0 0.5 0"/>
<feBlend mode="normal" in2="BackgroundImageFix" result="effect1_dropShadow_3470_65803"/>
<feBlend mode="normal" in="SourceGraphic" in2="effect1_dropShadow_3470_65803" result="shape"/>
</filter>
</defs>
</svg>
