<svg width="82" height="82" viewBox="0 0 82 82" fill="none" xmlns="http://www.w3.org/2000/svg">
<g filter="url(#filter0_d_3470_65776)">
<rect x="6.75" y="0.75" width="74.5" height="74.5" rx="4.25" fill="white" stroke="#333333" stroke-width="0.5"/>
<rect x="8" y="2" width="72" height="72" rx="3" fill="#333333" stroke="#E5C5AD" stroke-width="2"/>
<rect x="9.90771" y="3.90234" width="68.1905" height="68.1961" rx="2" fill="#BA7565"/>
<rect x="12.5747" y="6.57422" width="62.8456" height="62.8507" rx="2.25" stroke="white" stroke-opacity="0.6" stroke-width="0.5"/>
<rect x="11.6001" y="5.59961" width="64.7939" height="64.7992" rx="2.25" stroke="white" stroke-opacity="0.6" stroke-width="0.5"/>
<path d="M56.9173 41.8847C56.463 40.4186 55.8411 38.9004 55.2276 37.7062C54.047 35.4138 53.487 32.1276 54.4163 28.8523C53.0121 28.5586 51.5309 29.5854 51.579 31.2971C51.6298 33.05 50.4369 34.6314 48.7924 34.0837C47.0326 33.4975 47.7107 32.0425 49.0367 30.3514C51.5309 27.1736 48.9214 23.433 46.4011 22.1235C47.4238 24.6314 45.9426 27.5058 44.0511 26.9773C41.9481 26.3926 41.9481 23.9464 43.8054 22.0891C46.4725 19.4233 44.0016 17.319 44.3449 15.5098C43.1232 15.7541 42.5466 17.0389 42.5905 18.1399C42.688 20.5353 40.8747 20.6615 39.598 22.0534C38.0853 23.7021 37.5115 25.7996 38.6234 27.908C40.9707 32.3555 39.7271 34.7248 37.3317 34.1867C35.7133 33.8216 35.3619 30.5683 36.6824 29.3878C34.2967 29.2972 33.0008 31.5416 33.0187 34.8717C33.0283 36.6768 32.2486 39.2163 31.1175 41.8106C30.5354 43.3371 30.2156 44.9912 30.2156 46.7221C30.2158 54.3268 36.3805 60.4902 43.9852 60.4902C51.5899 60.4902 57.7546 54.3268 57.7546 46.722C57.7546 45.0611 57.4568 43.359 56.9173 41.8847ZM43.9852 56.9761C39.5816 56.9761 36.014 53.4071 36.014 49.0035C36.014 45.4715 38.2076 41.1983 38.2076 40.2127C39.7409 40.8689 39.5212 41.9643 39.4128 43.1695C39.3621 43.7199 39.6311 44.3211 40.0154 44.5119C40.279 44.7123 40.677 44.7728 41.034 44.7728C41.9098 44.7728 42.6167 44.0644 42.6167 43.1914C42.6167 42.9113 42.5384 42.6533 42.4122 42.4268C41.9317 41.3355 41.0862 40.3157 42.371 38.1303C43.4664 36.2676 43.4664 34.6245 43.4664 34.6245C43.4664 34.6245 46.205 36.2676 44.8913 38.7879C44.2077 40.0961 44.3628 41.0679 44.9545 41.6541C45.3059 42.0741 45.8276 42.3487 46.4177 42.3487C46.5934 42.3487 46.7582 42.3157 46.9202 42.2718C46.9943 42.2594 47.0629 42.2374 47.1288 42.2086C47.1467 42.2004 47.1645 42.1949 47.181 42.1867C47.192 42.1811 47.2002 42.1757 47.2112 42.1701C47.8674 41.8681 48.3286 41.2092 48.3286 40.4378C48.3286 40.1728 48.2737 39.9216 48.1763 39.691C48.1777 39.6745 48.1777 39.6635 48.1777 39.6635C48.1777 39.6635 51.9553 41.7459 51.9553 49.0034C51.9551 53.4071 48.3861 56.9761 43.9852 56.9761Z" fill="white" fill-opacity="0.5"/>
</g>
<defs>
<filter id="filter0_d_3470_65776" x="0.5" y="0.5" width="81" height="81" filterUnits="userSpaceOnUse" color-interpolation-filters="sRGB">
<feFlood flood-opacity="0" result="BackgroundImageFix"/>
<feColorMatrix in="SourceAlpha" type="matrix" values="0 0 0 0 0 0 0 0 0 0 0 0 0 0 0 0 0 0 127 0" result="hardAlpha"/>
<feOffset dx="-4" dy="4"/>
<feGaussianBlur stdDeviation="1"/>
<feComposite in2="hardAlpha" operator="out"/>
<feColorMatrix type="matrix" values="0 0 0 0 0 0 0 0 0 0 0 0 0 0 0 0 0 0 0.5 0"/>
<feBlend mode="normal" in2="BackgroundImageFix" result="effect1_dropShadow_3470_65776"/>
<feBlend mode="normal" in="SourceGraphic" in2="effect1_dropShadow_3470_65776" result="shape"/>
</filter>
</defs>
</svg>
