<svg width="60" height="43" viewBox="0 0 60 43" fill="none" xmlns="http://www.w3.org/2000/svg" preserveAspectRatio="none">
<g clip-path="url(#clip0_5858_105358)">
<path d="M8.43106 12.2808V8.99952C6.63449 8.99952 5.17805 10.4686 5.17805 12.2808H8.43106ZM8.43106 17.3306V20.6119C10.2276 20.6119 11.6841 19.1428 11.6841 17.3306H8.43106ZM6.00692 17.3306H2.75391C2.75391 19.1428 4.21033 20.6119 6.00692 20.6119V17.3306ZM6.00692 4.48452L5.53362 1.23819C3.93702 1.47503 2.75391 2.85674 2.75391 4.48452H6.00692ZM13.7361 5.19327L11.7786 7.81397C11.7862 7.81974 11.7938 7.82552 11.8015 7.83123L13.7361 5.19327ZM14.3333 10.1368L11.6962 8.21566C11.6884 8.22655 11.6807 8.23748 11.673 8.24847L14.3333 10.1368ZM12.5064 11.4657L11.5201 8.33894C10.1702 8.77219 9.25342 10.0368 9.25342 11.4657H12.5064ZM12.5064 11.5011H9.25342C9.25342 12.6682 9.86795 13.7474 10.8673 14.3354L12.5064 11.5011ZM13.9644 13.6097L17.0043 12.4416C17.0031 12.4383 17.0019 12.4351 17.0006 12.4318L13.9644 13.6097ZM15.3697 17.3306V20.6119C16.4397 20.6119 17.4412 20.0812 18.0483 19.1926C18.6554 18.304 18.7905 17.171 18.4096 16.1625L15.3697 17.3306ZM12.8402 17.3306L9.7865 18.4615C10.2567 19.7533 11.476 20.6119 12.8402 20.6119V17.3306ZM11.5052 13.6628L14.5589 12.5319C14.5563 12.5249 14.5537 12.5178 14.5511 12.5107L11.5052 13.6628ZM10.7849 12.5465L9.00792 15.295L10.7849 12.5465ZM8.43106 10.4026H5.17805C5.17805 12.2148 6.63449 13.6838 8.43106 13.6838V10.4026ZM8.43106 6.25639L7.81293 3.03494C6.28307 3.33362 5.17805 4.68464 5.17805 6.25639H8.43106ZM5.17805 12.2808V17.3306H11.6841V12.2808H5.17805ZM8.43106 14.0494H6.00692V20.6119H8.43106V14.0494ZM9.25993 17.3306V4.48452H2.75391L2.75391 17.3306H9.25993ZM6.4802 7.73086C7.49751 7.57995 8.62585 7.49999 9.8715 7.49999V0.9375C8.35338 0.9375 6.90533 1.03472 5.53362 1.23819L6.4802 7.73086ZM9.8715 7.49999C11.2839 7.49999 11.7389 7.78378 11.7786 7.81397L15.6936 2.57259C14.0235 1.30341 11.9021 0.9375 9.8715 0.9375V7.49999ZM11.8015 7.83123C11.8229 7.84724 11.8198 7.84829 11.8051 7.83064C11.7982 7.82237 11.7903 7.81174 11.7822 7.79911C11.7742 7.78647 11.7673 7.77394 11.7619 7.76239C11.7502 7.73778 11.75 7.72872 11.7534 7.74513C11.7571 7.76304 11.7654 7.81331 11.7654 7.90424H18.2714C18.2714 5.80335 17.438 3.87401 15.6706 2.55533L11.8015 7.83123ZM11.7654 7.90424C11.7654 8.12392 11.7196 8.18291 11.6962 8.21566L16.9705 12.0579C17.8605 10.815 18.2714 9.38559 18.2714 7.90424H11.7654ZM11.673 8.24847C11.6611 8.26547 11.6531 8.27417 11.6497 8.27774C11.6463 8.28119 11.6436 8.28352 11.6401 8.28604C11.6363 8.2888 11.6049 8.3117 11.5201 8.33894L13.4927 14.5925C14.9073 14.1385 16.1188 13.2792 16.9937 12.0252L11.673 8.24847ZM9.25342 11.4657V11.5011H15.7594V11.4657H9.25342ZM10.8673 14.3354C10.6361 14.1993 10.5725 14.0783 10.6244 14.1535C10.6759 14.2279 10.7875 14.4186 10.9282 14.7876L17.0006 12.4318C16.5049 11.1317 15.6748 9.56668 14.1455 8.66686L10.8673 14.3354ZM10.9245 14.7778L12.3298 18.4987L18.4096 16.1625L17.0043 12.4416L10.9245 14.7778ZM15.3697 14.0494H12.8402V20.6119H15.3697V14.0494ZM15.8939 16.1997L14.5589 12.5319L8.45146 14.7937L9.7865 18.4615L15.8939 16.1997ZM14.5511 12.5107C14.2789 11.7787 13.7327 10.5683 12.562 9.79814L9.00792 15.295C8.65103 15.0602 8.48184 14.8124 8.44053 14.7483C8.39437 14.6767 8.4092 14.6803 8.45927 14.815L14.5511 12.5107ZM12.562 9.79814C11.4461 9.06409 10.1484 8.99952 9.39721 8.99952V15.562C9.59431 15.562 9.65862 15.5765 9.62918 15.5709C9.61025 15.5673 9.54392 15.5536 9.44483 15.5176C9.34666 15.4819 9.19041 15.415 9.00792 15.295L12.562 9.79814ZM9.39721 8.99952H8.43106V15.562H9.39721V8.99952ZM8.43106 13.6838H9.46747V7.12133H8.43106V13.6838ZM9.46747 13.6838C10.7982 13.6838 12.3803 13.4623 13.702 12.5111C15.2259 11.4144 15.8473 9.76631 15.8473 8.1523H9.34126C9.34126 8.14557 9.34301 7.9824 9.4516 7.74792C9.56822 7.49615 9.74648 7.29612 9.92319 7.16894C10.0797 7.05633 10.1654 7.04993 10.0828 7.06975C9.99882 7.0899 9.80566 7.12133 9.46747 7.12133V13.6838ZM15.8473 8.1523C15.8473 6.56631 15.2025 4.97602 13.7077 3.94341C12.4344 3.06381 10.9321 2.86884 9.69583 2.86884V9.43133C10.0036 9.43133 10.1736 9.45889 10.2399 9.47418C10.3065 9.48951 10.2048 9.47756 10.0316 9.3579C9.83701 9.2235 9.62941 9.00503 9.48816 8.71234C9.3543 8.43491 9.34126 8.21838 9.34126 8.1523H15.8473ZM9.69583 2.86884C9.06599 2.86884 8.42944 2.91457 7.81293 3.03494L9.0492 9.47786C9.15876 9.4565 9.36539 9.43133 9.69583 9.43133V2.86884ZM5.17805 6.25639V10.4026H11.6841V6.25639H5.17805ZM16.7422 17.3306L13.6686 16.2561C13.3239 17.2592 13.4817 18.3685 14.092 19.2334C14.7023 20.0982 15.6898 20.6119 16.7422 20.6119V17.3306ZM21.1865 4.39592V1.11468C19.8005 1.11468 18.5667 2.00049 18.1128 3.32145L21.1865 4.39592ZM23.8215 4.39592L26.8938 3.31764C26.4388 1.99866 25.206 1.11468 23.8215 1.11468V4.39592ZM28.2833 17.3306V20.6119C29.3364 20.6119 30.3244 20.0976 30.9346 19.2317C31.5448 18.3659 31.7017 17.2557 31.3556 16.2523L28.2833 17.3306ZM25.6483 17.3306L22.5286 18.2604C22.9371 19.6549 24.2067 20.6119 25.6483 20.6119V17.3306ZM24.7349 14.2121L27.8546 13.2824C27.4461 11.8879 26.1765 10.9309 24.7349 10.9309V14.2121ZM20.2204 14.2121V10.9309C18.785 10.9309 17.5194 11.8797 17.1055 13.266L20.2204 14.2121ZM19.2894 17.3306V20.6119C20.7246 20.6119 21.9903 19.663 22.4042 18.2768L19.2894 17.3306ZM20.7649 12.3162L17.6459 11.3841C17.3544 12.3766 17.5443 13.4498 18.1583 14.2794C18.7724 15.1089 19.7386 15.5975 20.7649 15.5975V12.3162ZM24.1728 12.3162V15.5975C25.1991 15.5975 26.1653 15.1089 26.7793 14.2794C27.3934 13.4498 27.5833 12.3766 27.2918 11.3841L24.1728 12.3162ZM22.4864 6.57533L25.6054 5.64316C25.1961 4.24991 23.927 3.29408 22.4864 3.29408V6.57533ZM22.4513 6.57533V3.29408C21.0106 3.29408 19.7416 4.24991 19.3323 5.64319L22.4513 6.57533ZM19.8159 18.4051L24.2602 5.47044L18.1128 3.32145L13.6686 16.2561L19.8159 18.4051ZM21.1865 7.67717H23.8215V1.11468H21.1865V7.67717ZM20.7491 5.47421L25.2109 18.4089L31.3556 16.2523L26.8938 3.31764L20.7491 5.47421ZM28.2833 14.0494H25.6483V20.6119H28.2833V14.0494ZM28.768 16.4009L27.8546 13.2824L21.6152 15.1419L22.5286 18.2604L28.768 16.4009ZM24.7349 10.9309H20.2204V17.4934H24.7349V10.9309ZM17.1055 13.266L16.1745 16.3845L22.4042 18.2768L23.3352 15.1583L17.1055 13.266ZM19.2894 14.0494H16.7422V20.6119H19.2894V14.0494ZM20.7649 15.5975H24.1728V9.03496H20.7649V15.5975ZM27.2918 11.3841L25.6054 5.64316L19.3674 7.5075L21.0538 13.2484L27.2918 11.3841ZM22.4864 3.29408H22.4513V9.85658H22.4864V3.29408ZM19.3323 5.64319L17.6459 11.3841L23.8839 13.2484L25.5703 7.5075L19.3323 5.64319ZM30.1777 17.3306H26.9247C26.9247 19.1428 28.3811 20.6119 30.1777 20.6119V17.3306ZM30.1777 4.39592V1.11468C28.3811 1.11468 26.9247 2.58375 26.9247 4.39592H30.1777ZM32.5843 4.39592L35.3666 2.69614C34.7773 1.7144 33.7221 1.11468 32.5843 1.11468V4.39592ZM37.8718 13.2021L35.0892 14.902C35.6786 15.8837 36.7339 16.4834 37.8718 16.4834V13.2021ZM37.9069 13.2021V16.4834C39.7036 16.4834 41.1599 15.0143 41.1599 13.2021H37.9069ZM37.9069 4.39592V1.11468C36.1103 1.11468 34.6538 2.58375 34.6538 4.39592H37.9069ZM40.3135 4.39592H43.5665C43.5665 2.58375 42.1101 1.11468 40.3135 1.11468V4.39592ZM40.3135 17.3306V20.6119C42.1101 20.6119 43.5665 19.1428 43.5665 17.3306H40.3135ZM37.9069 17.3306L35.1243 19.0304C35.7137 20.0121 36.769 20.6119 37.9069 20.6119V17.3306ZM32.6194 8.52439L35.4018 6.82461C34.8124 5.84286 33.7573 5.24314 32.6194 5.24314V8.52439ZM32.5843 8.52439V5.24314C30.7877 5.24314 29.3312 6.71222 29.3312 8.52439H32.5843ZM32.5843 17.3306V20.6119C34.3809 20.6119 35.8374 19.1428 35.8374 17.3306H32.5843ZM33.4307 17.3306V4.39592H26.9247V17.3306H33.4307ZM30.1777 7.67717H32.5843V1.11468H30.1777V7.67717ZM29.8018 6.09574L35.0892 14.902L40.6541 11.5024L35.3666 2.69614L29.8018 6.09574ZM37.8718 16.4834H37.9069V9.92089H37.8718V16.4834ZM41.1599 13.2021V4.39592H34.6538V13.2021H41.1599ZM37.9069 7.67717H40.3135V1.11468H37.9069V7.67717ZM37.0605 4.39592V17.3306H43.5665V4.39592H37.0605ZM40.3135 14.0494H37.9069V20.6119H40.3135V14.0494ZM40.6892 15.6308L35.4018 6.82461L29.8369 10.2242L35.1243 19.0304L40.6892 15.6308ZM32.6194 5.24314H32.5843V11.8056H32.6194V5.24314ZM29.3312 8.52439V17.3306H35.8374V8.52439H29.3312ZM32.5843 14.0494H30.1777V20.6119H32.5843V14.0494ZM45.5544 4.39592H48.8074C48.8074 2.58375 47.3511 1.11468 45.5544 1.11468V4.39592ZM45.5544 10.0128H42.3014C42.3014 11.825 43.7578 13.294 45.5544 13.294V10.0128ZM45.5896 10.0128V13.294C46.5746 13.294 47.5066 12.8437 48.1243 12.0694L45.5896 10.0128ZM50.069 4.39592V1.11468C49.0836 1.11468 48.1516 1.565 47.5342 2.33928L50.069 4.39592ZM52.9323 4.39592L55.4371 6.48943C56.2412 5.51033 56.4123 4.15068 55.8762 2.99999C55.3398 1.84928 54.1928 1.11468 52.9323 1.11468V4.39592ZM47.838 10.5975L45.3332 8.50402C44.3541 9.6959 44.3339 11.4158 45.2848 12.6307L47.838 10.5975ZM53.1079 17.3306V20.6119C54.3545 20.6119 55.4914 19.8932 56.0353 18.7616C56.5789 17.6299 56.4335 16.2844 55.6612 15.2974L53.1079 17.3306ZM50.2446 17.3306L47.6591 19.3221C48.2746 20.135 49.2307 20.6119 50.2446 20.6119V17.3306ZM45.5896 11.1822L48.1747 9.19068C47.5593 8.37785 46.6035 7.90096 45.5896 7.90096V11.1822ZM45.5544 11.1822V7.90096C43.7578 7.90096 42.3014 9.37004 42.3014 11.1822H45.5544ZM45.5544 17.3306V20.6119C47.3511 20.6119 48.8074 19.1428 48.8074 17.3306H45.5544ZM43.0952 17.3306H39.8421C39.8421 19.1428 41.2985 20.6119 43.0952 20.6119V17.3306ZM43.0952 4.39592V1.11468C41.2985 1.11468 39.8421 2.58375 39.8421 4.39592H43.0952ZM42.3014 4.39592V10.0128H48.8074V4.39592H42.3014ZM45.5544 13.294H45.5896V6.73152H45.5544V13.294ZM48.1243 12.0694L52.6037 6.45258L47.5342 2.33928L43.0548 7.95611L48.1243 12.0694ZM50.069 7.67717H52.9323V1.11468H50.069V7.67717ZM50.4274 2.30244L45.3332 8.50402L50.3429 12.691L55.4371 6.48943L50.4274 2.30244ZM45.2848 12.6307L50.5546 19.3638L55.6612 15.2974L50.3913 8.56429L45.2848 12.6307ZM53.1079 14.0494H50.2446V20.6119H53.1079V14.0494ZM52.8298 15.3391L48.1747 9.19068L43.0041 13.1737L47.6591 19.3221L52.8298 15.3391ZM45.5896 7.90096H45.5544V14.4635H45.5896V7.90096ZM42.3014 11.1822V17.3306H48.8074V11.1822H42.3014ZM45.5544 14.0494H43.0952V20.6119H45.5544V14.0494ZM46.3482 17.3306V4.39592H39.8421V17.3306H46.3482ZM43.0952 7.67717H45.5544V1.11468H43.0952V7.67717Z" fill="#742000"/>
<path d="M8.43106 11.356V8.07473C6.63449 8.07473 5.17805 9.54381 5.17805 11.356H8.43106ZM8.43106 16.4058V19.6871C10.2276 19.6871 11.6841 18.218 11.6841 16.4058H8.43106ZM6.00692 16.4058H2.75391C2.75391 18.218 4.21033 19.6871 6.00692 19.6871V16.4058ZM6.00692 3.55973L5.53362 0.313392C3.93702 0.550223 2.75391 1.93194 2.75391 3.55973H6.00692ZM13.7361 4.26848L11.7786 6.88918C11.7862 6.89495 11.7938 6.90069 11.8015 6.90644L13.7361 4.26848ZM14.3333 9.21201L11.6962 7.29087C11.6884 7.30176 11.6807 7.31269 11.673 7.32368L14.3333 9.21201ZM12.5064 10.5409L11.5201 7.41411C10.1702 7.84737 9.25342 9.11199 9.25342 10.5409H12.5064ZM12.5064 10.5764H9.25342C9.25342 11.7434 9.86795 12.8226 10.8673 13.4106L12.5064 10.5764ZM13.9644 12.6849L17.0043 11.5168C17.0031 11.5135 17.0019 11.5102 17.0006 11.507L13.9644 12.6849ZM15.3697 16.4058V19.6871C16.4397 19.6871 17.4412 19.1564 18.0483 18.2678C18.6554 17.3791 18.7905 16.2462 18.4096 15.2377L15.3697 16.4058ZM12.8402 16.4058L9.7865 17.5367C10.2567 18.8285 11.476 19.6871 12.8402 19.6871V16.4058ZM11.5052 12.738L14.5589 11.6072C14.5563 11.6001 14.5537 11.593 14.5511 11.5859L11.5052 12.738ZM10.7849 11.6218L9.00792 14.3702L10.7849 11.6218ZM8.43106 9.47779H5.17805C5.17805 11.29 6.63449 12.759 8.43106 12.759V9.47779ZM8.43106 5.3316L7.81293 2.11014C6.28307 2.40881 5.17805 3.75982 5.17805 5.3316H8.43106ZM5.17805 11.356V16.4058H11.6841V11.356H5.17805ZM8.43106 13.1246H6.00692V19.6871H8.43106V13.1246ZM9.25993 16.4058V3.55973H2.75391L2.75391 16.4058H9.25993ZM6.4802 6.80606C7.49751 6.65516 8.62585 6.5752 9.8715 6.5752V0.0126953C8.35338 0.0126953 6.90533 0.109918 5.53362 0.313392L6.4802 6.80606ZM9.8715 6.5752C11.2839 6.5752 11.7389 6.85896 11.7786 6.88918L15.6936 1.64779C14.0235 0.378604 11.9021 0.0126953 9.8715 0.0126953V6.5752ZM11.8015 6.90644C11.8229 6.92242 11.8198 6.9235 11.8051 6.90585C11.7982 6.89755 11.7903 6.88691 11.7822 6.87428C11.7742 6.86165 11.7673 6.84915 11.7619 6.8376C11.7502 6.81299 11.75 6.8039 11.7534 6.82034C11.7571 6.83822 11.7654 6.88852 11.7654 6.97944H18.2714C18.2714 4.87853 17.438 2.94921 15.6706 1.63053L11.8015 6.90644ZM11.7654 6.97944C11.7654 7.19912 11.7196 7.25812 11.6962 7.29087L16.9705 11.1331C17.8605 9.89014 18.2714 8.46076 18.2714 6.97944H11.7654ZM11.673 7.32368C11.6611 7.34068 11.6531 7.34937 11.6497 7.35292C11.6463 7.3564 11.6436 7.35872 11.6401 7.36125C11.6363 7.36401 11.6049 7.38691 11.5201 7.41411L13.4927 13.6677C14.9073 13.2137 16.1188 12.3544 16.9937 11.1003L11.673 7.32368ZM9.25342 10.5409V10.5764H15.7594V10.5409H9.25342ZM10.8673 13.4106C10.6361 13.2746 10.5725 13.1535 10.6244 13.2287C10.6759 13.3031 10.7875 13.4938 10.9282 13.8628L17.0006 11.507C16.5049 10.2069 15.6748 8.64189 14.1455 7.74207L10.8673 13.4106ZM10.9245 13.853L12.3298 17.5739L18.4096 15.2377L17.0043 11.5168L10.9245 13.853ZM15.3697 13.1246H12.8402V19.6871H15.3697V13.1246ZM15.8939 15.2749L14.5589 11.6072L8.45146 13.8689L9.7865 17.5367L15.8939 15.2749ZM14.5511 11.5859C14.2789 10.8539 13.7327 9.64352 12.562 8.87335L9.00792 14.3702C8.65103 14.1354 8.48184 13.8875 8.44053 13.8235C8.39437 13.7519 8.4092 13.7555 8.45927 13.8901L14.5511 11.5859ZM12.562 8.87335C11.4461 8.1393 10.1484 8.07473 9.39721 8.07473V14.6372C9.59431 14.6372 9.65862 14.6517 9.62918 14.6461C9.61025 14.6424 9.54392 14.6287 9.44483 14.5928C9.34666 14.5571 9.19041 14.4902 9.00792 14.3702L12.562 8.87335ZM9.39721 8.07473H8.43106V14.6372H9.39721V8.07473ZM8.43106 12.759H9.46747V6.19654H8.43106V12.759ZM9.46747 12.759C10.7982 12.759 12.3803 12.5375 13.702 11.5863C15.2259 10.4896 15.8473 8.84152 15.8473 7.22751H9.34126C9.34126 7.22075 9.34301 7.0576 9.4516 6.82313C9.56822 6.57136 9.74648 6.3713 9.92319 6.24415C10.0797 6.1315 10.1654 6.12511 10.0828 6.14493C9.99882 6.16507 9.80566 6.19654 9.46747 6.19654V12.759ZM15.8473 7.22751C15.8473 5.64152 15.2025 4.05119 13.7077 3.01861C12.4344 2.139 10.9321 1.94404 9.69583 1.94404V8.50654C10.0036 8.50654 10.1736 8.5341 10.2399 8.54939C10.3065 8.56472 10.2048 8.55277 10.0316 8.43307C9.83701 8.29867 9.62941 8.08024 9.48816 7.78755C9.3543 7.51012 9.34126 7.29359 9.34126 7.22751H15.8473ZM9.69583 1.94404C9.06599 1.94404 8.42944 1.98977 7.81293 2.11014L9.0492 8.55307C9.15876 8.53167 9.36539 8.50654 9.69583 8.50654V1.94404ZM5.17805 5.3316V9.47779H11.6841V5.3316H5.17805ZM16.7422 16.4058L13.6686 15.3313C13.3239 16.3344 13.4817 17.4437 14.092 18.3086C14.7023 19.1735 15.6898 19.6871 16.7422 19.6871V16.4058ZM21.1865 3.47113V0.189883C19.8005 0.189883 18.5667 1.07569 18.1128 2.39663L21.1865 3.47113ZM23.8215 3.47113L26.8938 2.39285C26.4388 1.07385 25.206 0.189883 23.8215 0.189883V3.47113ZM28.2833 16.4058V19.6871C29.3364 19.6871 30.3244 19.1728 30.9346 18.3069C31.5448 17.4411 31.7017 16.3308 31.3556 15.3275L28.2833 16.4058ZM25.6483 16.4058L22.5286 17.3356C22.9371 18.7301 24.2067 19.6871 25.6483 19.6871V16.4058ZM24.7349 13.2873L27.8546 12.3576C27.4461 10.9631 26.1765 10.0061 24.7349 10.0061V13.2873ZM20.2204 13.2873V10.0061C18.785 10.0061 17.5194 10.9549 17.1055 12.3412L20.2204 13.2873ZM19.2894 16.4058V19.6871C20.7246 19.6871 21.9903 18.7382 22.4042 17.352L19.2894 16.4058ZM20.7649 11.3914L17.6459 10.4592C17.3544 11.4519 17.5443 12.5251 18.1583 13.3546C18.7724 14.1841 19.7386 14.6727 20.7649 14.6727V11.3914ZM24.1728 11.3914V14.6727C25.1991 14.6727 26.1653 14.1841 26.7793 13.3546C27.3934 12.5251 27.5833 11.4519 27.2918 10.4592L24.1728 11.3914ZM22.4864 5.65054L25.6054 4.71837C25.1961 3.32508 23.927 2.36929 22.4864 2.36929V5.65054ZM22.4513 5.65054V2.36929C21.0106 2.36929 19.7416 3.32508 19.3323 4.71837L22.4513 5.65054ZM19.8159 17.4803L24.2602 4.54564L18.1128 2.39663L13.6686 15.3313L19.8159 17.4803ZM21.1865 6.75238H23.8215V0.189883H21.1865V6.75238ZM20.7491 4.54942L25.2109 17.4841L31.3556 15.3275L26.8938 2.39285L20.7491 4.54942ZM28.2833 13.1246H25.6483V19.6871H28.2833V13.1246ZM28.768 15.4761L27.8546 12.3576L21.6152 14.2171L22.5286 17.3356L28.768 15.4761ZM24.7349 10.0061H20.2204V16.5686H24.7349V10.0061ZM17.1055 12.3412L16.1745 15.4597L22.4042 17.352L23.3352 14.2335L17.1055 12.3412ZM19.2894 13.1246H16.7422V19.6871H19.2894V13.1246ZM20.7649 14.6727H24.1728V8.11016H20.7649V14.6727ZM27.2918 10.4592L25.6054 4.71837L19.3674 6.58271L21.0538 12.3236L27.2918 10.4592ZM22.4864 2.36929H22.4513V8.93179H22.4864V2.36929ZM19.3323 4.71837L17.6459 10.4592L23.8839 12.3236L25.5703 6.58271L19.3323 4.71837ZM30.1777 16.4058H26.9247C26.9247 18.218 28.3811 19.6871 30.1777 19.6871V16.4058ZM30.1777 3.47113V0.189883C28.3811 0.189883 26.9247 1.65895 26.9247 3.47113H30.1777ZM32.5843 3.47113L35.3666 1.77133C34.7773 0.789594 33.7221 0.189883 32.5843 0.189883V3.47113ZM37.8718 12.2773L35.0892 13.9771C35.6786 14.9589 36.7339 15.5586 37.8718 15.5586V12.2773ZM37.9069 12.2773V15.5586C39.7036 15.5586 41.1599 14.0895 41.1599 12.2773H37.9069ZM37.9069 3.47113V0.189883C36.1103 0.189883 34.6538 1.65895 34.6538 3.47113H37.9069ZM40.3135 3.47113H43.5665C43.5665 1.65895 42.1101 0.189883 40.3135 0.189883V3.47113ZM40.3135 16.4058V19.6871C42.1101 19.6871 43.5665 18.218 43.5665 16.4058H40.3135ZM37.9069 16.4058L35.1243 18.1056C35.7137 19.0874 36.769 19.6871 37.9069 19.6871V16.4058ZM32.6194 7.5996L35.4018 5.89982C34.8124 4.91807 33.7573 4.31835 32.6194 4.31835V7.5996ZM32.5843 7.5996V4.31835C30.7877 4.31835 29.3312 5.78743 29.3312 7.5996H32.5843ZM32.5843 16.4058V19.6871C34.3809 19.6871 35.8374 18.218 35.8374 16.4058H32.5843ZM33.4307 16.4058V3.47113H26.9247V16.4058H33.4307ZM30.1777 6.75238H32.5843V0.189883H30.1777V6.75238ZM29.8018 5.17092L35.0892 13.9771L40.6541 10.5776L35.3666 1.77133L29.8018 5.17092ZM37.8718 15.5586H37.9069V8.9961H37.8718V15.5586ZM41.1599 12.2773V3.47113H34.6538V12.2773H41.1599ZM37.9069 6.75238H40.3135V0.189883H37.9069V6.75238ZM37.0605 3.47113V16.4058H43.5665V3.47113H37.0605ZM40.3135 13.1246H37.9069V19.6871H40.3135V13.1246ZM40.6892 14.706L35.4018 5.89982L29.8369 9.29939L35.1243 18.1056L40.6892 14.706ZM32.6194 4.31835H32.5843V10.8808H32.6194V4.31835ZM29.3312 7.5996V16.4058H35.8374V7.5996H29.3312ZM32.5843 13.1246H30.1777V19.6871H32.5843V13.1246ZM45.5544 3.47113H48.8074C48.8074 1.65895 47.3511 0.189883 45.5544 0.189883V3.47113ZM45.5544 9.08798H42.3014C42.3014 10.9001 43.7578 12.3692 45.5544 12.3692V9.08798ZM45.5896 9.08798V12.3692C46.5746 12.3692 47.5066 11.9189 48.1243 11.1446L45.5896 9.08798ZM50.069 3.47113V0.189883C49.0836 0.189883 48.1516 0.640195 47.5342 1.41447L50.069 3.47113ZM52.9323 3.47113L55.4371 5.56464C56.2412 4.58554 56.4123 3.2259 55.8762 2.07519C55.3398 0.924482 54.1928 0.189883 52.9323 0.189883V3.47113ZM47.838 9.67269L45.3332 7.57919C44.3541 8.77107 44.3339 10.491 45.2848 11.7059L47.838 9.67269ZM53.1079 16.4058V19.6871C54.3545 19.6871 55.4914 18.9684 56.0353 17.8367C56.5789 16.7051 56.4335 15.3596 55.6612 14.3726L53.1079 16.4058ZM50.2446 16.4058L47.6591 18.3973C48.2746 19.2102 49.2307 19.6871 50.2446 19.6871V16.4058ZM45.5896 10.2574L48.1747 8.26589C47.5593 7.45306 46.6035 6.97616 45.5896 6.97616V10.2574ZM45.5544 10.2574V6.97616C43.7578 6.97616 42.3014 8.44524 42.3014 10.2574H45.5544ZM45.5544 16.4058V19.6871C47.3511 19.6871 48.8074 18.218 48.8074 16.4058H45.5544ZM43.0952 16.4058H39.8421C39.8421 18.218 41.2985 19.6871 43.0952 19.6871V16.4058ZM43.0952 3.47113V0.189883C41.2985 0.189883 39.8421 1.65895 39.8421 3.47113H43.0952ZM42.3014 3.47113V9.08798H48.8074V3.47113H42.3014ZM45.5544 12.3692H45.5896V5.80673H45.5544V12.3692ZM48.1243 11.1446L52.6037 5.52779L47.5342 1.41447L43.0548 7.03132L48.1243 11.1446ZM50.069 6.75238H52.9323V0.189883H50.069V6.75238ZM50.4274 1.37764L45.3332 7.57919L50.3429 11.7662L55.4371 5.56464L50.4274 1.37764ZM45.2848 11.7059L50.5546 18.439L55.6612 14.3726L50.3913 7.6395L45.2848 11.7059ZM53.1079 13.1246H50.2446V19.6871H53.1079V13.1246ZM52.8298 14.4143L48.1747 8.26589L43.0041 12.2489L47.6591 18.3973L52.8298 14.4143ZM45.5896 6.97616H45.5544V13.5387H45.5896V6.97616ZM42.3014 10.2574V16.4058H48.8074V10.2574H42.3014ZM45.5544 13.1246H43.0952V19.6871H45.5544V13.1246ZM46.3482 16.4058V3.47113H39.8421V16.4058H46.3482ZM43.0952 6.75238H45.5544V0.189883H43.0952V6.75238Z" fill="url(#paint0_linear_5858_105358)"/>
<path d="M8.43075 11.356V9.0591C7.17313 9.0591 6.15364 10.0874 6.15364 11.356H8.43075ZM8.43075 16.4058V18.7027C9.68836 18.7027 10.7079 17.6744 10.7079 16.4058H8.43075ZM6.0066 16.4058H3.72949C3.72949 17.6744 4.74899 18.7027 6.0066 18.7027V16.4058ZM6.0066 3.55973L5.67529 1.28729C4.55767 1.45308 3.72949 2.42027 3.72949 3.55973H6.0066ZM13.7358 4.26848L12.3655 6.10296C12.3709 6.10699 12.3762 6.11103 12.3816 6.11503L13.7358 4.26848ZM14.333 9.21201L12.487 7.86722C12.4816 7.87483 12.4761 7.88248 12.4708 7.89016L14.333 9.21201ZM12.5061 10.5409L11.8157 8.35216C10.8707 8.65544 10.229 9.54069 10.229 10.5409H12.5061ZM12.5061 10.5764H10.229C10.229 11.3933 10.6592 12.1487 11.3587 12.5604L12.5061 10.5764ZM13.9641 12.6849L16.092 11.8672C16.0912 11.8649 16.0903 11.8626 16.0894 11.8603L13.9641 12.6849ZM15.3694 16.4058V18.7027C16.1184 18.7027 16.8194 18.3312 17.2444 17.7092C17.6694 17.0871 17.764 16.2941 17.4973 15.5881L15.3694 16.4058ZM12.8399 16.4058L10.7023 17.1975C11.0314 18.1017 11.8849 18.7027 12.8399 18.7027V16.4058ZM11.5048 12.738L13.6424 11.9464C13.6406 11.9415 13.6388 11.9365 13.637 11.9315L11.5048 12.738ZM10.7846 11.6218L9.54071 13.5457L10.7846 11.6218ZM8.43075 9.47779H6.15364C6.15364 10.7463 7.17313 11.7747 8.43075 11.7747V9.47779ZM8.43075 5.3316L7.99803 3.07658C6.92714 3.28564 6.15364 4.23137 6.15364 5.3316H8.43075ZM6.15364 11.356V16.4058H10.7079V11.356H6.15364ZM8.43075 14.1089H6.0066V18.7027H8.43075V14.1089ZM8.28371 16.4058V3.55973H3.72949V16.4058H8.28371ZM6.33792 5.83216C7.40836 5.67338 8.58468 5.59082 9.87118 5.59082V0.99707C8.39392 0.99707 6.99386 1.0917 5.67529 1.28729L6.33792 5.83216ZM9.87118 5.59082C11.3763 5.59082 12.0812 5.88692 12.3655 6.10296L15.106 2.434C13.6805 1.35066 11.809 0.99707 9.87118 0.99707V5.59082ZM12.3816 6.11503C12.5978 6.27634 12.741 6.46203 12.741 6.97945H17.2952C17.2952 5.15799 16.5835 3.53636 15.09 2.42191L12.3816 6.11503ZM12.741 6.97945C12.741 7.38835 12.6404 7.65292 12.487 7.86722L16.179 10.5568C16.939 9.49534 17.2952 8.27154 17.2952 6.97945H12.741ZM12.4708 7.89016C12.3267 8.09674 12.1394 8.24824 11.8157 8.35216L13.1965 12.7297C14.4186 12.3375 15.4493 11.603 16.1952 10.5339L12.4708 7.89016ZM10.229 10.5409V10.5764H14.7832V10.5409H10.229ZM11.3587 12.5604C11.2812 12.5147 11.3153 12.5075 11.4245 12.6655C11.5335 12.8231 11.6788 13.0899 11.8388 13.5094L16.0894 11.8603C15.6195 10.6278 14.8926 9.32147 13.6535 8.59234L11.3587 12.5604ZM11.8362 13.5026L13.2415 17.2235L17.4973 15.5881L16.092 11.8672L11.8362 13.5026ZM15.3694 14.1089H12.8399V18.7027H15.3694V14.1089ZM14.9775 15.6142L13.6424 11.9464L9.36726 13.5297L10.7023 17.1975L14.9775 15.6142ZM13.637 11.9315C13.3832 11.249 12.9289 10.2901 12.0285 9.69786L9.54071 13.5457C9.43271 13.4746 9.36023 13.4056 9.31823 13.3603C9.29692 13.3373 9.2819 13.3188 9.27256 13.3065C9.26319 13.2943 9.25857 13.2872 9.25815 13.2866C9.25792 13.2862 9.27015 13.3053 9.29182 13.3505C9.31329 13.3951 9.34081 13.4587 9.37272 13.5445L13.637 11.9315ZM12.0285 9.69786C11.1666 9.13086 10.1194 9.0591 9.39689 9.0591V13.6529C9.51101 13.6529 9.60264 13.6568 9.67424 13.6624C9.74643 13.6681 9.79041 13.6751 9.8109 13.679C9.83234 13.6831 9.81698 13.6818 9.77508 13.6666C9.7338 13.6516 9.64825 13.6164 9.54071 13.5457L12.0285 9.69786ZM9.39689 9.0591H8.43075V13.6529H9.39689V9.0591ZM8.43075 11.7747H9.46715V7.18091H8.43075V11.7747ZM9.46715 11.7747C10.7114 11.7747 12.0533 11.5633 13.1348 10.785C14.3579 9.90475 14.8711 8.58234 14.8711 7.22751H10.3168C10.3168 7.3353 10.2985 7.31955 10.3354 7.23978C10.378 7.14794 10.4442 7.07821 10.4897 7.04546C10.5211 7.02289 10.4834 7.06059 10.3083 7.10259C10.1322 7.14482 9.86022 7.18091 9.46715 7.18091V11.7747ZM14.8711 7.22751C14.8711 5.91708 14.3473 4.6537 13.156 3.83079C12.1198 3.11495 10.8507 2.92841 9.69552 2.92841V7.52217C10.0559 7.52217 10.3017 7.55396 10.4568 7.58969C10.6121 7.62546 10.6315 7.65463 10.5827 7.6209C10.519 7.5769 10.428 7.48653 10.3653 7.35676C10.3079 7.23762 10.3168 7.17366 10.3168 7.22751H14.8711ZM9.69552 2.92841C9.11059 2.92841 8.53852 2.97106 7.99803 3.07658L8.86346 7.58664C9.04905 7.55038 9.32015 7.52217 9.69552 7.52217V2.92841ZM6.15364 5.3316V9.47779H10.7079V5.3316H6.15364ZM16.7419 16.4058L14.5904 15.6537C14.3491 16.3558 14.4596 17.1323 14.8868 17.7377C15.314 18.3432 16.0052 18.7027 16.7419 18.7027V16.4058ZM21.1862 3.47113V1.17426C20.216 1.17426 19.3523 1.79432 19.0346 2.71899L21.1862 3.47113ZM23.8211 3.47113L25.9718 2.71633C25.6533 1.79304 24.7903 1.17426 23.8211 1.17426V3.47113ZM28.283 16.4058V18.7027C29.0202 18.7027 29.7118 18.3427 30.1389 17.7366C30.5661 17.1305 30.6759 16.3534 30.4336 15.651L28.283 16.4058ZM25.648 16.4058L23.4642 17.0566C23.7502 18.0328 24.6389 18.7027 25.648 18.7027V16.4058ZM24.7346 13.2873L26.9184 12.6365C26.6324 11.6603 25.7437 10.9904 24.7346 10.9904V13.2873ZM20.2201 13.2873V10.9904C19.2153 10.9904 18.3294 11.6546 18.0397 12.625L20.2201 13.2873ZM19.289 16.4058V18.7027C20.2937 18.7027 21.1797 18.0385 21.4694 17.0681L19.289 16.4058ZM20.7646 11.3914L18.5813 10.7389C18.3772 11.4337 18.5102 12.185 18.94 12.7656C19.3698 13.3463 20.0461 13.6883 20.7646 13.6883V11.3914ZM24.1725 11.3914V13.6883C24.8909 13.6883 25.5672 13.3463 25.997 12.7656C26.4269 12.185 26.5598 11.4337 26.3558 10.7389L24.1725 11.3914ZM22.4861 5.65054L24.6694 4.99803C24.3829 4.02271 23.4945 3.35366 22.4861 3.35366V5.65054ZM22.451 5.65054V3.35366C21.4425 3.35366 20.5542 4.02271 20.2677 4.99803L22.451 5.65054ZM18.8935 17.158L23.3377 4.22329L19.0346 2.71899L14.5904 15.6537L18.8935 17.158ZM21.1862 5.76801H23.8211V1.17426H21.1862V5.76801ZM21.6705 4.22592L26.1323 17.1606L30.4336 15.651L25.9718 2.71633L21.6705 4.22592ZM28.283 14.1089H25.648V18.7027H28.283V14.1089ZM27.8318 15.755L26.9184 12.6365L22.5508 13.9381L23.4642 17.0566L27.8318 15.755ZM24.7346 10.9904H20.2201V15.5842H24.7346V10.9904ZM18.0397 12.625L17.1086 15.7435L21.4694 17.0681L22.4004 13.9496L18.0397 12.625ZM19.289 14.1089H16.7419V18.7027H19.289V14.1089ZM20.7646 13.6883H24.1725V9.09454H20.7646V13.6883ZM26.3558 10.7389L24.6694 4.99803L20.3028 6.30305L21.9892 12.0439L26.3558 10.7389ZM22.4861 3.35366H22.451V7.94741H22.4861V3.35366ZM20.2677 4.99803L18.5813 10.7389L22.9479 12.0439L24.6343 6.30305L20.2677 4.99803ZM30.1774 16.4058H27.9003C27.9003 17.6744 28.9197 18.7027 30.1774 18.7027V16.4058ZM30.1774 3.47113V1.17426C28.9197 1.17426 27.9003 2.20261 27.9003 3.47113H30.1774ZM32.5839 3.47113L34.5317 2.28127C34.1191 1.59405 33.3805 1.17426 32.5839 1.17426V3.47113ZM37.8715 12.2774L35.9236 13.4672C36.3364 14.1544 37.0748 14.5742 37.8715 14.5742V12.2774ZM37.9066 12.2774V14.5742C39.1642 14.5742 40.1837 13.5459 40.1837 12.2774H37.9066ZM37.9066 3.47113V1.17426C36.649 1.17426 35.6295 2.20261 35.6295 3.47113H37.9066ZM40.3132 3.47113H42.5903C42.5903 2.20261 41.5708 1.17426 40.3132 1.17426V3.47113ZM40.3132 16.4058V18.7027C41.5708 18.7027 42.5903 17.6744 42.5903 16.4058H40.3132ZM37.9066 16.4058L35.9587 17.5957C36.3715 18.2829 37.11 18.7027 37.9066 18.7027V16.4058ZM32.6191 7.5996L34.5668 6.40976C34.1542 5.72253 33.4156 5.30273 32.6191 5.30273V7.5996ZM32.5839 7.5996V5.30273C31.3263 5.30273 30.3068 6.33107 30.3068 7.5996H32.5839ZM32.5839 16.4058V18.7027C33.8416 18.7027 34.861 17.6744 34.861 16.4058H32.5839ZM32.4545 16.4058V3.47113H27.9003V16.4058H32.4545ZM30.1774 5.76801H32.5839V1.17426H30.1774V5.76801ZM30.6362 4.66098L35.9236 13.4672L39.8191 11.0875L34.5317 2.28127L30.6362 4.66098ZM37.8715 14.5742H37.9066V9.98048H37.8715V14.5742ZM40.1837 12.2774V3.47113H35.6295V12.2774H40.1837ZM37.9066 5.76801H40.3132V1.17426H37.9066V5.76801ZM38.0361 3.47113V16.4058H42.5903V3.47113H38.0361ZM40.3132 14.1089H37.9066V18.7027H40.3132V14.1089ZM39.8542 15.216L34.5668 6.40976L30.6713 8.78945L35.9587 17.5957L39.8542 15.216ZM32.6191 5.30273H32.5839V9.89648H32.6191V5.30273ZM30.3068 7.5996V16.4058H34.861V7.5996H30.3068ZM32.5839 14.1089H30.1774V18.7027H32.5839V14.1089ZM45.5541 3.47113H47.8312C47.8312 2.20261 46.8117 1.17426 45.5541 1.17426V3.47113ZM45.5541 9.08798H43.277C43.277 10.3565 44.2965 11.3849 45.5541 11.3849V9.08798ZM45.5893 9.08798V11.3849C46.2789 11.3849 46.9311 11.0696 47.3634 10.5276L45.5893 9.08798ZM50.0687 3.47113V1.17426C49.379 1.17426 48.7265 1.48948 48.2941 2.03147L50.0687 3.47113ZM52.932 3.47113L54.6853 4.93657C55.2484 4.25122 55.3681 3.29946 54.9927 2.49397C54.6173 1.68848 53.8142 1.17426 52.932 1.17426V3.47113ZM47.8377 9.6727L46.0844 8.20726C45.399 9.04158 45.3846 10.2455 46.0505 11.0959L47.8377 9.6727ZM53.1076 16.4058V18.7027C53.9801 18.7027 54.7761 18.1996 55.1567 17.4075C55.5373 16.6153 55.4355 15.6735 54.8948 14.9826L53.1076 16.4058ZM50.2443 16.4058L48.4343 17.7999C48.8654 18.3689 49.5345 18.7027 50.2443 18.7027V16.4058ZM45.5893 10.2574L47.3989 8.86334C46.9682 8.29437 46.2991 7.96054 45.5893 7.96054V10.2574ZM45.5541 10.2574V7.96054C44.2965 7.96054 43.277 8.98888 43.277 10.2574H45.5541ZM45.5541 16.4058V18.7027C46.8117 18.7027 47.8312 17.6744 47.8312 16.4058H45.5541ZM43.0948 16.4058H40.8177C40.8177 17.6744 41.8372 18.7027 43.0948 18.7027V16.4058ZM43.0948 3.47113V1.17426C41.8372 1.17426 40.8177 2.20261 40.8177 3.47113H43.0948ZM43.277 3.47113V9.08798H47.8312V3.47113H43.277ZM45.5541 11.3849H45.5893V6.7911H45.5541V11.3849ZM47.3634 10.5276L51.8428 4.91078L48.2941 2.03147L43.8147 7.64833L47.3634 10.5276ZM50.0687 5.76801H52.932V1.17426H50.0687V5.76801ZM51.1786 2.00568L46.0844 8.20726L49.5911 11.1381L54.6853 4.93657L51.1786 2.00568ZM46.0505 11.0959L51.3204 17.8291L54.8948 14.9826L49.6249 8.24945L46.0505 11.0959ZM53.1076 14.1089H50.2443V18.7027H53.1076V14.1089ZM52.054 15.0117L47.3989 8.86334L43.7793 11.6515L48.4343 17.7999L52.054 15.0117ZM45.5893 7.96054H45.5541V12.5543H45.5893V7.96054ZM43.277 10.2574V16.4058H47.8312V10.2574H43.277ZM45.5541 14.1089H43.0948V18.7027H45.5541V14.1089ZM45.372 16.4058V3.47113H40.8177V16.4058H45.372ZM43.0948 5.76801H45.5541V1.17426H43.0948V5.76801Z" fill="#1E1400"/>
<path d="M8.43098 11.356V16.4058H6.00684V3.55973C7.20134 3.38254 8.48953 3.29395 9.87141 3.29395C11.5929 3.29395 12.8811 3.61879 13.736 4.26848C14.5909 4.90635 15.0183 5.81001 15.0183 6.97944C15.0183 7.82994 14.79 8.57413 14.3332 9.21201C13.8882 9.84988 13.2793 10.2929 12.5064 10.5409V10.5764C13.0685 10.9071 13.5545 11.6099 13.9644 12.6849L15.3697 16.4058H12.8401L11.5051 12.738C11.2943 12.171 11.0542 11.7989 10.7849 11.6218C10.5155 11.4446 10.0529 11.356 9.39712 11.356H8.43098ZM8.43098 9.47779H9.46739C11.5519 9.47779 12.5942 8.72769 12.5942 7.22751C12.5942 5.8927 11.628 5.22529 9.69575 5.22529C9.21561 5.22529 8.79402 5.26073 8.43098 5.3316V9.47779ZM16.7422 16.4058L21.1864 3.47113H23.8214L28.2832 16.4058H25.6483L24.7348 13.2873H20.2203L19.2893 16.4058H16.7422ZM20.7648 11.3914H24.1727L22.4863 5.65054H22.4512L20.7648 11.3914ZM30.1776 16.4058V3.47113H32.5842L37.8717 12.2774H37.9068V3.47113H40.3134V16.4058H37.9068L32.6193 7.5996H32.5842V16.4058H30.1776ZM45.5543 3.47113V9.08798H45.5895L50.0689 3.47113H52.9322L47.838 9.67269L53.1078 16.4058H50.2445L45.5895 10.2574H45.5543V16.4058H43.0951V3.47113H45.5543Z" fill="url(#paint1_linear_5858_105358)"/>
</g>
<rect x="2.08439" y="40.8676" width="9.99838" height="0.754723" fill="url(#paint2_linear_5858_105358)" stroke="#1E1400" stroke-width="0.754723"/>
<rect x="2.20703" y="37.2949" width="9.7531" height="2.01889" fill="url(#paint3_linear_5858_105358)" stroke="#1E1400"/>
<path d="M1.00067 30.934L7.08339 22.8327L13.1661 30.934H12.4599H11.9599V31.434V35.6196H2.20684V31.434V30.934H1.70684H1.00067Z" fill="url(#paint4_linear_5858_105358)" stroke="#1E1400"/>
<g clip-path="url(#clip1_5858_105358)">
<path d="M21.2287 26.3959H24.5241C24.5241 24.5838 23.0487 23.1147 21.2287 23.1147V26.3959ZM26.336 26.3959V23.1147C24.5159 23.1147 23.0405 24.5838 23.0405 26.3959H26.336ZM28.7917 26.3959H32.0872C32.0872 24.5838 30.6117 23.1147 28.7917 23.1147V26.3959ZM27.4749 38.1435L25.0841 35.8851L25.0834 35.886L27.4749 38.1435ZM20.0008 38.1435L17.5947 40.3856C17.5995 40.3908 17.6044 40.3959 17.6092 40.401L20.0008 38.1435ZM18.7017 26.3959V23.1147C16.8817 23.1147 15.4062 24.5838 15.4062 26.3959H18.7017ZM17.9332 26.3959V34.2276H24.5241V26.3959H17.9332ZM17.9332 34.2276C17.9332 35.6458 18.1961 37.3139 19.2682 38.6799C20.461 40.1998 22.1706 40.7514 23.7734 40.7514V34.1889C23.6958 34.1889 23.7811 34.1763 23.9531 34.2494C24.145 34.3309 24.3292 34.4706 24.4615 34.6392C24.5809 34.7913 24.5938 34.8843 24.5767 34.8192C24.5584 34.7488 24.5241 34.5651 24.5241 34.2276H17.9332ZM23.7734 40.7514C25.374 40.7514 27.0863 40.2055 28.2851 38.6886C29.3655 37.3215 29.6314 35.6497 29.6314 34.2276H23.0405C23.0405 34.5636 23.0062 34.7454 22.9882 34.8137C22.9716 34.8765 22.9854 34.7825 23.1055 34.6304C23.2384 34.4623 23.4215 34.3253 23.6091 34.2462C23.7767 34.1754 23.8567 34.1889 23.7734 34.1889V40.7514ZM29.6314 34.2276V26.3959H23.0405V34.2276H29.6314ZM26.336 29.6772H28.7917V23.1147H26.336V29.6772ZM25.4963 26.3959V34.0681H32.0872V26.3959H25.4963ZM25.4963 34.0681C25.4963 35.3721 25.1781 35.7865 25.0841 35.8851L29.8656 40.4018C31.5275 38.6577 32.0872 36.3552 32.0872 34.0681H25.4963ZM25.0834 35.886C25.0077 35.9654 24.7361 36.2266 23.7378 36.2266V42.7891C25.9901 42.7891 28.2099 42.1407 29.8664 40.401L25.0834 35.886ZM23.7378 36.2266C22.7395 36.2266 22.4679 35.9654 22.3923 35.886L17.6092 40.401C19.2657 42.1407 21.4855 42.7891 23.7378 42.7891V36.2266ZM22.4069 35.9013C22.3149 35.8035 21.9972 35.3826 21.9972 34.0681H15.4062C15.4062 36.3447 15.9546 38.6407 17.5947 40.3856L22.4069 35.9013ZM21.9972 34.0681V26.3959H15.4062V34.0681H21.9972ZM18.7017 29.6772H21.2287V23.1147H18.7017V29.6772ZM31.4268 26.4845L30.9564 23.2369C29.3349 23.4698 28.1314 24.8533 28.1314 26.4845H31.4268ZM39.3458 27.2819L37.2872 29.8441C37.2942 29.8497 37.3012 29.8553 37.3083 29.8608L39.3458 27.2819ZM39.3814 33.6783L37.2089 31.2111C37.2033 31.216 37.1976 31.2209 37.192 31.2259L39.3814 33.6783ZM33.8826 34.7415L34.2368 31.4792C33.3066 31.3791 32.3774 31.6774 31.6812 32.2998C30.9849 32.9221 30.5872 33.8098 30.5872 34.7415H33.8826ZM33.8826 39.3306V42.6119C35.7027 42.6119 37.1781 41.1428 37.1781 39.3306H33.8826ZM31.4268 39.3306H28.1314C28.1314 41.1428 29.6068 42.6119 31.4268 42.6119V39.3306ZM33.8826 32.8278H30.5872C30.5872 34.4425 31.7669 35.8171 33.3687 36.069L33.8826 32.8278ZM37.5307 32.314L39.6404 34.8347C39.6423 34.8331 39.6442 34.8315 39.6462 34.8299L37.5307 32.314ZM33.8826 28.2564L33.3551 25.0175C31.7596 25.2751 30.5872 26.647 30.5872 28.2564H33.8826ZM31.8973 29.7322C32.9602 29.5795 34.1071 29.5 35.3418 29.5V22.9375C33.8243 22.9375 32.3611 23.0352 30.9564 23.2369L31.8973 29.7322ZM35.3418 29.5C36.7693 29.5 37.2301 29.7986 37.2872 29.8441L41.4045 24.7197C39.6821 23.3476 37.4735 22.9375 35.3418 22.9375V29.5ZM37.3083 29.8608C37.3279 29.8762 37.3305 29.8814 37.326 29.8758C37.3215 29.8699 37.3217 29.868 37.3261 29.878C37.3342 29.8967 37.385 30.023 37.385 30.3295H43.9759C43.9759 28.1959 43.2178 26.1399 41.3834 24.703L37.3083 29.8608ZM37.385 30.3295C37.385 30.7549 37.322 30.9877 37.2816 31.0919C37.2483 31.1777 37.2239 31.198 37.2089 31.2111L41.5539 36.1456C43.327 34.5978 43.9759 32.4608 43.9759 30.3295H37.385ZM37.192 31.2259C37.1719 31.2437 36.825 31.5311 35.5732 31.5311V38.0936C37.6907 38.0936 39.8825 37.625 41.5708 36.1308L37.192 31.2259ZM35.5732 31.5311C34.946 31.5311 34.5123 31.5089 34.2368 31.4792L33.5284 38.0037C34.1309 38.0685 34.8242 38.0936 35.5732 38.0936V31.5311ZM30.5872 34.7415V39.3306H37.1781V34.7415H30.5872ZM33.8826 36.0494H31.4268V42.6119H33.8826V36.0494ZM34.7223 39.3306V26.4845H28.1314V39.3306H34.7223ZM33.3687 36.069C34.0116 36.17 34.6717 36.2154 35.3418 36.2154V29.6529C34.968 29.6529 34.6553 29.6274 34.3966 29.5867L33.3687 36.069ZM35.3418 36.2154C36.7145 36.2154 38.3226 35.9281 39.6404 34.8347L35.421 29.7933C35.498 29.7293 35.5688 29.6863 35.6228 29.659C35.6757 29.6323 35.7073 29.6233 35.7078 29.6231C35.7081 29.6231 35.7012 29.625 35.6861 29.628C35.6709 29.631 35.6483 29.6348 35.6175 29.6386C35.5551 29.6462 35.4645 29.6529 35.3418 29.6529V36.2154ZM39.6462 34.8299C41.0395 33.6685 41.5913 32.067 41.5913 30.5067H35.0004C35.0004 30.5414 34.9951 30.4406 35.068 30.2686C35.1468 30.0824 35.274 29.9158 35.4152 29.7981L39.6462 34.8299ZM41.5913 30.5067C41.5913 28.9987 41.0826 27.347 39.6179 26.1785C38.2927 25.1213 36.6795 24.8688 35.3418 24.8688V31.4313C35.625 31.4313 35.7584 31.4607 35.7839 31.4675C35.8031 31.4726 35.6744 31.4416 35.4968 31.3C35.3041 31.1462 35.1546 30.9417 35.0686 30.7361C34.9911 30.5504 35.0004 30.4495 35.0004 30.5067H41.5913ZM35.3418 24.8688C34.6651 24.8688 33.999 24.9135 33.3551 25.0175L34.4101 31.4954C34.6442 31.4576 34.9508 31.4313 35.3418 31.4313V24.8688ZM30.5872 28.2564V32.8278H37.1781V28.2564H30.5872Z" fill="#742000"/>
<path d="M21.2287 25.4711H24.5241C24.5241 23.6589 23.0487 22.1899 21.2287 22.1899V25.4711ZM26.336 25.4711V22.1899C24.5159 22.1899 23.0405 23.6589 23.0405 25.4711H26.336ZM28.7917 25.4711H32.0872C32.0872 23.6589 30.6117 22.1899 28.7917 22.1899V25.4711ZM27.4749 37.2187L25.0841 34.9603L25.0834 34.9611L27.4749 37.2187ZM20.0008 37.2187L17.5947 39.4608C17.5995 39.466 17.6044 39.4711 17.6092 39.4762L20.0008 37.2187ZM18.7017 25.4711V22.1899C16.8817 22.1899 15.4062 23.6589 15.4062 25.4711H18.7017ZM17.9332 25.4711V33.3028H24.5241V25.4711H17.9332ZM17.9332 33.3028C17.9332 34.721 18.1961 36.389 19.2682 37.7551C20.461 39.275 22.1706 39.8266 23.7734 39.8266V33.2641C23.6958 33.2641 23.7811 33.2515 23.9531 33.3246C24.145 33.4061 24.3292 33.5458 24.4615 33.7144C24.5809 33.8665 24.5938 33.9595 24.5767 33.8943C24.5584 33.824 24.5241 33.6403 24.5241 33.3028H17.9332ZM23.7734 39.8266C25.374 39.8266 27.0863 39.2807 28.2851 37.7638C29.3655 36.3967 29.6314 34.7249 29.6314 33.3028H23.0405C23.0405 33.6388 23.0062 33.8206 22.9882 33.8889C22.9716 33.9518 22.9854 33.8576 23.1055 33.7056C23.2384 33.5375 23.4215 33.4005 23.6091 33.3214C23.7767 33.2506 23.8567 33.2641 23.7734 33.2641V39.8266ZM29.6314 33.3028V25.4711H23.0405V33.3028H29.6314ZM26.336 28.7524H28.7917V22.1899H26.336V28.7524ZM25.4963 25.4711V33.1434H32.0872V25.4711H25.4963ZM25.4963 33.1434C25.4963 34.4473 25.1781 34.8617 25.0841 34.9603L29.8656 39.477C31.5275 37.7329 32.0872 35.4304 32.0872 33.1434H25.4963ZM25.0834 34.9611C25.0077 35.0406 24.7361 35.3018 23.7378 35.3018V41.8643C25.9901 41.8643 28.2099 41.2159 29.8664 39.4762L25.0834 34.9611ZM23.7378 35.3018C22.7395 35.3018 22.4679 35.0406 22.3923 34.9611L17.6092 39.4762C19.2657 41.2159 21.4855 41.8643 23.7378 41.8643V35.3018ZM22.4069 34.9765C22.3149 34.8787 21.9972 34.4578 21.9972 33.1434H15.4062C15.4062 35.4199 15.9546 37.7159 17.5947 39.4608L22.4069 34.9765ZM21.9972 33.1434V25.4711H15.4062V33.1434H21.9972ZM18.7017 28.7524H21.2287V22.1899H18.7017V28.7524ZM31.4268 25.5597L30.9564 22.3121C29.3349 22.5449 28.1314 23.9285 28.1314 25.5597H31.4268ZM39.3458 26.3571L37.2872 28.9193C37.2942 28.9249 37.3012 28.9305 37.3083 28.936L39.3458 26.3571ZM39.3814 32.7535L37.2089 30.2862C37.2033 30.2912 37.1976 30.2961 37.192 30.3011L39.3814 32.7535ZM33.8826 33.8167L34.2368 30.5544C33.3066 30.4543 32.3774 30.7526 31.6812 31.375C30.9849 31.9973 30.5872 32.885 30.5872 33.8167H33.8826ZM33.8826 38.4058V41.6871C35.7027 41.6871 37.1781 40.218 37.1781 38.4058H33.8826ZM31.4268 38.4058H28.1314C28.1314 40.218 29.6068 41.6871 31.4268 41.6871V38.4058ZM33.8826 31.903H30.5872C30.5872 33.5176 31.7669 34.8923 33.3687 35.1441L33.8826 31.903ZM37.5307 31.3892L39.6404 33.9099C39.6423 33.9083 39.6442 33.9067 39.6462 33.9051L37.5307 31.3892ZM33.8826 27.3316L33.3551 24.0927C31.7596 24.3503 30.5872 25.7221 30.5872 27.3316H33.8826ZM31.8973 28.8074C32.9602 28.6547 34.1071 28.5752 35.3418 28.5752V22.0127C33.8243 22.0127 32.3611 22.1104 30.9564 22.3121L31.8973 28.8074ZM35.3418 28.5752C36.7693 28.5752 37.2301 28.8738 37.2872 28.9193L41.4045 23.7948C39.6821 22.4228 37.4735 22.0127 35.3418 22.0127V28.5752ZM37.3083 28.936C37.3279 28.9514 37.3305 28.9566 37.326 28.951C37.3215 28.9451 37.3217 28.9432 37.3261 28.9532C37.3342 28.9719 37.385 29.0982 37.385 29.4047H43.9759C43.9759 27.2711 43.2178 25.2151 41.3834 23.7782L37.3083 28.936ZM37.385 29.4047C37.385 29.8301 37.322 30.0628 37.2816 30.1671C37.2483 30.2529 37.2239 30.2731 37.2089 30.2862L41.5539 35.2208C43.327 33.673 43.9759 31.536 43.9759 29.4047H37.385ZM37.192 30.3011C37.1719 30.3189 36.825 30.6063 35.5732 30.6063V37.1688C37.6907 37.1688 39.8825 36.7002 41.5708 35.206L37.192 30.3011ZM35.5732 30.6063C34.946 30.6063 34.5123 30.5841 34.2368 30.5544L33.5284 37.0789C34.1309 37.1438 34.8242 37.1688 35.5732 37.1688V30.6063ZM30.5872 33.8167V38.4058H37.1781V33.8167H30.5872ZM33.8826 35.1246H31.4268V41.6871H33.8826V35.1246ZM34.7223 38.4058V25.5597H28.1314V38.4058H34.7223ZM33.3687 35.1441C34.0116 35.2452 34.6717 35.2906 35.3418 35.2906V28.7281C34.968 28.7281 34.6553 28.7026 34.3966 28.662L33.3687 35.1441ZM35.3418 35.2906C36.7145 35.2906 38.3226 35.0033 39.6404 33.9099L35.421 28.8685C35.498 28.8046 35.5688 28.7615 35.6228 28.7342C35.6757 28.7075 35.7073 28.6985 35.7078 28.6983C35.7081 28.6983 35.7012 28.7002 35.6861 28.7032C35.6709 28.7062 35.6483 28.7101 35.6175 28.7138C35.5551 28.7214 35.4645 28.7281 35.3418 28.7281V35.2906ZM39.6462 33.9051C41.0395 32.7437 41.5913 31.1422 41.5913 29.5819H35.0004C35.0004 29.6166 34.9951 29.5158 35.068 29.3438C35.1468 29.1576 35.274 28.991 35.4152 28.8733L39.6462 33.9051ZM41.5913 29.5819C41.5913 28.0739 41.0826 26.4222 39.6179 25.2537C38.2927 24.1965 36.6795 23.944 35.3418 23.944V30.5065C35.625 30.5065 35.7584 30.5359 35.7839 30.5427C35.8031 30.5478 35.6744 30.5168 35.4968 30.3752C35.3041 30.2214 35.1546 30.0169 35.0686 29.8113C34.9911 29.6257 35.0004 29.5247 35.0004 29.5819H41.5913ZM35.3418 23.944C34.6651 23.944 33.999 23.9887 33.3551 24.0927L34.4101 30.5706C34.6442 30.5328 34.9508 30.5065 35.3418 30.5065V23.944ZM30.5872 27.3316V31.903H37.1781V27.3316H30.5872Z" fill="url(#paint5_linear_5858_105358)"/>
<path d="M21.2283 25.4711H23.5351C23.5351 24.2026 22.5023 23.1743 21.2283 23.1743V25.4711ZM26.3356 25.4711V23.1743C25.0616 23.1743 24.0288 24.2026 24.0288 25.4711H26.3356ZM28.7914 25.4711H31.0982C31.0982 24.2026 30.0654 23.1743 28.7914 23.1743V25.4711ZM27.4745 37.2187L25.801 35.6378L25.8005 35.6384L27.4745 37.2187ZM20.0004 37.2187L18.3162 38.7882C18.3195 38.7918 18.3229 38.7953 18.3263 38.7989L20.0004 37.2187ZM18.7013 25.4711V23.1743C17.4273 23.1743 16.3945 24.2026 16.3945 25.4711H18.7013ZM18.9215 25.4711V33.3028H23.5351V25.4711H18.9215ZM18.9215 33.3028C18.9215 34.6198 19.1691 36.0306 20.0468 37.149C21.0091 38.375 22.3966 38.8422 23.7731 38.8422V34.2485C23.5915 34.2485 23.5398 34.2194 23.5648 34.23C23.6038 34.2465 23.6532 34.2835 23.6822 34.3205C23.7021 34.3459 23.6634 34.3096 23.6197 34.1425C23.575 33.9716 23.5351 33.7012 23.5351 33.3028H18.9215ZM23.7731 38.8422C25.1497 38.8422 26.5405 38.379 27.5078 37.1551C28.3923 36.036 28.6424 34.6225 28.6424 33.3028H24.0288C24.0288 33.7001 23.9887 33.9692 23.9441 34.1387C23.9005 34.3042 23.8621 34.3397 23.8821 34.3144C23.9111 34.2777 23.9591 34.2426 23.9944 34.2277C24.0156 34.2188 23.9595 34.2485 23.7731 34.2485V38.8422ZM28.6424 33.3028V25.4711H24.0288V33.3028H28.6424ZM26.3356 27.768H28.7914V23.1743H26.3356V27.768ZM26.4846 25.4711V33.1434H31.0982V25.4711H26.4846ZM26.4846 33.1434C26.4846 34.5947 26.1301 35.2924 25.801 35.6378L29.148 38.7995C30.5747 37.3022 31.0982 35.283 31.0982 33.1434H26.4846ZM25.8005 35.6384C25.4877 35.9669 24.9239 36.2861 23.7375 36.2861V40.8799C25.8017 40.8799 27.7292 40.2896 29.1486 38.7989L25.8005 35.6384ZM23.7375 36.2861C22.551 36.2861 21.9872 35.9669 21.6745 35.6384L18.3263 38.7989C19.7457 40.2896 21.6733 40.8799 23.7375 40.8799V36.2861ZM21.6847 35.6492C21.3605 35.3043 21.0082 34.6021 21.0082 33.1434H16.3945C16.3945 35.2756 16.9083 37.2903 18.3162 38.7882L21.6847 35.6492ZM21.0082 33.1434V25.4711H16.3945V33.1434H21.0082ZM18.7013 27.768H21.2283V23.1743H18.7013V27.768ZM31.4265 25.5597L31.0972 23.2864C29.9621 23.4494 29.1197 24.4179 29.1197 25.5597H31.4265ZM39.3455 26.3571L37.9044 28.1506C37.9093 28.1545 37.9142 28.1584 37.9192 28.1623L39.3455 26.3571ZM39.3811 32.7535L37.8603 31.0264C37.8564 31.0299 37.8524 31.0333 37.8485 31.0368L39.3811 32.7535ZM33.8823 33.8167L34.1302 31.5331C33.479 31.463 32.8286 31.6718 32.3412 32.1075C31.8539 32.5431 31.5754 33.1645 31.5754 33.8167H33.8823ZM33.8823 38.4058V40.7027C35.1563 40.7027 36.1891 39.6744 36.1891 38.4058H33.8823ZM31.4265 38.4058H29.1197C29.1197 39.6744 30.1525 40.7027 31.4265 40.7027V38.4058ZM33.8823 31.903H31.5754C31.5754 33.0333 32.4012 33.9955 33.5225 34.1718L33.8823 31.903ZM37.5303 31.3892L39.0071 33.1537C39.0085 33.1526 39.0098 33.1515 39.0112 33.1503L37.5303 31.3892ZM33.8823 27.3316L33.513 25.0643C32.3961 25.2447 31.5754 26.205 31.5754 27.3316H33.8823ZM31.7558 27.8331C32.87 27.6731 34.0643 27.5908 35.3415 27.5908V22.9971C33.8663 22.9971 32.4506 23.092 31.0972 23.2864L31.7558 27.8331ZM35.3415 27.5908C36.8746 27.5908 37.5975 27.9061 37.9044 28.1506L40.7865 24.5635C39.3139 23.3905 37.3675 22.9971 35.3415 22.9971V27.5908ZM37.9192 28.1623C38.1477 28.3412 38.3733 28.629 38.3733 29.4047H42.9869C42.9869 27.5107 42.3228 25.7667 40.7717 24.5518L37.9192 28.1623ZM38.3733 29.4047C38.3733 30.4229 38.0914 30.8247 37.8603 31.0264L40.9018 34.4807C42.4028 33.1704 42.9869 31.3396 42.9869 29.4047H38.3733ZM37.8485 31.0368C37.5782 31.2761 36.9544 31.5907 35.5728 31.5907V36.1844C37.5605 36.1844 39.4756 35.743 40.9136 34.4703L37.8485 31.0368ZM35.5728 31.5907C34.9274 31.5907 34.4547 31.568 34.1302 31.5331L33.6343 36.1002C34.1877 36.1598 34.8421 36.1844 35.5728 36.1844V31.5907ZM31.5754 33.8167V38.4058H36.1891V33.8167H31.5754ZM33.8823 36.1089H31.4265V40.7027H33.8823V36.1089ZM33.7333 38.4058V25.5597H29.1197V38.4058H33.7333ZM33.5225 34.1718C34.1078 34.2638 34.7158 34.3062 35.3415 34.3062V29.7125C34.9232 29.7125 34.5584 29.684 34.2421 29.6343L33.5225 34.1718ZM35.3415 34.3062C36.5906 34.3062 37.9352 34.0431 39.0071 33.1537L36.0535 29.6247C36.1289 29.5622 36.0143 29.7125 35.3415 29.7125V34.3062ZM39.0112 33.1503C40.1395 32.2097 40.6023 30.908 40.6023 29.5819H35.9887C35.9887 29.7231 35.9659 29.7562 35.9786 29.7262C35.9847 29.7117 35.9957 29.6911 36.012 29.6691C36.0283 29.6473 36.0428 29.6336 36.0495 29.628L39.0112 33.1503ZM40.6023 29.5819C40.6023 28.2906 40.1724 26.9577 38.9994 26.0219C37.9241 25.1641 36.5733 24.9284 35.3415 24.9284V29.5222C35.6874 29.5222 35.91 29.5575 36.0387 29.5917C36.1629 29.6247 36.1651 29.6472 36.1146 29.607C36.0536 29.5582 36.0043 29.4888 35.9811 29.4331C35.9637 29.3916 35.9887 29.424 35.9887 29.5819H40.6023ZM35.3415 24.9284C34.7076 24.9284 34.0954 24.9703 33.513 25.0643L34.2515 29.5988C34.547 29.5511 34.9076 29.5222 35.3415 29.5222V24.9284ZM31.5754 27.3316V31.903H36.1891V27.3316H31.5754Z" fill="#1E1400"/>
<path d="M21.2291 25.4711V33.3028C21.2291 35.4645 22.0774 36.5454 23.7739 36.5454C25.4822 36.5454 26.3364 35.4645 26.3364 33.3028V25.4711H28.7922V33.1434C28.7922 34.9389 28.3532 36.2973 27.4753 37.2187C26.6093 38.1282 25.3636 38.583 23.7383 38.583C22.1129 38.583 20.8673 38.1282 20.0012 37.2187C19.1352 36.2973 18.7021 34.9389 18.7021 33.1434V25.4711H21.2291ZM31.4273 25.5597C32.6611 25.3825 33.9661 25.2939 35.3423 25.2939C37.1218 25.2939 38.4565 25.6483 39.3463 26.3571C40.236 27.054 40.6809 28.0699 40.6809 29.4047C40.6809 30.8813 40.2479 31.9975 39.3819 32.7535C38.5277 33.5095 37.2583 33.8875 35.5736 33.8875C34.8855 33.8875 34.322 33.8639 33.8831 33.8167V38.4058H31.4273V25.5597ZM33.8831 31.903C34.3339 31.9739 34.8203 32.0094 35.3423 32.0094C36.3032 32.0094 37.0329 31.8026 37.5311 31.3892C38.0413 30.9639 38.2963 30.3615 38.2963 29.5819C38.2963 28.0108 37.3116 27.2253 35.3423 27.2253C34.8084 27.2253 34.322 27.2607 33.8831 27.3316V31.903Z" fill="url(#paint6_linear_5858_105358)"/>
</g>
<rect x="47.2514" y="40.8676" width="9.99838" height="0.754723" fill="url(#paint7_linear_5858_105358)" stroke="#1E1400" stroke-width="0.754723"/>
<rect x="47.374" y="37.2949" width="9.7531" height="2.01889" fill="url(#paint8_linear_5858_105358)" stroke="#1E1400"/>
<path d="M46.1677 30.934L52.2504 22.8327L58.3331 30.934H57.6269H57.1269V31.434V35.6196H47.3738V31.434V30.934H46.8738H46.1677Z" fill="url(#paint9_linear_5858_105358)" stroke="#1E1400"/>
<defs>
<linearGradient id="paint0_linear_5858_105358" x1="29.1794" y1="-3.28168" x2="29.1794" y2="22.9683" gradientUnits="userSpaceOnUse">
<stop stop-color="#F2C598"/>
<stop offset="0.223958" stop-color="#ED9844"/>
<stop offset="1" stop-color="#C53D0F"/>
</linearGradient>
<linearGradient id="paint1_linear_5858_105358" x1="29.1793" y1="-0.273866" x2="29.1793" y2="22.9683" gradientUnits="userSpaceOnUse">
<stop offset="0.0828323" stop-color="white"/>
<stop offset="0.453773" stop-color="#FFE22D"/>
<stop offset="0.994792" stop-color="#FF9012"/>
</linearGradient>
<linearGradient id="paint2_linear_5858_105358" x1="7.08358" y1="40.4902" x2="7.08358" y2="41.9997" gradientUnits="userSpaceOnUse">
<stop stop-color="#FFC700"/>
<stop offset="1" stop-color="#DF0000"/>
</linearGradient>
<linearGradient id="paint3_linear_5858_105358" x1="7.08358" y1="36.7949" x2="7.08358" y2="39.8138" gradientUnits="userSpaceOnUse">
<stop stop-color="#FFC700"/>
<stop offset="1" stop-color="#DF0000"/>
</linearGradient>
<linearGradient id="paint4_linear_5858_105358" x1="7.08339" y1="22" x2="7.08339" y2="36.1196" gradientUnits="userSpaceOnUse">
<stop stop-color="#FFC700"/>
<stop offset="1" stop-color="#DF0000"/>
</linearGradient>
<linearGradient id="paint5_linear_5858_105358" x1="29.3375" y1="18.7183" x2="29.3375" y2="44.9683" gradientUnits="userSpaceOnUse">
<stop stop-color="#F2C598"/>
<stop offset="0.223958" stop-color="#ED9844"/>
<stop offset="1" stop-color="#C53D0F"/>
</linearGradient>
<linearGradient id="paint6_linear_5858_105358" x1="29.3379" y1="21.7261" x2="29.3379" y2="44.9683" gradientUnits="userSpaceOnUse">
<stop offset="0.0828323" stop-color="white"/>
<stop offset="0.453773" stop-color="#FFE22D"/>
<stop offset="0.994792" stop-color="#FF9012"/>
</linearGradient>
<linearGradient id="paint7_linear_5858_105358" x1="52.2506" y1="40.4902" x2="52.2506" y2="41.9997" gradientUnits="userSpaceOnUse">
<stop stop-color="#FFC700"/>
<stop offset="1" stop-color="#DF0000"/>
</linearGradient>
<linearGradient id="paint8_linear_5858_105358" x1="52.2506" y1="36.7949" x2="52.2506" y2="39.8138" gradientUnits="userSpaceOnUse">
<stop stop-color="#FFC700"/>
<stop offset="1" stop-color="#DF0000"/>
</linearGradient>
<linearGradient id="paint9_linear_5858_105358" x1="52.2504" y1="22" x2="52.2504" y2="36.1196" gradientUnits="userSpaceOnUse">
<stop stop-color="#FFC700"/>
<stop offset="1" stop-color="#DF0000"/>
</linearGradient>
<clipPath id="clip0_5858_105358">
<rect width="54" height="21" fill="white" transform="translate(2.66699)"/>
</clipPath>
<clipPath id="clip1_5858_105358">
<rect width="29" height="21" fill="white" transform="translate(15.167 22)"/>
</clipPath>
</defs>
</svg>
